<?xml version="1.0" encoding="utf-8"?>
<svg xmlns="http://www.w3.org/2000/svg" xmlns:xlink="http://www.w3.org/1999/xlink" width="600" height="400" viewBox="0 0 2400 1600">
<defs>
  <clipPath id="clip150">
    <rect x="0" y="0" width="2400" height="1600"/>
  </clipPath>
</defs>
<path clip-path="url(#clip150)" d="M0 1600 L2400 1600 L2400 0 L0 0  Z" fill="#ffffff" fill-rule="evenodd" fill-opacity="1"/>
<defs>
  <clipPath id="clip151">
    <rect x="480" y="0" width="1681" height="1600"/>
  </clipPath>
</defs>
<path clip-path="url(#clip150)" d="M175.445 1423.18 L2352.76 1423.18 L2352.76 47.2441 L175.445 47.2441  Z" fill="#ffffff" fill-rule="evenodd" fill-opacity="1"/>
<defs>
  <clipPath id="clip152">
    <rect x="175" y="47" width="2178" height="1377"/>
  </clipPath>
</defs>
<polyline clip-path="url(#clip152)" style="stroke:#000000; stroke-linecap:round; stroke-linejoin:round; stroke-width:2; stroke-opacity:0.1; fill:none" points="471.446,1423.18 471.446,47.2441 "/>
<polyline clip-path="url(#clip152)" style="stroke:#000000; stroke-linecap:round; stroke-linejoin:round; stroke-width:2; stroke-opacity:0.1; fill:none" points="802.298,1423.18 802.298,47.2441 "/>
<polyline clip-path="url(#clip152)" style="stroke:#000000; stroke-linecap:round; stroke-linejoin:round; stroke-width:2; stroke-opacity:0.1; fill:none" points="1133.15,1423.18 1133.15,47.2441 "/>
<polyline clip-path="url(#clip152)" style="stroke:#000000; stroke-linecap:round; stroke-linejoin:round; stroke-width:2; stroke-opacity:0.1; fill:none" points="1464,1423.18 1464,47.2441 "/>
<polyline clip-path="url(#clip152)" style="stroke:#000000; stroke-linecap:round; stroke-linejoin:round; stroke-width:2; stroke-opacity:0.1; fill:none" points="1794.86,1423.18 1794.86,47.2441 "/>
<polyline clip-path="url(#clip152)" style="stroke:#000000; stroke-linecap:round; stroke-linejoin:round; stroke-width:2; stroke-opacity:0.1; fill:none" points="2125.71,1423.18 2125.71,47.2441 "/>
<polyline clip-path="url(#clip150)" style="stroke:#000000; stroke-linecap:round; stroke-linejoin:round; stroke-width:4; stroke-opacity:1; fill:none" points="175.445,1423.18 2352.76,1423.18 "/>
<polyline clip-path="url(#clip150)" style="stroke:#000000; stroke-linecap:round; stroke-linejoin:round; stroke-width:4; stroke-opacity:1; fill:none" points="471.446,1423.18 471.446,1404.28 "/>
<polyline clip-path="url(#clip150)" style="stroke:#000000; stroke-linecap:round; stroke-linejoin:round; stroke-width:4; stroke-opacity:1; fill:none" points="802.298,1423.18 802.298,1404.28 "/>
<polyline clip-path="url(#clip150)" style="stroke:#000000; stroke-linecap:round; stroke-linejoin:round; stroke-width:4; stroke-opacity:1; fill:none" points="1133.15,1423.18 1133.15,1404.28 "/>
<polyline clip-path="url(#clip150)" style="stroke:#000000; stroke-linecap:round; stroke-linejoin:round; stroke-width:4; stroke-opacity:1; fill:none" points="1464,1423.18 1464,1404.28 "/>
<polyline clip-path="url(#clip150)" style="stroke:#000000; stroke-linecap:round; stroke-linejoin:round; stroke-width:4; stroke-opacity:1; fill:none" points="1794.86,1423.18 1794.86,1404.28 "/>
<polyline clip-path="url(#clip150)" style="stroke:#000000; stroke-linecap:round; stroke-linejoin:round; stroke-width:4; stroke-opacity:1; fill:none" points="2125.71,1423.18 2125.71,1404.28 "/>
<path clip-path="url(#clip150)" d="M461.828 1481.64 L469.467 1481.64 L469.467 1455.28 L461.156 1456.95 L461.156 1452.69 L469.42 1451.02 L474.096 1451.02 L474.096 1481.64 L481.735 1481.64 L481.735 1485.58 L461.828 1485.58 L461.828 1481.64 Z" fill="#000000" fill-rule="nonzero" fill-opacity="1" /><path clip-path="url(#clip150)" d="M796.951 1481.64 L813.27 1481.64 L813.27 1485.58 L791.326 1485.58 L791.326 1481.64 Q793.988 1478.89 798.571 1474.26 Q803.178 1469.61 804.358 1468.27 Q806.604 1465.74 807.483 1464.01 Q808.386 1462.25 808.386 1460.56 Q808.386 1457.8 806.442 1456.07 Q804.52 1454.33 801.419 1454.33 Q799.219 1454.33 796.766 1455.09 Q794.335 1455.86 791.557 1457.41 L791.557 1452.69 Q794.382 1451.55 796.835 1450.97 Q799.289 1450.39 801.326 1450.39 Q806.696 1450.39 809.891 1453.08 Q813.085 1455.77 813.085 1460.26 Q813.085 1462.39 812.275 1464.31 Q811.488 1466.2 809.381 1468.8 Q808.803 1469.47 805.701 1472.69 Q802.599 1475.88 796.951 1481.64 Z" fill="#000000" fill-rule="nonzero" fill-opacity="1" /><path clip-path="url(#clip150)" d="M1137.4 1466.95 Q1140.75 1467.66 1142.63 1469.93 Q1144.53 1472.2 1144.53 1475.53 Q1144.53 1480.65 1141.01 1483.45 Q1137.49 1486.25 1131.01 1486.25 Q1128.83 1486.25 1126.52 1485.81 Q1124.23 1485.39 1121.77 1484.54 L1121.77 1480.02 Q1123.72 1481.16 1126.03 1481.74 Q1128.35 1482.32 1130.87 1482.32 Q1135.27 1482.32 1137.56 1480.58 Q1139.88 1478.84 1139.88 1475.53 Q1139.88 1472.48 1137.72 1470.77 Q1135.59 1469.03 1131.77 1469.03 L1127.75 1469.03 L1127.75 1465.19 L1131.96 1465.19 Q1135.41 1465.19 1137.24 1463.82 Q1139.06 1462.43 1139.06 1459.84 Q1139.06 1457.18 1137.17 1455.77 Q1135.29 1454.33 1131.77 1454.33 Q1129.85 1454.33 1127.65 1454.75 Q1125.45 1455.16 1122.81 1456.04 L1122.81 1451.88 Q1125.48 1451.14 1127.79 1450.77 Q1130.13 1450.39 1132.19 1450.39 Q1137.51 1450.39 1140.62 1452.83 Q1143.72 1455.23 1143.72 1459.35 Q1143.72 1462.22 1142.07 1464.21 Q1140.43 1466.18 1137.4 1466.95 Z" fill="#000000" fill-rule="nonzero" fill-opacity="1" /><path clip-path="url(#clip150)" d="M1467.01 1455.09 L1455.21 1473.54 L1467.01 1473.54 L1467.01 1455.09 M1465.79 1451.02 L1471.66 1451.02 L1471.66 1473.54 L1476.6 1473.54 L1476.6 1477.43 L1471.66 1477.43 L1471.66 1485.58 L1467.01 1485.58 L1467.01 1477.43 L1451.41 1477.43 L1451.41 1472.92 L1465.79 1451.02 Z" fill="#000000" fill-rule="nonzero" fill-opacity="1" /><path clip-path="url(#clip150)" d="M1785.13 1451.02 L1803.49 1451.02 L1803.49 1454.96 L1789.42 1454.96 L1789.42 1463.43 Q1790.43 1463.08 1791.45 1462.92 Q1792.47 1462.73 1793.49 1462.73 Q1799.28 1462.73 1802.66 1465.9 Q1806.04 1469.08 1806.04 1474.49 Q1806.04 1480.07 1802.56 1483.17 Q1799.09 1486.25 1792.77 1486.25 Q1790.6 1486.25 1788.33 1485.88 Q1786.08 1485.51 1783.67 1484.77 L1783.67 1480.07 Q1785.76 1481.2 1787.98 1481.76 Q1790.2 1482.32 1792.68 1482.32 Q1796.68 1482.32 1799.02 1480.21 Q1801.36 1478.1 1801.36 1474.49 Q1801.36 1470.88 1799.02 1468.77 Q1796.68 1466.67 1792.68 1466.67 Q1790.8 1466.67 1788.93 1467.08 Q1787.08 1467.5 1785.13 1468.38 L1785.13 1451.02 Z" fill="#000000" fill-rule="nonzero" fill-opacity="1" /><path clip-path="url(#clip150)" d="M2126.11 1466.44 Q2122.96 1466.44 2121.11 1468.59 Q2119.28 1470.74 2119.28 1474.49 Q2119.28 1478.22 2121.11 1480.39 Q2122.96 1482.55 2126.11 1482.55 Q2129.26 1482.55 2131.09 1480.39 Q2132.94 1478.22 2132.94 1474.49 Q2132.94 1470.74 2131.09 1468.59 Q2129.26 1466.44 2126.11 1466.44 M2135.4 1451.78 L2135.4 1456.04 Q2133.64 1455.21 2131.83 1454.77 Q2130.05 1454.33 2128.29 1454.33 Q2123.66 1454.33 2121.21 1457.45 Q2118.77 1460.58 2118.43 1466.9 Q2119.79 1464.89 2121.85 1463.82 Q2123.91 1462.73 2126.39 1462.73 Q2131.6 1462.73 2134.61 1465.9 Q2137.64 1469.05 2137.64 1474.49 Q2137.64 1479.82 2134.49 1483.03 Q2131.34 1486.25 2126.11 1486.25 Q2120.12 1486.25 2116.95 1481.67 Q2113.77 1477.06 2113.77 1468.33 Q2113.77 1460.14 2117.66 1455.28 Q2121.55 1450.39 2128.1 1450.39 Q2129.86 1450.39 2131.65 1450.74 Q2133.45 1451.09 2135.4 1451.78 Z" fill="#000000" fill-rule="nonzero" fill-opacity="1" /><path clip-path="url(#clip150)" d="M1276.72 1519.2 L1267.61 1555.89 Q1267.35 1557.05 1267.35 1557.34 Q1267.35 1557.72 1267.45 1557.88 Q1267.57 1558.08 1268.28 1558.24 Q1269.02 1558.4 1270.5 1558.4 Q1271.05 1558.4 1271.25 1558.4 Q1271.44 1558.4 1271.73 1558.46 Q1272.02 1558.53 1272.12 1558.69 Q1272.21 1558.85 1272.21 1559.11 Q1272.21 1560.43 1271.05 1560.43 Q1269.96 1560.43 1267.67 1560.33 Q1265.38 1560.23 1264.26 1560.23 Q1263.16 1560.23 1260.94 1560.33 Q1258.72 1560.43 1257.65 1560.43 Q1257.27 1560.43 1257.04 1560.23 Q1256.82 1560.07 1256.82 1559.88 L1256.79 1559.72 Q1256.79 1558.82 1257.14 1558.59 Q1257.49 1558.4 1258.3 1558.4 Q1261.07 1558.37 1261.87 1557.98 Q1262.68 1557.59 1263.07 1556.21 L1266.03 1544.42 Q1262.07 1548.38 1258.23 1548.38 Q1254.53 1548.38 1252.02 1545.48 Q1249.54 1542.55 1249.54 1537.82 Q1249.54 1534.31 1250.92 1530.77 Q1252.34 1527.22 1254.53 1524.55 Q1256.75 1521.88 1259.65 1520.2 Q1262.55 1518.49 1265.42 1518.49 Q1267.25 1518.49 1268.89 1519.56 Q1270.57 1520.62 1271.57 1523.1 Q1272.41 1521.68 1273.95 1520.14 Q1275.5 1518.56 1276.04 1518.56 Q1276.37 1518.56 1276.53 1518.78 Q1276.72 1518.98 1276.72 1519.2 M1270.63 1525.74 Q1270.63 1525.42 1270.38 1524.61 Q1270.15 1523.81 1269.64 1522.71 Q1269.15 1521.59 1268.03 1520.78 Q1266.9 1519.94 1265.42 1519.94 Q1263.29 1519.94 1261 1522.01 Q1258.75 1524.03 1257.27 1527.58 Q1256.33 1529.9 1255.27 1534.21 Q1254.21 1538.53 1254.21 1540.72 Q1254.21 1541.23 1254.24 1541.81 Q1254.31 1542.39 1254.56 1543.36 Q1254.82 1544.32 1255.21 1545.06 Q1255.63 1545.81 1256.46 1546.35 Q1257.3 1546.9 1258.43 1546.9 Q1260.88 1546.9 1263.32 1544.81 Q1265.77 1542.71 1266.8 1540.85 Q1266.93 1540.65 1268.77 1533.34 Q1270.63 1526.03 1270.63 1525.74 Z" fill="#000000" fill-rule="nonzero" fill-opacity="1" /><polyline clip-path="url(#clip152)" style="stroke:#000000; stroke-linecap:round; stroke-linejoin:round; stroke-width:2; stroke-opacity:0.1; fill:none" points="175.445,1396.87 2352.76,1396.87 "/>
<polyline clip-path="url(#clip152)" style="stroke:#000000; stroke-linecap:round; stroke-linejoin:round; stroke-width:2; stroke-opacity:0.1; fill:none" points="175.445,1117.26 2352.76,1117.26 "/>
<polyline clip-path="url(#clip152)" style="stroke:#000000; stroke-linecap:round; stroke-linejoin:round; stroke-width:2; stroke-opacity:0.1; fill:none" points="175.445,837.655 2352.76,837.655 "/>
<polyline clip-path="url(#clip152)" style="stroke:#000000; stroke-linecap:round; stroke-linejoin:round; stroke-width:2; stroke-opacity:0.1; fill:none" points="175.445,558.05 2352.76,558.05 "/>
<polyline clip-path="url(#clip152)" style="stroke:#000000; stroke-linecap:round; stroke-linejoin:round; stroke-width:2; stroke-opacity:0.1; fill:none" points="175.445,278.445 2352.76,278.445 "/>
<polyline clip-path="url(#clip150)" style="stroke:#000000; stroke-linecap:round; stroke-linejoin:round; stroke-width:4; stroke-opacity:1; fill:none" points="175.445,1423.18 175.445,47.2441 "/>
<polyline clip-path="url(#clip150)" style="stroke:#000000; stroke-linecap:round; stroke-linejoin:round; stroke-width:4; stroke-opacity:1; fill:none" points="175.445,1396.87 194.343,1396.87 "/>
<polyline clip-path="url(#clip150)" style="stroke:#000000; stroke-linecap:round; stroke-linejoin:round; stroke-width:4; stroke-opacity:1; fill:none" points="175.445,1117.26 194.343,1117.26 "/>
<polyline clip-path="url(#clip150)" style="stroke:#000000; stroke-linecap:round; stroke-linejoin:round; stroke-width:4; stroke-opacity:1; fill:none" points="175.445,837.655 194.343,837.655 "/>
<polyline clip-path="url(#clip150)" style="stroke:#000000; stroke-linecap:round; stroke-linejoin:round; stroke-width:4; stroke-opacity:1; fill:none" points="175.445,558.05 194.343,558.05 "/>
<polyline clip-path="url(#clip150)" style="stroke:#000000; stroke-linecap:round; stroke-linejoin:round; stroke-width:4; stroke-opacity:1; fill:none" points="175.445,278.445 194.343,278.445 "/>
<path clip-path="url(#clip150)" d="M127.501 1382.66 Q123.89 1382.66 122.061 1386.23 Q120.255 1389.77 120.255 1396.9 Q120.255 1404.01 122.061 1407.57 Q123.89 1411.11 127.501 1411.11 Q131.135 1411.11 132.941 1407.57 Q134.769 1404.01 134.769 1396.9 Q134.769 1389.77 132.941 1386.23 Q131.135 1382.66 127.501 1382.66 M127.501 1378.96 Q133.311 1378.96 136.367 1383.57 Q139.445 1388.15 139.445 1396.9 Q139.445 1405.63 136.367 1410.23 Q133.311 1414.82 127.501 1414.82 Q121.691 1414.82 118.612 1410.23 Q115.556 1405.63 115.556 1396.9 Q115.556 1388.15 118.612 1383.57 Q121.691 1378.96 127.501 1378.96 Z" fill="#000000" fill-rule="nonzero" fill-opacity="1" /><path clip-path="url(#clip150)" d="M119.538 1130.61 L127.177 1130.61 L127.177 1104.24 L118.867 1105.91 L118.867 1101.65 L127.13 1099.98 L131.806 1099.98 L131.806 1130.61 L139.445 1130.61 L139.445 1134.54 L119.538 1134.54 L119.538 1130.61 Z" fill="#000000" fill-rule="nonzero" fill-opacity="1" /><path clip-path="url(#clip150)" d="M123.126 851 L139.445 851 L139.445 854.935 L117.501 854.935 L117.501 851 Q120.163 848.246 124.746 843.616 Q129.353 838.963 130.533 837.621 Q132.779 835.097 133.658 833.361 Q134.561 831.602 134.561 829.912 Q134.561 827.158 132.617 825.422 Q130.695 823.685 127.593 823.685 Q125.394 823.685 122.941 824.449 Q120.51 825.213 117.732 826.764 L117.732 822.042 Q120.556 820.908 123.01 820.329 Q125.464 819.75 127.501 819.75 Q132.871 819.75 136.066 822.435 Q139.26 825.121 139.26 829.611 Q139.26 831.741 138.45 833.662 Q137.663 835.56 135.556 838.153 Q134.978 838.824 131.876 842.042 Q128.774 845.236 123.126 851 Z" fill="#000000" fill-rule="nonzero" fill-opacity="1" /><path clip-path="url(#clip150)" d="M132.316 556.696 Q135.672 557.414 137.547 559.682 Q139.445 561.951 139.445 565.284 Q139.445 570.4 135.927 573.201 Q132.408 576.002 125.927 576.002 Q123.751 576.002 121.436 575.562 Q119.144 575.145 116.691 574.289 L116.691 569.775 Q118.635 570.909 120.95 571.488 Q123.265 572.066 125.788 572.066 Q130.186 572.066 132.478 570.33 Q134.792 568.594 134.792 565.284 Q134.792 562.228 132.64 560.515 Q130.51 558.779 126.691 558.779 L122.663 558.779 L122.663 554.937 L126.876 554.937 Q130.325 554.937 132.154 553.571 Q133.982 552.182 133.982 549.59 Q133.982 546.928 132.084 545.516 Q130.209 544.08 126.691 544.08 Q124.769 544.08 122.57 544.497 Q120.371 544.914 117.732 545.793 L117.732 541.627 Q120.394 540.886 122.709 540.516 Q125.047 540.145 127.107 540.145 Q132.431 540.145 135.533 542.576 Q138.635 544.983 138.635 549.104 Q138.635 551.974 136.992 553.965 Q135.348 555.932 132.316 556.696 Z" fill="#000000" fill-rule="nonzero" fill-opacity="1" /><path clip-path="url(#clip150)" d="M129.862 265.239 L118.056 283.688 L129.862 283.688 L129.862 265.239 M128.635 261.165 L134.515 261.165 L134.515 283.688 L139.445 283.688 L139.445 287.577 L134.515 287.577 L134.515 295.725 L129.862 295.725 L129.862 287.577 L114.26 287.577 L114.26 283.063 L128.635 261.165 Z" fill="#000000" fill-rule="nonzero" fill-opacity="1" /><path clip-path="url(#clip150)" d="M39.2425 717.179 Q43.9446 717.179 48.4856 719.563 Q53.0267 721.914 55.8286 725.617 Q58.5983 729.321 58.5983 733.089 Q58.5983 735.344 57.3744 736.857 Q56.1184 738.339 54.3471 739.144 Q56.5371 739.756 61.7866 741.076 Q67.0362 742.397 67.5515 742.397 Q67.8413 742.397 67.9702 742.332 Q68.099 742.268 68.26 741.978 Q68.4533 741.688 68.5177 740.98 Q68.6143 740.271 68.6143 739.079 Q68.6143 738.467 68.6143 738.242 Q68.6465 737.984 68.8075 737.759 Q68.9686 737.501 69.3228 737.501 Q70.6433 737.501 70.6433 738.693 Q70.6433 739.756 70.5466 741.946 Q70.45 744.136 70.45 745.231 Q70.45 746.165 70.5466 748.033 Q70.6433 749.901 70.6433 750.77 Q70.6433 751.64 69.8703 751.64 Q69.4194 751.64 69.1296 751.511 Q68.8719 751.414 68.7431 751.157 Q68.6465 750.899 68.6143 750.674 Q68.6143 750.48 68.6143 750.094 Q68.6143 748.612 68.3566 747.968 Q68.1312 747.324 67.6481 747.099 Q67.1972 746.841 65.909 746.551 L36.5373 739.144 Q34.5727 738.693 33.1878 738.693 Q31.4487 738.693 30.8046 739.24 Q30.1605 739.788 30.1605 740.754 Q30.1605 742.429 32.1573 743.524 Q34.154 744.619 38.0187 745.553 Q39.0815 745.843 39.307 746.036 Q39.5324 746.197 39.5324 746.68 Q39.5002 747.485 38.8561 747.485 Q38.695 747.485 37.6645 747.227 Q36.6017 746.97 35.0558 746.487 Q33.4777 745.971 32.4793 745.424 Q31.803 745.102 31.3521 744.812 Q30.9012 744.522 30.1927 743.942 Q29.4842 743.331 29.0977 742.461 Q28.7112 741.591 28.7112 740.529 Q28.7112 738.467 29.9351 736.761 Q31.1589 735.054 33.6387 734.603 Q31.4809 732.767 30.0961 730.513 Q28.7112 728.258 28.7112 725.972 Q28.7112 722.171 31.6742 719.691 Q34.6049 717.179 39.2425 717.179 M36.344 721.946 Q33.4133 721.946 31.803 723.073 Q30.1605 724.168 30.1605 726.165 Q30.1605 728.645 32.6725 731.511 Q35.0558 734.345 37.278 734.925 L50.1925 738.178 L51.2553 738.371 Q51.4486 738.371 52.0283 738.274 Q52.5758 738.145 53.4775 737.791 Q54.3793 737.405 55.1844 736.889 Q55.9574 736.342 56.5371 735.376 Q57.1168 734.377 57.1168 733.154 Q57.1168 731.189 55.3777 729.063 Q53.6386 726.906 50.3536 725.295 Q48.228 724.297 43.6547 723.138 Q39.0493 721.946 36.344 721.946 Z" fill="#000000" fill-rule="nonzero" fill-opacity="1" /><polyline clip-path="url(#clip152)" style="stroke:#009af9; stroke-linecap:round; stroke-linejoin:round; stroke-width:8; stroke-opacity:1; fill:none" points="2291.13,1117.26 2291.07,1121.66 2290.9,1125.98 2290.6,1130.24 2290.19,1134.43 2289.67,1138.56 2289.04,1142.61 2288.3,1146.6 2287.45,1150.53 2286.5,1154.39 2285.45,1158.19 2284.29,1161.93 2283.04,1165.61 2281.68,1169.22 2280.23,1172.78 2278.69,1176.27 2277.06,1179.71 2275.33,1183.09 2273.52,1186.41 2271.62,1189.68 2269.63,1192.9 2267.56,1196.05 2265.41,1199.16 2263.18,1202.21 2260.87,1205.21 2258.48,1208.16 2256.02,1211.07 2253.48,1213.92 2250.87,1216.72 2248.19,1219.47 2245.44,1222.18 2242.63,1224.84 2239.75,1227.45 2236.8,1230.02 2233.79,1232.55 2230.72,1235.03 2227.59,1237.47 2224.4,1239.87 2221.16,1242.23 2217.85,1244.54 2214.5,1246.82 2211.09,1249.05 2207.62,1251.25 2204.11,1253.41 2200.55,1255.53 2196.93,1257.62 2193.28,1259.67 2189.57,1261.68 2185.82,1263.66 2182.03,1265.6 2178.19,1267.52 2174.32,1269.39 2170.4,1271.24 2166.44,1273.05 2162.45,1274.83 2158.42,1276.59 2154.35,1278.31 2150.25,1280 2146.11,1281.66 2141.94,1283.3 2137.74,1284.9 2133.51,1286.48 2129.24,1288.03 2124.95,1289.55 2120.63,1291.05 2116.28,1292.52 2111.91,1293.97 2107.51,1295.39 2103.08,1296.79 2098.63,1298.16 2094.16,1299.51 2089.66,1300.84 2085.14,1302.15 2080.6,1303.43 2076.05,1304.69 2071.47,1305.93 2066.87,1307.15 2062.25,1308.34 2057.62,1309.52 2052.97,1310.68 2048.3,1311.82 2043.62,1312.94 2038.92,1314.04 2034.21,1315.12 2029.48,1316.18 2024.74,1317.22 2019.99,1318.25 2015.23,1319.26 2010.45,1320.26 2005.66,1321.23 2000.87,1322.19 1996.06,1323.14 1991.24,1324.07 1986.42,1324.98 1981.58,1325.88 1976.74,1326.76 1971.89,1327.63 1967.04,1328.49 1962.17,1329.33 1957.3,1330.16 1952.43,1330.97 1947.55,1331.77 1942.67,1332.56 1937.78,1333.33 1932.88,1334.09 1927.99,1334.84 1923.09,1335.58 1918.18,1336.3 1913.28,1337.02 1908.37,1337.72 1903.46,1338.41 1898.55,1339.09 1893.63,1339.76 1888.72,1340.42 1883.81,1341.06 1878.89,1341.7 1873.98,1342.33 1869.06,1342.95 1864.15,1343.55 1859.24,1344.15 1854.33,1344.74 1849.42,1345.32 1844.51,1345.89 1839.6,1346.45 1834.7,1347 1829.8,1347.55 1824.9,1348.08 1820.01,1348.61 1815.11,1349.13 1810.22,1349.64 1805.34,1350.14 1800.46,1350.64 1795.58,1351.12 1790.71,1351.6 1785.84,1352.08 1780.97,1352.54 1776.12,1353 1771.26,1353.45 1766.41,1353.9 1761.57,1354.33 1756.73,1354.76 1751.9,1355.19 1747.07,1355.61 1742.25,1356.02 1737.44,1356.42 1732.63,1356.82 1727.83,1357.22 1723.04,1357.6 1718.25,1357.99 1713.47,1358.36 1708.7,1358.73 1703.93,1359.1 1699.17,1359.46 1694.42,1359.81 1689.68,1360.16 1684.94,1360.51 1680.21,1360.85 1675.49,1361.18 1670.78,1361.51 1666.08,1361.83 1661.38,1362.15 1656.7,1362.47 1652.02,1362.78 1647.35,1363.09 1642.69,1363.39 1638.03,1363.68 1633.39,1363.98 1628.76,1364.27 1624.13,1364.55 1619.51,1364.83 1614.91,1365.11 1610.31,1365.38 1605.72,1365.65 1601.14,1365.92 1596.57,1366.18 1592.01,1366.43 1587.46,1366.69 1582.92,1366.94 1578.39,1367.19 1573.87,1367.43 1569.35,1367.67 1564.85,1367.91 1560.36,1368.14 1555.88,1368.37 1551.41,1368.6 1546.95,1368.82 1542.5,1369.04 1538.05,1369.26 1533.62,1369.47 1529.2,1369.69 1524.79,1369.89 1520.39,1370.1 1516,1370.3 1511.63,1370.5 1507.26,1370.7 1502.9,1370.9 1498.55,1371.09 1494.22,1371.28 1489.89,1371.47 1485.58,1371.65 1481.27,1371.83 1476.98,1372.01 1472.69,1372.19 1468.42,1372.36 1464.16,1372.54 1459.91,1372.71 1455.67,1372.88 1451.44,1373.04 1447.22,1373.2 1443.02,1373.37 1438.82,1373.53 1434.64,1373.68 1430.46,1373.84 1426.3,1373.99 1422.15,1374.14 1418,1374.29 1413.87,1374.44 1409.76,1374.58 1405.65,1374.73 1401.55,1374.87 1397.46,1375.01 1393.39,1375.14 1389.32,1375.28 1385.27,1375.41 1381.23,1375.55 1377.2,1375.68 1373.18,1375.8 1369.17,1375.93 1365.17,1376.06 1361.19,1376.18 1357.21,1376.3 1353.25,1376.42 1349.29,1376.54 1345.35,1376.66 1341.42,1376.78 1337.5,1376.89 1333.59,1377 1329.7,1377.12 1325.81,1377.23 1321.93,1377.34 1318.07,1377.44 1314.22,1377.55 1310.37,1377.65 1306.54,1377.76 1302.72,1377.86 1298.91,1377.96 1295.11,1378.06 1291.33,1378.16 1287.55,1378.25 1283.79,1378.35 1280.03,1378.44 1276.29,1378.54 1272.56,1378.63 1268.83,1378.72 1265.12,1378.81 1261.43,1378.9 1257.74,1378.98 1254.06,1379.07 1250.39,1379.15 1246.74,1379.24 1243.09,1379.32 1239.46,1379.4 1235.84,1379.48 1232.22,1379.56 1228.62,1379.64 1225.03,1379.72 1221.45,1379.8 1217.88,1379.87 1214.32,1379.95 1210.78,1380.02 1207.24,1380.09 1203.71,1380.17 1200.2,1380.24 1196.69,1380.31 1193.2,1380.38 1189.72,1380.44 1186.24,1380.51 1182.78,1380.58 1179.33,1380.64 1175.89,1380.71 1172.46,1380.77 1169.04,1380.83 1165.63,1380.9 1162.23,1380.96 1158.84,1381.02 1155.47,1381.08 1152.1,1381.14 1148.74,1381.2 1145.4,1381.25 1142.06,1381.31 1138.73,1381.37 1135.42,1381.42 1132.11,1381.47 1128.82,1381.53 1125.53,1381.58 1122.26,1381.63 1119,1381.69 1115.74,1381.74 1112.5,1381.79 1109.27,1381.84 1106.04,1381.88 1102.83,1381.93 1099.63,1381.98 1096.43,1382.03 1093.25,1382.07 1090.08,1382.12 1086.92,1382.16 1083.76,1382.21 1080.62,1382.25 1077.49,1382.29 1074.37,1382.34 1071.25,1382.38 1068.15,1382.42 1065.06,1382.46 1061.97,1382.5 1058.9,1382.54 1055.84,1382.58 1052.78,1382.62 1049.74,1382.65 1046.7,1382.69 1043.68,1382.73 1040.66,1382.76 1037.66,1382.8 1034.66,1382.83 1031.68,1382.87 1028.7,1382.9 1025.73,1382.94 1022.78,1382.97 1019.83,1383 1016.89,1383.03 1013.96,1383.06 1011.04,1383.1 1008.13,1383.13 1005.23,1383.16 1002.34,1383.19 999.458,1383.21 996.586,1383.24 993.723,1383.27 990.869,1383.3 988.024,1383.32 985.188,1383.35 982.362,1383.38 979.545,1383.4 976.737,1383.43 973.938,1383.45 971.149,1383.48 968.368,1383.5 965.597,1383.52 962.834,1383.55 960.081,1383.57 957.336,1383.59 954.601,1383.61 951.874,1383.64 949.157,1383.66 946.448,1383.68 943.748,1383.7 941.057,1383.72 938.375,1383.74 935.701,1383.75 933.037,1383.77 930.381,1383.79 927.734,1383.81 925.095,1383.83 922.465,1383.84 919.844,1383.86 917.232,1383.87 914.628,1383.89 912.033,1383.91 909.446,1383.92 906.868,1383.94 904.298,1383.95 901.737,1383.96 899.184,1383.98 896.639,1383.99 894.103,1384 891.576,1384.02 889.057,1384.03 886.546,1384.04 884.043,1384.05 881.549,1384.06 879.063,1384.07 876.585,1384.08 874.116,1384.09 871.655,1384.1 869.201,1384.11 866.756,1384.12 864.32,1384.13 861.891,1384.14 859.47,1384.14 857.057,1384.15 854.653,1384.16 852.256,1384.17 849.868,1384.17 847.487,1384.18 845.114,1384.19 842.749,1384.19 840.393,1384.2 838.043,1384.2 835.702,1384.21 833.369,1384.21 831.043,1384.21 828.725,1384.22 826.415,1384.22 824.113,1384.22 821.818,1384.23 819.531,1384.23 817.252,1384.23 814.98,1384.23 812.716,1384.24 810.46,1384.24 808.211,1384.24 805.97,1384.24 803.736,1384.24 801.51,1384.24 799.291,1384.24 797.079,1384.24 794.875,1384.24 792.679,1384.24 790.49,1384.23 788.308,1384.23 786.133,1384.23 783.966,1384.23 781.806,1384.23 779.654,1384.22 777.508,1384.22 775.37,1384.22 773.239,1384.21 771.115,1384.21 768.999,1384.2 766.889,1384.2 764.787,1384.19 762.692,1384.19 760.604,1384.18 758.523,1384.18 756.449,1384.17 754.382,1384.17 752.322,1384.16 750.269,1384.15 748.222,1384.14 746.183,1384.14 744.151,1384.13 742.125,1384.12 740.107,1384.11 738.095,1384.1 736.09,1384.1 734.092,1384.09 732.101,1384.08 730.116,1384.07 728.138,1384.06 726.167,1384.05 724.203,1384.04 722.245,1384.03 720.294,1384.01 718.349,1384 716.411,1383.99 714.48,1383.98 712.555,1383.97 710.637,1383.96 708.725,1383.94 706.82,1383.93 704.921,1383.92 703.029,1383.9 701.143,1383.89 699.264,1383.87 697.391,1383.86 695.524,1383.85 693.664,1383.83 691.81,1383.82 689.962,1383.8 688.121,1383.78 686.286,1383.77 684.457,1383.75 682.635,1383.74 680.818,1383.72 679.008,1383.7 677.204,1383.68 675.407,1383.67 673.615,1383.65 671.83,1383.63 670.05,1383.61 668.277,1383.59 666.51,1383.57 664.749,1383.55 662.993,1383.53 661.244,1383.51 659.501,1383.49 657.764,1383.47 656.033,1383.45 654.307,1383.43 652.588,1383.41 650.874,1383.39 649.167,1383.37 647.465,1383.35 645.769,1383.32 644.079,1383.3 642.395,1383.28 640.716,1383.25 639.043,1383.23 637.376,1383.21 635.715,1383.18 634.059,1383.16 632.409,1383.13 630.765,1383.11 629.127,1383.08 627.494,1383.06 625.866,1383.03 624.245,1383.01 622.628,1382.98 621.018,1382.95 619.413,1382.93 617.813,1382.9 616.219,1382.87 614.631,1382.84 613.047,1382.81 611.47,1382.79 609.898,1382.76 608.331,1382.73 606.77,1382.7 605.214,1382.67 603.663,1382.64 602.118,1382.61 600.578,1382.58 599.043,1382.55 597.514,1382.52 595.99,1382.49 594.471,1382.45 592.958,1382.42 591.449,1382.39 589.946,1382.36 588.448,1382.32 586.956,1382.29 585.468,1382.26 583.986,1382.22 582.508,1382.19 581.036,1382.15 579.569,1382.12 578.107,1382.08 576.65,1382.05 575.198,1382.01 573.752,1381.98 572.31,1381.94 570.873,1381.9 569.441,1381.87 568.014,1381.83 566.592,1381.79 565.175,1381.75 563.763,1381.72 562.356,1381.68 560.954,1381.64 559.556,1381.6 558.164,1381.56 556.776,1381.52 555.393,1381.48 554.015,1381.44 552.642,1381.4 551.273,1381.36 549.909,1381.31 548.55,1381.27 547.196,1381.23 545.846,1381.19 544.501,1381.14 543.161,1381.1 541.826,1381.06 540.495,1381.01 539.168,1380.97 537.847,1380.92 536.53,1380.88 535.217,1380.83 533.909,1380.79 532.606,1380.74 531.307,1380.7 530.013,1380.65 528.723,1380.6 527.438,1380.55 526.157,1380.51 524.881,1380.46 523.609,1380.41 522.342,1380.36 521.079,1380.31 519.821,1380.26 518.567,1380.21 517.317,1380.16 516.071,1380.11 514.83,1380.06 513.594,1380.01 512.361,1379.95 511.133,1379.9 509.91,1379.85 508.69,1379.8 507.475,1379.74 506.264,1379.69 505.058,1379.63 503.855,1379.58 502.657,1379.52 501.463,1379.47 500.273,1379.41 499.088,1379.36 497.906,1379.3 496.729,1379.24 495.556,1379.19 494.387,1379.13 493.222,1379.07 492.061,1379.01 490.904,1378.95 489.751,1378.89 488.603,1378.83 487.458,1378.77 486.318,1378.71 485.181,1378.65 484.048,1378.59 482.92,1378.53 481.795,1378.46 480.675,1378.4 479.558,1378.34 478.445,1378.27 477.336,1378.21 476.232,1378.14 475.131,1378.08 474.033,1378.01 472.94,1377.95 471.851,1377.88 470.765,1377.81 469.684,1377.75 468.606,1377.68 467.532,1377.61 466.461,1377.54 465.395,1377.47 464.332,1377.4 463.273,1377.33 462.218,1377.26 461.167,1377.19 460.119,1377.12 459.075,1377.05 458.035,1376.97 456.998,1376.9 455.965,1376.83 454.936,1376.75 453.91,1376.68 452.888,1376.6 451.87,1376.53 450.855,1376.45 449.844,1376.37 448.836,1376.3 447.832,1376.22 446.832,1376.14 445.835,1376.06 444.842,1375.98 443.852,1375.9 442.866,1375.82 441.883,1375.74 440.904,1375.66 439.928,1375.58 438.956,1375.5 437.987,1375.41 437.022,1375.33 436.06,1375.25 435.101,1375.16 434.146,1375.08 433.195,1374.99 432.247,1374.9 431.302,1374.82 430.36,1374.73 429.422,1374.64 428.488,1374.55 427.556,1374.46 426.628,1374.38 425.703,1374.29 424.782,1374.19 423.864,1374.1 422.949,1374.01 422.038,1373.92 421.129,1373.83 420.224,1373.73 419.323,1373.64 418.424,1373.54 417.529,1373.45 416.637,1373.35 415.748,1373.25 414.862,1373.16 413.98,1373.06 413.101,1372.96 412.224,1372.86 411.352,1372.76 410.482,1372.66 409.615,1372.56 408.751,1372.46 407.891,1372.35 407.034,1372.25 406.179,1372.15 405.328,1372.04 404.48,1371.94 403.635,1371.83 402.793,1371.72 401.954,1371.62 401.119,1371.51 400.286,1371.4 399.456,1371.29 398.629,1371.18 397.805,1371.07 396.984,1370.96 396.167,1370.85 395.352,1370.73 394.54,1370.62 393.731,1370.51 392.925,1370.39 392.122,1370.27 391.322,1370.16 390.524,1370.04 389.73,1369.92 388.939,1369.8 388.15,1369.68 387.364,1369.56 386.581,1369.44 385.802,1369.32 385.024,1369.2 384.25,1369.08 383.479,1368.95 382.71,1368.83 381.944,1368.7 381.181,1368.58 380.421,1368.45 379.664,1368.32 378.909,1368.19 378.157,1368.06 377.408,1367.93 376.662,1367.8 375.918,1367.67 375.177,1367.53 374.439,1367.4 373.703,1367.27 372.971,1367.13 372.241,1366.99 371.513,1366.86 370.789,1366.72 370.067,1366.58 369.347,1366.44 368.631,1366.3 367.917,1366.16 367.205,1366.02 366.497,1365.87 365.79,1365.73 365.087,1365.58 364.386,1365.44 363.688,1365.29 362.992,1365.14 362.299,1364.99 361.608,1364.84 360.92,1364.69 360.235,1364.54 359.552,1364.39 358.872,1364.24 358.194,1364.08 357.519,1363.93 356.846,1363.77 356.176,1363.61 355.508,1363.45 354.843,1363.29 354.18,1363.13 353.52,1362.97 352.862,1362.81 352.207,1362.65 351.554,1362.48 350.904,1362.32 350.256,1362.15 349.61,1361.98 348.967,1361.81 348.326,1361.64 347.688,1361.47 347.052,1361.3 346.419,1361.13 345.788,1360.95 345.159,1360.78 344.533,1360.6 343.909,1360.43 343.287,1360.25 342.668,1360.07 342.051,1359.89 341.437,1359.71 340.824,1359.52 340.215,1359.34 339.607,1359.15 339.002,1358.97 338.399,1358.78 337.798,1358.59 337.2,1358.4 336.604,1358.21 336.01,1358.02 335.419,1357.82 334.829,1357.63 334.242,1357.43 333.658,1357.24 333.075,1357.04 332.495,1356.84 331.917,1356.64 331.341,1356.44 330.768,1356.23 330.196,1356.03 329.627,1355.82 329.06,1355.62 328.496,1355.41 327.933,1355.2 327.373,1354.99 326.814,1354.77 326.258,1354.56 325.704,1354.34 325.153,1354.13 324.603,1353.91 324.056,1353.69 323.51,1353.47 322.967,1353.25 322.426,1353.03 321.887,1352.8 321.35,1352.58 320.816,1352.35 320.283,1352.12 319.752,1351.89 319.224,1351.66 318.698,1351.42 318.173,1351.19 317.651,1350.95 317.131,1350.72 316.613,1350.48 316.097,1350.24 315.583,1349.99 315.071,1349.75 314.561,1349.5 314.053,1349.26 313.547,1349.01 313.043,1348.76 312.541,1348.51 312.041,1348.26 311.544,1348 311.048,1347.75 310.554,1347.49 310.062,1347.23 309.572,1346.97 309.084,1346.71 308.598,1346.44 308.114,1346.18 307.632,1345.91 307.152,1345.64 306.674,1345.37 306.198,1345.09 305.723,1344.82 305.251,1344.54 304.78,1344.27 304.312,1343.99 303.845,1343.71 303.381,1343.42 302.918,1343.14 302.457,1342.85 301.998,1342.56 301.541,1342.27 301.086,1341.98 300.632,1341.69 300.181,1341.39 299.731,1341.1 299.283,1340.8 298.838,1340.49 298.393,1340.19 297.951,1339.89 297.511,1339.58 297.072,1339.27 296.636,1338.96 296.201,1338.65 295.768,1338.33 295.337,1338.02 294.907,1337.7 294.48,1337.38 294.054,1337.05 293.63,1336.73 293.208,1336.4 292.787,1336.07 292.369,1335.74 291.952,1335.41 291.537,1335.08 291.124,1334.74 290.712,1334.4 290.303,1334.06 289.895,1333.72 289.488,1333.37 289.084,1333.02 288.681,1332.67 288.28,1332.32 287.881,1331.97 287.484,1331.61 287.088,1331.25 286.694,1330.89 286.302,1330.53 285.911,1330.16 285.522,1329.79 285.135,1329.42 284.75,1329.05 284.366,1328.68 283.984,1328.3 283.604,1327.92 283.225,1327.54 282.848,1327.15 282.473,1326.77 282.099,1326.38 281.727,1325.99 281.357,1325.59 280.989,1325.2 280.622,1324.8 280.256,1324.39 279.893,1323.99 279.531,1323.58 279.171,1323.18 278.812,1322.76 278.455,1322.35 278.1,1321.93 277.746,1321.51 277.394,1321.09 277.044,1320.67 276.695,1320.24 276.348,1319.81 276.002,1319.38 275.658,1318.94 275.316,1318.5 274.975,1318.06 274.636,1317.62 274.299,1317.17 273.963,1316.72 273.628,1316.27 273.296,1315.81 272.965,1315.36 272.635,1314.9 272.307,1314.43 271.981,1313.97 271.656,1313.5 271.333,1313.02 271.011,1312.55 270.691,1312.07 270.373,1311.59 270.056,1311.1 269.741,1310.62 269.427,1310.13 269.115,1309.63 268.804,1309.14 268.495,1308.64 268.187,1308.13 267.881,1307.63 267.577,1307.12 267.274,1306.61 266.973,1306.09 266.673,1305.57 266.375,1305.05 266.078,1304.52 265.783,1303.99 265.489,1303.46 265.197,1302.93 264.906,1302.39 264.617,1301.85 264.329,1301.3 264.043,1300.75 263.759,1300.2 263.476,1299.64 263.194,1299.08 262.914,1298.52 262.636,1297.95 262.359,1297.38 262.083,1296.81 261.809,1296.23 261.536,1295.65 261.265,1295.07 260.996,1294.48 260.728,1293.89 260.461,1293.29 260.196,1292.69 259.933,1292.09 259.671,1291.48 259.41,1290.87 259.151,1290.26 258.893,1289.64 258.637,1289.02 258.383,1288.39 258.129,1287.76 257.878,1287.13 257.628,1286.49 257.379,1285.85 257.132,1285.2 256.886,1284.55 256.641,1283.9 256.399,1283.24 256.157,1282.58 255.917,1281.91 255.679,1281.24 255.442,1280.57 255.206,1279.89 254.972,1279.2 254.74,1278.52 254.509,1277.82 254.279,1277.13 254.051,1276.43 253.824,1275.72 253.599,1275.01 253.375,1274.3 253.153,1273.58 252.932,1272.86 252.712,1272.13 252.494,1271.4 252.278,1270.66 252.063,1269.92 251.849,1269.17 251.637,1268.42 251.426,1267.67 251.217,1266.91 251.009,1266.14 250.803,1265.37 250.598,1264.6 250.394,1263.82 250.192,1263.04 249.992,1262.25 249.793,1261.45 249.595,1260.65 249.399,1259.85 249.204,1259.04 249.011,1258.23 248.819,1257.41 248.629,1256.58 248.44,1255.75 248.253,1254.92 248.067,1254.08 247.882,1253.23 247.699,1252.38 247.518,1251.53 247.338,1250.67 247.159,1249.8 246.982,1248.93 246.806,1248.05 246.632,1247.17 246.459,1246.28 246.288,1245.39 246.118,1244.49 245.95,1243.58 245.783,1242.67 245.617,1241.76 245.453,1240.83 245.291,1239.91 245.13,1238.97 244.97,1238.03 244.812,1237.09 244.656,1236.14 244.501,1235.18 244.347,1234.22 244.195,1233.25 244.044,1232.27 243.895,1231.29 243.747,1230.3 243.601,1229.31 243.457,1228.31 243.314,1227.31 243.172,1226.29 243.032,1225.27 242.893,1224.25 242.756,1223.22 242.62,1222.18 242.486,1221.14 242.354,1220.09 242.223,1219.03 242.093,1217.97 241.965,1216.9 241.839,1215.82 241.714,1214.74 241.591,1213.65 241.469,1212.55 241.348,1211.44 241.23,1210.33 241.112,1209.22 240.997,1208.09 240.883,1206.96 240.77,1205.82 240.659,1204.68 240.55,1203.52 240.442,1202.36 240.336,1201.2 240.231,1200.02 240.128,1198.84 240.026,1197.65 239.927,1196.46 239.828,1195.25 239.732,1194.04 239.636,1192.82 239.543,1191.6 239.451,1190.37 239.361,1189.12 239.272,1187.88 239.185,1186.62 239.1,1185.35 239.016,1184.08 238.934,1182.8 238.854,1181.52 238.775,1180.22 238.698,1178.92 238.623,1177.6 238.549,1176.28 238.477,1174.96 238.407,1173.62 238.338,1172.28 238.272,1170.92 238.206,1169.56 238.143,1168.19 238.081,1166.82 238.021,1165.43 237.963,1164.04 237.907,1162.63 237.852,1161.22 237.799,1159.8 237.748,1158.37 237.698,1156.94 237.651,1155.49 237.605,1154.03 237.561,1152.57 237.518,1151.1 237.478,1149.61 237.439,1148.12 237.403,1146.62 237.368,1145.11 237.335,1143.6 237.304,1142.07 237.274,1140.53 237.247,1138.98 237.222,1137.43 237.198,1135.86 237.176,1134.29 237.157,1132.7 237.139,1131.11 237.123,1129.51 237.109,1127.89 237.097,1126.27 237.087,1124.64 237.079,1122.99 237.073,1121.34 237.069,1119.68 237.067,1118 237.067,1116.32 237.07,1114.63 237.074,1112.93 237.08,1111.21 237.088,1109.49 237.099,1107.75 237.112,1106.01 237.126,1104.25 237.143,1102.49 237.162,1100.71 237.183,1098.92 237.207,1097.13 237.232,1095.32 237.26,1093.5 237.29,1091.67 237.323,1089.83 237.357,1087.98 237.394,1086.11 237.433,1084.24 237.475,1082.35 237.518,1080.46 237.564,1078.55 237.613,1076.63 237.664,1074.7 237.717,1072.76 237.773,1070.8 237.831,1068.84 237.891,1066.86 237.954,1064.87 238.02,1062.87 238.088,1060.86 238.158,1058.84 238.231,1056.8 238.307,1054.75 238.385,1052.69 238.466,1050.62 238.55,1048.54 238.636,1046.44 238.725,1044.33 238.816,1042.21 238.91,1040.08 239.007,1037.93 239.107,1035.77 239.209,1033.6 239.315,1031.42 239.423,1029.22 239.534,1027.01 239.648,1024.79 239.765,1022.55 239.885,1020.3 240.007,1018.04 240.133,1015.77 240.262,1013.48 240.394,1011.18 240.529,1008.87 240.667,1006.54 240.808,1004.2 240.952,1001.85 241.099,999.481 241.25,997.1 241.404,994.705 241.561,992.297 241.722,989.876 241.886,987.44 242.053,984.991 242.224,982.527 242.398,980.05 242.576,977.559 242.757,975.053 242.942,972.534 243.13,970 243.322,967.452 243.518,964.89 243.718,962.313 243.921,959.722 244.128,957.116 244.338,954.496 244.553,951.861 244.772,949.212 244.994,946.548 245.221,943.869 245.451,941.175 245.686,938.466 245.925,935.743 246.167,933.004 246.415,930.251 246.666,927.482 246.922,924.698 247.182,921.899 247.446,919.085 247.715,916.255 247.989,913.41 248.267,910.549 248.55,907.674 248.837,904.782 249.129,901.875 249.426,898.953 249.728,896.014 250.034,893.06 250.346,890.091 250.662,887.105 250.984,884.104 251.311,881.087 251.643,878.053 251.98,875.004 252.322,871.939 252.67,868.858 253.024,865.76 253.383,862.647 253.747,859.517 254.118,856.371 254.494,853.209 254.875,850.031 255.263,846.836 255.656,843.625 256.056,840.397 256.462,837.153 256.874,833.893 257.292,830.616 257.717,827.323 258.147,824.013 258.585,820.686 259.029,817.343 259.48,813.983 259.937,810.607 260.402,807.214 260.873,803.804 261.352,800.377 261.837,796.934 262.33,793.474 262.83,789.998 263.338,786.504 263.853,782.994 264.376,779.467 264.907,775.923 265.445,772.363 265.991,768.785 266.546,765.191 267.109,761.58 267.68,757.953 268.259,754.308 268.847,750.647 269.444,746.969 270.049,743.274 270.663,739.563 271.287,735.834 271.919,732.089 272.561,728.328 273.212,724.549 273.873,720.755 274.544,716.943 275.224,713.115 275.914,709.27 276.615,705.409 277.326,701.532 278.047,697.638 278.779,693.727 279.521,689.801 280.275,685.858 281.04,681.899 281.815,677.923 282.603,673.932 283.401,669.924 284.212,665.901 285.035,661.862 285.869,657.807 286.716,653.736 287.576,649.65 288.448,645.548 289.333,641.43 290.231,637.297 291.142,633.149 292.067,628.986 293.005,624.808 293.958,620.615 294.924,616.407 295.905,612.184 296.901,607.947 297.911,603.696 298.936,599.43 299.977,595.15 301.032,590.856 302.104,586.548 303.192,582.227 304.296,577.892 305.416,573.544 306.554,569.182 307.708,564.808 308.88,560.421 310.069,556.021 311.276,551.609 312.501,547.185 313.745,542.749 315.007,538.301 316.289,533.842 317.59,529.371 318.91,524.89 320.251,520.397 321.612,515.895 322.993,511.382 324.396,506.859 325.82,502.326 327.266,497.785 328.733,493.234 330.223,488.674 331.736,484.106 333.272,479.53 334.832,474.946 336.416,470.355 338.023,465.756 339.656,461.151 341.314,456.54 342.997,451.922 344.707,447.3 346.442,442.672 348.205,438.039 349.995,433.402 351.813,428.761 353.659,424.117 355.533,419.47 357.437,414.821 359.371,410.169 361.335,405.516 363.329,400.863 365.355,396.208 367.412,391.554 369.502,386.9 371.624,382.248 373.78,377.597 375.969,372.949 378.194,368.304 380.453,363.662 382.747,359.025 385.078,354.392 387.446,349.765 389.852,345.144 392.295,340.53 394.777,335.924 397.298,331.325 399.86,326.736 402.462,322.157 405.105,317.588 407.791,313.03 410.519,308.485 413.291,303.952 416.107,299.434 418.968,294.93 421.874,290.441 424.827,285.969 427.827,281.514 430.874,277.077 433.971,272.659 437.117,268.261 440.313,263.885 443.561,259.53 446.86,255.198 450.212,250.891 453.618,246.609 457.079,242.352 460.594,238.124 464.166,233.923 467.795,229.752 471.482,225.612 475.228,221.503 479.034,217.428 482.9,213.386 486.829,209.38 490.82,205.411 494.874,201.48 498.994,197.588 503.178,193.736 507.43,189.926 511.749,186.159 516.136,182.437 520.593,178.761 525.121,175.132 529.72,171.552 534.392,168.022 539.137,164.543 543.958,161.118 548.854,157.747 553.827,154.432 558.878,151.175 564.007,147.977 569.217,144.84 574.508,141.765 579.881,138.753 585.337,135.808 590.878,132.929 596.503,130.119 602.216,127.379 608.015,124.712 613.904,122.118 619.882,119.599 625.95,117.158 632.111,114.795 638.364,112.513 644.71,110.313 651.152,108.197 657.689,106.167 664.324,104.224 671.056,102.37 677.887,100.608 684.817,98.9376 691.848,97.3619 698.981,95.8824 706.217,94.5008 713.555,93.2188 720.998,92.0383 728.546,90.9609 736.2,89.9883 743.96,89.1224 751.828,88.3647 759.804,87.7169 767.888,87.1808 776.082,86.758 784.386,86.4501 792.801,86.2588 801.327,86.1857 809.964,86.2322 818.713,86.4001 827.575,86.6907 836.549,87.1056 845.636,87.6463 854.837,88.3141 864.15,89.1104 873.578,90.0366 883.119,91.094 892.773,92.2839 902.541,93.6074 912.422,95.0656 922.417,96.6599 932.524,98.3911 942.744,100.26 953.075,102.268 963.519,104.416 974.073,106.705 984.737,109.135 995.511,111.707 1006.39,114.422 1017.38,117.28 1028.48,120.281 1039.68,123.427 1050.99,126.717 1062.4,130.152 1073.91,133.732 1085.53,137.457 1097.24,141.326 1109.05,145.341 1120.95,149.499 1132.95,153.803 1145.04,158.25 1157.21,162.841 1169.48,167.574 1181.83,172.45 1194.26,177.468 1206.77,182.626 1219.36,187.924 1232.03,193.36 1244.77,198.934 1257.57,204.644 1270.45,210.49 1283.38,216.469 1296.38,222.579 1309.43,228.82 1322.54,235.19 1335.7,241.686 1348.9,248.308 1362.14,255.052 1375.43,261.917 1388.75,268.9 1402.11,275.999 1415.49,283.212 1428.89,290.537 1442.32,297.97 1455.76,305.51 1469.21,313.153 1482.67,320.896 1496.13,328.737 1509.6,336.673 1523.05,344.701 1536.5,352.818 1549.93,361.02 1563.35,369.305 1576.74,377.668 1590.11,386.108 1603.44,394.62 1616.74,403.202 1629.99,411.849 1643.2,420.558 1656.36,429.326 1669.47,438.15 1682.52,447.025 1695.5,455.949 1708.42,464.917 1721.27,473.926 1734.04,482.973 1746.73,492.054 1759.33,501.165 1771.85,510.303 1784.28,519.464 1796.6,528.645 1808.83,537.843 1820.95,547.052 1832.97,556.272 1844.87,565.497 1856.66,574.724 1868.32,583.951 1879.87,593.173 1891.29,602.387 1902.58,611.591 1913.73,620.782 1924.75,629.955 1935.63,639.108 1946.37,648.237 1956.97,657.341 1967.42,666.416 1977.72,675.46 1987.86,684.469 1997.86,693.44 2007.69,702.372 2017.37,711.262 2026.89,720.108 2036.24,728.906 2045.43,737.655 2054.46,746.352 2063.32,754.996 2072.01,763.584 2080.53,772.114 2088.87,780.585 2097.05,788.995 2105.05,797.341 2112.88,805.622 2120.54,813.838 2128.02,821.985 2135.32,830.063 2142.45,838.07 2149.4,846.006 2156.18,853.869 2162.77,861.657 2169.2,869.371 2175.44,877.008 2181.51,884.568 2187.41,892.051 2193.13,899.455 2198.67,906.779 2204.04,914.024 2209.24,921.189 2214.26,928.272 2219.11,935.275 2223.79,942.196 2228.3,949.035 2232.64,955.792 2236.81,962.466 2240.81,969.059 2244.65,975.568 2248.32,981.996 2251.83,988.341 2255.18,994.603 2258.37,1000.78 2261.39,1006.88 2264.26,1012.9 2266.98,1018.83 2269.54,1024.69 2271.94,1030.46 2274.2,1036.15 2276.3,1041.76 2278.26,1047.3 2280.07,1052.75 2281.74,1058.12 2283.26,1063.42 2284.64,1068.64 2285.89,1073.78 2287,1078.84 2287.97,1083.83 2288.8,1088.74 2289.51,1093.58 2290.09,1098.35 2290.54,1103.04 2290.86,1107.66 2291.06,1112.2 2291.13,1116.68 2291.09,1121.08 2290.93,1125.42 2290.65,1129.69 2290.25,1133.89 2289.75,1138.02 2289.13,1142.08 2288.4,1146.08 2287.57,1150.02 2286.63,1153.89 2285.59,1157.7 2284.45,1161.44 2283.21,1165.13 2281.87,1168.75 2280.43,1172.31 2278.9,1175.82 2277.28,1179.26 2275.56,1182.65 2273.76,1185.98 2271.87,1189.26 2269.89,1192.48 2267.84,1195.64 2265.69,1198.76 2263.47,1201.82 2261.17,1204.82 2258.8,1207.78 2256.34,1210.69 2253.82,1213.54 2251.22,1216.35 2248.55,1219.11 2245.81,1221.83 2243,1224.49 2240.13,1227.11 2237.19,1229.69 2234.19,1232.22 2231.13,1234.71 2228.01,1237.15 2224.83,1239.56 2221.59,1241.92 2218.29,1244.24 2214.94,1246.52 2211.54,1248.76 2208.08,1250.96 2204.57,1253.13 2201.02,1255.26 2197.41,1257.35 2193.76,1259.4 2190.06,1261.42 2186.31,1263.4 2182.53,1265.35 2178.7,1267.27 2174.83,1269.15 2170.91,1271 2166.96,1272.82 2162.97,1274.6 2158.95,1276.36 2154.88,1278.08 2150.79,1279.78 2146.65,1281.45 2142.49,1283.08 2138.29,1284.69 2134.06,1286.27 2129.8,1287.83 2125.52,1289.36 2121.2,1290.86 2116.85,1292.33 2112.48,1293.78 2108.09,1295.21 2103.66,1296.61 2099.22,1297.99 2094.75,1299.34 2090.25,1300.67 2085.74,1301.98 2081.2,1303.26 2076.64,1304.53 2072.07,1305.77 2067.47,1306.99 2062.86,1308.19 2058.23,1309.37 2053.58,1310.53 2048.91,1311.67 2044.23,1312.79 2039.54,1313.89 2034.83,1314.98 2030.1,1316.04 2025.36,1317.09 2020.61,1318.12 2015.85,1319.13 2011.08,1320.13 2006.29,1321.11 2001.5,1322.07 1996.69,1323.02 1991.87,1323.95 1987.05,1324.86 1982.22,1325.76 1977.38,1326.65 1972.53,1327.52 1967.67,1328.38 1962.81,1329.22 1957.94,1330.05 1953.07,1330.86 1948.19,1331.67 1943.31,1332.45 1938.42,1333.23 1933.52,1333.99 1928.63,1334.74 1923.73,1335.48 1918.83,1336.21 1913.92,1336.93 1909.01,1337.63 1904.1,1338.32 1899.19,1339 1894.28,1339.67 1889.37,1340.33 1884.45,1340.98 1879.54,1341.62 1874.62,1342.25 1869.71,1342.87 1864.8,1343.47 1859.88,1344.07 1854.97,1344.66 1850.06,1345.24 1845.15,1345.82 1840.25,1346.38 1835.34,1346.93 1830.44,1347.48 1825.54,1348.01 1820.65,1348.54 1815.75,1349.06 1810.86,1349.57 1805.98,1350.08 1801.1,1350.57 1796.22,1351.06 1791.35,1351.54 1786.48,1352.01 1781.61,1352.48 1776.75,1352.94 1771.9,1353.39 1767.05,1353.84 1762.2,1354.28 1757.37,1354.71 1752.53,1355.13 1747.71,1355.55 1742.89,1355.96 1738.07,1356.37 1733.26,1356.77 1728.46,1357.17 1723.67,1357.55 1718.88,1357.94 1714.1,1358.31 1709.32,1358.69 1704.56,1359.05 1699.8,1359.41 1695.04,1359.77 1690.3,1360.12 1685.56,1360.46 1680.83,1360.8 1676.11,1361.14 1671.4,1361.47 1666.69,1361.79 1662,1362.11 1657.31,1362.43 1652.63,1362.74 1647.96,1363.05 1643.3,1363.35 1638.64,1363.65 1634,1363.94 1629.36,1364.23 1624.74,1364.51 1620.12,1364.8 1615.51,1365.07 1610.91,1365.35 1606.32,1365.61 1601.74,1365.88 1597.17,1366.14 1592.61,1366.4 1588.06,1366.65 1583.51,1366.91 1578.98,1367.15 1574.46,1367.4 1569.95,1367.64 1565.44,1367.87 1560.95,1368.11 1556.47,1368.34 1551.99,1368.57 1547.53,1368.79 1543.08,1369.01 1538.64,1369.23 1534.2,1369.45 1529.78,1369.66 1525.37,1369.87 1520.97,1370.07 1516.58,1370.28 1512.2,1370.48 1507.83,1370.68 1503.47,1370.87 1499.12,1371.06 1494.78,1371.25 1490.46,1371.44 1486.14,1371.63 1481.83,1371.81 1477.54,1371.99 1473.26,1372.17 1468.98,1372.34 1464.72,1372.51 1460.47,1372.69 1456.23,1372.85 1452,1373.02 1447.78,1373.18 1443.57,1373.34 1439.37,1373.5 1435.18,1373.66 1431.01,1373.82 1426.84,1373.97 1422.69,1374.12 1418.55,1374.27 1414.42,1374.42 1410.29,1374.56 1406.19,1374.71 1402.09,1374.85 1398,1374.99 1393.92,1375.13 1389.86,1375.26 1385.8,1375.4 1381.76,1375.53 1377.73,1375.66 1373.71,1375.79 1369.7,1375.92 1365.7,1376.04 1361.71,1376.17 1357.73,1376.29 1353.77,1376.41 1349.81,1376.53 1345.87,1376.65 1341.94,1376.76 1338.01,1376.88 1334.1,1376.99 1330.21,1377.1 1326.32,1377.21 1322.44,1377.32 1318.57,1377.43 1314.72,1377.53 1310.88,1377.64 1307.04,1377.74 1303.22,1377.84 1299.41,1377.95 1295.61,1378.05 1291.82,1378.14 1288.05,1378.24 1284.28,1378.34 1280.52,1378.43 1276.78,1378.52 1273.04,1378.62 1269.32,1378.71 1265.61,1378.8 1261.91,1378.88 1258.22,1378.97 1254.54,1379.06 1250.87,1379.14 1247.22,1379.23 1243.57,1379.31 1239.93,1379.39 1236.31,1379.47 1232.7,1379.55 1229.09,1379.63 1225.5,1379.71 1221.92,1379.79 1218.35,1379.86 1214.79,1379.94 1211.24,1380.01 1207.7,1380.08 1204.18,1380.16 1200.66,1380.23 1197.15,1380.3 1193.66,1380.37 1190.17,1380.43 1186.7,1380.5 1183.24,1380.57 1179.78,1380.63 1176.34,1380.7 1172.91,1380.76 1169.49,1380.83 1166.08,1380.89 1162.68,1380.95 1159.29,1381.01 1155.91,1381.07 1152.54,1381.13 1149.18,1381.19 1145.83,1381.25 1142.5,1381.3 1139.17,1381.36 1135.85,1381.41 1132.55,1381.47 1129.25,1381.52 1125.96,1381.57 1122.69,1381.63 1119.42,1381.68 1116.17,1381.73 1112.92,1381.78 1109.69,1381.83 1106.46,1381.88 1103.25,1381.93 1100.05,1381.97 1096.85,1382.02 1093.67,1382.07 1090.49,1382.11 1087.33,1382.16 1084.18,1382.2 1081.03,1382.25 1077.9,1382.29 1074.77,1382.33 1071.66,1382.37 1068.56,1382.41 1065.46,1382.45 1062.38,1382.49 1059.3,1382.53 1056.24,1382.57 1053.18,1382.61 1050.14,1382.65 1047.1,1382.69 1044.08,1382.72 1041.06,1382.76 1038.05,1382.79 1035.06,1382.83 1032.07,1382.86 1029.09,1382.9 1026.12,1382.93 1023.16,1382.96 1020.21,1383 1017.27,1383.03 1014.34,1383.06 1011.42,1383.09 1008.51,1383.12 1005.61,1383.15 1002.72,1383.18 999.836,1383.21 996.962,1383.24 994.097,1383.27 991.242,1383.29 988.396,1383.32 985.56,1383.35 982.732,1383.37 979.914,1383.4 977.105,1383.42 974.305,1383.45 971.514,1383.47 968.732,1383.5 965.96,1383.52 963.196,1383.54 960.441,1383.57 957.696,1383.59 954.959,1383.61 952.231,1383.63 949.512,1383.65 946.803,1383.67 944.101,1383.69 941.409,1383.71 938.726,1383.73 936.051,1383.75 933.386,1383.77 930.729,1383.79 928.08,1383.81 925.441,1383.82 922.81,1383.84 920.187,1383.86 917.574,1383.87 914.969,1383.89 912.372,1383.9 909.784,1383.92 907.205,1383.93 904.634,1383.95 902.072,1383.96 899.518,1383.98 896.973,1383.99 894.435,1384 891.907,1384.01 889.387,1384.03 886.875,1384.04 884.371,1384.05 881.876,1384.06 879.389,1384.07 876.91,1384.08 874.439,1384.09 871.977,1384.1 869.523,1384.11 867.077,1384.12 864.639,1384.13 862.209,1384.14 859.787,1384.14 857.373,1384.15 854.968,1384.16 852.57,1384.17 850.18,1384.17 847.799,1384.18 845.425,1384.18 843.059,1384.19 840.701,1384.2 838.351,1384.2 836.009,1384.21 833.674,1384.21 831.348,1384.21 829.029,1384.22 826.718,1384.22 824.414,1384.22 822.119,1384.23 819.831,1384.23 817.551,1384.23 815.278,1384.23 813.013,1384.23 810.755,1384.24 808.505,1384.24 806.263,1384.24 804.028,1384.24 801.801,1384.24 799.581,1384.24 797.369,1384.24 795.164,1384.24 792.966,1384.24 790.776,1384.23 788.593,1384.23 786.418,1384.23 784.25,1384.23 782.089,1384.23 779.935,1384.22 777.789,1384.22 775.65,1384.22 773.518,1384.21 771.394,1384.21 769.276,1384.2 767.166,1384.2 765.062,1384.19 762.966,1384.19 760.877,1384.18 758.795,1384.18 756.72,1384.17 754.652,1384.17 752.591,1384.16 750.537,1384.15 748.49,1384.15 746.45,1384.14 744.417,1384.13 742.391,1384.12 740.371,1384.11 738.358,1384.11 736.353,1384.1 734.354,1384.09 732.361,1384.08 730.376,1384.07 728.397,1384.06 726.425,1384.05 724.46,1384.04 722.501,1384.03 720.549,1384.02 718.604,1384 716.665,1383.99 714.733,1383.98 712.807,1383.97 710.888,1383.96 708.975,1383.94 707.069,1383.93 705.17,1383.92 703.277,1383.9 701.39,1383.89 699.51,1383.88 697.636,1383.86 695.768,1383.85 693.907,1383.83 692.053,1383.82 690.204,1383.8 688.362,1383.79 686.526,1383.77 684.697,1383.75 682.873,1383.74 681.056,1383.72 679.245,1383.7 677.441,1383.69 675.642,1383.67 673.85,1383.65 672.063,1383.63 670.283,1383.61 668.509,1383.59 666.741,1383.58 664.979,1383.56 663.223,1383.54 661.473,1383.52 659.729,1383.5 657.991,1383.48 656.259,1383.46 654.533,1383.43 652.813,1383.41 651.099,1383.39 649.39,1383.37 647.688,1383.35 645.991,1383.33 644.3,1383.3 642.615,1383.28 640.936,1383.26 639.262,1383.23 637.595,1383.21 635.932,1383.19 634.276,1383.16 632.625,1383.14 630.98,1383.11 629.341,1383.09 627.707,1383.06 626.079,1383.03 624.457,1383.01 622.84,1382.98 621.229,1382.96 619.623,1382.93 618.023,1382.9 616.428,1382.87 614.839,1382.85 613.255,1382.82 611.676,1382.79 610.104,1382.76 608.536,1382.73 606.974,1382.7 605.417,1382.67 603.866,1382.64 602.32,1382.61 600.779,1382.58 599.244,1382.55 597.714,1382.52 596.189,1382.49 594.67,1382.46 593.156,1382.43 591.647,1382.39 590.143,1382.36 588.644,1382.33 587.151,1382.29 585.663,1382.26 584.18,1382.23 582.702,1382.19 581.229,1382.16 579.761,1382.12 578.299,1382.09 576.841,1382.05 575.388,1382.02 573.941,1381.98 572.499,1381.95 571.061,1381.91 569.629,1381.87 568.201,1381.83 566.778,1381.8 565.361,1381.76 563.948,1381.72 562.54,1381.68 561.137,1381.64 559.739,1381.6 558.346,1381.56 556.958,1381.52 555.574,1381.48 554.195,1381.44 552.821,1381.4 551.452,1381.36 550.088,1381.32 548.728,1381.28 547.373,1381.24 546.023,1381.19 544.677,1381.15 543.337,1381.11 542,1381.06 540.669,1381.02 539.342,1380.98 538.02,1380.93 536.702,1380.89 535.389,1380.84 534.081,1380.79 532.777,1380.75 531.477,1380.7 530.183,1380.66 528.892,1380.61 527.606,1380.56 526.325,1380.51 525.048,1380.46 523.776,1380.42 522.508,1380.37 521.244,1380.32 519.985,1380.27 518.731,1380.22 517.48,1380.17 516.234,1380.12 514.993,1380.07 513.756,1380.01 512.523,1379.96 511.294,1379.91 510.07,1379.86 508.85,1379.8 507.634,1379.75 506.423,1379.7 505.216,1379.64 504.013,1379.59 502.814,1379.53 501.619,1379.48 500.429,1379.42 499.243,1379.36 498.061,1379.31 496.883,1379.25 495.709,1379.19 494.54,1379.14 493.374,1379.08 492.213,1379.02 491.056,1378.96 489.902,1378.9 488.753,1378.84 487.608,1378.78 486.467,1378.72 485.33,1378.66 484.197,1378.6 483.068,1378.53 481.943,1378.47 480.821,1378.41 479.704,1378.35 478.591,1378.28 477.482,1378.22 476.376,1378.15 475.275,1378.09 474.177,1378.02 473.083,1377.96 471.993,1377.89 470.907,1377.82 469.825,1377.75 468.747,1377.69 467.672,1377.62 466.601,1377.55 465.534,1377.48 464.471,1377.41 463.412,1377.34 462.356,1377.27 461.304,1377.2 460.256,1377.13 459.212,1377.05 458.171,1376.98 457.134,1376.91 456.1,1376.84 455.07,1376.76 454.044,1376.69 453.022,1376.61 452.003,1376.54 450.988,1376.46 449.976,1376.38 448.968,1376.31 447.964,1376.23 446.963,1376.15 445.966,1376.07 444.972,1375.99 443.982,1375.91 442.995,1375.83 442.012,1375.75 441.032,1375.67 440.056,1375.59 439.083,1375.51 438.114,1375.42 437.148,1375.34 436.186,1375.26 435.227,1375.17 434.271,1375.09 433.319,1375 432.371,1374.92 431.425,1374.83 430.484,1374.74 429.545,1374.65 428.61,1374.57 427.678,1374.48 426.75,1374.39 425.824,1374.3 424.903,1374.21 423.984,1374.11 423.069,1374.02 422.157,1373.93 421.248,1373.84 420.343,1373.74 419.441,1373.65 418.542,1373.55 417.646,1373.46 416.754,1373.36 415.864,1373.27 414.978,1373.17 414.095,1373.07 413.216,1372.97 412.339,1372.87 411.466,1372.77 410.596,1372.67 409.728,1372.57 408.865,1372.47 408.004,1372.37 407.146,1372.26 406.291,1372.16 405.44,1372.06 404.591,1371.95 403.746,1371.84 402.904,1371.74 402.064,1371.63 401.228,1371.52 400.395,1371.41 399.565,1371.3 398.737,1371.19 397.913,1371.08 397.092,1370.97 396.274,1370.86 395.458,1370.75 394.646,1370.63 393.837,1370.52 393.03,1370.41 392.227,1370.29 391.426,1370.17 390.629,1370.06 389.834,1369.94 389.042,1369.82 388.253,1369.7 387.467,1369.58 386.684,1369.46 385.904,1369.34 385.126,1369.22 384.351,1369.09 383.58,1368.97 382.811,1368.84 382.044,1368.72 381.281,1368.59 380.521,1368.46 379.763,1368.34 379.008,1368.21 378.256,1368.08 377.506,1367.95 376.759,1367.82 376.015,1367.69 375.274,1367.55 374.536,1367.42 373.8,1367.28 373.067,1367.15 372.336,1367.01 371.609,1366.88 370.884,1366.74 370.161,1366.6 369.442,1366.46 368.725,1366.32 368.01,1366.18 367.298,1366.03 366.589,1365.89 365.883,1365.75 365.179,1365.6 364.478,1365.46 363.779,1365.31 363.083,1365.16 362.39,1365.01 361.699,1364.86 361.01,1364.71 360.325,1364.56 359.642,1364.41 358.961,1364.26 358.283,1364.1 357.607,1363.95 356.934,1363.79 356.264,1363.63 355.595,1363.47 354.93,1363.31 354.267,1363.15 353.606,1362.99 352.948,1362.83 352.293,1362.67 351.639,1362.5 350.989,1362.34 350.34,1362.17 349.695,1362 349.051,1361.84 348.41,1361.67 347.772,1361.5 347.135,1361.32 346.502,1361.15 345.87,1360.98 345.241,1360.8 344.615,1360.63 343.99,1360.45 343.369,1360.27 342.749,1360.09 342.132,1359.91 341.517,1359.73 340.905,1359.55 340.294,1359.36 339.687,1359.18 339.081,1358.99 338.478,1358.8 337.877,1358.62 337.278,1358.43 336.682,1358.24 336.088,1358.04 335.496,1357.85 334.907,1357.66 334.319,1357.46 333.734,1357.26 333.151,1357.06 332.571,1356.87 331.993,1356.66 331.417,1356.46 330.843,1356.26 330.271,1356.06 329.702,1355.85 329.134,1355.64 328.569,1355.43 328.007,1355.22 327.446,1355.01 326.887,1354.8 326.331,1354.59 325.777,1354.37 325.225,1354.16 324.675,1353.94 324.127,1353.72 323.582,1353.5 323.038,1353.28 322.497,1353.06 321.958,1352.83 321.421,1352.61 320.886,1352.38 320.353,1352.15 319.822,1351.92 319.293,1351.69 318.767,1351.45 318.242,1351.22 317.719,1350.98 317.199,1350.75 316.681,1350.51 316.164,1350.27 315.65,1350.03 315.138,1349.78 314.628,1349.54 314.119,1349.29 313.613,1349.04 313.109,1348.79 312.607,1348.54 312.107,1348.29 311.609,1348.03 311.113,1347.78 310.619,1347.52 310.126,1347.26 309.636,1347 309.148,1346.74 308.662,1346.48 308.177,1346.21 307.695,1345.94 307.215,1345.67 306.736,1345.4 306.26,1345.13 305.785,1344.86 305.313,1344.58 304.842,1344.3 304.373,1344.02 303.906,1343.74 303.441,1343.46 302.978,1343.18 302.517,1342.89 302.058,1342.6 301.601,1342.31 301.145,1342.02 300.692,1341.73 300.24,1341.43 299.79,1341.13 299.342,1340.84 298.896,1340.53 298.452,1340.23 298.009,1339.93 297.569,1339.62 297.13,1339.31 296.693,1339 296.258,1338.69 295.825,1338.37 295.393,1338.06 294.963,1337.74 294.536,1337.42 294.11,1337.1 293.685,1336.77 293.263,1336.45 292.842,1336.12 292.424,1335.79 292.007,1335.45 291.591,1335.12 291.178,1334.78 290.766,1334.44 290.356,1334.1 289.948,1333.76 289.542,1333.42 289.137,1333.07 288.734,1332.72 288.333,1332.37 287.933,1332.01 287.536,1331.66 287.14,1331.3 286.746,1330.94 286.353,1330.57 285.962,1330.21 285.573,1329.84 285.186,1329.47 284.8,1329.1 284.416,1328.73 284.034,1328.35 283.653,1327.97 283.275,1327.59 282.897,1327.2 282.522,1326.82 282.148,1326.43 281.776,1326.04 281.406,1325.64 281.037,1325.25 280.67,1324.85 280.304,1324.45 279.94,1324.04 279.578,1323.64 279.218,1323.23 278.859,1322.82 278.502,1322.4 278.146,1321.99 277.792,1321.57 277.44,1321.15 277.089,1320.72 276.74,1320.29 276.393,1319.87 276.047,1319.43 275.703,1319 275.361,1318.56 275.02,1318.12 274.68,1317.68 274.343,1317.23 274.007,1316.78 273.672,1316.33 273.339,1315.87 273.008,1315.42 272.678,1314.96 272.35,1314.49 272.024,1314.03 271.699,1313.56 271.375,1313.09 271.053,1312.61 270.733,1312.13 270.415,1311.65 270.097,1311.17 269.782,1310.68 269.468,1310.19 269.156,1309.7 268.845,1309.2 268.535,1308.7 268.228,1308.2 267.921,1307.69 267.617,1307.19 267.314,1306.67 267.012,1306.16 266.712,1305.64 266.414,1305.12 266.117,1304.59 265.821,1304.06 265.527,1303.53 265.235,1303 264.944,1302.46 264.655,1301.92 264.367,1301.37 264.081,1300.82 263.796,1300.27 263.513,1299.72 263.231,1299.16 262.951,1298.6 262.672,1298.03 262.395,1297.46 262.119,1296.89 261.845,1296.31 261.572,1295.73 261.301,1295.15 261.031,1294.56 260.763,1293.97 260.496,1293.37 260.231,1292.77 259.967,1292.17 259.705,1291.56 259.444,1290.95 259.185,1290.34 258.927,1289.72 258.671,1289.1 258.416,1288.47 258.163,1287.85 257.911,1287.21 257.66,1286.57 257.411,1285.93 257.164,1285.29 256.918,1284.64 256.673,1283.98 256.43,1283.33 256.189,1282.66 255.949,1282 255.71,1281.33 255.473,1280.65 255.237,1279.98 255.003,1279.29 254.77,1278.61 254.539,1277.91 254.309,1277.22 254.081,1276.52 253.854,1275.81 253.628,1275.1 253.404,1274.39 253.182,1273.67 252.961,1272.95 252.741,1272.22 252.523,1271.49 252.306,1270.76 252.091,1270.02 251.877,1269.27 251.665,1268.52 251.454,1267.77 251.244,1267.01 251.036,1266.24 250.83,1265.47 250.625,1264.7 250.421,1263.92 250.219,1263.14 250.018,1262.35 249.819,1261.56 249.621,1260.76 249.425,1259.96 249.23,1259.15 249.036,1258.33 248.844,1257.52 248.654,1256.69 248.465,1255.86 248.277,1255.03 248.091,1254.19 247.906,1253.35 247.723,1252.5 247.541,1251.64 247.361,1250.78 247.182,1249.91 247.005,1249.04 246.829,1248.17 246.655,1247.29 246.482,1246.4 246.31,1245.5 246.14,1244.61 245.972,1243.7 245.804,1242.79 245.639,1241.88 245.475,1240.96 245.312,1240.03 245.151,1239.1 244.991,1238.16 244.833,1237.21 244.676,1236.26 244.521,1235.31 244.367,1234.34 244.215,1233.37 244.064,1232.4 243.915,1231.42 243.767,1230.43 243.62,1229.44 243.476,1228.44 243.332,1227.44 243.19,1226.43 243.05,1225.41 242.911,1224.38 242.774,1223.35 242.638,1222.32 242.504,1221.27 242.371,1220.22 242.24,1219.17 242.11,1218.11 241.982,1217.04 241.855,1215.96 241.73,1214.88 241.607,1213.79 241.485,1212.69 241.364,1211.59 241.245,1210.48 241.128,1209.36 241.012,1208.24 240.898,1207.11 240.785,1205.97 240.674,1204.83 240.564,1203.68 240.456,1202.52 240.35,1201.35 240.245,1200.18 240.141,1199 240.04,1197.81 239.94,1196.61 239.841,1195.41 239.744,1194.2 239.649,1192.98 239.555,1191.76 239.463,1190.53 239.373,1189.29 239.284,1188.04 239.197,1186.78 239.111,1185.52 239.027,1184.25 238.945,1182.97 238.865,1181.68 238.786,1180.39 238.708,1179.09 238.633,1177.78 238.559,1176.46 238.487,1175.13 238.416,1173.8 238.347,1172.45 238.28,1171.1 238.215,1169.74 238.151,1168.37 238.089,1167 238.029,1165.61 237.971,1164.22 237.914,1162.82 237.859,1161.41 237.806,1159.99 237.754,1158.56 237.705,1157.12 237.657,1155.68 237.611,1154.23 237.566,1152.76 237.524,1151.29 237.483,1149.81 237.444,1148.32 237.407,1146.82 237.372,1145.31 237.339,1143.79 237.308,1142.27 237.278,1140.73 237.251,1139.19 237.225,1137.63 237.201,1136.07 237.179,1134.49 237.159,1132.91 237.141,1131.32 237.125,1129.72 237.111,1128.1 237.098,1126.48 237.088,1124.85 237.08,1123.21 237.074,1121.56 237.07,1119.9 237.067,1118.22 237.067,1116.54 237.069,1114.85 237.073,1113.15 237.079,1111.44 237.087,1109.71 237.097,1107.98 237.11,1106.24 237.124,1104.48 237.141,1102.72 237.16,1100.95 237.181,1099.16 237.204,1097.36 237.229,1095.56 237.257,1093.74 237.286,1091.91 237.318,1090.07 237.353,1088.22 237.389,1086.36 237.428,1084.48 237.469,1082.6 237.512,1080.71 237.558,1078.8 237.606,1076.88 237.657,1074.95 237.71,1073.01 237.765,1071.06 237.823,1069.1 237.883,1067.12 237.946,1065.13 238.011,1063.13 238.079,1061.12 238.149,1059.1 238.222,1057.07 238.297,1055.02 238.375,1052.96 238.455,1050.89 238.539,1048.81 238.624,1046.71 238.713,1044.61 238.804,1042.49 238.898,1040.36 238.994,1038.21 239.094,1036.05 239.196,1033.88 239.301,1031.7 239.409,1029.51 239.519,1027.3 239.633,1025.08 239.749,1022.85 239.869,1020.6 239.991,1018.34 240.116,1016.07 240.245,1013.78 240.376,1011.48 240.511,1009.17 240.648,1006.85 240.789,1004.51 240.933,1002.16 241.08,999.792 241.23,997.413 241.384,995.02 241.541,992.614 241.701,990.194 241.864,987.76 242.031,985.313 242.202,982.851 242.375,980.376 242.553,977.886 242.733,975.383 242.918,972.865 243.106,970.333 243.297,967.787 243.492,965.226 243.691,962.652 243.894,960.062 244.1,957.459 244.311,954.84 244.525,952.208 244.743,949.56 244.965,946.898 245.191,944.221 245.421,941.529 245.655,938.822 245.893,936.101 246.135,933.364 246.382,930.612 246.633,927.846 246.888,925.064 247.147,922.267 247.411,919.454 247.68,916.627 247.953,913.784 248.23,910.925 248.512,908.051 248.799,905.162 249.09,902.257 249.387,899.337 249.688,896.4 249.994,893.449 250.305,890.481 250.62,887.497 250.941,884.498 251.268,881.483 251.599,878.452 251.935,875.405 252.277,872.342 252.625,869.263 252.977,866.167 253.335,863.056 253.699,859.929 254.069,856.785 254.444,853.625 254.825,850.448 255.212,847.256 255.605,844.047 256.003,840.821 256.408,837.58 256.819,834.321 257.237,831.047 257.66,827.755 258.091,824.448 258.527,821.123 258.97,817.782 259.42,814.425 259.877,811.05 260.341,807.659 260.811,804.252 261.289,800.828 261.773,797.387 262.265,793.929 262.764,790.454 263.271,786.963 263.785,783.455 264.307,779.93 264.837,776.389 265.374,772.83 265.919,769.255 266.473,765.663 267.034,762.055 267.604,758.429 268.183,754.787 268.769,751.128 269.365,747.452 269.969,743.759 270.582,740.05 271.204,736.324 271.836,732.581 272.476,728.822 273.126,725.046 273.786,721.253 274.455,717.444 275.134,713.618 275.823,709.775 276.522,705.916 277.232,702.041 277.952,698.149 278.682,694.241 279.423,690.316 280.176,686.376 280.939,682.419 281.713,678.445 282.499,674.456 283.296,670.451 284.105,666.43 284.926,662.392 285.759,658.339 286.604,654.271 287.462,650.186 288.333,646.086 289.216,641.971 290.112,637.84 291.022,633.694 291.945,629.533 292.882,625.357 293.832,621.166 294.797,616.96 295.776,612.739 296.769,608.504 297.777,604.254 298.801,599.99 299.839,595.712 300.893,591.42 301.963,587.114 303.048,582.794 304.15,578.461 305.269,574.114 306.404,569.755 307.556,565.382 308.725,560.997 309.912,556.599 311.117,552.188 312.339,547.766 313.581,543.331 314.841,538.885 316.12,534.427 317.418,529.958 318.736,525.478 320.074,520.987 321.432,516.486 322.811,511.974 324.211,507.452 325.632,502.921 327.075,498.381 328.54,493.831 330.027,489.272 331.537,484.705 333.07,480.13 334.626,475.547 336.207,470.957 337.811,466.359 339.441,461.755 341.095,457.145 342.775,452.528 344.481,447.906 346.213,443.279 347.972,438.647 349.759,434.01 351.573,429.37 353.415,424.726 355.286,420.08 357.186,415.431 359.116,410.779 361.075,406.127 363.066,401.473 365.087,396.818 367.141,392.164 369.226,387.511 371.344,382.858 373.495,378.207 375.68,373.559 377.9,368.913 380.154,364.271 382.444,359.633 384.771,354.999 387.134,350.371 389.534,345.75 391.972,341.135 394.449,336.527 396.966,331.928 399.522,327.337 402.118,322.757 404.756,318.186 407.436,313.627 410.159,309.08 412.925,304.546 415.735,300.025 418.59,295.519 421.49,291.028 424.437,286.554 427.431,282.097 430.472,277.657 433.562,273.237 436.702,268.837 439.891,264.457 443.132,260.1 446.425,255.765 449.77,251.454 453.169,247.169 456.622,242.909 460.13,238.676 463.695,234.472 467.316,230.297 470.995,226.153 474.734,222.04 478.531,217.96 482.39,213.914 486.31,209.903 490.293,205.929 494.339,201.993 498.45,198.096 502.626,194.239 506.868,190.423 511.178,186.651 515.557,182.923 520.005,179.24 524.523,175.605 529.113,172.018 533.775,168.482 538.511,164.996 543.321,161.564 548.208,158.186 553.17,154.864 558.211,151.599 563.33,148.393 568.529,145.248 573.81,142.164 579.172,139.144 584.617,136.19 590.146,133.302 595.761,130.483 601.462,127.734 607.25,125.057 613.127,122.454 619.093,119.925 625.149,117.474 631.298,115.101 637.538,112.808 643.873,110.597 650.302,108.47 656.827,106.428 663.448,104.474 670.168,102.608 676.985,100.834 683.903,99.1512 690.921,97.563 698.04,96.0708 705.262,94.6763 712.587,93.3812 720.016,92.1872 727.55,91.0962 735.19,90.1098 742.937,89.2298 750.79,88.4578 758.752,87.7955 766.822,87.2447 775.002,86.8069 783.291,86.4839 791.691,86.2772 800.202,86.1885 808.825,86.2193 817.559,86.3711 826.406,86.6456 835.366,87.0441 844.438,87.5682 853.624,88.2192 862.923,88.9986 872.335,89.9078 881.861,90.9479 891.501,92.1203 901.254,93.4262 911.12,94.8667 921.1,96.4431 931.192,98.1563 941.397,100.007 951.714,101.997 962.143,104.127 972.683,106.397 983.333,108.808 994.093,111.361 1004.96,114.057 1015.94,116.897 1027.02,119.879 1038.21,123.006 1049.5,126.278 1060.9,129.694 1072.4,133.254 1084,136.96 1095.7,140.811 1107.49,144.806 1119.38,148.946 1131.37,153.23 1143.45,157.659 1155.61,162.231 1167.87,166.946 1180.2,171.803 1192.63,176.802 1205.13,181.941 1217.71,187.221 1230.36,192.639 1243.09,198.196 1255.89,203.888 1268.75,209.716 1281.68,215.677 1294.67,221.771 1307.72,227.995 1320.82,234.348 1333.97,240.828 1347.16,247.433 1360.41,254.161 1373.69,261.01 1387,267.978 1400.35,275.062 1413.73,282.26 1427.13,289.57 1440.56,296.99 1453.99,304.515 1467.45,312.145 1480.91,319.875 1494.37,327.704 1507.83,335.628 1521.29,343.644 1534.74,351.749 1548.17,359.94 1561.59,368.214 1574.99,376.567 1588.36,384.997 1601.69,393.5 1615,402.073 1628.26,410.711 1641.47,419.413 1654.64,428.174 1667.76,436.99 1680.81,445.859 1693.81,454.776 1706.73,463.739 1719.59,472.743 1732.37,481.785 1745.07,490.862 1757.69,499.969 1770.22,509.104 1782.65,518.262 1794.99,527.441 1807.23,536.636 1819.37,545.844 1831.4,555.062 1843.32,564.287 1855.12,573.514 1866.8,582.741 1878.36,591.964 1889.8,601.18 1901.1,610.385 1912.28,619.578 1923.31,628.753 1934.21,637.909 1944.97,647.042 1955.59,656.149 1966.06,665.228 1976.38,674.276 1986.54,683.289 1996.56,692.266 2006.41,701.204 2016.11,710.099 2025.65,718.951 2035.03,727.755 2044.24,736.511 2053.29,745.215 2062.17,753.866 2070.88,762.461 2079.42,770.999 2087.79,779.478 2095.99,787.896 2104.01,796.25 2111.87,804.54 2119.54,812.764 2127.05,820.921 2134.37,829.008 2141.52,837.025 2148.5,844.97 2155.3,852.842 2161.92,860.64 2168.37,868.364 2174.63,876.011 2180.73,883.581 2186.64,891.074 2192.39,898.488 2197.95,905.823 2203.35,913.079 2208.56,920.254 2213.61,927.348 2218.48,934.361 2223.18,941.293 2227.71,948.143 2232.08,954.91 2236.27,961.596 2240.29,968.199 2244.15,974.72 2247.85,981.158 2251.38,987.513 2254.75,993.787 2257.96,999.978 2261.01,1006.09 2263.9,1012.11 2266.63,1018.06 2269.21,1023.92 2271.64,1029.71 2273.91,1035.41 2276.04,1041.03 2278.01,1046.57 2279.84,1052.04 2281.53,1057.42 2283.07,1062.73 2284.47,1067.96 2285.73,1073.11 2286.86,1078.18 2287.85,1083.18 2288.7,1088.1 2289.43,1092.95 2290.02,1097.73 2290.48,1102.43 2290.82,1107.05 2291.04,1111.61 2291.13,1116.1 2291.1,1120.51 2290.95,1124.86 2290.69,1129.13 2290.31,1133.34 2289.82,1137.48 2289.22,1141.55 2288.51,1145.56 2287.69,1149.51 2286.76,1153.39 2285.73,1157.2 2284.6,1160.96 2283.37,1164.65 2282.05,1168.28 2280.62,1171.85 2279.1,1175.36 2277.49,1178.81 2275.79,1182.21 2274,1185.55 2272.12,1188.83 2270.16,1192.06 2268.11,1195.23 2265.98,1198.35 2263.77,1201.42 2261.48,1204.43 2259.11,1207.4 2256.67,1210.31 2254.15,1213.17 2251.56,1215.99 2248.9,1218.75 2246.17,1221.47 2243.37,1224.15 2240.51,1226.77 2237.58,1229.35 2234.59,1231.89 2231.53,1234.39 2228.42,1236.84 2225.25,1239.24 2222.01,1241.61 2218.73,1243.94 2215.38,1246.22 2211.99,1248.47 2208.54,1250.68 2205.04,1252.85 2201.48,1254.98 2197.89,1257.07 2194.24,1259.13 2190.55,1261.16 2186.81,1263.14 2183.03,1265.1 2179.2,1267.02 2175.34,1268.9 2171.43,1270.76 2167.48,1272.58 2163.5,1274.37 2159.48,1276.13 2155.42,1277.86 2151.33,1279.56 2147.2,1281.23 2143.04,1282.87 2138.84,1284.48 2134.62,1286.07 2130.36,1287.63 2126.08,1289.16 2121.77,1290.66 2117.43,1292.14 2113.06,1293.59 2108.66,1295.02 2104.24,1296.43 2099.8,1297.81 2095.33,1299.16 2090.84,1300.5 2086.33,1301.81 2081.8,1303.1 2077.24,1304.36 2072.67,1305.61 2068.08,1306.83 2063.46,1308.03 2058.83,1309.22 2054.19,1310.38 2049.53,1311.52 2044.85,1312.64 2040.15,1313.75 2035.44,1314.83 2030.72,1315.9 2025.99,1316.95 2021.24,1317.98 2016.48,1319 2011.7,1320 2006.92,1320.98 2002.12,1321.94 1997.32,1322.89 1992.51,1323.83 1987.68,1324.74 1982.85,1325.65 1978.01,1326.53 1973.17,1327.41 1968.31,1328.27 1963.45,1329.11 1958.58,1329.94 1953.71,1330.76 1948.83,1331.56 1943.95,1332.35 1939.06,1333.13 1934.17,1333.89 1929.27,1334.65 1924.37,1335.39 1919.47,1336.12 1914.56,1336.83 1909.66,1337.54 1904.75,1338.23 1899.84,1338.91 1894.92,1339.58 1890.01,1340.25 1885.1,1340.9 1880.18,1341.54 1875.27,1342.17 1870.35,1342.79 1865.44,1343.4 1860.53,1344 1855.62,1344.59 1850.71,1345.17 1845.8,1345.74 1840.89,1346.3 1835.99,1346.86 1831.08,1347.4 1826.18,1347.94 1821.29,1348.47 1816.4,1348.99 1811.51,1349.51 1806.62,1350.01 1801.74,1350.51 1796.86,1351 1791.98,1351.48 1787.11,1351.95 1782.25,1352.42 1777.39,1352.88 1772.53,1353.33 1767.68,1353.78 1762.84,1354.22 1758,1354.65 1753.17,1355.08 1748.34,1355.5 1743.52,1355.91 1738.7,1356.32 1733.89,1356.72 1729.09,1357.11 1724.29,1357.5 1719.5,1357.89 1714.72,1358.26 1709.95,1358.64 1705.18,1359 1700.42,1359.36 1695.67,1359.72 1690.92,1360.07 1686.18,1360.42 1681.45,1360.76 1676.73,1361.09 1672.02,1361.42 1667.31,1361.75 1662.61,1362.07 1657.92,1362.39 1653.24,1362.7 1648.57,1363.01 1643.91,1363.31 1639.25,1363.61 1634.61,1363.9 1629.97,1364.19 1625.34,1364.48 1620.72,1364.76 1616.11,1365.04 1611.51,1365.31 1606.92,1365.58 1602.34,1365.85 1597.77,1366.11 1593.2,1366.37 1588.65,1366.62 1584.11,1366.87 1579.57,1367.12 1575.05,1367.37 1570.54,1367.61 1566.03,1367.84 1561.54,1368.08 1557.05,1368.31 1552.58,1368.54 1548.12,1368.76 1543.66,1368.98 1539.22,1369.2 1534.78,1369.42 1530.36,1369.63 1525.95,1369.84 1521.55,1370.05 1517.15,1370.25 1512.77,1370.45 1508.4,1370.65 1504.04,1370.85 1499.69,1371.04 1495.35,1371.23 1491.02,1371.42 1486.71,1371.6 1482.4,1371.79 1478.1,1371.97 1473.82,1372.14 1469.54,1372.32 1465.28,1372.49 1461.02,1372.66 1456.78,1372.83 1452.55,1373 1448.33,1373.16 1444.12,1373.32 1439.92,1373.48 1435.73,1373.64 1431.55,1373.8 1427.39,1373.95 1423.23,1374.1 1419.09,1374.25 1414.96,1374.4 1410.83,1374.54 1406.72,1374.69 1402.62,1374.83 1398.53,1374.97 1394.46,1375.11 1390.39,1375.24 1386.33,1375.38 1382.29,1375.51 1378.26,1375.64 1374.23,1375.77 1370.22,1375.9 1366.22,1376.02 1362.23,1376.15 1358.25,1376.27 1354.29,1376.39 1350.33,1376.51 1346.39,1376.63 1342.45,1376.75 1338.53,1376.86 1334.62,1376.98 1330.72,1377.09 1326.83,1377.2 1322.95,1377.31 1319.08,1377.41 1315.22,1377.52 1311.38,1377.63 1307.55,1377.73 1303.72,1377.83 1299.91,1377.93 1296.11,1378.03 1292.32,1378.13 1288.54,1378.23 1284.77,1378.32 1281.01,1378.42 1277.27,1378.51 1273.53,1378.6 1269.81,1378.69 1266.1,1378.78 1262.39,1378.87 1258.7,1378.96 1255.02,1379.05 1251.35,1379.13 1247.69,1379.22 1244.05,1379.3 1240.41,1379.38 1236.78,1379.46 1233.17,1379.54 1229.57,1379.62 1225.97,1379.7 1222.39,1379.78 1218.82,1379.85 1215.26,1379.93 1211.71,1380 1208.17,1380.07 1204.64,1380.15 1201.12,1380.22 1197.61,1380.29 1194.12,1380.36 1190.63,1380.43 1187.15,1380.49 1183.69,1380.56 1180.24,1380.63 1176.79,1380.69 1173.36,1380.75 1169.94,1380.82 1166.52,1380.88 1163.12,1380.94 1159.73,1381 1156.35,1381.06 1152.98,1381.12 1149.62,1381.18 1146.27,1381.24 1142.93,1381.29 1139.61,1381.35 1136.29,1381.41 1132.98,1381.46 1129.68,1381.51 1126.39,1381.57 1123.12,1381.62 1119.85,1381.67 1116.6,1381.72 1113.35,1381.77 1110.11,1381.82 1106.89,1381.87 1103.67,1381.92 1100.47,1381.97 1097.27,1382.01 1094.09,1382.06 1090.91,1382.11 1087.74,1382.15 1084.59,1382.2 1081.44,1382.24 1078.31,1382.28 1075.18,1382.33 1072.07,1382.37 1068.96,1382.41 1065.87,1382.45 1062.78,1382.49 1059.7,1382.53 1056.64,1382.57 1053.58,1382.61 1050.54,1382.64 1047.5,1382.68 1044.47,1382.72 1041.45,1382.75 1038.45,1382.79 1035.45,1382.83 1032.46,1382.86 1029.48,1382.89 1026.51,1382.93 1023.55,1382.96 1020.6,1382.99 1017.66,1383.03 1014.73,1383.06 1011.81,1383.09 1008.89,1383.12 1005.99,1383.15 1003.1,1383.18 1000.21,1383.21 997.338,1383.23 994.472,1383.26 991.616,1383.29 988.769,1383.32 985.931,1383.34 983.102,1383.37 980.283,1383.4 977.473,1383.42 974.671,1383.45 971.879,1383.47 969.096,1383.49 966.323,1383.52 963.558,1383.54 960.802,1383.56 958.055,1383.59 955.317,1383.61 952.588,1383.63 949.868,1383.65 947.157,1383.67 944.455,1383.69 941.762,1383.71 939.077,1383.73 936.402,1383.75 933.735,1383.77 931.076,1383.79 928.427,1383.8 925.786,1383.82 923.154,1383.84 920.531,1383.85 917.916,1383.87 915.31,1383.89 912.712,1383.9 910.123,1383.92 907.543,1383.93 904.971,1383.95 902.407,1383.96 899.852,1383.97 897.306,1383.99 894.768,1384 892.238,1384.01 889.717,1384.02 887.203,1384.04 884.699,1384.05 882.202,1384.06 879.714,1384.07 877.234,1384.08 874.763,1384.09 872.299,1384.1 869.844,1384.11 867.397,1384.12 864.958,1384.13 862.527,1384.13 860.104,1384.14 857.689,1384.15 855.283,1384.16 852.884,1384.16 850.493,1384.17 848.11,1384.18 845.736,1384.18 843.369,1384.19 841.01,1384.19 838.659,1384.2 836.315,1384.2 833.98,1384.21 831.652,1384.21 829.332,1384.22 827.02,1384.22 824.716,1384.22 822.419,1384.23 820.13,1384.23 817.849,1384.23 815.575,1384.23 813.309,1384.23 811.051,1384.24 808.8,1384.24 806.557,1384.24 804.321,1384.24 802.093,1384.24 799.872,1384.24 797.658,1384.24 795.452,1384.24 793.254,1384.24 791.063,1384.23 788.879,1384.23 786.703,1384.23 784.534,1384.23 782.372,1384.23 780.217,1384.22 778.07,1384.22 775.93,1384.22 773.797,1384.21 771.672,1384.21 769.553,1384.2 767.442,1384.2 765.338,1384.2 763.241,1384.19 761.151,1384.18 759.068,1384.18 756.992,1384.17 754.923,1384.17 752.861,1384.16 750.806,1384.15 748.758,1384.15 746.717,1384.14 744.683,1384.13 742.656,1384.12 740.635,1384.12 738.622,1384.11 736.615,1384.1 734.615,1384.09 732.622,1384.08 730.636,1384.07 728.656,1384.06 726.683,1384.05 724.717,1384.04 722.757,1384.03 720.805,1384.02 718.858,1384.01 716.919,1383.99 714.986,1383.98 713.059,1383.97 711.139,1383.96 709.226,1383.95 707.319,1383.93 705.418,1383.92 703.524,1383.91 701.637,1383.89 699.756,1383.88 697.881,1383.86 696.013,1383.85 694.151,1383.83 692.295,1383.82 690.446,1383.8 688.603,1383.79 686.767,1383.77 684.936,1383.76 683.112,1383.74 681.294,1383.72 679.482,1383.71 677.677,1383.69 675.878,1383.67 674.084,1383.65 672.297,1383.63 670.516,1383.62 668.741,1383.6 666.973,1383.58 665.21,1383.56 663.453,1383.54 661.702,1383.52 659.958,1383.5 658.219,1383.48 656.486,1383.46 654.759,1383.44 653.038,1383.42 651.323,1383.39 649.614,1383.37 647.911,1383.35 646.213,1383.33 644.522,1383.31 642.836,1383.28 641.156,1383.26 639.481,1383.24 637.813,1383.21 636.15,1383.19 634.493,1383.16 632.842,1383.14 631.196,1383.11 629.556,1383.09 627.921,1383.06 626.292,1383.04 624.669,1383.01 623.052,1382.99 621.44,1382.96 619.833,1382.93 618.232,1382.91 616.637,1382.88 615.047,1382.85 613.462,1382.82 611.883,1382.79 610.309,1382.76 608.741,1382.74 607.178,1382.71 605.621,1382.68 604.069,1382.65 602.522,1382.62 600.981,1382.59 599.445,1382.56 597.914,1382.52 596.389,1382.49 594.869,1382.46 593.354,1382.43 591.844,1382.4 590.34,1382.37 588.841,1382.33 587.347,1382.3 585.858,1382.27 584.374,1382.23 582.895,1382.2 581.422,1382.16 579.953,1382.13 578.49,1382.09 577.032,1382.06 575.579,1382.02 574.13,1381.99 572.687,1381.95 571.249,1381.91 569.816,1381.88 568.388,1381.84 566.965,1381.8 565.546,1381.76 564.133,1381.73 562.725,1381.69 561.321,1381.65 559.922,1381.61 558.528,1381.57 557.139,1381.53 555.755,1381.49 554.376,1381.45 553.001,1381.41 551.631,1381.37 550.266,1381.33 548.906,1381.28 547.551,1381.24 546.2,1381.2 544.854,1381.16 543.512,1381.11 542.175,1381.07 540.843,1381.03 539.516,1380.98 538.193,1380.94 536.875,1380.89 535.561,1380.85 534.252,1380.8 532.947,1380.75 531.647,1380.71 530.352,1380.66 529.061,1380.61 527.775,1380.57 526.493,1380.52 525.215,1380.47 523.942,1380.42 522.674,1380.37 521.41,1380.32 520.15,1380.27 518.895,1380.22 517.644,1380.17 516.398,1380.12 515.155,1380.07 513.918,1380.02 512.684,1379.97 511.455,1379.92 510.23,1379.86 509.01,1379.81 507.793,1379.76 506.581,1379.7 505.374,1379.65 504.17,1379.59 502.971,1379.54 501.776,1379.48 500.585,1379.43 499.398,1379.37 498.216,1379.32 497.037,1379.26 495.863,1379.2 494.693,1379.14 493.527,1379.08 492.365,1379.03 491.207,1378.97 490.053,1378.91 488.904,1378.85 487.758,1378.79 486.616,1378.73 485.479,1378.67 484.345,1378.6 483.215,1378.54 482.09,1378.48 480.968,1378.42 479.85,1378.35 478.737,1378.29 477.627,1378.23 476.521,1378.16 475.419,1378.1 474.321,1378.03 473.226,1377.96 472.136,1377.9 471.05,1377.83 469.967,1377.76 468.888,1377.7 467.813,1377.63 466.742,1377.56 465.674,1377.49 464.61,1377.42 463.551,1377.35 462.494,1377.28 461.442,1377.21 460.393,1377.14 459.348,1377.06 458.307,1376.99 457.269,1376.92 456.235,1376.85 455.205,1376.77 454.179,1376.7 453.156,1376.62 452.136,1376.55 451.121,1376.47 450.109,1376.39 449.1,1376.32 448.095,1376.24 447.094,1376.16 446.096,1376.08 445.102,1376 444.111,1375.92 443.124,1375.84 442.14,1375.76 441.16,1375.68 440.184,1375.6 439.21,1375.52 438.241,1375.44 437.275,1375.35 436.312,1375.27 435.352,1375.18 434.397,1375.1 433.444,1375.01 432.495,1374.93 431.549,1374.84 430.607,1374.75 429.668,1374.67 428.732,1374.58 427.8,1374.49 426.871,1374.4 425.946,1374.31 425.023,1374.22 424.104,1374.13 423.189,1374.04 422.276,1373.94 421.367,1373.85 420.461,1373.76 419.559,1373.66 418.659,1373.57 417.763,1373.47 416.87,1373.38 415.981,1373.28 415.094,1373.18 414.211,1373.08 413.331,1372.98 412.454,1372.89 411.58,1372.79 410.709,1372.69 409.842,1372.58 408.978,1372.48 408.116,1372.38 407.258,1372.28 406.403,1372.17 405.551,1372.07 404.702,1371.96 403.857,1371.86 403.014,1371.75 402.174,1371.64 401.337,1371.54 400.504,1371.43 399.673,1371.32 398.846,1371.21 398.021,1371.1 397.199,1370.99 396.381,1370.88 395.565,1370.76 394.752,1370.65 393.943,1370.54 393.136,1370.42 392.332,1370.31 391.531,1370.19 390.733,1370.07 389.938,1369.95 389.146,1369.84 388.356,1369.72 387.57,1369.6 386.786,1369.48 386.006,1369.35 385.228,1369.23 384.453,1369.11 383.681,1368.98 382.911,1368.86 382.145,1368.73 381.381,1368.61 380.62,1368.48 379.862,1368.35 379.107,1368.23 378.354,1368.1 377.604,1367.97 376.857,1367.83 376.113,1367.7 375.371,1367.57 374.632,1367.44 373.896,1367.3 373.163,1367.17 372.432,1367.03 371.704,1366.89 370.978,1366.76 370.256,1366.62 369.536,1366.48 368.818,1366.34 368.104,1366.2 367.392,1366.05 366.682,1365.91 365.975,1365.77 365.271,1365.62 364.57,1365.48 363.871,1365.33 363.174,1365.18 362.48,1365.03 361.789,1364.88 361.101,1364.73 360.414,1364.58 359.731,1364.43 359.05,1364.28 358.372,1364.12 357.696,1363.97 357.022,1363.81 356.351,1363.65 355.683,1363.49 355.017,1363.34 354.354,1363.18 353.693,1363.01 353.034,1362.85 352.378,1362.69 351.725,1362.52 351.074,1362.36 350.425,1362.19 349.779,1362.03 349.135,1361.86 348.494,1361.69 347.855,1361.52 347.219,1361.35 346.585,1361.17 345.953,1361 345.324,1360.83 344.697,1360.65 344.072,1360.47 343.45,1360.29 342.83,1360.12 342.213,1359.93 341.598,1359.75 340.985,1359.57 340.374,1359.39 339.766,1359.2 339.16,1359.02 338.557,1358.83 337.956,1358.64 337.357,1358.45 336.76,1358.26 336.166,1358.07 335.574,1357.88 334.984,1357.68 334.396,1357.49 333.811,1357.29 333.228,1357.09 332.647,1356.89 332.068,1356.69 331.492,1356.49 330.918,1356.29 330.346,1356.08 329.776,1355.88 329.209,1355.67 328.643,1355.46 328.08,1355.25 327.519,1355.04 326.961,1354.83 326.404,1354.62 325.849,1354.4 325.297,1354.19 324.747,1353.97 324.199,1353.75 323.653,1353.53 323.109,1353.31 322.568,1353.08 322.028,1352.86 321.491,1352.63 320.956,1352.41 320.422,1352.18 319.891,1351.95 319.362,1351.72 318.835,1351.49 318.311,1351.25 317.788,1351.02 317.267,1350.78 316.749,1350.54 316.232,1350.3 315.717,1350.06 315.205,1349.81 314.694,1349.57 314.186,1349.32 313.68,1349.08 313.175,1348.83 312.673,1348.57 312.172,1348.32 311.674,1348.07 311.178,1347.81 310.683,1347.56 310.191,1347.3 309.7,1347.04 309.212,1346.77 308.725,1346.51 308.241,1346.24 307.758,1345.98 307.278,1345.71 306.799,1345.44 306.322,1345.17 305.847,1344.89 305.375,1344.62 304.904,1344.34 304.435,1344.06 303.968,1343.78 303.502,1343.5 303.039,1343.21 302.578,1342.93 302.118,1342.64 301.661,1342.35 301.205,1342.06 300.751,1341.77 300.299,1341.47 299.849,1341.17 299.401,1340.87 298.954,1340.57 298.51,1340.27 298.067,1339.97 297.626,1339.66 297.187,1339.35 296.75,1339.04 296.315,1338.73 295.881,1338.42 295.45,1338.1 295.02,1337.78 294.592,1337.46 294.165,1337.14 293.741,1336.82 293.318,1336.49 292.897,1336.16 292.478,1335.83 292.061,1335.5 291.646,1335.16 291.232,1334.83 290.82,1334.49 290.41,1334.15 290.001,1333.81 289.595,1333.46 289.19,1333.11 288.787,1332.76 288.385,1332.41 287.986,1332.06 287.588,1331.7 287.192,1331.35 286.797,1330.98 286.404,1330.62 286.013,1330.26 285.624,1329.89 285.236,1329.52 284.851,1329.15 284.466,1328.77 284.084,1328.4 283.703,1328.02 283.324,1327.64 282.947,1327.25 282.571,1326.87 282.197,1326.48 281.825,1326.09 281.454,1325.7 281.085,1325.3 280.718,1324.9 280.352,1324.5 279.988,1324.1 279.626,1323.69 279.265,1323.28 278.906,1322.87 278.549,1322.46 278.193,1322.04 277.839,1321.62 277.486,1321.2 277.135,1320.78 276.786,1320.35 276.439,1319.92 276.093,1319.49 275.748,1319.05 275.406,1318.62 275.064,1318.18 274.725,1317.73 274.387,1317.29 274.051,1316.84 273.716,1316.39 273.383,1315.93 273.051,1315.48 272.721,1315.02 272.393,1314.55 272.066,1314.09 271.741,1313.62 271.418,1313.15 271.096,1312.67 270.775,1312.2 270.456,1311.72 270.139,1311.23 269.823,1310.75 269.509,1310.26 269.196,1309.76 268.885,1309.27 268.576,1308.77 268.268,1308.27 267.962,1307.76 267.657,1307.25 267.353,1306.74 267.052,1306.23 266.751,1305.71 266.453,1305.19 266.155,1304.66 265.86,1304.13 265.566,1303.6 265.273,1303.07 264.982,1302.53 264.693,1301.99 264.405,1301.44 264.118,1300.9 263.833,1300.34 263.55,1299.79 263.268,1299.23 262.987,1298.67 262.708,1298.1 262.431,1297.53 262.155,1296.96 261.881,1296.39 261.608,1295.81 261.336,1295.22 261.066,1294.64 260.798,1294.04 260.531,1293.45 260.266,1292.85 260.002,1292.25 259.739,1291.64 259.478,1291.03 259.219,1290.42 258.961,1289.8 258.704,1289.18 258.449,1288.56 258.196,1287.93 257.944,1287.3 257.693,1286.66 257.444,1286.02 257.196,1285.37 256.95,1284.72 256.705,1284.07 256.462,1283.41 256.22,1282.75 255.98,1282.09 255.741,1281.42 255.504,1280.74 255.268,1280.06 255.034,1279.38 254.801,1278.7 254.569,1278.01 254.339,1277.31 254.11,1276.61 253.883,1275.91 253.658,1275.2 253.433,1274.49 253.211,1273.77 252.989,1273.05 252.77,1272.32 252.551,1271.59 252.334,1270.85 252.119,1270.11 251.905,1269.37 251.692,1268.62 251.481,1267.87 251.272,1267.11 251.063,1266.34 250.857,1265.58 250.651,1264.8 250.448,1264.02 250.245,1263.24 250.044,1262.45 249.845,1261.66 249.647,1260.86 249.45,1260.06 249.255,1259.25 249.062,1258.44 248.87,1257.62 248.679,1256.8 248.49,1255.97 248.302,1255.14 248.115,1254.3 247.931,1253.46 247.747,1252.61 247.565,1251.75 247.385,1250.89 247.206,1250.03 "/>
<path clip-path="url(#clip150)" d="M1629.6 196.789 L2280.18 196.789 L2280.18 93.1086 L1629.6 93.1086  Z" fill="#ffffff" fill-rule="evenodd" fill-opacity="1"/>
<polyline clip-path="url(#clip150)" style="stroke:#000000; stroke-linecap:round; stroke-linejoin:round; stroke-width:4; stroke-opacity:1; fill:none" points="1629.6,196.789 2280.18,196.789 2280.18,93.1086 1629.6,93.1086 1629.6,196.789 "/>
<polyline clip-path="url(#clip150)" style="stroke:#009af9; stroke-linecap:round; stroke-linejoin:round; stroke-width:8; stroke-opacity:1; fill:none" points="1653.8,144.949 1798.95,144.949 "/>
<path clip-path="url(#clip150)" d="M1839.53 146.025 Q1841.04 146.534 1842.45 148.201 Q1843.88 149.868 1845.32 152.784 L1850.06 162.229 L1845.04 162.229 L1840.62 153.363 Q1838.91 149.891 1837.29 148.756 Q1835.69 147.622 1832.91 147.622 L1827.82 147.622 L1827.82 162.229 L1823.14 162.229 L1823.14 127.669 L1833.7 127.669 Q1839.62 127.669 1842.54 130.145 Q1845.46 132.622 1845.46 137.622 Q1845.46 140.886 1843.93 143.039 Q1842.42 145.192 1839.53 146.025 M1827.82 131.511 L1827.82 143.78 L1833.7 143.78 Q1837.08 143.78 1838.79 142.229 Q1840.53 140.655 1840.53 137.622 Q1840.53 134.59 1838.79 133.062 Q1837.08 131.511 1833.7 131.511 L1827.82 131.511 Z" fill="#000000" fill-rule="nonzero" fill-opacity="1" /><path clip-path="url(#clip150)" d="M1875.94 148.201 L1875.94 150.284 L1856.36 150.284 Q1856.64 154.682 1859 156.997 Q1861.38 159.289 1865.62 159.289 Q1868.07 159.289 1870.36 158.687 Q1872.68 158.085 1874.95 156.881 L1874.95 160.909 Q1872.66 161.881 1870.25 162.391 Q1867.84 162.9 1865.36 162.9 Q1859.16 162.9 1855.53 159.289 Q1851.91 155.678 1851.91 149.52 Q1851.91 143.155 1855.34 139.428 Q1858.79 135.678 1864.62 135.678 Q1869.85 135.678 1872.89 139.057 Q1875.94 142.414 1875.94 148.201 M1871.68 146.951 Q1871.64 143.456 1869.72 141.372 Q1867.82 139.289 1864.67 139.289 Q1861.1 139.289 1858.95 141.303 Q1856.82 143.317 1856.5 146.974 L1871.68 146.951 Z" fill="#000000" fill-rule="nonzero" fill-opacity="1" /><path clip-path="url(#clip150)" d="M1896.06 126.21 L1896.06 129.752 L1891.98 129.752 Q1889.69 129.752 1888.79 130.678 Q1887.91 131.604 1887.91 134.011 L1887.91 136.303 L1894.92 136.303 L1894.92 139.613 L1887.91 139.613 L1887.91 162.229 L1883.63 162.229 L1883.63 139.613 L1879.55 139.613 L1879.55 136.303 L1883.63 136.303 L1883.63 134.497 Q1883.63 130.169 1885.64 128.201 Q1887.66 126.21 1892.03 126.21 L1896.06 126.21 Z" fill="#000000" fill-rule="nonzero" fill-opacity="1" /><path clip-path="url(#clip150)" d="M1921.8 148.201 L1921.8 150.284 L1902.22 150.284 Q1902.49 154.682 1904.85 156.997 Q1907.24 159.289 1911.47 159.289 Q1913.93 159.289 1916.22 158.687 Q1918.53 158.085 1920.8 156.881 L1920.8 160.909 Q1918.51 161.881 1916.1 162.391 Q1913.7 162.9 1911.22 162.9 Q1905.02 162.9 1901.38 159.289 Q1897.77 155.678 1897.77 149.52 Q1897.77 143.155 1901.2 139.428 Q1904.65 135.678 1910.48 135.678 Q1915.71 135.678 1918.74 139.057 Q1921.8 142.414 1921.8 148.201 M1917.54 146.951 Q1917.49 143.456 1915.57 141.372 Q1913.67 139.289 1910.53 139.289 Q1906.96 139.289 1904.81 141.303 Q1902.68 143.317 1902.35 146.974 L1917.54 146.951 Z" fill="#000000" fill-rule="nonzero" fill-opacity="1" /><path clip-path="url(#clip150)" d="M1943.81 140.284 Q1943.09 139.868 1942.24 139.682 Q1941.4 139.474 1940.39 139.474 Q1936.78 139.474 1934.83 141.835 Q1932.91 144.173 1932.91 148.571 L1932.91 162.229 L1928.63 162.229 L1928.63 136.303 L1932.91 136.303 L1932.91 140.331 Q1934.25 137.969 1936.4 136.835 Q1938.56 135.678 1941.64 135.678 Q1942.08 135.678 1942.61 135.747 Q1943.14 135.794 1943.79 135.909 L1943.81 140.284 Z" fill="#000000" fill-rule="nonzero" fill-opacity="1" /><path clip-path="url(#clip150)" d="M1969.41 148.201 L1969.41 150.284 L1949.83 150.284 Q1950.11 154.682 1952.47 156.997 Q1954.85 159.289 1959.09 159.289 Q1961.54 159.289 1963.84 158.687 Q1966.15 158.085 1968.42 156.881 L1968.42 160.909 Q1966.13 161.881 1963.72 162.391 Q1961.31 162.9 1958.84 162.9 Q1952.63 162.9 1949 159.289 Q1945.39 155.678 1945.39 149.52 Q1945.39 143.155 1948.81 139.428 Q1952.26 135.678 1958.09 135.678 Q1963.33 135.678 1966.36 139.057 Q1969.41 142.414 1969.41 148.201 M1965.15 146.951 Q1965.11 143.456 1963.19 141.372 Q1961.29 139.289 1958.14 139.289 Q1954.58 139.289 1952.42 141.303 Q1950.29 143.317 1949.97 146.974 L1965.15 146.951 Z" fill="#000000" fill-rule="nonzero" fill-opacity="1" /><path clip-path="url(#clip150)" d="M1997.96 146.581 L1997.96 162.229 L1993.7 162.229 L1993.7 146.719 Q1993.7 143.039 1992.26 141.21 Q1990.83 139.382 1987.96 139.382 Q1984.51 139.382 1982.52 141.581 Q1980.53 143.78 1980.53 147.576 L1980.53 162.229 L1976.24 162.229 L1976.24 136.303 L1980.53 136.303 L1980.53 140.331 Q1982.05 137.993 1984.11 136.835 Q1986.2 135.678 1988.9 135.678 Q1993.37 135.678 1995.66 138.456 Q1997.96 141.21 1997.96 146.581 Z" fill="#000000" fill-rule="nonzero" fill-opacity="1" /><path clip-path="url(#clip150)" d="M2025.11 137.298 L2025.11 141.28 Q2023.3 140.284 2021.47 139.798 Q2019.67 139.289 2017.82 139.289 Q2013.67 139.289 2011.38 141.928 Q2009.09 144.544 2009.09 149.289 Q2009.09 154.034 2011.38 156.673 Q2013.67 159.289 2017.82 159.289 Q2019.67 159.289 2021.47 158.803 Q2023.3 158.293 2025.11 157.298 L2025.11 161.233 Q2023.33 162.067 2021.4 162.483 Q2019.51 162.9 2017.35 162.9 Q2011.5 162.9 2008.05 159.219 Q2004.6 155.539 2004.6 149.289 Q2004.6 142.946 2008.07 139.312 Q2011.57 135.678 2017.63 135.678 Q2019.6 135.678 2021.47 136.095 Q2023.35 136.488 2025.11 137.298 Z" fill="#000000" fill-rule="nonzero" fill-opacity="1" /><path clip-path="url(#clip150)" d="M2054.69 148.201 L2054.69 150.284 L2035.11 150.284 Q2035.39 154.682 2037.75 156.997 Q2040.13 159.289 2044.37 159.289 Q2046.82 159.289 2049.11 158.687 Q2051.43 158.085 2053.7 156.881 L2053.7 160.909 Q2051.4 161.881 2049 162.391 Q2046.59 162.9 2044.11 162.9 Q2037.91 162.9 2034.27 159.289 Q2030.66 155.678 2030.66 149.52 Q2030.66 143.155 2034.09 139.428 Q2037.54 135.678 2043.37 135.678 Q2048.6 135.678 2051.64 139.057 Q2054.69 142.414 2054.69 148.201 M2050.43 146.951 Q2050.39 143.456 2048.46 141.372 Q2046.57 139.289 2043.42 139.289 Q2039.85 139.289 2037.7 141.303 Q2035.57 143.317 2035.25 146.974 L2050.43 146.951 Z" fill="#000000" fill-rule="nonzero" fill-opacity="1" /><path clip-path="url(#clip150)" d="M2093.28 137.067 L2093.28 141.094 Q2091.47 140.169 2089.53 139.706 Q2087.58 139.243 2085.5 139.243 Q2082.33 139.243 2080.73 140.215 Q2079.16 141.187 2079.16 143.131 Q2079.16 144.613 2080.29 145.469 Q2081.43 146.303 2084.85 147.067 L2086.31 147.391 Q2090.85 148.363 2092.75 150.145 Q2094.67 151.905 2094.67 155.076 Q2094.67 158.687 2091.8 160.793 Q2088.95 162.9 2083.95 162.9 Q2081.87 162.9 2079.6 162.483 Q2077.35 162.09 2074.85 161.28 L2074.85 156.881 Q2077.21 158.108 2079.51 158.733 Q2081.8 159.335 2084.04 159.335 Q2087.05 159.335 2088.67 158.317 Q2090.29 157.275 2090.29 155.4 Q2090.29 153.664 2089.11 152.738 Q2087.96 151.812 2084 150.956 L2082.52 150.608 Q2078.56 149.775 2076.8 148.062 Q2075.04 146.326 2075.04 143.317 Q2075.04 139.659 2077.63 137.669 Q2080.22 135.678 2084.99 135.678 Q2087.35 135.678 2089.44 136.025 Q2091.52 136.372 2093.28 137.067 Z" fill="#000000" fill-rule="nonzero" fill-opacity="1" /><path clip-path="url(#clip150)" d="M2111.5 139.289 Q2108.07 139.289 2106.08 141.974 Q2104.09 144.636 2104.09 149.289 Q2104.09 153.942 2106.06 156.627 Q2108.05 159.289 2111.5 159.289 Q2114.9 159.289 2116.89 156.604 Q2118.88 153.918 2118.88 149.289 Q2118.88 144.682 2116.89 141.997 Q2114.9 139.289 2111.5 139.289 M2111.5 135.678 Q2117.05 135.678 2120.22 139.289 Q2123.39 142.9 2123.39 149.289 Q2123.39 155.655 2120.22 159.289 Q2117.05 162.9 2111.5 162.9 Q2105.92 162.9 2102.75 159.289 Q2099.6 155.655 2099.6 149.289 Q2099.6 142.9 2102.75 139.289 Q2105.92 135.678 2111.5 135.678 Z" fill="#000000" fill-rule="nonzero" fill-opacity="1" /><path clip-path="url(#clip150)" d="M2130.45 126.21 L2134.71 126.21 L2134.71 162.229 L2130.45 162.229 L2130.45 126.21 Z" fill="#000000" fill-rule="nonzero" fill-opacity="1" /><path clip-path="url(#clip150)" d="M2143.19 151.997 L2143.19 136.303 L2147.45 136.303 L2147.45 151.835 Q2147.45 155.516 2148.88 157.368 Q2150.32 159.196 2153.19 159.196 Q2156.64 159.196 2158.63 156.997 Q2160.64 154.798 2160.64 151.002 L2160.64 136.303 L2164.9 136.303 L2164.9 162.229 L2160.64 162.229 L2160.64 158.247 Q2159.09 160.608 2157.03 161.766 Q2154.99 162.9 2152.28 162.9 Q2147.82 162.9 2145.5 160.122 Q2143.19 157.344 2143.19 151.997 M2153.9 135.678 L2153.9 135.678 Z" fill="#000000" fill-rule="nonzero" fill-opacity="1" /><path clip-path="url(#clip150)" d="M2177.89 128.942 L2177.89 136.303 L2186.66 136.303 L2186.66 139.613 L2177.89 139.613 L2177.89 153.687 Q2177.89 156.858 2178.74 157.761 Q2179.62 158.664 2182.28 158.664 L2186.66 158.664 L2186.66 162.229 L2182.28 162.229 Q2177.35 162.229 2175.48 160.4 Q2173.6 158.548 2173.6 153.687 L2173.6 139.613 L2170.48 139.613 L2170.48 136.303 L2173.6 136.303 L2173.6 128.942 L2177.89 128.942 Z" fill="#000000" fill-rule="nonzero" fill-opacity="1" /><path clip-path="url(#clip150)" d="M2192.26 136.303 L2196.52 136.303 L2196.52 162.229 L2192.26 162.229 L2192.26 136.303 M2192.26 126.21 L2196.52 126.21 L2196.52 131.604 L2192.26 131.604 L2192.26 126.21 Z" fill="#000000" fill-rule="nonzero" fill-opacity="1" /><path clip-path="url(#clip150)" d="M2215.48 139.289 Q2212.05 139.289 2210.06 141.974 Q2208.07 144.636 2208.07 149.289 Q2208.07 153.942 2210.04 156.627 Q2212.03 159.289 2215.48 159.289 Q2218.88 159.289 2220.87 156.604 Q2222.86 153.918 2222.86 149.289 Q2222.86 144.682 2220.87 141.997 Q2218.88 139.289 2215.48 139.289 M2215.48 135.678 Q2221.03 135.678 2224.2 139.289 Q2227.38 142.9 2227.38 149.289 Q2227.38 155.655 2224.2 159.289 Q2221.03 162.9 2215.48 162.9 Q2209.9 162.9 2206.73 159.289 Q2203.58 155.655 2203.58 149.289 Q2203.58 142.9 2206.73 139.289 Q2209.9 135.678 2215.48 135.678 Z" fill="#000000" fill-rule="nonzero" fill-opacity="1" /><path clip-path="url(#clip150)" d="M2255.99 146.581 L2255.99 162.229 L2251.73 162.229 L2251.73 146.719 Q2251.73 143.039 2250.29 141.21 Q2248.86 139.382 2245.99 139.382 Q2242.54 139.382 2240.55 141.581 Q2238.56 143.78 2238.56 147.576 L2238.56 162.229 L2234.27 162.229 L2234.27 136.303 L2238.56 136.303 L2238.56 140.331 Q2240.08 137.993 2242.14 136.835 Q2244.23 135.678 2246.94 135.678 Q2251.4 135.678 2253.69 138.456 Q2255.99 141.21 2255.99 146.581 Z" fill="#000000" fill-rule="nonzero" fill-opacity="1" /></svg>
