<?xml version="1.0" encoding="utf-8"?>
<svg xmlns="http://www.w3.org/2000/svg" xmlns:xlink="http://www.w3.org/1999/xlink" width="600" height="400" viewBox="0 0 2400 1600">
<defs>
  <clipPath id="clip200">
    <rect x="0" y="0" width="2400" height="1600"/>
  </clipPath>
</defs>
<path clip-path="url(#clip200)" d="
M0 1600 L2400 1600 L2400 0 L0 0  Z
  " fill="#ffffff" fill-rule="evenodd" fill-opacity="1"/>
<defs>
  <clipPath id="clip201">
    <rect x="480" y="0" width="1681" height="1600"/>
  </clipPath>
</defs>
<defs>
  <clipPath id="clip202">
    <rect x="155" y="47" width="2198" height="1397"/>
  </clipPath>
</defs>
<path clip-path="url(#clip200)" d="
M199.548 1443.01 L2352.76 1443.01 L2352.76 47.2441 L199.548 47.2441  Z
  " fill="#ffffff" fill-rule="evenodd" fill-opacity="1"/>
<defs>
  <clipPath id="clip203">
    <rect x="199" y="47" width="2154" height="1397"/>
  </clipPath>
</defs>
<polyline clip-path="url(#clip203)" style="stroke:#000000; stroke-linecap:butt; stroke-linejoin:round; stroke-width:2; stroke-opacity:0.1; fill:none" points="
  199.548,1443.01 199.548,47.2441 
  "/>
<polyline clip-path="url(#clip203)" style="stroke:#000000; stroke-linecap:butt; stroke-linejoin:round; stroke-width:2; stroke-opacity:0.1; fill:none" points="
  737.85,1443.01 737.85,47.2441 
  "/>
<polyline clip-path="url(#clip203)" style="stroke:#000000; stroke-linecap:butt; stroke-linejoin:round; stroke-width:2; stroke-opacity:0.1; fill:none" points="
  1276.15,1443.01 1276.15,47.2441 
  "/>
<polyline clip-path="url(#clip203)" style="stroke:#000000; stroke-linecap:butt; stroke-linejoin:round; stroke-width:2; stroke-opacity:0.1; fill:none" points="
  1814.45,1443.01 1814.45,47.2441 
  "/>
<polyline clip-path="url(#clip203)" style="stroke:#000000; stroke-linecap:butt; stroke-linejoin:round; stroke-width:2; stroke-opacity:0.1; fill:none" points="
  2352.76,1443.01 2352.76,47.2441 
  "/>
<polyline clip-path="url(#clip200)" style="stroke:#000000; stroke-linecap:butt; stroke-linejoin:round; stroke-width:4; stroke-opacity:1; fill:none" points="
  199.548,1443.01 2352.76,1443.01 
  "/>
<polyline clip-path="url(#clip200)" style="stroke:#000000; stroke-linecap:butt; stroke-linejoin:round; stroke-width:4; stroke-opacity:1; fill:none" points="
  199.548,1443.01 199.548,1424.11 
  "/>
<polyline clip-path="url(#clip200)" style="stroke:#000000; stroke-linecap:butt; stroke-linejoin:round; stroke-width:4; stroke-opacity:1; fill:none" points="
  737.85,1443.01 737.85,1424.11 
  "/>
<polyline clip-path="url(#clip200)" style="stroke:#000000; stroke-linecap:butt; stroke-linejoin:round; stroke-width:4; stroke-opacity:1; fill:none" points="
  1276.15,1443.01 1276.15,1424.11 
  "/>
<polyline clip-path="url(#clip200)" style="stroke:#000000; stroke-linecap:butt; stroke-linejoin:round; stroke-width:4; stroke-opacity:1; fill:none" points="
  1814.45,1443.01 1814.45,1424.11 
  "/>
<polyline clip-path="url(#clip200)" style="stroke:#000000; stroke-linecap:butt; stroke-linejoin:round; stroke-width:4; stroke-opacity:1; fill:none" points="
  2352.76,1443.01 2352.76,1424.11 
  "/>
<path clip-path="url(#clip200)" d="M199.548 1473.93 Q195.937 1473.93 194.108 1477.5 Q192.302 1481.04 192.302 1488.17 Q192.302 1495.27 194.108 1498.84 Q195.937 1502.38 199.548 1502.38 Q203.182 1502.38 204.987 1498.84 Q206.816 1495.27 206.816 1488.17 Q206.816 1481.04 204.987 1477.5 Q203.182 1473.93 199.548 1473.93 M199.548 1470.23 Q205.358 1470.23 208.413 1474.83 Q211.492 1479.42 211.492 1488.17 Q211.492 1496.89 208.413 1501.5 Q205.358 1506.08 199.548 1506.08 Q193.738 1506.08 190.659 1501.5 Q187.603 1496.89 187.603 1488.17 Q187.603 1479.42 190.659 1474.83 Q193.738 1470.23 199.548 1470.23 Z" fill="#000000" fill-rule="evenodd" fill-opacity="1" /><path clip-path="url(#clip200)" d="M728.232 1501.48 L735.871 1501.48 L735.871 1475.11 L727.56 1476.78 L727.56 1472.52 L735.824 1470.85 L740.5 1470.85 L740.5 1501.48 L748.139 1501.48 L748.139 1505.41 L728.232 1505.41 L728.232 1501.48 Z" fill="#000000" fill-rule="evenodd" fill-opacity="1" /><path clip-path="url(#clip200)" d="M1270.8 1501.48 L1287.12 1501.48 L1287.12 1505.41 L1265.18 1505.41 L1265.18 1501.48 Q1267.84 1498.72 1272.42 1494.09 Q1277.03 1489.44 1278.21 1488.1 Q1280.46 1485.57 1281.34 1483.84 Q1282.24 1482.08 1282.24 1480.39 Q1282.24 1477.63 1280.3 1475.9 Q1278.37 1474.16 1275.27 1474.16 Q1273.07 1474.16 1270.62 1474.93 Q1268.19 1475.69 1265.41 1477.24 L1265.41 1472.52 Q1268.24 1471.38 1270.69 1470.81 Q1273.14 1470.23 1275.18 1470.23 Q1280.55 1470.23 1283.74 1472.91 Q1286.94 1475.6 1286.94 1480.09 Q1286.94 1482.22 1286.13 1484.14 Q1285.34 1486.04 1283.24 1488.63 Q1282.66 1489.3 1279.55 1492.52 Q1276.45 1495.71 1270.8 1501.48 Z" fill="#000000" fill-rule="evenodd" fill-opacity="1" /><path clip-path="url(#clip200)" d="M1818.7 1486.78 Q1822.06 1487.5 1823.93 1489.76 Q1825.83 1492.03 1825.83 1495.37 Q1825.83 1500.48 1822.31 1503.28 Q1818.79 1506.08 1812.31 1506.08 Q1810.14 1506.08 1807.82 1505.64 Q1805.53 1505.23 1803.08 1504.37 L1803.08 1499.86 Q1805.02 1500.99 1807.34 1501.57 Q1809.65 1502.15 1812.17 1502.15 Q1816.57 1502.15 1818.86 1500.41 Q1821.18 1498.68 1821.18 1495.37 Q1821.18 1492.31 1819.03 1490.6 Q1816.9 1488.86 1813.08 1488.86 L1809.05 1488.86 L1809.05 1485.02 L1813.26 1485.02 Q1816.71 1485.02 1818.54 1483.65 Q1820.37 1482.26 1820.37 1479.67 Q1820.37 1477.01 1818.47 1475.6 Q1816.6 1474.16 1813.08 1474.16 Q1811.16 1474.16 1808.96 1474.58 Q1806.76 1475 1804.12 1475.88 L1804.12 1471.71 Q1806.78 1470.97 1809.1 1470.6 Q1811.43 1470.23 1813.49 1470.23 Q1818.82 1470.23 1821.92 1472.66 Q1825.02 1475.07 1825.02 1479.19 Q1825.02 1482.06 1823.38 1484.05 Q1821.73 1486.01 1818.7 1486.78 Z" fill="#000000" fill-rule="evenodd" fill-opacity="1" /><path clip-path="url(#clip200)" d="M2355.77 1474.93 L2343.96 1493.38 L2355.77 1493.38 L2355.77 1474.93 M2354.54 1470.85 L2360.42 1470.85 L2360.42 1493.38 L2365.35 1493.38 L2365.35 1497.26 L2360.42 1497.26 L2360.42 1505.41 L2355.77 1505.41 L2355.77 1497.26 L2340.16 1497.26 L2340.16 1492.75 L2354.54 1470.85 Z" fill="#000000" fill-rule="evenodd" fill-opacity="1" /><path clip-path="url(#clip200)" d="M1288.77 1527.14 L1279.66 1563.82 Q1279.4 1564.98 1279.4 1565.27 Q1279.4 1565.65 1279.5 1565.82 Q1279.63 1566.01 1280.33 1566.17 Q1281.07 1566.33 1282.56 1566.33 Q1283.1 1566.33 1283.3 1566.33 Q1283.49 1566.33 1283.78 1566.4 Q1284.07 1566.46 1284.17 1566.62 Q1284.26 1566.78 1284.26 1567.04 Q1284.26 1568.36 1283.1 1568.36 Q1282.01 1568.36 1279.72 1568.26 Q1277.44 1568.17 1276.31 1568.17 Q1275.21 1568.17 1272.99 1568.26 Q1270.77 1568.36 1269.71 1568.36 Q1269.32 1568.36 1269.09 1568.17 Q1268.87 1568.01 1268.87 1567.81 L1268.84 1567.65 Q1268.84 1566.75 1269.19 1566.52 Q1269.54 1566.33 1270.35 1566.33 Q1273.12 1566.3 1273.92 1565.91 Q1274.73 1565.53 1275.12 1564.14 L1278.08 1552.35 Q1274.12 1556.31 1270.29 1556.31 Q1266.58 1556.31 1264.07 1553.42 Q1261.59 1550.49 1261.59 1545.75 Q1261.59 1542.24 1262.97 1538.7 Q1264.39 1535.16 1266.58 1532.48 Q1268.8 1529.81 1271.7 1528.13 Q1274.6 1526.43 1277.47 1526.43 Q1279.3 1526.43 1280.95 1527.49 Q1282.62 1528.55 1283.62 1531.03 Q1284.46 1529.62 1286 1528.07 Q1287.55 1526.49 1288.1 1526.49 Q1288.42 1526.49 1288.58 1526.72 Q1288.77 1526.91 1288.77 1527.14 M1282.68 1533.67 Q1282.68 1533.35 1282.43 1532.55 Q1282.2 1531.74 1281.69 1530.65 Q1281.2 1529.52 1280.08 1528.71 Q1278.95 1527.88 1277.47 1527.88 Q1275.34 1527.88 1273.06 1529.94 Q1270.8 1531.97 1269.32 1535.51 Q1268.39 1537.83 1267.32 1542.14 Q1266.26 1546.46 1266.26 1548.65 Q1266.26 1549.17 1266.29 1549.74 Q1266.36 1550.32 1266.61 1551.29 Q1266.87 1552.26 1267.26 1553 Q1267.68 1553.74 1268.51 1554.29 Q1269.35 1554.83 1270.48 1554.83 Q1272.93 1554.83 1275.37 1552.74 Q1277.82 1550.65 1278.85 1548.78 Q1278.98 1548.59 1280.82 1541.27 Q1282.68 1533.96 1282.68 1533.67 Z" fill="#000000" fill-rule="evenodd" fill-opacity="1" /><polyline clip-path="url(#clip203)" style="stroke:#000000; stroke-linecap:butt; stroke-linejoin:round; stroke-width:2; stroke-opacity:0.1; fill:none" points="
  199.548,1443.01 2352.76,1443.01 
  "/>
<polyline clip-path="url(#clip203)" style="stroke:#000000; stroke-linecap:butt; stroke-linejoin:round; stroke-width:2; stroke-opacity:0.1; fill:none" points="
  199.548,1163.86 2352.76,1163.86 
  "/>
<polyline clip-path="url(#clip203)" style="stroke:#000000; stroke-linecap:butt; stroke-linejoin:round; stroke-width:2; stroke-opacity:0.1; fill:none" points="
  199.548,884.705 2352.76,884.705 
  "/>
<polyline clip-path="url(#clip203)" style="stroke:#000000; stroke-linecap:butt; stroke-linejoin:round; stroke-width:2; stroke-opacity:0.1; fill:none" points="
  199.548,605.551 2352.76,605.551 
  "/>
<polyline clip-path="url(#clip203)" style="stroke:#000000; stroke-linecap:butt; stroke-linejoin:round; stroke-width:2; stroke-opacity:0.1; fill:none" points="
  199.548,326.398 2352.76,326.398 
  "/>
<polyline clip-path="url(#clip203)" style="stroke:#000000; stroke-linecap:butt; stroke-linejoin:round; stroke-width:2; stroke-opacity:0.1; fill:none" points="
  199.548,47.2441 2352.76,47.2441 
  "/>
<polyline clip-path="url(#clip200)" style="stroke:#000000; stroke-linecap:butt; stroke-linejoin:round; stroke-width:4; stroke-opacity:1; fill:none" points="
  199.548,1443.01 199.548,47.2441 
  "/>
<polyline clip-path="url(#clip200)" style="stroke:#000000; stroke-linecap:butt; stroke-linejoin:round; stroke-width:4; stroke-opacity:1; fill:none" points="
  199.548,1443.01 218.445,1443.01 
  "/>
<polyline clip-path="url(#clip200)" style="stroke:#000000; stroke-linecap:butt; stroke-linejoin:round; stroke-width:4; stroke-opacity:1; fill:none" points="
  199.548,1163.86 218.445,1163.86 
  "/>
<polyline clip-path="url(#clip200)" style="stroke:#000000; stroke-linecap:butt; stroke-linejoin:round; stroke-width:4; stroke-opacity:1; fill:none" points="
  199.548,884.705 218.445,884.705 
  "/>
<polyline clip-path="url(#clip200)" style="stroke:#000000; stroke-linecap:butt; stroke-linejoin:round; stroke-width:4; stroke-opacity:1; fill:none" points="
  199.548,605.551 218.445,605.551 
  "/>
<polyline clip-path="url(#clip200)" style="stroke:#000000; stroke-linecap:butt; stroke-linejoin:round; stroke-width:4; stroke-opacity:1; fill:none" points="
  199.548,326.398 218.445,326.398 
  "/>
<polyline clip-path="url(#clip200)" style="stroke:#000000; stroke-linecap:butt; stroke-linejoin:round; stroke-width:4; stroke-opacity:1; fill:none" points="
  199.548,47.2441 218.445,47.2441 
  "/>
<path clip-path="url(#clip200)" d="M106.372 1428.81 Q102.761 1428.81 100.932 1432.38 Q99.1267 1435.92 99.1267 1443.05 Q99.1267 1450.15 100.932 1453.72 Q102.761 1457.26 106.372 1457.26 Q110.006 1457.26 111.812 1453.72 Q113.641 1450.15 113.641 1443.05 Q113.641 1435.92 111.812 1432.38 Q110.006 1428.81 106.372 1428.81 M106.372 1425.11 Q112.182 1425.11 115.238 1429.71 Q118.316 1434.3 118.316 1443.05 Q118.316 1451.77 115.238 1456.38 Q112.182 1460.96 106.372 1460.96 Q100.562 1460.96 97.4832 1456.38 Q94.4277 1451.77 94.4277 1443.05 Q94.4277 1434.3 97.4832 1429.71 Q100.562 1425.11 106.372 1425.11 Z" fill="#000000" fill-rule="evenodd" fill-opacity="1" /><path clip-path="url(#clip200)" d="M126.534 1454.41 L131.418 1454.41 L131.418 1460.29 L126.534 1460.29 L126.534 1454.41 Z" fill="#000000" fill-rule="evenodd" fill-opacity="1" /><path clip-path="url(#clip200)" d="M151.603 1428.81 Q147.992 1428.81 146.163 1432.38 Q144.358 1435.92 144.358 1443.05 Q144.358 1450.15 146.163 1453.72 Q147.992 1457.26 151.603 1457.26 Q155.238 1457.26 157.043 1453.72 Q158.872 1450.15 158.872 1443.05 Q158.872 1435.92 157.043 1432.38 Q155.238 1428.81 151.603 1428.81 M151.603 1425.11 Q157.413 1425.11 160.469 1429.71 Q163.548 1434.3 163.548 1443.05 Q163.548 1451.77 160.469 1456.38 Q157.413 1460.96 151.603 1460.96 Q145.793 1460.96 142.714 1456.38 Q139.659 1451.77 139.659 1443.05 Q139.659 1434.3 142.714 1429.71 Q145.793 1425.11 151.603 1425.11 Z" fill="#000000" fill-rule="evenodd" fill-opacity="1" /><path clip-path="url(#clip200)" d="M107.367 1149.66 Q103.756 1149.66 101.928 1153.22 Q100.122 1156.76 100.122 1163.89 Q100.122 1171 101.928 1174.56 Q103.756 1178.11 107.367 1178.11 Q111.002 1178.11 112.807 1174.56 Q114.636 1171 114.636 1163.89 Q114.636 1156.76 112.807 1153.22 Q111.002 1149.66 107.367 1149.66 M107.367 1145.95 Q113.178 1145.95 116.233 1150.56 Q119.312 1155.14 119.312 1163.89 Q119.312 1172.62 116.233 1177.23 Q113.178 1181.81 107.367 1181.81 Q101.557 1181.81 98.4786 1177.23 Q95.423 1172.62 95.423 1163.89 Q95.423 1155.14 98.4786 1150.56 Q101.557 1145.95 107.367 1145.95 Z" fill="#000000" fill-rule="evenodd" fill-opacity="1" /><path clip-path="url(#clip200)" d="M127.529 1175.26 L132.414 1175.26 L132.414 1181.14 L127.529 1181.14 L127.529 1175.26 Z" fill="#000000" fill-rule="evenodd" fill-opacity="1" /><path clip-path="url(#clip200)" d="M142.645 1146.58 L161.001 1146.58 L161.001 1150.51 L146.927 1150.51 L146.927 1158.99 Q147.946 1158.64 148.964 1158.48 Q149.983 1158.29 151.001 1158.29 Q156.788 1158.29 160.168 1161.46 Q163.548 1164.63 163.548 1170.05 Q163.548 1175.63 160.075 1178.73 Q156.603 1181.81 150.284 1181.81 Q148.108 1181.81 145.839 1181.44 Q143.594 1181.07 141.187 1180.33 L141.187 1175.63 Q143.27 1176.76 145.492 1177.32 Q147.714 1177.87 150.191 1177.87 Q154.196 1177.87 156.534 1175.77 Q158.872 1173.66 158.872 1170.05 Q158.872 1166.44 156.534 1164.33 Q154.196 1162.23 150.191 1162.23 Q148.316 1162.23 146.441 1162.64 Q144.589 1163.06 142.645 1163.94 L142.645 1146.58 Z" fill="#000000" fill-rule="evenodd" fill-opacity="1" /><path clip-path="url(#clip200)" d="M97.1823 898.05 L104.821 898.05 L104.821 871.684 L96.511 873.351 L96.511 869.092 L104.775 867.425 L109.451 867.425 L109.451 898.05 L117.09 898.05 L117.09 901.985 L97.1823 901.985 L97.1823 898.05 Z" fill="#000000" fill-rule="evenodd" fill-opacity="1" /><path clip-path="url(#clip200)" d="M126.534 896.105 L131.418 896.105 L131.418 901.985 L126.534 901.985 L126.534 896.105 Z" fill="#000000" fill-rule="evenodd" fill-opacity="1" /><path clip-path="url(#clip200)" d="M151.603 870.504 Q147.992 870.504 146.163 874.069 Q144.358 877.61 144.358 884.74 Q144.358 891.846 146.163 895.411 Q147.992 898.953 151.603 898.953 Q155.238 898.953 157.043 895.411 Q158.872 891.846 158.872 884.74 Q158.872 877.61 157.043 874.069 Q155.238 870.504 151.603 870.504 M151.603 866.8 Q157.413 866.8 160.469 871.407 Q163.548 875.99 163.548 884.74 Q163.548 893.467 160.469 898.073 Q157.413 902.656 151.603 902.656 Q145.793 902.656 142.714 898.073 Q139.659 893.467 139.659 884.74 Q139.659 875.99 142.714 871.407 Q145.793 866.8 151.603 866.8 Z" fill="#000000" fill-rule="evenodd" fill-opacity="1" /><path clip-path="url(#clip200)" d="M98.1776 618.896 L105.816 618.896 L105.816 592.531 L97.5063 594.197 L97.5063 589.938 L105.77 588.271 L110.446 588.271 L110.446 618.896 L118.085 618.896 L118.085 622.831 L98.1776 622.831 L98.1776 618.896 Z" fill="#000000" fill-rule="evenodd" fill-opacity="1" /><path clip-path="url(#clip200)" d="M127.529 616.952 L132.414 616.952 L132.414 622.831 L127.529 622.831 L127.529 616.952 Z" fill="#000000" fill-rule="evenodd" fill-opacity="1" /><path clip-path="url(#clip200)" d="M142.645 588.271 L161.001 588.271 L161.001 592.207 L146.927 592.207 L146.927 600.679 Q147.946 600.332 148.964 600.169 Q149.983 599.984 151.001 599.984 Q156.788 599.984 160.168 603.156 Q163.548 606.327 163.548 611.743 Q163.548 617.322 160.075 620.424 Q156.603 623.503 150.284 623.503 Q148.108 623.503 145.839 623.132 Q143.594 622.762 141.187 622.021 L141.187 617.322 Q143.27 618.456 145.492 619.012 Q147.714 619.568 150.191 619.568 Q154.196 619.568 156.534 617.461 Q158.872 615.355 158.872 611.743 Q158.872 608.132 156.534 606.026 Q154.196 603.919 150.191 603.919 Q148.316 603.919 146.441 604.336 Q144.589 604.753 142.645 605.632 L142.645 588.271 Z" fill="#000000" fill-rule="evenodd" fill-opacity="1" /><path clip-path="url(#clip200)" d="M100.4 339.743 L116.719 339.743 L116.719 343.678 L94.7749 343.678 L94.7749 339.743 Q97.4369 336.988 102.02 332.358 Q106.627 327.706 107.807 326.363 Q110.053 323.84 110.932 322.104 Q111.835 320.345 111.835 318.655 Q111.835 315.9 109.891 314.164 Q107.969 312.428 104.867 312.428 Q102.668 312.428 100.215 313.192 Q97.7841 313.956 95.0064 315.507 L95.0064 310.784 Q97.8304 309.65 100.284 309.071 Q102.738 308.493 104.775 308.493 Q110.145 308.493 113.34 311.178 Q116.534 313.863 116.534 318.354 Q116.534 320.483 115.724 322.405 Q114.937 324.303 112.83 326.895 Q112.252 327.567 109.15 330.784 Q106.048 333.979 100.4 339.743 Z" fill="#000000" fill-rule="evenodd" fill-opacity="1" /><path clip-path="url(#clip200)" d="M126.534 337.798 L131.418 337.798 L131.418 343.678 L126.534 343.678 L126.534 337.798 Z" fill="#000000" fill-rule="evenodd" fill-opacity="1" /><path clip-path="url(#clip200)" d="M151.603 312.196 Q147.992 312.196 146.163 315.761 Q144.358 319.303 144.358 326.432 Q144.358 333.539 146.163 337.104 Q147.992 340.645 151.603 340.645 Q155.238 340.645 157.043 337.104 Q158.872 333.539 158.872 326.432 Q158.872 319.303 157.043 315.761 Q155.238 312.196 151.603 312.196 M151.603 308.493 Q157.413 308.493 160.469 313.099 Q163.548 317.683 163.548 326.432 Q163.548 335.159 160.469 339.766 Q157.413 344.349 151.603 344.349 Q145.793 344.349 142.714 339.766 Q139.659 335.159 139.659 326.432 Q139.659 317.683 142.714 313.099 Q145.793 308.493 151.603 308.493 Z" fill="#000000" fill-rule="evenodd" fill-opacity="1" /><path clip-path="url(#clip200)" d="M101.395 60.5889 L117.715 60.5889 L117.715 64.5241 L95.7702 64.5241 L95.7702 60.5889 Q98.4323 57.8343 103.016 53.2047 Q107.622 48.552 108.803 47.2094 Q111.048 44.6862 111.928 42.9501 Q112.83 41.1909 112.83 39.5011 Q112.83 36.7465 110.886 35.0104 Q108.965 33.2743 105.863 33.2743 Q103.664 33.2743 101.21 34.0381 Q98.7795 34.802 96.0017 36.3529 L96.0017 31.6308 Q98.8258 30.4965 101.279 29.9178 Q103.733 29.3391 105.77 29.3391 Q111.141 29.3391 114.335 32.0243 Q117.529 34.7094 117.529 39.2002 Q117.529 41.3298 116.719 43.2511 Q115.932 45.1492 113.826 47.7418 Q113.247 48.4131 110.145 51.6306 Q107.043 54.8251 101.395 60.5889 Z" fill="#000000" fill-rule="evenodd" fill-opacity="1" /><path clip-path="url(#clip200)" d="M127.529 58.6445 L132.414 58.6445 L132.414 64.5241 L127.529 64.5241 L127.529 58.6445 Z" fill="#000000" fill-rule="evenodd" fill-opacity="1" /><path clip-path="url(#clip200)" d="M142.645 29.9641 L161.001 29.9641 L161.001 33.8993 L146.927 33.8993 L146.927 42.3714 Q147.946 42.0242 148.964 41.8622 Q149.983 41.677 151.001 41.677 Q156.788 41.677 160.168 44.8483 Q163.548 48.0196 163.548 53.4362 Q163.548 59.0149 160.075 62.1167 Q156.603 65.1954 150.284 65.1954 Q148.108 65.1954 145.839 64.825 Q143.594 64.4547 141.187 63.7139 L141.187 59.0149 Q143.27 60.1491 145.492 60.7047 Q147.714 61.2602 150.191 61.2602 Q154.196 61.2602 156.534 59.1538 Q158.872 57.0473 158.872 53.4362 Q158.872 49.8251 156.534 47.7186 Q154.196 45.6122 150.191 45.6122 Q148.316 45.6122 146.441 46.0288 Q144.589 46.4455 142.645 47.3251 L142.645 29.9641 Z" fill="#000000" fill-rule="evenodd" fill-opacity="1" /><path clip-path="url(#clip200)" d="M31.3095 727.096 Q36.0116 727.096 40.5526 729.479 Q45.0937 731.83 47.8956 735.534 Q50.6653 739.237 50.6653 743.005 Q50.6653 745.26 49.4414 746.773 Q48.1854 748.255 46.4141 749.06 Q48.6041 749.672 53.8536 750.992 Q59.1032 752.313 59.6185 752.313 Q59.9083 752.313 60.0372 752.248 Q60.166 752.184 60.327 751.894 Q60.5203 751.604 60.5847 750.896 Q60.6813 750.187 60.6813 748.996 Q60.6813 748.384 60.6813 748.158 Q60.7135 747.901 60.8745 747.675 Q61.0356 747.418 61.3898 747.418 Q62.7103 747.418 62.7103 748.609 Q62.7103 749.672 62.6136 751.862 Q62.517 754.052 62.517 755.147 Q62.517 756.081 62.6136 757.949 Q62.7103 759.817 62.7103 760.686 Q62.7103 761.556 61.9373 761.556 Q61.4864 761.556 61.1966 761.427 Q60.9389 761.331 60.8101 761.073 Q60.7135 760.815 60.6813 760.59 Q60.6813 760.397 60.6813 760.01 Q60.6813 758.529 60.4236 757.884 Q60.1982 757.24 59.7151 757.015 Q59.2642 756.757 57.976 756.467 L28.6043 749.06 Q26.6397 748.609 25.2548 748.609 Q23.5157 748.609 22.8716 749.157 Q22.2275 749.704 22.2275 750.67 Q22.2275 752.345 24.2243 753.44 Q26.221 754.535 30.0857 755.469 Q31.1485 755.759 31.374 755.952 Q31.5994 756.113 31.5994 756.596 Q31.5672 757.401 30.9231 757.401 Q30.762 757.401 29.7315 757.144 Q28.6687 756.886 27.1228 756.403 Q25.5447 755.888 24.5463 755.34 Q23.87 755.018 23.4191 754.728 Q22.9682 754.438 22.2597 753.859 Q21.5512 753.247 21.1647 752.377 Q20.7782 751.508 20.7782 750.445 Q20.7782 748.384 22.0021 746.677 Q23.2259 744.97 25.7057 744.519 Q23.5479 742.683 22.1631 740.429 Q20.7782 738.174 20.7782 735.888 Q20.7782 732.088 23.7412 729.608 Q26.6719 727.096 31.3095 727.096 M28.411 731.862 Q25.4803 731.862 23.87 732.989 Q22.2275 734.084 22.2275 736.081 Q22.2275 738.561 24.7395 741.427 Q27.1228 744.261 29.345 744.841 L42.2595 748.094 L43.3223 748.287 Q43.5156 748.287 44.0953 748.191 Q44.6428 748.062 45.5445 747.707 Q46.4463 747.321 47.2514 746.806 Q48.0244 746.258 48.6041 745.292 Q49.1838 744.294 49.1838 743.07 Q49.1838 741.105 47.4447 738.98 Q45.7056 736.822 42.4206 735.212 Q40.295 734.213 35.7217 733.054 Q31.1163 731.862 28.411 731.862 Z" fill="#000000" fill-rule="evenodd" fill-opacity="1" /><polyline clip-path="url(#clip203)" style="stroke:#009af9; stroke-linecap:butt; stroke-linejoin:round; stroke-width:8; stroke-opacity:1; fill:none" points="
  1410.73,605.551 1419.8,608.795 1428.83,612.235 1437.81,615.87 1446.74,619.694 1455.59,623.703 1464.37,627.894 1473.06,632.26 1481.66,636.798 1490.15,641.502 
  1498.54,646.365 1506.8,651.383 1514.94,656.549 1522.94,661.857 1530.8,667.301 1538.51,672.874 1546.05,678.57 1553.43,684.382 1560.64,690.303 1567.66,696.326 
  1574.5,702.444 1581.14,708.65 1587.58,714.936 1593.81,721.298 1599.83,727.726 1605.64,734.213 1611.21,740.753 1616.57,747.338 1621.68,753.962 1626.57,760.618 
  1631.21,767.299 1635.61,773.999 1639.76,780.711 1643.66,787.43 1647.31,794.149 1650.71,800.863 1653.86,807.565 1656.75,814.251 1659.38,820.914 1661.75,827.549 
  1663.87,834.152 1665.74,840.718 1667.34,847.241 1668.69,853.718 1669.79,860.144 1670.63,866.517 1671.23,872.831 1671.58,879.083 1671.68,885.27 1671.53,891.389 
  1671.15,897.437 1670.53,903.411 1669.67,909.309 1668.59,915.128 1667.27,920.865 1665.73,926.519 1663.98,932.089 1662,937.572 1659.82,942.967 1657.42,948.273 
  1654.83,953.488 1652.04,958.613 1649.06,963.645 1645.89,968.584 1642.53,973.429 1639,978.181 1635.29,982.838 1631.42,987.4 1627.39,991.867 1623.19,996.24 
  1618.85,1000.52 1614.36,1004.7 1609.72,1008.79 1604.95,1012.78 1600.04,1016.68 1595.01,1020.49 1589.85,1024.2 1584.58,1027.82 1579.19,1031.34 1573.7,1034.78 
  1568.1,1038.12 1562.41,1041.37 1556.62,1044.53 1550.74,1047.6 1544.78,1050.59 1538.74,1053.48 1532.62,1056.29 1526.44,1059.02 1520.18,1061.65 1513.87,1064.21 
  1507.49,1066.68 1501.07,1069.06 1494.59,1071.37 1488.06,1073.59 1481.5,1075.74 1474.89,1077.8 1468.25,1079.79 1461.58,1081.69 1454.88,1083.52 1448.15,1085.28 
  1441.41,1086.96 1434.65,1088.56 1427.87,1090.09 1421.08,1091.55 1414.28,1092.94 1407.47,1094.25 1400.67,1095.49 1393.86,1096.66 1387.05,1097.77 1380.25,1098.8 
  1373.46,1099.76 1366.67,1100.66 1359.9,1101.49 1353.15,1102.26 1346.41,1102.96 1339.68,1103.59 1332.98,1104.16 1326.31,1104.67 1319.65,1105.11 1313.03,1105.49 
  1306.43,1105.8 1299.86,1106.06 1293.33,1106.25 1286.83,1106.38 1280.36,1106.45 1273.93,1106.46 1267.54,1106.41 1261.19,1106.3 1254.89,1106.13 1248.62,1105.9 
  1242.4,1105.61 1236.23,1105.26 1230.1,1104.86 1224.02,1104.4 1217.99,1103.87 1212.01,1103.3 1206.09,1102.66 1200.22,1101.97 1194.4,1101.21 1188.63,1100.41 
  1182.92,1099.54 1177.27,1098.62 1171.68,1097.64 1166.14,1096.61 1160.67,1095.52 1155.25,1094.37 1149.9,1093.17 1144.6,1091.91 1139.37,1090.59 1134.2,1089.22 
  1129.09,1087.79 1124.05,1086.3 1119.07,1084.76 1114.15,1083.16 1109.3,1081.51 1104.52,1079.8 1099.81,1078.03 1095.16,1076.21 1090.58,1074.33 1086.07,1072.4 
  1081.63,1070.4 1077.26,1068.36 1072.96,1066.25 1068.73,1064.08 1064.57,1061.86 1060.49,1059.59 1056.47,1057.25 1052.53,1054.86 1048.67,1052.41 1044.87,1049.9 
  1041.15,1047.33 1037.51,1044.71 1033.94,1042.03 1030.45,1039.29 1027.03,1036.49 1023.69,1033.64 1020.43,1030.73 1017.25,1027.76 1014.14,1024.73 1011.11,1021.64 
  1008.16,1018.5 1005.3,1015.3 1002.51,1012.04 999.799,1008.72 997.172,1005.34 994.626,1001.91 992.162,998.414 989.78,994.864 987.48,991.255 985.264,987.59 
  983.132,983.869 981.085,980.092 979.122,976.258 977.246,972.368 975.455,968.421 973.752,964.418 972.136,960.358 970.608,956.242 969.169,952.07 967.82,947.842 
  966.561,943.559 965.393,939.221 964.316,934.828 963.332,930.382 962.44,925.882 961.643,921.331 960.94,916.727 960.333,912.072 959.822,907.367 959.407,902.614 
  959.091,897.812 958.873,892.963 958.755,888.068 958.737,883.129 958.821,878.146 959.007,873.121 959.295,868.055 959.688,862.951 960.186,857.809 960.789,852.63 
  961.5,847.417 962.318,842.172 963.245,836.896 964.282,831.591 965.43,826.258 966.69,820.901 968.063,815.52 969.55,810.119 971.152,804.698 972.87,799.262 
  974.706,793.811 976.66,788.348 978.733,782.875 980.927,777.396 983.24,771.911 985.675,766.423 988.232,760.938 990.914,755.457 993.721,749.986 996.657,744.528 
  999.721,739.086 1002.91,733.665 1006.24,728.269 1009.7,722.901 1013.29,717.565 1017.02,712.267 1020.88,707.009 1024.87,701.796 1029.01,696.632 1033.28,691.521 
  1037.69,686.469 1042.23,681.478 1046.92,676.554 1051.74,671.7 1056.7,666.922 1061.81,662.224 1067.04,657.61 1072.42,653.086 1077.94,648.655 1083.59,644.322 
  1089.39,640.093 1095.32,635.971 1101.38,631.963 1107.58,628.072 1113.92,624.303 1120.39,620.662 1126.99,617.154 1133.73,613.784 1140.59,610.556 1147.59,607.476 
  1154.72,604.549 1161.97,601.78 1169.35,599.175 1176.85,596.739 1184.47,594.477 1192.22,592.396 1200.1,590.51 1208.11,588.824 1216.24,587.341 1224.5,586.062 
  1232.86,584.986 1241.32,584.115 1249.87,583.45 1258.51,582.991 1267.23,582.738 1276.02,582.691 1284.87,582.85 1293.78,583.215 1302.73,583.785 1311.73,584.561 
  1320.76,585.54 1329.81,586.723 1338.88,588.108 1347.97,589.693 1357.06,591.479 1366.14,593.462 1375.22,595.641 1384.27,598.015 1393.31,600.581 1402.31,603.338 
  1411.27,606.282 1420.19,609.411 1429.06,612.723 1437.87,616.214 1446.61,619.882 1455.28,623.724 1463.87,627.735 1472.37,631.913 1480.78,636.254 1489.09,640.755 
  1497.3,645.41 1505.39,650.216 1513.37,655.169 1521.22,660.264 1528.94,665.496 1536.52,670.861 1543.95,676.353 1551.24,681.968 1558.37,687.7 1565.33,693.544 
  1572.13,699.494 1578.75,705.544 1585.18,711.689 1591.43,717.922 1597.49,724.237 1603.35,730.627 1609,737.086 1614.44,743.607 1619.66,750.184 1624.66,756.808 
  1629.44,763.473 1633.97,770.172 1638.27,776.895 1642.32,783.63 1646.12,790.371 1649.68,797.111 1652.98,803.844 1656.03,810.565 1658.83,817.267 1661.37,823.945 
  1663.66,830.594 1665.69,837.208 1667.47,843.783 1668.99,850.315 1670.25,856.798 1671.26,863.228 1672.02,869.601 1672.52,875.914 1672.77,882.162 1672.78,888.343 
  1672.54,894.453 1672.05,900.489 1671.32,906.448 1670.35,912.328 1669.15,918.126 1667.72,923.84 1666.06,929.467 1664.17,935.008 1662.07,940.458 1659.75,945.818 
  1657.22,951.086 1654.49,956.262 1651.56,961.343 1648.44,966.331 1645.13,971.224 1641.64,976.022 1637.97,980.726 1634.14,985.335 1630.16,989.851 1626.01,994.274 
  1621.73,998.604 1617.3,1002.84 1612.72,1006.98 1608,1011.02 1603.14,1014.97 1598.16,1018.82 1593.04,1022.58 1587.81,1026.25 1582.47,1029.82 1577.01,1033.31 
  1571.45,1036.7 1565.79,1040 1560.03,1043.21 1554.18,1046.33 1548.25,1049.36 1542.23,1052.3 1536.14,1055.16 1529.97,1057.93 1523.74,1060.62 1517.44,1063.22 
  1511.09,1065.73 1504.67,1068.16 1498.21,1070.51 1491.7,1072.78 1485.14,1074.96 1478.54,1077.07 1471.91,1079.1 1465.24,1081.04 1458.55,1082.91 1451.82,1084.7 
  1445.08,1086.42 1438.31,1088.06 1431.53,1089.62 1424.74,1091.11 1417.93,1092.53 1411.12,1093.88 1404.3,1095.15 1397.48,1096.36 1390.67,1097.49 1383.85,1098.56 
  1377.04,1099.56 1370.25,1100.49 1363.46,1101.36 1356.68,1102.16 1349.92,1102.89 1343.17,1103.56 1336.45,1104.16 1329.74,1104.7 1323.06,1105.18 1316.4,1105.59 
  1309.77,1105.94 1303.17,1106.22 1296.6,1106.45 1290.07,1106.61 1283.56,1106.71 1277.1,1106.75 1270.67,1106.73 1264.28,1106.65 1257.94,1106.51 1251.63,1106.32 
  1245.37,1106.06 1239.16,1105.74 1232.99,1105.36 1226.87,1104.93 1220.81,1104.44 1214.79,1103.89 1208.82,1103.28 1202.91,1102.61 1197.06,1101.89 1191.26,1101.11 
  1185.51,1100.28 1179.83,1099.38 1174.2,1098.43 1168.63,1097.43 1163.12,1096.36 1157.68,1095.24 1152.29,1094.07 1146.97,1092.84 1141.71,1091.55 1136.52,1090.2 
  1131.38,1088.8 1126.32,1087.35 1121.32,1085.84 1116.38,1084.27 1111.52,1082.64 1106.71,1080.96 1101.98,1079.23 1097.31,1077.43 1092.71,1075.58 1088.18,1073.68 
  1083.71,1071.71 1079.31,1069.69 1074.98,1067.62 1070.71,1065.48 1066.52,1063.29 1062.39,1061.04 1058.33,1058.74 1054.35,1056.38 1050.44,1053.96 1046.6,1051.49 
  1042.84,1048.95 1039.15,1046.37 1035.54,1043.72 1032,1041.01 1028.54,1038.25 1025.16,1035.43 1021.85,1032.55 1018.61,1029.61 1015.46,1026.61 1012.38,1023.56 
  1009.39,1020.44 1006.47,1017.27 1003.63,1014.04 1000.87,1010.75 998.195,1007.4 995.6,1003.99 993.086,1000.52 990.654,996.995 988.306,993.411 986.041,989.769 
  983.86,986.069 981.763,982.311 979.753,978.496 977.827,974.624 975.989,970.695 974.237,966.709 972.573,962.667 970.998,958.569 969.511,954.416 968.114,950.208 
  966.807,945.945 965.591,941.629 964.466,937.258 963.433,932.835 962.493,928.359 961.646,923.832 960.894,919.253 960.236,914.623 959.674,909.943 959.208,905.214 
  958.838,900.437 958.567,895.611 958.392,890.74 958.314,885.824 958.336,880.865 958.458,875.864 958.681,870.822 959.008,865.74 959.439,860.619 959.976,855.461 
  960.62,850.267 961.372,845.04 962.234,839.78 963.206,834.49 964.29,829.171 965.488,823.825 966.799,818.455 968.226,813.062 969.769,807.649 971.43,802.219 
  973.209,796.773 975.108,791.314 977.127,785.845 979.268,780.368 981.531,774.887 983.917,769.404 986.428,763.922 989.064,758.445 991.825,752.974 994.714,747.515 
  997.73,742.07 1000.87,736.643 1004.15,731.236 1007.55,725.855 1011.09,720.502 1014.75,715.181 1018.55,709.897 1022.48,704.653 1026.54,699.453 1030.74,694.302 
  1035.07,689.204 1039.53,684.163 1044.13,679.184 1048.87,674.272 1053.74,669.43 1058.75,664.665 1063.9,659.98 1069.18,655.38 1074.61,650.871 1080.17,646.458 
  1085.87,642.146 1091.7,637.94 1097.68,633.846 1103.8,629.869 1110.05,626.015 1116.45,622.29 1122.98,618.699 1129.66,615.246 1136.49,611.934 1143.46,608.77 
  1150.57,605.758 1157.81,602.905 1165.19,600.214 1172.69,597.692 1180.32,595.341 1188.07,593.167 1195.93,591.174 1203.91,589.365 1211.99,587.745 1220.17,586.315 
  1228.45,585.079 1236.82,584.04 1245.28,583.201 1253.82,582.563 1262.44,582.129 1271.13,581.9 1279.89,581.879 1288.7,582.065 1297.57,582.46 1306.49,583.066 
  1315.46,583.881 1324.46,584.907 1333.49,586.144 1342.54,587.591 1351.62,589.248 1360.71,591.113 1369.8,593.187 1378.89,595.467 1387.98,597.953 1397.05,600.642 
  1406.1,603.532 1415.12,606.621 1424.1,609.906 1433.04,613.385 1441.93,617.055 1450.76,620.913 1459.53,624.953 1468.22,629.174 1476.83,633.571 1485.36,638.14 
  1493.78,642.875 1502.1,647.773 1510.3,652.828 1518.39,658.035 1526.34,663.388 1534.15,668.881 1541.81,674.509 1549.32,680.265 1556.67,686.139 1563.86,692.125 
  1570.86,698.214 1577.69,704.398 1584.32,710.669 1590.76,717.02 1596.98,723.443 1603,729.931 1608.8,736.478 1614.37,743.075 1619.72,749.716 1624.83,756.394 
  1629.7,763.103 1634.33,769.836 1638.7,776.588 1642.83,783.35 1646.71,790.119 1650.33,796.888 1653.69,803.651 1656.79,810.402 1659.62,817.136 1662.2,823.849 
  1664.51,830.534 1666.55,837.187 1668.33,843.803 1669.84,850.377 1671.1,856.904 1672.09,863.381 1672.81,869.802 1673.28,876.165 1673.5,882.464 1673.46,888.695 
  1673.17,894.857 1672.63,900.943 1671.85,906.952 1670.83,912.88 1669.57,918.724 1668.09,924.48 1666.38,930.147 1664.45,935.72 1662.32,941.199 1659.97,946.579 
  1657.43,951.86 1654.69,957.039 1651.76,962.123 1648.64,967.111 1645.33,972.006 1641.85,976.805 1638.18,981.509 1634.34,986.119 1630.34,990.633 1626.18,995.052 
  1621.87,999.376 1617.41,1003.61 1612.8,1007.74 1608.05,1011.78 1603.17,1015.73 1598.16,1019.58 1593.03,1023.34 1587.77,1027 1582.4,1030.57 1576.93,1034.05 
  1571.34,1037.44 1565.66,1040.73 1559.88,1043.94 1554.01,1047.05 1548.06,1050.07 1542.02,1053.01 1535.91,1055.85 1529.72,1058.61 1523.46,1061.28 1517.14,1063.87 
  1510.76,1066.37 1504.32,1068.78 1497.83,1071.11 1491.29,1073.36 1484.71,1075.53 1478.08,1077.62 1471.43,1079.63 1464.73,1081.56 1458.02,1083.41 1451.27,1085.19 
  1444.51,1086.9 1437.73,1088.53 1430.93,1090.09 1424.12,1091.57 1417.3,1092.99 1410.47,1094.33 1403.64,1095.6 1396.81,1096.8 1389.97,1097.93 1383.14,1098.99 
  1376.31,1099.98 1369.49,1100.91 1362.68,1101.77 1355.89,1102.56 1349.11,1103.28 1342.35,1103.94 1335.61,1104.53 1328.89,1105.06 1322.2,1105.53 1315.53,1105.93 
  1308.89,1106.27 1302.29,1106.55 1295.71,1106.77 1289.17,1106.92 1282.67,1107.01 1276.2,1107.04 1269.78,1107.02 1263.39,1106.93 1257.05,1106.78 1250.75,1106.57 
  1244.5,1106.31 1238.3,1105.99 1232.14,1105.6 1226.04,1105.16 1219.98,1104.66 1213.98,1104.11 1208.03,1103.49 1202.14,1102.82 1196.3,1102.1 1190.51,1101.31 
  1184.78,1100.47 1179.11,1099.57 1173.5,1098.62 1167.95,1097.61 1162.45,1096.54 1157.02,1095.41 1151.64,1094.23 1146.33,1093 1141.07,1091.7 1135.88,1090.35 
  1130.75,1088.95 1125.68,1087.49 1120.67,1085.97 1115.73,1084.39 1110.84,1082.76 1106.02,1081.07 1101.27,1079.32 1096.58,1077.52 1091.97,1075.67 1087.42,1073.76 
  1082.94,1071.79 1078.53,1069.76 1074.19,1067.68 1069.92,1065.54 1065.72,1063.35 1061.59,1061.09 1057.54,1058.78 1053.55,1056.41 1049.64,1053.98 1045.81,1051.5 
  1042.05,1048.95 1038.36,1046.35 1034.75,1043.69 1031.22,1040.97 1027.76,1038.2 1024.37,1035.36 1021.07,1032.47 1017.84,1029.52 1014.69,1026.5 1011.62,1023.44 
  1008.63,1020.31 1005.72,1017.12 1002.89,1013.88 1000.14,1010.57 997.468,1007.21 994.881,1003.79 992.376,1000.32 989.954,996.78 987.615,993.187 985.36,989.536 
  983.189,985.828 981.103,982.062 979.103,978.239 977.188,974.36 975.36,970.423 973.619,966.43 971.965,962.381 970.399,958.276 968.921,954.115 967.533,949.899 
  966.233,945.628 965.024,941.301 963.905,936.921 962.877,932.488 961.94,928.005 961.096,923.473 960.345,918.89 959.688,914.259 959.128,909.578 958.663,904.848 
  958.296,900.071 958.028,895.246 957.859,890.375 957.791,885.458 957.825,880.496 957.961,875.491 958.201,870.444 958.545,865.355 958.995,860.227 959.551,855.06 
  960.215,849.857 960.988,844.618 961.87,839.346 962.863,834.042 963.967,828.709 965.184,823.349 966.514,817.962 967.959,812.553 969.519,807.122 971.195,801.674 
  972.989,796.209 974.901,790.73 976.932,785.241 979.083,779.744 981.355,774.242 983.75,768.738 986.267,763.235 988.908,757.736 991.674,752.245 994.566,746.764 
  997.585,741.298 1000.73,735.85 1004.01,730.423 1007.41,725.022 1010.94,719.649 1014.61,714.31 1018.41,709.008 1022.34,703.747 1026.4,698.532 1030.6,693.366 
  1034.94,688.254 1039.41,683.202 1044.02,678.212 1048.77,673.291 1053.66,668.443 1058.69,663.672 1063.85,658.984 1069.17,654.384 1074.62,649.877 1080.22,645.466 
  1085.96,641.151 1091.86,636.94 1097.9,632.839 1104.09,628.854 1110.41,624.992 1116.88,621.26 1123.49,617.663 1130.24,614.206 1137.12,610.896 1144.14,607.737 
  1151.28,604.735 1158.55,601.895 1165.95,599.22 1173.47,596.715 1181.11,594.385 1188.86,592.234 1196.72,590.264 1204.69,588.48 1212.77,586.885 1220.95,585.481 
  1229.22,584.272 1237.58,583.261 1246.04,582.449 1254.57,581.838 1263.18,581.431 1271.87,581.23 1280.63,581.235 1289.44,581.448 1298.32,581.87 1307.25,582.502 
  1316.22,583.344 1325.24,584.397 1334.29,585.661 1343.37,587.135 1352.47,588.82 1361.59,590.714 1370.72,592.818 1379.85,595.13 1388.97,597.648 1398.09,600.372 
  1407.18,603.3 1416.25,606.43 1425.29,609.759 1434.29,613.286 1443.23,617.008 1452.12,620.921 1460.95,625.024 1469.7,629.313 1478.37,633.784 1486.95,638.433 
  1495.44,643.252 1503.81,648.233 1512.06,653.369 1520.19,658.652 1528.18,664.075 1536.02,669.63 1543.71,675.311 1551.23,681.11 1558.58,687.021 1565.76,693.035 
  1572.74,699.147 1579.54,705.35 1586.13,711.636 1592.51,717.999 1598.69,724.432 1604.64,730.929 1610.38,737.483 1615.88,744.088 1621.15,750.737 1626.19,757.424 
  1630.98,764.143 1635.53,770.887 1639.84,777.651 1643.89,784.428 1647.69,791.212 1651.23,797.998 1654.52,804.78 1657.55,811.552 1660.31,818.307 1662.82,825.041 
  1665.07,831.749 1667.05,838.423 1668.78,845.06 1670.24,851.653 1671.44,858.198 1672.39,864.688 1673.07,871.12 1673.51,877.487 1673.68,883.785 1673.61,890.009 
  1673.29,896.154 1672.73,902.215 1671.92,908.187 1670.88,914.066 1669.6,919.85 1668.1,925.548 1666.37,931.16 1664.42,936.685 1662.26,942.121 1659.9,947.468 
  1657.33,952.726 1654.56,957.891 1651.6,962.966 1648.45,967.947 1645.11,972.835 1641.6,977.629 1637.91,982.329 1634.06,986.934 1630.04,991.443 1625.86,995.857 
  1621.53,1000.18 1617.04,1004.4 1612.42,1008.52 1607.65,1012.55 1602.75,1016.49 1597.72,1020.33 1592.56,1024.07 1587.28,1027.72 1581.89,1031.27 1576.38,1034.73 
  1570.77,1038.09 1565.06,1041.36 1559.25,1044.54 1553.34,1047.63 1547.35,1050.62 1541.28,1053.53 1535.13,1056.34 1528.91,1059.07 1522.62,1061.71 1516.26,1064.26 
  1509.84,1066.73 1503.37,1069.11 1496.85,1071.41 1490.29,1073.63 1483.68,1075.78 1477.04,1077.84 1470.36,1079.83 1463.66,1081.74 1456.94,1083.58 1450.2,1085.35 
  
  "/>
<circle clip-path="url(#clip203)" cx="1410.73" cy="605.551" r="14" fill="#e26f46" fill-rule="evenodd" fill-opacity="1" stroke="#000000" stroke-opacity="1" stroke-width="3.2"/>
<circle clip-path="url(#clip203)" cx="1622.68" cy="678.829" r="14" fill="#e26f46" fill-rule="evenodd" fill-opacity="1" stroke="#000000" stroke-opacity="1" stroke-width="3.2"/>
<circle clip-path="url(#clip203)" cx="1806.36" cy="851.009" r="14" fill="#e26f46" fill-rule="evenodd" fill-opacity="1" stroke="#000000" stroke-opacity="1" stroke-width="3.2"/>
<circle clip-path="url(#clip203)" cx="1840.3" cy="1055.09" r="14" fill="#e26f46" fill-rule="evenodd" fill-opacity="1" stroke="#000000" stroke-opacity="1" stroke-width="3.2"/>
<circle clip-path="url(#clip203)" cx="1665.04" cy="1197.38" r="14" fill="#e26f46" fill-rule="evenodd" fill-opacity="1" stroke="#000000" stroke-opacity="1" stroke-width="3.2"/>
<circle clip-path="url(#clip203)" cx="1377.78" cy="1259.49" r="14" fill="#e26f46" fill-rule="evenodd" fill-opacity="1" stroke="#000000" stroke-opacity="1" stroke-width="3.2"/>
<circle clip-path="url(#clip203)" cx="1100.95" cy="1271.62" r="14" fill="#e26f46" fill-rule="evenodd" fill-opacity="1" stroke="#000000" stroke-opacity="1" stroke-width="3.2"/>
<circle clip-path="url(#clip203)" cx="882.312" cy="1252.09" r="14" fill="#e26f46" fill-rule="evenodd" fill-opacity="1" stroke="#000000" stroke-opacity="1" stroke-width="3.2"/>
<circle clip-path="url(#clip203)" cx="725.062" cy="1203.21" r="14" fill="#e26f46" fill-rule="evenodd" fill-opacity="1" stroke="#000000" stroke-opacity="1" stroke-width="3.2"/>
<circle clip-path="url(#clip203)" cx="620.134" cy="1117.28" r="14" fill="#e26f46" fill-rule="evenodd" fill-opacity="1" stroke="#000000" stroke-opacity="1" stroke-width="3.2"/>
<circle clip-path="url(#clip203)" cx="558.813" cy="978.342" r="14" fill="#e26f46" fill-rule="evenodd" fill-opacity="1" stroke="#000000" stroke-opacity="1" stroke-width="3.2"/>
<circle clip-path="url(#clip203)" cx="537.724" cy="761.616" r="14" fill="#e26f46" fill-rule="evenodd" fill-opacity="1" stroke="#000000" stroke-opacity="1" stroke-width="3.2"/>
<circle clip-path="url(#clip203)" cx="563.819" cy="434.464" r="14" fill="#e26f46" fill-rule="evenodd" fill-opacity="1" stroke="#000000" stroke-opacity="1" stroke-width="3.2"/>
<circle clip-path="url(#clip203)" cx="1931.47" cy="1388.82" r="14" fill="#e26f46" fill-rule="evenodd" fill-opacity="1" stroke="#000000" stroke-opacity="1" stroke-width="3.2"/>
<circle clip-path="url(#clip203)" cx="1384.14" cy="1411.91" r="14" fill="#e26f46" fill-rule="evenodd" fill-opacity="1" stroke="#000000" stroke-opacity="1" stroke-width="3.2"/>
<circle clip-path="url(#clip203)" cx="992.626" cy="1414.09" r="14" fill="#e26f46" fill-rule="evenodd" fill-opacity="1" stroke="#000000" stroke-opacity="1" stroke-width="3.2"/>
<circle clip-path="url(#clip203)" cx="729.425" cy="1408.76" r="14" fill="#e26f46" fill-rule="evenodd" fill-opacity="1" stroke="#000000" stroke-opacity="1" stroke-width="3.2"/>
<circle clip-path="url(#clip203)" cx="555.345" cy="1396.59" r="14" fill="#e26f46" fill-rule="evenodd" fill-opacity="1" stroke="#000000" stroke-opacity="1" stroke-width="3.2"/>
<circle clip-path="url(#clip203)" cx="441.17" cy="1374.83" r="14" fill="#e26f46" fill-rule="evenodd" fill-opacity="1" stroke="#000000" stroke-opacity="1" stroke-width="3.2"/>
<circle clip-path="url(#clip203)" cx="366.93" cy="1337.82" r="14" fill="#e26f46" fill-rule="evenodd" fill-opacity="1" stroke="#000000" stroke-opacity="1" stroke-width="3.2"/>
<circle clip-path="url(#clip203)" cx="319.384" cy="1275.63" r="14" fill="#e26f46" fill-rule="evenodd" fill-opacity="1" stroke="#000000" stroke-opacity="1" stroke-width="3.2"/>
<circle clip-path="url(#clip203)" cx="290.016" cy="1171.5" r="14" fill="#e26f46" fill-rule="evenodd" fill-opacity="1" stroke="#000000" stroke-opacity="1" stroke-width="3.2"/>
<circle clip-path="url(#clip203)" cx="273.75" cy="997.42" r="14" fill="#e26f46" fill-rule="evenodd" fill-opacity="1" stroke="#000000" stroke-opacity="1" stroke-width="3.2"/>
<circle clip-path="url(#clip203)" cx="268.507" cy="707.004" r="14" fill="#e26f46" fill-rule="evenodd" fill-opacity="1" stroke="#000000" stroke-opacity="1" stroke-width="3.2"/>
<circle clip-path="url(#clip203)" cx="276.189" cy="224.798" r="14" fill="#e26f46" fill-rule="evenodd" fill-opacity="1" stroke="#000000" stroke-opacity="1" stroke-width="3.2"/>
<path clip-path="url(#clip200)" d="
M1487.13 249.29 L2280.98 249.29 L2280.98 93.7697 L1487.13 93.7697  Z
  " fill="#ffffff" fill-rule="evenodd" fill-opacity="1"/>
<polyline clip-path="url(#clip200)" style="stroke:#000000; stroke-linecap:butt; stroke-linejoin:round; stroke-width:4; stroke-opacity:1; fill:none" points="
  1487.13,249.29 2280.98,249.29 2280.98,93.7697 1487.13,93.7697 1487.13,249.29 
  "/>
<polyline clip-path="url(#clip200)" style="stroke:#009af9; stroke-linecap:butt; stroke-linejoin:round; stroke-width:4; stroke-opacity:1; fill:none" points="
  1511.06,145.61 1654.61,145.61 
  "/>
<path clip-path="url(#clip200)" d="M1694.92 146.686 Q1696.42 147.195 1697.84 148.862 Q1699.27 150.529 1700.71 153.445 L1705.45 162.89 L1700.43 162.89 L1696.01 154.024 Q1694.29 150.552 1692.67 149.418 Q1691.08 148.283 1688.3 148.283 L1683.21 148.283 L1683.21 162.89 L1678.53 162.89 L1678.53 128.33 L1689.09 128.33 Q1695.01 128.33 1697.93 130.807 Q1700.84 133.283 1700.84 138.283 Q1700.84 141.547 1699.32 143.7 Q1697.81 145.853 1694.92 146.686 M1683.21 132.172 L1683.21 144.441 L1689.09 144.441 Q1692.46 144.441 1694.18 142.89 Q1695.91 141.316 1695.91 138.283 Q1695.91 135.251 1694.18 133.723 Q1692.46 132.172 1689.09 132.172 L1683.21 132.172 Z" fill="#000000" fill-rule="evenodd" fill-opacity="1" /><path clip-path="url(#clip200)" d="M1731.33 148.862 L1731.33 150.945 L1711.75 150.945 Q1712.02 155.343 1714.39 157.658 Q1716.77 159.95 1721.01 159.95 Q1723.46 159.95 1725.75 159.348 Q1728.07 158.746 1730.33 157.543 L1730.33 161.57 Q1728.04 162.542 1725.64 163.052 Q1723.23 163.561 1720.75 163.561 Q1714.55 163.561 1710.91 159.95 Q1707.3 156.339 1707.3 150.181 Q1707.3 143.816 1710.73 140.089 Q1714.18 136.339 1720.01 136.339 Q1725.24 136.339 1728.27 139.719 Q1731.33 143.075 1731.33 148.862 M1727.07 147.612 Q1727.02 144.117 1725.1 142.033 Q1723.21 139.95 1720.06 139.95 Q1716.49 139.95 1714.34 141.964 Q1712.21 143.978 1711.89 147.635 L1727.07 147.612 Z" fill="#000000" fill-rule="evenodd" fill-opacity="1" /><path clip-path="url(#clip200)" d="M1751.45 126.871 L1751.45 130.413 L1747.37 130.413 Q1745.08 130.413 1744.18 131.339 Q1743.3 132.265 1743.3 134.672 L1743.3 136.964 L1750.31 136.964 L1750.31 140.274 L1743.3 140.274 L1743.3 162.89 L1739.02 162.89 L1739.02 140.274 L1734.94 140.274 L1734.94 136.964 L1739.02 136.964 L1739.02 135.158 Q1739.02 130.83 1741.03 128.862 Q1743.04 126.871 1747.42 126.871 L1751.45 126.871 Z" fill="#000000" fill-rule="evenodd" fill-opacity="1" /><path clip-path="url(#clip200)" d="M1777.19 148.862 L1777.19 150.945 L1757.6 150.945 Q1757.88 155.343 1760.24 157.658 Q1762.63 159.95 1766.86 159.95 Q1769.32 159.95 1771.61 159.348 Q1773.92 158.746 1776.19 157.543 L1776.19 161.57 Q1773.9 162.542 1771.49 163.052 Q1769.08 163.561 1766.61 163.561 Q1760.4 163.561 1756.77 159.95 Q1753.16 156.339 1753.16 150.181 Q1753.16 143.816 1756.58 140.089 Q1760.03 136.339 1765.87 136.339 Q1771.1 136.339 1774.13 139.719 Q1777.19 143.075 1777.19 148.862 M1772.93 147.612 Q1772.88 144.117 1770.96 142.033 Q1769.06 139.95 1765.91 139.95 Q1762.35 139.95 1760.2 141.964 Q1758.07 143.978 1757.74 147.635 L1772.93 147.612 Z" fill="#000000" fill-rule="evenodd" fill-opacity="1" /><path clip-path="url(#clip200)" d="M1799.2 140.945 Q1798.48 140.529 1797.63 140.344 Q1796.79 140.135 1795.77 140.135 Q1792.16 140.135 1790.22 142.496 Q1788.3 144.834 1788.3 149.232 L1788.3 162.89 L1784.02 162.89 L1784.02 136.964 L1788.3 136.964 L1788.3 140.992 Q1789.64 138.631 1791.79 137.496 Q1793.95 136.339 1797.02 136.339 Q1797.46 136.339 1798 136.408 Q1798.53 136.455 1799.18 136.57 L1799.2 140.945 Z" fill="#000000" fill-rule="evenodd" fill-opacity="1" /><path clip-path="url(#clip200)" d="M1824.8 148.862 L1824.8 150.945 L1805.22 150.945 Q1805.5 155.343 1807.86 157.658 Q1810.24 159.95 1814.48 159.95 Q1816.93 159.95 1819.22 159.348 Q1821.54 158.746 1823.81 157.543 L1823.81 161.57 Q1821.52 162.542 1819.11 163.052 Q1816.7 163.561 1814.22 163.561 Q1808.02 163.561 1804.39 159.95 Q1800.77 156.339 1800.77 150.181 Q1800.77 143.816 1804.2 140.089 Q1807.65 136.339 1813.48 136.339 Q1818.71 136.339 1821.75 139.719 Q1824.8 143.075 1824.8 148.862 M1820.54 147.612 Q1820.5 144.117 1818.58 142.033 Q1816.68 139.95 1813.53 139.95 Q1809.96 139.95 1807.81 141.964 Q1805.68 143.978 1805.36 147.635 L1820.54 147.612 Z" fill="#000000" fill-rule="evenodd" fill-opacity="1" /><path clip-path="url(#clip200)" d="M1853.34 147.242 L1853.34 162.89 L1849.08 162.89 L1849.08 147.381 Q1849.08 143.7 1847.65 141.871 Q1846.21 140.043 1843.34 140.043 Q1839.89 140.043 1837.9 142.242 Q1835.91 144.441 1835.91 148.237 L1835.91 162.89 L1831.63 162.89 L1831.63 136.964 L1835.91 136.964 L1835.91 140.992 Q1837.44 138.654 1839.5 137.496 Q1841.58 136.339 1844.29 136.339 Q1848.76 136.339 1851.05 139.117 Q1853.34 141.871 1853.34 147.242 Z" fill="#000000" fill-rule="evenodd" fill-opacity="1" /><path clip-path="url(#clip200)" d="M1880.5 137.959 L1880.5 141.941 Q1878.69 140.945 1876.86 140.459 Q1875.06 139.95 1873.2 139.95 Q1869.06 139.95 1866.77 142.589 Q1864.48 145.205 1864.48 149.95 Q1864.48 154.695 1866.77 157.334 Q1869.06 159.95 1873.2 159.95 Q1875.06 159.95 1876.86 159.464 Q1878.69 158.955 1880.5 157.959 L1880.5 161.894 Q1878.71 162.728 1876.79 163.144 Q1874.89 163.561 1872.74 163.561 Q1866.89 163.561 1863.44 159.88 Q1859.99 156.2 1859.99 149.95 Q1859.99 143.607 1863.46 139.973 Q1866.95 136.339 1873.02 136.339 Q1874.99 136.339 1876.86 136.756 Q1878.74 137.149 1880.5 137.959 Z" fill="#000000" fill-rule="evenodd" fill-opacity="1" /><path clip-path="url(#clip200)" d="M1910.08 148.862 L1910.08 150.945 L1890.5 150.945 Q1890.77 155.343 1893.14 157.658 Q1895.52 159.95 1899.76 159.95 Q1902.21 159.95 1904.5 159.348 Q1906.82 158.746 1909.08 157.543 L1909.08 161.57 Q1906.79 162.542 1904.38 163.052 Q1901.98 163.561 1899.5 163.561 Q1893.3 163.561 1889.66 159.95 Q1886.05 156.339 1886.05 150.181 Q1886.05 143.816 1889.48 140.089 Q1892.93 136.339 1898.76 136.339 Q1903.99 136.339 1907.02 139.719 Q1910.08 143.075 1910.08 148.862 M1905.82 147.612 Q1905.77 144.117 1903.85 142.033 Q1901.95 139.95 1898.81 139.95 Q1895.24 139.95 1893.09 141.964 Q1890.96 143.978 1890.64 147.635 L1905.82 147.612 Z" fill="#000000" fill-rule="evenodd" fill-opacity="1" /><path clip-path="url(#clip200)" d="M1948.67 137.728 L1948.67 141.756 Q1946.86 140.83 1944.92 140.367 Q1942.97 139.904 1940.89 139.904 Q1937.72 139.904 1936.12 140.876 Q1934.55 141.848 1934.55 143.793 Q1934.55 145.274 1935.68 146.131 Q1936.82 146.964 1940.24 147.728 L1941.7 148.052 Q1946.24 149.024 1948.13 150.806 Q1950.06 152.566 1950.06 155.737 Q1950.06 159.348 1947.19 161.455 Q1944.34 163.561 1939.34 163.561 Q1937.26 163.561 1934.99 163.144 Q1932.74 162.751 1930.24 161.941 L1930.24 157.543 Q1932.6 158.769 1934.89 159.394 Q1937.19 159.996 1939.43 159.996 Q1942.44 159.996 1944.06 158.978 Q1945.68 157.936 1945.68 156.061 Q1945.68 154.325 1944.5 153.399 Q1943.34 152.473 1939.38 151.617 L1937.9 151.269 Q1933.95 150.436 1932.19 148.723 Q1930.43 146.987 1930.43 143.978 Q1930.43 140.32 1933.02 138.33 Q1935.61 136.339 1940.38 136.339 Q1942.74 136.339 1944.82 136.686 Q1946.91 137.033 1948.67 137.728 Z" fill="#000000" fill-rule="evenodd" fill-opacity="1" /><path clip-path="url(#clip200)" d="M1966.88 139.95 Q1963.46 139.95 1961.47 142.635 Q1959.48 145.297 1959.48 149.95 Q1959.48 154.603 1961.44 157.288 Q1963.44 159.95 1966.88 159.95 Q1970.29 159.95 1972.28 157.265 Q1974.27 154.58 1974.27 149.95 Q1974.27 145.344 1972.28 142.658 Q1970.29 139.95 1966.88 139.95 M1966.88 136.339 Q1972.44 136.339 1975.61 139.95 Q1978.78 143.561 1978.78 149.95 Q1978.78 156.316 1975.61 159.95 Q1972.44 163.561 1966.88 163.561 Q1961.31 163.561 1958.13 159.95 Q1954.99 156.316 1954.99 149.95 Q1954.99 143.561 1958.13 139.95 Q1961.31 136.339 1966.88 136.339 Z" fill="#000000" fill-rule="evenodd" fill-opacity="1" /><path clip-path="url(#clip200)" d="M1985.84 126.871 L1990.1 126.871 L1990.1 162.89 L1985.84 162.89 L1985.84 126.871 Z" fill="#000000" fill-rule="evenodd" fill-opacity="1" /><path clip-path="url(#clip200)" d="M1998.57 152.658 L1998.57 136.964 L2002.83 136.964 L2002.83 152.496 Q2002.83 156.177 2004.27 158.029 Q2005.7 159.857 2008.57 159.857 Q2012.02 159.857 2014.01 157.658 Q2016.03 155.459 2016.03 151.663 L2016.03 136.964 L2020.29 136.964 L2020.29 162.89 L2016.03 162.89 L2016.03 158.908 Q2014.48 161.269 2012.42 162.427 Q2010.38 163.561 2007.67 163.561 Q2003.2 163.561 2000.89 160.783 Q1998.57 158.005 1998.57 152.658 M2009.29 136.339 L2009.29 136.339 Z" fill="#000000" fill-rule="evenodd" fill-opacity="1" /><path clip-path="url(#clip200)" d="M2033.27 129.603 L2033.27 136.964 L2042.05 136.964 L2042.05 140.274 L2033.27 140.274 L2033.27 154.348 Q2033.27 157.519 2034.13 158.422 Q2035.01 159.325 2037.67 159.325 L2042.05 159.325 L2042.05 162.89 L2037.67 162.89 Q2032.74 162.89 2030.87 161.061 Q2028.99 159.209 2028.99 154.348 L2028.99 140.274 L2025.87 140.274 L2025.87 136.964 L2028.99 136.964 L2028.99 129.603 L2033.27 129.603 Z" fill="#000000" fill-rule="evenodd" fill-opacity="1" /><path clip-path="url(#clip200)" d="M2047.65 136.964 L2051.91 136.964 L2051.91 162.89 L2047.65 162.89 L2047.65 136.964 M2047.65 126.871 L2051.91 126.871 L2051.91 132.265 L2047.65 132.265 L2047.65 126.871 Z" fill="#000000" fill-rule="evenodd" fill-opacity="1" /><path clip-path="url(#clip200)" d="M2070.87 139.95 Q2067.44 139.95 2065.45 142.635 Q2063.46 145.297 2063.46 149.95 Q2063.46 154.603 2065.43 157.288 Q2067.42 159.95 2070.87 159.95 Q2074.27 159.95 2076.26 157.265 Q2078.25 154.58 2078.25 149.95 Q2078.25 145.344 2076.26 142.658 Q2074.27 139.95 2070.87 139.95 M2070.87 136.339 Q2076.42 136.339 2079.59 139.95 Q2082.76 143.561 2082.76 149.95 Q2082.76 156.316 2079.59 159.95 Q2076.42 163.561 2070.87 163.561 Q2065.29 163.561 2062.12 159.95 Q2058.97 156.316 2058.97 149.95 Q2058.97 143.561 2062.12 139.95 Q2065.29 136.339 2070.87 136.339 Z" fill="#000000" fill-rule="evenodd" fill-opacity="1" /><path clip-path="url(#clip200)" d="M2111.37 147.242 L2111.37 162.89 L2107.12 162.89 L2107.12 147.381 Q2107.12 143.7 2105.68 141.871 Q2104.25 140.043 2101.37 140.043 Q2097.93 140.043 2095.93 142.242 Q2093.94 144.441 2093.94 148.237 L2093.94 162.89 L2089.66 162.89 L2089.66 136.964 L2093.94 136.964 L2093.94 140.992 Q2095.47 138.654 2097.53 137.496 Q2099.62 136.339 2102.32 136.339 Q2106.79 136.339 2109.08 139.117 Q2111.37 141.871 2111.37 147.242 Z" fill="#000000" fill-rule="evenodd" fill-opacity="1" /><circle clip-path="url(#clip200)" cx="1582.83" cy="197.45" r="23" fill="#e26f46" fill-rule="evenodd" fill-opacity="1" stroke="#000000" stroke-opacity="1" stroke-width="5.12"/>
<path clip-path="url(#clip200)" d="M1678.53 180.17 L1700.38 180.17 L1700.38 184.105 L1683.21 184.105 L1683.21 194.336 L1699.66 194.336 L1699.66 198.271 L1683.21 198.271 L1683.21 210.795 L1700.8 210.795 L1700.8 214.73 L1678.53 214.73 L1678.53 180.17 Z" fill="#000000" fill-rule="evenodd" fill-opacity="1" /><path clip-path="url(#clip200)" d="M1729.85 188.804 L1720.47 201.42 L1730.33 214.73 L1725.31 214.73 L1717.77 204.545 L1710.22 214.73 L1705.2 214.73 L1715.27 201.165 L1706.05 188.804 L1711.08 188.804 L1717.95 198.04 L1724.83 188.804 L1729.85 188.804 Z" fill="#000000" fill-rule="evenodd" fill-opacity="1" /><path clip-path="url(#clip200)" d="M1740.47 210.841 L1740.47 224.591 L1736.19 224.591 L1736.19 188.804 L1740.47 188.804 L1740.47 192.739 Q1741.82 190.424 1743.85 189.313 Q1745.91 188.179 1748.76 188.179 Q1753.48 188.179 1756.42 191.929 Q1759.39 195.679 1759.39 201.79 Q1759.39 207.901 1756.42 211.651 Q1753.48 215.401 1748.76 215.401 Q1745.91 215.401 1743.85 214.29 Q1741.82 213.156 1740.47 210.841 M1754.96 201.79 Q1754.96 197.091 1753.02 194.429 Q1751.1 191.744 1747.72 191.744 Q1744.34 191.744 1742.4 194.429 Q1740.47 197.091 1740.47 201.79 Q1740.47 206.489 1742.4 209.174 Q1744.34 211.836 1747.72 211.836 Q1751.1 211.836 1753.02 209.174 Q1754.96 206.489 1754.96 201.79 Z" fill="#000000" fill-rule="evenodd" fill-opacity="1" /><path clip-path="url(#clip200)" d="M1766.45 178.711 L1770.71 178.711 L1770.71 214.73 L1766.45 214.73 L1766.45 178.711 Z" fill="#000000" fill-rule="evenodd" fill-opacity="1" /><path clip-path="url(#clip200)" d="M1779.62 188.804 L1783.88 188.804 L1783.88 214.73 L1779.62 214.73 L1779.62 188.804 M1779.62 178.711 L1783.88 178.711 L1783.88 184.105 L1779.62 184.105 L1779.62 178.711 Z" fill="#000000" fill-rule="evenodd" fill-opacity="1" /><path clip-path="url(#clip200)" d="M1811.45 189.799 L1811.45 193.781 Q1809.64 192.785 1807.81 192.299 Q1806.01 191.79 1804.15 191.79 Q1800.01 191.79 1797.72 194.429 Q1795.43 197.045 1795.43 201.79 Q1795.43 206.535 1797.72 209.174 Q1800.01 211.79 1804.15 211.79 Q1806.01 211.79 1807.81 211.304 Q1809.64 210.795 1811.45 209.799 L1811.45 213.734 Q1809.66 214.568 1807.74 214.984 Q1805.84 215.401 1803.69 215.401 Q1797.83 215.401 1794.39 211.72 Q1790.94 208.04 1790.94 201.79 Q1790.94 195.447 1794.41 191.813 Q1797.9 188.179 1803.97 188.179 Q1805.94 188.179 1807.81 188.596 Q1809.69 188.989 1811.45 189.799 Z" fill="#000000" fill-rule="evenodd" fill-opacity="1" /><path clip-path="url(#clip200)" d="M1818.85 188.804 L1823.11 188.804 L1823.11 214.73 L1818.85 214.73 L1818.85 188.804 M1818.85 178.711 L1823.11 178.711 L1823.11 184.105 L1818.85 184.105 L1818.85 178.711 Z" fill="#000000" fill-rule="evenodd" fill-opacity="1" /><path clip-path="url(#clip200)" d="M1836.24 181.443 L1836.24 188.804 L1845.01 188.804 L1845.01 192.114 L1836.24 192.114 L1836.24 206.188 Q1836.24 209.359 1837.09 210.262 Q1837.97 211.165 1840.64 211.165 L1845.01 211.165 L1845.01 214.73 L1840.64 214.73 Q1835.7 214.73 1833.83 212.901 Q1831.95 211.049 1831.95 206.188 L1831.95 192.114 L1828.83 192.114 L1828.83 188.804 L1831.95 188.804 L1831.95 181.443 L1836.24 181.443 Z" fill="#000000" fill-rule="evenodd" fill-opacity="1" /><path clip-path="url(#clip200)" d="M1865.87 180.17 L1887.72 180.17 L1887.72 184.105 L1870.54 184.105 L1870.54 194.336 L1887 194.336 L1887 198.271 L1870.54 198.271 L1870.54 210.795 L1888.14 210.795 L1888.14 214.73 L1865.87 214.73 L1865.87 180.17 Z" fill="#000000" fill-rule="evenodd" fill-opacity="1" /><path clip-path="url(#clip200)" d="M1895.2 204.498 L1895.2 188.804 L1899.45 188.804 L1899.45 204.336 Q1899.45 208.017 1900.89 209.869 Q1902.32 211.697 1905.2 211.697 Q1908.64 211.697 1910.63 209.498 Q1912.65 207.299 1912.65 203.503 L1912.65 188.804 L1916.91 188.804 L1916.91 214.73 L1912.65 214.73 L1912.65 210.748 Q1911.1 213.109 1909.04 214.267 Q1907 215.401 1904.29 215.401 Q1899.82 215.401 1897.51 212.623 Q1895.2 209.845 1895.2 204.498 M1905.91 188.179 L1905.91 188.179 Z" fill="#000000" fill-rule="evenodd" fill-opacity="1" /><path clip-path="url(#clip200)" d="M1925.68 178.711 L1929.94 178.711 L1929.94 214.73 L1925.68 214.73 L1925.68 178.711 Z" fill="#000000" fill-rule="evenodd" fill-opacity="1" /><path clip-path="url(#clip200)" d="M1961.03 200.702 L1961.03 202.785 L1941.44 202.785 Q1941.72 207.183 1944.08 209.498 Q1946.47 211.79 1950.7 211.79 Q1953.16 211.79 1955.45 211.188 Q1957.76 210.586 1960.03 209.383 L1960.03 213.41 Q1957.74 214.382 1955.33 214.892 Q1952.93 215.401 1950.45 215.401 Q1944.25 215.401 1940.61 211.79 Q1937 208.179 1937 202.021 Q1937 195.656 1940.43 191.929 Q1943.88 188.179 1949.71 188.179 Q1954.94 188.179 1957.97 191.559 Q1961.03 194.915 1961.03 200.702 M1956.77 199.452 Q1956.72 195.957 1954.8 193.873 Q1952.9 191.79 1949.76 191.79 Q1946.19 191.79 1944.04 193.804 Q1941.91 195.818 1941.58 199.475 L1956.77 199.452 Z" fill="#000000" fill-rule="evenodd" fill-opacity="1" /><path clip-path="url(#clip200)" d="M1983.04 192.785 Q1982.32 192.369 1981.47 192.184 Q1980.63 191.975 1979.62 191.975 Q1976 191.975 1974.06 194.336 Q1972.14 196.674 1972.14 201.072 L1972.14 214.73 L1967.86 214.73 L1967.86 188.804 L1972.14 188.804 L1972.14 192.832 Q1973.48 190.471 1975.63 189.336 Q1977.79 188.179 1980.87 188.179 Q1981.31 188.179 1981.84 188.248 Q1982.37 188.295 1983.02 188.41 L1983.04 192.785 Z" fill="#000000" fill-rule="evenodd" fill-opacity="1" /><path clip-path="url(#clip200)" d="M1988.6 208.85 L1993.48 208.85 L1993.48 212.832 L1989.69 220.239 L1986.7 220.239 L1988.6 212.832 L1988.6 208.85 Z" fill="#000000" fill-rule="evenodd" fill-opacity="1" /><path clip-path="url(#clip200)" d="M2034.71 192.739 L2034.71 178.711 L2038.97 178.711 L2038.97 214.73 L2034.71 214.73 L2034.71 210.841 Q2033.37 213.156 2031.31 214.29 Q2029.27 215.401 2026.4 215.401 Q2021.7 215.401 2018.74 211.651 Q2015.8 207.901 2015.8 201.79 Q2015.8 195.679 2018.74 191.929 Q2021.7 188.179 2026.4 188.179 Q2029.27 188.179 2031.31 189.313 Q2033.37 190.424 2034.71 192.739 M2020.19 201.79 Q2020.19 206.489 2022.12 209.174 Q2024.06 211.836 2027.44 211.836 Q2030.82 211.836 2032.76 209.174 Q2034.71 206.489 2034.71 201.79 Q2034.71 197.091 2032.76 194.429 Q2030.82 191.744 2027.44 191.744 Q2024.06 191.744 2022.12 194.429 Q2020.19 197.091 2020.19 201.79 Z" fill="#000000" fill-rule="evenodd" fill-opacity="1" /><path clip-path="url(#clip200)" d="M2051.95 181.443 L2051.95 188.804 L2060.73 188.804 L2060.73 192.114 L2051.95 192.114 L2051.95 206.188 Q2051.95 209.359 2052.81 210.262 Q2053.69 211.165 2056.35 211.165 L2060.73 211.165 L2060.73 214.73 L2056.35 214.73 Q2051.42 214.73 2049.55 212.901 Q2047.67 211.049 2047.67 206.188 L2047.67 192.114 L2044.55 192.114 L2044.55 188.804 L2047.67 188.804 L2047.67 181.443 L2051.95 181.443 Z" fill="#000000" fill-rule="evenodd" fill-opacity="1" /><path clip-path="url(#clip200)" d="M2081.95 193.202 L2111.63 193.202 L2111.63 197.091 L2081.95 197.091 L2081.95 193.202 M2081.95 202.646 L2111.63 202.646 L2111.63 206.582 L2081.95 206.582 L2081.95 202.646 Z" fill="#000000" fill-rule="evenodd" fill-opacity="1" /><path clip-path="url(#clip200)" d="M2146.79 183.248 Q2143.18 183.248 2141.35 186.813 Q2139.55 190.355 2139.55 197.484 Q2139.55 204.591 2141.35 208.156 Q2143.18 211.697 2146.79 211.697 Q2150.43 211.697 2152.23 208.156 Q2154.06 204.591 2154.06 197.484 Q2154.06 190.355 2152.23 186.813 Q2150.43 183.248 2146.79 183.248 M2146.79 179.545 Q2152.6 179.545 2155.66 184.151 Q2158.74 188.734 2158.74 197.484 Q2158.74 206.211 2155.66 210.818 Q2152.6 215.401 2146.79 215.401 Q2140.98 215.401 2137.9 210.818 Q2134.85 206.211 2134.85 197.484 Q2134.85 188.734 2137.9 184.151 Q2140.98 179.545 2146.79 179.545 Z" fill="#000000" fill-rule="evenodd" fill-opacity="1" /><path clip-path="url(#clip200)" d="M2166.95 208.85 L2171.84 208.85 L2171.84 214.73 L2166.95 214.73 L2166.95 208.85 Z" fill="#000000" fill-rule="evenodd" fill-opacity="1" /><path clip-path="url(#clip200)" d="M2196.19 196.096 Q2199.55 196.813 2201.42 199.082 Q2203.32 201.35 2203.32 204.683 Q2203.32 209.799 2199.8 212.6 Q2196.28 215.401 2189.8 215.401 Q2187.62 215.401 2185.31 214.961 Q2183.02 214.545 2180.56 213.688 L2180.56 209.174 Q2182.51 210.308 2184.82 210.887 Q2187.14 211.466 2189.66 211.466 Q2194.06 211.466 2196.35 209.73 Q2198.67 207.994 2198.67 204.683 Q2198.67 201.628 2196.51 199.915 Q2194.38 198.179 2190.56 198.179 L2186.54 198.179 L2186.54 194.336 L2190.75 194.336 Q2194.2 194.336 2196.03 192.971 Q2197.86 191.582 2197.86 188.989 Q2197.86 186.327 2195.96 184.915 Q2194.08 183.48 2190.56 183.48 Q2188.64 183.48 2186.44 183.897 Q2184.24 184.313 2181.61 185.193 L2181.61 181.026 Q2184.27 180.285 2186.58 179.915 Q2188.92 179.545 2190.98 179.545 Q2196.3 179.545 2199.41 181.975 Q2202.51 184.383 2202.51 188.503 Q2202.51 191.373 2200.86 193.364 Q2199.22 195.332 2196.19 196.096 Z" fill="#000000" fill-rule="evenodd" fill-opacity="1" /><path clip-path="url(#clip200)" d="M2212.23 180.17 L2230.59 180.17 L2230.59 184.105 L2216.51 184.105 L2216.51 192.577 Q2217.53 192.23 2218.55 192.068 Q2219.57 191.883 2220.59 191.883 Q2226.37 191.883 2229.75 195.054 Q2233.13 198.225 2233.13 203.642 Q2233.13 209.22 2229.66 212.322 Q2226.19 215.401 2219.87 215.401 Q2217.69 215.401 2215.42 215.031 Q2213.18 214.66 2210.77 213.92 L2210.77 209.22 Q2212.86 210.355 2215.08 210.91 Q2217.3 211.466 2219.78 211.466 Q2223.78 211.466 2226.12 209.359 Q2228.46 207.253 2228.46 203.642 Q2228.46 200.031 2226.12 197.924 Q2223.78 195.818 2219.78 195.818 Q2217.9 195.818 2216.03 196.234 Q2214.17 196.651 2212.23 197.531 L2212.23 180.17 Z" fill="#000000" fill-rule="evenodd" fill-opacity="1" /></svg>
