<?xml version="1.0" encoding="utf-8"?>
<svg xmlns="http://www.w3.org/2000/svg" xmlns:xlink="http://www.w3.org/1999/xlink" width="600" height="400" viewBox="0 0 2400 1600">
<defs>
  <clipPath id="clip500">
    <rect x="0" y="0" width="2400" height="1600"/>
  </clipPath>
</defs>
<path clip-path="url(#clip500)" d="M0 1600 L2400 1600 L2400 0 L0 0  Z" fill="#ffffff" fill-rule="evenodd" fill-opacity="1"/>
<defs>
  <clipPath id="clip501">
    <rect x="480" y="0" width="1681" height="1600"/>
  </clipPath>
</defs>
<path clip-path="url(#clip500)" d="M175.445 1423.18 L2352.76 1423.18 L2352.76 47.2441 L175.445 47.2441  Z" fill="#ffffff" fill-rule="evenodd" fill-opacity="1"/>
<defs>
  <clipPath id="clip502">
    <rect x="175" y="47" width="2178" height="1377"/>
  </clipPath>
</defs>
<polyline clip-path="url(#clip502)" style="stroke:#000000; stroke-linecap:round; stroke-linejoin:round; stroke-width:2; stroke-opacity:0.1; fill:none" points="405.483,1423.18 405.483,47.2441 "/>
<polyline clip-path="url(#clip502)" style="stroke:#000000; stroke-linecap:round; stroke-linejoin:round; stroke-width:2; stroke-opacity:0.1; fill:none" points="748.519,1423.18 748.519,47.2441 "/>
<polyline clip-path="url(#clip502)" style="stroke:#000000; stroke-linecap:round; stroke-linejoin:round; stroke-width:2; stroke-opacity:0.1; fill:none" points="1091.56,1423.18 1091.56,47.2441 "/>
<polyline clip-path="url(#clip502)" style="stroke:#000000; stroke-linecap:round; stroke-linejoin:round; stroke-width:2; stroke-opacity:0.1; fill:none" points="1434.59,1423.18 1434.59,47.2441 "/>
<polyline clip-path="url(#clip502)" style="stroke:#000000; stroke-linecap:round; stroke-linejoin:round; stroke-width:2; stroke-opacity:0.1; fill:none" points="1777.63,1423.18 1777.63,47.2441 "/>
<polyline clip-path="url(#clip502)" style="stroke:#000000; stroke-linecap:round; stroke-linejoin:round; stroke-width:2; stroke-opacity:0.1; fill:none" points="2120.67,1423.18 2120.67,47.2441 "/>
<polyline clip-path="url(#clip500)" style="stroke:#000000; stroke-linecap:round; stroke-linejoin:round; stroke-width:4; stroke-opacity:1; fill:none" points="175.445,1423.18 2352.76,1423.18 "/>
<polyline clip-path="url(#clip500)" style="stroke:#000000; stroke-linecap:round; stroke-linejoin:round; stroke-width:4; stroke-opacity:1; fill:none" points="405.483,1423.18 405.483,1404.28 "/>
<polyline clip-path="url(#clip500)" style="stroke:#000000; stroke-linecap:round; stroke-linejoin:round; stroke-width:4; stroke-opacity:1; fill:none" points="748.519,1423.18 748.519,1404.28 "/>
<polyline clip-path="url(#clip500)" style="stroke:#000000; stroke-linecap:round; stroke-linejoin:round; stroke-width:4; stroke-opacity:1; fill:none" points="1091.56,1423.18 1091.56,1404.28 "/>
<polyline clip-path="url(#clip500)" style="stroke:#000000; stroke-linecap:round; stroke-linejoin:round; stroke-width:4; stroke-opacity:1; fill:none" points="1434.59,1423.18 1434.59,1404.28 "/>
<polyline clip-path="url(#clip500)" style="stroke:#000000; stroke-linecap:round; stroke-linejoin:round; stroke-width:4; stroke-opacity:1; fill:none" points="1777.63,1423.18 1777.63,1404.28 "/>
<polyline clip-path="url(#clip500)" style="stroke:#000000; stroke-linecap:round; stroke-linejoin:round; stroke-width:4; stroke-opacity:1; fill:none" points="2120.67,1423.18 2120.67,1404.28 "/>
<path clip-path="url(#clip500)" d="M395.865 1481.64 L403.503 1481.64 L403.503 1455.28 L395.193 1456.95 L395.193 1452.69 L403.457 1451.02 L408.133 1451.02 L408.133 1481.64 L415.772 1481.64 L415.772 1485.58 L395.865 1485.58 L395.865 1481.64 Z" fill="#000000" fill-rule="nonzero" fill-opacity="1" /><path clip-path="url(#clip500)" d="M743.172 1481.64 L759.492 1481.64 L759.492 1485.58 L737.547 1485.58 L737.547 1481.64 Q740.209 1478.89 744.793 1474.26 Q749.399 1469.61 750.58 1468.27 Q752.825 1465.74 753.705 1464.01 Q754.607 1462.25 754.607 1460.56 Q754.607 1457.8 752.663 1456.07 Q750.742 1454.33 747.64 1454.33 Q745.441 1454.33 742.987 1455.09 Q740.556 1455.86 737.779 1457.41 L737.779 1452.69 Q740.603 1451.55 743.056 1450.97 Q745.51 1450.39 747.547 1450.39 Q752.918 1450.39 756.112 1453.08 Q759.306 1455.77 759.306 1460.26 Q759.306 1462.39 758.496 1464.31 Q757.709 1466.2 755.603 1468.8 Q755.024 1469.47 751.922 1472.69 Q748.82 1475.88 743.172 1481.64 Z" fill="#000000" fill-rule="nonzero" fill-opacity="1" /><path clip-path="url(#clip500)" d="M1095.8 1466.95 Q1099.16 1467.66 1101.04 1469.93 Q1102.93 1472.2 1102.93 1475.53 Q1102.93 1480.65 1099.41 1483.45 Q1095.9 1486.25 1089.42 1486.25 Q1087.24 1486.25 1084.92 1485.81 Q1082.63 1485.39 1080.18 1484.54 L1080.18 1480.02 Q1082.12 1481.16 1084.44 1481.74 Q1086.75 1482.32 1089.28 1482.32 Q1093.67 1482.32 1095.97 1480.58 Q1098.28 1478.84 1098.28 1475.53 Q1098.28 1472.48 1096.13 1470.77 Q1094 1469.03 1090.18 1469.03 L1086.15 1469.03 L1086.15 1465.19 L1090.36 1465.19 Q1093.81 1465.19 1095.64 1463.82 Q1097.47 1462.43 1097.47 1459.84 Q1097.47 1457.18 1095.57 1455.77 Q1093.7 1454.33 1090.18 1454.33 Q1088.26 1454.33 1086.06 1454.75 Q1083.86 1455.16 1081.22 1456.04 L1081.22 1451.88 Q1083.88 1451.14 1086.2 1450.77 Q1088.54 1450.39 1090.6 1450.39 Q1095.92 1450.39 1099.02 1452.83 Q1102.12 1455.23 1102.12 1459.35 Q1102.12 1462.22 1100.48 1464.21 Q1098.84 1466.18 1095.8 1466.95 Z" fill="#000000" fill-rule="nonzero" fill-opacity="1" /><path clip-path="url(#clip500)" d="M1437.6 1455.09 L1425.8 1473.54 L1437.6 1473.54 L1437.6 1455.09 M1436.38 1451.02 L1442.26 1451.02 L1442.26 1473.54 L1447.19 1473.54 L1447.19 1477.43 L1442.26 1477.43 L1442.26 1485.58 L1437.6 1485.58 L1437.6 1477.43 L1422 1477.43 L1422 1472.92 L1436.38 1451.02 Z" fill="#000000" fill-rule="nonzero" fill-opacity="1" /><path clip-path="url(#clip500)" d="M1767.91 1451.02 L1786.26 1451.02 L1786.26 1454.96 L1772.19 1454.96 L1772.19 1463.43 Q1773.21 1463.08 1774.23 1462.92 Q1775.25 1462.73 1776.26 1462.73 Q1782.05 1462.73 1785.43 1465.9 Q1788.81 1469.08 1788.81 1474.49 Q1788.81 1480.07 1785.34 1483.17 Q1781.87 1486.25 1775.55 1486.25 Q1773.37 1486.25 1771.1 1485.88 Q1768.86 1485.51 1766.45 1484.77 L1766.45 1480.07 Q1768.53 1481.2 1770.75 1481.76 Q1772.98 1482.32 1775.45 1482.32 Q1779.46 1482.32 1781.8 1480.21 Q1784.13 1478.1 1784.13 1474.49 Q1784.13 1470.88 1781.8 1468.77 Q1779.46 1466.67 1775.45 1466.67 Q1773.58 1466.67 1771.7 1467.08 Q1769.85 1467.5 1767.91 1468.38 L1767.91 1451.02 Z" fill="#000000" fill-rule="nonzero" fill-opacity="1" /><path clip-path="url(#clip500)" d="M2121.07 1466.44 Q2117.92 1466.44 2116.07 1468.59 Q2114.24 1470.74 2114.24 1474.49 Q2114.24 1478.22 2116.07 1480.39 Q2117.92 1482.55 2121.07 1482.55 Q2124.22 1482.55 2126.05 1480.39 Q2127.9 1478.22 2127.9 1474.49 Q2127.9 1470.74 2126.05 1468.59 Q2124.22 1466.44 2121.07 1466.44 M2130.35 1451.78 L2130.35 1456.04 Q2128.59 1455.21 2126.79 1454.77 Q2125.01 1454.33 2123.25 1454.33 Q2118.62 1454.33 2116.16 1457.45 Q2113.73 1460.58 2113.39 1466.9 Q2114.75 1464.89 2116.81 1463.82 Q2118.87 1462.73 2121.35 1462.73 Q2126.56 1462.73 2129.57 1465.9 Q2132.6 1469.05 2132.6 1474.49 Q2132.6 1479.82 2129.45 1483.03 Q2126.3 1486.25 2121.07 1486.25 Q2115.08 1486.25 2111.91 1481.67 Q2108.73 1477.06 2108.73 1468.33 Q2108.73 1460.14 2112.62 1455.28 Q2116.51 1450.39 2123.06 1450.39 Q2124.82 1450.39 2126.6 1450.74 Q2128.41 1451.09 2130.35 1451.78 Z" fill="#000000" fill-rule="nonzero" fill-opacity="1" /><path clip-path="url(#clip500)" d="M1202.85 1553.98 L1202.85 1532.4 L1208.7 1532.4 L1208.7 1553.75 Q1208.7 1558.81 1210.68 1561.36 Q1212.65 1563.87 1216.6 1563.87 Q1221.34 1563.87 1224.08 1560.85 Q1226.85 1557.83 1226.85 1552.61 L1226.85 1532.4 L1232.7 1532.4 L1232.7 1568.04 L1226.85 1568.04 L1226.85 1562.57 Q1224.71 1565.82 1221.88 1567.41 Q1219.08 1568.97 1215.36 1568.97 Q1209.21 1568.97 1206.03 1565.15 Q1202.85 1561.33 1202.85 1553.98 M1217.58 1531.54 L1217.58 1531.54 Z" fill="#000000" fill-rule="nonzero" fill-opacity="1" /><path clip-path="url(#clip500)" d="M1244.22 1518.52 L1257.72 1518.52 L1257.72 1523.07 L1250.08 1523.07 L1250.08 1572.09 L1257.72 1572.09 L1257.72 1576.64 L1244.22 1576.64 L1244.22 1518.52 Z" fill="#000000" fill-rule="nonzero" fill-opacity="1" /><path clip-path="url(#clip500)" d="M1276.56 1562.63 L1299 1562.63 L1299 1568.04 L1268.83 1568.04 L1268.83 1562.63 Q1272.49 1558.85 1278.79 1552.48 Q1285.12 1546.08 1286.75 1544.24 Q1289.83 1540.77 1291.04 1538.38 Q1292.28 1535.96 1292.28 1533.64 Q1292.28 1529.85 1289.61 1527.46 Q1286.97 1525.08 1282.7 1525.08 Q1279.68 1525.08 1276.31 1526.13 Q1272.96 1527.18 1269.15 1529.31 L1269.15 1522.82 Q1273.03 1521.26 1276.4 1520.46 Q1279.78 1519.66 1282.58 1519.66 Q1289.96 1519.66 1294.35 1523.36 Q1298.75 1527.05 1298.75 1533.22 Q1298.75 1536.15 1297.63 1538.79 Q1296.55 1541.4 1293.65 1544.97 Q1292.86 1545.89 1288.59 1550.32 Q1284.33 1554.71 1276.56 1562.63 Z" fill="#000000" fill-rule="nonzero" fill-opacity="1" /><path clip-path="url(#clip500)" d="M1325.35 1518.52 L1325.35 1576.64 L1311.86 1576.64 L1311.86 1572.09 L1319.47 1572.09 L1319.47 1523.07 L1311.86 1523.07 L1311.86 1518.52 L1325.35 1518.52 Z" fill="#000000" fill-rule="nonzero" fill-opacity="1" /><polyline clip-path="url(#clip502)" style="stroke:#000000; stroke-linecap:round; stroke-linejoin:round; stroke-width:2; stroke-opacity:0.1; fill:none" points="175.445,1101.02 2352.76,1101.02 "/>
<polyline clip-path="url(#clip502)" style="stroke:#000000; stroke-linecap:round; stroke-linejoin:round; stroke-width:2; stroke-opacity:0.1; fill:none" points="175.445,766.953 2352.76,766.953 "/>
<polyline clip-path="url(#clip502)" style="stroke:#000000; stroke-linecap:round; stroke-linejoin:round; stroke-width:2; stroke-opacity:0.1; fill:none" points="175.445,432.883 2352.76,432.883 "/>
<polyline clip-path="url(#clip502)" style="stroke:#000000; stroke-linecap:round; stroke-linejoin:round; stroke-width:2; stroke-opacity:0.1; fill:none" points="175.445,98.8136 2352.76,98.8136 "/>
<polyline clip-path="url(#clip500)" style="stroke:#000000; stroke-linecap:round; stroke-linejoin:round; stroke-width:4; stroke-opacity:1; fill:none" points="175.445,1423.18 175.445,47.2441 "/>
<polyline clip-path="url(#clip500)" style="stroke:#000000; stroke-linecap:round; stroke-linejoin:round; stroke-width:4; stroke-opacity:1; fill:none" points="175.445,1101.02 194.343,1101.02 "/>
<polyline clip-path="url(#clip500)" style="stroke:#000000; stroke-linecap:round; stroke-linejoin:round; stroke-width:4; stroke-opacity:1; fill:none" points="175.445,766.953 194.343,766.953 "/>
<polyline clip-path="url(#clip500)" style="stroke:#000000; stroke-linecap:round; stroke-linejoin:round; stroke-width:4; stroke-opacity:1; fill:none" points="175.445,432.883 194.343,432.883 "/>
<polyline clip-path="url(#clip500)" style="stroke:#000000; stroke-linecap:round; stroke-linejoin:round; stroke-width:4; stroke-opacity:1; fill:none" points="175.445,98.8136 194.343,98.8136 "/>
<path clip-path="url(#clip500)" d="M119.538 1114.37 L127.177 1114.37 L127.177 1088 L118.867 1089.67 L118.867 1085.41 L127.13 1083.74 L131.806 1083.74 L131.806 1114.37 L139.445 1114.37 L139.445 1118.3 L119.538 1118.3 L119.538 1114.37 Z" fill="#000000" fill-rule="nonzero" fill-opacity="1" /><path clip-path="url(#clip500)" d="M123.126 780.298 L139.445 780.298 L139.445 784.233 L117.501 784.233 L117.501 780.298 Q120.163 777.543 124.746 772.914 Q129.353 768.261 130.533 766.919 Q132.779 764.395 133.658 762.659 Q134.561 760.9 134.561 759.21 Q134.561 756.456 132.617 754.719 Q130.695 752.983 127.593 752.983 Q125.394 752.983 122.941 753.747 Q120.51 754.511 117.732 756.062 L117.732 751.34 Q120.556 750.206 123.01 749.627 Q125.464 749.048 127.501 749.048 Q132.871 749.048 136.066 751.733 Q139.26 754.419 139.26 758.909 Q139.26 761.039 138.45 762.96 Q137.663 764.858 135.556 767.451 Q134.978 768.122 131.876 771.34 Q128.774 774.534 123.126 780.298 Z" fill="#000000" fill-rule="nonzero" fill-opacity="1" /><path clip-path="url(#clip500)" d="M132.316 431.529 Q135.672 432.247 137.547 434.515 Q139.445 436.784 139.445 440.117 Q139.445 445.233 135.927 448.034 Q132.408 450.835 125.927 450.835 Q123.751 450.835 121.436 450.395 Q119.144 449.978 116.691 449.122 L116.691 444.608 Q118.635 445.742 120.95 446.321 Q123.265 446.9 125.788 446.9 Q130.186 446.9 132.478 445.163 Q134.792 443.427 134.792 440.117 Q134.792 437.062 132.64 435.349 Q130.51 433.613 126.691 433.613 L122.663 433.613 L122.663 429.77 L126.876 429.77 Q130.325 429.77 132.154 428.404 Q133.982 427.015 133.982 424.423 Q133.982 421.761 132.084 420.349 Q130.209 418.914 126.691 418.914 Q124.769 418.914 122.57 419.33 Q120.371 419.747 117.732 420.627 L117.732 416.46 Q120.394 415.719 122.709 415.349 Q125.047 414.978 127.107 414.978 Q132.431 414.978 135.533 417.409 Q138.635 419.816 138.635 423.937 Q138.635 426.807 136.992 428.798 Q135.348 430.765 132.316 431.529 Z" fill="#000000" fill-rule="nonzero" fill-opacity="1" /><path clip-path="url(#clip500)" d="M129.862 85.6077 L118.056 104.057 L129.862 104.057 L129.862 85.6077 M128.635 81.5336 L134.515 81.5336 L134.515 104.057 L139.445 104.057 L139.445 107.946 L134.515 107.946 L134.515 116.094 L129.862 116.094 L129.862 107.946 L114.26 107.946 L114.26 103.432 L128.635 81.5336 Z" fill="#000000" fill-rule="nonzero" fill-opacity="1" /><path clip-path="url(#clip500)" d="M49.9359 796.466 L28.3562 796.466 L28.3562 790.61 L49.7131 790.61 Q54.7739 790.61 57.3202 788.636 Q59.8346 786.663 59.8346 782.716 Q59.8346 777.974 56.8109 775.236 Q53.7872 772.467 48.5673 772.467 L28.3562 772.467 L28.3562 766.611 L64.0042 766.611 L64.0042 772.467 L58.5296 772.467 Q61.7762 774.6 63.3676 777.433 Q64.9272 780.233 64.9272 783.957 Q64.9272 790.1 61.1078 793.283 Q57.2883 796.466 49.9359 796.466 M27.4968 781.729 L27.4968 781.729 Z" fill="#000000" fill-rule="nonzero" fill-opacity="1" /><path clip-path="url(#clip500)" d="M14.479 755.089 L14.479 741.594 L19.0304 741.594 L19.0304 749.232 L68.0464 749.232 L68.0464 741.594 L72.5979 741.594 L72.5979 755.089 L14.479 755.089 Z" fill="#000000" fill-rule="nonzero" fill-opacity="1" /><path clip-path="url(#clip500)" d="M58.5933 727.175 L58.5933 716.672 L22.3406 716.672 L24.6323 728.098 L18.7758 728.098 L16.4842 716.736 L16.4842 710.306 L58.5933 710.306 L58.5933 699.803 L64.0042 699.803 L64.0042 727.175 L58.5933 727.175 Z" fill="#000000" fill-rule="nonzero" fill-opacity="1" /><path clip-path="url(#clip500)" d="M14.479 673.958 L72.5979 673.958 L72.5979 687.453 L68.0464 687.453 L68.0464 679.846 L19.0304 679.846 L19.0304 687.453 L14.479 687.453 L14.479 673.958 Z" fill="#000000" fill-rule="nonzero" fill-opacity="1" /><circle clip-path="url(#clip502)" cx="834.279" cy="933.988" r="14.4" fill="#009af9" fill-rule="evenodd" fill-opacity="1" stroke="#000000" stroke-opacity="1" stroke-width="3.2"/>
<circle clip-path="url(#clip502)" cx="872.87" cy="946.516" r="14.4" fill="#009af9" fill-rule="evenodd" fill-opacity="1" stroke="#000000" stroke-opacity="1" stroke-width="3.2"/>
<circle clip-path="url(#clip502)" cx="910.352" cy="964.227" r="14.4" fill="#009af9" fill-rule="evenodd" fill-opacity="1" stroke="#000000" stroke-opacity="1" stroke-width="3.2"/>
<circle clip-path="url(#clip502)" cx="945.073" cy="986.441" r="14.4" fill="#009af9" fill-rule="evenodd" fill-opacity="1" stroke="#000000" stroke-opacity="1" stroke-width="3.2"/>
<circle clip-path="url(#clip502)" cx="975.346" cy="1012.15" r="14.4" fill="#009af9" fill-rule="evenodd" fill-opacity="1" stroke="#000000" stroke-opacity="1" stroke-width="3.2"/>
<circle clip-path="url(#clip502)" cx="999.633" cy="1040.11" r="14.4" fill="#009af9" fill-rule="evenodd" fill-opacity="1" stroke="#000000" stroke-opacity="1" stroke-width="3.2"/>
<circle clip-path="url(#clip502)" cx="1016.72" cy="1069.03" r="14.4" fill="#009af9" fill-rule="evenodd" fill-opacity="1" stroke="#000000" stroke-opacity="1" stroke-width="3.2"/>
<circle clip-path="url(#clip502)" cx="1025.86" cy="1097.65" r="14.4" fill="#009af9" fill-rule="evenodd" fill-opacity="1" stroke="#000000" stroke-opacity="1" stroke-width="3.2"/>
<circle clip-path="url(#clip502)" cx="1026.83" cy="1124.93" r="14.4" fill="#009af9" fill-rule="evenodd" fill-opacity="1" stroke="#000000" stroke-opacity="1" stroke-width="3.2"/>
<circle clip-path="url(#clip502)" cx="1019.93" cy="1150.09" r="14.4" fill="#009af9" fill-rule="evenodd" fill-opacity="1" stroke="#000000" stroke-opacity="1" stroke-width="3.2"/>
<circle clip-path="url(#clip502)" cx="1005.87" cy="1172.64" r="14.4" fill="#009af9" fill-rule="evenodd" fill-opacity="1" stroke="#000000" stroke-opacity="1" stroke-width="3.2"/>
<circle clip-path="url(#clip502)" cx="985.641" cy="1192.33" r="14.4" fill="#009af9" fill-rule="evenodd" fill-opacity="1" stroke="#000000" stroke-opacity="1" stroke-width="3.2"/>
<circle clip-path="url(#clip502)" cx="960.408" cy="1209.11" r="14.4" fill="#009af9" fill-rule="evenodd" fill-opacity="1" stroke="#000000" stroke-opacity="1" stroke-width="3.2"/>
<circle clip-path="url(#clip502)" cx="931.354" cy="1223.07" r="14.4" fill="#009af9" fill-rule="evenodd" fill-opacity="1" stroke="#000000" stroke-opacity="1" stroke-width="3.2"/>
<circle clip-path="url(#clip502)" cx="899.609" cy="1234.37" r="14.4" fill="#009af9" fill-rule="evenodd" fill-opacity="1" stroke="#000000" stroke-opacity="1" stroke-width="3.2"/>
<circle clip-path="url(#clip502)" cx="866.193" cy="1243.21" r="14.4" fill="#009af9" fill-rule="evenodd" fill-opacity="1" stroke="#000000" stroke-opacity="1" stroke-width="3.2"/>
<circle clip-path="url(#clip502)" cx="831.983" cy="1249.79" r="14.4" fill="#009af9" fill-rule="evenodd" fill-opacity="1" stroke="#000000" stroke-opacity="1" stroke-width="3.2"/>
<circle clip-path="url(#clip502)" cx="797.713" cy="1254.3" r="14.4" fill="#009af9" fill-rule="evenodd" fill-opacity="1" stroke="#000000" stroke-opacity="1" stroke-width="3.2"/>
<circle clip-path="url(#clip502)" cx="763.977" cy="1256.9" r="14.4" fill="#009af9" fill-rule="evenodd" fill-opacity="1" stroke="#000000" stroke-opacity="1" stroke-width="3.2"/>
<circle clip-path="url(#clip502)" cx="731.244" cy="1257.7" r="14.4" fill="#009af9" fill-rule="evenodd" fill-opacity="1" stroke="#000000" stroke-opacity="1" stroke-width="3.2"/>
<circle clip-path="url(#clip502)" cx="699.878" cy="1256.81" r="14.4" fill="#009af9" fill-rule="evenodd" fill-opacity="1" stroke="#000000" stroke-opacity="1" stroke-width="3.2"/>
<circle clip-path="url(#clip502)" cx="670.154" cy="1254.28" r="14.4" fill="#009af9" fill-rule="evenodd" fill-opacity="1" stroke="#000000" stroke-opacity="1" stroke-width="3.2"/>
<circle clip-path="url(#clip502)" cx="642.275" cy="1250.15" r="14.4" fill="#009af9" fill-rule="evenodd" fill-opacity="1" stroke="#000000" stroke-opacity="1" stroke-width="3.2"/>
<circle clip-path="url(#clip502)" cx="616.392" cy="1244.42" r="14.4" fill="#009af9" fill-rule="evenodd" fill-opacity="1" stroke="#000000" stroke-opacity="1" stroke-width="3.2"/>
<circle clip-path="url(#clip502)" cx="592.615" cy="1237.07" r="14.4" fill="#009af9" fill-rule="evenodd" fill-opacity="1" stroke="#000000" stroke-opacity="1" stroke-width="3.2"/>
<circle clip-path="url(#clip502)" cx="571.023" cy="1228.08" r="14.4" fill="#009af9" fill-rule="evenodd" fill-opacity="1" stroke="#000000" stroke-opacity="1" stroke-width="3.2"/>
<circle clip-path="url(#clip502)" cx="551.681" cy="1217.36" r="14.4" fill="#009af9" fill-rule="evenodd" fill-opacity="1" stroke="#000000" stroke-opacity="1" stroke-width="3.2"/>
<circle clip-path="url(#clip502)" cx="534.644" cy="1204.87" r="14.4" fill="#009af9" fill-rule="evenodd" fill-opacity="1" stroke="#000000" stroke-opacity="1" stroke-width="3.2"/>
<circle clip-path="url(#clip502)" cx="519.965" cy="1190.52" r="14.4" fill="#009af9" fill-rule="evenodd" fill-opacity="1" stroke="#000000" stroke-opacity="1" stroke-width="3.2"/>
<circle clip-path="url(#clip502)" cx="507.709" cy="1174.22" r="14.4" fill="#009af9" fill-rule="evenodd" fill-opacity="1" stroke="#000000" stroke-opacity="1" stroke-width="3.2"/>
<circle clip-path="url(#clip502)" cx="497.953" cy="1155.91" r="14.4" fill="#009af9" fill-rule="evenodd" fill-opacity="1" stroke="#000000" stroke-opacity="1" stroke-width="3.2"/>
<circle clip-path="url(#clip502)" cx="490.798" cy="1135.51" r="14.4" fill="#009af9" fill-rule="evenodd" fill-opacity="1" stroke="#000000" stroke-opacity="1" stroke-width="3.2"/>
<circle clip-path="url(#clip502)" cx="486.375" cy="1113.01" r="14.4" fill="#009af9" fill-rule="evenodd" fill-opacity="1" stroke="#000000" stroke-opacity="1" stroke-width="3.2"/>
<circle clip-path="url(#clip502)" cx="484.854" cy="1088.39" r="14.4" fill="#009af9" fill-rule="evenodd" fill-opacity="1" stroke="#000000" stroke-opacity="1" stroke-width="3.2"/>
<circle clip-path="url(#clip502)" cx="486.451" cy="1061.75" r="14.4" fill="#009af9" fill-rule="evenodd" fill-opacity="1" stroke="#000000" stroke-opacity="1" stroke-width="3.2"/>
<circle clip-path="url(#clip502)" cx="491.436" cy="1033.22" r="14.4" fill="#009af9" fill-rule="evenodd" fill-opacity="1" stroke="#000000" stroke-opacity="1" stroke-width="3.2"/>
<circle clip-path="url(#clip502)" cx="500.142" cy="1003.11" r="14.4" fill="#009af9" fill-rule="evenodd" fill-opacity="1" stroke="#000000" stroke-opacity="1" stroke-width="3.2"/>
<circle clip-path="url(#clip502)" cx="512.971" cy="971.829" r="14.4" fill="#009af9" fill-rule="evenodd" fill-opacity="1" stroke="#000000" stroke-opacity="1" stroke-width="3.2"/>
<circle clip-path="url(#clip502)" cx="530.395" cy="940.018" r="14.4" fill="#009af9" fill-rule="evenodd" fill-opacity="1" stroke="#000000" stroke-opacity="1" stroke-width="3.2"/>
<circle clip-path="url(#clip502)" cx="552.947" cy="908.538" r="14.4" fill="#009af9" fill-rule="evenodd" fill-opacity="1" stroke="#000000" stroke-opacity="1" stroke-width="3.2"/>
<circle clip-path="url(#clip502)" cx="581.209" cy="878.518" r="14.4" fill="#009af9" fill-rule="evenodd" fill-opacity="1" stroke="#000000" stroke-opacity="1" stroke-width="3.2"/>
<circle clip-path="url(#clip502)" cx="615.761" cy="851.373" r="14.4" fill="#009af9" fill-rule="evenodd" fill-opacity="1" stroke="#000000" stroke-opacity="1" stroke-width="3.2"/>
<circle clip-path="url(#clip502)" cx="657.11" cy="828.782" r="14.4" fill="#009af9" fill-rule="evenodd" fill-opacity="1" stroke="#000000" stroke-opacity="1" stroke-width="3.2"/>
<circle clip-path="url(#clip502)" cx="705.571" cy="812.626" r="14.4" fill="#009af9" fill-rule="evenodd" fill-opacity="1" stroke="#000000" stroke-opacity="1" stroke-width="3.2"/>
<circle clip-path="url(#clip502)" cx="761.091" cy="804.832" r="14.4" fill="#009af9" fill-rule="evenodd" fill-opacity="1" stroke="#000000" stroke-opacity="1" stroke-width="3.2"/>
<circle clip-path="url(#clip502)" cx="823.034" cy="807.142" r="14.4" fill="#009af9" fill-rule="evenodd" fill-opacity="1" stroke="#000000" stroke-opacity="1" stroke-width="3.2"/>
<circle clip-path="url(#clip502)" cx="889.942" cy="820.782" r="14.4" fill="#009af9" fill-rule="evenodd" fill-opacity="1" stroke="#000000" stroke-opacity="1" stroke-width="3.2"/>
<circle clip-path="url(#clip502)" cx="959.359" cy="846.108" r="14.4" fill="#009af9" fill-rule="evenodd" fill-opacity="1" stroke="#000000" stroke-opacity="1" stroke-width="3.2"/>
<circle clip-path="url(#clip502)" cx="1027.8" cy="882.309" r="14.4" fill="#009af9" fill-rule="evenodd" fill-opacity="1" stroke="#000000" stroke-opacity="1" stroke-width="3.2"/>
<circle clip-path="url(#clip502)" cx="1091" cy="927.313" r="14.4" fill="#009af9" fill-rule="evenodd" fill-opacity="1" stroke="#000000" stroke-opacity="1" stroke-width="3.2"/>
<circle clip-path="url(#clip502)" cx="1144.48" cy="978.009" r="14.4" fill="#009af9" fill-rule="evenodd" fill-opacity="1" stroke="#000000" stroke-opacity="1" stroke-width="3.2"/>
<circle clip-path="url(#clip502)" cx="1184.33" cy="1030.77" r="14.4" fill="#009af9" fill-rule="evenodd" fill-opacity="1" stroke="#000000" stroke-opacity="1" stroke-width="3.2"/>
<circle clip-path="url(#clip502)" cx="1207.92" cy="1082.14" r="14.4" fill="#009af9" fill-rule="evenodd" fill-opacity="1" stroke="#000000" stroke-opacity="1" stroke-width="3.2"/>
<circle clip-path="url(#clip502)" cx="1214.4" cy="1129.4" r="14.4" fill="#009af9" fill-rule="evenodd" fill-opacity="1" stroke="#000000" stroke-opacity="1" stroke-width="3.2"/>
<circle clip-path="url(#clip502)" cx="1204.61" cy="1170.92" r="14.4" fill="#009af9" fill-rule="evenodd" fill-opacity="1" stroke="#000000" stroke-opacity="1" stroke-width="3.2"/>
<circle clip-path="url(#clip502)" cx="1180.71" cy="1206.04" r="14.4" fill="#009af9" fill-rule="evenodd" fill-opacity="1" stroke="#000000" stroke-opacity="1" stroke-width="3.2"/>
<circle clip-path="url(#clip502)" cx="1145.56" cy="1234.9" r="14.4" fill="#009af9" fill-rule="evenodd" fill-opacity="1" stroke="#000000" stroke-opacity="1" stroke-width="3.2"/>
<circle clip-path="url(#clip502)" cx="1102.15" cy="1258.07" r="14.4" fill="#009af9" fill-rule="evenodd" fill-opacity="1" stroke="#000000" stroke-opacity="1" stroke-width="3.2"/>
<circle clip-path="url(#clip502)" cx="1053.27" cy="1276.32" r="14.4" fill="#009af9" fill-rule="evenodd" fill-opacity="1" stroke="#000000" stroke-opacity="1" stroke-width="3.2"/>
<circle clip-path="url(#clip502)" cx="1001.28" cy="1290.43" r="14.4" fill="#009af9" fill-rule="evenodd" fill-opacity="1" stroke="#000000" stroke-opacity="1" stroke-width="3.2"/>
<circle clip-path="url(#clip502)" cx="948.054" cy="1301.09" r="14.4" fill="#009af9" fill-rule="evenodd" fill-opacity="1" stroke="#000000" stroke-opacity="1" stroke-width="3.2"/>
<circle clip-path="url(#clip502)" cx="895.018" cy="1308.88" r="14.4" fill="#009af9" fill-rule="evenodd" fill-opacity="1" stroke="#000000" stroke-opacity="1" stroke-width="3.2"/>
<circle clip-path="url(#clip502)" cx="843.216" cy="1314.27" r="14.4" fill="#009af9" fill-rule="evenodd" fill-opacity="1" stroke="#000000" stroke-opacity="1" stroke-width="3.2"/>
<circle clip-path="url(#clip502)" cx="793.377" cy="1317.61" r="14.4" fill="#009af9" fill-rule="evenodd" fill-opacity="1" stroke="#000000" stroke-opacity="1" stroke-width="3.2"/>
<circle clip-path="url(#clip502)" cx="745.989" cy="1319.14" r="14.4" fill="#009af9" fill-rule="evenodd" fill-opacity="1" stroke="#000000" stroke-opacity="1" stroke-width="3.2"/>
<circle clip-path="url(#clip502)" cx="701.36" cy="1319.06" r="14.4" fill="#009af9" fill-rule="evenodd" fill-opacity="1" stroke="#000000" stroke-opacity="1" stroke-width="3.2"/>
<circle clip-path="url(#clip502)" cx="659.66" cy="1317.46" r="14.4" fill="#009af9" fill-rule="evenodd" fill-opacity="1" stroke="#000000" stroke-opacity="1" stroke-width="3.2"/>
<circle clip-path="url(#clip502)" cx="620.968" cy="1314.41" r="14.4" fill="#009af9" fill-rule="evenodd" fill-opacity="1" stroke="#000000" stroke-opacity="1" stroke-width="3.2"/>
<circle clip-path="url(#clip502)" cx="585.292" cy="1309.93" r="14.4" fill="#009af9" fill-rule="evenodd" fill-opacity="1" stroke="#000000" stroke-opacity="1" stroke-width="3.2"/>
<circle clip-path="url(#clip502)" cx="552.596" cy="1303.97" r="14.4" fill="#009af9" fill-rule="evenodd" fill-opacity="1" stroke="#000000" stroke-opacity="1" stroke-width="3.2"/>
<circle clip-path="url(#clip502)" cx="522.82" cy="1296.48" r="14.4" fill="#009af9" fill-rule="evenodd" fill-opacity="1" stroke="#000000" stroke-opacity="1" stroke-width="3.2"/>
<circle clip-path="url(#clip502)" cx="495.884" cy="1287.36" r="14.4" fill="#009af9" fill-rule="evenodd" fill-opacity="1" stroke="#000000" stroke-opacity="1" stroke-width="3.2"/>
<circle clip-path="url(#clip502)" cx="471.707" cy="1276.48" r="14.4" fill="#009af9" fill-rule="evenodd" fill-opacity="1" stroke="#000000" stroke-opacity="1" stroke-width="3.2"/>
<circle clip-path="url(#clip502)" cx="450.212" cy="1263.68" r="14.4" fill="#009af9" fill-rule="evenodd" fill-opacity="1" stroke="#000000" stroke-opacity="1" stroke-width="3.2"/>
<circle clip-path="url(#clip502)" cx="431.331" cy="1248.78" r="14.4" fill="#009af9" fill-rule="evenodd" fill-opacity="1" stroke="#000000" stroke-opacity="1" stroke-width="3.2"/>
<circle clip-path="url(#clip502)" cx="415.016" cy="1231.55" r="14.4" fill="#009af9" fill-rule="evenodd" fill-opacity="1" stroke="#000000" stroke-opacity="1" stroke-width="3.2"/>
<circle clip-path="url(#clip502)" cx="401.241" cy="1211.76" r="14.4" fill="#009af9" fill-rule="evenodd" fill-opacity="1" stroke="#000000" stroke-opacity="1" stroke-width="3.2"/>
<circle clip-path="url(#clip502)" cx="390.01" cy="1189.15" r="14.4" fill="#009af9" fill-rule="evenodd" fill-opacity="1" stroke="#000000" stroke-opacity="1" stroke-width="3.2"/>
<circle clip-path="url(#clip502)" cx="381.369" cy="1163.45" r="14.4" fill="#009af9" fill-rule="evenodd" fill-opacity="1" stroke="#000000" stroke-opacity="1" stroke-width="3.2"/>
<circle clip-path="url(#clip502)" cx="375.409" cy="1134.38" r="14.4" fill="#009af9" fill-rule="evenodd" fill-opacity="1" stroke="#000000" stroke-opacity="1" stroke-width="3.2"/>
<circle clip-path="url(#clip502)" cx="372.285" cy="1101.67" r="14.4" fill="#009af9" fill-rule="evenodd" fill-opacity="1" stroke="#000000" stroke-opacity="1" stroke-width="3.2"/>
<circle clip-path="url(#clip502)" cx="372.225" cy="1065.1" r="14.4" fill="#009af9" fill-rule="evenodd" fill-opacity="1" stroke="#000000" stroke-opacity="1" stroke-width="3.2"/>
<circle clip-path="url(#clip502)" cx="375.556" cy="1024.51" r="14.4" fill="#009af9" fill-rule="evenodd" fill-opacity="1" stroke="#000000" stroke-opacity="1" stroke-width="3.2"/>
<circle clip-path="url(#clip502)" cx="382.727" cy="979.871" r="14.4" fill="#009af9" fill-rule="evenodd" fill-opacity="1" stroke="#000000" stroke-opacity="1" stroke-width="3.2"/>
<circle clip-path="url(#clip502)" cx="394.343" cy="931.329" r="14.4" fill="#009af9" fill-rule="evenodd" fill-opacity="1" stroke="#000000" stroke-opacity="1" stroke-width="3.2"/>
<circle clip-path="url(#clip502)" cx="411.202" cy="879.317" r="14.4" fill="#009af9" fill-rule="evenodd" fill-opacity="1" stroke="#000000" stroke-opacity="1" stroke-width="3.2"/>
<circle clip-path="url(#clip502)" cx="434.347" cy="824.666" r="14.4" fill="#009af9" fill-rule="evenodd" fill-opacity="1" stroke="#000000" stroke-opacity="1" stroke-width="3.2"/>
<circle clip-path="url(#clip502)" cx="465.112" cy="768.759" r="14.4" fill="#009af9" fill-rule="evenodd" fill-opacity="1" stroke="#000000" stroke-opacity="1" stroke-width="3.2"/>
<circle clip-path="url(#clip502)" cx="505.161" cy="713.709" r="14.4" fill="#009af9" fill-rule="evenodd" fill-opacity="1" stroke="#000000" stroke-opacity="1" stroke-width="3.2"/>
<circle clip-path="url(#clip502)" cx="556.489" cy="662.532" r="14.4" fill="#009af9" fill-rule="evenodd" fill-opacity="1" stroke="#000000" stroke-opacity="1" stroke-width="3.2"/>
<circle clip-path="url(#clip502)" cx="621.335" cy="619.285" r="14.4" fill="#009af9" fill-rule="evenodd" fill-opacity="1" stroke="#000000" stroke-opacity="1" stroke-width="3.2"/>
<circle clip-path="url(#clip502)" cx="701.929" cy="589.038" r="14.4" fill="#009af9" fill-rule="evenodd" fill-opacity="1" stroke="#000000" stroke-opacity="1" stroke-width="3.2"/>
<circle clip-path="url(#clip502)" cx="799.934" cy="577.547" r="14.4" fill="#009af9" fill-rule="evenodd" fill-opacity="1" stroke="#000000" stroke-opacity="1" stroke-width="3.2"/>
<circle clip-path="url(#clip502)" cx="915.496" cy="590.4" r="14.4" fill="#009af9" fill-rule="evenodd" fill-opacity="1" stroke="#000000" stroke-opacity="1" stroke-width="3.2"/>
<circle clip-path="url(#clip502)" cx="1045.88" cy="631.516" r="14.4" fill="#009af9" fill-rule="evenodd" fill-opacity="1" stroke="#000000" stroke-opacity="1" stroke-width="3.2"/>
<circle clip-path="url(#clip502)" cx="1184.1" cy="701.175" r="14.4" fill="#009af9" fill-rule="evenodd" fill-opacity="1" stroke="#000000" stroke-opacity="1" stroke-width="3.2"/>
<circle clip-path="url(#clip502)" cx="1318.35" cy="794.366" r="14.4" fill="#009af9" fill-rule="evenodd" fill-opacity="1" stroke="#000000" stroke-opacity="1" stroke-width="3.2"/>
<circle clip-path="url(#clip502)" cx="1433.63" cy="900.799" r="14.4" fill="#009af9" fill-rule="evenodd" fill-opacity="1" stroke="#000000" stroke-opacity="1" stroke-width="3.2"/>
<circle clip-path="url(#clip502)" cx="1515.82" cy="1007.51" r="14.4" fill="#009af9" fill-rule="evenodd" fill-opacity="1" stroke="#000000" stroke-opacity="1" stroke-width="3.2"/>
<circle clip-path="url(#clip502)" cx="1556.5" cy="1103.15" r="14.4" fill="#009af9" fill-rule="evenodd" fill-opacity="1" stroke="#000000" stroke-opacity="1" stroke-width="3.2"/>
<circle clip-path="url(#clip502)" cx="1555.55" cy="1181.33" r="14.4" fill="#009af9" fill-rule="evenodd" fill-opacity="1" stroke="#000000" stroke-opacity="1" stroke-width="3.2"/>
<circle clip-path="url(#clip502)" cx="1519.65" cy="1241.03" r="14.4" fill="#009af9" fill-rule="evenodd" fill-opacity="1" stroke="#000000" stroke-opacity="1" stroke-width="3.2"/>
<circle clip-path="url(#clip502)" cx="1458.58" cy="1284.66" r="14.4" fill="#009af9" fill-rule="evenodd" fill-opacity="1" stroke="#000000" stroke-opacity="1" stroke-width="3.2"/>
<circle clip-path="url(#clip502)" cx="1381.84" cy="1315.8" r="14.4" fill="#009af9" fill-rule="evenodd" fill-opacity="1" stroke="#000000" stroke-opacity="1" stroke-width="3.2"/>
<circle clip-path="url(#clip502)" cx="1297.01" cy="1337.82" r="14.4" fill="#009af9" fill-rule="evenodd" fill-opacity="1" stroke="#000000" stroke-opacity="1" stroke-width="3.2"/>
<circle clip-path="url(#clip502)" cx="1209.5" cy="1353.37" r="14.4" fill="#009af9" fill-rule="evenodd" fill-opacity="1" stroke="#000000" stroke-opacity="1" stroke-width="3.2"/>
<circle clip-path="url(#clip502)" cx="1122.86" cy="1364.36" r="14.4" fill="#009af9" fill-rule="evenodd" fill-opacity="1" stroke="#000000" stroke-opacity="1" stroke-width="3.2"/>
<circle clip-path="url(#clip502)" cx="1039.27" cy="1372.07" r="14.4" fill="#009af9" fill-rule="evenodd" fill-opacity="1" stroke="#000000" stroke-opacity="1" stroke-width="3.2"/>
<circle clip-path="url(#clip502)" cx="960.013" cy="1377.42" r="14.4" fill="#009af9" fill-rule="evenodd" fill-opacity="1" stroke="#000000" stroke-opacity="1" stroke-width="3.2"/>
<circle clip-path="url(#clip502)" cx="885.753" cy="1380.97" r="14.4" fill="#009af9" fill-rule="evenodd" fill-opacity="1" stroke="#000000" stroke-opacity="1" stroke-width="3.2"/>
<circle clip-path="url(#clip502)" cx="816.76" cy="1383.14" r="14.4" fill="#009af9" fill-rule="evenodd" fill-opacity="1" stroke="#000000" stroke-opacity="1" stroke-width="3.2"/>
<circle clip-path="url(#clip502)" cx="753.06" cy="1384.17" r="14.4" fill="#009af9" fill-rule="evenodd" fill-opacity="1" stroke="#000000" stroke-opacity="1" stroke-width="3.2"/>
<circle clip-path="url(#clip502)" cx="694.526" cy="1384.24" r="14.4" fill="#009af9" fill-rule="evenodd" fill-opacity="1" stroke="#000000" stroke-opacity="1" stroke-width="3.2"/>
<circle clip-path="url(#clip502)" cx="640.94" cy="1383.44" r="14.4" fill="#009af9" fill-rule="evenodd" fill-opacity="1" stroke="#000000" stroke-opacity="1" stroke-width="3.2"/>
<circle clip-path="url(#clip502)" cx="592.035" cy="1381.82" r="14.4" fill="#009af9" fill-rule="evenodd" fill-opacity="1" stroke="#000000" stroke-opacity="1" stroke-width="3.2"/>
<circle clip-path="url(#clip502)" cx="547.522" cy="1379.39" r="14.4" fill="#009af9" fill-rule="evenodd" fill-opacity="1" stroke="#000000" stroke-opacity="1" stroke-width="3.2"/>
<circle clip-path="url(#clip502)" cx="507.103" cy="1376.12" r="14.4" fill="#009af9" fill-rule="evenodd" fill-opacity="1" stroke="#000000" stroke-opacity="1" stroke-width="3.2"/>
<circle clip-path="url(#clip502)" cx="470.486" cy="1371.97" r="14.4" fill="#009af9" fill-rule="evenodd" fill-opacity="1" stroke="#000000" stroke-opacity="1" stroke-width="3.2"/>
<circle clip-path="url(#clip502)" cx="437.391" cy="1366.86" r="14.4" fill="#009af9" fill-rule="evenodd" fill-opacity="1" stroke="#000000" stroke-opacity="1" stroke-width="3.2"/>
<circle clip-path="url(#clip502)" cx="407.555" cy="1360.67" r="14.4" fill="#009af9" fill-rule="evenodd" fill-opacity="1" stroke="#000000" stroke-opacity="1" stroke-width="3.2"/>
<circle clip-path="url(#clip502)" cx="380.733" cy="1353.27" r="14.4" fill="#009af9" fill-rule="evenodd" fill-opacity="1" stroke="#000000" stroke-opacity="1" stroke-width="3.2"/>
<circle clip-path="url(#clip502)" cx="356.699" cy="1344.5" r="14.4" fill="#009af9" fill-rule="evenodd" fill-opacity="1" stroke="#000000" stroke-opacity="1" stroke-width="3.2"/>
<circle clip-path="url(#clip502)" cx="335.254" cy="1334.15" r="14.4" fill="#009af9" fill-rule="evenodd" fill-opacity="1" stroke="#000000" stroke-opacity="1" stroke-width="3.2"/>
<circle clip-path="url(#clip502)" cx="316.216" cy="1321.99" r="14.4" fill="#009af9" fill-rule="evenodd" fill-opacity="1" stroke="#000000" stroke-opacity="1" stroke-width="3.2"/>
<circle clip-path="url(#clip502)" cx="299.431" cy="1307.74" r="14.4" fill="#009af9" fill-rule="evenodd" fill-opacity="1" stroke="#000000" stroke-opacity="1" stroke-width="3.2"/>
<circle clip-path="url(#clip502)" cx="284.767" cy="1291.06" r="14.4" fill="#009af9" fill-rule="evenodd" fill-opacity="1" stroke="#000000" stroke-opacity="1" stroke-width="3.2"/>
<circle clip-path="url(#clip502)" cx="272.119" cy="1271.59" r="14.4" fill="#009af9" fill-rule="evenodd" fill-opacity="1" stroke="#000000" stroke-opacity="1" stroke-width="3.2"/>
<circle clip-path="url(#clip502)" cx="261.414" cy="1248.89" r="14.4" fill="#009af9" fill-rule="evenodd" fill-opacity="1" stroke="#000000" stroke-opacity="1" stroke-width="3.2"/>
<circle clip-path="url(#clip502)" cx="252.607" cy="1222.45" r="14.4" fill="#009af9" fill-rule="evenodd" fill-opacity="1" stroke="#000000" stroke-opacity="1" stroke-width="3.2"/>
<circle clip-path="url(#clip502)" cx="245.696" cy="1191.7" r="14.4" fill="#009af9" fill-rule="evenodd" fill-opacity="1" stroke="#000000" stroke-opacity="1" stroke-width="3.2"/>
<circle clip-path="url(#clip502)" cx="240.721" cy="1156.03" r="14.4" fill="#009af9" fill-rule="evenodd" fill-opacity="1" stroke="#000000" stroke-opacity="1" stroke-width="3.2"/>
<circle clip-path="url(#clip502)" cx="237.786" cy="1114.72" r="14.4" fill="#009af9" fill-rule="evenodd" fill-opacity="1" stroke="#000000" stroke-opacity="1" stroke-width="3.2"/>
<circle clip-path="url(#clip502)" cx="237.067" cy="1067.02" r="14.4" fill="#009af9" fill-rule="evenodd" fill-opacity="1" stroke="#000000" stroke-opacity="1" stroke-width="3.2"/>
<circle clip-path="url(#clip502)" cx="238.845" cy="1012.14" r="14.4" fill="#009af9" fill-rule="evenodd" fill-opacity="1" stroke="#000000" stroke-opacity="1" stroke-width="3.2"/>
<circle clip-path="url(#clip502)" cx="243.538" cy="949.3" r="14.4" fill="#009af9" fill-rule="evenodd" fill-opacity="1" stroke="#000000" stroke-opacity="1" stroke-width="3.2"/>
<circle clip-path="url(#clip502)" cx="251.762" cy="877.787" r="14.4" fill="#009af9" fill-rule="evenodd" fill-opacity="1" stroke="#000000" stroke-opacity="1" stroke-width="3.2"/>
<circle clip-path="url(#clip502)" cx="264.413" cy="797.083" r="14.4" fill="#009af9" fill-rule="evenodd" fill-opacity="1" stroke="#000000" stroke-opacity="1" stroke-width="3.2"/>
<circle clip-path="url(#clip502)" cx="282.788" cy="707.045" r="14.4" fill="#009af9" fill-rule="evenodd" fill-opacity="1" stroke="#000000" stroke-opacity="1" stroke-width="3.2"/>
<circle clip-path="url(#clip502)" cx="308.774" cy="608.2" r="14.4" fill="#009af9" fill-rule="evenodd" fill-opacity="1" stroke="#000000" stroke-opacity="1" stroke-width="3.2"/>
<circle clip-path="url(#clip502)" cx="345.113" cy="502.199" r="14.4" fill="#009af9" fill-rule="evenodd" fill-opacity="1" stroke="#000000" stroke-opacity="1" stroke-width="3.2"/>
<circle clip-path="url(#clip502)" cx="395.781" cy="392.491" r="14.4" fill="#009af9" fill-rule="evenodd" fill-opacity="1" stroke="#000000" stroke-opacity="1" stroke-width="3.2"/>
<circle clip-path="url(#clip502)" cx="466.478" cy="285.283" r="14.4" fill="#009af9" fill-rule="evenodd" fill-opacity="1" stroke="#000000" stroke-opacity="1" stroke-width="3.2"/>
<circle clip-path="url(#clip502)" cx="565.136" cy="190.747" r="14.4" fill="#009af9" fill-rule="evenodd" fill-opacity="1" stroke="#000000" stroke-opacity="1" stroke-width="3.2"/>
<circle clip-path="url(#clip502)" cx="702.11" cy="124.225" r="14.4" fill="#009af9" fill-rule="evenodd" fill-opacity="1" stroke="#000000" stroke-opacity="1" stroke-width="3.2"/>
<circle clip-path="url(#clip502)" cx="889.143" cy="106.49" r="14.4" fill="#009af9" fill-rule="evenodd" fill-opacity="1" stroke="#000000" stroke-opacity="1" stroke-width="3.2"/>
<circle clip-path="url(#clip502)" cx="1135.25" cy="160.955" r="14.4" fill="#009af9" fill-rule="evenodd" fill-opacity="1" stroke="#000000" stroke-opacity="1" stroke-width="3.2"/>
<circle clip-path="url(#clip502)" cx="1437.14" cy="304.599" r="14.4" fill="#009af9" fill-rule="evenodd" fill-opacity="1" stroke="#000000" stroke-opacity="1" stroke-width="3.2"/>
<circle clip-path="url(#clip502)" cx="1764.87" cy="531.537" r="14.4" fill="#009af9" fill-rule="evenodd" fill-opacity="1" stroke="#000000" stroke-opacity="1" stroke-width="3.2"/>
<circle clip-path="url(#clip502)" cx="2055.08" cy="799.242" r="14.4" fill="#009af9" fill-rule="evenodd" fill-opacity="1" stroke="#000000" stroke-opacity="1" stroke-width="3.2"/>
<circle clip-path="url(#clip502)" cx="2235.08" cy="1041.42" r="14.4" fill="#009af9" fill-rule="evenodd" fill-opacity="1" stroke="#000000" stroke-opacity="1" stroke-width="3.2"/>
<circle clip-path="url(#clip502)" cx="2273.84" cy="1212.02" r="14.4" fill="#009af9" fill-rule="evenodd" fill-opacity="1" stroke="#000000" stroke-opacity="1" stroke-width="3.2"/>
<polyline clip-path="url(#clip502)" style="stroke:#e26f46; stroke-linecap:round; stroke-linejoin:round; stroke-width:8; stroke-opacity:1; fill:none" points="834.279,933.988 840.15,935.533 846.026,937.206 851.902,939.006 857.774,940.932 863.634,942.983 869.479,945.157 875.303,947.454 881.099,949.872 886.863,952.407 892.587,955.06 898.267,957.826 903.896,960.703 909.468,963.69 914.977,966.781 920.417,969.976 925.782,973.27 931.066,976.659 936.263,980.14 941.366,983.71 946.369,987.364 951.268,991.098 956.055,994.908 960.725,998.79 965.272,1002.74 969.691,1006.75 973.977,1010.82 978.123,1014.94 982.126,1019.11 985.981,1023.32 989.683,1027.58 993.227,1031.86 996.611,1036.18 999.83,1040.52 1002.88,1044.88 1005.76,1049.26 1008.46,1053.65 1010.99,1058.05 1013.33,1062.44 1015.49,1066.84 1017.47,1071.23 1019.27,1075.61 1020.87,1079.97 1022.29,1084.32 1023.53,1088.64 1024.57,1092.94 1025.42,1097.21 1026.09,1101.45 1026.57,1105.65 1026.85,1109.82 1026.96,1113.94 1026.87,1118.02 1026.6,1122.05 1026.15,1126.03 1025.52,1129.96 1024.7,1133.84 1023.71,1137.66 1022.55,1141.43 1021.21,1145.13 1019.71,1148.78 1018.04,1152.37 1016.21,1155.89 1014.22,1159.35 1012.08,1162.75 1009.79,1166.09 1007.35,1169.36 1004.78,1172.56 1002.06,1175.7 999.21,1178.77 996.228,1181.77 993.119,1184.71 989.887,1187.58 986.537,1190.38 983.072,1193.12 979.497,1195.79 975.815,1198.4 972.032,1200.93 968.15,1203.41 964.174,1205.81 960.108,1208.15 955.957,1210.43 951.723,1212.64 947.412,1214.79 943.027,1216.88 938.572,1218.91 934.052,1220.87 929.468,1222.77 924.827,1224.62 920.13,1226.4 915.382,1228.12 910.585,1229.79 905.745,1231.4 900.863,1232.95 895.944,1234.45 890.99,1235.89 886.004,1237.27 880.991,1238.61 875.952,1239.89 870.89,1241.11 865.809,1242.29 860.711,1243.42 855.599,1244.49 850.476,1245.52 845.343,1246.49 840.204,1247.42 835.06,1248.3 829.915,1249.13 824.77,1249.92 819.628,1250.66 814.49,1251.35 809.358,1252 804.235,1252.61 799.122,1253.17 794.021,1253.68 788.934,1254.16 783.862,1254.59 778.807,1254.98 773.771,1255.33 768.755,1255.64 763.761,1255.91 758.79,1256.14 753.843,1256.32 748.922,1256.47 744.028,1256.58 739.161,1256.65 734.324,1256.68 729.517,1256.67 724.741,1256.63 719.998,1256.54 715.288,1256.42 710.613,1256.26 705.973,1256.07 701.369,1255.84 696.802,1255.57 692.273,1255.26 687.783,1254.92 683.333,1254.54 678.922,1254.12 674.553,1253.67 670.225,1253.18 665.939,1252.66 661.695,1252.1 657.495,1251.5 653.338,1250.87 649.225,1250.2 645.157,1249.5 641.133,1248.76 637.155,1247.98 633.222,1247.17 629.334,1246.32 625.492,1245.44 621.697,1244.52 617.947,1243.56 614.245,1242.57 610.591,1241.54 606.985,1240.48 603.426,1239.38 599.916,1238.24 596.455,1237.06 593.042,1235.85 589.679,1234.6 586.365,1233.31 583.1,1231.98 579.885,1230.62 576.721,1229.22 573.606,1227.78 570.542,1226.3 567.528,1224.79 564.566,1223.23 561.654,1221.63 558.794,1220 555.985,1218.33 553.227,1216.61 550.522,1214.86 547.869,1213.07 545.268,1211.23 542.719,1209.36 540.223,1207.44 537.78,1205.48 535.39,1203.48 533.052,1201.44 530.769,1199.36 528.538,1197.23 526.362,1195.06 524.239,1192.85 522.17,1190.6 520.155,1188.3 518.195,1185.96 516.289,1183.57 514.439,1181.14 512.644,1178.67 510.906,1176.16 509.223,1173.59 507.596,1170.99 506.026,1168.34 504.512,1165.64 503.056,1162.89 501.656,1160.1 500.314,1157.26 499.03,1154.38 497.805,1151.44 496.638,1148.46 495.53,1145.43 494.482,1142.36 493.494,1139.23 492.566,1136.06 491.699,1132.83 490.894,1129.56 490.151,1126.24 489.471,1122.88 488.854,1119.46 488.301,1116 487.813,1112.49 487.39,1108.93 487.033,1105.32 486.742,1101.67 486.52,1097.97 486.365,1094.22 486.279,1090.42 486.264,1086.58 486.319,1082.7 486.445,1078.76 486.644,1074.79 486.916,1070.77 487.263,1066.7 487.685,1062.59 488.183,1058.44 488.758,1054.25 489.411,1050.01 490.144,1045.74 490.957,1041.42 491.852,1037.07 492.829,1032.67 493.889,1028.24 495.035,1023.77 496.267,1019.28 497.586,1014.74 498.995,1010.18 500.495,1005.59 502.087,1000.97 503.774,996.32 505.556,991.647 507.436,986.95 509.414,982.231 511.494,977.492 513.676,972.736 515.962,967.965 518.355,963.181 520.855,958.388 523.465,953.587 526.186,948.782 529.02,943.976 531.97,939.173 535.037,934.374 538.223,929.585 541.529,924.809 544.959,920.049 548.513,915.309 552.194,910.594 556.004,905.908 559.945,901.255 564.018,896.639 568.227,892.066 572.573,887.54 577.057,883.067 581.684,878.65 586.453,874.297 591.369,870.011 596.432,865.798 601.645,861.665 607.011,857.616 612.531,853.659 618.208,849.799 624.045,846.041 630.042,842.394 636.204,838.863 642.543,835.448 649.063,832.157 655.764,829.001 662.645,825.988 669.706,823.129 676.946,820.431 684.362,817.904 691.955,815.557 699.72,813.396 707.657,811.43 715.762,809.666 724.032,808.11 732.464,806.768 741.055,805.648 749.801,804.754 758.696,804.093 767.738,803.668 776.921,803.484 786.24,803.546 795.689,803.858 805.263,804.423 814.955,805.243 824.76,806.323 834.671,807.663 844.68,809.267 854.78,811.136 864.965,813.27 875.225,815.672 885.553,818.341 895.94,821.278 906.378,824.482 916.857,827.953 927.367,831.69 937.899,835.692 948.444,839.956 958.99,844.482 969.527,849.266 980.044,854.305 990.529,859.597 1000.97,865.138 1011.36,870.924 1021.68,876.951 1031.92,883.213 1042.04,889.696 1052.02,896.384 1061.85,903.263 1071.5,910.316 1080.95,917.53 1090.19,924.891 1099.19,932.383 1107.95,939.993 1116.43,947.706 1124.64,955.511 1132.56,963.393 1140.16,971.339 1147.45,979.337 1154.4,987.373 1161.02,995.437 1167.28,1003.51 1173.18,1011.59 1178.71,1019.67 1183.87,1027.72 1188.64,1035.74 1193.02,1043.72 1197.01,1051.64 1200.61,1059.5 1203.8,1067.29 1206.59,1075 1208.98,1082.61 1210.97,1090.12 1212.55,1097.52 1213.73,1104.79 1214.51,1111.94 1214.89,1118.95 1214.87,1125.82 1214.46,1132.54 1213.67,1139.11 1212.49,1145.54 1210.96,1151.83 1209.08,1157.96 1206.85,1163.95 1204.29,1169.79 1201.42,1175.48 1198.24,1181.02 1194.76,1186.42 1191,1191.67 1186.96,1196.77 1182.65,1201.73 1178.09,1206.54 1173.29,1211.21 1168.25,1215.74 1162.99,1220.13 1157.51,1224.37 1151.82,1228.48 1145.95,1232.45 1139.88,1236.29 1133.64,1240 1127.24,1243.57 1120.67,1247.02 1113.96,1250.34 1107.11,1253.54 1100.13,1256.61 1093.02,1259.57 1085.81,1262.42 1078.49,1265.15 1071.07,1267.78 1063.57,1270.3 1055.99,1272.72 1048.34,1275.04 1040.63,1277.27 1032.86,1279.41 1025.05,1281.46 1017.2,1283.43 1009.32,1285.33 1001.41,1287.15 993.492,1288.91 985.565,1290.61 977.637,1292.24 969.715,1293.83 961.805,1295.36 953.897,1296.83 945.99,1298.24 938.089,1299.58 930.196,1300.86 922.316,1302.08 914.452,1303.24 906.607,1304.34 898.785,1305.39 890.987,1306.38 883.218,1307.31 875.48,1308.2 867.776,1309.03 860.108,1309.81 852.479,1310.55 844.89,1311.24 837.345,1311.88 829.846,1312.47 822.393,1313.02 814.99,1313.53 807.637,1313.99 800.337,1314.41 793.091,1314.79 785.901,1315.13 778.767,1315.44 771.69,1315.7 764.673,1315.92 757.715,1316.11 750.818,1316.26 743.982,1316.37 737.208,1316.44 730.496,1316.48 723.846,1316.48 717.259,1316.45 710.736,1316.38 704.274,1316.28 697.876,1316.14 691.542,1315.97 685.275,1315.76 679.073,1315.53 672.938,1315.25 666.869,1314.95 660.866,1314.61 654.931,1314.24 649.061,1313.84 643.259,1313.4 637.523,1312.93 631.854,1312.43 626.252,1311.89 620.716,1311.32 615.248,1310.72 609.846,1310.09 604.511,1309.42 599.242,1308.73 594.04,1307.99 588.905,1307.23 583.836,1306.43 578.833,1305.6 573.897,1304.73 569.026,1303.83 564.222,1302.9 559.483,1301.93 554.809,1300.93 550.201,1299.89 545.658,1298.82 541.18,1297.71 536.767,1296.57 532.418,1295.39 528.133,1294.18 523.912,1292.93 519.754,1291.64 515.659,1290.31 511.628,1288.95 507.659,1287.55 503.752,1286.11 499.906,1284.63 496.122,1283.11 492.4,1281.55 488.737,1279.95 485.135,1278.31 481.594,1276.63 478.113,1274.91 474.693,1273.14 471.333,1271.33 468.033,1269.48 464.792,1267.58 461.61,1265.64 458.487,1263.65 455.423,1261.62 452.418,1259.54 449.47,1257.41 446.581,1255.23 443.749,1253 440.976,1250.73 438.259,1248.4 435.601,1246.02 432.999,1243.59 430.455,1241.1 427.968,1238.57 425.538,1235.97 423.165,1233.33 420.849,1230.62 418.591,1227.86 416.389,1225.05 414.244,1222.17 412.156,1219.23 410.126,1216.24 408.152,1213.18 406.236,1210.06 404.378,1206.88 402.576,1203.64 400.833,1200.33 399.147,1196.96 397.519,1193.52 395.95,1190.01 394.438,1186.44 392.985,1182.79 391.591,1179.08 390.257,1175.3 388.981,1171.44 387.765,1167.51 386.609,1163.51 385.513,1159.44 384.477,1155.28 383.502,1151.06 382.589,1146.75 381.737,1142.37 380.948,1137.91 380.224,1133.37 379.583,1128.78 379.023,1124.12 378.544,1119.41 378.143,1114.62 377.819,1109.77 377.571,1104.83 377.398,1099.82 377.3,1094.73 377.274,1089.56 377.321,1084.29 377.44,1078.94 377.631,1073.49 377.895,1067.95 378.23,1062.31 378.637,1056.58 379.117,1050.74 379.67,1044.81 380.297,1038.77 380.999,1032.63 381.777,1026.39 382.633,1020.04 383.566,1013.59 384.58,1007.04 385.676,1000.39 386.855,993.634 388.12,986.779 389.473,979.824 390.917,972.771 392.453,965.622 394.085,958.378 395.815,951.042 397.647,943.615 399.584,936.1 401.629,928.501 403.786,920.819 406.058,913.059 408.449,905.223 410.963,897.315 413.605,889.34 416.378,881.301 419.288,873.203 422.339,865.05 425.535,856.848 428.883,848.601 432.386,840.314 436.051,831.993 439.883,823.644 443.887,815.273 448.07,806.886 452.437,798.489 456.994,790.09 461.748,781.694 466.706,773.31 471.874,764.944 477.258,756.605 482.866,748.299 488.706,740.035 494.783,731.822 501.106,723.667 507.683,715.58 514.521,707.569 521.628,699.645 529.012,691.815 536.682,684.09 544.646,676.48 552.913,668.995 561.49,661.645 570.373,654.451 579.573,647.436 589.101,640.623 598.97,634.033 609.193,627.689 619.778,621.612 630.737,615.824 642.077,610.347 653.808,605.202 665.935,600.41 678.465,595.992 691.403,591.968 704.755,588.36 718.522,585.186 732.708,582.468 747.315,580.226 762.344,578.478 777.794,577.245 793.665,576.546 809.955,576.4 826.661,576.826 843.78,577.843 861.307,579.47 879.238,581.724 897.565,584.625 916.282,588.189 935.381,592.435 954.853,597.381 974.688,603.043 994.898,609.459 1015.49,616.663 1036.4,624.631 1057.56,633.337 1078.93,642.753 1100.42,652.853 1122,663.608 1143.6,674.986 1165.15,686.958 1186.62,699.493 1207.93,712.557 1229.05,726.118 1249.91,740.14 1270.46,754.59 1290.66,769.431 1310.46,784.625 1329.79,800.136 1348.63,815.923 1366.92,831.949 1384.62,848.171 1401.67,864.549 1418.05,881.04 1433.7,897.601 1448.6,914.188 1462.68,930.756 1475.92,947.258 1488.29,963.648 1499.73,979.878 1510.22,995.899 1519.72,1011.66 1528.2,1027.12 1535.62,1042.21 1541.96,1056.9 1547.23,1071.17 1551.46,1085.01 1554.68,1098.44 1556.92,1111.44 1558.22,1124 1558.6,1136.14 1558.09,1147.85 1556.72,1159.13 1554.53,1169.98 1551.54,1180.4 1547.79,1190.41 1543.31,1200 1538.12,1209.17 1532.27,1217.94 1525.78,1226.32 1518.68,1234.3 1511.01,1241.91 1502.8,1249.15 1494.08,1256.03 1484.88,1262.57 1475.24,1268.77 1465.19,1274.66 1454.77,1280.25 1444,1285.55 1432.92,1290.58 1421.57,1295.36 1409.97,1299.91 1398.16,1304.25 1386.18,1308.4 1374.06,1312.38 1361.8,1316.17 1349.41,1319.79 1336.91,1323.22 1324.3,1326.49 1311.61,1329.6 1298.84,1332.55 1286.01,1335.36 1273.13,1338.03 1260.21,1340.56 1247.27,1342.97 1234.3,1345.26 1221.34,1347.44 1208.37,1349.51 1195.43,1351.47 1182.5,1353.33 1169.61,1355.1 1156.75,1356.79 1143.95,1358.38 1131.2,1359.9 1118.51,1361.34 1105.88,1362.71 1093.33,1364.01 1080.87,1365.24 1068.48,1366.41 1056.18,1367.52 1043.98,1368.57 1031.87,1369.57 1019.86,1370.51 1007.96,1371.4 996.156,1372.23 984.461,1373.02 972.873,1373.77 961.395,1374.47 950.027,1375.13 938.771,1375.75 927.627,1376.33 916.597,1376.88 905.682,1377.39 894.882,1377.87 884.197,1378.31 873.629,1378.73 863.178,1379.11 852.844,1379.46 842.628,1379.78 832.529,1380.08 822.548,1380.35 812.684,1380.59 802.938,1380.8 793.309,1381 783.797,1381.16 774.401,1381.31 765.122,1381.43 755.957,1381.52 746.907,1381.6 737.971,1381.65 729.148,1381.68 720.436,1381.69 711.837,1381.68 703.348,1381.65 694.97,1381.6 686.702,1381.53 678.543,1381.44 670.491,1381.32 662.546,1381.19 654.707,1381.04 646.973,1380.87 639.344,1380.68 631.818,1380.48 624.394,1380.25 617.071,1380 609.85,1379.74 602.728,1379.46 595.704,1379.15 588.779,1378.83 581.95,1378.49 575.217,1378.13 568.579,1377.76 562.035,1377.36 555.584,1376.94 549.225,1376.51 542.958,1376.05 536.78,1375.58 530.691,1375.08 524.691,1374.57 518.778,1374.04 512.951,1373.48 507.21,1372.91 501.552,1372.31 495.978,1371.7 490.486,1371.06 485.075,1370.4 479.745,1369.72 474.494,1369.02 469.323,1368.3 464.229,1367.55 459.212,1366.78 454.271,1365.98 449.405,1365.17 444.614,1364.33 439.896,1363.46 435.251,1362.57 430.678,1361.66 426.175,1360.71 421.742,1359.75 417.379,1358.75 413.085,1357.73 408.858,1356.68 404.698,1355.61 400.604,1354.5 396.576,1353.37 392.612,1352.21 388.712,1351.01 384.876,1349.79 381.102,1348.53 377.39,1347.24 373.739,1345.92 370.149,1344.56 366.618,1343.17 363.147,1341.75 359.735,1340.29 356.38,1338.79 353.082,1337.26 349.842,1335.69 346.657,1334.08 343.528,1332.43 340.454,1330.74 337.434,1329.01 334.468,1327.24 331.556,1325.43 328.696,1323.57 325.888,1321.66 323.133,1319.71 320.429,1317.72 317.776,1315.68 315.174,1313.58 312.622,1311.44 310.119,1309.25 307.665,1307 305.259,1304.71 302.902,1302.35 300.592,1299.95 298.33,1297.48 296.115,1294.96 293.946,1292.38 291.823,1289.74 289.746,1287.04 287.714,1284.28 285.728,1281.45 283.787,1278.55 281.89,1275.59 280.038,1272.56 278.231,1269.46 276.467,1266.29 274.747,1263.05 273.071,1259.73 271.439,1256.33 269.85,1252.86 268.304,1249.3 266.802,1245.67 265.343,1241.95 263.927,1238.15 262.554,1234.26 261.225,1230.28 259.939,1226.21 258.696,1222.05 257.496,1217.8 256.339,1213.44 255.226,1208.99 254.157,1204.44 253.131,1199.79 252.149,1195.03 251.211,1190.17 250.317,1185.2 249.467,1180.11 248.663,1174.92 247.902,1169.6 247.187,1164.17 246.518,1158.62 245.894,1152.95 245.316,1147.15 244.784,1141.23 244.304,1135.18 243.875,1129 243.498,1122.69 243.172,1116.25 242.897,1109.66 242.673,1102.94 242.5,1096.07 242.379,1089.06 242.31,1081.89 242.292,1074.56 242.328,1067.08 242.418,1059.44 242.563,1051.64 242.763,1043.66 243.021,1035.52 243.337,1027.21 243.713,1018.72 244.151,1010.06 244.653,1001.21 245.219,992.188 245.854,982.979 246.557,973.584 247.333,964 248.184,954.226 249.111,944.261 250.118,934.101 251.208,923.746 252.384,913.193 253.649,902.442 255.006,891.49 256.458,880.336 258.01,868.979 259.665,857.418 261.427,845.651 263.3,833.677 265.287,821.496 267.394,809.105 269.625,796.506 271.984,783.696 274.476,770.675 277.106,757.442 279.878,743.997 282.799,730.339 285.874,716.472 289.143,702.461 292.622,688.32 296.308,674.033 300.203,659.586 304.308,644.965 308.626,630.162 313.162,615.169 317.921,599.982 322.909,584.598 328.136,569.019 333.611,553.247 339.345,537.287 345.349,521.147 351.639,504.838 358.228,488.373 365.132,471.766 372.37,455.037 379.96,438.204 387.923,421.291 396.279,404.324 405.051,387.329 414.265,370.338 423.944,353.384 434.116,336.5 444.81,319.727 456.053,303.103 467.878,286.671 480.316,270.477 493.4,254.569 507.166,238.996 521.649,223.812 536.887,209.072 552.917,194.833 569.781,181.156 587.519,168.104 606.175,155.741 625.791,144.136 646.414,133.359 668.089,123.482 690.865,114.58 714.791,106.732 739.918,100.018 766.297,94.5193 793.981,90.3223 823.025,87.5144 853.485,86.1857 885.418,86.4288 918.882,88.339 953.937,92.0138 990.644,97.5537 1029,105.092 1069,114.77 1110.65,126.699 1153.96,140.968 1198.87,157.646 1245.33,176.779 1293.26,198.39 1342.56,222.483 1393.08,249.04 1444.68,278.02 1497.17,309.361 1550.36,342.981 1604.07,378.821 1658.04,416.774 1711.85,456.494 1765.05,497.639 1817.23,539.874 1868.03,582.878 1917.08,626.34 1964.06,669.96 2008.66,713.45 2050.62,756.533 2089.69,798.941 2125.64,840.421 2158.28,880.727 2187.45,919.628 2212.99,956.901 2234.79,992.335 2252.79,1025.75 2267.12,1057.14 2277.96,1086.54 2285.46,1113.99 2289.79,1139.53 2291.13,1163.22 2289.66,1185.12 2285.55,1205.29 2279,1223.82 2270.2,1240.8 2259.33,1256.32 2246.62,1270.48 2232.25,1283.4 2216.45,1295.21 "/>
<path clip-path="url(#clip500)" d="M1538.24 248.629 L2280.18 248.629 L2280.18 93.1086 L1538.24 93.1086  Z" fill="#ffffff" fill-rule="evenodd" fill-opacity="1"/>
<polyline clip-path="url(#clip500)" style="stroke:#000000; stroke-linecap:round; stroke-linejoin:round; stroke-width:4; stroke-opacity:1; fill:none" points="1538.24,248.629 2280.18,248.629 2280.18,93.1086 1538.24,93.1086 1538.24,248.629 "/>
<circle clip-path="url(#clip500)" cx="1635.01" cy="144.949" r="20.48" fill="#009af9" fill-rule="evenodd" fill-opacity="1" stroke="#000000" stroke-opacity="1" stroke-width="4.55111"/>
<path clip-path="url(#clip500)" d="M1731.78 127.669 L1753.63 127.669 L1753.63 131.604 L1736.45 131.604 L1736.45 141.835 L1752.91 141.835 L1752.91 145.77 L1736.45 145.77 L1736.45 158.293 L1754.04 158.293 L1754.04 162.229 L1731.78 162.229 L1731.78 127.669 Z" fill="#000000" fill-rule="nonzero" fill-opacity="1" /><path clip-path="url(#clip500)" d="M1783.1 136.303 L1773.72 148.919 L1783.58 162.229 L1778.56 162.229 L1771.01 152.043 L1763.47 162.229 L1758.44 162.229 L1768.51 148.664 L1759.3 136.303 L1764.32 136.303 L1771.2 145.539 L1778.07 136.303 L1783.1 136.303 Z" fill="#000000" fill-rule="nonzero" fill-opacity="1" /><path clip-path="url(#clip500)" d="M1793.72 158.34 L1793.72 172.09 L1789.44 172.09 L1789.44 136.303 L1793.72 136.303 L1793.72 140.238 Q1795.06 137.923 1797.1 136.812 Q1799.16 135.678 1802.01 135.678 Q1806.73 135.678 1809.67 139.428 Q1812.63 143.178 1812.63 149.289 Q1812.63 155.4 1809.67 159.15 Q1806.73 162.9 1802.01 162.9 Q1799.16 162.9 1797.1 161.789 Q1795.06 160.655 1793.72 158.34 M1808.21 149.289 Q1808.21 144.59 1806.27 141.928 Q1804.35 139.243 1800.97 139.243 Q1797.59 139.243 1795.64 141.928 Q1793.72 144.59 1793.72 149.289 Q1793.72 153.988 1795.64 156.673 Q1797.59 159.335 1800.97 159.335 Q1804.35 159.335 1806.27 156.673 Q1808.21 153.988 1808.21 149.289 Z" fill="#000000" fill-rule="nonzero" fill-opacity="1" /><path clip-path="url(#clip500)" d="M1819.69 126.21 L1823.95 126.21 L1823.95 162.229 L1819.69 162.229 L1819.69 126.21 Z" fill="#000000" fill-rule="nonzero" fill-opacity="1" /><path clip-path="url(#clip500)" d="M1832.86 136.303 L1837.12 136.303 L1837.12 162.229 L1832.86 162.229 L1832.86 136.303 M1832.86 126.21 L1837.12 126.21 L1837.12 131.604 L1832.86 131.604 L1832.86 126.21 Z" fill="#000000" fill-rule="nonzero" fill-opacity="1" /><path clip-path="url(#clip500)" d="M1864.69 137.298 L1864.69 141.28 Q1862.89 140.284 1861.06 139.798 Q1859.25 139.289 1857.4 139.289 Q1853.26 139.289 1850.97 141.928 Q1848.67 144.544 1848.67 149.289 Q1848.67 154.034 1850.97 156.673 Q1853.26 159.289 1857.4 159.289 Q1859.25 159.289 1861.06 158.803 Q1862.89 158.293 1864.69 157.298 L1864.69 161.233 Q1862.91 162.067 1860.99 162.483 Q1859.09 162.9 1856.94 162.9 Q1851.08 162.9 1847.63 159.219 Q1844.18 155.539 1844.18 149.289 Q1844.18 142.946 1847.66 139.312 Q1851.15 135.678 1857.22 135.678 Q1859.18 135.678 1861.06 136.095 Q1862.93 136.488 1864.69 137.298 Z" fill="#000000" fill-rule="nonzero" fill-opacity="1" /><path clip-path="url(#clip500)" d="M1872.1 136.303 L1876.36 136.303 L1876.36 162.229 L1872.1 162.229 L1872.1 136.303 M1872.1 126.21 L1876.36 126.21 L1876.36 131.604 L1872.1 131.604 L1872.1 126.21 Z" fill="#000000" fill-rule="nonzero" fill-opacity="1" /><path clip-path="url(#clip500)" d="M1889.48 128.942 L1889.48 136.303 L1898.26 136.303 L1898.26 139.613 L1889.48 139.613 L1889.48 153.687 Q1889.48 156.858 1890.34 157.761 Q1891.22 158.664 1893.88 158.664 L1898.26 158.664 L1898.26 162.229 L1893.88 162.229 Q1888.95 162.229 1887.08 160.4 Q1885.2 158.548 1885.2 153.687 L1885.2 139.613 L1882.08 139.613 L1882.08 136.303 L1885.2 136.303 L1885.2 128.942 L1889.48 128.942 Z" fill="#000000" fill-rule="nonzero" fill-opacity="1" /><path clip-path="url(#clip500)" d="M1919.11 127.669 L1940.97 127.669 L1940.97 131.604 L1923.79 131.604 L1923.79 141.835 L1940.25 141.835 L1940.25 145.77 L1923.79 145.77 L1923.79 158.293 L1941.38 158.293 L1941.38 162.229 L1919.11 162.229 L1919.11 127.669 Z" fill="#000000" fill-rule="nonzero" fill-opacity="1" /><path clip-path="url(#clip500)" d="M1948.44 151.997 L1948.44 136.303 L1952.7 136.303 L1952.7 151.835 Q1952.7 155.516 1954.14 157.368 Q1955.57 159.196 1958.44 159.196 Q1961.89 159.196 1963.88 156.997 Q1965.9 154.798 1965.9 151.002 L1965.9 136.303 L1970.15 136.303 L1970.15 162.229 L1965.9 162.229 L1965.9 158.247 Q1964.34 160.608 1962.28 161.766 Q1960.25 162.9 1957.54 162.9 Q1953.07 162.9 1950.76 160.122 Q1948.44 157.344 1948.44 151.997 M1959.16 135.678 L1959.16 135.678 Z" fill="#000000" fill-rule="nonzero" fill-opacity="1" /><path clip-path="url(#clip500)" d="M1978.93 126.21 L1983.19 126.21 L1983.19 162.229 L1978.93 162.229 L1978.93 126.21 Z" fill="#000000" fill-rule="nonzero" fill-opacity="1" /><path clip-path="url(#clip500)" d="M2014.27 148.201 L2014.27 150.284 L1994.69 150.284 Q1994.97 154.682 1997.33 156.997 Q1999.71 159.289 2003.95 159.289 Q2006.4 159.289 2008.7 158.687 Q2011.01 158.085 2013.28 156.881 L2013.28 160.909 Q2010.99 161.881 2008.58 162.391 Q2006.17 162.9 2003.7 162.9 Q1997.49 162.9 1993.86 159.289 Q1990.25 155.678 1990.25 149.52 Q1990.25 143.155 1993.67 139.428 Q1997.12 135.678 2002.96 135.678 Q2008.19 135.678 2011.22 139.057 Q2014.27 142.414 2014.27 148.201 M2010.02 146.951 Q2009.97 143.456 2008.05 141.372 Q2006.15 139.289 2003 139.289 Q1999.44 139.289 1997.28 141.303 Q1995.15 143.317 1994.83 146.974 L2010.02 146.951 Z" fill="#000000" fill-rule="nonzero" fill-opacity="1" /><path clip-path="url(#clip500)" d="M2036.29 140.284 Q2035.57 139.868 2034.71 139.682 Q2033.88 139.474 2032.86 139.474 Q2029.25 139.474 2027.31 141.835 Q2025.39 144.173 2025.39 148.571 L2025.39 162.229 L2021.1 162.229 L2021.1 136.303 L2025.39 136.303 L2025.39 140.331 Q2026.73 137.969 2028.88 136.835 Q2031.03 135.678 2034.11 135.678 Q2034.55 135.678 2035.08 135.747 Q2035.62 135.794 2036.27 135.909 L2036.29 140.284 Z" fill="#000000" fill-rule="nonzero" fill-opacity="1" /><path clip-path="url(#clip500)" d="M2041.84 156.349 L2046.73 156.349 L2046.73 160.33 L2042.93 167.738 L2039.95 167.738 L2041.84 160.33 L2041.84 156.349 Z" fill="#000000" fill-rule="nonzero" fill-opacity="1" /><path clip-path="url(#clip500)" d="M2087.96 140.238 L2087.96 126.21 L2092.21 126.21 L2092.21 162.229 L2087.96 162.229 L2087.96 158.34 Q2086.61 160.655 2084.55 161.789 Q2082.52 162.9 2079.64 162.9 Q2074.95 162.9 2071.98 159.15 Q2069.04 155.4 2069.04 149.289 Q2069.04 143.178 2071.98 139.428 Q2074.95 135.678 2079.64 135.678 Q2082.52 135.678 2084.55 136.812 Q2086.61 137.923 2087.96 140.238 M2073.44 149.289 Q2073.44 153.988 2075.36 156.673 Q2077.31 159.335 2080.69 159.335 Q2084.07 159.335 2086.01 156.673 Q2087.96 153.988 2087.96 149.289 Q2087.96 144.59 2086.01 141.928 Q2084.07 139.243 2080.69 139.243 Q2077.31 139.243 2075.36 141.928 Q2073.44 144.59 2073.44 149.289 Z" fill="#000000" fill-rule="nonzero" fill-opacity="1" /><path clip-path="url(#clip500)" d="M2105.2 128.942 L2105.2 136.303 L2113.97 136.303 L2113.97 139.613 L2105.2 139.613 L2105.2 153.687 Q2105.2 156.858 2106.06 157.761 Q2106.94 158.664 2109.6 158.664 L2113.97 158.664 L2113.97 162.229 L2109.6 162.229 Q2104.67 162.229 2102.79 160.4 Q2100.92 158.548 2100.92 153.687 L2100.92 139.613 L2097.79 139.613 L2097.79 136.303 L2100.92 136.303 L2100.92 128.942 L2105.2 128.942 Z" fill="#000000" fill-rule="nonzero" fill-opacity="1" /><path clip-path="url(#clip500)" d="M2135.2 140.701 L2164.88 140.701 L2164.88 144.59 L2135.2 144.59 L2135.2 140.701 M2135.2 150.145 L2164.88 150.145 L2164.88 154.081 L2135.2 154.081 L2135.2 150.145 Z" fill="#000000" fill-rule="nonzero" fill-opacity="1" /><path clip-path="url(#clip500)" d="M2200.04 130.747 Q2196.43 130.747 2194.6 134.312 Q2192.79 137.854 2192.79 144.983 Q2192.79 152.09 2194.6 155.655 Q2196.43 159.196 2200.04 159.196 Q2203.67 159.196 2205.48 155.655 Q2207.31 152.09 2207.31 144.983 Q2207.31 137.854 2205.48 134.312 Q2203.67 130.747 2200.04 130.747 M2200.04 127.044 Q2205.85 127.044 2208.9 131.65 Q2211.98 136.233 2211.98 144.983 Q2211.98 153.71 2208.9 158.317 Q2205.85 162.9 2200.04 162.9 Q2194.23 162.9 2191.15 158.317 Q2188.09 153.71 2188.09 144.983 Q2188.09 136.233 2191.15 131.65 Q2194.23 127.044 2200.04 127.044 Z" fill="#000000" fill-rule="nonzero" fill-opacity="1" /><path clip-path="url(#clip500)" d="M2220.2 156.349 L2225.08 156.349 L2225.08 162.229 L2220.2 162.229 L2220.2 156.349 Z" fill="#000000" fill-rule="nonzero" fill-opacity="1" /><path clip-path="url(#clip500)" d="M2236.08 158.293 L2243.72 158.293 L2243.72 131.928 L2235.41 133.595 L2235.41 129.335 L2243.67 127.669 L2248.35 127.669 L2248.35 158.293 L2255.99 158.293 L2255.99 162.229 L2236.08 162.229 L2236.08 158.293 Z" fill="#000000" fill-rule="nonzero" fill-opacity="1" /><polyline clip-path="url(#clip500)" style="stroke:#e26f46; stroke-linecap:round; stroke-linejoin:round; stroke-width:8; stroke-opacity:1; fill:none" points="1562.43,196.789 1707.58,196.789 "/>
<path clip-path="url(#clip500)" d="M1731.78 179.509 L1738.74 179.509 L1747.56 203.027 L1756.43 179.509 L1763.4 179.509 L1763.4 214.069 L1758.84 214.069 L1758.84 183.722 L1749.92 207.425 L1745.23 207.425 L1736.31 183.722 L1736.31 214.069 L1731.78 214.069 L1731.78 179.509 Z" fill="#000000" fill-rule="nonzero" fill-opacity="1" /><path clip-path="url(#clip500)" d="M1782.54 191.129 Q1779.11 191.129 1777.12 193.814 Q1775.13 196.476 1775.13 201.129 Q1775.13 205.782 1777.1 208.467 Q1779.09 211.129 1782.54 211.129 Q1785.94 211.129 1787.93 208.444 Q1789.92 205.758 1789.92 201.129 Q1789.92 196.522 1787.93 193.837 Q1785.94 191.129 1782.54 191.129 M1782.54 187.518 Q1788.1 187.518 1791.27 191.129 Q1794.44 194.74 1794.44 201.129 Q1794.44 207.495 1791.27 211.129 Q1788.1 214.74 1782.54 214.74 Q1776.96 214.74 1773.79 211.129 Q1770.64 207.495 1770.64 201.129 Q1770.64 194.74 1773.79 191.129 Q1776.96 187.518 1782.54 187.518 Z" fill="#000000" fill-rule="nonzero" fill-opacity="1" /><path clip-path="url(#clip500)" d="M1818.56 192.078 L1818.56 178.05 L1822.82 178.05 L1822.82 214.069 L1818.56 214.069 L1818.56 210.18 Q1817.22 212.495 1815.16 213.629 Q1813.12 214.74 1810.25 214.74 Q1805.55 214.74 1802.59 210.99 Q1799.65 207.24 1799.65 201.129 Q1799.65 195.018 1802.59 191.268 Q1805.55 187.518 1810.25 187.518 Q1813.12 187.518 1815.16 188.652 Q1817.22 189.763 1818.56 192.078 M1804.04 201.129 Q1804.04 205.828 1805.97 208.513 Q1807.91 211.175 1811.29 211.175 Q1814.67 211.175 1816.61 208.513 Q1818.56 205.828 1818.56 201.129 Q1818.56 196.43 1816.61 193.768 Q1814.67 191.083 1811.29 191.083 Q1807.91 191.083 1805.97 193.768 Q1804.04 196.43 1804.04 201.129 Z" fill="#000000" fill-rule="nonzero" fill-opacity="1" /><path clip-path="url(#clip500)" d="M1831.59 188.143 L1835.85 188.143 L1835.85 214.069 L1831.59 214.069 L1831.59 188.143 M1831.59 178.05 L1835.85 178.05 L1835.85 183.444 L1831.59 183.444 L1831.59 178.05 Z" fill="#000000" fill-rule="nonzero" fill-opacity="1" /><path clip-path="url(#clip500)" d="M1857.89 178.05 L1857.89 181.592 L1853.81 181.592 Q1851.52 181.592 1850.62 182.518 Q1849.74 183.444 1849.74 185.851 L1849.74 188.143 L1856.75 188.143 L1856.75 191.453 L1849.74 191.453 L1849.74 214.069 L1845.46 214.069 L1845.46 191.453 L1841.38 191.453 L1841.38 188.143 L1845.46 188.143 L1845.46 186.337 Q1845.46 182.009 1847.47 180.041 Q1849.48 178.05 1853.86 178.05 L1857.89 178.05 Z" fill="#000000" fill-rule="nonzero" fill-opacity="1" /><path clip-path="url(#clip500)" d="M1861.45 188.143 L1865.71 188.143 L1865.71 214.069 L1861.45 214.069 L1861.45 188.143 M1861.45 178.05 L1865.71 178.05 L1865.71 183.444 L1861.45 183.444 L1861.45 178.05 Z" fill="#000000" fill-rule="nonzero" fill-opacity="1" /><path clip-path="url(#clip500)" d="M1896.8 200.041 L1896.8 202.124 L1877.22 202.124 Q1877.49 206.522 1879.85 208.837 Q1882.24 211.129 1886.47 211.129 Q1888.93 211.129 1891.22 210.527 Q1893.53 209.925 1895.8 208.721 L1895.8 212.749 Q1893.51 213.721 1891.1 214.231 Q1888.7 214.74 1886.22 214.74 Q1880.02 214.74 1876.38 211.129 Q1872.77 207.518 1872.77 201.36 Q1872.77 194.995 1876.2 191.268 Q1879.65 187.518 1885.48 187.518 Q1890.71 187.518 1893.74 190.897 Q1896.8 194.254 1896.8 200.041 M1892.54 198.791 Q1892.49 195.296 1890.57 193.212 Q1888.67 191.129 1885.53 191.129 Q1881.96 191.129 1879.81 193.143 Q1877.68 195.157 1877.35 198.814 L1892.54 198.791 Z" fill="#000000" fill-rule="nonzero" fill-opacity="1" /><path clip-path="url(#clip500)" d="M1920.85 192.078 L1920.85 178.05 L1925.11 178.05 L1925.11 214.069 L1920.85 214.069 L1920.85 210.18 Q1919.51 212.495 1917.45 213.629 Q1915.41 214.74 1912.54 214.74 Q1907.84 214.74 1904.88 210.99 Q1901.94 207.24 1901.94 201.129 Q1901.94 195.018 1904.88 191.268 Q1907.84 187.518 1912.54 187.518 Q1915.41 187.518 1917.45 188.652 Q1919.51 189.763 1920.85 192.078 M1906.34 201.129 Q1906.34 205.828 1908.26 208.513 Q1910.2 211.175 1913.58 211.175 Q1916.96 211.175 1918.91 208.513 Q1920.85 205.828 1920.85 201.129 Q1920.85 196.43 1918.91 193.768 Q1916.96 191.083 1913.58 191.083 Q1910.2 191.083 1908.26 193.768 Q1906.34 196.43 1906.34 201.129 Z" fill="#000000" fill-rule="nonzero" fill-opacity="1" /><path clip-path="url(#clip500)" d="M1963.16 182.68 Q1958.07 182.68 1955.06 186.476 Q1952.08 190.272 1952.08 196.823 Q1952.08 203.351 1955.06 207.147 Q1958.07 210.944 1963.16 210.944 Q1968.26 210.944 1971.22 207.147 Q1974.21 203.351 1974.21 196.823 Q1974.21 190.272 1971.22 186.476 Q1968.26 182.68 1963.16 182.68 M1963.16 178.884 Q1970.43 178.884 1974.78 183.768 Q1979.14 188.629 1979.14 196.823 Q1979.14 204.995 1974.78 209.879 Q1970.43 214.74 1963.16 214.74 Q1955.87 214.74 1951.5 209.879 Q1947.15 205.018 1947.15 196.823 Q1947.15 188.629 1951.5 183.768 Q1955.87 178.884 1963.16 178.884 Z" fill="#000000" fill-rule="nonzero" fill-opacity="1" /><path clip-path="url(#clip500)" d="M1991.13 183.351 L1991.13 210.226 L1996.77 210.226 Q2003.93 210.226 2007.24 206.985 Q2010.57 203.745 2010.57 196.754 Q2010.57 189.809 2007.24 186.592 Q2003.93 183.351 1996.77 183.351 L1991.13 183.351 M1986.45 179.509 L1996.06 179.509 Q2006.1 179.509 2010.8 183.698 Q2015.5 187.865 2015.5 196.754 Q2015.5 205.689 2010.78 209.879 Q2006.06 214.069 1996.06 214.069 L1986.45 214.069 L1986.45 179.509 Z" fill="#000000" fill-rule="nonzero" fill-opacity="1" /><path clip-path="url(#clip500)" d="M2022.96 179.509 L2044.81 179.509 L2044.81 183.444 L2027.63 183.444 L2027.63 193.675 L2044.09 193.675 L2044.09 197.61 L2027.63 197.61 L2027.63 210.133 L2045.22 210.133 L2045.22 214.069 L2022.96 214.069 L2022.96 179.509 Z" fill="#000000" fill-rule="nonzero" fill-opacity="1" /><path clip-path="url(#clip500)" d="M2053.81 208.189 L2058.7 208.189 L2058.7 212.17 L2054.9 219.578 L2051.91 219.578 L2053.81 212.17 L2053.81 208.189 Z" fill="#000000" fill-rule="nonzero" fill-opacity="1" /><path clip-path="url(#clip500)" d="M2092.91 191.129 Q2089.48 191.129 2087.49 193.814 Q2085.5 196.476 2085.5 201.129 Q2085.5 205.782 2087.47 208.467 Q2089.46 211.129 2092.91 211.129 Q2096.31 211.129 2098.3 208.444 Q2100.29 205.758 2100.29 201.129 Q2100.29 196.522 2098.3 193.837 Q2096.31 191.129 2092.91 191.129 M2092.91 187.518 Q2098.46 187.518 2101.64 191.129 Q2104.81 194.74 2104.81 201.129 Q2104.81 207.495 2101.64 211.129 Q2098.46 214.74 2092.91 214.74 Q2087.33 214.74 2084.16 211.129 Q2081.01 207.495 2081.01 201.129 Q2081.01 194.74 2084.16 191.129 Q2087.33 187.518 2092.91 187.518 Z" fill="#000000" fill-rule="nonzero" fill-opacity="1" /><path clip-path="url(#clip500)" d="M2126.89 192.124 Q2126.17 191.708 2125.32 191.522 Q2124.48 191.314 2123.46 191.314 Q2119.85 191.314 2117.91 193.675 Q2115.99 196.013 2115.99 200.411 L2115.99 214.069 L2111.7 214.069 L2111.7 188.143 L2115.99 188.143 L2115.99 192.171 Q2117.33 189.809 2119.48 188.675 Q2121.64 187.518 2124.71 187.518 Q2125.15 187.518 2125.69 187.587 Q2126.22 187.634 2126.87 187.749 L2126.89 192.124 Z" fill="#000000" fill-rule="nonzero" fill-opacity="1" /><path clip-path="url(#clip500)" d="M2147.58 192.078 L2147.58 178.05 L2151.84 178.05 L2151.84 214.069 L2147.58 214.069 L2147.58 210.18 Q2146.24 212.495 2144.18 213.629 Q2142.14 214.74 2139.27 214.74 Q2134.58 214.74 2131.61 210.99 Q2128.67 207.24 2128.67 201.129 Q2128.67 195.018 2131.61 191.268 Q2134.58 187.518 2139.27 187.518 Q2142.14 187.518 2144.18 188.652 Q2146.24 189.763 2147.58 192.078 M2133.07 201.129 Q2133.07 205.828 2134.99 208.513 Q2136.94 211.175 2140.32 211.175 Q2143.7 211.175 2145.64 208.513 Q2147.58 205.828 2147.58 201.129 Q2147.58 196.43 2145.64 193.768 Q2143.7 191.083 2140.32 191.083 Q2136.94 191.083 2134.99 193.768 Q2133.07 196.43 2133.07 201.129 Z" fill="#000000" fill-rule="nonzero" fill-opacity="1" /><path clip-path="url(#clip500)" d="M2182.79 200.041 L2182.79 202.124 L2163.21 202.124 Q2163.49 206.522 2165.85 208.837 Q2168.23 211.129 2172.47 211.129 Q2174.92 211.129 2177.21 210.527 Q2179.53 209.925 2181.8 208.721 L2181.8 212.749 Q2179.51 213.721 2177.1 214.231 Q2174.69 214.74 2172.21 214.74 Q2166.01 214.74 2162.38 211.129 Q2158.76 207.518 2158.76 201.36 Q2158.76 194.995 2162.19 191.268 Q2165.64 187.518 2171.47 187.518 Q2176.7 187.518 2179.74 190.897 Q2182.79 194.254 2182.79 200.041 M2178.53 198.791 Q2178.49 195.296 2176.57 193.212 Q2174.67 191.129 2171.52 191.129 Q2167.95 191.129 2165.8 193.143 Q2163.67 195.157 2163.35 198.814 L2178.53 198.791 Z" fill="#000000" fill-rule="nonzero" fill-opacity="1" /><path clip-path="url(#clip500)" d="M2204.81 192.124 Q2204.09 191.708 2203.23 191.522 Q2202.4 191.314 2201.38 191.314 Q2197.77 191.314 2195.82 193.675 Q2193.9 196.013 2193.9 200.411 L2193.9 214.069 L2189.62 214.069 L2189.62 188.143 L2193.9 188.143 L2193.9 192.171 Q2195.25 189.809 2197.4 188.675 Q2199.55 187.518 2202.63 187.518 Q2203.07 187.518 2203.6 187.587 Q2204.13 187.634 2204.78 187.749 L2204.81 192.124 Z" fill="#000000" fill-rule="nonzero" fill-opacity="1" /><path clip-path="url(#clip500)" d="M2225.76 210.133 L2233.39 210.133 L2233.39 183.768 L2225.08 185.435 L2225.08 181.175 L2233.35 179.509 L2238.02 179.509 L2238.02 210.133 L2245.66 210.133 L2245.66 214.069 L2225.76 214.069 L2225.76 210.133 Z" fill="#000000" fill-rule="nonzero" fill-opacity="1" /></svg>
