<?xml version="1.0" encoding="utf-8"?>
<svg xmlns="http://www.w3.org/2000/svg" xmlns:xlink="http://www.w3.org/1999/xlink" width="600" height="400" viewBox="0 0 2400 1600">
<defs>
  <clipPath id="clip780">
    <rect x="0" y="0" width="2400" height="1600"/>
  </clipPath>
</defs>
<path clip-path="url(#clip780)" d="
M0 1600 L2400 1600 L2400 0 L0 0  Z
  " fill="#ffffff" fill-rule="evenodd" fill-opacity="1"/>
<defs>
  <clipPath id="clip781">
    <rect x="480" y="0" width="1681" height="1600"/>
  </clipPath>
</defs>
<path clip-path="url(#clip780)" d="
M175.445 1423.18 L2352.76 1423.18 L2352.76 47.2441 L175.445 47.2441  Z
  " fill="#ffffff" fill-rule="evenodd" fill-opacity="1"/>
<defs>
  <clipPath id="clip782">
    <rect x="175" y="47" width="2178" height="1377"/>
  </clipPath>
</defs>
<polyline clip-path="url(#clip782)" style="stroke:#000000; stroke-linecap:butt; stroke-linejoin:round; stroke-width:2; stroke-opacity:0.1; fill:none" points="
  175.445,1423.18 175.445,47.2441 
  "/>
<polyline clip-path="url(#clip782)" style="stroke:#000000; stroke-linecap:butt; stroke-linejoin:round; stroke-width:2; stroke-opacity:0.1; fill:none" points="
  901.215,1423.18 901.215,47.2441 
  "/>
<polyline clip-path="url(#clip782)" style="stroke:#000000; stroke-linecap:butt; stroke-linejoin:round; stroke-width:2; stroke-opacity:0.1; fill:none" points="
  1626.99,1423.18 1626.99,47.2441 
  "/>
<polyline clip-path="url(#clip782)" style="stroke:#000000; stroke-linecap:butt; stroke-linejoin:round; stroke-width:2; stroke-opacity:0.1; fill:none" points="
  2352.76,1423.18 2352.76,47.2441 
  "/>
<polyline clip-path="url(#clip780)" style="stroke:#000000; stroke-linecap:butt; stroke-linejoin:round; stroke-width:4; stroke-opacity:1; fill:none" points="
  175.445,1423.18 2352.76,1423.18 
  "/>
<polyline clip-path="url(#clip780)" style="stroke:#000000; stroke-linecap:butt; stroke-linejoin:round; stroke-width:4; stroke-opacity:1; fill:none" points="
  175.445,1423.18 175.445,1404.28 
  "/>
<polyline clip-path="url(#clip780)" style="stroke:#000000; stroke-linecap:butt; stroke-linejoin:round; stroke-width:4; stroke-opacity:1; fill:none" points="
  901.215,1423.18 901.215,1404.28 
  "/>
<polyline clip-path="url(#clip780)" style="stroke:#000000; stroke-linecap:butt; stroke-linejoin:round; stroke-width:4; stroke-opacity:1; fill:none" points="
  1626.99,1423.18 1626.99,1404.28 
  "/>
<polyline clip-path="url(#clip780)" style="stroke:#000000; stroke-linecap:butt; stroke-linejoin:round; stroke-width:4; stroke-opacity:1; fill:none" points="
  2352.76,1423.18 2352.76,1404.28 
  "/>
<path clip-path="url(#clip780)" d="M175.445 1454.1 Q171.834 1454.1 170.005 1457.66 Q168.2 1461.2 168.2 1468.33 Q168.2 1475.44 170.005 1479.01 Q171.834 1482.55 175.445 1482.55 Q179.079 1482.55 180.885 1479.01 Q182.714 1475.44 182.714 1468.33 Q182.714 1461.2 180.885 1457.66 Q179.079 1454.1 175.445 1454.1 M175.445 1450.39 Q181.255 1450.39 184.311 1455 Q187.39 1459.58 187.39 1468.33 Q187.39 1477.06 184.311 1481.67 Q181.255 1486.25 175.445 1486.25 Q169.635 1486.25 166.556 1481.67 Q163.501 1477.06 163.501 1468.33 Q163.501 1459.58 166.556 1455 Q169.635 1450.39 175.445 1450.39 Z" fill="#000000" fill-rule="evenodd" fill-opacity="1" /><path clip-path="url(#clip780)" d="M905.463 1466.95 Q908.82 1467.66 910.695 1469.93 Q912.593 1472.2 912.593 1475.53 Q912.593 1480.65 909.074 1483.45 Q905.556 1486.25 899.074 1486.25 Q896.898 1486.25 894.584 1485.81 Q892.292 1485.39 889.838 1484.54 L889.838 1480.02 Q891.783 1481.16 894.097 1481.74 Q896.412 1482.32 898.935 1482.32 Q903.333 1482.32 905.625 1480.58 Q907.94 1478.84 907.94 1475.53 Q907.94 1472.48 905.787 1470.77 Q903.658 1469.03 899.838 1469.03 L895.81 1469.03 L895.81 1465.19 L900.023 1465.19 Q903.472 1465.19 905.301 1463.82 Q907.13 1462.43 907.13 1459.84 Q907.13 1457.18 905.232 1455.77 Q903.357 1454.33 899.838 1454.33 Q897.917 1454.33 895.718 1454.75 Q893.519 1455.16 890.88 1456.04 L890.88 1451.88 Q893.542 1451.14 895.857 1450.77 Q898.195 1450.39 900.255 1450.39 Q905.579 1450.39 908.681 1452.83 Q911.783 1455.23 911.783 1459.35 Q911.783 1462.22 910.139 1464.21 Q908.495 1466.18 905.463 1466.95 Z" fill="#000000" fill-rule="evenodd" fill-opacity="1" /><path clip-path="url(#clip780)" d="M1627.39 1466.44 Q1624.24 1466.44 1622.39 1468.59 Q1620.56 1470.74 1620.56 1474.49 Q1620.56 1478.22 1622.39 1480.39 Q1624.24 1482.55 1627.39 1482.55 Q1630.54 1482.55 1632.37 1480.39 Q1634.22 1478.22 1634.22 1474.49 Q1634.22 1470.74 1632.37 1468.59 Q1630.54 1466.44 1627.39 1466.44 M1636.67 1451.78 L1636.67 1456.04 Q1634.91 1455.21 1633.11 1454.77 Q1631.33 1454.33 1629.57 1454.33 Q1624.94 1454.33 1622.48 1457.45 Q1620.05 1460.58 1619.71 1466.9 Q1621.07 1464.89 1623.13 1463.82 Q1625.19 1462.73 1627.67 1462.73 Q1632.88 1462.73 1635.89 1465.9 Q1638.92 1469.05 1638.92 1474.49 Q1638.92 1479.82 1635.77 1483.03 Q1632.62 1486.25 1627.39 1486.25 Q1621.4 1486.25 1618.22 1481.67 Q1615.05 1477.06 1615.05 1468.33 Q1615.05 1460.14 1618.94 1455.28 Q1622.83 1450.39 1629.38 1450.39 Q1631.14 1450.39 1632.92 1450.74 Q1634.73 1451.09 1636.67 1451.78 Z" fill="#000000" fill-rule="evenodd" fill-opacity="1" /><path clip-path="url(#clip780)" d="M2343.06 1484.86 L2343.06 1480.6 Q2344.82 1481.44 2346.62 1481.88 Q2348.43 1482.32 2350.16 1482.32 Q2354.79 1482.32 2357.22 1479.21 Q2359.68 1476.09 2360.02 1469.75 Q2358.68 1471.74 2356.62 1472.8 Q2354.56 1473.87 2352.06 1473.87 Q2346.88 1473.87 2343.84 1470.74 Q2340.83 1467.59 2340.83 1462.15 Q2340.83 1456.83 2343.98 1453.61 Q2347.13 1450.39 2352.36 1450.39 Q2358.36 1450.39 2361.51 1455 Q2364.68 1459.58 2364.68 1468.33 Q2364.68 1476.51 2360.79 1481.39 Q2356.92 1486.25 2350.37 1486.25 Q2348.61 1486.25 2346.81 1485.9 Q2345 1485.56 2343.06 1484.86 M2352.36 1470.21 Q2355.51 1470.21 2357.34 1468.06 Q2359.19 1465.9 2359.19 1462.15 Q2359.19 1458.43 2357.34 1456.27 Q2355.51 1454.1 2352.36 1454.1 Q2349.21 1454.1 2347.36 1456.27 Q2345.53 1458.43 2345.53 1462.15 Q2345.53 1465.9 2347.36 1468.06 Q2349.21 1470.21 2352.36 1470.21 Z" fill="#000000" fill-rule="evenodd" fill-opacity="1" /><path clip-path="url(#clip780)" d="M1276.72 1519.2 L1267.61 1555.89 Q1267.35 1557.05 1267.35 1557.34 Q1267.35 1557.72 1267.45 1557.88 Q1267.57 1558.08 1268.28 1558.24 Q1269.02 1558.4 1270.5 1558.4 Q1271.05 1558.4 1271.25 1558.4 Q1271.44 1558.4 1271.73 1558.46 Q1272.02 1558.53 1272.12 1558.69 Q1272.21 1558.85 1272.21 1559.11 Q1272.21 1560.43 1271.05 1560.43 Q1269.96 1560.43 1267.67 1560.33 Q1265.38 1560.23 1264.26 1560.23 Q1263.16 1560.23 1260.94 1560.33 Q1258.72 1560.43 1257.65 1560.43 Q1257.27 1560.43 1257.04 1560.23 Q1256.82 1560.07 1256.82 1559.88 L1256.79 1559.72 Q1256.79 1558.82 1257.14 1558.59 Q1257.49 1558.4 1258.3 1558.4 Q1261.07 1558.37 1261.87 1557.98 Q1262.68 1557.59 1263.07 1556.21 L1266.03 1544.42 Q1262.07 1548.38 1258.23 1548.38 Q1254.53 1548.38 1252.02 1545.48 Q1249.54 1542.55 1249.54 1537.82 Q1249.54 1534.31 1250.92 1530.77 Q1252.34 1527.22 1254.53 1524.55 Q1256.75 1521.88 1259.65 1520.2 Q1262.55 1518.49 1265.42 1518.49 Q1267.25 1518.49 1268.89 1519.56 Q1270.57 1520.62 1271.57 1523.1 Q1272.41 1521.68 1273.95 1520.14 Q1275.5 1518.56 1276.04 1518.56 Q1276.37 1518.56 1276.53 1518.78 Q1276.72 1518.98 1276.72 1519.2 M1270.63 1525.74 Q1270.63 1525.42 1270.38 1524.61 Q1270.15 1523.81 1269.64 1522.71 Q1269.15 1521.59 1268.03 1520.78 Q1266.9 1519.94 1265.42 1519.94 Q1263.29 1519.94 1261 1522.01 Q1258.75 1524.03 1257.27 1527.58 Q1256.33 1529.9 1255.27 1534.21 Q1254.21 1538.53 1254.21 1540.72 Q1254.21 1541.23 1254.24 1541.81 Q1254.31 1542.39 1254.56 1543.36 Q1254.82 1544.32 1255.21 1545.06 Q1255.63 1545.81 1256.46 1546.35 Q1257.3 1546.9 1258.43 1546.9 Q1260.88 1546.9 1263.32 1544.81 Q1265.77 1542.71 1266.8 1540.85 Q1266.93 1540.65 1268.77 1533.34 Q1270.63 1526.03 1270.63 1525.74 Z" fill="#000000" fill-rule="evenodd" fill-opacity="1" /><polyline clip-path="url(#clip782)" style="stroke:#000000; stroke-linecap:butt; stroke-linejoin:round; stroke-width:2; stroke-opacity:0.1; fill:none" points="
  175.445,1423.18 2352.76,1423.18 
  "/>
<polyline clip-path="url(#clip782)" style="stroke:#000000; stroke-linecap:butt; stroke-linejoin:round; stroke-width:2; stroke-opacity:0.1; fill:none" points="
  175.445,1147.99 2352.76,1147.99 
  "/>
<polyline clip-path="url(#clip782)" style="stroke:#000000; stroke-linecap:butt; stroke-linejoin:round; stroke-width:2; stroke-opacity:0.1; fill:none" points="
  175.445,872.806 2352.76,872.806 
  "/>
<polyline clip-path="url(#clip782)" style="stroke:#000000; stroke-linecap:butt; stroke-linejoin:round; stroke-width:2; stroke-opacity:0.1; fill:none" points="
  175.445,597.618 2352.76,597.618 
  "/>
<polyline clip-path="url(#clip782)" style="stroke:#000000; stroke-linecap:butt; stroke-linejoin:round; stroke-width:2; stroke-opacity:0.1; fill:none" points="
  175.445,322.431 2352.76,322.431 
  "/>
<polyline clip-path="url(#clip782)" style="stroke:#000000; stroke-linecap:butt; stroke-linejoin:round; stroke-width:2; stroke-opacity:0.1; fill:none" points="
  175.445,47.2441 2352.76,47.2441 
  "/>
<polyline clip-path="url(#clip780)" style="stroke:#000000; stroke-linecap:butt; stroke-linejoin:round; stroke-width:4; stroke-opacity:1; fill:none" points="
  175.445,1423.18 175.445,47.2441 
  "/>
<polyline clip-path="url(#clip780)" style="stroke:#000000; stroke-linecap:butt; stroke-linejoin:round; stroke-width:4; stroke-opacity:1; fill:none" points="
  175.445,1423.18 194.343,1423.18 
  "/>
<polyline clip-path="url(#clip780)" style="stroke:#000000; stroke-linecap:butt; stroke-linejoin:round; stroke-width:4; stroke-opacity:1; fill:none" points="
  175.445,1147.99 194.343,1147.99 
  "/>
<polyline clip-path="url(#clip780)" style="stroke:#000000; stroke-linecap:butt; stroke-linejoin:round; stroke-width:4; stroke-opacity:1; fill:none" points="
  175.445,872.806 194.343,872.806 
  "/>
<polyline clip-path="url(#clip780)" style="stroke:#000000; stroke-linecap:butt; stroke-linejoin:round; stroke-width:4; stroke-opacity:1; fill:none" points="
  175.445,597.618 194.343,597.618 
  "/>
<polyline clip-path="url(#clip780)" style="stroke:#000000; stroke-linecap:butt; stroke-linejoin:round; stroke-width:4; stroke-opacity:1; fill:none" points="
  175.445,322.431 194.343,322.431 
  "/>
<polyline clip-path="url(#clip780)" style="stroke:#000000; stroke-linecap:butt; stroke-linejoin:round; stroke-width:4; stroke-opacity:1; fill:none" points="
  175.445,47.2441 194.343,47.2441 
  "/>
<path clip-path="url(#clip780)" d="M127.501 1408.98 Q123.89 1408.98 122.061 1412.54 Q120.255 1416.08 120.255 1423.21 Q120.255 1430.32 122.061 1433.89 Q123.89 1437.43 127.501 1437.43 Q131.135 1437.43 132.941 1433.89 Q134.769 1430.32 134.769 1423.21 Q134.769 1416.08 132.941 1412.54 Q131.135 1408.98 127.501 1408.98 M127.501 1405.27 Q133.311 1405.27 136.367 1409.88 Q139.445 1414.46 139.445 1423.21 Q139.445 1431.94 136.367 1436.55 Q133.311 1441.13 127.501 1441.13 Q121.691 1441.13 118.612 1436.55 Q115.556 1431.94 115.556 1423.21 Q115.556 1414.46 118.612 1409.88 Q121.691 1405.27 127.501 1405.27 Z" fill="#000000" fill-rule="evenodd" fill-opacity="1" /><path clip-path="url(#clip780)" d="M119.538 1161.34 L127.177 1161.34 L127.177 1134.97 L118.867 1136.64 L118.867 1132.38 L127.13 1130.71 L131.806 1130.71 L131.806 1161.34 L139.445 1161.34 L139.445 1165.27 L119.538 1165.27 L119.538 1161.34 Z" fill="#000000" fill-rule="evenodd" fill-opacity="1" /><path clip-path="url(#clip780)" d="M123.126 886.15 L139.445 886.15 L139.445 890.086 L117.501 890.086 L117.501 886.15 Q120.163 883.396 124.746 878.766 Q129.353 874.113 130.533 872.771 Q132.779 870.248 133.658 868.512 Q134.561 866.752 134.561 865.063 Q134.561 862.308 132.617 860.572 Q130.695 858.836 127.593 858.836 Q125.394 858.836 122.941 859.6 Q120.51 860.363 117.732 861.914 L117.732 857.192 Q120.556 856.058 123.01 855.479 Q125.464 854.901 127.501 854.901 Q132.871 854.901 136.066 857.586 Q139.26 860.271 139.26 864.762 Q139.26 866.891 138.45 868.813 Q137.663 870.711 135.556 873.303 Q134.978 873.975 131.876 877.192 Q128.774 880.387 123.126 886.15 Z" fill="#000000" fill-rule="evenodd" fill-opacity="1" /><path clip-path="url(#clip780)" d="M132.316 596.264 Q135.672 596.982 137.547 599.25 Q139.445 601.519 139.445 604.852 Q139.445 609.968 135.927 612.769 Q132.408 615.57 125.927 615.57 Q123.751 615.57 121.436 615.13 Q119.144 614.713 116.691 613.857 L116.691 609.343 Q118.635 610.477 120.95 611.056 Q123.265 611.635 125.788 611.635 Q130.186 611.635 132.478 609.898 Q134.792 608.162 134.792 604.852 Q134.792 601.797 132.64 600.084 Q130.51 598.348 126.691 598.348 L122.663 598.348 L122.663 594.505 L126.876 594.505 Q130.325 594.505 132.154 593.139 Q133.982 591.75 133.982 589.158 Q133.982 586.496 132.084 585.084 Q130.209 583.649 126.691 583.649 Q124.769 583.649 122.57 584.065 Q120.371 584.482 117.732 585.362 L117.732 581.195 Q120.394 580.454 122.709 580.084 Q125.047 579.713 127.107 579.713 Q132.431 579.713 135.533 582.144 Q138.635 584.551 138.635 588.672 Q138.635 591.542 136.992 593.533 Q135.348 595.5 132.316 596.264 Z" fill="#000000" fill-rule="evenodd" fill-opacity="1" /><path clip-path="url(#clip780)" d="M129.862 309.225 L118.056 327.674 L129.862 327.674 L129.862 309.225 M128.635 305.151 L134.515 305.151 L134.515 327.674 L139.445 327.674 L139.445 331.563 L134.515 331.563 L134.515 339.711 L129.862 339.711 L129.862 331.563 L114.26 331.563 L114.26 327.049 L128.635 305.151 Z" fill="#000000" fill-rule="evenodd" fill-opacity="1" /><path clip-path="url(#clip780)" d="M118.543 29.9641 L136.899 29.9641 L136.899 33.8993 L122.825 33.8993 L122.825 42.3714 Q123.843 42.0242 124.862 41.8622 Q125.88 41.677 126.899 41.677 Q132.686 41.677 136.066 44.8483 Q139.445 48.0196 139.445 53.4362 Q139.445 59.0149 135.973 62.1167 Q132.501 65.1954 126.181 65.1954 Q124.005 65.1954 121.737 64.825 Q119.492 64.4547 117.084 63.7139 L117.084 59.0149 Q119.168 60.1491 121.39 60.7047 Q123.612 61.2602 126.089 61.2602 Q130.093 61.2602 132.431 59.1538 Q134.769 57.0473 134.769 53.4362 Q134.769 49.8251 132.431 47.7186 Q130.093 45.6122 126.089 45.6122 Q124.214 45.6122 122.339 46.0288 Q120.487 46.4455 118.543 47.3251 L118.543 29.9641 Z" fill="#000000" fill-rule="evenodd" fill-opacity="1" /><path clip-path="url(#clip780)" d="M39.2425 717.179 Q43.9446 717.179 48.4856 719.563 Q53.0267 721.914 55.8286 725.617 Q58.5983 729.321 58.5983 733.089 Q58.5983 735.344 57.3744 736.857 Q56.1184 738.339 54.3471 739.144 Q56.5371 739.756 61.7866 741.076 Q67.0362 742.397 67.5515 742.397 Q67.8413 742.397 67.9702 742.332 Q68.099 742.268 68.26 741.978 Q68.4533 741.688 68.5177 740.98 Q68.6143 740.271 68.6143 739.079 Q68.6143 738.467 68.6143 738.242 Q68.6465 737.984 68.8075 737.759 Q68.9686 737.501 69.3228 737.501 Q70.6433 737.501 70.6433 738.693 Q70.6433 739.756 70.5466 741.946 Q70.45 744.136 70.45 745.231 Q70.45 746.165 70.5466 748.033 Q70.6433 749.901 70.6433 750.77 Q70.6433 751.64 69.8703 751.64 Q69.4194 751.64 69.1296 751.511 Q68.8719 751.414 68.7431 751.157 Q68.6465 750.899 68.6143 750.674 Q68.6143 750.48 68.6143 750.094 Q68.6143 748.612 68.3566 747.968 Q68.1312 747.324 67.6481 747.099 Q67.1972 746.841 65.909 746.551 L36.5373 739.144 Q34.5727 738.693 33.1878 738.693 Q31.4487 738.693 30.8046 739.24 Q30.1605 739.788 30.1605 740.754 Q30.1605 742.429 32.1573 743.524 Q34.154 744.619 38.0187 745.553 Q39.0815 745.843 39.307 746.036 Q39.5324 746.197 39.5324 746.68 Q39.5002 747.485 38.8561 747.485 Q38.695 747.485 37.6645 747.227 Q36.6017 746.97 35.0558 746.487 Q33.4777 745.971 32.4793 745.424 Q31.803 745.102 31.3521 744.812 Q30.9012 744.522 30.1927 743.942 Q29.4842 743.331 29.0977 742.461 Q28.7112 741.591 28.7112 740.529 Q28.7112 738.467 29.9351 736.761 Q31.1589 735.054 33.6387 734.603 Q31.4809 732.767 30.0961 730.513 Q28.7112 728.258 28.7112 725.972 Q28.7112 722.171 31.6742 719.691 Q34.6049 717.179 39.2425 717.179 M36.344 721.946 Q33.4133 721.946 31.803 723.073 Q30.1605 724.168 30.1605 726.165 Q30.1605 728.645 32.6725 731.511 Q35.0558 734.345 37.278 734.925 L50.1925 738.178 L51.2553 738.371 Q51.4486 738.371 52.0283 738.274 Q52.5758 738.145 53.4775 737.791 Q54.3793 737.405 55.1844 736.889 Q55.9574 736.342 56.5371 735.376 Q57.1168 734.377 57.1168 733.154 Q57.1168 731.189 55.3777 729.063 Q53.6386 726.906 50.3536 725.295 Q48.228 724.297 43.6547 723.138 Q39.0493 721.946 36.344 721.946 Z" fill="#000000" fill-rule="evenodd" fill-opacity="1" /><polyline clip-path="url(#clip782)" style="stroke:#009af9; stroke-linecap:butt; stroke-linejoin:round; stroke-width:8; stroke-opacity:1; fill:none" points="
  719.773,1010.4 723.851,1012 727.91,1013.69 731.947,1015.48 735.956,1017.37 739.935,1019.35 743.879,1021.41 747.786,1023.56 751.65,1025.8 755.468,1028.12 
  759.236,1030.52 762.951,1032.99 766.608,1035.54 770.204,1038.15 773.736,1040.84 777.199,1043.58 780.591,1046.39 783.907,1049.25 787.146,1052.17 790.302,1055.14 
  793.375,1058.16 796.359,1061.22 799.254,1064.31 802.055,1067.45 804.761,1070.62 807.369,1073.82 809.876,1077.04 812.281,1080.29 814.581,1083.55 816.775,1086.83 
  818.861,1090.12 820.838,1093.43 822.704,1096.73 824.458,1100.05 826.099,1103.36 827.627,1106.67 829.04,1109.97 830.338,1113.27 831.521,1116.55 832.589,1119.82 
  833.541,1123.08 834.378,1126.31 835.1,1129.53 835.707,1132.72 836.201,1135.89 836.58,1139.03 836.848,1142.14 837.004,1145.22 837.049,1148.27 836.985,1151.29 
  836.813,1154.27 836.533,1157.21 836.149,1160.12 835.66,1162.99 835.07,1165.82 834.378,1168.6 833.588,1171.35 832.701,1174.05 831.718,1176.71 830.643,1179.32 
  829.478,1181.9 828.223,1184.42 826.883,1186.9 825.458,1189.34 823.95,1191.72 822.363,1194.07 820.698,1196.36 818.958,1198.61 817.144,1200.81 815.26,1202.97 
  813.307,1205.08 811.288,1207.14 809.204,1209.15 807.059,1211.12 804.855,1213.04 802.593,1214.92 800.276,1216.75 797.906,1218.53 795.485,1220.27 793.016,1221.96 
  790.5,1223.61 787.941,1225.21 785.339,1226.77 782.697,1228.28 780.018,1229.75 777.303,1231.18 774.555,1232.57 771.775,1233.91 768.964,1235.21 766.126,1236.47 
  763.261,1237.69 760.372,1238.86 757.461,1240 754.529,1241.09 751.578,1242.15 748.609,1243.17 745.625,1244.15 742.626,1245.09 739.615,1245.99 736.593,1246.85 
  733.562,1247.68 730.522,1248.47 727.476,1249.23 724.424,1249.95 721.369,1250.63 718.311,1251.28 715.251,1251.89 712.192,1252.47 709.133,1253.01 706.077,1253.52 
  703.024,1253.99 699.975,1254.44 696.932,1254.85 693.895,1255.22 690.866,1255.57 687.845,1255.88 684.833,1256.16 681.832,1256.41 678.842,1256.63 675.864,1256.81 
  672.899,1256.97 669.948,1257.1 667.011,1257.19 664.089,1257.26 661.184,1257.29 658.295,1257.29 655.423,1257.27 652.57,1257.22 649.735,1257.13 646.919,1257.02 
  644.124,1256.88 641.349,1256.71 638.596,1256.51 635.864,1256.28 633.154,1256.02 630.468,1255.74 627.804,1255.42 625.165,1255.08 622.549,1254.71 619.959,1254.31 
  617.393,1253.88 614.853,1253.43 612.34,1252.95 609.852,1252.44 607.391,1251.9 604.957,1251.34 602.55,1250.74 600.17,1250.12 597.819,1249.47 595.495,1248.8 
  593.2,1248.09 590.933,1247.36 588.695,1246.6 586.487,1245.81 584.308,1245 582.159,1244.15 580.04,1243.28 577.951,1242.39 575.894,1241.46 573.867,1240.51 
  571.871,1239.52 569.907,1238.51 567.974,1237.47 566.073,1236.41 564.205,1235.31 562.368,1234.19 560.564,1233.04 558.793,1231.86 557.055,1230.65 555.351,1229.42 
  553.679,1228.15 552.042,1226.86 550.438,1225.54 548.868,1224.19 547.333,1222.81 545.832,1221.4 544.366,1219.97 542.935,1218.5 541.539,1217.01 540.178,1215.49 
  538.853,1213.94 537.564,1212.36 536.311,1210.75 535.094,1209.12 533.913,1207.45 532.769,1205.76 531.661,1204.04 530.591,1202.29 529.557,1200.51 528.562,1198.7 
  527.603,1196.87 526.683,1195.01 525.801,1193.12 524.958,1191.2 524.153,1189.26 523.388,1187.28 522.661,1185.28 521.975,1183.25 521.328,1181.2 520.722,1179.11 
  520.156,1177 519.631,1174.86 519.147,1172.7 518.705,1170.51 518.304,1168.29 517.946,1166.05 517.63,1163.78 517.357,1161.48 517.127,1159.16 516.941,1156.82 
  516.799,1154.45 516.701,1152.06 516.648,1149.65 516.64,1147.22 516.677,1144.76 516.761,1142.28 516.891,1139.79 517.067,1137.27 517.291,1134.74 517.562,1132.18 
  517.881,1129.61 518.249,1127.03 518.666,1124.43 519.132,1121.81 519.648,1119.18 520.214,1116.54 520.831,1113.89 521.499,1111.23 522.219,1108.56 522.991,1105.88 
  523.816,1103.19 524.694,1100.5 525.626,1097.8 526.612,1095.1 527.652,1092.4 528.746,1089.69 529.895,1086.99 531.1,1084.29 532.362,1081.59 533.681,1078.9 
  535.059,1076.22 536.494,1073.55 537.989,1070.89 539.543,1068.24 541.157,1065.61 542.831,1063 544.567,1060.41 546.363,1057.84 548.221,1055.29 550.14,1052.77 
  552.121,1050.28 554.165,1047.82 556.27,1045.4 558.438,1043 560.668,1040.65 562.961,1038.33 565.315,1036.06 567.732,1033.83 570.212,1031.64 572.753,1029.51 
  575.356,1027.42 578.02,1025.39 580.746,1023.42 583.533,1021.5 586.381,1019.64 589.289,1017.85 592.257,1016.12 595.284,1014.46 598.37,1012.87 601.515,1011.35 
  604.717,1009.9 607.976,1008.54 611.292,1007.26 614.663,1006.06 618.09,1004.94 621.571,1003.91 625.112,1002.99 628.712,1002.15 632.369,1001.42 636.077,1000.79 
  639.834,1000.26 643.637,999.833 647.482,999.506 651.365,999.279 655.283,999.154 659.232,999.131 663.21,999.21 667.213,999.39 671.238,999.671 675.28,1000.05 
  679.338,1000.54 683.407,1001.12 687.485,1001.8 691.567,1002.58 695.652,1003.46 699.735,1004.44 703.814,1005.51 707.884,1006.68 711.944,1007.95 715.99,1009.31 
  720.019,1010.76 724.027,1012.3 728.012,1013.93 731.97,1015.65 735.898,1017.46 739.795,1019.36 743.655,1021.33 747.477,1023.39 751.257,1025.53 754.993,1027.75 
  758.681,1030.05 762.318,1032.41 765.902,1034.86 769.43,1037.37 772.899,1039.95 776.306,1042.59 779.647,1045.3 782.921,1048.06 786.125,1050.89 789.255,1053.77 
  792.309,1056.7 795.284,1059.69 798.177,1062.71 800.986,1065.79 803.708,1068.9 806.341,1072.05 808.881,1075.23 811.326,1078.45 813.673,1081.69 815.92,1084.95 
  818.064,1088.24 820.103,1091.54 822.034,1094.85 823.855,1098.17 825.564,1101.5 827.162,1104.82 828.647,1108.14 830.018,1111.45 831.276,1114.75 832.418,1118.04 
  833.446,1121.32 834.359,1124.58 835.157,1127.82 835.84,1131.04 836.409,1134.24 836.862,1137.41 837.202,1140.55 837.429,1143.66 837.542,1146.74 837.544,1149.79 
  837.435,1152.8 837.216,1155.77 836.889,1158.71 836.455,1161.61 835.914,1164.47 835.27,1167.28 834.523,1170.06 833.676,1172.79 832.731,1175.47 831.689,1178.12 
  830.553,1180.71 829.325,1183.26 828.008,1185.77 826.604,1188.23 825.117,1190.64 823.548,1193 821.902,1195.32 820.181,1197.59 818.388,1199.82 816.527,1202 
  814.602,1204.13 812.61,1206.22 810.552,1208.26 808.431,1210.25 806.248,1212.2 804.007,1214.1 801.71,1215.95 799.359,1217.76 796.956,1219.52 794.503,1221.24 
  792.004,1222.91 789.459,1224.54 786.872,1226.12 784.244,1227.66 781.577,1229.15 778.874,1230.6 776.136,1232.01 773.365,1233.38 770.564,1234.7 767.734,1235.98 
  764.877,1237.22 761.995,1238.42 759.089,1239.58 756.163,1240.69 753.216,1241.77 750.251,1242.81 747.27,1243.81 744.273,1244.77 741.264,1245.69 738.242,1246.57 
  735.211,1247.42 732.17,1248.22 729.123,1249 726.069,1249.73 723.011,1250.43 719.949,1251.09 716.885,1251.72 713.821,1252.32 710.757,1252.87 707.695,1253.4 
  704.635,1253.89 701.579,1254.35 698.528,1254.78 695.483,1255.17 692.444,1255.53 689.412,1255.86 686.39,1256.16 683.376,1256.43 680.373,1256.66 677.381,1256.86 
  674.402,1257.04 671.436,1257.18 668.483,1257.29 665.546,1257.37 662.623,1257.42 659.718,1257.44 656.829,1257.43 653.958,1257.39 651.106,1257.32 648.273,1257.22 
  645.459,1257.1 642.667,1256.94 639.895,1256.75 637.146,1256.54 634.419,1256.3 631.715,1256.03 629.034,1255.73 626.377,1255.4 623.745,1255.04 621.138,1254.66 
  618.557,1254.25 616.001,1253.81 613.472,1253.34 610.97,1252.84 608.494,1252.32 606.047,1251.77 603.627,1251.19 601.235,1250.58 598.871,1249.94 596.537,1249.28 
  594.231,1248.59 591.954,1247.87 589.707,1247.13 587.489,1246.36 585.302,1245.56 583.144,1244.73 581.016,1243.87 578.918,1242.99 576.85,1242.08 574.812,1241.14 
  572.805,1240.17 570.828,1239.17 568.881,1238.15 566.965,1237.1 565.078,1236.02 563.223,1234.91 561.401,1233.77 559.61,1232.61 557.853,1231.42 556.129,1230.2 
  554.438,1228.95 552.781,1227.67 551.157,1226.37 549.567,1225.04 548.011,1223.67 546.489,1222.28 545.002,1220.86 543.55,1219.42 542.132,1217.94 540.75,1216.43 
  539.403,1214.9 538.091,1213.33 536.816,1211.74 535.576,1210.12 534.373,1208.47 533.206,1206.79 532.077,1205.08 530.984,1203.34 529.928,1201.57 528.91,1199.78 
  527.93,1197.95 526.988,1196.1 526.084,1194.22 525.219,1192.31 524.393,1190.38 523.606,1188.41 522.858,1186.42 522.15,1184.4 521.482,1182.35 520.854,1180.28 
  520.266,1178.18 519.72,1176.05 519.214,1173.9 518.75,1171.72 518.328,1169.51 517.947,1167.28 517.609,1165.02 517.313,1162.74 517.061,1160.43 516.851,1158.1 
  516.685,1155.75 516.563,1153.37 516.484,1150.97 516.45,1148.54 516.459,1146.1 516.514,1143.63 516.615,1141.15 516.761,1138.64 516.955,1136.12 517.196,1133.58 
  517.486,1131.02 517.824,1128.44 518.211,1125.85 518.648,1123.24 519.135,1120.62 519.673,1117.99 520.263,1115.34 520.904,1112.68 521.598,1110.01 522.344,1107.34 
  523.144,1104.65 523.997,1101.96 524.904,1099.26 525.866,1096.57 526.884,1093.86 527.956,1091.16 529.084,1088.46 530.269,1085.76 531.51,1083.06 532.808,1080.37 
  534.164,1077.69 535.577,1075.01 537.048,1072.35 538.578,1069.7 540.166,1067.06 541.813,1064.44 543.52,1061.83 545.286,1059.25 547.112,1056.68 548.998,1054.14 
  550.944,1051.63 552.951,1049.15 555.019,1046.69 557.148,1044.27 559.337,1041.88 561.589,1039.54 563.902,1037.23 566.277,1034.96 568.714,1032.74 571.213,1030.56 
  573.774,1028.44 576.397,1026.36 579.083,1024.35 581.832,1022.39 584.644,1020.49 587.518,1018.65 590.455,1016.88 593.457,1015.18 596.525,1013.55 599.657,1011.99 
  602.851,1010.5 606.107,1009.09 609.422,1007.77 612.795,1006.53 616.224,1005.37 619.706,1004.3 623.24,1003.31 626.824,1002.42 630.456,1001.62 634.133,1000.92 
  637.854,1000.31 641.617,999.796 645.418,999.383 649.257,999.068 653.13,998.854 657.035,998.742 660.97,998.731 664.932,998.823 668.919,999.018 672.928,999.316 
  676.956,999.718 681.001,1000.22 685.06,1000.83 689.13,1001.55 693.209,1002.36 697.293,1003.28 701.38,1004.3 705.466,1005.43 709.549,1006.65 713.625,1007.98 
  717.692,1009.4 721.745,1010.93 725.783,1012.55 729.801,1014.26 733.796,1016.07 737.766,1017.97 741.705,1019.96 745.612,1022.04 749.482,1024.21 753.312,1026.46 
  757.098,1028.8 760.837,1031.21 764.524,1033.7 768.157,1036.27 771.73,1038.91 775.241,1041.61 778.685,1044.39 782.06,1047.22 785.364,1050.12 788.592,1053.07 
  791.742,1056.07 794.809,1059.12 797.79,1062.21 800.681,1065.34 803.481,1068.51 806.184,1071.71 808.79,1074.93 811.295,1078.18 813.697,1081.46 815.994,1084.75 
  818.183,1088.06 820.262,1091.37 822.23,1094.7 824.086,1098.04 825.828,1101.37 827.454,1104.71 828.964,1108.04 830.357,1111.37 831.631,1114.69 832.788,1118 
  833.826,1121.29 834.744,1124.57 835.544,1127.83 836.225,1131.07 836.788,1134.29 837.232,1137.48 837.56,1140.65 837.771,1143.78 837.867,1146.89 837.849,1149.96 
  837.718,1153 837.477,1156 837.125,1158.96 836.667,1161.88 836.103,1164.76 835.436,1167.6 834.668,1170.39 833.802,1173.14 832.841,1175.84 831.788,1178.49 
  830.645,1181.09 829.416,1183.65 828.1,1186.15 826.697,1188.61 825.21,1191.02 823.642,1193.39 821.995,1195.71 820.271,1197.98 818.473,1200.2 816.603,1202.38 
  814.664,1204.51 812.658,1206.6 810.587,1208.64 808.454,1210.63 806.26,1212.57 804.009,1214.47 801.701,1216.32 799.34,1218.13 796.928,1219.89 794.466,1221.6 
  791.957,1223.27 789.404,1224.9 786.807,1226.48 784.169,1228.01 781.492,1229.5 778.779,1230.95 776.031,1232.35 773.249,1233.71 770.437,1235.03 767.596,1236.3 
  764.728,1237.53 761.834,1238.72 758.917,1239.87 755.979,1240.98 753.02,1242.05 750.044,1243.08 747.052,1244.07 744.045,1245.02 741.025,1245.93 737.994,1246.81 
  734.954,1247.65 731.906,1248.46 728.852,1249.22 725.793,1249.96 722.728,1250.65 719.659,1251.32 716.588,1251.94 713.516,1252.53 710.444,1253.09 707.373,1253.61 
  704.305,1254.1 701.241,1254.56 698.181,1254.98 695.127,1255.37 692.081,1255.73 689.042,1256.05 686.013,1256.35 682.994,1256.61 679.986,1256.84 676.989,1257.03 
  674.006,1257.2 671.037,1257.34 668.082,1257.45 665.143,1257.52 662.22,1257.57 659.315,1257.58 656.427,1257.57 653.558,1257.53 650.708,1257.45 647.878,1257.35 
  645.069,1257.22 642.281,1257.06 639.514,1256.87 636.77,1256.65 634.049,1256.41 631.351,1256.14 628.677,1255.83 626.028,1255.5 623.403,1255.14 620.803,1254.76 
  618.229,1254.34 615.68,1253.9 613.158,1253.43 610.662,1252.93 608.192,1252.4 605.75,1251.85 603.334,1251.27 600.946,1250.66 598.585,1250.02 596.252,1249.36 
  593.946,1248.66 591.668,1247.94 589.417,1247.19 587.194,1246.42 584.999,1245.61 582.833,1244.78 580.696,1243.92 578.591,1243.03 576.515,1242.12 574.471,1241.18 
  572.457,1240.21 570.475,1239.21 568.525,1238.18 566.606,1237.13 564.719,1236.04 562.864,1234.93 561.042,1233.79 559.252,1232.63 557.495,1231.43 555.772,1230.2 
  554.082,1228.95 552.425,1227.67 550.802,1226.36 549.213,1225.02 547.658,1223.65 546.138,1222.25 544.653,1220.82 543.202,1219.37 541.787,1217.89 540.407,1216.37 
  539.063,1214.83 537.754,1213.26 536.482,1211.66 535.246,1210.03 534.046,1208.38 532.883,1206.69 531.758,1204.98 530.669,1203.23 529.618,1201.46 528.604,1199.66 
  527.629,1197.84 526.692,1195.98 525.793,1194.1 524.932,1192.18 524.11,1190.24 523.328,1188.27 522.585,1186.28 521.881,1184.26 521.217,1182.2 520.593,1180.13 
  520.009,1178.02 519.465,1175.89 518.962,1173.73 518.5,1171.54 518.079,1169.34 517.7,1167.1 517.362,1164.84 517.067,1162.56 516.815,1160.25 516.606,1157.92 
  516.442,1155.57 516.321,1153.19 516.245,1150.79 516.215,1148.36 516.23,1145.92 516.291,1143.45 516.399,1140.96 516.553,1138.46 516.756,1135.93 517.006,1133.38 
  517.304,1130.82 517.651,1128.23 518.048,1125.64 518.494,1123.02 518.99,1120.39 519.537,1117.75 520.135,1115.1 520.784,1112.43 521.485,1109.75 522.239,1107.07 
  523.045,1104.37 523.904,1101.67 524.817,1098.97 525.784,1096.26 526.805,1093.55 527.881,1090.83 529.012,1088.12 530.199,1085.41 531.442,1082.7 532.742,1080 
  534.099,1077.31 535.512,1074.62 536.984,1071.95 538.514,1069.29 540.103,1066.64 541.75,1064.01 543.457,1061.39 545.224,1058.8 547.05,1056.23 548.938,1053.68 
  550.886,1051.16 552.896,1048.67 554.968,1046.21 557.102,1043.79 559.299,1041.4 561.558,1039.05 563.881,1036.74 566.268,1034.47 568.719,1032.25 571.235,1030.07 
  573.818,1027.95 576.467,1025.87 579.182,1023.85 581.962,1021.88 584.806,1019.98 587.714,1018.14 590.685,1016.37 593.717,1014.67 596.81,1013.03 599.962,1011.48 
  603.173,1010 606.441,1008.6 609.766,1007.28 613.145,1006.04 616.577,1004.9 620.061,1003.83 623.595,1002.86 627.178,1001.98 630.807,1001.2 634.482,1000.51 
  638.2,999.911 641.959,999.412 645.758,999.012 649.593,998.711 653.464,998.51 657.368,998.411 661.303,998.414 665.266,998.519 669.255,998.727 673.268,999.038 
  677.301,999.453 681.353,999.972 685.42,1000.6 689.501,1001.32 693.591,1002.15 697.689,1003.09 701.791,1004.12 705.894,1005.26 709.996,1006.5 714.092,1007.85 
  718.18,1009.29 722.257,1010.83 726.318,1012.47 730.361,1014.21 734.382,1016.05 738.378,1017.97 742.344,1020 746.278,1022.11 750.174,1024.31 754.031,1026.61 
  757.843,1028.98 761.606,1031.44 765.316,1033.97 768.968,1036.57 772.558,1039.25 776.083,1041.98 779.538,1044.78 782.919,1047.64 786.223,1050.56 789.446,1053.52 
  792.586,1056.53 795.638,1059.59 798.601,1062.69 801.471,1065.82 804.246,1068.99 806.923,1072.2 809.499,1075.43 811.973,1078.68 814.343,1081.96 816.606,1085.26 
  818.76,1088.57 820.805,1091.89 822.739,1095.23 824.56,1098.57 826.268,1101.91 827.86,1105.26 829.337,1108.6 830.698,1111.94 831.942,1115.27 833.069,1118.58 
  834.079,1121.89 834.971,1125.18 835.746,1128.45 836.403,1131.7 836.944,1134.93 837.368,1138.13 837.677,1141.3 837.871,1144.43 837.951,1147.54 837.918,1150.61 
  837.774,1153.64 837.52,1156.62 837.158,1159.57 836.689,1162.46 836.116,1165.32 835.44,1168.12 834.663,1170.89 833.789,1173.61 832.819,1176.29 831.755,1178.93 
  830.6,1181.52 829.356,1184.07 828.024,1186.57 826.609,1189.02 825.11,1191.43 823.532,1193.79 821.875,1196.11 820.142,1198.38 818.336,1200.6 816.458,1202.78 
  814.51,1204.91 812.496,1206.99 810.416,1209.02 808.274,1211.01 806.071,1212.95 803.809,1214.84 801.492,1216.69 799.119,1218.48 796.695,1220.23 794.221,1221.94 
  791.699,1223.6 789.131,1225.21 786.52,1226.78 783.868,1228.3 781.176,1229.77 778.447,1231.2 775.683,1232.59 772.886,1233.93 770.058,1235.24 767.201,1236.49 
  764.318,1237.71 761.41,1238.89 758.479,1240.02 755.529,1241.11 752.559,1242.17 749.574,1243.19 746.575,1244.17 743.563,1245.11 740.541,1246.02 737.511,1246.89 
  
  "/>
<circle clip-path="url(#clip782)" cx="719.773" cy="1010.4" r="14.4" fill="#e26f46" fill-rule="evenodd" fill-opacity="1" stroke="#000000" stroke-opacity="1" stroke-width="3.2"/>
<circle clip-path="url(#clip782)" cx="746.989" cy="1020.72" r="14.4" fill="#e26f46" fill-rule="evenodd" fill-opacity="1" stroke="#000000" stroke-opacity="1" stroke-width="3.2"/>
<circle clip-path="url(#clip782)" cx="773.423" cy="1035.31" r="14.4" fill="#e26f46" fill-rule="evenodd" fill-opacity="1" stroke="#000000" stroke-opacity="1" stroke-width="3.2"/>
<circle clip-path="url(#clip782)" cx="797.909" cy="1053.61" r="14.4" fill="#e26f46" fill-rule="evenodd" fill-opacity="1" stroke="#000000" stroke-opacity="1" stroke-width="3.2"/>
<circle clip-path="url(#clip782)" cx="819.259" cy="1074.78" r="14.4" fill="#e26f46" fill-rule="evenodd" fill-opacity="1" stroke="#000000" stroke-opacity="1" stroke-width="3.2"/>
<circle clip-path="url(#clip782)" cx="836.387" cy="1097.82" r="14.4" fill="#e26f46" fill-rule="evenodd" fill-opacity="1" stroke="#000000" stroke-opacity="1" stroke-width="3.2"/>
<circle clip-path="url(#clip782)" cx="848.438" cy="1121.64" r="14.4" fill="#e26f46" fill-rule="evenodd" fill-opacity="1" stroke="#000000" stroke-opacity="1" stroke-width="3.2"/>
<circle clip-path="url(#clip782)" cx="854.883" cy="1145.21" r="14.4" fill="#e26f46" fill-rule="evenodd" fill-opacity="1" stroke="#000000" stroke-opacity="1" stroke-width="3.2"/>
<circle clip-path="url(#clip782)" cx="855.57" cy="1167.69" r="14.4" fill="#e26f46" fill-rule="evenodd" fill-opacity="1" stroke="#000000" stroke-opacity="1" stroke-width="3.2"/>
<circle clip-path="url(#clip782)" cx="850.703" cy="1188.41" r="14.4" fill="#e26f46" fill-rule="evenodd" fill-opacity="1" stroke="#000000" stroke-opacity="1" stroke-width="3.2"/>
<circle clip-path="url(#clip782)" cx="840.784" cy="1206.99" r="14.4" fill="#e26f46" fill-rule="evenodd" fill-opacity="1" stroke="#000000" stroke-opacity="1" stroke-width="3.2"/>
<circle clip-path="url(#clip782)" cx="826.52" cy="1223.21" r="14.4" fill="#e26f46" fill-rule="evenodd" fill-opacity="1" stroke="#000000" stroke-opacity="1" stroke-width="3.2"/>
<circle clip-path="url(#clip782)" cx="808.724" cy="1237.03" r="14.4" fill="#e26f46" fill-rule="evenodd" fill-opacity="1" stroke="#000000" stroke-opacity="1" stroke-width="3.2"/>
<circle clip-path="url(#clip782)" cx="788.234" cy="1248.53" r="14.4" fill="#e26f46" fill-rule="evenodd" fill-opacity="1" stroke="#000000" stroke-opacity="1" stroke-width="3.2"/>
<circle clip-path="url(#clip782)" cx="765.847" cy="1257.84" r="14.4" fill="#e26f46" fill-rule="evenodd" fill-opacity="1" stroke="#000000" stroke-opacity="1" stroke-width="3.2"/>
<circle clip-path="url(#clip782)" cx="742.28" cy="1265.12" r="14.4" fill="#e26f46" fill-rule="evenodd" fill-opacity="1" stroke="#000000" stroke-opacity="1" stroke-width="3.2"/>
<circle clip-path="url(#clip782)" cx="718.154" cy="1270.54" r="14.4" fill="#e26f46" fill-rule="evenodd" fill-opacity="1" stroke="#000000" stroke-opacity="1" stroke-width="3.2"/>
<circle clip-path="url(#clip782)" cx="693.985" cy="1274.26" r="14.4" fill="#e26f46" fill-rule="evenodd" fill-opacity="1" stroke="#000000" stroke-opacity="1" stroke-width="3.2"/>
<circle clip-path="url(#clip782)" cx="670.193" cy="1276.39" r="14.4" fill="#e26f46" fill-rule="evenodd" fill-opacity="1" stroke="#000000" stroke-opacity="1" stroke-width="3.2"/>
<circle clip-path="url(#clip782)" cx="647.109" cy="1277.05" r="14.4" fill="#e26f46" fill-rule="evenodd" fill-opacity="1" stroke="#000000" stroke-opacity="1" stroke-width="3.2"/>
<circle clip-path="url(#clip782)" cx="624.988" cy="1276.32" r="14.4" fill="#e26f46" fill-rule="evenodd" fill-opacity="1" stroke="#000000" stroke-opacity="1" stroke-width="3.2"/>
<circle clip-path="url(#clip782)" cx="604.025" cy="1274.23" r="14.4" fill="#e26f46" fill-rule="evenodd" fill-opacity="1" stroke="#000000" stroke-opacity="1" stroke-width="3.2"/>
<circle clip-path="url(#clip782)" cx="584.364" cy="1270.83" r="14.4" fill="#e26f46" fill-rule="evenodd" fill-opacity="1" stroke="#000000" stroke-opacity="1" stroke-width="3.2"/>
<circle clip-path="url(#clip782)" cx="566.111" cy="1266.11" r="14.4" fill="#e26f46" fill-rule="evenodd" fill-opacity="1" stroke="#000000" stroke-opacity="1" stroke-width="3.2"/>
<circle clip-path="url(#clip782)" cx="549.342" cy="1260.06" r="14.4" fill="#e26f46" fill-rule="evenodd" fill-opacity="1" stroke="#000000" stroke-opacity="1" stroke-width="3.2"/>
<circle clip-path="url(#clip782)" cx="534.115" cy="1252.65" r="14.4" fill="#e26f46" fill-rule="evenodd" fill-opacity="1" stroke="#000000" stroke-opacity="1" stroke-width="3.2"/>
<circle clip-path="url(#clip782)" cx="520.474" cy="1243.83" r="14.4" fill="#e26f46" fill-rule="evenodd" fill-opacity="1" stroke="#000000" stroke-opacity="1" stroke-width="3.2"/>
<circle clip-path="url(#clip782)" cx="508.458" cy="1233.54" r="14.4" fill="#e26f46" fill-rule="evenodd" fill-opacity="1" stroke="#000000" stroke-opacity="1" stroke-width="3.2"/>
<circle clip-path="url(#clip782)" cx="498.106" cy="1221.71" r="14.4" fill="#e26f46" fill-rule="evenodd" fill-opacity="1" stroke="#000000" stroke-opacity="1" stroke-width="3.2"/>
<circle clip-path="url(#clip782)" cx="489.463" cy="1208.29" r="14.4" fill="#e26f46" fill-rule="evenodd" fill-opacity="1" stroke="#000000" stroke-opacity="1" stroke-width="3.2"/>
<circle clip-path="url(#clip782)" cx="482.582" cy="1193.2" r="14.4" fill="#e26f46" fill-rule="evenodd" fill-opacity="1" stroke="#000000" stroke-opacity="1" stroke-width="3.2"/>
<circle clip-path="url(#clip782)" cx="477.536" cy="1176.41" r="14.4" fill="#e26f46" fill-rule="evenodd" fill-opacity="1" stroke="#000000" stroke-opacity="1" stroke-width="3.2"/>
<circle clip-path="url(#clip782)" cx="474.417" cy="1157.86" r="14.4" fill="#e26f46" fill-rule="evenodd" fill-opacity="1" stroke="#000000" stroke-opacity="1" stroke-width="3.2"/>
<circle clip-path="url(#clip782)" cx="473.345" cy="1137.59" r="14.4" fill="#e26f46" fill-rule="evenodd" fill-opacity="1" stroke="#000000" stroke-opacity="1" stroke-width="3.2"/>
<circle clip-path="url(#clip782)" cx="474.471" cy="1115.64" r="14.4" fill="#e26f46" fill-rule="evenodd" fill-opacity="1" stroke="#000000" stroke-opacity="1" stroke-width="3.2"/>
<circle clip-path="url(#clip782)" cx="477.987" cy="1092.14" r="14.4" fill="#e26f46" fill-rule="evenodd" fill-opacity="1" stroke="#000000" stroke-opacity="1" stroke-width="3.2"/>
<circle clip-path="url(#clip782)" cx="484.127" cy="1067.33" r="14.4" fill="#e26f46" fill-rule="evenodd" fill-opacity="1" stroke="#000000" stroke-opacity="1" stroke-width="3.2"/>
<circle clip-path="url(#clip782)" cx="493.174" cy="1041.57" r="14.4" fill="#e26f46" fill-rule="evenodd" fill-opacity="1" stroke="#000000" stroke-opacity="1" stroke-width="3.2"/>
<circle clip-path="url(#clip782)" cx="505.462" cy="1015.37" r="14.4" fill="#e26f46" fill-rule="evenodd" fill-opacity="1" stroke="#000000" stroke-opacity="1" stroke-width="3.2"/>
<circle clip-path="url(#clip782)" cx="521.367" cy="989.435" r="14.4" fill="#e26f46" fill-rule="evenodd" fill-opacity="1" stroke="#000000" stroke-opacity="1" stroke-width="3.2"/>
<circle clip-path="url(#clip782)" cx="541.298" cy="964.706" r="14.4" fill="#e26f46" fill-rule="evenodd" fill-opacity="1" stroke="#000000" stroke-opacity="1" stroke-width="3.2"/>
<circle clip-path="url(#clip782)" cx="565.665" cy="942.345" r="14.4" fill="#e26f46" fill-rule="evenodd" fill-opacity="1" stroke="#000000" stroke-opacity="1" stroke-width="3.2"/>
<circle clip-path="url(#clip782)" cx="594.827" cy="923.736" r="14.4" fill="#e26f46" fill-rule="evenodd" fill-opacity="1" stroke="#000000" stroke-opacity="1" stroke-width="3.2"/>
<circle clip-path="url(#clip782)" cx="629.003" cy="910.428" r="14.4" fill="#e26f46" fill-rule="evenodd" fill-opacity="1" stroke="#000000" stroke-opacity="1" stroke-width="3.2"/>
<circle clip-path="url(#clip782)" cx="668.158" cy="904.008" r="14.4" fill="#e26f46" fill-rule="evenodd" fill-opacity="1" stroke="#000000" stroke-opacity="1" stroke-width="3.2"/>
<circle clip-path="url(#clip782)" cx="711.842" cy="905.911" r="14.4" fill="#e26f46" fill-rule="evenodd" fill-opacity="1" stroke="#000000" stroke-opacity="1" stroke-width="3.2"/>
<circle clip-path="url(#clip782)" cx="759.029" cy="917.147" r="14.4" fill="#e26f46" fill-rule="evenodd" fill-opacity="1" stroke="#000000" stroke-opacity="1" stroke-width="3.2"/>
<circle clip-path="url(#clip782)" cx="807.984" cy="938.009" r="14.4" fill="#e26f46" fill-rule="evenodd" fill-opacity="1" stroke="#000000" stroke-opacity="1" stroke-width="3.2"/>
<circle clip-path="url(#clip782)" cx="856.251" cy="967.829" r="14.4" fill="#e26f46" fill-rule="evenodd" fill-opacity="1" stroke="#000000" stroke-opacity="1" stroke-width="3.2"/>
<circle clip-path="url(#clip782)" cx="900.823" cy="1004.9" r="14.4" fill="#e26f46" fill-rule="evenodd" fill-opacity="1" stroke="#000000" stroke-opacity="1" stroke-width="3.2"/>
<circle clip-path="url(#clip782)" cx="938.541" cy="1046.66" r="14.4" fill="#e26f46" fill-rule="evenodd" fill-opacity="1" stroke="#000000" stroke-opacity="1" stroke-width="3.2"/>
<circle clip-path="url(#clip782)" cx="966.641" cy="1090.12" r="14.4" fill="#e26f46" fill-rule="evenodd" fill-opacity="1" stroke="#000000" stroke-opacity="1" stroke-width="3.2"/>
<circle clip-path="url(#clip782)" cx="983.279" cy="1132.43" r="14.4" fill="#e26f46" fill-rule="evenodd" fill-opacity="1" stroke="#000000" stroke-opacity="1" stroke-width="3.2"/>
<circle clip-path="url(#clip782)" cx="987.846" cy="1171.37" r="14.4" fill="#e26f46" fill-rule="evenodd" fill-opacity="1" stroke="#000000" stroke-opacity="1" stroke-width="3.2"/>
<circle clip-path="url(#clip782)" cx="980.945" cy="1205.57" r="14.4" fill="#e26f46" fill-rule="evenodd" fill-opacity="1" stroke="#000000" stroke-opacity="1" stroke-width="3.2"/>
<circle clip-path="url(#clip782)" cx="964.091" cy="1234.5" r="14.4" fill="#e26f46" fill-rule="evenodd" fill-opacity="1" stroke="#000000" stroke-opacity="1" stroke-width="3.2"/>
<circle clip-path="url(#clip782)" cx="939.299" cy="1258.27" r="14.4" fill="#e26f46" fill-rule="evenodd" fill-opacity="1" stroke="#000000" stroke-opacity="1" stroke-width="3.2"/>
<circle clip-path="url(#clip782)" cx="908.688" cy="1277.36" r="14.4" fill="#e26f46" fill-rule="evenodd" fill-opacity="1" stroke="#000000" stroke-opacity="1" stroke-width="3.2"/>
<circle clip-path="url(#clip782)" cx="874.217" cy="1292.39" r="14.4" fill="#e26f46" fill-rule="evenodd" fill-opacity="1" stroke="#000000" stroke-opacity="1" stroke-width="3.2"/>
<circle clip-path="url(#clip782)" cx="837.55" cy="1304.01" r="14.4" fill="#e26f46" fill-rule="evenodd" fill-opacity="1" stroke="#000000" stroke-opacity="1" stroke-width="3.2"/>
<circle clip-path="url(#clip782)" cx="800.012" cy="1312.79" r="14.4" fill="#e26f46" fill-rule="evenodd" fill-opacity="1" stroke="#000000" stroke-opacity="1" stroke-width="3.2"/>
<circle clip-path="url(#clip782)" cx="762.609" cy="1319.21" r="14.4" fill="#e26f46" fill-rule="evenodd" fill-opacity="1" stroke="#000000" stroke-opacity="1" stroke-width="3.2"/>
<circle clip-path="url(#clip782)" cx="726.076" cy="1323.65" r="14.4" fill="#e26f46" fill-rule="evenodd" fill-opacity="1" stroke="#000000" stroke-opacity="1" stroke-width="3.2"/>
<circle clip-path="url(#clip782)" cx="690.927" cy="1326.4" r="14.4" fill="#e26f46" fill-rule="evenodd" fill-opacity="1" stroke="#000000" stroke-opacity="1" stroke-width="3.2"/>
<circle clip-path="url(#clip782)" cx="657.508" cy="1327.67" r="14.4" fill="#e26f46" fill-rule="evenodd" fill-opacity="1" stroke="#000000" stroke-opacity="1" stroke-width="3.2"/>
<circle clip-path="url(#clip782)" cx="626.033" cy="1327.6" r="14.4" fill="#e26f46" fill-rule="evenodd" fill-opacity="1" stroke="#000000" stroke-opacity="1" stroke-width="3.2"/>
<circle clip-path="url(#clip782)" cx="596.625" cy="1326.28" r="14.4" fill="#e26f46" fill-rule="evenodd" fill-opacity="1" stroke="#000000" stroke-opacity="1" stroke-width="3.2"/>
<circle clip-path="url(#clip782)" cx="569.338" cy="1323.77" r="14.4" fill="#e26f46" fill-rule="evenodd" fill-opacity="1" stroke="#000000" stroke-opacity="1" stroke-width="3.2"/>
<circle clip-path="url(#clip782)" cx="544.177" cy="1320.08" r="14.4" fill="#e26f46" fill-rule="evenodd" fill-opacity="1" stroke="#000000" stroke-opacity="1" stroke-width="3.2"/>
<circle clip-path="url(#clip782)" cx="521.119" cy="1315.17" r="14.4" fill="#e26f46" fill-rule="evenodd" fill-opacity="1" stroke="#000000" stroke-opacity="1" stroke-width="3.2"/>
<circle clip-path="url(#clip782)" cx="500.119" cy="1309" r="14.4" fill="#e26f46" fill-rule="evenodd" fill-opacity="1" stroke="#000000" stroke-opacity="1" stroke-width="3.2"/>
<circle clip-path="url(#clip782)" cx="481.123" cy="1301.49" r="14.4" fill="#e26f46" fill-rule="evenodd" fill-opacity="1" stroke="#000000" stroke-opacity="1" stroke-width="3.2"/>
<circle clip-path="url(#clip782)" cx="464.073" cy="1292.53" r="14.4" fill="#e26f46" fill-rule="evenodd" fill-opacity="1" stroke="#000000" stroke-opacity="1" stroke-width="3.2"/>
<circle clip-path="url(#clip782)" cx="448.914" cy="1281.98" r="14.4" fill="#e26f46" fill-rule="evenodd" fill-opacity="1" stroke="#000000" stroke-opacity="1" stroke-width="3.2"/>
<circle clip-path="url(#clip782)" cx="435.598" cy="1269.7" r="14.4" fill="#e26f46" fill-rule="evenodd" fill-opacity="1" stroke="#000000" stroke-opacity="1" stroke-width="3.2"/>
<circle clip-path="url(#clip782)" cx="424.092" cy="1255.51" r="14.4" fill="#e26f46" fill-rule="evenodd" fill-opacity="1" stroke="#000000" stroke-opacity="1" stroke-width="3.2"/>
<circle clip-path="url(#clip782)" cx="414.377" cy="1239.21" r="14.4" fill="#e26f46" fill-rule="evenodd" fill-opacity="1" stroke="#000000" stroke-opacity="1" stroke-width="3.2"/>
<circle clip-path="url(#clip782)" cx="406.457" cy="1220.59" r="14.4" fill="#e26f46" fill-rule="evenodd" fill-opacity="1" stroke="#000000" stroke-opacity="1" stroke-width="3.2"/>
<circle clip-path="url(#clip782)" cx="400.363" cy="1199.42" r="14.4" fill="#e26f46" fill-rule="evenodd" fill-opacity="1" stroke="#000000" stroke-opacity="1" stroke-width="3.2"/>
<circle clip-path="url(#clip782)" cx="396.16" cy="1175.47" r="14.4" fill="#e26f46" fill-rule="evenodd" fill-opacity="1" stroke="#000000" stroke-opacity="1" stroke-width="3.2"/>
<circle clip-path="url(#clip782)" cx="393.956" cy="1148.52" r="14.4" fill="#e26f46" fill-rule="evenodd" fill-opacity="1" stroke="#000000" stroke-opacity="1" stroke-width="3.2"/>
<circle clip-path="url(#clip782)" cx="393.914" cy="1118.4" r="14.4" fill="#e26f46" fill-rule="evenodd" fill-opacity="1" stroke="#000000" stroke-opacity="1" stroke-width="3.2"/>
<circle clip-path="url(#clip782)" cx="396.263" cy="1084.97" r="14.4" fill="#e26f46" fill-rule="evenodd" fill-opacity="1" stroke="#000000" stroke-opacity="1" stroke-width="3.2"/>
<circle clip-path="url(#clip782)" cx="401.321" cy="1048.19" r="14.4" fill="#e26f46" fill-rule="evenodd" fill-opacity="1" stroke="#000000" stroke-opacity="1" stroke-width="3.2"/>
<circle clip-path="url(#clip782)" cx="409.512" cy="1008.21" r="14.4" fill="#e26f46" fill-rule="evenodd" fill-opacity="1" stroke="#000000" stroke-opacity="1" stroke-width="3.2"/>
<circle clip-path="url(#clip782)" cx="421.402" cy="965.364" r="14.4" fill="#e26f46" fill-rule="evenodd" fill-opacity="1" stroke="#000000" stroke-opacity="1" stroke-width="3.2"/>
<circle clip-path="url(#clip782)" cx="437.725" cy="920.346" r="14.4" fill="#e26f46" fill-rule="evenodd" fill-opacity="1" stroke="#000000" stroke-opacity="1" stroke-width="3.2"/>
<circle clip-path="url(#clip782)" cx="459.422" cy="874.293" r="14.4" fill="#e26f46" fill-rule="evenodd" fill-opacity="1" stroke="#000000" stroke-opacity="1" stroke-width="3.2"/>
<circle clip-path="url(#clip782)" cx="487.666" cy="828.946" r="14.4" fill="#e26f46" fill-rule="evenodd" fill-opacity="1" stroke="#000000" stroke-opacity="1" stroke-width="3.2"/>
<circle clip-path="url(#clip782)" cx="523.864" cy="786.79" r="14.4" fill="#e26f46" fill-rule="evenodd" fill-opacity="1" stroke="#000000" stroke-opacity="1" stroke-width="3.2"/>
<circle clip-path="url(#clip782)" cx="569.597" cy="751.165" r="14.4" fill="#e26f46" fill-rule="evenodd" fill-opacity="1" stroke="#000000" stroke-opacity="1" stroke-width="3.2"/>
<circle clip-path="url(#clip782)" cx="626.435" cy="726.249" r="14.4" fill="#e26f46" fill-rule="evenodd" fill-opacity="1" stroke="#000000" stroke-opacity="1" stroke-width="3.2"/>
<circle clip-path="url(#clip782)" cx="695.552" cy="716.784" r="14.4" fill="#e26f46" fill-rule="evenodd" fill-opacity="1" stroke="#000000" stroke-opacity="1" stroke-width="3.2"/>
<circle clip-path="url(#clip782)" cx="777.051" cy="727.371" r="14.4" fill="#e26f46" fill-rule="evenodd" fill-opacity="1" stroke="#000000" stroke-opacity="1" stroke-width="3.2"/>
<circle clip-path="url(#clip782)" cx="869.006" cy="761.24" r="14.4" fill="#e26f46" fill-rule="evenodd" fill-opacity="1" stroke="#000000" stroke-opacity="1" stroke-width="3.2"/>
<circle clip-path="url(#clip782)" cx="966.48" cy="818.621" r="14.4" fill="#e26f46" fill-rule="evenodd" fill-opacity="1" stroke="#000000" stroke-opacity="1" stroke-width="3.2"/>
<circle clip-path="url(#clip782)" cx="1061.16" cy="895.386" r="14.4" fill="#e26f46" fill-rule="evenodd" fill-opacity="1" stroke="#000000" stroke-opacity="1" stroke-width="3.2"/>
<circle clip-path="url(#clip782)" cx="1142.46" cy="983.06" r="14.4" fill="#e26f46" fill-rule="evenodd" fill-opacity="1" stroke="#000000" stroke-opacity="1" stroke-width="3.2"/>
<circle clip-path="url(#clip782)" cx="1200.42" cy="1070.96" r="14.4" fill="#e26f46" fill-rule="evenodd" fill-opacity="1" stroke="#000000" stroke-opacity="1" stroke-width="3.2"/>
<circle clip-path="url(#clip782)" cx="1229.11" cy="1149.74" r="14.4" fill="#e26f46" fill-rule="evenodd" fill-opacity="1" stroke="#000000" stroke-opacity="1" stroke-width="3.2"/>
<circle clip-path="url(#clip782)" cx="1228.44" cy="1214.15" r="14.4" fill="#e26f46" fill-rule="evenodd" fill-opacity="1" stroke="#000000" stroke-opacity="1" stroke-width="3.2"/>
<circle clip-path="url(#clip782)" cx="1203.13" cy="1263.33" r="14.4" fill="#e26f46" fill-rule="evenodd" fill-opacity="1" stroke="#000000" stroke-opacity="1" stroke-width="3.2"/>
<circle clip-path="url(#clip782)" cx="1160.06" cy="1299.26" r="14.4" fill="#e26f46" fill-rule="evenodd" fill-opacity="1" stroke="#000000" stroke-opacity="1" stroke-width="3.2"/>
<circle clip-path="url(#clip782)" cx="1105.93" cy="1324.91" r="14.4" fill="#e26f46" fill-rule="evenodd" fill-opacity="1" stroke="#000000" stroke-opacity="1" stroke-width="3.2"/>
<circle clip-path="url(#clip782)" cx="1046.11" cy="1343.05" r="14.4" fill="#e26f46" fill-rule="evenodd" fill-opacity="1" stroke="#000000" stroke-opacity="1" stroke-width="3.2"/>
<circle clip-path="url(#clip782)" cx="984.397" cy="1355.86" r="14.4" fill="#e26f46" fill-rule="evenodd" fill-opacity="1" stroke="#000000" stroke-opacity="1" stroke-width="3.2"/>
<circle clip-path="url(#clip782)" cx="923.29" cy="1364.91" r="14.4" fill="#e26f46" fill-rule="evenodd" fill-opacity="1" stroke="#000000" stroke-opacity="1" stroke-width="3.2"/>
<circle clip-path="url(#clip782)" cx="864.34" cy="1371.27" r="14.4" fill="#e26f46" fill-rule="evenodd" fill-opacity="1" stroke="#000000" stroke-opacity="1" stroke-width="3.2"/>
<circle clip-path="url(#clip782)" cx="808.446" cy="1375.67" r="14.4" fill="#e26f46" fill-rule="evenodd" fill-opacity="1" stroke="#000000" stroke-opacity="1" stroke-width="3.2"/>
<circle clip-path="url(#clip782)" cx="756.075" cy="1378.6" r="14.4" fill="#e26f46" fill-rule="evenodd" fill-opacity="1" stroke="#000000" stroke-opacity="1" stroke-width="3.2"/>
<circle clip-path="url(#clip782)" cx="707.418" cy="1380.38" r="14.4" fill="#e26f46" fill-rule="evenodd" fill-opacity="1" stroke="#000000" stroke-opacity="1" stroke-width="3.2"/>
<circle clip-path="url(#clip782)" cx="662.494" cy="1381.23" r="14.4" fill="#e26f46" fill-rule="evenodd" fill-opacity="1" stroke="#000000" stroke-opacity="1" stroke-width="3.2"/>
<circle clip-path="url(#clip782)" cx="621.213" cy="1381.29" r="14.4" fill="#e26f46" fill-rule="evenodd" fill-opacity="1" stroke="#000000" stroke-opacity="1" stroke-width="3.2"/>
<circle clip-path="url(#clip782)" cx="583.422" cy="1380.63" r="14.4" fill="#e26f46" fill-rule="evenodd" fill-opacity="1" stroke="#000000" stroke-opacity="1" stroke-width="3.2"/>
<circle clip-path="url(#clip782)" cx="548.933" cy="1379.3" r="14.4" fill="#e26f46" fill-rule="evenodd" fill-opacity="1" stroke="#000000" stroke-opacity="1" stroke-width="3.2"/>
<circle clip-path="url(#clip782)" cx="517.54" cy="1377.29" r="14.4" fill="#e26f46" fill-rule="evenodd" fill-opacity="1" stroke="#000000" stroke-opacity="1" stroke-width="3.2"/>
<circle clip-path="url(#clip782)" cx="489.035" cy="1374.6" r="14.4" fill="#e26f46" fill-rule="evenodd" fill-opacity="1" stroke="#000000" stroke-opacity="1" stroke-width="3.2"/>
<circle clip-path="url(#clip782)" cx="463.212" cy="1371.19" r="14.4" fill="#e26f46" fill-rule="evenodd" fill-opacity="1" stroke="#000000" stroke-opacity="1" stroke-width="3.2"/>
<circle clip-path="url(#clip782)" cx="439.872" cy="1366.97" r="14.4" fill="#e26f46" fill-rule="evenodd" fill-opacity="1" stroke="#000000" stroke-opacity="1" stroke-width="3.2"/>
<circle clip-path="url(#clip782)" cx="418.83" cy="1361.87" r="14.4" fill="#e26f46" fill-rule="evenodd" fill-opacity="1" stroke="#000000" stroke-opacity="1" stroke-width="3.2"/>
<circle clip-path="url(#clip782)" cx="399.914" cy="1355.78" r="14.4" fill="#e26f46" fill-rule="evenodd" fill-opacity="1" stroke="#000000" stroke-opacity="1" stroke-width="3.2"/>
<circle clip-path="url(#clip782)" cx="382.965" cy="1348.55" r="14.4" fill="#e26f46" fill-rule="evenodd" fill-opacity="1" stroke="#000000" stroke-opacity="1" stroke-width="3.2"/>
<circle clip-path="url(#clip782)" cx="367.84" cy="1340.03" r="14.4" fill="#e26f46" fill-rule="evenodd" fill-opacity="1" stroke="#000000" stroke-opacity="1" stroke-width="3.2"/>
<circle clip-path="url(#clip782)" cx="354.414" cy="1330.01" r="14.4" fill="#e26f46" fill-rule="evenodd" fill-opacity="1" stroke="#000000" stroke-opacity="1" stroke-width="3.2"/>
<circle clip-path="url(#clip782)" cx="342.576" cy="1318.27" r="14.4" fill="#e26f46" fill-rule="evenodd" fill-opacity="1" stroke="#000000" stroke-opacity="1" stroke-width="3.2"/>
<circle clip-path="url(#clip782)" cx="332.235" cy="1304.54" r="14.4" fill="#e26f46" fill-rule="evenodd" fill-opacity="1" stroke="#000000" stroke-opacity="1" stroke-width="3.2"/>
<circle clip-path="url(#clip782)" cx="323.316" cy="1288.5" r="14.4" fill="#e26f46" fill-rule="evenodd" fill-opacity="1" stroke="#000000" stroke-opacity="1" stroke-width="3.2"/>
<circle clip-path="url(#clip782)" cx="315.766" cy="1269.79" r="14.4" fill="#e26f46" fill-rule="evenodd" fill-opacity="1" stroke="#000000" stroke-opacity="1" stroke-width="3.2"/>
<circle clip-path="url(#clip782)" cx="309.555" cy="1248.01" r="14.4" fill="#e26f46" fill-rule="evenodd" fill-opacity="1" stroke="#000000" stroke-opacity="1" stroke-width="3.2"/>
<circle clip-path="url(#clip782)" cx="304.68" cy="1222.69" r="14.4" fill="#e26f46" fill-rule="evenodd" fill-opacity="1" stroke="#000000" stroke-opacity="1" stroke-width="3.2"/>
<circle clip-path="url(#clip782)" cx="301.172" cy="1193.3" r="14.4" fill="#e26f46" fill-rule="evenodd" fill-opacity="1" stroke="#000000" stroke-opacity="1" stroke-width="3.2"/>
<circle clip-path="url(#clip782)" cx="299.102" cy="1159.27" r="14.4" fill="#e26f46" fill-rule="evenodd" fill-opacity="1" stroke="#000000" stroke-opacity="1" stroke-width="3.2"/>
<circle clip-path="url(#clip782)" cx="298.595" cy="1119.98" r="14.4" fill="#e26f46" fill-rule="evenodd" fill-opacity="1" stroke="#000000" stroke-opacity="1" stroke-width="3.2"/>
<circle clip-path="url(#clip782)" cx="299.849" cy="1074.78" r="14.4" fill="#e26f46" fill-rule="evenodd" fill-opacity="1" stroke="#000000" stroke-opacity="1" stroke-width="3.2"/>
<circle clip-path="url(#clip782)" cx="303.159" cy="1023.01" r="14.4" fill="#e26f46" fill-rule="evenodd" fill-opacity="1" stroke="#000000" stroke-opacity="1" stroke-width="3.2"/>
<circle clip-path="url(#clip782)" cx="308.959" cy="964.104" r="14.4" fill="#e26f46" fill-rule="evenodd" fill-opacity="1" stroke="#000000" stroke-opacity="1" stroke-width="3.2"/>
<circle clip-path="url(#clip782)" cx="317.881" cy="897.625" r="14.4" fill="#e26f46" fill-rule="evenodd" fill-opacity="1" stroke="#000000" stroke-opacity="1" stroke-width="3.2"/>
<circle clip-path="url(#clip782)" cx="330.84" cy="823.456" r="14.4" fill="#e26f46" fill-rule="evenodd" fill-opacity="1" stroke="#000000" stroke-opacity="1" stroke-width="3.2"/>
<circle clip-path="url(#clip782)" cx="349.166" cy="742.034" r="14.4" fill="#e26f46" fill-rule="evenodd" fill-opacity="1" stroke="#000000" stroke-opacity="1" stroke-width="3.2"/>
<circle clip-path="url(#clip782)" cx="374.793" cy="654.716" r="14.4" fill="#e26f46" fill-rule="evenodd" fill-opacity="1" stroke="#000000" stroke-opacity="1" stroke-width="3.2"/>
<circle clip-path="url(#clip782)" cx="410.527" cy="564.346" r="14.4" fill="#e26f46" fill-rule="evenodd" fill-opacity="1" stroke="#000000" stroke-opacity="1" stroke-width="3.2"/>
<circle clip-path="url(#clip782)" cx="460.385" cy="476.034" r="14.4" fill="#e26f46" fill-rule="evenodd" fill-opacity="1" stroke="#000000" stroke-opacity="1" stroke-width="3.2"/>
<circle clip-path="url(#clip782)" cx="529.963" cy="398.16" r="14.4" fill="#e26f46" fill-rule="evenodd" fill-opacity="1" stroke="#000000" stroke-opacity="1" stroke-width="3.2"/>
<circle clip-path="url(#clip782)" cx="626.562" cy="343.364" r="14.4" fill="#e26f46" fill-rule="evenodd" fill-opacity="1" stroke="#000000" stroke-opacity="1" stroke-width="3.2"/>
<circle clip-path="url(#clip782)" cx="758.466" cy="328.755" r="14.4" fill="#e26f46" fill-rule="evenodd" fill-opacity="1" stroke="#000000" stroke-opacity="1" stroke-width="3.2"/>
<circle clip-path="url(#clip782)" cx="932.032" cy="373.62" r="14.4" fill="#e26f46" fill-rule="evenodd" fill-opacity="1" stroke="#000000" stroke-opacity="1" stroke-width="3.2"/>
<circle clip-path="url(#clip782)" cx="1144.93" cy="491.945" r="14.4" fill="#e26f46" fill-rule="evenodd" fill-opacity="1" stroke="#000000" stroke-opacity="1" stroke-width="3.2"/>
<circle clip-path="url(#clip782)" cx="1376.06" cy="678.883" r="14.4" fill="#e26f46" fill-rule="evenodd" fill-opacity="1" stroke="#000000" stroke-opacity="1" stroke-width="3.2"/>
<circle clip-path="url(#clip782)" cx="1580.73" cy="899.403" r="14.4" fill="#e26f46" fill-rule="evenodd" fill-opacity="1" stroke="#000000" stroke-opacity="1" stroke-width="3.2"/>
<circle clip-path="url(#clip782)" cx="1707.68" cy="1098.9" r="14.4" fill="#e26f46" fill-rule="evenodd" fill-opacity="1" stroke="#000000" stroke-opacity="1" stroke-width="3.2"/>
<circle clip-path="url(#clip782)" cx="1735.01" cy="1239.43" r="14.4" fill="#e26f46" fill-rule="evenodd" fill-opacity="1" stroke="#000000" stroke-opacity="1" stroke-width="3.2"/>
<path clip-path="url(#clip780)" d="
M1514.05 248.629 L2280.18 248.629 L2280.18 93.1086 L1514.05 93.1086  Z
  " fill="#ffffff" fill-rule="evenodd" fill-opacity="1"/>
<polyline clip-path="url(#clip780)" style="stroke:#000000; stroke-linecap:butt; stroke-linejoin:round; stroke-width:4; stroke-opacity:1; fill:none" points="
  1514.05,248.629 2280.18,248.629 2280.18,93.1086 1514.05,93.1086 1514.05,248.629 
  "/>
<polyline clip-path="url(#clip780)" style="stroke:#009af9; stroke-linecap:butt; stroke-linejoin:round; stroke-width:4; stroke-opacity:1; fill:none" points="
  1538.24,144.949 1683.39,144.949 
  "/>
<path clip-path="url(#clip780)" d="M1723.97 146.025 Q1725.48 146.534 1726.89 148.201 Q1728.32 149.868 1729.76 152.784 L1734.51 162.229 L1729.48 162.229 L1725.06 153.363 Q1723.35 149.891 1721.73 148.756 Q1720.13 147.622 1717.35 147.622 L1712.26 147.622 L1712.26 162.229 L1707.58 162.229 L1707.58 127.669 L1718.14 127.669 Q1724.07 127.669 1726.98 130.145 Q1729.9 132.622 1729.9 137.622 Q1729.9 140.886 1728.37 143.039 Q1726.87 145.192 1723.97 146.025 M1712.26 131.511 L1712.26 143.78 L1718.14 143.78 Q1721.52 143.78 1723.23 142.229 Q1724.97 140.655 1724.97 137.622 Q1724.97 134.59 1723.23 133.062 Q1721.52 131.511 1718.14 131.511 L1712.26 131.511 Z" fill="#000000" fill-rule="evenodd" fill-opacity="1" /><path clip-path="url(#clip780)" d="M1760.38 148.201 L1760.38 150.284 L1740.8 150.284 Q1741.08 154.682 1743.44 156.997 Q1745.82 159.289 1750.06 159.289 Q1752.51 159.289 1754.81 158.687 Q1757.12 158.085 1759.39 156.881 L1759.39 160.909 Q1757.1 161.881 1754.69 162.391 Q1752.28 162.9 1749.81 162.9 Q1743.6 162.9 1739.97 159.289 Q1736.36 155.678 1736.36 149.52 Q1736.36 143.155 1739.78 139.428 Q1743.23 135.678 1749.07 135.678 Q1754.3 135.678 1757.33 139.057 Q1760.38 142.414 1760.38 148.201 M1756.13 146.951 Q1756.08 143.456 1754.16 141.372 Q1752.26 139.289 1749.11 139.289 Q1745.55 139.289 1743.39 141.303 Q1741.26 143.317 1740.94 146.974 L1756.13 146.951 Z" fill="#000000" fill-rule="evenodd" fill-opacity="1" /><path clip-path="url(#clip780)" d="M1780.5 126.21 L1780.5 129.752 L1776.43 129.752 Q1774.13 129.752 1773.23 130.678 Q1772.35 131.604 1772.35 134.011 L1772.35 136.303 L1779.37 136.303 L1779.37 139.613 L1772.35 139.613 L1772.35 162.229 L1768.07 162.229 L1768.07 139.613 L1764 139.613 L1764 136.303 L1768.07 136.303 L1768.07 134.497 Q1768.07 130.169 1770.08 128.201 Q1772.1 126.21 1776.47 126.21 L1780.5 126.21 Z" fill="#000000" fill-rule="evenodd" fill-opacity="1" /><path clip-path="url(#clip780)" d="M1806.24 148.201 L1806.24 150.284 L1786.66 150.284 Q1786.94 154.682 1789.3 156.997 Q1791.68 159.289 1795.92 159.289 Q1798.37 159.289 1800.66 158.687 Q1802.98 158.085 1805.25 156.881 L1805.25 160.909 Q1802.95 161.881 1800.55 162.391 Q1798.14 162.9 1795.66 162.9 Q1789.46 162.9 1785.82 159.289 Q1782.21 155.678 1782.21 149.52 Q1782.21 143.155 1785.64 139.428 Q1789.09 135.678 1794.92 135.678 Q1800.15 135.678 1803.19 139.057 Q1806.24 142.414 1806.24 148.201 M1801.98 146.951 Q1801.94 143.456 1800.01 141.372 Q1798.12 139.289 1794.97 139.289 Q1791.4 139.289 1789.25 141.303 Q1787.12 143.317 1786.8 146.974 L1801.98 146.951 Z" fill="#000000" fill-rule="evenodd" fill-opacity="1" /><path clip-path="url(#clip780)" d="M1828.25 140.284 Q1827.54 139.868 1826.68 139.682 Q1825.85 139.474 1824.83 139.474 Q1821.22 139.474 1819.27 141.835 Q1817.35 144.173 1817.35 148.571 L1817.35 162.229 L1813.07 162.229 L1813.07 136.303 L1817.35 136.303 L1817.35 140.331 Q1818.69 137.969 1820.85 136.835 Q1823 135.678 1826.08 135.678 Q1826.52 135.678 1827.05 135.747 Q1827.58 135.794 1828.23 135.909 L1828.25 140.284 Z" fill="#000000" fill-rule="evenodd" fill-opacity="1" /><path clip-path="url(#clip780)" d="M1853.86 148.201 L1853.86 150.284 L1834.27 150.284 Q1834.55 154.682 1836.91 156.997 Q1839.3 159.289 1843.53 159.289 Q1845.99 159.289 1848.28 158.687 Q1850.59 158.085 1852.86 156.881 L1852.86 160.909 Q1850.57 161.881 1848.16 162.391 Q1845.75 162.9 1843.28 162.9 Q1837.07 162.9 1833.44 159.289 Q1829.83 155.678 1829.83 149.52 Q1829.83 143.155 1833.25 139.428 Q1836.7 135.678 1842.54 135.678 Q1847.77 135.678 1850.8 139.057 Q1853.86 142.414 1853.86 148.201 M1849.6 146.951 Q1849.55 143.456 1847.63 141.372 Q1845.73 139.289 1842.58 139.289 Q1839.02 139.289 1836.87 141.303 Q1834.74 143.317 1834.41 146.974 L1849.6 146.951 Z" fill="#000000" fill-rule="evenodd" fill-opacity="1" /><path clip-path="url(#clip780)" d="M1882.4 146.581 L1882.4 162.229 L1878.14 162.229 L1878.14 146.719 Q1878.14 143.039 1876.7 141.21 Q1875.27 139.382 1872.4 139.382 Q1868.95 139.382 1866.96 141.581 Q1864.97 143.78 1864.97 147.576 L1864.97 162.229 L1860.69 162.229 L1860.69 136.303 L1864.97 136.303 L1864.97 140.331 Q1866.5 137.993 1868.56 136.835 Q1870.64 135.678 1873.35 135.678 Q1877.81 135.678 1880.11 138.456 Q1882.4 141.21 1882.4 146.581 Z" fill="#000000" fill-rule="evenodd" fill-opacity="1" /><path clip-path="url(#clip780)" d="M1909.55 137.298 L1909.55 141.28 Q1907.75 140.284 1905.92 139.798 Q1904.11 139.289 1902.26 139.289 Q1898.12 139.289 1895.82 141.928 Q1893.53 144.544 1893.53 149.289 Q1893.53 154.034 1895.82 156.673 Q1898.12 159.289 1902.26 159.289 Q1904.11 159.289 1905.92 158.803 Q1907.75 158.293 1909.55 157.298 L1909.55 161.233 Q1907.77 162.067 1905.85 162.483 Q1903.95 162.9 1901.8 162.9 Q1895.94 162.9 1892.49 159.219 Q1889.04 155.539 1889.04 149.289 Q1889.04 142.946 1892.51 139.312 Q1896.01 135.678 1902.07 135.678 Q1904.04 135.678 1905.92 136.095 Q1907.79 136.488 1909.55 137.298 Z" fill="#000000" fill-rule="evenodd" fill-opacity="1" /><path clip-path="url(#clip780)" d="M1939.13 148.201 L1939.13 150.284 L1919.55 150.284 Q1919.83 154.682 1922.19 156.997 Q1924.57 159.289 1928.81 159.289 Q1931.26 159.289 1933.56 158.687 Q1935.87 158.085 1938.14 156.881 L1938.14 160.909 Q1935.85 161.881 1933.44 162.391 Q1931.03 162.9 1928.56 162.9 Q1922.35 162.9 1918.72 159.289 Q1915.11 155.678 1915.11 149.52 Q1915.11 143.155 1918.53 139.428 Q1921.98 135.678 1927.81 135.678 Q1933.05 135.678 1936.08 139.057 Q1939.13 142.414 1939.13 148.201 M1934.87 146.951 Q1934.83 143.456 1932.91 141.372 Q1931.01 139.289 1927.86 139.289 Q1924.3 139.289 1922.14 141.303 Q1920.01 143.317 1919.69 146.974 L1934.87 146.951 Z" fill="#000000" fill-rule="evenodd" fill-opacity="1" /><path clip-path="url(#clip780)" d="M1977.72 137.067 L1977.72 141.094 Q1975.92 140.169 1973.97 139.706 Q1972.03 139.243 1969.94 139.243 Q1966.77 139.243 1965.18 140.215 Q1963.6 141.187 1963.6 143.131 Q1963.6 144.613 1964.74 145.469 Q1965.87 146.303 1969.3 147.067 L1970.75 147.391 Q1975.29 148.363 1977.19 150.145 Q1979.11 151.905 1979.11 155.076 Q1979.11 158.687 1976.24 160.793 Q1973.39 162.9 1968.39 162.9 Q1966.31 162.9 1964.04 162.483 Q1961.8 162.09 1959.3 161.28 L1959.3 156.881 Q1961.66 158.108 1963.95 158.733 Q1966.24 159.335 1968.49 159.335 Q1971.49 159.335 1973.12 158.317 Q1974.74 157.275 1974.74 155.4 Q1974.74 153.664 1973.55 152.738 Q1972.4 151.812 1968.44 150.956 L1966.96 150.608 Q1963 149.775 1961.24 148.062 Q1959.48 146.326 1959.48 143.317 Q1959.48 139.659 1962.07 137.669 Q1964.67 135.678 1969.43 135.678 Q1971.8 135.678 1973.88 136.025 Q1975.96 136.372 1977.72 137.067 Z" fill="#000000" fill-rule="evenodd" fill-opacity="1" /><path clip-path="url(#clip780)" d="M1995.94 139.289 Q1992.51 139.289 1990.52 141.974 Q1988.53 144.636 1988.53 149.289 Q1988.53 153.942 1990.5 156.627 Q1992.49 159.289 1995.94 159.289 Q1999.34 159.289 2001.33 156.604 Q2003.32 153.918 2003.32 149.289 Q2003.32 144.682 2001.33 141.997 Q1999.34 139.289 1995.94 139.289 M1995.94 135.678 Q2001.49 135.678 2004.67 139.289 Q2007.84 142.9 2007.84 149.289 Q2007.84 155.655 2004.67 159.289 Q2001.49 162.9 1995.94 162.9 Q1990.36 162.9 1987.19 159.289 Q1984.04 155.655 1984.04 149.289 Q1984.04 142.9 1987.19 139.289 Q1990.36 135.678 1995.94 135.678 Z" fill="#000000" fill-rule="evenodd" fill-opacity="1" /><path clip-path="url(#clip780)" d="M2014.9 126.21 L2019.16 126.21 L2019.16 162.229 L2014.9 162.229 L2014.9 126.21 Z" fill="#000000" fill-rule="evenodd" fill-opacity="1" /><path clip-path="url(#clip780)" d="M2027.63 151.997 L2027.63 136.303 L2031.89 136.303 L2031.89 151.835 Q2031.89 155.516 2033.32 157.368 Q2034.76 159.196 2037.63 159.196 Q2041.08 159.196 2043.07 156.997 Q2045.08 154.798 2045.08 151.002 L2045.08 136.303 L2049.34 136.303 L2049.34 162.229 L2045.08 162.229 L2045.08 158.247 Q2043.53 160.608 2041.47 161.766 Q2039.43 162.9 2036.73 162.9 Q2032.26 162.9 2029.94 160.122 Q2027.63 157.344 2027.63 151.997 M2038.35 135.678 L2038.35 135.678 Z" fill="#000000" fill-rule="evenodd" fill-opacity="1" /><path clip-path="url(#clip780)" d="M2062.33 128.942 L2062.33 136.303 L2071.1 136.303 L2071.1 139.613 L2062.33 139.613 L2062.33 153.687 Q2062.33 156.858 2063.18 157.761 Q2064.06 158.664 2066.73 158.664 L2071.1 158.664 L2071.1 162.229 L2066.73 162.229 Q2061.8 162.229 2059.92 160.4 Q2058.05 158.548 2058.05 153.687 L2058.05 139.613 L2054.92 139.613 L2054.92 136.303 L2058.05 136.303 L2058.05 128.942 L2062.33 128.942 Z" fill="#000000" fill-rule="evenodd" fill-opacity="1" /><path clip-path="url(#clip780)" d="M2076.7 136.303 L2080.96 136.303 L2080.96 162.229 L2076.7 162.229 L2076.7 136.303 M2076.7 126.21 L2080.96 126.21 L2080.96 131.604 L2076.7 131.604 L2076.7 126.21 Z" fill="#000000" fill-rule="evenodd" fill-opacity="1" /><path clip-path="url(#clip780)" d="M2099.92 139.289 Q2096.49 139.289 2094.5 141.974 Q2092.51 144.636 2092.51 149.289 Q2092.51 153.942 2094.48 156.627 Q2096.47 159.289 2099.92 159.289 Q2103.32 159.289 2105.31 156.604 Q2107.3 153.918 2107.3 149.289 Q2107.3 144.682 2105.31 141.997 Q2103.32 139.289 2099.92 139.289 M2099.92 135.678 Q2105.48 135.678 2108.65 139.289 Q2111.82 142.9 2111.82 149.289 Q2111.82 155.655 2108.65 159.289 Q2105.48 162.9 2099.92 162.9 Q2094.34 162.9 2091.17 159.289 Q2088.02 155.655 2088.02 149.289 Q2088.02 142.9 2091.17 139.289 Q2094.34 135.678 2099.92 135.678 Z" fill="#000000" fill-rule="evenodd" fill-opacity="1" /><path clip-path="url(#clip780)" d="M2140.43 146.581 L2140.43 162.229 L2136.17 162.229 L2136.17 146.719 Q2136.17 143.039 2134.73 141.21 Q2133.3 139.382 2130.43 139.382 Q2126.98 139.382 2124.99 141.581 Q2123 143.78 2123 147.576 L2123 162.229 L2118.72 162.229 L2118.72 136.303 L2123 136.303 L2123 140.331 Q2124.53 137.993 2126.59 136.835 Q2128.67 135.678 2131.38 135.678 Q2135.85 135.678 2138.14 138.456 Q2140.43 141.21 2140.43 146.581 Z" fill="#000000" fill-rule="evenodd" fill-opacity="1" /><circle clip-path="url(#clip780)" cx="1610.81" cy="196.789" r="23.04" fill="#e26f46" fill-rule="evenodd" fill-opacity="1" stroke="#000000" stroke-opacity="1" stroke-width="5.12"/>
<path clip-path="url(#clip780)" d="M1707.58 179.509 L1729.44 179.509 L1729.44 183.444 L1712.26 183.444 L1712.26 193.675 L1728.72 193.675 L1728.72 197.61 L1712.26 197.61 L1712.26 210.133 L1729.85 210.133 L1729.85 214.069 L1707.58 214.069 L1707.58 179.509 Z" fill="#000000" fill-rule="evenodd" fill-opacity="1" /><path clip-path="url(#clip780)" d="M1758.9 188.143 L1749.53 200.759 L1759.39 214.069 L1754.37 214.069 L1746.82 203.883 L1739.27 214.069 L1734.25 214.069 L1744.32 200.504 L1735.11 188.143 L1740.13 188.143 L1747.01 197.379 L1753.88 188.143 L1758.9 188.143 Z" fill="#000000" fill-rule="evenodd" fill-opacity="1" /><path clip-path="url(#clip780)" d="M1769.53 210.18 L1769.53 223.93 L1765.25 223.93 L1765.25 188.143 L1769.53 188.143 L1769.53 192.078 Q1770.87 189.763 1772.91 188.652 Q1774.97 187.518 1777.82 187.518 Q1782.54 187.518 1785.48 191.268 Q1788.44 195.018 1788.44 201.129 Q1788.44 207.24 1785.48 210.99 Q1782.54 214.74 1777.82 214.74 Q1774.97 214.74 1772.91 213.629 Q1770.87 212.495 1769.53 210.18 M1784.02 201.129 Q1784.02 196.43 1782.07 193.768 Q1780.15 191.083 1776.77 191.083 Q1773.39 191.083 1771.45 193.768 Q1769.53 196.43 1769.53 201.129 Q1769.53 205.828 1771.45 208.513 Q1773.39 211.175 1776.77 211.175 Q1780.15 211.175 1782.07 208.513 Q1784.02 205.828 1784.02 201.129 Z" fill="#000000" fill-rule="evenodd" fill-opacity="1" /><path clip-path="url(#clip780)" d="M1795.5 178.05 L1799.76 178.05 L1799.76 214.069 L1795.5 214.069 L1795.5 178.05 Z" fill="#000000" fill-rule="evenodd" fill-opacity="1" /><path clip-path="url(#clip780)" d="M1808.67 188.143 L1812.93 188.143 L1812.93 214.069 L1808.67 214.069 L1808.67 188.143 M1808.67 178.05 L1812.93 178.05 L1812.93 183.444 L1808.67 183.444 L1808.67 178.05 Z" fill="#000000" fill-rule="evenodd" fill-opacity="1" /><path clip-path="url(#clip780)" d="M1840.5 189.138 L1840.5 193.12 Q1838.69 192.124 1836.87 191.638 Q1835.06 191.129 1833.21 191.129 Q1829.06 191.129 1826.77 193.768 Q1824.48 196.384 1824.48 201.129 Q1824.48 205.874 1826.77 208.513 Q1829.06 211.129 1833.21 211.129 Q1835.06 211.129 1836.87 210.643 Q1838.69 210.133 1840.5 209.138 L1840.5 213.073 Q1838.72 213.907 1836.8 214.323 Q1834.9 214.74 1832.75 214.74 Q1826.89 214.74 1823.44 211.059 Q1819.99 207.379 1819.99 201.129 Q1819.99 194.786 1823.46 191.152 Q1826.96 187.518 1833.02 187.518 Q1834.99 187.518 1836.87 187.935 Q1838.74 188.328 1840.5 189.138 Z" fill="#000000" fill-rule="evenodd" fill-opacity="1" /><path clip-path="url(#clip780)" d="M1847.91 188.143 L1852.17 188.143 L1852.17 214.069 L1847.91 214.069 L1847.91 188.143 M1847.91 178.05 L1852.17 178.05 L1852.17 183.444 L1847.91 183.444 L1847.91 178.05 Z" fill="#000000" fill-rule="evenodd" fill-opacity="1" /><path clip-path="url(#clip780)" d="M1865.29 180.782 L1865.29 188.143 L1874.06 188.143 L1874.06 191.453 L1865.29 191.453 L1865.29 205.527 Q1865.29 208.698 1866.15 209.601 Q1867.03 210.504 1869.69 210.504 L1874.06 210.504 L1874.06 214.069 L1869.69 214.069 Q1864.76 214.069 1862.88 212.24 Q1861.01 210.388 1861.01 205.527 L1861.01 191.453 L1857.88 191.453 L1857.88 188.143 L1861.01 188.143 L1861.01 180.782 L1865.29 180.782 Z" fill="#000000" fill-rule="evenodd" fill-opacity="1" /><path clip-path="url(#clip780)" d="M1894.92 179.509 L1916.77 179.509 L1916.77 183.444 L1899.6 183.444 L1899.6 193.675 L1916.06 193.675 L1916.06 197.61 L1899.6 197.61 L1899.6 210.133 L1917.19 210.133 L1917.19 214.069 L1894.92 214.069 L1894.92 179.509 Z" fill="#000000" fill-rule="evenodd" fill-opacity="1" /><path clip-path="url(#clip780)" d="M1924.25 203.837 L1924.25 188.143 L1928.51 188.143 L1928.51 203.675 Q1928.51 207.356 1929.94 209.208 Q1931.38 211.036 1934.25 211.036 Q1937.7 211.036 1939.69 208.837 Q1941.7 206.638 1941.7 202.842 L1941.7 188.143 L1945.96 188.143 L1945.96 214.069 L1941.7 214.069 L1941.7 210.087 Q1940.15 212.448 1938.09 213.606 Q1936.06 214.74 1933.35 214.74 Q1928.88 214.74 1926.56 211.962 Q1924.25 209.184 1924.25 203.837 M1934.97 187.518 L1934.97 187.518 Z" fill="#000000" fill-rule="evenodd" fill-opacity="1" /><path clip-path="url(#clip780)" d="M1954.74 178.05 L1958.99 178.05 L1958.99 214.069 L1954.74 214.069 L1954.74 178.05 Z" fill="#000000" fill-rule="evenodd" fill-opacity="1" /><path clip-path="url(#clip780)" d="M1990.08 200.041 L1990.08 202.124 L1970.5 202.124 Q1970.78 206.522 1973.14 208.837 Q1975.52 211.129 1979.76 211.129 Q1982.21 211.129 1984.5 210.527 Q1986.82 209.925 1989.09 208.721 L1989.09 212.749 Q1986.8 213.721 1984.39 214.231 Q1981.98 214.74 1979.5 214.74 Q1973.3 214.74 1969.67 211.129 Q1966.05 207.518 1966.05 201.36 Q1966.05 194.995 1969.48 191.268 Q1972.93 187.518 1978.76 187.518 Q1983.99 187.518 1987.03 190.897 Q1990.08 194.254 1990.08 200.041 M1985.82 198.791 Q1985.78 195.296 1983.86 193.212 Q1981.96 191.129 1978.81 191.129 Q1975.24 191.129 1973.09 193.143 Q1970.96 195.157 1970.64 198.814 L1985.82 198.791 Z" fill="#000000" fill-rule="evenodd" fill-opacity="1" /><path clip-path="url(#clip780)" d="M2012.1 192.124 Q2011.38 191.708 2010.52 191.522 Q2009.69 191.314 2008.67 191.314 Q2005.06 191.314 2003.11 193.675 Q2001.19 196.013 2001.19 200.411 L2001.19 214.069 L1996.91 214.069 L1996.91 188.143 L2001.19 188.143 L2001.19 192.171 Q2002.54 189.809 2004.69 188.675 Q2006.84 187.518 2009.92 187.518 Q2010.36 187.518 2010.89 187.587 Q2011.43 187.634 2012.07 187.749 L2012.1 192.124 Z" fill="#000000" fill-rule="evenodd" fill-opacity="1" /><path clip-path="url(#clip780)" d="M2017.65 208.189 L2022.54 208.189 L2022.54 212.17 L2018.74 219.578 L2015.75 219.578 L2017.65 212.17 L2017.65 208.189 Z" fill="#000000" fill-rule="evenodd" fill-opacity="1" /><path clip-path="url(#clip780)" d="M2063.76 192.078 L2063.76 178.05 L2068.02 178.05 L2068.02 214.069 L2063.76 214.069 L2063.76 210.18 Q2062.42 212.495 2060.36 213.629 Q2058.32 214.74 2055.45 214.74 Q2050.75 214.74 2047.79 210.99 Q2044.85 207.24 2044.85 201.129 Q2044.85 195.018 2047.79 191.268 Q2050.75 187.518 2055.45 187.518 Q2058.32 187.518 2060.36 188.652 Q2062.42 189.763 2063.76 192.078 M2049.25 201.129 Q2049.25 205.828 2051.17 208.513 Q2053.11 211.175 2056.49 211.175 Q2059.87 211.175 2061.82 208.513 Q2063.76 205.828 2063.76 201.129 Q2063.76 196.43 2061.82 193.768 Q2059.87 191.083 2056.49 191.083 Q2053.11 191.083 2051.17 193.768 Q2049.25 196.43 2049.25 201.129 Z" fill="#000000" fill-rule="evenodd" fill-opacity="1" /><path clip-path="url(#clip780)" d="M2081.01 180.782 L2081.01 188.143 L2089.78 188.143 L2089.78 191.453 L2081.01 191.453 L2081.01 205.527 Q2081.01 208.698 2081.86 209.601 Q2082.74 210.504 2085.41 210.504 L2089.78 210.504 L2089.78 214.069 L2085.41 214.069 Q2080.48 214.069 2078.6 212.24 Q2076.73 210.388 2076.73 205.527 L2076.73 191.453 L2073.6 191.453 L2073.6 188.143 L2076.73 188.143 L2076.73 180.782 L2081.01 180.782 Z" fill="#000000" fill-rule="evenodd" fill-opacity="1" /><path clip-path="url(#clip780)" d="M2111.01 192.541 L2140.68 192.541 L2140.68 196.43 L2111.01 196.43 L2111.01 192.541 M2111.01 201.985 L2140.68 201.985 L2140.68 205.921 L2111.01 205.921 L2111.01 201.985 Z" fill="#000000" fill-rule="evenodd" fill-opacity="1" /><path clip-path="url(#clip780)" d="M2175.85 182.587 Q2172.23 182.587 2170.41 186.152 Q2168.6 189.694 2168.6 196.823 Q2168.6 203.93 2170.41 207.495 Q2172.23 211.036 2175.85 211.036 Q2179.48 211.036 2181.29 207.495 Q2183.11 203.93 2183.11 196.823 Q2183.11 189.694 2181.29 186.152 Q2179.48 182.587 2175.85 182.587 M2175.85 178.884 Q2181.66 178.884 2184.71 183.49 Q2187.79 188.073 2187.79 196.823 Q2187.79 205.55 2184.71 210.157 Q2181.66 214.74 2175.85 214.74 Q2170.04 214.74 2166.96 210.157 Q2163.9 205.55 2163.9 196.823 Q2163.9 188.073 2166.96 183.49 Q2170.04 178.884 2175.85 178.884 Z" fill="#000000" fill-rule="evenodd" fill-opacity="1" /><path clip-path="url(#clip780)" d="M2196.01 208.189 L2200.89 208.189 L2200.89 214.069 L2196.01 214.069 L2196.01 208.189 Z" fill="#000000" fill-rule="evenodd" fill-opacity="1" /><path clip-path="url(#clip780)" d="M2211.89 210.133 L2219.53 210.133 L2219.53 183.768 L2211.22 185.435 L2211.22 181.175 L2219.48 179.509 L2224.16 179.509 L2224.16 210.133 L2231.79 210.133 L2231.79 214.069 L2211.89 214.069 L2211.89 210.133 Z" fill="#000000" fill-rule="evenodd" fill-opacity="1" /></svg>
