<?xml version="1.0" encoding="utf-8"?>
<svg xmlns="http://www.w3.org/2000/svg" xmlns:xlink="http://www.w3.org/1999/xlink" width="600" height="400" viewBox="0 0 2400 1600">
<defs>
  <clipPath id="clip420">
    <rect x="0" y="0" width="2400" height="1600"/>
  </clipPath>
</defs>
<path clip-path="url(#clip420)" d="
M0 1600 L2400 1600 L2400 0 L0 0  Z
  " fill="#ffffff" fill-rule="evenodd" fill-opacity="1"/>
<defs>
  <clipPath id="clip421">
    <rect x="480" y="0" width="1681" height="1600"/>
  </clipPath>
</defs>
<defs>
  <clipPath id="clip422">
    <rect x="155" y="47" width="2198" height="1397"/>
  </clipPath>
</defs>
<path clip-path="url(#clip420)" d="
M155.613 1443.01 L2352.76 1443.01 L2352.76 47.2441 L155.613 47.2441  Z
  " fill="#ffffff" fill-rule="evenodd" fill-opacity="1"/>
<polyline clip-path="url(#clip422)" style="stroke:#000000; stroke-linecap:butt; stroke-linejoin:round; stroke-width:2; stroke-opacity:0.1; fill:none" points="
  331.254,1443.01 331.254,47.2441 
  "/>
<polyline clip-path="url(#clip422)" style="stroke:#000000; stroke-linecap:butt; stroke-linejoin:round; stroke-width:2; stroke-opacity:0.1; fill:none" points="
  668.24,1443.01 668.24,47.2441 
  "/>
<polyline clip-path="url(#clip422)" style="stroke:#000000; stroke-linecap:butt; stroke-linejoin:round; stroke-width:2; stroke-opacity:0.1; fill:none" points="
  1005.23,1443.01 1005.23,47.2441 
  "/>
<polyline clip-path="url(#clip422)" style="stroke:#000000; stroke-linecap:butt; stroke-linejoin:round; stroke-width:2; stroke-opacity:0.1; fill:none" points="
  1342.21,1443.01 1342.21,47.2441 
  "/>
<polyline clip-path="url(#clip422)" style="stroke:#000000; stroke-linecap:butt; stroke-linejoin:round; stroke-width:2; stroke-opacity:0.1; fill:none" points="
  1679.2,1443.01 1679.2,47.2441 
  "/>
<polyline clip-path="url(#clip422)" style="stroke:#000000; stroke-linecap:butt; stroke-linejoin:round; stroke-width:2; stroke-opacity:0.1; fill:none" points="
  2016.18,1443.01 2016.18,47.2441 
  "/>
<polyline clip-path="url(#clip420)" style="stroke:#000000; stroke-linecap:butt; stroke-linejoin:round; stroke-width:4; stroke-opacity:1; fill:none" points="
  155.613,1443.01 2352.76,1443.01 
  "/>
<polyline clip-path="url(#clip420)" style="stroke:#000000; stroke-linecap:butt; stroke-linejoin:round; stroke-width:4; stroke-opacity:1; fill:none" points="
  331.254,1443.01 331.254,1424.11 
  "/>
<polyline clip-path="url(#clip420)" style="stroke:#000000; stroke-linecap:butt; stroke-linejoin:round; stroke-width:4; stroke-opacity:1; fill:none" points="
  668.24,1443.01 668.24,1424.11 
  "/>
<polyline clip-path="url(#clip420)" style="stroke:#000000; stroke-linecap:butt; stroke-linejoin:round; stroke-width:4; stroke-opacity:1; fill:none" points="
  1005.23,1443.01 1005.23,1424.11 
  "/>
<polyline clip-path="url(#clip420)" style="stroke:#000000; stroke-linecap:butt; stroke-linejoin:round; stroke-width:4; stroke-opacity:1; fill:none" points="
  1342.21,1443.01 1342.21,1424.11 
  "/>
<polyline clip-path="url(#clip420)" style="stroke:#000000; stroke-linecap:butt; stroke-linejoin:round; stroke-width:4; stroke-opacity:1; fill:none" points="
  1679.2,1443.01 1679.2,1424.11 
  "/>
<polyline clip-path="url(#clip420)" style="stroke:#000000; stroke-linecap:butt; stroke-linejoin:round; stroke-width:4; stroke-opacity:1; fill:none" points="
  2016.18,1443.01 2016.18,1424.11 
  "/>
<path clip-path="url(#clip420)" d="M321.636 1499.75 L329.275 1499.75 L329.275 1473.38 L320.965 1475.05 L320.965 1470.79 L329.229 1469.12 L333.905 1469.12 L333.905 1499.75 L341.544 1499.75 L341.544 1503.68 L321.636 1503.68 L321.636 1499.75 Z" fill="#000000" fill-rule="evenodd" fill-opacity="1" /><path clip-path="url(#clip420)" d="M662.893 1499.75 L679.213 1499.75 L679.213 1503.68 L657.268 1503.68 L657.268 1499.75 Q659.93 1496.99 664.514 1492.36 Q669.12 1487.71 670.301 1486.37 Q672.546 1483.85 673.426 1482.11 Q674.328 1480.35 674.328 1478.66 Q674.328 1475.91 672.384 1474.17 Q670.463 1472.43 667.361 1472.43 Q665.162 1472.43 662.708 1473.2 Q660.278 1473.96 657.5 1475.51 L657.5 1470.79 Q660.324 1469.66 662.778 1469.08 Q665.231 1468.5 667.268 1468.5 Q672.639 1468.5 675.833 1471.18 Q679.027 1473.87 679.027 1478.36 Q679.027 1480.49 678.217 1482.41 Q677.43 1484.31 675.324 1486.9 Q674.745 1487.57 671.643 1490.79 Q668.541 1493.99 662.893 1499.75 Z" fill="#000000" fill-rule="evenodd" fill-opacity="1" /><path clip-path="url(#clip420)" d="M1009.47 1485.05 Q1012.83 1485.77 1014.71 1488.04 Q1016.6 1490.3 1016.6 1493.64 Q1016.6 1498.75 1013.09 1501.55 Q1009.57 1504.36 1003.09 1504.36 Q1000.91 1504.36 998.595 1503.92 Q996.303 1503.5 993.849 1502.64 L993.849 1498.13 Q995.794 1499.26 998.108 1499.84 Q1000.42 1500.42 1002.95 1500.42 Q1007.34 1500.42 1009.64 1498.68 Q1011.95 1496.95 1011.95 1493.64 Q1011.95 1490.58 1009.8 1488.87 Q1007.67 1487.13 1003.85 1487.13 L999.821 1487.13 L999.821 1483.29 L1004.03 1483.29 Q1007.48 1483.29 1009.31 1481.93 Q1011.14 1480.54 1011.14 1477.94 Q1011.14 1475.28 1009.24 1473.87 Q1007.37 1472.43 1003.85 1472.43 Q1001.93 1472.43 999.729 1472.85 Q997.53 1473.27 994.891 1474.15 L994.891 1469.98 Q997.553 1469.24 999.868 1468.87 Q1002.21 1468.5 1004.27 1468.5 Q1009.59 1468.5 1012.69 1470.93 Q1015.79 1473.34 1015.79 1477.46 Q1015.79 1480.33 1014.15 1482.32 Q1012.51 1484.29 1009.47 1485.05 Z" fill="#000000" fill-rule="evenodd" fill-opacity="1" /><path clip-path="url(#clip420)" d="M1345.22 1473.2 L1333.42 1491.65 L1345.22 1491.65 L1345.22 1473.2 M1343.99 1469.12 L1349.87 1469.12 L1349.87 1491.65 L1354.8 1491.65 L1354.8 1495.54 L1349.87 1495.54 L1349.87 1503.68 L1345.22 1503.68 L1345.22 1495.54 L1329.62 1495.54 L1329.62 1491.02 L1343.99 1469.12 Z" fill="#000000" fill-rule="evenodd" fill-opacity="1" /><path clip-path="url(#clip420)" d="M1669.48 1469.12 L1687.83 1469.12 L1687.83 1473.06 L1673.76 1473.06 L1673.76 1481.53 Q1674.78 1481.18 1675.8 1481.02 Q1676.81 1480.84 1677.83 1480.84 Q1683.62 1480.84 1687 1484.01 Q1690.38 1487.18 1690.38 1492.6 Q1690.38 1498.18 1686.91 1501.28 Q1683.43 1504.36 1677.12 1504.36 Q1674.94 1504.36 1672.67 1503.99 Q1670.43 1503.61 1668.02 1502.87 L1668.02 1498.18 Q1670.1 1499.31 1672.32 1499.86 Q1674.55 1500.42 1677.02 1500.42 Q1681.03 1500.42 1683.37 1498.31 Q1685.7 1496.21 1685.7 1492.6 Q1685.7 1488.99 1683.37 1486.88 Q1681.03 1484.77 1677.02 1484.77 Q1675.15 1484.77 1673.27 1485.19 Q1671.42 1485.61 1669.48 1486.49 L1669.48 1469.12 Z" fill="#000000" fill-rule="evenodd" fill-opacity="1" /><path clip-path="url(#clip420)" d="M2016.59 1484.54 Q2013.44 1484.54 2011.59 1486.69 Q2009.76 1488.85 2009.76 1492.6 Q2009.76 1496.32 2011.59 1498.5 Q2013.44 1500.65 2016.59 1500.65 Q2019.74 1500.65 2021.57 1498.5 Q2023.42 1496.32 2023.42 1492.6 Q2023.42 1488.85 2021.57 1486.69 Q2019.74 1484.54 2016.59 1484.54 M2025.87 1469.89 L2025.87 1474.15 Q2024.11 1473.31 2022.31 1472.87 Q2020.52 1472.43 2018.77 1472.43 Q2014.14 1472.43 2011.68 1475.56 Q2009.25 1478.68 2008.9 1485 Q2010.27 1482.99 2012.33 1481.93 Q2014.39 1480.84 2016.87 1480.84 Q2022.08 1480.84 2025.08 1484.01 Q2028.12 1487.16 2028.12 1492.6 Q2028.12 1497.92 2024.97 1501.14 Q2021.82 1504.36 2016.59 1504.36 Q2010.59 1504.36 2007.42 1499.77 Q2004.25 1495.17 2004.25 1486.44 Q2004.25 1478.24 2008.14 1473.38 Q2012.03 1468.5 2018.58 1468.5 Q2020.34 1468.5 2022.12 1468.85 Q2023.93 1469.19 2025.87 1469.89 Z" fill="#000000" fill-rule="evenodd" fill-opacity="1" /><path clip-path="url(#clip420)" d="M1266.8 1527.14 L1257.69 1563.82 Q1257.43 1564.98 1257.43 1565.27 Q1257.43 1565.65 1257.53 1565.82 Q1257.66 1566.01 1258.37 1566.17 Q1259.11 1566.33 1260.59 1566.33 Q1261.14 1566.33 1261.33 1566.33 Q1261.52 1566.33 1261.81 1566.4 Q1262.1 1566.46 1262.2 1566.62 Q1262.3 1566.78 1262.3 1567.04 Q1262.3 1568.36 1261.14 1568.36 Q1260.04 1568.36 1257.75 1568.26 Q1255.47 1568.17 1254.34 1568.17 Q1253.25 1568.17 1251.02 1568.26 Q1248.8 1568.36 1247.74 1568.36 Q1247.35 1568.36 1247.13 1568.17 Q1246.9 1568.01 1246.9 1567.81 L1246.87 1567.65 Q1246.87 1566.75 1247.22 1566.52 Q1247.58 1566.33 1248.38 1566.33 Q1251.15 1566.3 1251.96 1565.91 Q1252.76 1565.53 1253.15 1564.14 L1256.11 1552.35 Q1252.15 1556.31 1248.32 1556.31 Q1244.61 1556.31 1242.1 1553.42 Q1239.62 1550.49 1239.62 1545.75 Q1239.62 1542.24 1241.01 1538.7 Q1242.42 1535.16 1244.61 1532.48 Q1246.84 1529.81 1249.74 1528.13 Q1252.63 1526.43 1255.5 1526.43 Q1257.34 1526.43 1258.98 1527.49 Q1260.65 1528.55 1261.65 1531.03 Q1262.49 1529.62 1264.03 1528.07 Q1265.58 1526.49 1266.13 1526.49 Q1266.45 1526.49 1266.61 1526.72 Q1266.8 1526.91 1266.8 1527.14 M1260.72 1533.67 Q1260.72 1533.35 1260.46 1532.55 Q1260.23 1531.74 1259.72 1530.65 Q1259.24 1529.52 1258.11 1528.71 Q1256.98 1527.88 1255.5 1527.88 Q1253.37 1527.88 1251.09 1529.94 Q1248.83 1531.97 1247.35 1535.51 Q1246.42 1537.83 1245.36 1542.14 Q1244.29 1546.46 1244.29 1548.65 Q1244.29 1549.17 1244.32 1549.74 Q1244.39 1550.32 1244.65 1551.29 Q1244.9 1552.26 1245.29 1553 Q1245.71 1553.74 1246.55 1554.29 Q1247.38 1554.83 1248.51 1554.83 Q1250.96 1554.83 1253.41 1552.74 Q1255.85 1550.65 1256.88 1548.78 Q1257.01 1548.59 1258.85 1541.27 Q1260.72 1533.96 1260.72 1533.67 Z" fill="#000000" fill-rule="evenodd" fill-opacity="1" /><polyline clip-path="url(#clip422)" style="stroke:#000000; stroke-linecap:butt; stroke-linejoin:round; stroke-width:2; stroke-opacity:0.1; fill:none" points="
  155.613,1116.21 2352.76,1116.21 
  "/>
<polyline clip-path="url(#clip422)" style="stroke:#000000; stroke-linecap:butt; stroke-linejoin:round; stroke-width:2; stroke-opacity:0.1; fill:none" points="
  155.613,777.327 2352.76,777.327 
  "/>
<polyline clip-path="url(#clip422)" style="stroke:#000000; stroke-linecap:butt; stroke-linejoin:round; stroke-width:2; stroke-opacity:0.1; fill:none" points="
  155.613,438.442 2352.76,438.442 
  "/>
<polyline clip-path="url(#clip422)" style="stroke:#000000; stroke-linecap:butt; stroke-linejoin:round; stroke-width:2; stroke-opacity:0.1; fill:none" points="
  155.613,99.5572 2352.76,99.5572 
  "/>
<polyline clip-path="url(#clip420)" style="stroke:#000000; stroke-linecap:butt; stroke-linejoin:round; stroke-width:4; stroke-opacity:1; fill:none" points="
  155.613,1443.01 155.613,47.2441 
  "/>
<polyline clip-path="url(#clip420)" style="stroke:#000000; stroke-linecap:butt; stroke-linejoin:round; stroke-width:4; stroke-opacity:1; fill:none" points="
  155.613,1116.21 174.51,1116.21 
  "/>
<polyline clip-path="url(#clip420)" style="stroke:#000000; stroke-linecap:butt; stroke-linejoin:round; stroke-width:4; stroke-opacity:1; fill:none" points="
  155.613,777.327 174.51,777.327 
  "/>
<polyline clip-path="url(#clip420)" style="stroke:#000000; stroke-linecap:butt; stroke-linejoin:round; stroke-width:4; stroke-opacity:1; fill:none" points="
  155.613,438.442 174.51,438.442 
  "/>
<polyline clip-path="url(#clip420)" style="stroke:#000000; stroke-linecap:butt; stroke-linejoin:round; stroke-width:4; stroke-opacity:1; fill:none" points="
  155.613,99.5572 174.51,99.5572 
  "/>
<path clip-path="url(#clip420)" d="M99.7054 1129.56 L107.344 1129.56 L107.344 1103.19 L99.0341 1104.86 L99.0341 1100.6 L107.298 1098.93 L111.974 1098.93 L111.974 1129.56 L119.613 1129.56 L119.613 1133.49 L99.7054 1133.49 L99.7054 1129.56 Z" fill="#000000" fill-rule="evenodd" fill-opacity="1" /><path clip-path="url(#clip420)" d="M103.293 790.672 L119.613 790.672 L119.613 794.607 L97.6684 794.607 L97.6684 790.672 Q100.33 787.917 104.914 783.288 Q109.52 778.635 110.701 777.292 Q112.946 774.769 113.826 773.033 Q114.728 771.274 114.728 769.584 Q114.728 766.83 112.784 765.093 Q110.863 763.357 107.761 763.357 Q105.562 763.357 103.108 764.121 Q100.678 764.885 97.8999 766.436 L97.8999 761.714 Q100.724 760.58 103.178 760.001 Q105.631 759.422 107.668 759.422 Q113.039 759.422 116.233 762.107 Q119.428 764.792 119.428 769.283 Q119.428 771.413 118.617 773.334 Q117.83 775.232 115.724 777.825 Q115.145 778.496 112.043 781.714 Q108.941 784.908 103.293 790.672 Z" fill="#000000" fill-rule="evenodd" fill-opacity="1" /><path clip-path="url(#clip420)" d="M112.483 437.088 Q115.84 437.806 117.715 440.074 Q119.613 442.343 119.613 445.676 Q119.613 450.792 116.094 453.593 Q112.576 456.393 106.094 456.393 Q103.918 456.393 101.604 455.954 Q99.3119 455.537 96.8582 454.681 L96.8582 450.167 Q98.8026 451.301 101.117 451.88 Q103.432 452.458 105.955 452.458 Q110.353 452.458 112.645 450.722 Q114.96 448.986 114.96 445.676 Q114.96 442.62 112.807 440.907 Q110.678 439.171 106.858 439.171 L102.83 439.171 L102.83 435.329 L107.043 435.329 Q110.492 435.329 112.321 433.963 Q114.15 432.574 114.15 429.982 Q114.15 427.32 112.252 425.908 Q110.377 424.472 106.858 424.472 Q104.937 424.472 102.738 424.889 Q100.539 425.306 97.8999 426.185 L97.8999 422.019 Q100.562 421.278 102.877 420.908 Q105.215 420.537 107.275 420.537 Q112.599 420.537 115.701 422.968 Q118.803 425.375 118.803 429.495 Q118.803 432.366 117.159 434.357 Q115.516 436.324 112.483 437.088 Z" fill="#000000" fill-rule="evenodd" fill-opacity="1" /><path clip-path="url(#clip420)" d="M110.029 86.3513 L98.2239 104.8 L110.029 104.8 L110.029 86.3513 M108.803 82.2772 L114.682 82.2772 L114.682 104.8 L119.613 104.8 L119.613 108.689 L114.682 108.689 L114.682 116.837 L110.029 116.837 L110.029 108.689 L94.4277 108.689 L94.4277 104.175 L108.803 82.2772 Z" fill="#000000" fill-rule="evenodd" fill-opacity="1" /><path clip-path="url(#clip420)" d="M31.3095 727.096 Q36.0116 727.096 40.5526 729.479 Q45.0937 731.83 47.8956 735.534 Q50.6653 739.237 50.6653 743.005 Q50.6653 745.26 49.4414 746.773 Q48.1854 748.255 46.4141 749.06 Q48.6041 749.672 53.8536 750.992 Q59.1032 752.313 59.6185 752.313 Q59.9083 752.313 60.0372 752.248 Q60.166 752.184 60.327 751.894 Q60.5203 751.604 60.5847 750.896 Q60.6813 750.187 60.6813 748.996 Q60.6813 748.384 60.6813 748.158 Q60.7135 747.901 60.8745 747.675 Q61.0356 747.418 61.3898 747.418 Q62.7103 747.418 62.7103 748.609 Q62.7103 749.672 62.6136 751.862 Q62.517 754.052 62.517 755.147 Q62.517 756.081 62.6136 757.949 Q62.7103 759.817 62.7103 760.686 Q62.7103 761.556 61.9373 761.556 Q61.4864 761.556 61.1966 761.427 Q60.9389 761.331 60.8101 761.073 Q60.7135 760.815 60.6813 760.59 Q60.6813 760.397 60.6813 760.01 Q60.6813 758.529 60.4236 757.884 Q60.1982 757.24 59.7151 757.015 Q59.2642 756.757 57.976 756.467 L28.6043 749.06 Q26.6397 748.609 25.2548 748.609 Q23.5157 748.609 22.8716 749.157 Q22.2275 749.704 22.2275 750.67 Q22.2275 752.345 24.2243 753.44 Q26.221 754.535 30.0857 755.469 Q31.1485 755.759 31.374 755.952 Q31.5994 756.113 31.5994 756.596 Q31.5672 757.401 30.9231 757.401 Q30.762 757.401 29.7315 757.144 Q28.6687 756.886 27.1228 756.403 Q25.5447 755.888 24.5463 755.34 Q23.87 755.018 23.4191 754.728 Q22.9682 754.438 22.2597 753.859 Q21.5512 753.247 21.1647 752.377 Q20.7782 751.508 20.7782 750.445 Q20.7782 748.384 22.0021 746.677 Q23.2259 744.97 25.7057 744.519 Q23.5479 742.683 22.1631 740.429 Q20.7782 738.174 20.7782 735.888 Q20.7782 732.088 23.7412 729.608 Q26.6719 727.096 31.3095 727.096 M28.411 731.862 Q25.4803 731.862 23.87 732.989 Q22.2275 734.084 22.2275 736.081 Q22.2275 738.561 24.7395 741.427 Q27.1228 744.261 29.345 744.841 L42.2595 748.094 L43.3223 748.287 Q43.5156 748.287 44.0953 748.191 Q44.6428 748.062 45.5445 747.707 Q46.4463 747.321 47.2514 746.806 Q48.0244 746.258 48.6041 745.292 Q49.1838 744.294 49.1838 743.07 Q49.1838 741.105 47.4447 738.98 Q45.7056 736.822 42.4206 735.212 Q40.295 734.213 35.7217 733.054 Q31.1163 731.862 28.411 731.862 Z" fill="#000000" fill-rule="evenodd" fill-opacity="1" /><circle clip-path="url(#clip422)" cx="752.487" cy="946.77" r="14" fill="#009af9" fill-rule="evenodd" fill-opacity="1" stroke="#000000" stroke-opacity="1" stroke-width="3.2"/>
<circle clip-path="url(#clip422)" cx="790.398" cy="959.478" r="14" fill="#009af9" fill-rule="evenodd" fill-opacity="1" stroke="#000000" stroke-opacity="1" stroke-width="3.2"/>
<circle clip-path="url(#clip422)" cx="827.219" cy="977.444" r="14" fill="#009af9" fill-rule="evenodd" fill-opacity="1" stroke="#000000" stroke-opacity="1" stroke-width="3.2"/>
<circle clip-path="url(#clip422)" cx="861.327" cy="999.978" r="14" fill="#009af9" fill-rule="evenodd" fill-opacity="1" stroke="#000000" stroke-opacity="1" stroke-width="3.2"/>
<circle clip-path="url(#clip422)" cx="891.066" cy="1026.06" r="14" fill="#009af9" fill-rule="evenodd" fill-opacity="1" stroke="#000000" stroke-opacity="1" stroke-width="3.2"/>
<circle clip-path="url(#clip422)" cx="914.924" cy="1054.43" r="14" fill="#009af9" fill-rule="evenodd" fill-opacity="1" stroke="#000000" stroke-opacity="1" stroke-width="3.2"/>
<circle clip-path="url(#clip422)" cx="931.71" cy="1083.76" r="14" fill="#009af9" fill-rule="evenodd" fill-opacity="1" stroke="#000000" stroke-opacity="1" stroke-width="3.2"/>
<circle clip-path="url(#clip422)" cx="940.689" cy="1112.79" r="14" fill="#009af9" fill-rule="evenodd" fill-opacity="1" stroke="#000000" stroke-opacity="1" stroke-width="3.2"/>
<circle clip-path="url(#clip422)" cx="941.645" cy="1140.46" r="14" fill="#009af9" fill-rule="evenodd" fill-opacity="1" stroke="#000000" stroke-opacity="1" stroke-width="3.2"/>
<circle clip-path="url(#clip422)" cx="934.865" cy="1165.99" r="14" fill="#009af9" fill-rule="evenodd" fill-opacity="1" stroke="#000000" stroke-opacity="1" stroke-width="3.2"/>
<circle clip-path="url(#clip422)" cx="921.049" cy="1188.86" r="14" fill="#009af9" fill-rule="evenodd" fill-opacity="1" stroke="#000000" stroke-opacity="1" stroke-width="3.2"/>
<circle clip-path="url(#clip422)" cx="901.18" cy="1208.84" r="14" fill="#009af9" fill-rule="evenodd" fill-opacity="1" stroke="#000000" stroke-opacity="1" stroke-width="3.2"/>
<circle clip-path="url(#clip422)" cx="876.392" cy="1225.86" r="14" fill="#009af9" fill-rule="evenodd" fill-opacity="1" stroke="#000000" stroke-opacity="1" stroke-width="3.2"/>
<circle clip-path="url(#clip422)" cx="847.85" cy="1240.02" r="14" fill="#009af9" fill-rule="evenodd" fill-opacity="1" stroke="#000000" stroke-opacity="1" stroke-width="3.2"/>
<circle clip-path="url(#clip422)" cx="816.665" cy="1251.48" r="14" fill="#009af9" fill-rule="evenodd" fill-opacity="1" stroke="#000000" stroke-opacity="1" stroke-width="3.2"/>
<circle clip-path="url(#clip422)" cx="783.838" cy="1260.45" r="14" fill="#009af9" fill-rule="evenodd" fill-opacity="1" stroke="#000000" stroke-opacity="1" stroke-width="3.2"/>
<circle clip-path="url(#clip422)" cx="750.232" cy="1267.13" r="14" fill="#009af9" fill-rule="evenodd" fill-opacity="1" stroke="#000000" stroke-opacity="1" stroke-width="3.2"/>
<circle clip-path="url(#clip422)" cx="716.566" cy="1271.7" r="14" fill="#009af9" fill-rule="evenodd" fill-opacity="1" stroke="#000000" stroke-opacity="1" stroke-width="3.2"/>
<circle clip-path="url(#clip422)" cx="683.425" cy="1274.33" r="14" fill="#009af9" fill-rule="evenodd" fill-opacity="1" stroke="#000000" stroke-opacity="1" stroke-width="3.2"/>
<circle clip-path="url(#clip422)" cx="651.27" cy="1275.15" r="14" fill="#009af9" fill-rule="evenodd" fill-opacity="1" stroke="#000000" stroke-opacity="1" stroke-width="3.2"/>
<circle clip-path="url(#clip422)" cx="620.457" cy="1274.24" r="14" fill="#009af9" fill-rule="evenodd" fill-opacity="1" stroke="#000000" stroke-opacity="1" stroke-width="3.2"/>
<circle clip-path="url(#clip422)" cx="591.257" cy="1271.68" r="14" fill="#009af9" fill-rule="evenodd" fill-opacity="1" stroke="#000000" stroke-opacity="1" stroke-width="3.2"/>
<circle clip-path="url(#clip422)" cx="563.87" cy="1267.49" r="14" fill="#009af9" fill-rule="evenodd" fill-opacity="1" stroke="#000000" stroke-opacity="1" stroke-width="3.2"/>
<circle clip-path="url(#clip422)" cx="538.444" cy="1261.67" r="14" fill="#009af9" fill-rule="evenodd" fill-opacity="1" stroke="#000000" stroke-opacity="1" stroke-width="3.2"/>
<circle clip-path="url(#clip422)" cx="515.086" cy="1254.22" r="14" fill="#009af9" fill-rule="evenodd" fill-opacity="1" stroke="#000000" stroke-opacity="1" stroke-width="3.2"/>
<circle clip-path="url(#clip422)" cx="493.875" cy="1245.1" r="14" fill="#009af9" fill-rule="evenodd" fill-opacity="1" stroke="#000000" stroke-opacity="1" stroke-width="3.2"/>
<circle clip-path="url(#clip422)" cx="474.875" cy="1234.23" r="14" fill="#009af9" fill-rule="evenodd" fill-opacity="1" stroke="#000000" stroke-opacity="1" stroke-width="3.2"/>
<circle clip-path="url(#clip422)" cx="458.137" cy="1221.56" r="14" fill="#009af9" fill-rule="evenodd" fill-opacity="1" stroke="#000000" stroke-opacity="1" stroke-width="3.2"/>
<circle clip-path="url(#clip422)" cx="443.718" cy="1207" r="14" fill="#009af9" fill-rule="evenodd" fill-opacity="1" stroke="#000000" stroke-opacity="1" stroke-width="3.2"/>
<circle clip-path="url(#clip422)" cx="431.678" cy="1190.46" r="14" fill="#009af9" fill-rule="evenodd" fill-opacity="1" stroke="#000000" stroke-opacity="1" stroke-width="3.2"/>
<circle clip-path="url(#clip422)" cx="422.094" cy="1171.89" r="14" fill="#009af9" fill-rule="evenodd" fill-opacity="1" stroke="#000000" stroke-opacity="1" stroke-width="3.2"/>
<circle clip-path="url(#clip422)" cx="415.065" cy="1151.2" r="14" fill="#009af9" fill-rule="evenodd" fill-opacity="1" stroke="#000000" stroke-opacity="1" stroke-width="3.2"/>
<circle clip-path="url(#clip422)" cx="410.72" cy="1128.37" r="14" fill="#009af9" fill-rule="evenodd" fill-opacity="1" stroke="#000000" stroke-opacity="1" stroke-width="3.2"/>
<circle clip-path="url(#clip422)" cx="409.226" cy="1103.4" r="14" fill="#009af9" fill-rule="evenodd" fill-opacity="1" stroke="#000000" stroke-opacity="1" stroke-width="3.2"/>
<circle clip-path="url(#clip422)" cx="410.795" cy="1076.37" r="14" fill="#009af9" fill-rule="evenodd" fill-opacity="1" stroke="#000000" stroke-opacity="1" stroke-width="3.2"/>
<circle clip-path="url(#clip422)" cx="415.692" cy="1047.44" r="14" fill="#009af9" fill-rule="evenodd" fill-opacity="1" stroke="#000000" stroke-opacity="1" stroke-width="3.2"/>
<circle clip-path="url(#clip422)" cx="424.245" cy="1016.88" r="14" fill="#009af9" fill-rule="evenodd" fill-opacity="1" stroke="#000000" stroke-opacity="1" stroke-width="3.2"/>
<circle clip-path="url(#clip422)" cx="436.847" cy="985.156" r="14" fill="#009af9" fill-rule="evenodd" fill-opacity="1" stroke="#000000" stroke-opacity="1" stroke-width="3.2"/>
<circle clip-path="url(#clip422)" cx="453.963" cy="952.887" r="14" fill="#009af9" fill-rule="evenodd" fill-opacity="1" stroke="#000000" stroke-opacity="1" stroke-width="3.2"/>
<circle clip-path="url(#clip422)" cx="476.118" cy="920.953" r="14" fill="#009af9" fill-rule="evenodd" fill-opacity="1" stroke="#000000" stroke-opacity="1" stroke-width="3.2"/>
<circle clip-path="url(#clip422)" cx="503.881" cy="890.5" r="14" fill="#009af9" fill-rule="evenodd" fill-opacity="1" stroke="#000000" stroke-opacity="1" stroke-width="3.2"/>
<circle clip-path="url(#clip422)" cx="537.824" cy="862.963" r="14" fill="#009af9" fill-rule="evenodd" fill-opacity="1" stroke="#000000" stroke-opacity="1" stroke-width="3.2"/>
<circle clip-path="url(#clip422)" cx="578.444" cy="840.047" r="14" fill="#009af9" fill-rule="evenodd" fill-opacity="1" stroke="#000000" stroke-opacity="1" stroke-width="3.2"/>
<circle clip-path="url(#clip422)" cx="626.049" cy="823.658" r="14" fill="#009af9" fill-rule="evenodd" fill-opacity="1" stroke="#000000" stroke-opacity="1" stroke-width="3.2"/>
<circle clip-path="url(#clip422)" cx="680.59" cy="815.752" r="14" fill="#009af9" fill-rule="evenodd" fill-opacity="1" stroke="#000000" stroke-opacity="1" stroke-width="3.2"/>
<circle clip-path="url(#clip422)" cx="741.44" cy="818.095" r="14" fill="#009af9" fill-rule="evenodd" fill-opacity="1" stroke="#000000" stroke-opacity="1" stroke-width="3.2"/>
<circle clip-path="url(#clip422)" cx="807.169" cy="831.932" r="14" fill="#009af9" fill-rule="evenodd" fill-opacity="1" stroke="#000000" stroke-opacity="1" stroke-width="3.2"/>
<circle clip-path="url(#clip422)" cx="875.361" cy="857.623" r="14" fill="#009af9" fill-rule="evenodd" fill-opacity="1" stroke="#000000" stroke-opacity="1" stroke-width="3.2"/>
<circle clip-path="url(#clip422)" cx="942.593" cy="894.345" r="14" fill="#009af9" fill-rule="evenodd" fill-opacity="1" stroke="#000000" stroke-opacity="1" stroke-width="3.2"/>
<circle clip-path="url(#clip422)" cx="1004.68" cy="939.998" r="14" fill="#009af9" fill-rule="evenodd" fill-opacity="1" stroke="#000000" stroke-opacity="1" stroke-width="3.2"/>
<circle clip-path="url(#clip422)" cx="1057.22" cy="991.424" r="14" fill="#009af9" fill-rule="evenodd" fill-opacity="1" stroke="#000000" stroke-opacity="1" stroke-width="3.2"/>
<circle clip-path="url(#clip422)" cx="1096.36" cy="1044.95" r="14" fill="#009af9" fill-rule="evenodd" fill-opacity="1" stroke="#000000" stroke-opacity="1" stroke-width="3.2"/>
<circle clip-path="url(#clip422)" cx="1119.54" cy="1097.05" r="14" fill="#009af9" fill-rule="evenodd" fill-opacity="1" stroke="#000000" stroke-opacity="1" stroke-width="3.2"/>
<circle clip-path="url(#clip422)" cx="1125.9" cy="1145" r="14" fill="#009af9" fill-rule="evenodd" fill-opacity="1" stroke="#000000" stroke-opacity="1" stroke-width="3.2"/>
<circle clip-path="url(#clip422)" cx="1116.28" cy="1187.12" r="14" fill="#009af9" fill-rule="evenodd" fill-opacity="1" stroke="#000000" stroke-opacity="1" stroke-width="3.2"/>
<circle clip-path="url(#clip422)" cx="1092.81" cy="1222.75" r="14" fill="#009af9" fill-rule="evenodd" fill-opacity="1" stroke="#000000" stroke-opacity="1" stroke-width="3.2"/>
<circle clip-path="url(#clip422)" cx="1058.27" cy="1252.02" r="14" fill="#009af9" fill-rule="evenodd" fill-opacity="1" stroke="#000000" stroke-opacity="1" stroke-width="3.2"/>
<circle clip-path="url(#clip422)" cx="1015.63" cy="1275.52" r="14" fill="#009af9" fill-rule="evenodd" fill-opacity="1" stroke="#000000" stroke-opacity="1" stroke-width="3.2"/>
<circle clip-path="url(#clip422)" cx="967.619" cy="1294.04" r="14" fill="#009af9" fill-rule="evenodd" fill-opacity="1" stroke="#000000" stroke-opacity="1" stroke-width="3.2"/>
<circle clip-path="url(#clip422)" cx="916.544" cy="1308.35" r="14" fill="#009af9" fill-rule="evenodd" fill-opacity="1" stroke="#000000" stroke-opacity="1" stroke-width="3.2"/>
<circle clip-path="url(#clip422)" cx="864.255" cy="1319.16" r="14" fill="#009af9" fill-rule="evenodd" fill-opacity="1" stroke="#000000" stroke-opacity="1" stroke-width="3.2"/>
<circle clip-path="url(#clip422)" cx="812.155" cy="1327.07" r="14" fill="#009af9" fill-rule="evenodd" fill-opacity="1" stroke="#000000" stroke-opacity="1" stroke-width="3.2"/>
<circle clip-path="url(#clip422)" cx="761.266" cy="1332.53" r="14" fill="#009af9" fill-rule="evenodd" fill-opacity="1" stroke="#000000" stroke-opacity="1" stroke-width="3.2"/>
<circle clip-path="url(#clip422)" cx="712.306" cy="1335.92" r="14" fill="#009af9" fill-rule="evenodd" fill-opacity="1" stroke="#000000" stroke-opacity="1" stroke-width="3.2"/>
<circle clip-path="url(#clip422)" cx="665.755" cy="1337.48" r="14" fill="#009af9" fill-rule="evenodd" fill-opacity="1" stroke="#000000" stroke-opacity="1" stroke-width="3.2"/>
<circle clip-path="url(#clip422)" cx="621.913" cy="1337.39" r="14" fill="#009af9" fill-rule="evenodd" fill-opacity="1" stroke="#000000" stroke-opacity="1" stroke-width="3.2"/>
<circle clip-path="url(#clip422)" cx="580.949" cy="1335.77" r="14" fill="#009af9" fill-rule="evenodd" fill-opacity="1" stroke="#000000" stroke-opacity="1" stroke-width="3.2"/>
<circle clip-path="url(#clip422)" cx="542.939" cy="1332.68" r="14" fill="#009af9" fill-rule="evenodd" fill-opacity="1" stroke="#000000" stroke-opacity="1" stroke-width="3.2"/>
<circle clip-path="url(#clip422)" cx="507.892" cy="1328.13" r="14" fill="#009af9" fill-rule="evenodd" fill-opacity="1" stroke="#000000" stroke-opacity="1" stroke-width="3.2"/>
<circle clip-path="url(#clip422)" cx="475.773" cy="1322.09" r="14" fill="#009af9" fill-rule="evenodd" fill-opacity="1" stroke="#000000" stroke-opacity="1" stroke-width="3.2"/>
<circle clip-path="url(#clip422)" cx="446.522" cy="1314.49" r="14" fill="#009af9" fill-rule="evenodd" fill-opacity="1" stroke="#000000" stroke-opacity="1" stroke-width="3.2"/>
<circle clip-path="url(#clip422)" cx="420.061" cy="1305.24" r="14" fill="#009af9" fill-rule="evenodd" fill-opacity="1" stroke="#000000" stroke-opacity="1" stroke-width="3.2"/>
<circle clip-path="url(#clip422)" cx="396.311" cy="1294.2" r="14" fill="#009af9" fill-rule="evenodd" fill-opacity="1" stroke="#000000" stroke-opacity="1" stroke-width="3.2"/>
<circle clip-path="url(#clip422)" cx="375.195" cy="1281.22" r="14" fill="#009af9" fill-rule="evenodd" fill-opacity="1" stroke="#000000" stroke-opacity="1" stroke-width="3.2"/>
<circle clip-path="url(#clip422)" cx="356.647" cy="1266.1" r="14" fill="#009af9" fill-rule="evenodd" fill-opacity="1" stroke="#000000" stroke-opacity="1" stroke-width="3.2"/>
<circle clip-path="url(#clip422)" cx="340.62" cy="1248.62" r="14" fill="#009af9" fill-rule="evenodd" fill-opacity="1" stroke="#000000" stroke-opacity="1" stroke-width="3.2"/>
<circle clip-path="url(#clip422)" cx="327.087" cy="1228.55" r="14" fill="#009af9" fill-rule="evenodd" fill-opacity="1" stroke="#000000" stroke-opacity="1" stroke-width="3.2"/>
<circle clip-path="url(#clip422)" cx="316.055" cy="1205.61" r="14" fill="#009af9" fill-rule="evenodd" fill-opacity="1" stroke="#000000" stroke-opacity="1" stroke-width="3.2"/>
<circle clip-path="url(#clip422)" cx="307.566" cy="1179.54" r="14" fill="#009af9" fill-rule="evenodd" fill-opacity="1" stroke="#000000" stroke-opacity="1" stroke-width="3.2"/>
<circle clip-path="url(#clip422)" cx="301.712" cy="1150.04" r="14" fill="#009af9" fill-rule="evenodd" fill-opacity="1" stroke="#000000" stroke-opacity="1" stroke-width="3.2"/>
<circle clip-path="url(#clip422)" cx="298.642" cy="1116.87" r="14" fill="#009af9" fill-rule="evenodd" fill-opacity="1" stroke="#000000" stroke-opacity="1" stroke-width="3.2"/>
<circle clip-path="url(#clip422)" cx="298.583" cy="1079.77" r="14" fill="#009af9" fill-rule="evenodd" fill-opacity="1" stroke="#000000" stroke-opacity="1" stroke-width="3.2"/>
<circle clip-path="url(#clip422)" cx="301.856" cy="1038.6" r="14" fill="#009af9" fill-rule="evenodd" fill-opacity="1" stroke="#000000" stroke-opacity="1" stroke-width="3.2"/>
<circle clip-path="url(#clip422)" cx="308.901" cy="993.314" r="14" fill="#009af9" fill-rule="evenodd" fill-opacity="1" stroke="#000000" stroke-opacity="1" stroke-width="3.2"/>
<circle clip-path="url(#clip422)" cx="320.311" cy="944.072" r="14" fill="#009af9" fill-rule="evenodd" fill-opacity="1" stroke="#000000" stroke-opacity="1" stroke-width="3.2"/>
<circle clip-path="url(#clip422)" cx="336.873" cy="891.31" r="14" fill="#009af9" fill-rule="evenodd" fill-opacity="1" stroke="#000000" stroke-opacity="1" stroke-width="3.2"/>
<circle clip-path="url(#clip422)" cx="359.61" cy="835.872" r="14" fill="#009af9" fill-rule="evenodd" fill-opacity="1" stroke="#000000" stroke-opacity="1" stroke-width="3.2"/>
<circle clip-path="url(#clip422)" cx="389.832" cy="779.159" r="14" fill="#009af9" fill-rule="evenodd" fill-opacity="1" stroke="#000000" stroke-opacity="1" stroke-width="3.2"/>
<circle clip-path="url(#clip422)" cx="429.175" cy="723.315" r="14" fill="#009af9" fill-rule="evenodd" fill-opacity="1" stroke="#000000" stroke-opacity="1" stroke-width="3.2"/>
<circle clip-path="url(#clip422)" cx="479.597" cy="671.401" r="14" fill="#009af9" fill-rule="evenodd" fill-opacity="1" stroke="#000000" stroke-opacity="1" stroke-width="3.2"/>
<circle clip-path="url(#clip422)" cx="543.3" cy="627.53" r="14" fill="#009af9" fill-rule="evenodd" fill-opacity="1" stroke="#000000" stroke-opacity="1" stroke-width="3.2"/>
<circle clip-path="url(#clip422)" cx="622.472" cy="596.847" r="14" fill="#009af9" fill-rule="evenodd" fill-opacity="1" stroke="#000000" stroke-opacity="1" stroke-width="3.2"/>
<circle clip-path="url(#clip422)" cx="718.748" cy="585.191" r="14" fill="#009af9" fill-rule="evenodd" fill-opacity="1" stroke="#000000" stroke-opacity="1" stroke-width="3.2"/>
<circle clip-path="url(#clip422)" cx="832.272" cy="598.229" r="14" fill="#009af9" fill-rule="evenodd" fill-opacity="1" stroke="#000000" stroke-opacity="1" stroke-width="3.2"/>
<circle clip-path="url(#clip422)" cx="960.36" cy="639.938" r="14" fill="#009af9" fill-rule="evenodd" fill-opacity="1" stroke="#000000" stroke-opacity="1" stroke-width="3.2"/>
<circle clip-path="url(#clip422)" cx="1096.14" cy="710.601" r="14" fill="#009af9" fill-rule="evenodd" fill-opacity="1" stroke="#000000" stroke-opacity="1" stroke-width="3.2"/>
<circle clip-path="url(#clip422)" cx="1228.02" cy="805.135" r="14" fill="#009af9" fill-rule="evenodd" fill-opacity="1" stroke="#000000" stroke-opacity="1" stroke-width="3.2"/>
<circle clip-path="url(#clip422)" cx="1341.27" cy="913.102" r="14" fill="#009af9" fill-rule="evenodd" fill-opacity="1" stroke="#000000" stroke-opacity="1" stroke-width="3.2"/>
<circle clip-path="url(#clip422)" cx="1422" cy="1021.35" r="14" fill="#009af9" fill-rule="evenodd" fill-opacity="1" stroke="#000000" stroke-opacity="1" stroke-width="3.2"/>
<circle clip-path="url(#clip422)" cx="1461.97" cy="1118.37" r="14" fill="#009af9" fill-rule="evenodd" fill-opacity="1" stroke="#000000" stroke-opacity="1" stroke-width="3.2"/>
<circle clip-path="url(#clip422)" cx="1461.03" cy="1197.68" r="14" fill="#009af9" fill-rule="evenodd" fill-opacity="1" stroke="#000000" stroke-opacity="1" stroke-width="3.2"/>
<circle clip-path="url(#clip422)" cx="1425.77" cy="1258.24" r="14" fill="#009af9" fill-rule="evenodd" fill-opacity="1" stroke="#000000" stroke-opacity="1" stroke-width="3.2"/>
<circle clip-path="url(#clip422)" cx="1365.78" cy="1302.49" r="14" fill="#009af9" fill-rule="evenodd" fill-opacity="1" stroke="#000000" stroke-opacity="1" stroke-width="3.2"/>
<circle clip-path="url(#clip422)" cx="1290.39" cy="1334.08" r="14" fill="#009af9" fill-rule="evenodd" fill-opacity="1" stroke="#000000" stroke-opacity="1" stroke-width="3.2"/>
<circle clip-path="url(#clip422)" cx="1207.06" cy="1356.42" r="14" fill="#009af9" fill-rule="evenodd" fill-opacity="1" stroke="#000000" stroke-opacity="1" stroke-width="3.2"/>
<circle clip-path="url(#clip422)" cx="1121.09" cy="1372.2" r="14" fill="#009af9" fill-rule="evenodd" fill-opacity="1" stroke="#000000" stroke-opacity="1" stroke-width="3.2"/>
<circle clip-path="url(#clip422)" cx="1035.97" cy="1383.34" r="14" fill="#009af9" fill-rule="evenodd" fill-opacity="1" stroke="#000000" stroke-opacity="1" stroke-width="3.2"/>
<circle clip-path="url(#clip422)" cx="953.862" cy="1391.17" r="14" fill="#009af9" fill-rule="evenodd" fill-opacity="1" stroke="#000000" stroke-opacity="1" stroke-width="3.2"/>
<circle clip-path="url(#clip422)" cx="876.004" cy="1396.59" r="14" fill="#009af9" fill-rule="evenodd" fill-opacity="1" stroke="#000000" stroke-opacity="1" stroke-width="3.2"/>
<circle clip-path="url(#clip422)" cx="803.053" cy="1400.2" r="14" fill="#009af9" fill-rule="evenodd" fill-opacity="1" stroke="#000000" stroke-opacity="1" stroke-width="3.2"/>
<circle clip-path="url(#clip422)" cx="735.277" cy="1402.39" r="14" fill="#009af9" fill-rule="evenodd" fill-opacity="1" stroke="#000000" stroke-opacity="1" stroke-width="3.2"/>
<circle clip-path="url(#clip422)" cx="672.701" cy="1403.44" r="14" fill="#009af9" fill-rule="evenodd" fill-opacity="1" stroke="#000000" stroke-opacity="1" stroke-width="3.2"/>
<circle clip-path="url(#clip422)" cx="615.199" cy="1403.51" r="14" fill="#009af9" fill-rule="evenodd" fill-opacity="1" stroke="#000000" stroke-opacity="1" stroke-width="3.2"/>
<circle clip-path="url(#clip422)" cx="562.558" cy="1402.7" r="14" fill="#009af9" fill-rule="evenodd" fill-opacity="1" stroke="#000000" stroke-opacity="1" stroke-width="3.2"/>
<circle clip-path="url(#clip422)" cx="514.516" cy="1401.05" r="14" fill="#009af9" fill-rule="evenodd" fill-opacity="1" stroke="#000000" stroke-opacity="1" stroke-width="3.2"/>
<circle clip-path="url(#clip422)" cx="470.788" cy="1398.59" r="14" fill="#009af9" fill-rule="evenodd" fill-opacity="1" stroke="#000000" stroke-opacity="1" stroke-width="3.2"/>
<circle clip-path="url(#clip422)" cx="431.082" cy="1395.28" r="14" fill="#009af9" fill-rule="evenodd" fill-opacity="1" stroke="#000000" stroke-opacity="1" stroke-width="3.2"/>
<circle clip-path="url(#clip422)" cx="395.111" cy="1391.07" r="14" fill="#009af9" fill-rule="evenodd" fill-opacity="1" stroke="#000000" stroke-opacity="1" stroke-width="3.2"/>
<circle clip-path="url(#clip422)" cx="362.6" cy="1385.88" r="14" fill="#009af9" fill-rule="evenodd" fill-opacity="1" stroke="#000000" stroke-opacity="1" stroke-width="3.2"/>
<circle clip-path="url(#clip422)" cx="333.291" cy="1379.6" r="14" fill="#009af9" fill-rule="evenodd" fill-opacity="1" stroke="#000000" stroke-opacity="1" stroke-width="3.2"/>
<circle clip-path="url(#clip422)" cx="306.941" cy="1372.1" r="14" fill="#009af9" fill-rule="evenodd" fill-opacity="1" stroke="#000000" stroke-opacity="1" stroke-width="3.2"/>
<circle clip-path="url(#clip422)" cx="283.332" cy="1363.2" r="14" fill="#009af9" fill-rule="evenodd" fill-opacity="1" stroke="#000000" stroke-opacity="1" stroke-width="3.2"/>
<circle clip-path="url(#clip422)" cx="262.264" cy="1352.7" r="14" fill="#009af9" fill-rule="evenodd" fill-opacity="1" stroke="#000000" stroke-opacity="1" stroke-width="3.2"/>
<circle clip-path="url(#clip422)" cx="243.562" cy="1340.36" r="14" fill="#009af9" fill-rule="evenodd" fill-opacity="1" stroke="#000000" stroke-opacity="1" stroke-width="3.2"/>
<circle clip-path="url(#clip422)" cx="227.073" cy="1325.91" r="14" fill="#009af9" fill-rule="evenodd" fill-opacity="1" stroke="#000000" stroke-opacity="1" stroke-width="3.2"/>
<circle clip-path="url(#clip422)" cx="212.668" cy="1308.99" r="14" fill="#009af9" fill-rule="evenodd" fill-opacity="1" stroke="#000000" stroke-opacity="1" stroke-width="3.2"/>
<circle clip-path="url(#clip422)" cx="200.244" cy="1289.24" r="14" fill="#009af9" fill-rule="evenodd" fill-opacity="1" stroke="#000000" stroke-opacity="1" stroke-width="3.2"/>
<circle clip-path="url(#clip422)" cx="189.727" cy="1266.21" r="14" fill="#009af9" fill-rule="evenodd" fill-opacity="1" stroke="#000000" stroke-opacity="1" stroke-width="3.2"/>
<circle clip-path="url(#clip422)" cx="181.076" cy="1239.38" r="14" fill="#009af9" fill-rule="evenodd" fill-opacity="1" stroke="#000000" stroke-opacity="1" stroke-width="3.2"/>
<circle clip-path="url(#clip422)" cx="174.286" cy="1208.2" r="14" fill="#009af9" fill-rule="evenodd" fill-opacity="1" stroke="#000000" stroke-opacity="1" stroke-width="3.2"/>
<circle clip-path="url(#clip422)" cx="169.4" cy="1172.01" r="14" fill="#009af9" fill-rule="evenodd" fill-opacity="1" stroke="#000000" stroke-opacity="1" stroke-width="3.2"/>
<circle clip-path="url(#clip422)" cx="166.516" cy="1130.11" r="14" fill="#009af9" fill-rule="evenodd" fill-opacity="1" stroke="#000000" stroke-opacity="1" stroke-width="3.2"/>
<circle clip-path="url(#clip422)" cx="165.81" cy="1081.72" r="14" fill="#009af9" fill-rule="evenodd" fill-opacity="1" stroke="#000000" stroke-opacity="1" stroke-width="3.2"/>
<circle clip-path="url(#clip422)" cx="167.556" cy="1026.05" r="14" fill="#009af9" fill-rule="evenodd" fill-opacity="1" stroke="#000000" stroke-opacity="1" stroke-width="3.2"/>
<circle clip-path="url(#clip422)" cx="172.166" cy="962.302" r="14" fill="#009af9" fill-rule="evenodd" fill-opacity="1" stroke="#000000" stroke-opacity="1" stroke-width="3.2"/>
<circle clip-path="url(#clip422)" cx="180.246" cy="889.759" r="14" fill="#009af9" fill-rule="evenodd" fill-opacity="1" stroke="#000000" stroke-opacity="1" stroke-width="3.2"/>
<circle clip-path="url(#clip422)" cx="192.673" cy="807.891" r="14" fill="#009af9" fill-rule="evenodd" fill-opacity="1" stroke="#000000" stroke-opacity="1" stroke-width="3.2"/>
<circle clip-path="url(#clip422)" cx="210.724" cy="716.555" r="14" fill="#009af9" fill-rule="evenodd" fill-opacity="1" stroke="#000000" stroke-opacity="1" stroke-width="3.2"/>
<circle clip-path="url(#clip422)" cx="236.252" cy="616.285" r="14" fill="#009af9" fill-rule="evenodd" fill-opacity="1" stroke="#000000" stroke-opacity="1" stroke-width="3.2"/>
<circle clip-path="url(#clip422)" cx="271.949" cy="508.756" r="14" fill="#009af9" fill-rule="evenodd" fill-opacity="1" stroke="#000000" stroke-opacity="1" stroke-width="3.2"/>
<circle clip-path="url(#clip422)" cx="321.724" cy="397.468" r="14" fill="#009af9" fill-rule="evenodd" fill-opacity="1" stroke="#000000" stroke-opacity="1" stroke-width="3.2"/>
<circle clip-path="url(#clip422)" cx="391.174" cy="288.714" r="14" fill="#009af9" fill-rule="evenodd" fill-opacity="1" stroke="#000000" stroke-opacity="1" stroke-width="3.2"/>
<circle clip-path="url(#clip422)" cx="488.092" cy="192.815" r="14" fill="#009af9" fill-rule="evenodd" fill-opacity="1" stroke="#000000" stroke-opacity="1" stroke-width="3.2"/>
<circle clip-path="url(#clip422)" cx="622.649" cy="125.335" r="14" fill="#009af9" fill-rule="evenodd" fill-opacity="1" stroke="#000000" stroke-opacity="1" stroke-width="3.2"/>
<circle clip-path="url(#clip422)" cx="806.384" cy="107.345" r="14" fill="#009af9" fill-rule="evenodd" fill-opacity="1" stroke="#000000" stroke-opacity="1" stroke-width="3.2"/>
<circle clip-path="url(#clip422)" cx="1048.15" cy="162.594" r="14" fill="#009af9" fill-rule="evenodd" fill-opacity="1" stroke="#000000" stroke-opacity="1" stroke-width="3.2"/>
<circle clip-path="url(#clip422)" cx="1344.71" cy="308.308" r="14" fill="#009af9" fill-rule="evenodd" fill-opacity="1" stroke="#000000" stroke-opacity="1" stroke-width="3.2"/>
<circle clip-path="url(#clip422)" cx="1666.66" cy="538.517" r="14" fill="#009af9" fill-rule="evenodd" fill-opacity="1" stroke="#000000" stroke-opacity="1" stroke-width="3.2"/>
<circle clip-path="url(#clip422)" cx="1951.75" cy="810.081" r="14" fill="#009af9" fill-rule="evenodd" fill-opacity="1" stroke="#000000" stroke-opacity="1" stroke-width="3.2"/>
<circle clip-path="url(#clip422)" cx="2128.58" cy="1055.75" r="14" fill="#009af9" fill-rule="evenodd" fill-opacity="1" stroke="#000000" stroke-opacity="1" stroke-width="3.2"/>
<circle clip-path="url(#clip422)" cx="2166.66" cy="1228.81" r="14" fill="#009af9" fill-rule="evenodd" fill-opacity="1" stroke="#000000" stroke-opacity="1" stroke-width="3.2"/>
<polyline clip-path="url(#clip422)" style="stroke:#e26f46; stroke-linecap:butt; stroke-linejoin:round; stroke-width:8; stroke-opacity:1; fill:none" points="
  752.487,946.77 758.255,948.337 764.027,950.034 769.8,951.86 775.567,953.814 781.325,955.894 787.067,958.1 792.787,960.43 798.482,962.882 804.143,965.454 
  809.767,968.145 815.347,970.951 820.877,973.87 826.35,976.899 831.762,980.036 837.106,983.276 842.377,986.617 847.567,990.055 852.672,993.587 857.685,997.208 
  862.601,1000.91 867.412,1004.7 872.115,1008.57 876.703,1012.51 881.17,1016.51 885.511,1020.58 889.721,1024.71 893.794,1028.89 897.727,1033.12 901.513,1037.39 
  905.15,1041.71 908.632,1046.05 911.956,1050.43 915.118,1054.84 918.114,1059.26 920.942,1063.7 923.597,1068.16 926.078,1072.62 928.382,1077.08 930.506,1081.54 
  932.451,1085.99 934.213,1090.43 935.792,1094.86 937.187,1099.27 938.397,1103.66 939.421,1108.02 940.26,1112.35 940.914,1116.65 941.383,1120.91 941.666,1125.13 
  941.766,1129.31 941.683,1133.45 941.419,1137.54 940.975,1141.58 940.352,1145.57 939.554,1149.5 938.581,1153.38 937.438,1157.2 936.125,1160.96 934.648,1164.66 
  933.008,1168.3 931.21,1171.87 929.256,1175.38 927.152,1178.83 924.902,1182.21 922.51,1185.53 919.978,1188.78 917.31,1191.96 914.509,1195.08 911.579,1198.12 
  908.525,1201.1 905.35,1204.02 902.059,1206.86 898.656,1209.64 895.143,1212.35 891.527,1214.99 887.81,1217.56 883.997,1220.07 880.091,1222.51 876.097,1224.89 
  872.019,1227.2 867.86,1229.44 863.625,1231.62 859.317,1233.74 854.941,1235.8 850.5,1237.79 845.998,1239.72 841.438,1241.59 836.824,1243.39 832.159,1245.14 
  827.448,1246.83 822.693,1248.47 817.897,1250.04 813.064,1251.56 808.198,1253.02 803.3,1254.43 798.375,1255.78 793.425,1257.08 788.453,1258.32 783.461,1259.52 
  778.453,1260.66 773.431,1261.75 768.398,1262.79 763.356,1263.78 758.308,1264.72 753.255,1265.61 748.2,1266.46 743.146,1267.25 738.094,1268 733.047,1268.71 
  728.006,1269.37 722.973,1269.98 717.95,1270.55 712.939,1271.07 707.942,1271.56 702.959,1271.99 697.994,1272.39 693.047,1272.75 688.12,1273.06 683.214,1273.33 
  678.33,1273.56 673.47,1273.75 668.636,1273.9 663.828,1274.01 659.047,1274.08 654.295,1274.11 649.573,1274.11 644.881,1274.06 640.222,1273.97 635.595,1273.85 
  631.002,1273.69 626.444,1273.49 621.922,1273.26 617.436,1272.98 612.987,1272.67 608.576,1272.32 604.204,1271.94 599.871,1271.52 595.579,1271.06 591.327,1270.56 
  587.116,1270.03 582.948,1269.46 578.821,1268.86 574.738,1268.22 570.698,1267.54 566.701,1266.83 562.748,1266.08 558.84,1265.29 554.976,1264.47 551.157,1263.61 
  547.383,1262.71 543.655,1261.78 539.972,1260.81 536.335,1259.8 532.745,1258.76 529.202,1257.68 525.707,1256.56 522.258,1255.4 518.858,1254.21 515.506,1252.98 
  512.202,1251.71 508.946,1250.41 505.739,1249.06 502.581,1247.68 499.472,1246.26 496.412,1244.8 493.402,1243.3 490.442,1241.76 487.531,1240.18 484.671,1238.56 
  481.861,1236.9 479.102,1235.21 476.393,1233.47 473.736,1231.69 471.129,1229.87 468.574,1228.01 466.07,1226.11 463.618,1224.16 461.218,1222.18 458.87,1220.15 
  456.574,1218.08 454.331,1215.97 452.14,1213.81 450.001,1211.61 447.916,1209.37 445.883,1207.08 443.904,1204.75 441.978,1202.37 440.106,1199.95 438.289,1197.49 
  436.526,1194.98 434.818,1192.43 433.165,1189.83 431.567,1187.19 430.024,1184.49 428.537,1181.76 427.106,1178.97 425.732,1176.14 424.414,1173.26 423.152,1170.33 
  421.948,1167.36 420.802,1164.33 419.714,1161.26 418.684,1158.14 417.713,1154.97 416.802,1151.75 415.95,1148.48 415.159,1145.16 414.43,1141.8 413.761,1138.38 
  413.155,1134.92 412.612,1131.4 412.132,1127.84 411.717,1124.23 411.366,1120.57 411.081,1116.87 410.862,1113.11 410.71,1109.31 410.626,1105.46 410.611,1101.56 
  410.665,1097.62 410.789,1093.63 410.984,1089.6 411.252,1085.52 411.592,1081.39 412.007,1077.23 412.496,1073.02 413.061,1068.76 413.703,1064.47 414.423,1060.13 
  415.221,1055.75 416.1,1051.33 417.06,1046.88 418.102,1042.38 419.227,1037.85 420.437,1033.29 421.734,1028.69 423.118,1024.06 424.591,1019.4 426.155,1014.72 
  427.812,1010 429.563,1005.26 431.409,1000.49 433.353,995.708 435.396,990.901 437.539,986.076 439.785,981.236 442.135,976.384 444.592,971.521 447.155,966.651 
  449.829,961.777 452.613,956.902 455.511,952.029 458.524,947.161 461.653,942.303 464.901,937.458 468.27,932.629 471.762,927.821 475.378,923.038 479.121,918.284 
  482.992,913.564 486.994,908.882 491.128,904.243 495.397,899.652 499.803,895.114 504.348,890.634 509.033,886.218 513.862,881.87 518.836,877.597 523.957,873.404 
  529.228,869.297 534.651,865.283 540.228,861.367 545.961,857.555 551.853,853.855 557.907,850.273 564.133,846.809 570.538,843.471 577.121,840.269 583.881,837.213 
  590.817,834.312 597.929,831.576 605.215,829.013 612.673,826.631 620.302,824.44 628.099,822.445 636.061,820.655 644.185,819.077 652.469,817.716 660.908,816.58 
  669.499,815.673 678.238,815.002 687.12,814.571 696.141,814.385 705.295,814.448 714.578,814.764 723.983,815.337 733.504,816.169 743.136,817.264 752.872,818.624 
  762.705,820.251 772.627,822.146 782.632,824.312 792.711,826.748 802.857,829.456 813.061,832.435 823.314,835.685 833.608,839.206 843.933,842.997 854.28,847.057 
  864.638,851.383 874.998,855.973 885.349,860.826 895.681,865.938 905.981,871.307 916.24,876.927 926.444,882.797 936.583,888.911 946.639,895.263 956.583,901.839 
  966.392,908.624 976.046,915.601 985.525,922.757 994.81,930.075 1003.88,937.541 1012.73,945.141 1021.33,952.861 1029.67,960.686 1037.73,968.603 1045.5,976.598 
  1052.98,984.659 1060.13,992.772 1066.97,1000.92 1073.46,1009.1 1079.61,1017.3 1085.41,1025.49 1090.84,1033.68 1095.91,1041.85 1100.6,1049.99 1104.9,1058.08 
  1108.82,1066.12 1112.35,1074.09 1115.49,1081.99 1118.23,1089.81 1120.58,1097.53 1122.53,1105.15 1124.09,1112.65 1125.24,1120.04 1126.01,1127.29 1126.38,1134.4 
  1126.37,1141.36 1125.97,1148.18 1125.18,1154.85 1124.03,1161.37 1122.52,1167.75 1120.67,1173.97 1118.49,1180.04 1115.98,1185.97 1113.15,1191.74 1110.03,1197.36 
  1106.61,1202.84 1102.91,1208.16 1098.95,1213.34 1094.72,1218.37 1090.24,1223.25 1085.52,1227.99 1080.57,1232.58 1075.4,1237.03 1070.01,1241.34 1064.43,1245.51 
  1058.66,1249.54 1052.7,1253.43 1046.57,1257.19 1040.28,1260.82 1033.83,1264.31 1027.23,1267.68 1020.5,1270.92 1013.64,1274.04 1006.67,1277.05 999.578,1279.93 
  992.388,1282.71 985.104,1285.37 977.734,1287.93 970.288,1290.38 962.772,1292.74 955.196,1295 947.566,1297.17 939.892,1299.25 932.179,1301.25 924.437,1303.18 
  916.672,1305.03 908.892,1306.81 901.105,1308.53 893.316,1310.19 885.535,1311.8 877.764,1313.35 869.995,1314.85 862.228,1316.27 854.466,1317.63 846.713,1318.93 
  838.972,1320.17 831.246,1321.34 823.54,1322.46 815.855,1323.52 808.196,1324.53 800.564,1325.48 792.962,1326.37 785.394,1327.22 777.861,1328.01 770.366,1328.76 
  762.912,1329.45 755.5,1330.1 748.132,1330.71 740.811,1331.27 733.538,1331.78 726.315,1332.25 719.144,1332.68 712.026,1333.06 704.962,1333.41 697.954,1333.72 
  691.003,1333.98 684.109,1334.21 677.274,1334.4 670.498,1334.55 663.783,1334.66 657.128,1334.74 650.535,1334.77 644.002,1334.78 637.532,1334.74 631.123,1334.68 
  624.776,1334.57 618.49,1334.43 612.268,1334.26 606.111,1334.05 600.019,1333.81 593.992,1333.53 588.03,1333.22 582.134,1332.88 576.302,1332.5 570.537,1332.09 
  564.836,1331.65 559.202,1331.17 553.633,1330.66 548.129,1330.12 542.692,1329.54 537.319,1328.94 532.013,1328.29 526.772,1327.62 521.596,1326.91 516.486,1326.17 
  511.441,1325.39 506.462,1324.58 501.547,1323.74 496.698,1322.86 491.913,1321.95 487.194,1321 482.538,1320.02 477.947,1319 473.421,1317.95 468.958,1316.86 
  464.559,1315.74 460.223,1314.58 455.951,1313.38 451.741,1312.15 447.594,1310.88 443.51,1309.58 439.488,1308.23 435.527,1306.85 431.628,1305.43 427.79,1303.97 
  424.013,1302.47 420.295,1300.93 416.638,1299.34 413.041,1297.72 409.502,1296.06 406.023,1294.35 402.604,1292.6 399.244,1290.81 395.943,1288.98 392.701,1287.1 
  389.518,1285.17 386.392,1283.2 383.324,1281.19 380.314,1279.12 377.362,1277.01 374.466,1274.85 371.628,1272.64 368.846,1270.38 366.121,1268.07 363.453,1265.71 
  360.841,1263.3 358.286,1260.83 355.786,1258.31 353.343,1255.74 350.956,1253.11 348.625,1250.42 346.35,1247.68 344.131,1244.88 341.968,1242.02 339.861,1239.1 
  337.81,1236.13 335.816,1233.09 333.877,1229.99 331.995,1226.82 330.169,1223.6 328.4,1220.31 326.687,1216.95 325.031,1213.53 323.432,1210.04 321.89,1206.48 
  320.405,1202.86 318.978,1199.16 317.608,1195.39 316.297,1191.55 315.044,1187.64 313.849,1183.66 312.713,1179.6 311.637,1175.47 310.619,1171.26 309.662,1166.97 
  308.765,1162.6 307.928,1158.16 307.152,1153.63 306.442,1149.03 305.811,1144.37 305.262,1139.64 304.791,1134.86 304.397,1130.01 304.079,1125.08 303.835,1120.08 
  303.666,1115 303.569,1109.83 303.543,1104.58 303.59,1099.24 303.707,1093.81 303.895,1088.28 304.153,1082.66 304.482,1076.94 304.882,1071.12 305.354,1065.21 
  305.897,1059.18 306.514,1053.06 307.203,1046.83 307.967,1040.5 308.807,1034.06 309.725,1027.52 310.721,1020.88 311.797,1014.13 312.955,1007.28 314.198,1000.32 
  315.527,993.266 316.945,986.112 318.455,978.86 320.058,971.511 321.758,964.069 323.557,956.535 325.46,948.912 327.469,941.203 329.587,933.411 331.819,925.538 
  334.168,917.59 336.638,909.568 339.233,901.478 341.958,893.323 344.816,885.109 347.813,876.838 350.954,868.517 354.242,860.151 357.684,851.745 361.284,843.304 
  365.048,834.835 368.982,826.343 373.09,817.836 377.38,809.318 381.857,800.797 386.528,792.281 391.398,783.776 396.474,775.289 401.764,766.829 407.273,758.404 
  413.009,750.021 418.98,741.689 425.191,733.417 431.652,725.213 438.369,717.087 445.351,709.048 452.605,701.106 460.14,693.27 467.963,685.55 476.084,677.957 
  484.51,670.501 493.237,663.204 502.274,656.087 511.634,649.176 521.329,642.491 531.371,636.055 541.77,629.891 552.535,624.02 563.676,618.464 575.199,613.245 
  587.112,608.384 599.422,603.902 612.132,599.82 625.248,596.159 638.772,592.94 652.708,590.183 667.058,587.908 681.821,586.135 696.999,584.884 712.59,584.175 
  728.592,584.027 745.004,584.46 761.821,585.491 779.039,587.141 796.653,589.428 814.657,592.37 833.044,595.986 851.806,600.294 870.934,605.31 890.42,611.055 
  910.273,617.563 930.5,624.87 951.041,632.953 971.834,641.784 992.819,651.337 1013.94,661.583 1035.13,672.492 1056.35,684.034 1077.52,696.179 1098.61,708.894 
  1119.55,722.147 1140.29,735.903 1160.79,750.128 1180.98,764.786 1200.82,779.84 1220.26,795.254 1239.26,810.988 1257.77,827.003 1275.73,843.259 1293.12,859.716 
  1309.87,876.33 1325.96,893.059 1341.34,909.858 1355.97,926.684 1369.81,943.491 1382.81,960.231 1394.96,976.857 1406.2,993.321 1416.5,1009.57 1425.84,1025.56 
  1434.17,1041.24 1441.46,1056.55 1447.68,1071.45 1452.86,1085.92 1457.02,1099.97 1460.18,1113.59 1462.39,1126.77 1463.66,1139.52 1464.03,1151.84 1463.53,1163.71 
  1462.19,1175.15 1460.03,1186.16 1457.1,1196.74 1453.41,1206.89 1449.01,1216.61 1443.92,1225.92 1438.16,1234.82 1431.79,1243.31 1424.82,1251.42 1417.28,1259.13 
  1409.21,1266.48 1400.65,1273.46 1391.61,1280.09 1382.15,1286.38 1372.27,1292.35 1362.03,1298.02 1351.45,1303.4 1340.57,1308.5 1329.41,1313.35 1318.02,1317.97 
  1306.42,1322.37 1294.66,1326.58 1282.75,1330.61 1270.71,1334.46 1258.54,1338.13 1246.25,1341.61 1233.87,1344.93 1221.4,1348.08 1208.86,1351.08 1196.25,1353.93 
  1183.6,1356.63 1170.91,1359.21 1158.19,1361.65 1145.46,1363.97 1132.72,1366.18 1119.98,1368.28 1107.26,1370.27 1094.57,1372.16 1081.9,1373.96 1069.27,1375.66 
  1056.69,1377.28 1044.17,1378.82 1031.7,1380.28 1019.3,1381.67 1006.97,1382.99 994.724,1384.24 982.558,1385.43 970.478,1386.55 958.489,1387.62 946.595,1388.63 
  934.799,1389.58 923.103,1390.48 911.509,1391.33 900.02,1392.13 888.637,1392.89 877.361,1393.6 866.194,1394.27 855.136,1394.9 844.189,1395.49 833.354,1396.05 
  822.631,1396.56 812.021,1397.05 801.525,1397.5 791.144,1397.92 780.877,1398.3 770.725,1398.66 760.689,1398.99 750.768,1399.29 740.963,1399.56 731.273,1399.81 
  721.699,1400.03 712.24,1400.22 702.896,1400.39 693.666,1400.54 684.55,1400.66 675.547,1400.76 666.657,1400.83 657.878,1400.89 649.21,1400.92 640.653,1400.93 
  632.205,1400.92 623.866,1400.88 615.636,1400.83 607.514,1400.76 599.498,1400.67 591.588,1400.55 583.784,1400.42 576.083,1400.27 568.486,1400.1 560.991,1399.9 
  553.597,1399.69 546.304,1399.46 539.111,1399.21 532.017,1398.95 525.02,1398.66 518.121,1398.35 511.317,1398.03 504.609,1397.68 497.995,1397.32 491.474,1396.93 
  485.046,1396.53 478.708,1396.11 472.462,1395.67 466.305,1395.2 460.236,1394.72 454.255,1394.22 448.36,1393.7 442.552,1393.16 436.828,1392.6 431.187,1392.02 
  425.629,1391.41 420.154,1390.79 414.758,1390.14 409.443,1389.47 404.207,1388.78 399.049,1388.07 393.968,1387.34 388.964,1386.58 384.036,1385.8 379.182,1384.99 
  374.403,1384.16 369.696,1383.31 365.061,1382.43 360.498,1381.53 356.005,1380.6 351.582,1379.65 347.228,1378.67 342.941,1377.66 338.722,1376.62 334.57,1375.56 
  330.483,1374.47 326.462,1373.35 322.505,1372.2 318.611,1371.01 314.78,1369.8 311.011,1368.56 307.304,1367.29 303.657,1365.98 300.071,1364.64 296.544,1363.26 
  293.076,1361.85 289.666,1360.41 286.313,1358.93 283.018,1357.41 279.778,1355.86 276.595,1354.26 273.466,1352.63 270.393,1350.96 267.373,1349.24 264.406,1347.49 
  261.493,1345.69 258.631,1343.85 255.822,1341.96 253.064,1340.03 250.357,1338.06 247.701,1336.03 245.095,1333.96 242.539,1331.84 240.031,1329.66 237.573,1327.44 
  235.162,1325.16 232.799,1322.83 230.483,1320.44 228.214,1318 225.992,1315.5 223.816,1312.95 221.685,1310.33 219.599,1307.65 217.559,1304.91 215.564,1302.11 
  213.612,1299.24 211.705,1296.3 209.842,1293.3 208.023,1290.22 206.247,1287.08 204.514,1283.86 202.825,1280.57 201.179,1277.2 199.575,1273.76 198.014,1270.24 
  196.496,1266.63 195.02,1262.94 193.587,1259.17 192.196,1255.32 190.847,1251.37 189.541,1247.33 188.278,1243.21 187.057,1238.99 185.878,1234.67 184.742,1230.25 
  183.649,1225.74 182.598,1221.12 181.59,1216.4 180.625,1211.58 179.704,1206.64 178.826,1201.6 177.991,1196.44 177.201,1191.17 176.454,1185.78 175.751,1180.27 
  175.094,1174.64 174.48,1168.89 173.913,1163.01 173.391,1156.99 172.918,1150.86 172.497,1144.59 172.127,1138.19 171.807,1131.66 171.537,1124.98 171.317,1118.16 
  171.147,1111.19 171.028,1104.07 170.96,1096.8 170.943,1089.37 170.978,1081.78 171.066,1074.03 171.208,1066.11 171.405,1058.03 171.659,1049.77 171.969,1041.33 
  172.339,1032.73 172.769,1023.94 173.261,1014.96 173.818,1005.81 174.441,996.467 175.133,986.936 175.895,977.214 176.73,967.3 177.641,957.19 178.631,946.884 
  179.701,936.38 180.856,925.675 182.099,914.769 183.432,903.659 184.859,892.344 186.383,880.824 188.009,869.096 189.74,857.159 191.579,845.013 193.532,832.656 
  195.602,820.087 197.793,807.306 200.111,794.311 202.559,781.102 205.142,767.679 207.866,754.04 210.735,740.186 213.755,726.118 216.967,711.905 220.384,697.561 
  224.006,683.068 227.832,668.412 231.865,653.581 236.107,638.564 240.562,623.355 245.237,607.949 250.137,592.344 255.272,576.54 260.65,560.541 266.283,544.351 
  272.182,527.978 278.36,511.434 284.833,494.732 291.616,477.886 298.726,460.915 306.182,443.84 314.004,426.683 322.213,409.471 330.831,392.232 339.881,374.996 
  349.39,357.797 359.383,340.67 369.887,323.655 380.933,306.791 392.549,290.122 404.768,273.695 417.621,257.557 431.144,241.76 445.372,226.357 460.34,211.405 
  476.088,196.961 492.655,183.087 510.08,169.846 528.406,157.305 547.677,145.533 567.935,134.6 589.228,124.581 611.603,115.551 635.107,107.59 659.79,100.778 
  685.703,95.2008 712.899,90.9433 741.431,88.0949 771.354,86.747 802.723,86.9936 835.597,88.9313 870.034,92.659 906.094,98.2787 943.772,105.925 983.066,115.743 
  1023.99,127.844 1066.53,142.319 1110.64,159.237 1156.29,178.645 1203.37,200.568 1251.8,225.009 1301.43,251.948 1352.12,281.346 1403.69,313.139 1455.94,347.243 
  1508.7,383.6 1561.72,422.099 1614.58,462.392 1666.84,504.13 1718.1,546.974 1768,590.598 1816.19,634.686 1862.34,678.935 1906.16,723.052 1947.38,766.756 
  1985.75,809.775 2021.07,851.853 2053.14,892.74 2081.79,932.202 2106.88,970.012 2128.3,1005.96 2145.98,1039.85 2160.06,1071.69 2170.7,1101.52 2178.07,1129.36 
  2182.33,1155.28 2183.65,1179.31 2182.2,1201.52 2178.16,1221.99 2171.73,1240.78 2163.08,1258 2152.41,1273.74 2139.91,1288.11 2125.8,1301.22 2110.28,1313.2 
  
  "/>
<path clip-path="url(#clip420)" d="
M1511.18 249.29 L2279.52 249.29 L2279.52 93.7697 L1511.18 93.7697  Z
  " fill="#ffffff" fill-rule="evenodd" fill-opacity="1"/>
<polyline clip-path="url(#clip420)" style="stroke:#000000; stroke-linecap:butt; stroke-linejoin:round; stroke-width:4; stroke-opacity:1; fill:none" points="
  1511.18,249.29 2279.52,249.29 2279.52,93.7697 1511.18,93.7697 1511.18,249.29 
  "/>
<circle clip-path="url(#clip420)" cx="1608.83" cy="145.61" r="23" fill="#009af9" fill-rule="evenodd" fill-opacity="1" stroke="#000000" stroke-opacity="1" stroke-width="5.12"/>
<path clip-path="url(#clip420)" d="M1706.48 128.33 L1728.33 128.33 L1728.33 132.265 L1711.16 132.265 L1711.16 142.496 L1727.62 142.496 L1727.62 146.431 L1711.16 146.431 L1711.16 158.955 L1728.75 158.955 L1728.75 162.89 L1706.48 162.89 L1706.48 128.33 Z" fill="#000000" fill-rule="evenodd" fill-opacity="1" /><path clip-path="url(#clip420)" d="M1757.8 136.964 L1748.43 149.58 L1758.29 162.89 L1753.26 162.89 L1745.72 152.705 L1738.17 162.89 L1733.15 162.89 L1743.22 149.325 L1734.01 136.964 L1739.03 136.964 L1745.9 146.2 L1752.78 136.964 L1757.8 136.964 Z" fill="#000000" fill-rule="evenodd" fill-opacity="1" /><path clip-path="url(#clip420)" d="M1768.43 159.001 L1768.43 172.751 L1764.14 172.751 L1764.14 136.964 L1768.43 136.964 L1768.43 140.899 Q1769.77 138.584 1771.81 137.473 Q1773.87 136.339 1776.71 136.339 Q1781.44 136.339 1784.38 140.089 Q1787.34 143.839 1787.34 149.95 Q1787.34 156.061 1784.38 159.811 Q1781.44 163.561 1776.71 163.561 Q1773.87 163.561 1771.81 162.45 Q1769.77 161.316 1768.43 159.001 M1782.92 149.95 Q1782.92 145.251 1780.97 142.589 Q1779.05 139.904 1775.67 139.904 Q1772.29 139.904 1770.35 142.589 Q1768.43 145.251 1768.43 149.95 Q1768.43 154.649 1770.35 157.334 Q1772.29 159.996 1775.67 159.996 Q1779.05 159.996 1780.97 157.334 Q1782.92 154.649 1782.92 149.95 Z" fill="#000000" fill-rule="evenodd" fill-opacity="1" /><path clip-path="url(#clip420)" d="M1794.4 126.871 L1798.66 126.871 L1798.66 162.89 L1794.4 162.89 L1794.4 126.871 Z" fill="#000000" fill-rule="evenodd" fill-opacity="1" /><path clip-path="url(#clip420)" d="M1807.57 136.964 L1811.83 136.964 L1811.83 162.89 L1807.57 162.89 L1807.57 136.964 M1807.57 126.871 L1811.83 126.871 L1811.83 132.265 L1807.57 132.265 L1807.57 126.871 Z" fill="#000000" fill-rule="evenodd" fill-opacity="1" /><path clip-path="url(#clip420)" d="M1839.4 137.959 L1839.4 141.941 Q1837.59 140.945 1835.76 140.459 Q1833.96 139.95 1832.11 139.95 Q1827.96 139.95 1825.67 142.589 Q1823.38 145.205 1823.38 149.95 Q1823.38 154.695 1825.67 157.334 Q1827.96 159.95 1832.11 159.95 Q1833.96 159.95 1835.76 159.464 Q1837.59 158.955 1839.4 157.959 L1839.4 161.894 Q1837.62 162.728 1835.69 163.144 Q1833.8 163.561 1831.64 163.561 Q1825.79 163.561 1822.34 159.88 Q1818.89 156.2 1818.89 149.95 Q1818.89 143.607 1822.36 139.973 Q1825.86 136.339 1831.92 136.339 Q1833.89 136.339 1835.76 136.756 Q1837.64 137.149 1839.4 137.959 Z" fill="#000000" fill-rule="evenodd" fill-opacity="1" /><path clip-path="url(#clip420)" d="M1846.81 136.964 L1851.06 136.964 L1851.06 162.89 L1846.81 162.89 L1846.81 136.964 M1846.81 126.871 L1851.06 126.871 L1851.06 132.265 L1846.81 132.265 L1846.81 126.871 Z" fill="#000000" fill-rule="evenodd" fill-opacity="1" /><path clip-path="url(#clip420)" d="M1864.19 129.603 L1864.19 136.964 L1872.96 136.964 L1872.96 140.274 L1864.19 140.274 L1864.19 154.348 Q1864.19 157.519 1865.05 158.422 Q1865.93 159.325 1868.59 159.325 L1872.96 159.325 L1872.96 162.89 L1868.59 162.89 Q1863.66 162.89 1861.78 161.061 Q1859.91 159.209 1859.91 154.348 L1859.91 140.274 L1856.78 140.274 L1856.78 136.964 L1859.91 136.964 L1859.91 129.603 L1864.19 129.603 Z" fill="#000000" fill-rule="evenodd" fill-opacity="1" /><path clip-path="url(#clip420)" d="M1893.82 128.33 L1915.67 128.33 L1915.67 132.265 L1898.5 132.265 L1898.5 142.496 L1914.95 142.496 L1914.95 146.431 L1898.5 146.431 L1898.5 158.955 L1916.09 158.955 L1916.09 162.89 L1893.82 162.89 L1893.82 128.33 Z" fill="#000000" fill-rule="evenodd" fill-opacity="1" /><path clip-path="url(#clip420)" d="M1923.15 152.658 L1923.15 136.964 L1927.41 136.964 L1927.41 152.496 Q1927.41 156.177 1928.84 158.029 Q1930.28 159.857 1933.15 159.857 Q1936.6 159.857 1938.59 157.658 Q1940.6 155.459 1940.6 151.663 L1940.6 136.964 L1944.86 136.964 L1944.86 162.89 L1940.6 162.89 L1940.6 158.908 Q1939.05 161.269 1936.99 162.427 Q1934.95 163.561 1932.24 163.561 Q1927.78 163.561 1925.46 160.783 Q1923.15 158.005 1923.15 152.658 M1933.87 136.339 L1933.87 136.339 Z" fill="#000000" fill-rule="evenodd" fill-opacity="1" /><path clip-path="url(#clip420)" d="M1953.63 126.871 L1957.89 126.871 L1957.89 162.89 L1953.63 162.89 L1953.63 126.871 Z" fill="#000000" fill-rule="evenodd" fill-opacity="1" /><path clip-path="url(#clip420)" d="M1988.98 148.862 L1988.98 150.945 L1969.4 150.945 Q1969.68 155.343 1972.04 157.658 Q1974.42 159.95 1978.66 159.95 Q1981.11 159.95 1983.4 159.348 Q1985.72 158.746 1987.99 157.543 L1987.99 161.57 Q1985.69 162.542 1983.29 163.052 Q1980.88 163.561 1978.4 163.561 Q1972.2 163.561 1968.56 159.95 Q1964.95 156.339 1964.95 150.181 Q1964.95 143.816 1968.38 140.089 Q1971.83 136.339 1977.66 136.339 Q1982.89 136.339 1985.93 139.719 Q1988.98 143.075 1988.98 148.862 M1984.72 147.612 Q1984.68 144.117 1982.75 142.033 Q1980.86 139.95 1977.71 139.95 Q1974.14 139.95 1971.99 141.964 Q1969.86 143.978 1969.54 147.635 L1984.72 147.612 Z" fill="#000000" fill-rule="evenodd" fill-opacity="1" /><path clip-path="url(#clip420)" d="M2010.99 140.945 Q2010.28 140.529 2009.42 140.344 Q2008.59 140.135 2007.57 140.135 Q2003.96 140.135 2002.01 142.496 Q2000.09 144.834 2000.09 149.232 L2000.09 162.89 L1995.81 162.89 L1995.81 136.964 L2000.09 136.964 L2000.09 140.992 Q2001.43 138.631 2003.59 137.496 Q2005.74 136.339 2008.82 136.339 Q2009.26 136.339 2009.79 136.408 Q2010.32 136.455 2010.97 136.57 L2010.99 140.945 Z" fill="#000000" fill-rule="evenodd" fill-opacity="1" /><path clip-path="url(#clip420)" d="M2016.55 157.01 L2021.43 157.01 L2021.43 160.992 L2017.64 168.399 L2014.65 168.399 L2016.55 160.992 L2016.55 157.01 Z" fill="#000000" fill-rule="evenodd" fill-opacity="1" /><path clip-path="url(#clip420)" d="M2062.66 140.899 L2062.66 126.871 L2066.92 126.871 L2066.92 162.89 L2062.66 162.89 L2062.66 159.001 Q2061.32 161.316 2059.26 162.45 Q2057.22 163.561 2054.35 163.561 Q2049.65 163.561 2046.69 159.811 Q2043.75 156.061 2043.75 149.95 Q2043.75 143.839 2046.69 140.089 Q2049.65 136.339 2054.35 136.339 Q2057.22 136.339 2059.26 137.473 Q2061.32 138.584 2062.66 140.899 M2048.15 149.95 Q2048.15 154.649 2050.07 157.334 Q2052.01 159.996 2055.39 159.996 Q2058.77 159.996 2060.72 157.334 Q2062.66 154.649 2062.66 149.95 Q2062.66 145.251 2060.72 142.589 Q2058.77 139.904 2055.39 139.904 Q2052.01 139.904 2050.07 142.589 Q2048.15 145.251 2048.15 149.95 Z" fill="#000000" fill-rule="evenodd" fill-opacity="1" /><path clip-path="url(#clip420)" d="M2079.91 129.603 L2079.91 136.964 L2088.68 136.964 L2088.68 140.274 L2079.91 140.274 L2079.91 154.348 Q2079.91 157.519 2080.76 158.422 Q2081.64 159.325 2084.3 159.325 L2088.68 159.325 L2088.68 162.89 L2084.3 162.89 Q2079.37 162.89 2077.5 161.061 Q2075.62 159.209 2075.62 154.348 L2075.62 140.274 L2072.5 140.274 L2072.5 136.964 L2075.62 136.964 L2075.62 129.603 L2079.91 129.603 Z" fill="#000000" fill-rule="evenodd" fill-opacity="1" /><path clip-path="url(#clip420)" d="M2109.91 141.362 L2139.58 141.362 L2139.58 145.251 L2109.91 145.251 L2109.91 141.362 M2109.91 150.806 L2139.58 150.806 L2139.58 154.742 L2109.91 154.742 L2109.91 150.806 Z" fill="#000000" fill-rule="evenodd" fill-opacity="1" /><path clip-path="url(#clip420)" d="M2174.74 131.408 Q2171.13 131.408 2169.3 134.973 Q2167.5 138.515 2167.5 145.644 Q2167.5 152.751 2169.3 156.316 Q2171.13 159.857 2174.74 159.857 Q2178.38 159.857 2180.18 156.316 Q2182.01 152.751 2182.01 145.644 Q2182.01 138.515 2180.18 134.973 Q2178.38 131.408 2174.74 131.408 M2174.74 127.705 Q2180.55 127.705 2183.61 132.311 Q2186.69 136.894 2186.69 145.644 Q2186.69 154.371 2183.61 158.978 Q2180.55 163.561 2174.74 163.561 Q2168.93 163.561 2165.85 158.978 Q2162.8 154.371 2162.8 145.644 Q2162.8 136.894 2165.85 132.311 Q2168.93 127.705 2174.74 127.705 Z" fill="#000000" fill-rule="evenodd" fill-opacity="1" /><path clip-path="url(#clip420)" d="M2194.91 157.01 L2199.79 157.01 L2199.79 162.89 L2194.91 162.89 L2194.91 157.01 Z" fill="#000000" fill-rule="evenodd" fill-opacity="1" /><path clip-path="url(#clip420)" d="M2210.79 158.955 L2218.42 158.955 L2218.42 132.589 L2210.11 134.256 L2210.11 129.996 L2218.38 128.33 L2223.05 128.33 L2223.05 158.955 L2230.69 158.955 L2230.69 162.89 L2210.79 162.89 L2210.79 158.955 Z" fill="#000000" fill-rule="evenodd" fill-opacity="1" /><polyline clip-path="url(#clip420)" style="stroke:#e26f46; stroke-linecap:butt; stroke-linejoin:round; stroke-width:4; stroke-opacity:1; fill:none" points="
  1535.59,197.45 1682.07,197.45 
  "/>
<path clip-path="url(#clip420)" d="M1706.48 180.17 L1713.45 180.17 L1722.27 203.688 L1731.13 180.17 L1738.1 180.17 L1738.1 214.73 L1733.54 214.73 L1733.54 184.383 L1724.63 208.086 L1719.93 208.086 L1711.02 184.383 L1711.02 214.73 L1706.48 214.73 L1706.48 180.17 Z" fill="#000000" fill-rule="evenodd" fill-opacity="1" /><path clip-path="url(#clip420)" d="M1757.25 191.79 Q1753.82 191.79 1751.83 194.475 Q1749.84 197.137 1749.84 201.79 Q1749.84 206.443 1751.81 209.128 Q1753.8 211.79 1757.25 211.79 Q1760.65 211.79 1762.64 209.105 Q1764.63 206.42 1764.63 201.79 Q1764.63 197.184 1762.64 194.498 Q1760.65 191.79 1757.25 191.79 M1757.25 188.179 Q1762.8 188.179 1765.97 191.79 Q1769.14 195.401 1769.14 201.79 Q1769.14 208.156 1765.97 211.79 Q1762.8 215.401 1757.25 215.401 Q1751.67 215.401 1748.5 211.79 Q1745.35 208.156 1745.35 201.79 Q1745.35 195.401 1748.5 191.79 Q1751.67 188.179 1757.25 188.179 Z" fill="#000000" fill-rule="evenodd" fill-opacity="1" /><path clip-path="url(#clip420)" d="M1793.26 192.739 L1793.26 178.711 L1797.52 178.711 L1797.52 214.73 L1793.26 214.73 L1793.26 210.841 Q1791.92 213.156 1789.86 214.29 Q1787.82 215.401 1784.95 215.401 Q1780.25 215.401 1777.29 211.651 Q1774.35 207.901 1774.35 201.79 Q1774.35 195.679 1777.29 191.929 Q1780.25 188.179 1784.95 188.179 Q1787.82 188.179 1789.86 189.313 Q1791.92 190.424 1793.26 192.739 M1778.75 201.79 Q1778.75 206.489 1780.67 209.174 Q1782.62 211.836 1786 211.836 Q1789.38 211.836 1791.32 209.174 Q1793.26 206.489 1793.26 201.79 Q1793.26 197.091 1791.32 194.429 Q1789.38 191.744 1786 191.744 Q1782.62 191.744 1780.67 194.429 Q1778.75 197.091 1778.75 201.79 Z" fill="#000000" fill-rule="evenodd" fill-opacity="1" /><path clip-path="url(#clip420)" d="M1806.3 188.804 L1810.56 188.804 L1810.56 214.73 L1806.3 214.73 L1806.3 188.804 M1806.3 178.711 L1810.56 178.711 L1810.56 184.105 L1806.3 184.105 L1806.3 178.711 Z" fill="#000000" fill-rule="evenodd" fill-opacity="1" /><path clip-path="url(#clip420)" d="M1832.59 178.711 L1832.59 182.253 L1828.52 182.253 Q1826.23 182.253 1825.32 183.179 Q1824.44 184.105 1824.44 186.512 L1824.44 188.804 L1831.46 188.804 L1831.46 192.114 L1824.44 192.114 L1824.44 214.73 L1820.16 214.73 L1820.16 192.114 L1816.09 192.114 L1816.09 188.804 L1820.16 188.804 L1820.16 186.998 Q1820.16 182.67 1822.18 180.702 Q1824.19 178.711 1828.56 178.711 L1832.59 178.711 Z" fill="#000000" fill-rule="evenodd" fill-opacity="1" /><path clip-path="url(#clip420)" d="M1836.16 188.804 L1840.42 188.804 L1840.42 214.73 L1836.16 214.73 L1836.16 188.804 M1836.16 178.711 L1840.42 178.711 L1840.42 184.105 L1836.16 184.105 L1836.16 178.711 Z" fill="#000000" fill-rule="evenodd" fill-opacity="1" /><path clip-path="url(#clip420)" d="M1871.5 200.702 L1871.5 202.785 L1851.92 202.785 Q1852.2 207.183 1854.56 209.498 Q1856.94 211.79 1861.18 211.79 Q1863.63 211.79 1865.93 211.188 Q1868.24 210.586 1870.51 209.383 L1870.51 213.41 Q1868.22 214.382 1865.81 214.892 Q1863.4 215.401 1860.93 215.401 Q1854.72 215.401 1851.09 211.79 Q1847.48 208.179 1847.48 202.021 Q1847.48 195.656 1850.9 191.929 Q1854.35 188.179 1860.19 188.179 Q1865.42 188.179 1868.45 191.559 Q1871.5 194.915 1871.5 200.702 M1867.25 199.452 Q1867.2 195.957 1865.28 193.873 Q1863.38 191.79 1860.23 191.79 Q1856.67 191.79 1854.51 193.804 Q1852.38 195.818 1852.06 199.475 L1867.25 199.452 Z" fill="#000000" fill-rule="evenodd" fill-opacity="1" /><path clip-path="url(#clip420)" d="M1895.56 192.739 L1895.56 178.711 L1899.81 178.711 L1899.81 214.73 L1895.56 214.73 L1895.56 210.841 Q1894.21 213.156 1892.15 214.29 Q1890.12 215.401 1887.25 215.401 Q1882.55 215.401 1879.58 211.651 Q1876.64 207.901 1876.64 201.79 Q1876.64 195.679 1879.58 191.929 Q1882.55 188.179 1887.25 188.179 Q1890.12 188.179 1892.15 189.313 Q1894.21 190.424 1895.56 192.739 M1881.04 201.79 Q1881.04 206.489 1882.96 209.174 Q1884.91 211.836 1888.29 211.836 Q1891.67 211.836 1893.61 209.174 Q1895.56 206.489 1895.56 201.79 Q1895.56 197.091 1893.61 194.429 Q1891.67 191.744 1888.29 191.744 Q1884.91 191.744 1882.96 194.429 Q1881.04 197.091 1881.04 201.79 Z" fill="#000000" fill-rule="evenodd" fill-opacity="1" /><path clip-path="url(#clip420)" d="M1937.87 183.341 Q1932.78 183.341 1929.77 187.137 Q1926.78 190.934 1926.78 197.484 Q1926.78 204.012 1929.77 207.808 Q1932.78 211.605 1937.87 211.605 Q1942.96 211.605 1945.93 207.808 Q1948.91 204.012 1948.91 197.484 Q1948.91 190.934 1945.93 187.137 Q1942.96 183.341 1937.87 183.341 M1937.87 179.545 Q1945.14 179.545 1949.49 184.429 Q1953.84 189.29 1953.84 197.484 Q1953.84 205.656 1949.49 210.54 Q1945.14 215.401 1937.87 215.401 Q1930.58 215.401 1926.2 210.54 Q1921.85 205.679 1921.85 197.484 Q1921.85 189.29 1926.2 184.429 Q1930.58 179.545 1937.87 179.545 Z" fill="#000000" fill-rule="evenodd" fill-opacity="1" /><path clip-path="url(#clip420)" d="M1965.83 184.012 L1965.83 210.887 L1971.48 210.887 Q1978.63 210.887 1981.94 207.646 Q1985.28 204.406 1985.28 197.415 Q1985.28 190.471 1981.94 187.253 Q1978.63 184.012 1971.48 184.012 L1965.83 184.012 M1961.16 180.17 L1970.76 180.17 Q1980.81 180.17 1985.51 184.359 Q1990.21 188.526 1990.21 197.415 Q1990.21 206.35 1985.49 210.54 Q1980.76 214.73 1970.76 214.73 L1961.16 214.73 L1961.16 180.17 Z" fill="#000000" fill-rule="evenodd" fill-opacity="1" /><path clip-path="url(#clip420)" d="M1997.66 180.17 L2019.51 180.17 L2019.51 184.105 L2002.34 184.105 L2002.34 194.336 L2018.8 194.336 L2018.8 198.271 L2002.34 198.271 L2002.34 210.795 L2019.93 210.795 L2019.93 214.73 L1997.66 214.73 L1997.66 180.17 Z" fill="#000000" fill-rule="evenodd" fill-opacity="1" /><path clip-path="url(#clip420)" d="M2028.52 208.85 L2033.4 208.85 L2033.4 212.832 L2029.61 220.239 L2026.62 220.239 L2028.52 212.832 L2028.52 208.85 Z" fill="#000000" fill-rule="evenodd" fill-opacity="1" /><path clip-path="url(#clip420)" d="M2067.61 191.79 Q2064.19 191.79 2062.2 194.475 Q2060.21 197.137 2060.21 201.79 Q2060.21 206.443 2062.17 209.128 Q2064.17 211.79 2067.61 211.79 Q2071.02 211.79 2073.01 209.105 Q2075 206.42 2075 201.79 Q2075 197.184 2073.01 194.498 Q2071.02 191.79 2067.61 191.79 M2067.61 188.179 Q2073.17 188.179 2076.34 191.79 Q2079.51 195.401 2079.51 201.79 Q2079.51 208.156 2076.34 211.79 Q2073.17 215.401 2067.61 215.401 Q2062.04 215.401 2058.86 211.79 Q2055.72 208.156 2055.72 201.79 Q2055.72 195.401 2058.86 191.79 Q2062.04 188.179 2067.61 188.179 Z" fill="#000000" fill-rule="evenodd" fill-opacity="1" /><path clip-path="url(#clip420)" d="M2101.6 192.785 Q2100.88 192.369 2100.02 192.184 Q2099.19 191.975 2098.17 191.975 Q2094.56 191.975 2092.61 194.336 Q2090.69 196.674 2090.69 201.072 L2090.69 214.73 L2086.41 214.73 L2086.41 188.804 L2090.69 188.804 L2090.69 192.832 Q2092.04 190.471 2094.19 189.336 Q2096.34 188.179 2099.42 188.179 Q2099.86 188.179 2100.39 188.248 Q2100.92 188.295 2101.57 188.41 L2101.6 192.785 Z" fill="#000000" fill-rule="evenodd" fill-opacity="1" /><path clip-path="url(#clip420)" d="M2122.29 192.739 L2122.29 178.711 L2126.55 178.711 L2126.55 214.73 L2122.29 214.73 L2122.29 210.841 Q2120.95 213.156 2118.89 214.29 Q2116.85 215.401 2113.98 215.401 Q2109.28 215.401 2106.32 211.651 Q2103.38 207.901 2103.38 201.79 Q2103.38 195.679 2106.32 191.929 Q2109.28 188.179 2113.98 188.179 Q2116.85 188.179 2118.89 189.313 Q2120.95 190.424 2122.29 192.739 M2107.78 201.79 Q2107.78 206.489 2109.7 209.174 Q2111.64 211.836 2115.02 211.836 Q2118.4 211.836 2120.35 209.174 Q2122.29 206.489 2122.29 201.79 Q2122.29 197.091 2120.35 194.429 Q2118.4 191.744 2115.02 191.744 Q2111.64 191.744 2109.7 194.429 Q2107.78 197.091 2107.78 201.79 Z" fill="#000000" fill-rule="evenodd" fill-opacity="1" /><path clip-path="url(#clip420)" d="M2157.5 200.702 L2157.5 202.785 L2137.92 202.785 Q2138.19 207.183 2140.55 209.498 Q2142.94 211.79 2147.17 211.79 Q2149.63 211.79 2151.92 211.188 Q2154.23 210.586 2156.5 209.383 L2156.5 213.41 Q2154.21 214.382 2151.8 214.892 Q2149.4 215.401 2146.92 215.401 Q2140.72 215.401 2137.08 211.79 Q2133.47 208.179 2133.47 202.021 Q2133.47 195.656 2136.9 191.929 Q2140.35 188.179 2146.18 188.179 Q2151.41 188.179 2154.44 191.559 Q2157.5 194.915 2157.5 200.702 M2153.24 199.452 Q2153.19 195.957 2151.27 193.873 Q2149.37 191.79 2146.23 191.79 Q2142.66 191.79 2140.51 193.804 Q2138.38 195.818 2138.05 199.475 L2153.24 199.452 Z" fill="#000000" fill-rule="evenodd" fill-opacity="1" /><path clip-path="url(#clip420)" d="M2179.51 192.785 Q2178.79 192.369 2177.94 192.184 Q2177.1 191.975 2176.09 191.975 Q2172.48 191.975 2170.53 194.336 Q2168.61 196.674 2168.61 201.072 L2168.61 214.73 L2164.33 214.73 L2164.33 188.804 L2168.61 188.804 L2168.61 192.832 Q2169.95 190.471 2172.1 189.336 Q2174.26 188.179 2177.34 188.179 Q2177.78 188.179 2178.31 188.248 Q2178.84 188.295 2179.49 188.41 L2179.51 192.785 Z" fill="#000000" fill-rule="evenodd" fill-opacity="1" /><path clip-path="url(#clip420)" d="M2200.46 210.795 L2208.1 210.795 L2208.1 184.429 L2199.79 186.096 L2199.79 181.836 L2208.05 180.17 L2212.73 180.17 L2212.73 210.795 L2220.37 210.795 L2220.37 214.73 L2200.46 214.73 L2200.46 210.795 Z" fill="#000000" fill-rule="evenodd" fill-opacity="1" /></svg>
