<?xml version="1.0" encoding="utf-8"?>
<svg xmlns="http://www.w3.org/2000/svg" xmlns:xlink="http://www.w3.org/1999/xlink" width="600" height="400" viewBox="0 0 2400 1600">
<defs>
  <clipPath id="clip290">
    <rect x="0" y="0" width="2400" height="1600"/>
  </clipPath>
</defs>
<path clip-path="url(#clip290)" d="M0 1600 L2400 1600 L2400 0 L0 0  Z" fill="#ffffff" fill-rule="evenodd" fill-opacity="1"/>
<defs>
  <clipPath id="clip291">
    <rect x="480" y="0" width="1681" height="1600"/>
  </clipPath>
</defs>
<defs>
  <clipPath id="clip292">
    <rect x="175" y="47" width="2178" height="1377"/>
  </clipPath>
</defs>
<path clip-path="url(#clip290)" d="M175.445 1423.18 L2352.76 1423.18 L2352.76 47.2441 L175.445 47.2441  Z" fill="#ffffff" fill-rule="evenodd" fill-opacity="1"/>
<polyline clip-path="url(#clip292)" style="stroke:#000000; stroke-linecap:round; stroke-linejoin:round; stroke-width:2; stroke-opacity:0.1; fill:none" points="349.502,1423.18 349.502,47.2441 "/>
<polyline clip-path="url(#clip292)" style="stroke:#000000; stroke-linecap:round; stroke-linejoin:round; stroke-width:2; stroke-opacity:0.1; fill:none" points="683.446,1423.18 683.446,47.2441 "/>
<polyline clip-path="url(#clip292)" style="stroke:#000000; stroke-linecap:round; stroke-linejoin:round; stroke-width:2; stroke-opacity:0.1; fill:none" points="1017.39,1423.18 1017.39,47.2441 "/>
<polyline clip-path="url(#clip292)" style="stroke:#000000; stroke-linecap:round; stroke-linejoin:round; stroke-width:2; stroke-opacity:0.1; fill:none" points="1351.33,1423.18 1351.33,47.2441 "/>
<polyline clip-path="url(#clip292)" style="stroke:#000000; stroke-linecap:round; stroke-linejoin:round; stroke-width:2; stroke-opacity:0.1; fill:none" points="1685.28,1423.18 1685.28,47.2441 "/>
<polyline clip-path="url(#clip292)" style="stroke:#000000; stroke-linecap:round; stroke-linejoin:round; stroke-width:2; stroke-opacity:0.1; fill:none" points="2019.22,1423.18 2019.22,47.2441 "/>
<polyline clip-path="url(#clip290)" style="stroke:#000000; stroke-linecap:round; stroke-linejoin:round; stroke-width:4; stroke-opacity:1; fill:none" points="175.445,1423.18 2352.76,1423.18 "/>
<polyline clip-path="url(#clip290)" style="stroke:#000000; stroke-linecap:round; stroke-linejoin:round; stroke-width:4; stroke-opacity:1; fill:none" points="349.502,1423.18 349.502,1404.28 "/>
<polyline clip-path="url(#clip290)" style="stroke:#000000; stroke-linecap:round; stroke-linejoin:round; stroke-width:4; stroke-opacity:1; fill:none" points="683.446,1423.18 683.446,1404.28 "/>
<polyline clip-path="url(#clip290)" style="stroke:#000000; stroke-linecap:round; stroke-linejoin:round; stroke-width:4; stroke-opacity:1; fill:none" points="1017.39,1423.18 1017.39,1404.28 "/>
<polyline clip-path="url(#clip290)" style="stroke:#000000; stroke-linecap:round; stroke-linejoin:round; stroke-width:4; stroke-opacity:1; fill:none" points="1351.33,1423.18 1351.33,1404.28 "/>
<polyline clip-path="url(#clip290)" style="stroke:#000000; stroke-linecap:round; stroke-linejoin:round; stroke-width:4; stroke-opacity:1; fill:none" points="1685.28,1423.18 1685.28,1404.28 "/>
<polyline clip-path="url(#clip290)" style="stroke:#000000; stroke-linecap:round; stroke-linejoin:round; stroke-width:4; stroke-opacity:1; fill:none" points="2019.22,1423.18 2019.22,1404.28 "/>
<path clip-path="url(#clip290)" d="M339.884 1481.64 L347.522 1481.64 L347.522 1455.28 L339.212 1456.95 L339.212 1452.69 L347.476 1451.02 L352.152 1451.02 L352.152 1481.64 L359.791 1481.64 L359.791 1485.58 L339.884 1485.58 L339.884 1481.64 Z" fill="#000000" fill-rule="nonzero" fill-opacity="1" /><path clip-path="url(#clip290)" d="M678.099 1481.64 L694.418 1481.64 L694.418 1485.58 L672.474 1485.58 L672.474 1481.64 Q675.136 1478.89 679.719 1474.26 Q684.326 1469.61 685.506 1468.27 Q687.752 1465.74 688.631 1464.01 Q689.534 1462.25 689.534 1460.56 Q689.534 1457.8 687.59 1456.07 Q685.668 1454.33 682.566 1454.33 Q680.367 1454.33 677.914 1455.09 Q675.483 1455.86 672.705 1457.41 L672.705 1452.69 Q675.529 1451.55 677.983 1450.97 Q680.437 1450.39 682.474 1450.39 Q687.844 1450.39 691.039 1453.08 Q694.233 1455.77 694.233 1460.26 Q694.233 1462.39 693.423 1464.31 Q692.636 1466.2 690.529 1468.8 Q689.951 1469.47 686.849 1472.69 Q683.747 1475.88 678.099 1481.64 Z" fill="#000000" fill-rule="nonzero" fill-opacity="1" /><path clip-path="url(#clip290)" d="M1021.64 1466.95 Q1024.99 1467.66 1026.87 1469.93 Q1028.77 1472.2 1028.77 1475.53 Q1028.77 1480.65 1025.25 1483.45 Q1021.73 1486.25 1015.25 1486.25 Q1013.07 1486.25 1010.76 1485.81 Q1008.47 1485.39 1006.01 1484.54 L1006.01 1480.02 Q1007.96 1481.16 1010.27 1481.74 Q1012.59 1482.32 1015.11 1482.32 Q1019.51 1482.32 1021.8 1480.58 Q1024.11 1478.84 1024.11 1475.53 Q1024.11 1472.48 1021.96 1470.77 Q1019.83 1469.03 1016.01 1469.03 L1011.99 1469.03 L1011.99 1465.19 L1016.2 1465.19 Q1019.65 1465.19 1021.48 1463.82 Q1023.3 1462.43 1023.3 1459.84 Q1023.3 1457.18 1021.41 1455.77 Q1019.53 1454.33 1016.01 1454.33 Q1014.09 1454.33 1011.89 1454.75 Q1009.69 1455.16 1007.05 1456.04 L1007.05 1451.88 Q1009.72 1451.14 1012.03 1450.77 Q1014.37 1450.39 1016.43 1450.39 Q1021.75 1450.39 1024.86 1452.83 Q1027.96 1455.23 1027.96 1459.35 Q1027.96 1462.22 1026.31 1464.21 Q1024.67 1466.18 1021.64 1466.95 Z" fill="#000000" fill-rule="nonzero" fill-opacity="1" /><path clip-path="url(#clip290)" d="M1354.34 1455.09 L1342.54 1473.54 L1354.34 1473.54 L1354.34 1455.09 M1353.12 1451.02 L1359 1451.02 L1359 1473.54 L1363.93 1473.54 L1363.93 1477.43 L1359 1477.43 L1359 1485.58 L1354.34 1485.58 L1354.34 1477.43 L1338.74 1477.43 L1338.74 1472.92 L1353.12 1451.02 Z" fill="#000000" fill-rule="nonzero" fill-opacity="1" /><path clip-path="url(#clip290)" d="M1675.56 1451.02 L1693.91 1451.02 L1693.91 1454.96 L1679.84 1454.96 L1679.84 1463.43 Q1680.86 1463.08 1681.88 1462.92 Q1682.9 1462.73 1683.91 1462.73 Q1689.7 1462.73 1693.08 1465.9 Q1696.46 1469.08 1696.46 1474.49 Q1696.46 1480.07 1692.99 1483.17 Q1689.52 1486.25 1683.2 1486.25 Q1681.02 1486.25 1678.75 1485.88 Q1676.51 1485.51 1674.1 1484.77 L1674.1 1480.07 Q1676.18 1481.2 1678.4 1481.76 Q1680.63 1482.32 1683.1 1482.32 Q1687.11 1482.32 1689.45 1480.21 Q1691.78 1478.1 1691.78 1474.49 Q1691.78 1470.88 1689.45 1468.77 Q1687.11 1466.67 1683.1 1466.67 Q1681.23 1466.67 1679.35 1467.08 Q1677.5 1467.5 1675.56 1468.38 L1675.56 1451.02 Z" fill="#000000" fill-rule="nonzero" fill-opacity="1" /><path clip-path="url(#clip290)" d="M2019.63 1466.44 Q2016.48 1466.44 2014.63 1468.59 Q2012.8 1470.74 2012.8 1474.49 Q2012.8 1478.22 2014.63 1480.39 Q2016.48 1482.55 2019.63 1482.55 Q2022.78 1482.55 2024.61 1480.39 Q2026.46 1478.22 2026.46 1474.49 Q2026.46 1470.74 2024.61 1468.59 Q2022.78 1466.44 2019.63 1466.44 M2028.91 1451.78 L2028.91 1456.04 Q2027.15 1455.21 2025.35 1454.77 Q2023.56 1454.33 2021.8 1454.33 Q2017.18 1454.33 2014.72 1457.45 Q2012.29 1460.58 2011.94 1466.9 Q2013.31 1464.89 2015.37 1463.82 Q2017.43 1462.73 2019.91 1462.73 Q2025.12 1462.73 2028.12 1465.9 Q2031.16 1469.05 2031.16 1474.49 Q2031.16 1479.82 2028.01 1483.03 Q2024.86 1486.25 2019.63 1486.25 Q2013.63 1486.25 2010.46 1481.67 Q2007.29 1477.06 2007.29 1468.33 Q2007.29 1460.14 2011.18 1455.28 Q2015.07 1450.39 2021.62 1450.39 Q2023.38 1450.39 2025.16 1450.74 Q2026.97 1451.09 2028.91 1451.78 Z" fill="#000000" fill-rule="nonzero" fill-opacity="1" /><path clip-path="url(#clip290)" d="M1276.72 1519.2 L1267.61 1555.89 Q1267.35 1557.05 1267.35 1557.34 Q1267.35 1557.72 1267.45 1557.88 Q1267.57 1558.08 1268.28 1558.24 Q1269.02 1558.4 1270.5 1558.4 Q1271.05 1558.4 1271.25 1558.4 Q1271.44 1558.4 1271.73 1558.46 Q1272.02 1558.53 1272.12 1558.69 Q1272.21 1558.85 1272.21 1559.11 Q1272.21 1560.43 1271.05 1560.43 Q1269.96 1560.43 1267.67 1560.33 Q1265.38 1560.23 1264.26 1560.23 Q1263.16 1560.23 1260.94 1560.33 Q1258.72 1560.43 1257.65 1560.43 Q1257.27 1560.43 1257.04 1560.23 Q1256.82 1560.07 1256.82 1559.88 L1256.79 1559.72 Q1256.79 1558.82 1257.14 1558.59 Q1257.49 1558.4 1258.3 1558.4 Q1261.07 1558.37 1261.87 1557.98 Q1262.68 1557.59 1263.07 1556.21 L1266.03 1544.42 Q1262.07 1548.38 1258.23 1548.38 Q1254.53 1548.38 1252.02 1545.48 Q1249.54 1542.55 1249.54 1537.82 Q1249.54 1534.31 1250.92 1530.77 Q1252.34 1527.22 1254.53 1524.55 Q1256.75 1521.88 1259.65 1520.2 Q1262.55 1518.49 1265.42 1518.49 Q1267.25 1518.49 1268.89 1519.56 Q1270.57 1520.62 1271.57 1523.1 Q1272.41 1521.68 1273.95 1520.14 Q1275.5 1518.56 1276.04 1518.56 Q1276.37 1518.56 1276.53 1518.78 Q1276.72 1518.98 1276.72 1519.2 M1270.63 1525.74 Q1270.63 1525.42 1270.38 1524.61 Q1270.15 1523.81 1269.64 1522.71 Q1269.15 1521.59 1268.03 1520.78 Q1266.9 1519.94 1265.42 1519.94 Q1263.29 1519.94 1261 1522.01 Q1258.75 1524.03 1257.27 1527.58 Q1256.33 1529.9 1255.27 1534.21 Q1254.21 1538.53 1254.21 1540.72 Q1254.21 1541.23 1254.24 1541.81 Q1254.31 1542.39 1254.56 1543.36 Q1254.82 1544.32 1255.21 1545.06 Q1255.63 1545.81 1256.46 1546.35 Q1257.3 1546.9 1258.43 1546.9 Q1260.88 1546.9 1263.32 1544.81 Q1265.77 1542.71 1266.8 1540.85 Q1266.93 1540.65 1268.77 1533.34 Q1270.63 1526.03 1270.63 1525.74 Z" fill="#000000" fill-rule="nonzero" fill-opacity="1" /><polyline clip-path="url(#clip292)" style="stroke:#000000; stroke-linecap:round; stroke-linejoin:round; stroke-width:2; stroke-opacity:0.1; fill:none" points="175.445,1101.02 2352.76,1101.02 "/>
<polyline clip-path="url(#clip292)" style="stroke:#000000; stroke-linecap:round; stroke-linejoin:round; stroke-width:2; stroke-opacity:0.1; fill:none" points="175.445,766.953 2352.76,766.953 "/>
<polyline clip-path="url(#clip292)" style="stroke:#000000; stroke-linecap:round; stroke-linejoin:round; stroke-width:2; stroke-opacity:0.1; fill:none" points="175.445,432.883 2352.76,432.883 "/>
<polyline clip-path="url(#clip292)" style="stroke:#000000; stroke-linecap:round; stroke-linejoin:round; stroke-width:2; stroke-opacity:0.1; fill:none" points="175.445,98.8136 2352.76,98.8136 "/>
<polyline clip-path="url(#clip290)" style="stroke:#000000; stroke-linecap:round; stroke-linejoin:round; stroke-width:4; stroke-opacity:1; fill:none" points="175.445,1423.18 175.445,47.2441 "/>
<polyline clip-path="url(#clip290)" style="stroke:#000000; stroke-linecap:round; stroke-linejoin:round; stroke-width:4; stroke-opacity:1; fill:none" points="175.445,1101.02 194.343,1101.02 "/>
<polyline clip-path="url(#clip290)" style="stroke:#000000; stroke-linecap:round; stroke-linejoin:round; stroke-width:4; stroke-opacity:1; fill:none" points="175.445,766.953 194.343,766.953 "/>
<polyline clip-path="url(#clip290)" style="stroke:#000000; stroke-linecap:round; stroke-linejoin:round; stroke-width:4; stroke-opacity:1; fill:none" points="175.445,432.883 194.343,432.883 "/>
<polyline clip-path="url(#clip290)" style="stroke:#000000; stroke-linecap:round; stroke-linejoin:round; stroke-width:4; stroke-opacity:1; fill:none" points="175.445,98.8136 194.343,98.8136 "/>
<path clip-path="url(#clip290)" d="M119.538 1114.37 L127.177 1114.37 L127.177 1088 L118.867 1089.67 L118.867 1085.41 L127.13 1083.74 L131.806 1083.74 L131.806 1114.37 L139.445 1114.37 L139.445 1118.3 L119.538 1118.3 L119.538 1114.37 Z" fill="#000000" fill-rule="nonzero" fill-opacity="1" /><path clip-path="url(#clip290)" d="M123.126 780.298 L139.445 780.298 L139.445 784.233 L117.501 784.233 L117.501 780.298 Q120.163 777.543 124.746 772.914 Q129.353 768.261 130.533 766.919 Q132.779 764.395 133.658 762.659 Q134.561 760.9 134.561 759.21 Q134.561 756.456 132.617 754.719 Q130.695 752.983 127.593 752.983 Q125.394 752.983 122.941 753.747 Q120.51 754.511 117.732 756.062 L117.732 751.34 Q120.556 750.206 123.01 749.627 Q125.464 749.048 127.501 749.048 Q132.871 749.048 136.066 751.733 Q139.26 754.419 139.26 758.909 Q139.26 761.039 138.45 762.96 Q137.663 764.858 135.556 767.451 Q134.978 768.122 131.876 771.34 Q128.774 774.534 123.126 780.298 Z" fill="#000000" fill-rule="nonzero" fill-opacity="1" /><path clip-path="url(#clip290)" d="M132.316 431.529 Q135.672 432.247 137.547 434.515 Q139.445 436.784 139.445 440.117 Q139.445 445.233 135.927 448.034 Q132.408 450.835 125.927 450.835 Q123.751 450.835 121.436 450.395 Q119.144 449.978 116.691 449.122 L116.691 444.608 Q118.635 445.742 120.95 446.321 Q123.265 446.9 125.788 446.9 Q130.186 446.9 132.478 445.163 Q134.792 443.427 134.792 440.117 Q134.792 437.062 132.64 435.349 Q130.51 433.613 126.691 433.613 L122.663 433.613 L122.663 429.77 L126.876 429.77 Q130.325 429.77 132.154 428.404 Q133.982 427.015 133.982 424.423 Q133.982 421.761 132.084 420.349 Q130.209 418.914 126.691 418.914 Q124.769 418.914 122.57 419.33 Q120.371 419.747 117.732 420.627 L117.732 416.46 Q120.394 415.719 122.709 415.349 Q125.047 414.978 127.107 414.978 Q132.431 414.978 135.533 417.409 Q138.635 419.816 138.635 423.937 Q138.635 426.807 136.992 428.798 Q135.348 430.765 132.316 431.529 Z" fill="#000000" fill-rule="nonzero" fill-opacity="1" /><path clip-path="url(#clip290)" d="M129.862 85.6077 L118.056 104.057 L129.862 104.057 L129.862 85.6077 M128.635 81.5336 L134.515 81.5336 L134.515 104.057 L139.445 104.057 L139.445 107.946 L134.515 107.946 L134.515 116.094 L129.862 116.094 L129.862 107.946 L114.26 107.946 L114.26 103.432 L128.635 81.5336 Z" fill="#000000" fill-rule="nonzero" fill-opacity="1" /><path clip-path="url(#clip290)" d="M39.2425 717.179 Q43.9446 717.179 48.4856 719.563 Q53.0267 721.914 55.8286 725.617 Q58.5983 729.321 58.5983 733.089 Q58.5983 735.344 57.3744 736.857 Q56.1184 738.339 54.3471 739.144 Q56.5371 739.756 61.7866 741.076 Q67.0362 742.397 67.5515 742.397 Q67.8413 742.397 67.9702 742.332 Q68.099 742.268 68.26 741.978 Q68.4533 741.688 68.5177 740.98 Q68.6143 740.271 68.6143 739.079 Q68.6143 738.467 68.6143 738.242 Q68.6465 737.984 68.8075 737.759 Q68.9686 737.501 69.3228 737.501 Q70.6433 737.501 70.6433 738.693 Q70.6433 739.756 70.5466 741.946 Q70.45 744.136 70.45 745.231 Q70.45 746.165 70.5466 748.033 Q70.6433 749.901 70.6433 750.77 Q70.6433 751.64 69.8703 751.64 Q69.4194 751.64 69.1296 751.511 Q68.8719 751.414 68.7431 751.157 Q68.6465 750.899 68.6143 750.674 Q68.6143 750.48 68.6143 750.094 Q68.6143 748.612 68.3566 747.968 Q68.1312 747.324 67.6481 747.099 Q67.1972 746.841 65.909 746.551 L36.5373 739.144 Q34.5727 738.693 33.1878 738.693 Q31.4487 738.693 30.8046 739.24 Q30.1605 739.788 30.1605 740.754 Q30.1605 742.429 32.1573 743.524 Q34.154 744.619 38.0187 745.553 Q39.0815 745.843 39.307 746.036 Q39.5324 746.197 39.5324 746.68 Q39.5002 747.485 38.8561 747.485 Q38.695 747.485 37.6645 747.227 Q36.6017 746.97 35.0558 746.487 Q33.4777 745.971 32.4793 745.424 Q31.803 745.102 31.3521 744.812 Q30.9012 744.522 30.1927 743.942 Q29.4842 743.331 29.0977 742.461 Q28.7112 741.591 28.7112 740.529 Q28.7112 738.467 29.9351 736.761 Q31.1589 735.054 33.6387 734.603 Q31.4809 732.767 30.0961 730.513 Q28.7112 728.258 28.7112 725.972 Q28.7112 722.171 31.6742 719.691 Q34.6049 717.179 39.2425 717.179 M36.344 721.946 Q33.4133 721.946 31.803 723.073 Q30.1605 724.168 30.1605 726.165 Q30.1605 728.645 32.6725 731.511 Q35.0558 734.345 37.278 734.925 L50.1925 738.178 L51.2553 738.371 Q51.4486 738.371 52.0283 738.274 Q52.5758 738.145 53.4775 737.791 Q54.3793 737.405 55.1844 736.889 Q55.9574 736.342 56.5371 735.376 Q57.1168 734.377 57.1168 733.154 Q57.1168 731.189 55.3777 729.063 Q53.6386 726.906 50.3536 725.295 Q48.228 724.297 43.6547 723.138 Q39.0493 721.946 36.344 721.946 Z" fill="#000000" fill-rule="nonzero" fill-opacity="1" /><circle clip-path="url(#clip292)" cx="766.932" cy="933.988" r="14.4" fill="#009af9" fill-rule="evenodd" fill-opacity="1" stroke="#000000" stroke-opacity="1" stroke-width="3.2"/>
<circle clip-path="url(#clip292)" cx="804.501" cy="946.516" r="14.4" fill="#009af9" fill-rule="evenodd" fill-opacity="1" stroke="#000000" stroke-opacity="1" stroke-width="3.2"/>
<circle clip-path="url(#clip292)" cx="840.99" cy="964.227" r="14.4" fill="#009af9" fill-rule="evenodd" fill-opacity="1" stroke="#000000" stroke-opacity="1" stroke-width="3.2"/>
<circle clip-path="url(#clip292)" cx="874.79" cy="986.441" r="14.4" fill="#009af9" fill-rule="evenodd" fill-opacity="1" stroke="#000000" stroke-opacity="1" stroke-width="3.2"/>
<circle clip-path="url(#clip292)" cx="904.261" cy="1012.15" r="14.4" fill="#009af9" fill-rule="evenodd" fill-opacity="1" stroke="#000000" stroke-opacity="1" stroke-width="3.2"/>
<circle clip-path="url(#clip292)" cx="927.903" cy="1040.11" r="14.4" fill="#009af9" fill-rule="evenodd" fill-opacity="1" stroke="#000000" stroke-opacity="1" stroke-width="3.2"/>
<circle clip-path="url(#clip292)" cx="944.538" cy="1069.03" r="14.4" fill="#009af9" fill-rule="evenodd" fill-opacity="1" stroke="#000000" stroke-opacity="1" stroke-width="3.2"/>
<circle clip-path="url(#clip292)" cx="953.435" cy="1097.65" r="14.4" fill="#009af9" fill-rule="evenodd" fill-opacity="1" stroke="#000000" stroke-opacity="1" stroke-width="3.2"/>
<circle clip-path="url(#clip292)" cx="954.383" cy="1124.93" r="14.4" fill="#009af9" fill-rule="evenodd" fill-opacity="1" stroke="#000000" stroke-opacity="1" stroke-width="3.2"/>
<circle clip-path="url(#clip292)" cx="947.664" cy="1150.09" r="14.4" fill="#009af9" fill-rule="evenodd" fill-opacity="1" stroke="#000000" stroke-opacity="1" stroke-width="3.2"/>
<circle clip-path="url(#clip292)" cx="933.972" cy="1172.64" r="14.4" fill="#009af9" fill-rule="evenodd" fill-opacity="1" stroke="#000000" stroke-opacity="1" stroke-width="3.2"/>
<circle clip-path="url(#clip292)" cx="914.283" cy="1192.33" r="14.4" fill="#009af9" fill-rule="evenodd" fill-opacity="1" stroke="#000000" stroke-opacity="1" stroke-width="3.2"/>
<circle clip-path="url(#clip292)" cx="889.718" cy="1209.11" r="14.4" fill="#009af9" fill-rule="evenodd" fill-opacity="1" stroke="#000000" stroke-opacity="1" stroke-width="3.2"/>
<circle clip-path="url(#clip292)" cx="861.435" cy="1223.07" r="14.4" fill="#009af9" fill-rule="evenodd" fill-opacity="1" stroke="#000000" stroke-opacity="1" stroke-width="3.2"/>
<circle clip-path="url(#clip292)" cx="830.531" cy="1234.37" r="14.4" fill="#009af9" fill-rule="evenodd" fill-opacity="1" stroke="#000000" stroke-opacity="1" stroke-width="3.2"/>
<circle clip-path="url(#clip292)" cx="798" cy="1243.21" r="14.4" fill="#009af9" fill-rule="evenodd" fill-opacity="1" stroke="#000000" stroke-opacity="1" stroke-width="3.2"/>
<circle clip-path="url(#clip292)" cx="764.697" cy="1249.79" r="14.4" fill="#009af9" fill-rule="evenodd" fill-opacity="1" stroke="#000000" stroke-opacity="1" stroke-width="3.2"/>
<circle clip-path="url(#clip292)" cx="731.336" cy="1254.3" r="14.4" fill="#009af9" fill-rule="evenodd" fill-opacity="1" stroke="#000000" stroke-opacity="1" stroke-width="3.2"/>
<circle clip-path="url(#clip292)" cx="698.494" cy="1256.9" r="14.4" fill="#009af9" fill-rule="evenodd" fill-opacity="1" stroke="#000000" stroke-opacity="1" stroke-width="3.2"/>
<circle clip-path="url(#clip292)" cx="666.629" cy="1257.7" r="14.4" fill="#009af9" fill-rule="evenodd" fill-opacity="1" stroke="#000000" stroke-opacity="1" stroke-width="3.2"/>
<circle clip-path="url(#clip292)" cx="636.094" cy="1256.81" r="14.4" fill="#009af9" fill-rule="evenodd" fill-opacity="1" stroke="#000000" stroke-opacity="1" stroke-width="3.2"/>
<circle clip-path="url(#clip292)" cx="607.158" cy="1254.28" r="14.4" fill="#009af9" fill-rule="evenodd" fill-opacity="1" stroke="#000000" stroke-opacity="1" stroke-width="3.2"/>
<circle clip-path="url(#clip292)" cx="580.018" cy="1250.15" r="14.4" fill="#009af9" fill-rule="evenodd" fill-opacity="1" stroke="#000000" stroke-opacity="1" stroke-width="3.2"/>
<circle clip-path="url(#clip292)" cx="554.821" cy="1244.42" r="14.4" fill="#009af9" fill-rule="evenodd" fill-opacity="1" stroke="#000000" stroke-opacity="1" stroke-width="3.2"/>
<circle clip-path="url(#clip292)" cx="531.674" cy="1237.07" r="14.4" fill="#009af9" fill-rule="evenodd" fill-opacity="1" stroke="#000000" stroke-opacity="1" stroke-width="3.2"/>
<circle clip-path="url(#clip292)" cx="510.655" cy="1228.08" r="14.4" fill="#009af9" fill-rule="evenodd" fill-opacity="1" stroke="#000000" stroke-opacity="1" stroke-width="3.2"/>
<circle clip-path="url(#clip292)" cx="491.825" cy="1217.36" r="14.4" fill="#009af9" fill-rule="evenodd" fill-opacity="1" stroke="#000000" stroke-opacity="1" stroke-width="3.2"/>
<circle clip-path="url(#clip292)" cx="475.239" cy="1204.87" r="14.4" fill="#009af9" fill-rule="evenodd" fill-opacity="1" stroke="#000000" stroke-opacity="1" stroke-width="3.2"/>
<circle clip-path="url(#clip292)" cx="460.95" cy="1190.52" r="14.4" fill="#009af9" fill-rule="evenodd" fill-opacity="1" stroke="#000000" stroke-opacity="1" stroke-width="3.2"/>
<circle clip-path="url(#clip292)" cx="449.018" cy="1174.22" r="14.4" fill="#009af9" fill-rule="evenodd" fill-opacity="1" stroke="#000000" stroke-opacity="1" stroke-width="3.2"/>
<circle clip-path="url(#clip292)" cx="439.521" cy="1155.91" r="14.4" fill="#009af9" fill-rule="evenodd" fill-opacity="1" stroke="#000000" stroke-opacity="1" stroke-width="3.2"/>
<circle clip-path="url(#clip292)" cx="432.555" cy="1135.51" r="14.4" fill="#009af9" fill-rule="evenodd" fill-opacity="1" stroke="#000000" stroke-opacity="1" stroke-width="3.2"/>
<circle clip-path="url(#clip292)" cx="428.25" cy="1113.01" r="14.4" fill="#009af9" fill-rule="evenodd" fill-opacity="1" stroke="#000000" stroke-opacity="1" stroke-width="3.2"/>
<circle clip-path="url(#clip292)" cx="426.77" cy="1088.39" r="14.4" fill="#009af9" fill-rule="evenodd" fill-opacity="1" stroke="#000000" stroke-opacity="1" stroke-width="3.2"/>
<circle clip-path="url(#clip292)" cx="428.324" cy="1061.75" r="14.4" fill="#009af9" fill-rule="evenodd" fill-opacity="1" stroke="#000000" stroke-opacity="1" stroke-width="3.2"/>
<circle clip-path="url(#clip292)" cx="433.177" cy="1033.22" r="14.4" fill="#009af9" fill-rule="evenodd" fill-opacity="1" stroke="#000000" stroke-opacity="1" stroke-width="3.2"/>
<circle clip-path="url(#clip292)" cx="441.652" cy="1003.11" r="14.4" fill="#009af9" fill-rule="evenodd" fill-opacity="1" stroke="#000000" stroke-opacity="1" stroke-width="3.2"/>
<circle clip-path="url(#clip292)" cx="454.141" cy="971.829" r="14.4" fill="#009af9" fill-rule="evenodd" fill-opacity="1" stroke="#000000" stroke-opacity="1" stroke-width="3.2"/>
<circle clip-path="url(#clip292)" cx="471.103" cy="940.018" r="14.4" fill="#009af9" fill-rule="evenodd" fill-opacity="1" stroke="#000000" stroke-opacity="1" stroke-width="3.2"/>
<circle clip-path="url(#clip292)" cx="493.058" cy="908.538" r="14.4" fill="#009af9" fill-rule="evenodd" fill-opacity="1" stroke="#000000" stroke-opacity="1" stroke-width="3.2"/>
<circle clip-path="url(#clip292)" cx="520.57" cy="878.518" r="14.4" fill="#009af9" fill-rule="evenodd" fill-opacity="1" stroke="#000000" stroke-opacity="1" stroke-width="3.2"/>
<circle clip-path="url(#clip292)" cx="554.206" cy="851.373" r="14.4" fill="#009af9" fill-rule="evenodd" fill-opacity="1" stroke="#000000" stroke-opacity="1" stroke-width="3.2"/>
<circle clip-path="url(#clip292)" cx="594.46" cy="828.782" r="14.4" fill="#009af9" fill-rule="evenodd" fill-opacity="1" stroke="#000000" stroke-opacity="1" stroke-width="3.2"/>
<circle clip-path="url(#clip292)" cx="641.636" cy="812.626" r="14.4" fill="#009af9" fill-rule="evenodd" fill-opacity="1" stroke="#000000" stroke-opacity="1" stroke-width="3.2"/>
<circle clip-path="url(#clip292)" cx="695.684" cy="804.832" r="14.4" fill="#009af9" fill-rule="evenodd" fill-opacity="1" stroke="#000000" stroke-opacity="1" stroke-width="3.2"/>
<circle clip-path="url(#clip292)" cx="755.985" cy="807.142" r="14.4" fill="#009af9" fill-rule="evenodd" fill-opacity="1" stroke="#000000" stroke-opacity="1" stroke-width="3.2"/>
<circle clip-path="url(#clip292)" cx="821.121" cy="820.782" r="14.4" fill="#009af9" fill-rule="evenodd" fill-opacity="1" stroke="#000000" stroke-opacity="1" stroke-width="3.2"/>
<circle clip-path="url(#clip292)" cx="888.697" cy="846.108" r="14.4" fill="#009af9" fill-rule="evenodd" fill-opacity="1" stroke="#000000" stroke-opacity="1" stroke-width="3.2"/>
<circle clip-path="url(#clip292)" cx="955.322" cy="882.309" r="14.4" fill="#009af9" fill-rule="evenodd" fill-opacity="1" stroke="#000000" stroke-opacity="1" stroke-width="3.2"/>
<circle clip-path="url(#clip292)" cx="1016.85" cy="927.313" r="14.4" fill="#009af9" fill-rule="evenodd" fill-opacity="1" stroke="#000000" stroke-opacity="1" stroke-width="3.2"/>
<circle clip-path="url(#clip292)" cx="1068.91" cy="978.009" r="14.4" fill="#009af9" fill-rule="evenodd" fill-opacity="1" stroke="#000000" stroke-opacity="1" stroke-width="3.2"/>
<circle clip-path="url(#clip292)" cx="1107.7" cy="1030.77" r="14.4" fill="#009af9" fill-rule="evenodd" fill-opacity="1" stroke="#000000" stroke-opacity="1" stroke-width="3.2"/>
<circle clip-path="url(#clip292)" cx="1130.67" cy="1082.14" r="14.4" fill="#009af9" fill-rule="evenodd" fill-opacity="1" stroke="#000000" stroke-opacity="1" stroke-width="3.2"/>
<circle clip-path="url(#clip292)" cx="1136.97" cy="1129.4" r="14.4" fill="#009af9" fill-rule="evenodd" fill-opacity="1" stroke="#000000" stroke-opacity="1" stroke-width="3.2"/>
<circle clip-path="url(#clip292)" cx="1127.45" cy="1170.92" r="14.4" fill="#009af9" fill-rule="evenodd" fill-opacity="1" stroke="#000000" stroke-opacity="1" stroke-width="3.2"/>
<circle clip-path="url(#clip292)" cx="1104.18" cy="1206.04" r="14.4" fill="#009af9" fill-rule="evenodd" fill-opacity="1" stroke="#000000" stroke-opacity="1" stroke-width="3.2"/>
<circle clip-path="url(#clip292)" cx="1069.96" cy="1234.9" r="14.4" fill="#009af9" fill-rule="evenodd" fill-opacity="1" stroke="#000000" stroke-opacity="1" stroke-width="3.2"/>
<circle clip-path="url(#clip292)" cx="1027.7" cy="1258.07" r="14.4" fill="#009af9" fill-rule="evenodd" fill-opacity="1" stroke="#000000" stroke-opacity="1" stroke-width="3.2"/>
<circle clip-path="url(#clip292)" cx="980.123" cy="1276.32" r="14.4" fill="#009af9" fill-rule="evenodd" fill-opacity="1" stroke="#000000" stroke-opacity="1" stroke-width="3.2"/>
<circle clip-path="url(#clip292)" cx="929.509" cy="1290.43" r="14.4" fill="#009af9" fill-rule="evenodd" fill-opacity="1" stroke="#000000" stroke-opacity="1" stroke-width="3.2"/>
<circle clip-path="url(#clip292)" cx="877.692" cy="1301.09" r="14.4" fill="#009af9" fill-rule="evenodd" fill-opacity="1" stroke="#000000" stroke-opacity="1" stroke-width="3.2"/>
<circle clip-path="url(#clip292)" cx="826.062" cy="1308.88" r="14.4" fill="#009af9" fill-rule="evenodd" fill-opacity="1" stroke="#000000" stroke-opacity="1" stroke-width="3.2"/>
<circle clip-path="url(#clip292)" cx="775.632" cy="1314.27" r="14.4" fill="#009af9" fill-rule="evenodd" fill-opacity="1" stroke="#000000" stroke-opacity="1" stroke-width="3.2"/>
<circle clip-path="url(#clip292)" cx="727.114" cy="1317.61" r="14.4" fill="#009af9" fill-rule="evenodd" fill-opacity="1" stroke="#000000" stroke-opacity="1" stroke-width="3.2"/>
<circle clip-path="url(#clip292)" cx="680.983" cy="1319.14" r="14.4" fill="#009af9" fill-rule="evenodd" fill-opacity="1" stroke="#000000" stroke-opacity="1" stroke-width="3.2"/>
<circle clip-path="url(#clip292)" cx="637.536" cy="1319.06" r="14.4" fill="#009af9" fill-rule="evenodd" fill-opacity="1" stroke="#000000" stroke-opacity="1" stroke-width="3.2"/>
<circle clip-path="url(#clip292)" cx="596.942" cy="1317.46" r="14.4" fill="#009af9" fill-rule="evenodd" fill-opacity="1" stroke="#000000" stroke-opacity="1" stroke-width="3.2"/>
<circle clip-path="url(#clip292)" cx="559.275" cy="1314.41" r="14.4" fill="#009af9" fill-rule="evenodd" fill-opacity="1" stroke="#000000" stroke-opacity="1" stroke-width="3.2"/>
<circle clip-path="url(#clip292)" cx="524.545" cy="1309.93" r="14.4" fill="#009af9" fill-rule="evenodd" fill-opacity="1" stroke="#000000" stroke-opacity="1" stroke-width="3.2"/>
<circle clip-path="url(#clip292)" cx="492.716" cy="1303.97" r="14.4" fill="#009af9" fill-rule="evenodd" fill-opacity="1" stroke="#000000" stroke-opacity="1" stroke-width="3.2"/>
<circle clip-path="url(#clip292)" cx="463.729" cy="1296.48" r="14.4" fill="#009af9" fill-rule="evenodd" fill-opacity="1" stroke="#000000" stroke-opacity="1" stroke-width="3.2"/>
<circle clip-path="url(#clip292)" cx="437.507" cy="1287.36" r="14.4" fill="#009af9" fill-rule="evenodd" fill-opacity="1" stroke="#000000" stroke-opacity="1" stroke-width="3.2"/>
<circle clip-path="url(#clip292)" cx="413.971" cy="1276.48" r="14.4" fill="#009af9" fill-rule="evenodd" fill-opacity="1" stroke="#000000" stroke-opacity="1" stroke-width="3.2"/>
<circle clip-path="url(#clip292)" cx="393.045" cy="1263.68" r="14.4" fill="#009af9" fill-rule="evenodd" fill-opacity="1" stroke="#000000" stroke-opacity="1" stroke-width="3.2"/>
<circle clip-path="url(#clip292)" cx="374.665" cy="1248.78" r="14.4" fill="#009af9" fill-rule="evenodd" fill-opacity="1" stroke="#000000" stroke-opacity="1" stroke-width="3.2"/>
<circle clip-path="url(#clip292)" cx="358.782" cy="1231.55" r="14.4" fill="#009af9" fill-rule="evenodd" fill-opacity="1" stroke="#000000" stroke-opacity="1" stroke-width="3.2"/>
<circle clip-path="url(#clip292)" cx="345.372" cy="1211.76" r="14.4" fill="#009af9" fill-rule="evenodd" fill-opacity="1" stroke="#000000" stroke-opacity="1" stroke-width="3.2"/>
<circle clip-path="url(#clip292)" cx="334.439" cy="1189.15" r="14.4" fill="#009af9" fill-rule="evenodd" fill-opacity="1" stroke="#000000" stroke-opacity="1" stroke-width="3.2"/>
<circle clip-path="url(#clip292)" cx="326.027" cy="1163.45" r="14.4" fill="#009af9" fill-rule="evenodd" fill-opacity="1" stroke="#000000" stroke-opacity="1" stroke-width="3.2"/>
<circle clip-path="url(#clip292)" cx="320.225" cy="1134.38" r="14.4" fill="#009af9" fill-rule="evenodd" fill-opacity="1" stroke="#000000" stroke-opacity="1" stroke-width="3.2"/>
<circle clip-path="url(#clip292)" cx="317.184" cy="1101.67" r="14.4" fill="#009af9" fill-rule="evenodd" fill-opacity="1" stroke="#000000" stroke-opacity="1" stroke-width="3.2"/>
<circle clip-path="url(#clip292)" cx="317.125" cy="1065.1" r="14.4" fill="#009af9" fill-rule="evenodd" fill-opacity="1" stroke="#000000" stroke-opacity="1" stroke-width="3.2"/>
<circle clip-path="url(#clip292)" cx="320.368" cy="1024.51" r="14.4" fill="#009af9" fill-rule="evenodd" fill-opacity="1" stroke="#000000" stroke-opacity="1" stroke-width="3.2"/>
<circle clip-path="url(#clip292)" cx="327.35" cy="979.871" r="14.4" fill="#009af9" fill-rule="evenodd" fill-opacity="1" stroke="#000000" stroke-opacity="1" stroke-width="3.2"/>
<circle clip-path="url(#clip292)" cx="338.657" cy="931.329" r="14.4" fill="#009af9" fill-rule="evenodd" fill-opacity="1" stroke="#000000" stroke-opacity="1" stroke-width="3.2"/>
<circle clip-path="url(#clip292)" cx="355.069" cy="879.317" r="14.4" fill="#009af9" fill-rule="evenodd" fill-opacity="1" stroke="#000000" stroke-opacity="1" stroke-width="3.2"/>
<circle clip-path="url(#clip292)" cx="377.601" cy="824.666" r="14.4" fill="#009af9" fill-rule="evenodd" fill-opacity="1" stroke="#000000" stroke-opacity="1" stroke-width="3.2"/>
<circle clip-path="url(#clip292)" cx="407.551" cy="768.759" r="14.4" fill="#009af9" fill-rule="evenodd" fill-opacity="1" stroke="#000000" stroke-opacity="1" stroke-width="3.2"/>
<circle clip-path="url(#clip292)" cx="446.538" cy="713.709" r="14.4" fill="#009af9" fill-rule="evenodd" fill-opacity="1" stroke="#000000" stroke-opacity="1" stroke-width="3.2"/>
<circle clip-path="url(#clip292)" cx="496.505" cy="662.532" r="14.4" fill="#009af9" fill-rule="evenodd" fill-opacity="1" stroke="#000000" stroke-opacity="1" stroke-width="3.2"/>
<circle clip-path="url(#clip292)" cx="559.633" cy="619.285" r="14.4" fill="#009af9" fill-rule="evenodd" fill-opacity="1" stroke="#000000" stroke-opacity="1" stroke-width="3.2"/>
<circle clip-path="url(#clip292)" cx="638.09" cy="589.038" r="14.4" fill="#009af9" fill-rule="evenodd" fill-opacity="1" stroke="#000000" stroke-opacity="1" stroke-width="3.2"/>
<circle clip-path="url(#clip292)" cx="733.498" cy="577.547" r="14.4" fill="#009af9" fill-rule="evenodd" fill-opacity="1" stroke="#000000" stroke-opacity="1" stroke-width="3.2"/>
<circle clip-path="url(#clip292)" cx="845.997" cy="590.4" r="14.4" fill="#009af9" fill-rule="evenodd" fill-opacity="1" stroke="#000000" stroke-opacity="1" stroke-width="3.2"/>
<circle clip-path="url(#clip292)" cx="972.929" cy="631.516" r="14.4" fill="#009af9" fill-rule="evenodd" fill-opacity="1" stroke="#000000" stroke-opacity="1" stroke-width="3.2"/>
<circle clip-path="url(#clip292)" cx="1107.48" cy="701.175" r="14.4" fill="#009af9" fill-rule="evenodd" fill-opacity="1" stroke="#000000" stroke-opacity="1" stroke-width="3.2"/>
<circle clip-path="url(#clip292)" cx="1238.17" cy="794.366" r="14.4" fill="#009af9" fill-rule="evenodd" fill-opacity="1" stroke="#000000" stroke-opacity="1" stroke-width="3.2"/>
<circle clip-path="url(#clip292)" cx="1350.4" cy="900.799" r="14.4" fill="#009af9" fill-rule="evenodd" fill-opacity="1" stroke="#000000" stroke-opacity="1" stroke-width="3.2"/>
<circle clip-path="url(#clip292)" cx="1430.4" cy="1007.51" r="14.4" fill="#009af9" fill-rule="evenodd" fill-opacity="1" stroke="#000000" stroke-opacity="1" stroke-width="3.2"/>
<circle clip-path="url(#clip292)" cx="1470.01" cy="1103.15" r="14.4" fill="#009af9" fill-rule="evenodd" fill-opacity="1" stroke="#000000" stroke-opacity="1" stroke-width="3.2"/>
<circle clip-path="url(#clip292)" cx="1469.08" cy="1181.33" r="14.4" fill="#009af9" fill-rule="evenodd" fill-opacity="1" stroke="#000000" stroke-opacity="1" stroke-width="3.2"/>
<circle clip-path="url(#clip292)" cx="1434.14" cy="1241.03" r="14.4" fill="#009af9" fill-rule="evenodd" fill-opacity="1" stroke="#000000" stroke-opacity="1" stroke-width="3.2"/>
<circle clip-path="url(#clip292)" cx="1374.69" cy="1284.66" r="14.4" fill="#009af9" fill-rule="evenodd" fill-opacity="1" stroke="#000000" stroke-opacity="1" stroke-width="3.2"/>
<circle clip-path="url(#clip292)" cx="1299.98" cy="1315.8" r="14.4" fill="#009af9" fill-rule="evenodd" fill-opacity="1" stroke="#000000" stroke-opacity="1" stroke-width="3.2"/>
<circle clip-path="url(#clip292)" cx="1217.4" cy="1337.82" r="14.4" fill="#009af9" fill-rule="evenodd" fill-opacity="1" stroke="#000000" stroke-opacity="1" stroke-width="3.2"/>
<circle clip-path="url(#clip292)" cx="1132.21" cy="1353.37" r="14.4" fill="#009af9" fill-rule="evenodd" fill-opacity="1" stroke="#000000" stroke-opacity="1" stroke-width="3.2"/>
<circle clip-path="url(#clip292)" cx="1047.86" cy="1364.36" r="14.4" fill="#009af9" fill-rule="evenodd" fill-opacity="1" stroke="#000000" stroke-opacity="1" stroke-width="3.2"/>
<circle clip-path="url(#clip292)" cx="966.489" cy="1372.07" r="14.4" fill="#009af9" fill-rule="evenodd" fill-opacity="1" stroke="#000000" stroke-opacity="1" stroke-width="3.2"/>
<circle clip-path="url(#clip292)" cx="889.334" cy="1377.42" r="14.4" fill="#009af9" fill-rule="evenodd" fill-opacity="1" stroke="#000000" stroke-opacity="1" stroke-width="3.2"/>
<circle clip-path="url(#clip292)" cx="817.042" cy="1380.97" r="14.4" fill="#009af9" fill-rule="evenodd" fill-opacity="1" stroke="#000000" stroke-opacity="1" stroke-width="3.2"/>
<circle clip-path="url(#clip292)" cx="749.878" cy="1383.14" r="14.4" fill="#009af9" fill-rule="evenodd" fill-opacity="1" stroke="#000000" stroke-opacity="1" stroke-width="3.2"/>
<circle clip-path="url(#clip292)" cx="687.866" cy="1384.17" r="14.4" fill="#009af9" fill-rule="evenodd" fill-opacity="1" stroke="#000000" stroke-opacity="1" stroke-width="3.2"/>
<circle clip-path="url(#clip292)" cx="630.883" cy="1384.24" r="14.4" fill="#009af9" fill-rule="evenodd" fill-opacity="1" stroke="#000000" stroke-opacity="1" stroke-width="3.2"/>
<circle clip-path="url(#clip292)" cx="578.718" cy="1383.44" r="14.4" fill="#009af9" fill-rule="evenodd" fill-opacity="1" stroke="#000000" stroke-opacity="1" stroke-width="3.2"/>
<circle clip-path="url(#clip292)" cx="531.109" cy="1381.82" r="14.4" fill="#009af9" fill-rule="evenodd" fill-opacity="1" stroke="#000000" stroke-opacity="1" stroke-width="3.2"/>
<circle clip-path="url(#clip292)" cx="487.776" cy="1379.39" r="14.4" fill="#009af9" fill-rule="evenodd" fill-opacity="1" stroke="#000000" stroke-opacity="1" stroke-width="3.2"/>
<circle clip-path="url(#clip292)" cx="448.428" cy="1376.12" r="14.4" fill="#009af9" fill-rule="evenodd" fill-opacity="1" stroke="#000000" stroke-opacity="1" stroke-width="3.2"/>
<circle clip-path="url(#clip292)" cx="412.782" cy="1371.97" r="14.4" fill="#009af9" fill-rule="evenodd" fill-opacity="1" stroke="#000000" stroke-opacity="1" stroke-width="3.2"/>
<circle clip-path="url(#clip292)" cx="380.565" cy="1366.86" r="14.4" fill="#009af9" fill-rule="evenodd" fill-opacity="1" stroke="#000000" stroke-opacity="1" stroke-width="3.2"/>
<circle clip-path="url(#clip292)" cx="351.519" cy="1360.67" r="14.4" fill="#009af9" fill-rule="evenodd" fill-opacity="1" stroke="#000000" stroke-opacity="1" stroke-width="3.2"/>
<circle clip-path="url(#clip292)" cx="325.408" cy="1353.27" r="14.4" fill="#009af9" fill-rule="evenodd" fill-opacity="1" stroke="#000000" stroke-opacity="1" stroke-width="3.2"/>
<circle clip-path="url(#clip292)" cx="302.011" cy="1344.5" r="14.4" fill="#009af9" fill-rule="evenodd" fill-opacity="1" stroke="#000000" stroke-opacity="1" stroke-width="3.2"/>
<circle clip-path="url(#clip292)" cx="281.134" cy="1334.15" r="14.4" fill="#009af9" fill-rule="evenodd" fill-opacity="1" stroke="#000000" stroke-opacity="1" stroke-width="3.2"/>
<circle clip-path="url(#clip292)" cx="262.601" cy="1321.99" r="14.4" fill="#009af9" fill-rule="evenodd" fill-opacity="1" stroke="#000000" stroke-opacity="1" stroke-width="3.2"/>
<circle clip-path="url(#clip292)" cx="246.261" cy="1307.74" r="14.4" fill="#009af9" fill-rule="evenodd" fill-opacity="1" stroke="#000000" stroke-opacity="1" stroke-width="3.2"/>
<circle clip-path="url(#clip292)" cx="231.985" cy="1291.06" r="14.4" fill="#009af9" fill-rule="evenodd" fill-opacity="1" stroke="#000000" stroke-opacity="1" stroke-width="3.2"/>
<circle clip-path="url(#clip292)" cx="219.673" cy="1271.59" r="14.4" fill="#009af9" fill-rule="evenodd" fill-opacity="1" stroke="#000000" stroke-opacity="1" stroke-width="3.2"/>
<circle clip-path="url(#clip292)" cx="209.252" cy="1248.89" r="14.4" fill="#009af9" fill-rule="evenodd" fill-opacity="1" stroke="#000000" stroke-opacity="1" stroke-width="3.2"/>
<circle clip-path="url(#clip292)" cx="200.678" cy="1222.45" r="14.4" fill="#009af9" fill-rule="evenodd" fill-opacity="1" stroke="#000000" stroke-opacity="1" stroke-width="3.2"/>
<circle clip-path="url(#clip292)" cx="193.95" cy="1191.7" r="14.4" fill="#009af9" fill-rule="evenodd" fill-opacity="1" stroke="#000000" stroke-opacity="1" stroke-width="3.2"/>
<circle clip-path="url(#clip292)" cx="189.107" cy="1156.03" r="14.4" fill="#009af9" fill-rule="evenodd" fill-opacity="1" stroke="#000000" stroke-opacity="1" stroke-width="3.2"/>
<circle clip-path="url(#clip292)" cx="186.25" cy="1114.72" r="14.4" fill="#009af9" fill-rule="evenodd" fill-opacity="1" stroke="#000000" stroke-opacity="1" stroke-width="3.2"/>
<circle clip-path="url(#clip292)" cx="185.55" cy="1067.02" r="14.4" fill="#009af9" fill-rule="evenodd" fill-opacity="1" stroke="#000000" stroke-opacity="1" stroke-width="3.2"/>
<circle clip-path="url(#clip292)" cx="187.28" cy="1012.14" r="14.4" fill="#009af9" fill-rule="evenodd" fill-opacity="1" stroke="#000000" stroke-opacity="1" stroke-width="3.2"/>
<circle clip-path="url(#clip292)" cx="191.849" cy="949.3" r="14.4" fill="#009af9" fill-rule="evenodd" fill-opacity="1" stroke="#000000" stroke-opacity="1" stroke-width="3.2"/>
<circle clip-path="url(#clip292)" cx="199.856" cy="877.787" r="14.4" fill="#009af9" fill-rule="evenodd" fill-opacity="1" stroke="#000000" stroke-opacity="1" stroke-width="3.2"/>
<circle clip-path="url(#clip292)" cx="212.171" cy="797.083" r="14.4" fill="#009af9" fill-rule="evenodd" fill-opacity="1" stroke="#000000" stroke-opacity="1" stroke-width="3.2"/>
<circle clip-path="url(#clip292)" cx="230.059" cy="707.045" r="14.4" fill="#009af9" fill-rule="evenodd" fill-opacity="1" stroke="#000000" stroke-opacity="1" stroke-width="3.2"/>
<circle clip-path="url(#clip292)" cx="255.356" cy="608.2" r="14.4" fill="#009af9" fill-rule="evenodd" fill-opacity="1" stroke="#000000" stroke-opacity="1" stroke-width="3.2"/>
<circle clip-path="url(#clip292)" cx="290.732" cy="502.199" r="14.4" fill="#009af9" fill-rule="evenodd" fill-opacity="1" stroke="#000000" stroke-opacity="1" stroke-width="3.2"/>
<circle clip-path="url(#clip292)" cx="340.057" cy="392.491" r="14.4" fill="#009af9" fill-rule="evenodd" fill-opacity="1" stroke="#000000" stroke-opacity="1" stroke-width="3.2"/>
<circle clip-path="url(#clip292)" cx="408.881" cy="285.283" r="14.4" fill="#009af9" fill-rule="evenodd" fill-opacity="1" stroke="#000000" stroke-opacity="1" stroke-width="3.2"/>
<circle clip-path="url(#clip292)" cx="504.923" cy="190.747" r="14.4" fill="#009af9" fill-rule="evenodd" fill-opacity="1" stroke="#000000" stroke-opacity="1" stroke-width="3.2"/>
<circle clip-path="url(#clip292)" cx="638.266" cy="124.225" r="14.4" fill="#009af9" fill-rule="evenodd" fill-opacity="1" stroke="#000000" stroke-opacity="1" stroke-width="3.2"/>
<circle clip-path="url(#clip292)" cx="820.342" cy="106.49" r="14.4" fill="#009af9" fill-rule="evenodd" fill-opacity="1" stroke="#000000" stroke-opacity="1" stroke-width="3.2"/>
<circle clip-path="url(#clip292)" cx="1059.93" cy="160.955" r="14.4" fill="#009af9" fill-rule="evenodd" fill-opacity="1" stroke="#000000" stroke-opacity="1" stroke-width="3.2"/>
<circle clip-path="url(#clip292)" cx="1353.81" cy="304.599" r="14.4" fill="#009af9" fill-rule="evenodd" fill-opacity="1" stroke="#000000" stroke-opacity="1" stroke-width="3.2"/>
<circle clip-path="url(#clip292)" cx="1672.85" cy="531.537" r="14.4" fill="#009af9" fill-rule="evenodd" fill-opacity="1" stroke="#000000" stroke-opacity="1" stroke-width="3.2"/>
<circle clip-path="url(#clip292)" cx="1955.37" cy="799.242" r="14.4" fill="#009af9" fill-rule="evenodd" fill-opacity="1" stroke="#000000" stroke-opacity="1" stroke-width="3.2"/>
<circle clip-path="url(#clip292)" cx="2130.61" cy="1041.42" r="14.4" fill="#009af9" fill-rule="evenodd" fill-opacity="1" stroke="#000000" stroke-opacity="1" stroke-width="3.2"/>
<circle clip-path="url(#clip292)" cx="2168.34" cy="1212.02" r="14.4" fill="#009af9" fill-rule="evenodd" fill-opacity="1" stroke="#000000" stroke-opacity="1" stroke-width="3.2"/>
<polyline clip-path="url(#clip292)" style="stroke:#e26f46; stroke-linecap:round; stroke-linejoin:round; stroke-width:8; stroke-opacity:1; fill:none" points="766.932,933.988 772.648,935.533 778.368,937.206 784.089,939.006 789.804,940.932 795.51,942.983 801.2,945.157 806.869,947.454 812.512,949.872 818.122,952.407 823.695,955.06 829.225,957.826 834.704,960.703 840.129,963.69 845.492,966.781 850.788,969.976 856.011,973.27 861.154,976.659 866.213,980.14 871.181,983.71 876.052,987.364 880.82,991.098 885.48,994.908 890.027,998.79 894.454,1002.74 898.756,1006.75 902.927,1010.82 906.964,1014.94 910.861,1019.11 914.613,1023.32 918.217,1027.58 921.668,1031.86 924.962,1036.18 928.095,1040.52 931.064,1044.88 933.866,1049.26 936.498,1053.65 938.956,1058.05 941.239,1062.44 943.345,1066.84 945.272,1071.23 947.018,1075.61 948.583,1079.97 949.965,1084.32 951.164,1088.64 952.179,1092.94 953.011,1097.21 953.659,1101.45 954.123,1105.65 954.404,1109.82 954.503,1113.94 954.421,1118.02 954.159,1122.05 953.719,1126.03 953.102,1129.96 952.31,1133.84 951.347,1137.66 950.213,1141.43 948.913,1145.13 947.449,1148.78 945.824,1152.37 944.042,1155.89 942.106,1159.35 940.021,1162.75 937.791,1166.09 935.42,1169.36 932.912,1172.56 930.267,1175.7 927.492,1178.77 924.589,1181.77 921.562,1184.71 918.416,1187.58 915.154,1190.38 911.781,1193.12 908.301,1195.79 904.717,1198.4 901.034,1200.93 897.255,1203.41 893.385,1205.81 889.427,1208.15 885.385,1210.43 881.264,1212.64 877.067,1214.79 872.798,1216.88 868.461,1218.91 864.061,1220.87 859.599,1222.77 855.08,1224.62 850.508,1226.4 845.885,1228.12 841.216,1229.79 836.504,1231.4 831.752,1232.95 826.963,1234.45 822.14,1235.89 817.287,1237.27 812.406,1238.61 807.501,1239.89 802.573,1241.11 797.627,1242.29 792.664,1243.42 787.688,1244.49 782.7,1245.52 777.703,1246.49 772.7,1247.42 767.693,1248.3 762.684,1249.13 757.676,1249.92 752.669,1250.66 747.668,1251.35 742.672,1252 737.685,1252.61 732.707,1253.17 727.742,1253.68 722.789,1254.16 717.852,1254.59 712.931,1254.98 708.028,1255.33 703.146,1255.64 698.284,1255.91 693.445,1256.14 688.629,1256.32 683.838,1256.47 679.073,1256.58 674.336,1256.65 669.627,1256.68 664.947,1256.67 660.298,1256.63 655.68,1256.54 651.095,1256.42 646.544,1256.26 642.027,1256.07 637.545,1255.84 633.1,1255.57 628.691,1255.26 624.32,1254.92 619.987,1254.54 615.694,1254.12 611.44,1253.67 607.227,1253.18 603.054,1252.66 598.923,1252.1 594.834,1251.5 590.787,1250.87 586.784,1250.2 582.823,1249.5 578.906,1248.76 575.033,1247.98 571.204,1247.17 567.42,1246.32 563.68,1245.44 559.985,1244.52 556.335,1243.56 552.731,1242.57 549.173,1241.54 545.663,1240.48 542.199,1239.38 538.782,1238.24 535.412,1237.06 532.09,1235.85 528.816,1234.6 525.589,1233.31 522.411,1231.98 519.282,1230.62 516.201,1229.22 513.169,1227.78 510.186,1226.3 507.252,1224.79 504.368,1223.23 501.534,1221.63 498.749,1220 496.015,1218.33 493.33,1216.61 490.697,1214.86 488.114,1213.07 485.582,1211.23 483.101,1209.36 480.671,1207.44 478.292,1205.48 475.965,1203.48 473.69,1201.44 471.467,1199.36 469.296,1197.23 467.177,1195.06 465.11,1192.85 463.096,1190.6 461.135,1188.3 459.226,1185.96 457.371,1183.57 455.57,1181.14 453.823,1178.67 452.13,1176.16 450.492,1173.59 448.909,1170.99 447.38,1168.34 445.907,1165.64 444.488,1162.89 443.126,1160.1 441.82,1157.26 440.57,1154.38 439.377,1151.44 438.241,1148.46 437.162,1145.43 436.142,1142.36 435.18,1139.23 434.277,1136.06 433.433,1132.83 432.649,1129.56 431.926,1126.24 431.264,1122.88 430.663,1119.46 430.125,1116 429.65,1112.49 429.238,1108.93 428.89,1105.32 428.608,1101.67 428.391,1097.97 428.24,1094.22 428.157,1090.42 428.142,1086.58 428.195,1082.7 428.318,1078.76 428.512,1074.79 428.777,1070.77 429.114,1066.7 429.525,1062.59 430.01,1058.44 430.57,1054.25 431.206,1050.01 431.919,1045.74 432.711,1041.42 433.581,1037.07 434.532,1032.67 435.565,1028.24 436.68,1023.77 437.879,1019.28 439.164,1014.74 440.536,1010.18 441.996,1005.59 443.546,1000.97 445.187,996.32 446.922,991.647 448.752,986.95 450.678,982.231 452.703,977.492 454.827,972.736 457.053,967.965 459.382,963.181 461.816,958.388 464.356,953.587 467.005,948.782 469.765,943.976 472.636,939.173 475.622,934.374 478.723,929.585 481.942,924.809 485.281,920.049 488.741,915.309 492.324,910.594 496.033,905.908 499.869,901.255 503.835,896.639 507.932,892.066 512.163,887.54 516.529,883.067 521.032,878.65 525.676,874.297 530.461,870.011 535.39,865.798 540.465,861.665 545.688,857.616 551.062,853.659 556.589,849.799 562.27,846.041 568.109,842.394 574.108,838.863 580.279,835.448 586.626,832.157 593.149,829.001 599.848,825.988 606.722,823.129 613.769,820.431 620.99,817.904 628.381,815.557 635.94,813.396 643.666,811.43 651.557,809.666 659.608,808.11 667.816,806.768 676.18,805.648 684.693,804.754 693.353,804.093 702.155,803.668 711.095,803.484 720.166,803.546 729.365,803.858 738.685,804.423 748.121,805.243 757.666,806.323 767.314,807.663 777.058,809.267 786.891,811.136 796.805,813.27 806.793,815.672 816.848,818.341 826.96,821.278 837.12,824.482 847.321,827.953 857.553,831.69 867.806,835.692 878.071,839.956 888.338,844.482 898.595,849.266 908.834,854.305 919.041,859.597 929.207,865.138 939.319,870.924 949.366,876.951 959.332,883.213 969.186,889.696 978.907,896.384 988.473,903.263 997.867,910.316 1007.07,917.53 1016.06,924.891 1024.82,932.383 1033.35,939.993 1041.61,947.706 1049.6,955.511 1057.3,963.393 1064.71,971.339 1071.8,979.337 1078.57,987.373 1085.01,995.437 1091.11,1003.51 1096.85,1011.59 1102.23,1019.67 1107.25,1027.72 1111.9,1035.74 1116.17,1043.72 1120.05,1051.64 1123.55,1059.5 1126.66,1067.29 1129.38,1075 1131.7,1082.61 1133.64,1090.12 1135.18,1097.52 1136.32,1104.79 1137.08,1111.94 1137.45,1118.95 1137.44,1125.82 1137.04,1132.54 1136.26,1139.11 1135.12,1145.54 1133.63,1151.83 1131.79,1157.96 1129.63,1163.95 1127.14,1169.79 1124.34,1175.48 1121.25,1181.02 1117.86,1186.42 1114.2,1191.67 1110.26,1196.77 1106.07,1201.73 1101.63,1206.54 1096.96,1211.21 1092.05,1215.74 1086.93,1220.13 1081.59,1224.37 1076.06,1228.48 1070.34,1232.45 1064.44,1236.29 1058.36,1240 1052.12,1243.57 1045.73,1247.02 1039.2,1250.34 1032.53,1253.54 1025.73,1256.61 1018.82,1259.57 1011.79,1262.42 1004.67,1265.15 997.449,1267.78 990.146,1270.3 982.767,1272.72 975.32,1275.04 967.812,1277.27 960.251,1279.41 952.645,1281.46 945.003,1283.43 937.33,1285.33 929.636,1287.15 921.926,1288.91 914.208,1290.61 906.49,1292.24 898.779,1293.83 891.079,1295.36 883.38,1296.83 875.683,1298.24 867.991,1299.58 860.307,1300.86 852.636,1302.08 844.981,1303.24 837.344,1304.34 829.728,1305.39 822.138,1306.38 814.575,1307.31 807.042,1308.2 799.542,1309.03 792.077,1309.81 784.65,1310.55 777.263,1311.24 769.918,1311.88 762.617,1312.47 755.362,1313.02 748.154,1313.53 740.997,1313.99 733.89,1314.41 726.836,1314.79 719.836,1315.13 712.891,1315.44 706.003,1315.7 699.171,1315.92 692.398,1316.11 685.684,1316.26 679.029,1316.37 672.434,1316.44 665.9,1316.48 659.427,1316.48 653.015,1316.45 646.664,1316.38 640.374,1316.28 634.145,1316.14 627.979,1315.97 621.878,1315.76 615.84,1315.53 609.868,1315.25 603.96,1314.95 598.116,1314.61 592.338,1314.24 586.624,1313.84 580.975,1313.4 575.392,1312.93 569.873,1312.43 564.419,1311.89 559.03,1311.32 553.707,1310.72 548.448,1310.09 543.254,1309.42 538.125,1308.73 533.061,1307.99 528.062,1307.23 523.128,1306.43 518.257,1305.6 513.452,1304.73 508.71,1303.83 504.033,1302.9 499.42,1301.93 494.87,1300.93 490.384,1299.89 485.962,1298.82 481.603,1297.71 477.306,1296.57 473.072,1295.39 468.901,1294.18 464.792,1292.93 460.744,1291.64 456.758,1290.31 452.833,1288.95 448.969,1287.55 445.166,1286.11 441.423,1284.63 437.739,1283.11 434.115,1281.55 430.55,1279.95 427.043,1278.31 423.596,1276.63 420.207,1274.91 416.878,1273.14 413.607,1271.33 410.394,1269.48 407.239,1267.58 404.141,1265.64 401.101,1263.65 398.119,1261.62 395.193,1259.54 392.323,1257.41 389.51,1255.23 386.754,1253 384.054,1250.73 381.41,1248.4 378.821,1246.02 376.289,1243.59 373.812,1241.1 371.391,1238.57 369.025,1235.97 366.716,1233.33 364.461,1230.62 362.262,1227.86 360.119,1225.05 358.031,1222.17 355.998,1219.23 354.022,1216.24 352.101,1213.18 350.235,1210.06 348.426,1206.88 346.672,1203.64 344.975,1200.33 343.334,1196.96 341.749,1193.52 340.221,1190.01 338.75,1186.44 337.336,1182.79 335.979,1179.08 334.679,1175.3 333.437,1171.44 332.253,1167.51 331.128,1163.51 330.061,1159.44 329.053,1155.28 328.104,1151.06 327.215,1146.75 326.386,1142.37 325.617,1137.91 324.913,1133.37 324.288,1128.78 323.743,1124.12 323.277,1119.41 322.886,1114.62 322.571,1109.77 322.33,1104.83 322.162,1099.82 322.066,1094.73 322.041,1089.56 322.086,1084.29 322.202,1078.94 322.389,1073.49 322.645,1067.95 322.971,1062.31 323.368,1056.58 323.835,1050.74 324.373,1044.81 324.984,1038.77 325.667,1032.63 326.425,1026.39 327.257,1020.04 328.166,1013.59 329.153,1007.04 330.22,1000.39 331.368,993.634 332.599,986.779 333.916,979.824 335.322,972.771 336.817,965.622 338.406,958.378 340.091,951.042 341.874,943.615 343.76,936.1 345.75,928.501 347.85,920.819 350.061,913.059 352.389,905.223 354.837,897.315 357.408,889.34 360.108,881.301 362.941,873.203 365.911,865.05 369.023,856.848 372.282,848.601 375.692,840.314 379.26,831.993 382.99,823.644 386.888,815.273 390.96,806.886 395.211,798.489 399.648,790.09 404.276,781.694 409.102,773.31 414.133,764.944 419.375,756.605 424.834,748.299 430.519,740.035 436.435,731.822 442.591,723.667 448.993,715.58 455.65,707.569 462.568,699.645 469.757,691.815 477.223,684.09 484.976,676.48 493.024,668.995 501.374,661.645 510.022,654.451 518.977,647.436 528.253,640.623 537.861,634.033 547.812,627.689 558.117,621.612 568.785,615.824 579.825,610.347 591.245,605.202 603.05,600.41 615.248,595.992 627.844,591.968 640.841,588.36 654.244,585.186 668.054,582.468 682.274,580.226 696.904,578.478 711.945,577.245 727.395,576.546 743.253,576.4 759.517,576.826 776.182,577.843 793.245,579.47 810.7,581.724 828.541,584.625 846.762,588.189 865.355,592.435 884.311,597.381 903.62,603.043 923.294,609.459 943.339,616.663 963.694,624.631 984.299,633.337 1005.1,642.753 1026.02,652.853 1047.03,663.608 1068.05,674.986 1089.04,686.958 1109.93,699.493 1130.68,712.557 1151.24,726.118 1171.55,740.14 1191.56,754.59 1211.22,769.431 1230.49,784.625 1249.31,800.136 1267.65,815.923 1285.46,831.949 1302.68,848.171 1319.29,864.549 1335.23,881.04 1350.47,897.601 1364.97,914.188 1378.68,930.756 1391.57,947.258 1403.6,963.648 1414.74,979.878 1424.96,995.899 1434.2,1011.66 1442.46,1027.12 1449.68,1042.21 1455.85,1056.9 1460.98,1071.17 1465.1,1085.01 1468.24,1098.44 1470.42,1111.44 1471.69,1124 1472.05,1136.14 1471.56,1147.85 1470.23,1159.13 1468.09,1169.98 1465.18,1180.4 1461.53,1190.41 1457.17,1200 1452.12,1209.17 1446.42,1217.94 1440.1,1226.32 1433.19,1234.3 1425.73,1241.91 1417.73,1249.15 1409.24,1256.03 1400.29,1262.57 1390.91,1268.77 1381.12,1274.66 1370.98,1280.25 1360.49,1285.55 1349.71,1290.58 1338.65,1295.36 1327.36,1299.91 1315.87,1304.25 1304.21,1308.4 1292.41,1312.38 1280.47,1316.17 1268.41,1319.79 1256.24,1323.22 1243.97,1326.49 1231.61,1329.6 1219.18,1332.55 1206.69,1335.36 1194.15,1338.03 1181.58,1340.56 1168.97,1342.97 1156.35,1345.26 1143.73,1347.44 1131.11,1349.51 1118.51,1351.47 1105.92,1353.33 1093.37,1355.1 1080.86,1356.79 1068.39,1358.38 1055.98,1359.9 1043.63,1361.34 1031.34,1362.71 1019.12,1364.01 1006.98,1365.24 994.926,1366.41 982.956,1367.52 971.075,1368.57 959.288,1369.57 947.599,1370.51 936.008,1371.4 924.519,1372.23 913.134,1373.02 901.853,1373.77 890.679,1374.47 879.612,1375.13 868.654,1375.75 857.806,1376.33 847.069,1376.88 836.443,1377.39 825.929,1377.87 815.528,1378.31 805.24,1378.73 795.066,1379.11 785.006,1379.46 775.06,1379.78 765.229,1380.08 755.512,1380.35 745.91,1380.59 736.422,1380.8 727.048,1381 717.789,1381.16 708.642,1381.31 699.608,1381.43 690.687,1381.52 681.877,1381.6 673.177,1381.65 664.588,1381.68 656.107,1381.69 647.735,1381.68 639.472,1381.65 631.316,1381.6 623.267,1381.53 615.324,1381.44 607.486,1381.32 599.751,1381.19 592.12,1381.04 584.591,1380.87 577.164,1380.68 569.837,1380.48 562.61,1380.25 555.482,1380 548.452,1379.74 541.519,1379.46 534.681,1379.15 527.939,1378.83 521.291,1378.49 514.737,1378.13 508.275,1377.76 501.905,1377.36 495.625,1376.94 489.434,1376.51 483.333,1376.05 477.319,1375.58 471.392,1375.08 465.551,1374.57 459.794,1374.04 454.122,1373.48 448.532,1372.91 443.025,1372.31 437.598,1371.7 432.252,1371.06 426.984,1370.4 421.795,1369.72 416.684,1369.02 411.649,1368.3 406.691,1367.55 401.807,1366.78 396.997,1365.98 392.26,1365.17 387.596,1364.33 383.003,1363.46 378.481,1362.57 374.029,1361.66 369.645,1360.71 365.33,1359.75 361.083,1358.75 356.902,1357.73 352.787,1356.68 348.738,1355.61 344.752,1354.5 340.831,1353.37 336.972,1352.21 333.176,1351.01 329.441,1349.79 325.767,1348.53 322.154,1347.24 318.6,1345.92 315.104,1344.56 311.668,1343.17 308.288,1341.75 304.966,1340.29 301.7,1338.79 298.49,1337.26 295.335,1335.69 292.235,1334.08 289.189,1332.43 286.196,1330.74 283.257,1329.01 280.369,1327.24 277.534,1325.43 274.75,1323.57 272.017,1321.66 269.335,1319.71 266.702,1317.72 264.12,1315.68 261.587,1313.58 259.102,1311.44 256.665,1309.25 254.276,1307 251.935,1304.71 249.64,1302.35 247.392,1299.95 245.189,1297.48 243.032,1294.96 240.921,1292.38 238.854,1289.74 236.832,1287.04 234.855,1284.28 232.921,1281.45 231.031,1278.55 229.185,1275.59 227.382,1272.56 225.622,1269.46 223.906,1266.29 222.231,1263.05 220.6,1259.73 219.011,1256.33 217.464,1252.86 215.959,1249.3 214.497,1245.67 213.076,1241.95 211.698,1238.15 210.362,1234.26 209.068,1230.28 207.815,1226.21 206.605,1222.05 205.437,1217.8 204.311,1213.44 203.228,1208.99 202.187,1204.44 201.188,1199.79 200.232,1195.03 199.319,1190.17 198.449,1185.2 197.622,1180.11 196.838,1174.92 196.098,1169.6 195.402,1164.17 194.75,1158.62 194.143,1152.95 193.58,1147.15 193.062,1141.23 192.595,1135.18 192.177,1129 191.81,1122.69 191.493,1116.25 191.225,1109.66 191.007,1102.94 190.839,1096.07 190.721,1089.06 190.654,1081.89 190.637,1074.56 190.672,1067.08 190.759,1059.44 190.9,1051.64 191.095,1043.66 191.346,1035.52 191.654,1027.21 192.02,1018.72 192.447,1010.06 192.935,1001.21 193.486,992.188 194.104,982.979 194.789,973.584 195.544,964 196.372,954.226 197.275,944.261 198.255,934.101 199.316,923.746 200.461,913.193 201.692,902.442 203.013,891.49 204.427,880.336 205.938,868.979 207.549,857.418 209.264,845.651 211.087,833.677 213.022,821.496 215.073,809.105 217.245,796.506 219.542,783.696 221.967,770.675 224.528,757.442 227.227,743.997 230.07,730.339 233.063,716.472 236.246,702.461 239.632,688.32 243.221,674.033 247.013,659.586 251.009,644.965 255.213,630.162 259.628,615.169 264.26,599.982 269.117,584.598 274.205,569.019 279.535,553.247 285.117,537.287 290.962,521.147 297.085,504.838 303.499,488.373 310.221,471.766 317.267,455.037 324.656,438.204 332.407,421.291 340.542,404.324 349.082,387.329 358.051,370.338 367.474,353.384 377.376,336.5 387.786,319.727 398.732,303.103 410.243,286.671 422.351,270.477 435.089,254.569 448.49,238.996 462.589,223.812 477.423,209.072 493.028,194.833 509.445,181.156 526.713,168.104 544.874,155.741 563.971,144.136 584.047,133.359 605.148,123.482 627.32,114.58 650.612,106.732 675.072,100.018 700.752,94.5193 727.702,90.3223 755.977,87.5144 785.629,86.1857 816.716,86.4288 849.293,88.339 883.419,92.0138 919.153,97.5537 956.492,105.092 995.431,114.77 1035.98,126.699 1078.14,140.968 1121.86,157.646 1167.09,176.779 1213.75,198.39 1261.74,222.483 1310.92,249.04 1361.15,278.02 1412.26,309.361 1464.04,342.981 1516.32,378.821 1568.86,416.774 1621.24,456.494 1673.03,497.639 1723.83,539.874 1773.28,582.878 1821.03,626.34 1866.77,669.96 1910.19,713.45 1951.04,756.533 1989.07,798.941 2024.07,840.421 2055.84,880.727 2084.23,919.628 2109.1,956.901 2130.33,992.335 2147.85,1025.75 2161.8,1057.14 2172.35,1086.54 2179.65,1113.99 2183.87,1139.53 2185.17,1163.22 2183.74,1185.12 2179.74,1205.29 2173.36,1223.82 2164.79,1240.8 2154.22,1256.32 2141.83,1270.48 2127.85,1283.4 2112.47,1295.21 "/>
<path clip-path="url(#clip290)" d="M1538.24 248.629 L2280.18 248.629 L2280.18 93.1086 L1538.24 93.1086  Z" fill="#ffffff" fill-rule="evenodd" fill-opacity="1"/>
<polyline clip-path="url(#clip290)" style="stroke:#000000; stroke-linecap:round; stroke-linejoin:round; stroke-width:4; stroke-opacity:1; fill:none" points="1538.24,248.629 2280.18,248.629 2280.18,93.1086 1538.24,93.1086 1538.24,248.629 "/>
<circle clip-path="url(#clip290)" cx="1635.01" cy="144.949" r="20.48" fill="#009af9" fill-rule="evenodd" fill-opacity="1" stroke="#000000" stroke-opacity="1" stroke-width="4.55111"/>
<path clip-path="url(#clip290)" d="M1731.78 127.669 L1753.63 127.669 L1753.63 131.604 L1736.45 131.604 L1736.45 141.835 L1752.91 141.835 L1752.91 145.77 L1736.45 145.77 L1736.45 158.293 L1754.04 158.293 L1754.04 162.229 L1731.78 162.229 L1731.78 127.669 Z" fill="#000000" fill-rule="nonzero" fill-opacity="1" /><path clip-path="url(#clip290)" d="M1783.1 136.303 L1773.72 148.919 L1783.58 162.229 L1778.56 162.229 L1771.01 152.043 L1763.47 162.229 L1758.44 162.229 L1768.51 148.664 L1759.3 136.303 L1764.32 136.303 L1771.2 145.539 L1778.07 136.303 L1783.1 136.303 Z" fill="#000000" fill-rule="nonzero" fill-opacity="1" /><path clip-path="url(#clip290)" d="M1793.72 158.34 L1793.72 172.09 L1789.44 172.09 L1789.44 136.303 L1793.72 136.303 L1793.72 140.238 Q1795.06 137.923 1797.1 136.812 Q1799.16 135.678 1802.01 135.678 Q1806.73 135.678 1809.67 139.428 Q1812.63 143.178 1812.63 149.289 Q1812.63 155.4 1809.67 159.15 Q1806.73 162.9 1802.01 162.9 Q1799.16 162.9 1797.1 161.789 Q1795.06 160.655 1793.72 158.34 M1808.21 149.289 Q1808.21 144.59 1806.27 141.928 Q1804.35 139.243 1800.97 139.243 Q1797.59 139.243 1795.64 141.928 Q1793.72 144.59 1793.72 149.289 Q1793.72 153.988 1795.64 156.673 Q1797.59 159.335 1800.97 159.335 Q1804.35 159.335 1806.27 156.673 Q1808.21 153.988 1808.21 149.289 Z" fill="#000000" fill-rule="nonzero" fill-opacity="1" /><path clip-path="url(#clip290)" d="M1819.69 126.21 L1823.95 126.21 L1823.95 162.229 L1819.69 162.229 L1819.69 126.21 Z" fill="#000000" fill-rule="nonzero" fill-opacity="1" /><path clip-path="url(#clip290)" d="M1832.86 136.303 L1837.12 136.303 L1837.12 162.229 L1832.86 162.229 L1832.86 136.303 M1832.86 126.21 L1837.12 126.21 L1837.12 131.604 L1832.86 131.604 L1832.86 126.21 Z" fill="#000000" fill-rule="nonzero" fill-opacity="1" /><path clip-path="url(#clip290)" d="M1864.69 137.298 L1864.69 141.28 Q1862.89 140.284 1861.06 139.798 Q1859.25 139.289 1857.4 139.289 Q1853.26 139.289 1850.97 141.928 Q1848.67 144.544 1848.67 149.289 Q1848.67 154.034 1850.97 156.673 Q1853.26 159.289 1857.4 159.289 Q1859.25 159.289 1861.06 158.803 Q1862.89 158.293 1864.69 157.298 L1864.69 161.233 Q1862.91 162.067 1860.99 162.483 Q1859.09 162.9 1856.94 162.9 Q1851.08 162.9 1847.63 159.219 Q1844.18 155.539 1844.18 149.289 Q1844.18 142.946 1847.66 139.312 Q1851.15 135.678 1857.22 135.678 Q1859.18 135.678 1861.06 136.095 Q1862.93 136.488 1864.69 137.298 Z" fill="#000000" fill-rule="nonzero" fill-opacity="1" /><path clip-path="url(#clip290)" d="M1872.1 136.303 L1876.36 136.303 L1876.36 162.229 L1872.1 162.229 L1872.1 136.303 M1872.1 126.21 L1876.36 126.21 L1876.36 131.604 L1872.1 131.604 L1872.1 126.21 Z" fill="#000000" fill-rule="nonzero" fill-opacity="1" /><path clip-path="url(#clip290)" d="M1889.48 128.942 L1889.48 136.303 L1898.26 136.303 L1898.26 139.613 L1889.48 139.613 L1889.48 153.687 Q1889.48 156.858 1890.34 157.761 Q1891.22 158.664 1893.88 158.664 L1898.26 158.664 L1898.26 162.229 L1893.88 162.229 Q1888.95 162.229 1887.08 160.4 Q1885.2 158.548 1885.2 153.687 L1885.2 139.613 L1882.08 139.613 L1882.08 136.303 L1885.2 136.303 L1885.2 128.942 L1889.48 128.942 Z" fill="#000000" fill-rule="nonzero" fill-opacity="1" /><path clip-path="url(#clip290)" d="M1919.11 127.669 L1940.97 127.669 L1940.97 131.604 L1923.79 131.604 L1923.79 141.835 L1940.25 141.835 L1940.25 145.77 L1923.79 145.77 L1923.79 158.293 L1941.38 158.293 L1941.38 162.229 L1919.11 162.229 L1919.11 127.669 Z" fill="#000000" fill-rule="nonzero" fill-opacity="1" /><path clip-path="url(#clip290)" d="M1948.44 151.997 L1948.44 136.303 L1952.7 136.303 L1952.7 151.835 Q1952.7 155.516 1954.14 157.368 Q1955.57 159.196 1958.44 159.196 Q1961.89 159.196 1963.88 156.997 Q1965.9 154.798 1965.9 151.002 L1965.9 136.303 L1970.15 136.303 L1970.15 162.229 L1965.9 162.229 L1965.9 158.247 Q1964.34 160.608 1962.28 161.766 Q1960.25 162.9 1957.54 162.9 Q1953.07 162.9 1950.76 160.122 Q1948.44 157.344 1948.44 151.997 M1959.16 135.678 L1959.16 135.678 Z" fill="#000000" fill-rule="nonzero" fill-opacity="1" /><path clip-path="url(#clip290)" d="M1978.93 126.21 L1983.19 126.21 L1983.19 162.229 L1978.93 162.229 L1978.93 126.21 Z" fill="#000000" fill-rule="nonzero" fill-opacity="1" /><path clip-path="url(#clip290)" d="M2014.27 148.201 L2014.27 150.284 L1994.69 150.284 Q1994.97 154.682 1997.33 156.997 Q1999.71 159.289 2003.95 159.289 Q2006.4 159.289 2008.7 158.687 Q2011.01 158.085 2013.28 156.881 L2013.28 160.909 Q2010.99 161.881 2008.58 162.391 Q2006.17 162.9 2003.7 162.9 Q1997.49 162.9 1993.86 159.289 Q1990.25 155.678 1990.25 149.52 Q1990.25 143.155 1993.67 139.428 Q1997.12 135.678 2002.96 135.678 Q2008.19 135.678 2011.22 139.057 Q2014.27 142.414 2014.27 148.201 M2010.02 146.951 Q2009.97 143.456 2008.05 141.372 Q2006.15 139.289 2003 139.289 Q1999.44 139.289 1997.28 141.303 Q1995.15 143.317 1994.83 146.974 L2010.02 146.951 Z" fill="#000000" fill-rule="nonzero" fill-opacity="1" /><path clip-path="url(#clip290)" d="M2036.29 140.284 Q2035.57 139.868 2034.71 139.682 Q2033.88 139.474 2032.86 139.474 Q2029.25 139.474 2027.31 141.835 Q2025.39 144.173 2025.39 148.571 L2025.39 162.229 L2021.1 162.229 L2021.1 136.303 L2025.39 136.303 L2025.39 140.331 Q2026.73 137.969 2028.88 136.835 Q2031.03 135.678 2034.11 135.678 Q2034.55 135.678 2035.08 135.747 Q2035.62 135.794 2036.27 135.909 L2036.29 140.284 Z" fill="#000000" fill-rule="nonzero" fill-opacity="1" /><path clip-path="url(#clip290)" d="M2041.84 156.349 L2046.73 156.349 L2046.73 160.33 L2042.93 167.738 L2039.95 167.738 L2041.84 160.33 L2041.84 156.349 Z" fill="#000000" fill-rule="nonzero" fill-opacity="1" /><path clip-path="url(#clip290)" d="M2087.96 140.238 L2087.96 126.21 L2092.21 126.21 L2092.21 162.229 L2087.96 162.229 L2087.96 158.34 Q2086.61 160.655 2084.55 161.789 Q2082.52 162.9 2079.64 162.9 Q2074.95 162.9 2071.98 159.15 Q2069.04 155.4 2069.04 149.289 Q2069.04 143.178 2071.98 139.428 Q2074.95 135.678 2079.64 135.678 Q2082.52 135.678 2084.55 136.812 Q2086.61 137.923 2087.96 140.238 M2073.44 149.289 Q2073.44 153.988 2075.36 156.673 Q2077.31 159.335 2080.69 159.335 Q2084.07 159.335 2086.01 156.673 Q2087.96 153.988 2087.96 149.289 Q2087.96 144.59 2086.01 141.928 Q2084.07 139.243 2080.69 139.243 Q2077.31 139.243 2075.36 141.928 Q2073.44 144.59 2073.44 149.289 Z" fill="#000000" fill-rule="nonzero" fill-opacity="1" /><path clip-path="url(#clip290)" d="M2105.2 128.942 L2105.2 136.303 L2113.97 136.303 L2113.97 139.613 L2105.2 139.613 L2105.2 153.687 Q2105.2 156.858 2106.06 157.761 Q2106.94 158.664 2109.6 158.664 L2113.97 158.664 L2113.97 162.229 L2109.6 162.229 Q2104.67 162.229 2102.79 160.4 Q2100.92 158.548 2100.92 153.687 L2100.92 139.613 L2097.79 139.613 L2097.79 136.303 L2100.92 136.303 L2100.92 128.942 L2105.2 128.942 Z" fill="#000000" fill-rule="nonzero" fill-opacity="1" /><path clip-path="url(#clip290)" d="M2135.2 140.701 L2164.88 140.701 L2164.88 144.59 L2135.2 144.59 L2135.2 140.701 M2135.2 150.145 L2164.88 150.145 L2164.88 154.081 L2135.2 154.081 L2135.2 150.145 Z" fill="#000000" fill-rule="nonzero" fill-opacity="1" /><path clip-path="url(#clip290)" d="M2200.04 130.747 Q2196.43 130.747 2194.6 134.312 Q2192.79 137.854 2192.79 144.983 Q2192.79 152.09 2194.6 155.655 Q2196.43 159.196 2200.04 159.196 Q2203.67 159.196 2205.48 155.655 Q2207.31 152.09 2207.31 144.983 Q2207.31 137.854 2205.48 134.312 Q2203.67 130.747 2200.04 130.747 M2200.04 127.044 Q2205.85 127.044 2208.9 131.65 Q2211.98 136.233 2211.98 144.983 Q2211.98 153.71 2208.9 158.317 Q2205.85 162.9 2200.04 162.9 Q2194.23 162.9 2191.15 158.317 Q2188.09 153.71 2188.09 144.983 Q2188.09 136.233 2191.15 131.65 Q2194.23 127.044 2200.04 127.044 Z" fill="#000000" fill-rule="nonzero" fill-opacity="1" /><path clip-path="url(#clip290)" d="M2220.2 156.349 L2225.08 156.349 L2225.08 162.229 L2220.2 162.229 L2220.2 156.349 Z" fill="#000000" fill-rule="nonzero" fill-opacity="1" /><path clip-path="url(#clip290)" d="M2236.08 158.293 L2243.72 158.293 L2243.72 131.928 L2235.41 133.595 L2235.41 129.335 L2243.67 127.669 L2248.35 127.669 L2248.35 158.293 L2255.99 158.293 L2255.99 162.229 L2236.08 162.229 L2236.08 158.293 Z" fill="#000000" fill-rule="nonzero" fill-opacity="1" /><polyline clip-path="url(#clip290)" style="stroke:#e26f46; stroke-linecap:round; stroke-linejoin:round; stroke-width:8; stroke-opacity:1; fill:none" points="1562.43,196.789 1707.58,196.789 "/>
<path clip-path="url(#clip290)" d="M1731.78 179.509 L1738.74 179.509 L1747.56 203.027 L1756.43 179.509 L1763.4 179.509 L1763.4 214.069 L1758.84 214.069 L1758.84 183.722 L1749.92 207.425 L1745.23 207.425 L1736.31 183.722 L1736.31 214.069 L1731.78 214.069 L1731.78 179.509 Z" fill="#000000" fill-rule="nonzero" fill-opacity="1" /><path clip-path="url(#clip290)" d="M1782.54 191.129 Q1779.11 191.129 1777.12 193.814 Q1775.13 196.476 1775.13 201.129 Q1775.13 205.782 1777.1 208.467 Q1779.09 211.129 1782.54 211.129 Q1785.94 211.129 1787.93 208.444 Q1789.92 205.758 1789.92 201.129 Q1789.92 196.522 1787.93 193.837 Q1785.94 191.129 1782.54 191.129 M1782.54 187.518 Q1788.1 187.518 1791.27 191.129 Q1794.44 194.74 1794.44 201.129 Q1794.44 207.495 1791.27 211.129 Q1788.1 214.74 1782.54 214.74 Q1776.96 214.74 1773.79 211.129 Q1770.64 207.495 1770.64 201.129 Q1770.64 194.74 1773.79 191.129 Q1776.96 187.518 1782.54 187.518 Z" fill="#000000" fill-rule="nonzero" fill-opacity="1" /><path clip-path="url(#clip290)" d="M1818.56 192.078 L1818.56 178.05 L1822.82 178.05 L1822.82 214.069 L1818.56 214.069 L1818.56 210.18 Q1817.22 212.495 1815.16 213.629 Q1813.12 214.74 1810.25 214.74 Q1805.55 214.74 1802.59 210.99 Q1799.65 207.24 1799.65 201.129 Q1799.65 195.018 1802.59 191.268 Q1805.55 187.518 1810.25 187.518 Q1813.12 187.518 1815.16 188.652 Q1817.22 189.763 1818.56 192.078 M1804.04 201.129 Q1804.04 205.828 1805.97 208.513 Q1807.91 211.175 1811.29 211.175 Q1814.67 211.175 1816.61 208.513 Q1818.56 205.828 1818.56 201.129 Q1818.56 196.43 1816.61 193.768 Q1814.67 191.083 1811.29 191.083 Q1807.91 191.083 1805.97 193.768 Q1804.04 196.43 1804.04 201.129 Z" fill="#000000" fill-rule="nonzero" fill-opacity="1" /><path clip-path="url(#clip290)" d="M1831.59 188.143 L1835.85 188.143 L1835.85 214.069 L1831.59 214.069 L1831.59 188.143 M1831.59 178.05 L1835.85 178.05 L1835.85 183.444 L1831.59 183.444 L1831.59 178.05 Z" fill="#000000" fill-rule="nonzero" fill-opacity="1" /><path clip-path="url(#clip290)" d="M1857.89 178.05 L1857.89 181.592 L1853.81 181.592 Q1851.52 181.592 1850.62 182.518 Q1849.74 183.444 1849.74 185.851 L1849.74 188.143 L1856.75 188.143 L1856.75 191.453 L1849.74 191.453 L1849.74 214.069 L1845.46 214.069 L1845.46 191.453 L1841.38 191.453 L1841.38 188.143 L1845.46 188.143 L1845.46 186.337 Q1845.46 182.009 1847.47 180.041 Q1849.48 178.05 1853.86 178.05 L1857.89 178.05 Z" fill="#000000" fill-rule="nonzero" fill-opacity="1" /><path clip-path="url(#clip290)" d="M1861.45 188.143 L1865.71 188.143 L1865.71 214.069 L1861.45 214.069 L1861.45 188.143 M1861.45 178.05 L1865.71 178.05 L1865.71 183.444 L1861.45 183.444 L1861.45 178.05 Z" fill="#000000" fill-rule="nonzero" fill-opacity="1" /><path clip-path="url(#clip290)" d="M1896.8 200.041 L1896.8 202.124 L1877.22 202.124 Q1877.49 206.522 1879.85 208.837 Q1882.24 211.129 1886.47 211.129 Q1888.93 211.129 1891.22 210.527 Q1893.53 209.925 1895.8 208.721 L1895.8 212.749 Q1893.51 213.721 1891.1 214.231 Q1888.7 214.74 1886.22 214.74 Q1880.02 214.74 1876.38 211.129 Q1872.77 207.518 1872.77 201.36 Q1872.77 194.995 1876.2 191.268 Q1879.65 187.518 1885.48 187.518 Q1890.71 187.518 1893.74 190.897 Q1896.8 194.254 1896.8 200.041 M1892.54 198.791 Q1892.49 195.296 1890.57 193.212 Q1888.67 191.129 1885.53 191.129 Q1881.96 191.129 1879.81 193.143 Q1877.68 195.157 1877.35 198.814 L1892.54 198.791 Z" fill="#000000" fill-rule="nonzero" fill-opacity="1" /><path clip-path="url(#clip290)" d="M1920.85 192.078 L1920.85 178.05 L1925.11 178.05 L1925.11 214.069 L1920.85 214.069 L1920.85 210.18 Q1919.51 212.495 1917.45 213.629 Q1915.41 214.74 1912.54 214.74 Q1907.84 214.74 1904.88 210.99 Q1901.94 207.24 1901.94 201.129 Q1901.94 195.018 1904.88 191.268 Q1907.84 187.518 1912.54 187.518 Q1915.41 187.518 1917.45 188.652 Q1919.51 189.763 1920.85 192.078 M1906.34 201.129 Q1906.34 205.828 1908.26 208.513 Q1910.2 211.175 1913.58 211.175 Q1916.96 211.175 1918.91 208.513 Q1920.85 205.828 1920.85 201.129 Q1920.85 196.43 1918.91 193.768 Q1916.96 191.083 1913.58 191.083 Q1910.2 191.083 1908.26 193.768 Q1906.34 196.43 1906.34 201.129 Z" fill="#000000" fill-rule="nonzero" fill-opacity="1" /><path clip-path="url(#clip290)" d="M1963.16 182.68 Q1958.07 182.68 1955.06 186.476 Q1952.08 190.272 1952.08 196.823 Q1952.08 203.351 1955.06 207.147 Q1958.07 210.944 1963.16 210.944 Q1968.26 210.944 1971.22 207.147 Q1974.21 203.351 1974.21 196.823 Q1974.21 190.272 1971.22 186.476 Q1968.26 182.68 1963.16 182.68 M1963.16 178.884 Q1970.43 178.884 1974.78 183.768 Q1979.14 188.629 1979.14 196.823 Q1979.14 204.995 1974.78 209.879 Q1970.43 214.74 1963.16 214.74 Q1955.87 214.74 1951.5 209.879 Q1947.15 205.018 1947.15 196.823 Q1947.15 188.629 1951.5 183.768 Q1955.87 178.884 1963.16 178.884 Z" fill="#000000" fill-rule="nonzero" fill-opacity="1" /><path clip-path="url(#clip290)" d="M1991.13 183.351 L1991.13 210.226 L1996.77 210.226 Q2003.93 210.226 2007.24 206.985 Q2010.57 203.745 2010.57 196.754 Q2010.57 189.809 2007.24 186.592 Q2003.93 183.351 1996.77 183.351 L1991.13 183.351 M1986.45 179.509 L1996.06 179.509 Q2006.1 179.509 2010.8 183.698 Q2015.5 187.865 2015.5 196.754 Q2015.5 205.689 2010.78 209.879 Q2006.06 214.069 1996.06 214.069 L1986.45 214.069 L1986.45 179.509 Z" fill="#000000" fill-rule="nonzero" fill-opacity="1" /><path clip-path="url(#clip290)" d="M2022.96 179.509 L2044.81 179.509 L2044.81 183.444 L2027.63 183.444 L2027.63 193.675 L2044.09 193.675 L2044.09 197.61 L2027.63 197.61 L2027.63 210.133 L2045.22 210.133 L2045.22 214.069 L2022.96 214.069 L2022.96 179.509 Z" fill="#000000" fill-rule="nonzero" fill-opacity="1" /><path clip-path="url(#clip290)" d="M2053.81 208.189 L2058.7 208.189 L2058.7 212.17 L2054.9 219.578 L2051.91 219.578 L2053.81 212.17 L2053.81 208.189 Z" fill="#000000" fill-rule="nonzero" fill-opacity="1" /><path clip-path="url(#clip290)" d="M2092.91 191.129 Q2089.48 191.129 2087.49 193.814 Q2085.5 196.476 2085.5 201.129 Q2085.5 205.782 2087.47 208.467 Q2089.46 211.129 2092.91 211.129 Q2096.31 211.129 2098.3 208.444 Q2100.29 205.758 2100.29 201.129 Q2100.29 196.522 2098.3 193.837 Q2096.31 191.129 2092.91 191.129 M2092.91 187.518 Q2098.46 187.518 2101.64 191.129 Q2104.81 194.74 2104.81 201.129 Q2104.81 207.495 2101.64 211.129 Q2098.46 214.74 2092.91 214.74 Q2087.33 214.74 2084.16 211.129 Q2081.01 207.495 2081.01 201.129 Q2081.01 194.74 2084.16 191.129 Q2087.33 187.518 2092.91 187.518 Z" fill="#000000" fill-rule="nonzero" fill-opacity="1" /><path clip-path="url(#clip290)" d="M2126.89 192.124 Q2126.17 191.708 2125.32 191.522 Q2124.48 191.314 2123.46 191.314 Q2119.85 191.314 2117.91 193.675 Q2115.99 196.013 2115.99 200.411 L2115.99 214.069 L2111.7 214.069 L2111.7 188.143 L2115.99 188.143 L2115.99 192.171 Q2117.33 189.809 2119.48 188.675 Q2121.64 187.518 2124.71 187.518 Q2125.15 187.518 2125.69 187.587 Q2126.22 187.634 2126.87 187.749 L2126.89 192.124 Z" fill="#000000" fill-rule="nonzero" fill-opacity="1" /><path clip-path="url(#clip290)" d="M2147.58 192.078 L2147.58 178.05 L2151.84 178.05 L2151.84 214.069 L2147.58 214.069 L2147.58 210.18 Q2146.24 212.495 2144.18 213.629 Q2142.14 214.74 2139.27 214.74 Q2134.58 214.74 2131.61 210.99 Q2128.67 207.24 2128.67 201.129 Q2128.67 195.018 2131.61 191.268 Q2134.58 187.518 2139.27 187.518 Q2142.14 187.518 2144.18 188.652 Q2146.24 189.763 2147.58 192.078 M2133.07 201.129 Q2133.07 205.828 2134.99 208.513 Q2136.94 211.175 2140.32 211.175 Q2143.7 211.175 2145.64 208.513 Q2147.58 205.828 2147.58 201.129 Q2147.58 196.43 2145.64 193.768 Q2143.7 191.083 2140.32 191.083 Q2136.94 191.083 2134.99 193.768 Q2133.07 196.43 2133.07 201.129 Z" fill="#000000" fill-rule="nonzero" fill-opacity="1" /><path clip-path="url(#clip290)" d="M2182.79 200.041 L2182.79 202.124 L2163.21 202.124 Q2163.49 206.522 2165.85 208.837 Q2168.23 211.129 2172.47 211.129 Q2174.92 211.129 2177.21 210.527 Q2179.53 209.925 2181.8 208.721 L2181.8 212.749 Q2179.51 213.721 2177.1 214.231 Q2174.69 214.74 2172.21 214.74 Q2166.01 214.74 2162.38 211.129 Q2158.76 207.518 2158.76 201.36 Q2158.76 194.995 2162.19 191.268 Q2165.64 187.518 2171.47 187.518 Q2176.7 187.518 2179.74 190.897 Q2182.79 194.254 2182.79 200.041 M2178.53 198.791 Q2178.49 195.296 2176.57 193.212 Q2174.67 191.129 2171.52 191.129 Q2167.95 191.129 2165.8 193.143 Q2163.67 195.157 2163.35 198.814 L2178.53 198.791 Z" fill="#000000" fill-rule="nonzero" fill-opacity="1" /><path clip-path="url(#clip290)" d="M2204.81 192.124 Q2204.09 191.708 2203.23 191.522 Q2202.4 191.314 2201.38 191.314 Q2197.77 191.314 2195.82 193.675 Q2193.9 196.013 2193.9 200.411 L2193.9 214.069 L2189.62 214.069 L2189.62 188.143 L2193.9 188.143 L2193.9 192.171 Q2195.25 189.809 2197.4 188.675 Q2199.55 187.518 2202.63 187.518 Q2203.07 187.518 2203.6 187.587 Q2204.13 187.634 2204.78 187.749 L2204.81 192.124 Z" fill="#000000" fill-rule="nonzero" fill-opacity="1" /><path clip-path="url(#clip290)" d="M2225.76 210.133 L2233.39 210.133 L2233.39 183.768 L2225.08 185.435 L2225.08 181.175 L2233.35 179.509 L2238.02 179.509 L2238.02 210.133 L2245.66 210.133 L2245.66 214.069 L2225.76 214.069 L2225.76 210.133 Z" fill="#000000" fill-rule="nonzero" fill-opacity="1" /></svg>
