<?xml version="1.0" encoding="utf-8"?>
<svg xmlns="http://www.w3.org/2000/svg" xmlns:xlink="http://www.w3.org/1999/xlink" width="600" height="400" viewBox="0 0 2400 1600">
<defs>
  <clipPath id="clip980">
    <rect x="0" y="0" width="2400" height="1600"/>
  </clipPath>
</defs>
<path clip-path="url(#clip980)" d="
M0 1600 L2400 1600 L2400 0 L0 0  Z
  " fill="#ffffff" fill-rule="evenodd" fill-opacity="1"/>
<defs>
  <clipPath id="clip981">
    <rect x="480" y="0" width="1681" height="1600"/>
  </clipPath>
</defs>
<defs>
  <clipPath id="clip982">
    <rect x="257" y="47" width="2097" height="1377"/>
  </clipPath>
</defs>
<path clip-path="url(#clip980)" d="
M219.38 1423.18 L2352.76 1423.18 L2352.76 47.2441 L219.38 47.2441  Z
  " fill="#ffffff" fill-rule="evenodd" fill-opacity="1"/>
<defs>
  <clipPath id="clip983">
    <rect x="219" y="47" width="2134" height="1377"/>
  </clipPath>
</defs>
<polyline clip-path="url(#clip983)" style="stroke:#000000; stroke-linecap:butt; stroke-linejoin:round; stroke-width:2; stroke-opacity:0.1; fill:none" points="
  219.38,1423.18 219.38,47.2441 
  "/>
<polyline clip-path="url(#clip983)" style="stroke:#000000; stroke-linecap:butt; stroke-linejoin:round; stroke-width:2; stroke-opacity:0.1; fill:none" points="
  752.724,1423.18 752.724,47.2441 
  "/>
<polyline clip-path="url(#clip983)" style="stroke:#000000; stroke-linecap:butt; stroke-linejoin:round; stroke-width:2; stroke-opacity:0.1; fill:none" points="
  1286.07,1423.18 1286.07,47.2441 
  "/>
<polyline clip-path="url(#clip983)" style="stroke:#000000; stroke-linecap:butt; stroke-linejoin:round; stroke-width:2; stroke-opacity:0.1; fill:none" points="
  1819.41,1423.18 1819.41,47.2441 
  "/>
<polyline clip-path="url(#clip983)" style="stroke:#000000; stroke-linecap:butt; stroke-linejoin:round; stroke-width:2; stroke-opacity:0.1; fill:none" points="
  2352.76,1423.18 2352.76,47.2441 
  "/>
<polyline clip-path="url(#clip980)" style="stroke:#000000; stroke-linecap:butt; stroke-linejoin:round; stroke-width:4; stroke-opacity:1; fill:none" points="
  219.38,1423.18 2352.76,1423.18 
  "/>
<polyline clip-path="url(#clip980)" style="stroke:#000000; stroke-linecap:butt; stroke-linejoin:round; stroke-width:4; stroke-opacity:1; fill:none" points="
  219.38,1423.18 219.38,1404.28 
  "/>
<polyline clip-path="url(#clip980)" style="stroke:#000000; stroke-linecap:butt; stroke-linejoin:round; stroke-width:4; stroke-opacity:1; fill:none" points="
  752.724,1423.18 752.724,1404.28 
  "/>
<polyline clip-path="url(#clip980)" style="stroke:#000000; stroke-linecap:butt; stroke-linejoin:round; stroke-width:4; stroke-opacity:1; fill:none" points="
  1286.07,1423.18 1286.07,1404.28 
  "/>
<polyline clip-path="url(#clip980)" style="stroke:#000000; stroke-linecap:butt; stroke-linejoin:round; stroke-width:4; stroke-opacity:1; fill:none" points="
  1819.41,1423.18 1819.41,1404.28 
  "/>
<polyline clip-path="url(#clip980)" style="stroke:#000000; stroke-linecap:butt; stroke-linejoin:round; stroke-width:4; stroke-opacity:1; fill:none" points="
  2352.76,1423.18 2352.76,1404.28 
  "/>
<path clip-path="url(#clip980)" d="M219.38 1454.1 Q215.769 1454.1 213.94 1457.66 Q212.135 1461.2 212.135 1468.33 Q212.135 1475.44 213.94 1479.01 Q215.769 1482.55 219.38 1482.55 Q223.014 1482.55 224.82 1479.01 Q226.649 1475.44 226.649 1468.33 Q226.649 1461.2 224.82 1457.66 Q223.014 1454.1 219.38 1454.1 M219.38 1450.39 Q225.19 1450.39 228.246 1455 Q231.325 1459.58 231.325 1468.33 Q231.325 1477.06 228.246 1481.67 Q225.19 1486.25 219.38 1486.25 Q213.57 1486.25 210.491 1481.67 Q207.436 1477.06 207.436 1468.33 Q207.436 1459.58 210.491 1455 Q213.57 1450.39 219.38 1450.39 Z" fill="#000000" fill-rule="evenodd" fill-opacity="1" /><path clip-path="url(#clip980)" d="M743.106 1481.64 L750.745 1481.64 L750.745 1455.28 L742.435 1456.95 L742.435 1452.69 L750.699 1451.02 L755.375 1451.02 L755.375 1481.64 L763.013 1481.64 L763.013 1485.58 L743.106 1485.58 L743.106 1481.64 Z" fill="#000000" fill-rule="evenodd" fill-opacity="1" /><path clip-path="url(#clip980)" d="M1280.72 1481.64 L1297.04 1481.64 L1297.04 1485.58 L1275.1 1485.58 L1275.1 1481.64 Q1277.76 1478.89 1282.34 1474.26 Q1286.95 1469.61 1288.13 1468.27 Q1290.37 1465.74 1291.25 1464.01 Q1292.16 1462.25 1292.16 1460.56 Q1292.16 1457.8 1290.21 1456.07 Q1288.29 1454.33 1285.19 1454.33 Q1282.99 1454.33 1280.54 1455.09 Q1278.11 1455.86 1275.33 1457.41 L1275.33 1452.69 Q1278.15 1451.55 1280.61 1450.97 Q1283.06 1450.39 1285.1 1450.39 Q1290.47 1450.39 1293.66 1453.08 Q1296.86 1455.77 1296.86 1460.26 Q1296.86 1462.39 1296.04 1464.31 Q1295.26 1466.2 1293.15 1468.8 Q1292.57 1469.47 1289.47 1472.69 Q1286.37 1475.88 1280.72 1481.64 Z" fill="#000000" fill-rule="evenodd" fill-opacity="1" /><path clip-path="url(#clip980)" d="M1823.66 1466.95 Q1827.02 1467.66 1828.89 1469.93 Q1830.79 1472.2 1830.79 1475.53 Q1830.79 1480.65 1827.27 1483.45 Q1823.75 1486.25 1817.27 1486.25 Q1815.09 1486.25 1812.78 1485.81 Q1810.49 1485.39 1808.03 1484.54 L1808.03 1480.02 Q1809.98 1481.16 1812.29 1481.74 Q1814.61 1482.32 1817.13 1482.32 Q1821.53 1482.32 1823.82 1480.58 Q1826.14 1478.84 1826.14 1475.53 Q1826.14 1472.48 1823.98 1470.77 Q1821.85 1469.03 1818.03 1469.03 L1814.01 1469.03 L1814.01 1465.19 L1818.22 1465.19 Q1821.67 1465.19 1823.5 1463.82 Q1825.33 1462.43 1825.33 1459.84 Q1825.33 1457.18 1823.43 1455.77 Q1821.55 1454.33 1818.03 1454.33 Q1816.11 1454.33 1813.91 1454.75 Q1811.72 1455.16 1809.08 1456.04 L1809.08 1451.88 Q1811.74 1451.14 1814.05 1450.77 Q1816.39 1450.39 1818.45 1450.39 Q1823.78 1450.39 1826.88 1452.83 Q1829.98 1455.23 1829.98 1459.35 Q1829.98 1462.22 1828.34 1464.21 Q1826.69 1466.18 1823.66 1466.95 Z" fill="#000000" fill-rule="evenodd" fill-opacity="1" /><path clip-path="url(#clip980)" d="M2355.77 1455.09 L2343.96 1473.54 L2355.77 1473.54 L2355.77 1455.09 M2354.54 1451.02 L2360.42 1451.02 L2360.42 1473.54 L2365.35 1473.54 L2365.35 1477.43 L2360.42 1477.43 L2360.42 1485.58 L2355.77 1485.58 L2355.77 1477.43 L2340.16 1477.43 L2340.16 1472.92 L2354.54 1451.02 Z" fill="#000000" fill-rule="evenodd" fill-opacity="1" /><path clip-path="url(#clip980)" d="M1298.69 1535.84 L1289.57 1572.52 Q1289.32 1573.68 1289.32 1573.97 Q1289.32 1574.35 1289.41 1574.51 Q1289.54 1574.71 1290.25 1574.87 Q1290.99 1575.03 1292.47 1575.03 Q1293.02 1575.03 1293.21 1575.03 Q1293.41 1575.03 1293.7 1575.09 Q1293.99 1575.16 1294.08 1575.32 Q1294.18 1575.48 1294.18 1575.74 Q1294.18 1577.06 1293.02 1577.06 Q1291.92 1577.06 1289.64 1576.96 Q1287.35 1576.87 1286.22 1576.87 Q1285.13 1576.87 1282.91 1576.96 Q1280.69 1577.06 1279.62 1577.06 Q1279.24 1577.06 1279.01 1576.87 Q1278.78 1576.7 1278.78 1576.51 L1278.75 1576.35 Q1278.75 1575.45 1279.11 1575.22 Q1279.46 1575.03 1280.27 1575.03 Q1283.04 1575 1283.84 1574.61 Q1284.65 1574.22 1285.03 1572.84 L1288 1561.05 Q1284.03 1565.01 1280.2 1565.01 Q1276.5 1565.01 1273.99 1562.12 Q1271.51 1559.18 1271.51 1554.45 Q1271.51 1550.94 1272.89 1547.4 Q1274.31 1543.85 1276.5 1541.18 Q1278.72 1538.51 1281.62 1536.83 Q1284.52 1535.13 1287.38 1535.13 Q1289.22 1535.13 1290.86 1536.19 Q1292.54 1537.25 1293.54 1539.73 Q1294.37 1538.32 1295.92 1536.77 Q1297.46 1535.19 1298.01 1535.19 Q1298.33 1535.19 1298.49 1535.42 Q1298.69 1535.61 1298.69 1535.84 M1292.6 1542.37 Q1292.6 1542.05 1292.34 1541.25 Q1292.12 1540.44 1291.6 1539.35 Q1291.12 1538.22 1289.99 1537.41 Q1288.87 1536.58 1287.38 1536.58 Q1285.26 1536.58 1282.97 1538.64 Q1280.72 1540.67 1279.24 1544.21 Q1278.3 1546.53 1277.24 1550.84 Q1276.18 1555.16 1276.18 1557.35 Q1276.18 1557.86 1276.21 1558.44 Q1276.27 1559.02 1276.53 1559.99 Q1276.79 1560.96 1277.17 1561.7 Q1277.59 1562.44 1278.43 1562.98 Q1279.27 1563.53 1280.4 1563.53 Q1282.84 1563.53 1285.29 1561.44 Q1287.74 1559.35 1288.77 1557.48 Q1288.9 1557.28 1290.73 1549.97 Q1292.6 1542.66 1292.6 1542.37 Z" fill="#000000" fill-rule="evenodd" fill-opacity="1" /><polyline clip-path="url(#clip983)" style="stroke:#000000; stroke-linecap:butt; stroke-linejoin:round; stroke-width:2; stroke-opacity:0.1; fill:none" points="
  219.38,1423.18 2352.76,1423.18 
  "/>
<polyline clip-path="url(#clip983)" style="stroke:#000000; stroke-linecap:butt; stroke-linejoin:round; stroke-width:2; stroke-opacity:0.1; fill:none" points="
  219.38,1147.99 2352.76,1147.99 
  "/>
<polyline clip-path="url(#clip983)" style="stroke:#000000; stroke-linecap:butt; stroke-linejoin:round; stroke-width:2; stroke-opacity:0.1; fill:none" points="
  219.38,872.806 2352.76,872.806 
  "/>
<polyline clip-path="url(#clip983)" style="stroke:#000000; stroke-linecap:butt; stroke-linejoin:round; stroke-width:2; stroke-opacity:0.1; fill:none" points="
  219.38,597.618 2352.76,597.618 
  "/>
<polyline clip-path="url(#clip983)" style="stroke:#000000; stroke-linecap:butt; stroke-linejoin:round; stroke-width:2; stroke-opacity:0.1; fill:none" points="
  219.38,322.431 2352.76,322.431 
  "/>
<polyline clip-path="url(#clip983)" style="stroke:#000000; stroke-linecap:butt; stroke-linejoin:round; stroke-width:2; stroke-opacity:0.1; fill:none" points="
  219.38,47.2441 2352.76,47.2441 
  "/>
<polyline clip-path="url(#clip980)" style="stroke:#000000; stroke-linecap:butt; stroke-linejoin:round; stroke-width:4; stroke-opacity:1; fill:none" points="
  219.38,1423.18 219.38,47.2441 
  "/>
<polyline clip-path="url(#clip980)" style="stroke:#000000; stroke-linecap:butt; stroke-linejoin:round; stroke-width:4; stroke-opacity:1; fill:none" points="
  219.38,1423.18 238.278,1423.18 
  "/>
<polyline clip-path="url(#clip980)" style="stroke:#000000; stroke-linecap:butt; stroke-linejoin:round; stroke-width:4; stroke-opacity:1; fill:none" points="
  219.38,1147.99 238.278,1147.99 
  "/>
<polyline clip-path="url(#clip980)" style="stroke:#000000; stroke-linecap:butt; stroke-linejoin:round; stroke-width:4; stroke-opacity:1; fill:none" points="
  219.38,872.806 238.278,872.806 
  "/>
<polyline clip-path="url(#clip980)" style="stroke:#000000; stroke-linecap:butt; stroke-linejoin:round; stroke-width:4; stroke-opacity:1; fill:none" points="
  219.38,597.618 238.278,597.618 
  "/>
<polyline clip-path="url(#clip980)" style="stroke:#000000; stroke-linecap:butt; stroke-linejoin:round; stroke-width:4; stroke-opacity:1; fill:none" points="
  219.38,322.431 238.278,322.431 
  "/>
<polyline clip-path="url(#clip980)" style="stroke:#000000; stroke-linecap:butt; stroke-linejoin:round; stroke-width:4; stroke-opacity:1; fill:none" points="
  219.38,47.2441 238.278,47.2441 
  "/>
<path clip-path="url(#clip980)" d="M126.205 1408.98 Q122.593 1408.98 120.765 1412.54 Q118.959 1416.08 118.959 1423.21 Q118.959 1430.32 120.765 1433.89 Q122.593 1437.43 126.205 1437.43 Q129.839 1437.43 131.644 1433.89 Q133.473 1430.32 133.473 1423.21 Q133.473 1416.08 131.644 1412.54 Q129.839 1408.98 126.205 1408.98 M126.205 1405.27 Q132.015 1405.27 135.07 1409.88 Q138.149 1414.46 138.149 1423.21 Q138.149 1431.94 135.07 1436.55 Q132.015 1441.13 126.205 1441.13 Q120.394 1441.13 117.316 1436.55 Q114.26 1431.94 114.26 1423.21 Q114.26 1414.46 117.316 1409.88 Q120.394 1405.27 126.205 1405.27 Z" fill="#000000" fill-rule="evenodd" fill-opacity="1" /><path clip-path="url(#clip980)" d="M146.366 1434.58 L151.251 1434.58 L151.251 1440.46 L146.366 1440.46 L146.366 1434.58 Z" fill="#000000" fill-rule="evenodd" fill-opacity="1" /><path clip-path="url(#clip980)" d="M171.436 1408.98 Q167.825 1408.98 165.996 1412.54 Q164.19 1416.08 164.19 1423.21 Q164.19 1430.32 165.996 1433.89 Q167.825 1437.43 171.436 1437.43 Q175.07 1437.43 176.876 1433.89 Q178.704 1430.32 178.704 1423.21 Q178.704 1416.08 176.876 1412.54 Q175.07 1408.98 171.436 1408.98 M171.436 1405.27 Q177.246 1405.27 180.301 1409.88 Q183.38 1414.46 183.38 1423.21 Q183.38 1431.94 180.301 1436.55 Q177.246 1441.13 171.436 1441.13 Q165.626 1441.13 162.547 1436.55 Q159.491 1431.94 159.491 1423.21 Q159.491 1414.46 162.547 1409.88 Q165.626 1405.27 171.436 1405.27 Z" fill="#000000" fill-rule="evenodd" fill-opacity="1" /><path clip-path="url(#clip980)" d="M127.2 1133.79 Q123.589 1133.79 121.76 1137.36 Q119.955 1140.9 119.955 1148.03 Q119.955 1155.13 121.76 1158.7 Q123.589 1162.24 127.2 1162.24 Q130.834 1162.24 132.64 1158.7 Q134.468 1155.13 134.468 1148.03 Q134.468 1140.9 132.64 1137.36 Q130.834 1133.79 127.2 1133.79 M127.2 1130.09 Q133.01 1130.09 136.066 1134.69 Q139.144 1139.28 139.144 1148.03 Q139.144 1156.75 136.066 1161.36 Q133.01 1165.94 127.2 1165.94 Q121.39 1165.94 118.311 1161.36 Q115.256 1156.75 115.256 1148.03 Q115.256 1139.28 118.311 1134.69 Q121.39 1130.09 127.2 1130.09 Z" fill="#000000" fill-rule="evenodd" fill-opacity="1" /><path clip-path="url(#clip980)" d="M147.362 1159.39 L152.246 1159.39 L152.246 1165.27 L147.362 1165.27 L147.362 1159.39 Z" fill="#000000" fill-rule="evenodd" fill-opacity="1" /><path clip-path="url(#clip980)" d="M162.477 1130.71 L180.834 1130.71 L180.834 1134.65 L166.76 1134.65 L166.76 1143.12 Q167.778 1142.77 168.797 1142.61 Q169.815 1142.43 170.834 1142.43 Q176.621 1142.43 180.001 1145.6 Q183.38 1148.77 183.38 1154.18 Q183.38 1159.76 179.908 1162.87 Q176.436 1165.94 170.116 1165.94 Q167.94 1165.94 165.672 1165.57 Q163.427 1165.2 161.019 1164.46 L161.019 1159.76 Q163.102 1160.9 165.325 1161.45 Q167.547 1162.01 170.024 1162.01 Q174.028 1162.01 176.366 1159.9 Q178.704 1157.8 178.704 1154.18 Q178.704 1150.57 176.366 1148.47 Q174.028 1146.36 170.024 1146.36 Q168.149 1146.36 166.274 1146.78 Q164.422 1147.19 162.477 1148.07 L162.477 1130.71 Z" fill="#000000" fill-rule="evenodd" fill-opacity="1" /><path clip-path="url(#clip980)" d="M117.015 886.15 L124.654 886.15 L124.654 859.785 L116.343 861.451 L116.343 857.192 L124.607 855.526 L129.283 855.526 L129.283 886.15 L136.922 886.15 L136.922 890.086 L117.015 890.086 L117.015 886.15 Z" fill="#000000" fill-rule="evenodd" fill-opacity="1" /><path clip-path="url(#clip980)" d="M146.366 884.206 L151.251 884.206 L151.251 890.086 L146.366 890.086 L146.366 884.206 Z" fill="#000000" fill-rule="evenodd" fill-opacity="1" /><path clip-path="url(#clip980)" d="M171.436 858.604 Q167.825 858.604 165.996 862.169 Q164.19 865.711 164.19 872.84 Q164.19 879.947 165.996 883.512 Q167.825 887.053 171.436 887.053 Q175.07 887.053 176.876 883.512 Q178.704 879.947 178.704 872.84 Q178.704 865.711 176.876 862.169 Q175.07 858.604 171.436 858.604 M171.436 854.901 Q177.246 854.901 180.301 859.507 Q183.38 864.09 183.38 872.84 Q183.38 881.567 180.301 886.174 Q177.246 890.757 171.436 890.757 Q165.626 890.757 162.547 886.174 Q159.491 881.567 159.491 872.84 Q159.491 864.09 162.547 859.507 Q165.626 854.901 171.436 854.901 Z" fill="#000000" fill-rule="evenodd" fill-opacity="1" /><path clip-path="url(#clip980)" d="M118.01 610.963 L125.649 610.963 L125.649 584.598 L117.339 586.264 L117.339 582.005 L125.603 580.338 L130.279 580.338 L130.279 610.963 L137.917 610.963 L137.917 614.898 L118.01 614.898 L118.01 610.963 Z" fill="#000000" fill-rule="evenodd" fill-opacity="1" /><path clip-path="url(#clip980)" d="M147.362 609.019 L152.246 609.019 L152.246 614.898 L147.362 614.898 L147.362 609.019 Z" fill="#000000" fill-rule="evenodd" fill-opacity="1" /><path clip-path="url(#clip980)" d="M162.477 580.338 L180.834 580.338 L180.834 584.274 L166.76 584.274 L166.76 592.746 Q167.778 592.399 168.797 592.236 Q169.815 592.051 170.834 592.051 Q176.621 592.051 180.001 595.223 Q183.38 598.394 183.38 603.81 Q183.38 609.389 179.908 612.491 Q176.436 615.57 170.116 615.57 Q167.94 615.57 165.672 615.199 Q163.427 614.829 161.019 614.088 L161.019 609.389 Q163.102 610.523 165.325 611.079 Q167.547 611.635 170.024 611.635 Q174.028 611.635 176.366 609.528 Q178.704 607.422 178.704 603.81 Q178.704 600.199 176.366 598.093 Q174.028 595.986 170.024 595.986 Q168.149 595.986 166.274 596.403 Q164.422 596.82 162.477 597.699 L162.477 580.338 Z" fill="#000000" fill-rule="evenodd" fill-opacity="1" /><path clip-path="url(#clip980)" d="M120.232 335.776 L136.552 335.776 L136.552 339.711 L114.607 339.711 L114.607 335.776 Q117.269 333.021 121.853 328.392 Q126.459 323.739 127.64 322.397 Q129.885 319.873 130.765 318.137 Q131.667 316.378 131.667 314.688 Q131.667 311.934 129.723 310.198 Q127.802 308.461 124.7 308.461 Q122.501 308.461 120.047 309.225 Q117.617 309.989 114.839 311.54 L114.839 306.818 Q117.663 305.684 120.117 305.105 Q122.57 304.526 124.607 304.526 Q129.978 304.526 133.172 307.211 Q136.367 309.897 136.367 314.387 Q136.367 316.517 135.556 318.438 Q134.769 320.336 132.663 322.929 Q132.084 323.6 128.982 326.818 Q125.88 330.012 120.232 335.776 Z" fill="#000000" fill-rule="evenodd" fill-opacity="1" /><path clip-path="url(#clip980)" d="M146.366 333.832 L151.251 333.832 L151.251 339.711 L146.366 339.711 L146.366 333.832 Z" fill="#000000" fill-rule="evenodd" fill-opacity="1" /><path clip-path="url(#clip980)" d="M171.436 308.23 Q167.825 308.23 165.996 311.795 Q164.19 315.336 164.19 322.466 Q164.19 329.572 165.996 333.137 Q167.825 336.679 171.436 336.679 Q175.07 336.679 176.876 333.137 Q178.704 329.572 178.704 322.466 Q178.704 315.336 176.876 311.795 Q175.07 308.23 171.436 308.23 M171.436 304.526 Q177.246 304.526 180.301 309.133 Q183.38 313.716 183.38 322.466 Q183.38 331.193 180.301 335.799 Q177.246 340.383 171.436 340.383 Q165.626 340.383 162.547 335.799 Q159.491 331.193 159.491 322.466 Q159.491 313.716 162.547 309.133 Q165.626 304.526 171.436 304.526 Z" fill="#000000" fill-rule="evenodd" fill-opacity="1" /><path clip-path="url(#clip980)" d="M121.228 60.5889 L137.547 60.5889 L137.547 64.5241 L115.603 64.5241 L115.603 60.5889 Q118.265 57.8343 122.848 53.2047 Q127.455 48.552 128.635 47.2094 Q130.88 44.6862 131.76 42.9501 Q132.663 41.1909 132.663 39.5011 Q132.663 36.7465 130.718 35.0104 Q128.797 33.2743 125.695 33.2743 Q123.496 33.2743 121.043 34.0381 Q118.612 34.802 115.834 36.3529 L115.834 31.6308 Q118.658 30.4965 121.112 29.9178 Q123.566 29.3391 125.603 29.3391 Q130.973 29.3391 134.167 32.0243 Q137.362 34.7094 137.362 39.2002 Q137.362 41.3298 136.552 43.2511 Q135.765 45.1492 133.658 47.7418 Q133.08 48.4131 129.978 51.6306 Q126.876 54.8251 121.228 60.5889 Z" fill="#000000" fill-rule="evenodd" fill-opacity="1" /><path clip-path="url(#clip980)" d="M147.362 58.6445 L152.246 58.6445 L152.246 64.5241 L147.362 64.5241 L147.362 58.6445 Z" fill="#000000" fill-rule="evenodd" fill-opacity="1" /><path clip-path="url(#clip980)" d="M162.477 29.9641 L180.834 29.9641 L180.834 33.8993 L166.76 33.8993 L166.76 42.3714 Q167.778 42.0242 168.797 41.8622 Q169.815 41.677 170.834 41.677 Q176.621 41.677 180.001 44.8483 Q183.38 48.0196 183.38 53.4362 Q183.38 59.0149 179.908 62.1167 Q176.436 65.1954 170.116 65.1954 Q167.94 65.1954 165.672 64.825 Q163.427 64.4547 161.019 63.7139 L161.019 59.0149 Q163.102 60.1491 165.325 60.7047 Q167.547 61.2602 170.024 61.2602 Q174.028 61.2602 176.366 59.1538 Q178.704 57.0473 178.704 53.4362 Q178.704 49.8251 176.366 47.7186 Q174.028 45.6122 170.024 45.6122 Q168.149 45.6122 166.274 46.0288 Q164.422 46.4455 162.477 47.3251 L162.477 29.9641 Z" fill="#000000" fill-rule="evenodd" fill-opacity="1" /><path clip-path="url(#clip980)" d="M41.6185 717.179 Q46.3206 717.179 50.8616 719.563 Q55.4027 721.914 58.2046 725.617 Q60.9743 729.321 60.9743 733.089 Q60.9743 735.344 59.7504 736.857 Q58.4944 738.339 56.7231 739.144 Q58.9131 739.756 64.1626 741.076 Q69.4122 742.397 69.9275 742.397 Q70.2173 742.397 70.3462 742.332 Q70.475 742.268 70.636 741.978 Q70.8293 741.688 70.8937 740.98 Q70.9903 740.271 70.9903 739.079 Q70.9903 738.467 70.9903 738.242 Q71.0225 737.984 71.1835 737.759 Q71.3446 737.501 71.6988 737.501 Q73.0193 737.501 73.0193 738.693 Q73.0193 739.756 72.9226 741.946 Q72.826 744.136 72.826 745.231 Q72.826 746.165 72.9226 748.033 Q73.0193 749.901 73.0193 750.77 Q73.0193 751.64 72.2463 751.64 Q71.7954 751.64 71.5056 751.511 Q71.2479 751.414 71.1191 751.157 Q71.0225 750.899 70.9903 750.674 Q70.9903 750.48 70.9903 750.094 Q70.9903 748.612 70.7326 747.968 Q70.5072 747.324 70.0241 747.099 Q69.5732 746.841 68.285 746.551 L38.9133 739.144 Q36.9487 738.693 35.5638 738.693 Q33.8247 738.693 33.1806 739.24 Q32.5365 739.788 32.5365 740.754 Q32.5365 742.429 34.5333 743.524 Q36.53 744.619 40.3947 745.553 Q41.4575 745.843 41.683 746.036 Q41.9084 746.197 41.9084 746.68 Q41.8762 747.485 41.2321 747.485 Q41.071 747.485 40.0405 747.227 Q38.9777 746.97 37.4318 746.487 Q35.8537 745.971 34.8553 745.424 Q34.179 745.102 33.7281 744.812 Q33.2772 744.522 32.5687 743.942 Q31.8602 743.331 31.4737 742.461 Q31.0872 741.591 31.0872 740.529 Q31.0872 738.467 32.3111 736.761 Q33.5349 735.054 36.0147 734.603 Q33.8569 732.767 32.4721 730.513 Q31.0872 728.258 31.0872 725.972 Q31.0872 722.171 34.0502 719.691 Q36.9809 717.179 41.6185 717.179 M38.72 721.946 Q35.7893 721.946 34.179 723.073 Q32.5365 724.168 32.5365 726.165 Q32.5365 728.645 35.0485 731.511 Q37.4318 734.345 39.654 734.925 L52.5685 738.178 L53.6313 738.371 Q53.8246 738.371 54.4043 738.274 Q54.9518 738.145 55.8535 737.791 Q56.7553 737.405 57.5604 736.889 Q58.3334 736.342 58.9131 735.376 Q59.4928 734.377 59.4928 733.154 Q59.4928 731.189 57.7537 729.063 Q56.0146 726.906 52.7296 725.295 Q50.604 724.297 46.0307 723.138 Q41.4253 721.946 38.72 721.946 Z" fill="#000000" fill-rule="evenodd" fill-opacity="1" /><polyline clip-path="url(#clip983)" style="stroke:#009af9; stroke-linecap:butt; stroke-linejoin:round; stroke-width:8; stroke-opacity:1; fill:none" points="
  1419.4,597.618 1428.39,600.816 1437.34,604.207 1446.24,607.79 1455.08,611.56 1463.85,615.512 1472.55,619.643 1481.16,623.948 1489.68,628.421 1498.1,633.058 
  1506.4,637.852 1514.59,642.799 1522.66,647.892 1530.58,653.124 1538.37,658.491 1546.01,663.985 1553.48,669.6 1560.79,675.329 1567.93,681.165 1574.89,687.103 
  1581.67,693.134 1588.25,699.252 1594.63,705.449 1600.8,711.72 1606.77,718.057 1612.52,724.452 1618.04,730.899 1623.35,737.391 1628.42,743.921 1633.25,750.482 
  1637.85,757.068 1642.21,763.672 1646.33,770.289 1650.19,776.913 1653.81,783.536 1657.18,790.154 1660.29,796.762 1663.16,803.352 1665.76,809.921 1668.12,816.462 
  1670.22,822.971 1672.06,829.443 1673.65,835.874 1674.99,842.259 1676.08,848.594 1676.92,854.875 1677.51,861.1 1677.85,867.263 1677.95,873.363 1677.81,879.395 
  1677.43,885.357 1676.81,891.246 1675.97,897.06 1674.89,902.796 1673.59,908.452 1672.06,914.026 1670.32,919.516 1668.36,924.921 1666.2,930.239 1663.83,935.47 
  1661.26,940.611 1658.49,945.663 1655.54,950.624 1652.4,955.493 1649.07,960.269 1645.57,964.953 1641.9,969.544 1638.07,974.041 1634.07,978.445 1629.91,982.756 
  1625.61,986.973 1621.16,991.096 1616.56,995.126 1611.84,999.063 1606.98,1002.91 1601.99,1006.66 1596.88,1010.32 1591.66,1013.88 1586.32,1017.36 1580.88,1020.74 
  1575.33,1024.04 1569.69,1027.24 1563.95,1030.36 1558.13,1033.39 1552.22,1036.33 1546.24,1039.19 1540.18,1041.96 1534.05,1044.64 1527.85,1047.24 1521.59,1049.76 
  1515.28,1052.19 1508.91,1054.54 1502.49,1056.82 1496.03,1059.01 1489.52,1061.12 1482.98,1063.16 1476.4,1065.11 1469.79,1066.99 1463.15,1068.8 1456.49,1070.53 
  1449.8,1072.18 1443.1,1073.77 1436.39,1075.27 1429.66,1076.71 1422.92,1078.08 1416.18,1079.37 1409.44,1080.6 1402.69,1081.75 1395.95,1082.84 1389.21,1083.86 
  1382.48,1084.81 1375.76,1085.69 1369.05,1086.51 1362.35,1087.27 1355.68,1087.96 1349.02,1088.58 1342.38,1089.14 1335.76,1089.64 1329.17,1090.08 1322.6,1090.45 
  1316.07,1090.76 1309.56,1091.01 1303.09,1091.2 1296.64,1091.33 1290.24,1091.4 1283.87,1091.41 1277.54,1091.36 1271.25,1091.25 1265,1091.08 1258.79,1090.86 
  1252.63,1090.57 1246.51,1090.23 1240.44,1089.83 1234.42,1089.37 1228.44,1088.86 1222.52,1088.29 1216.65,1087.66 1210.83,1086.98 1205.07,1086.24 1199.35,1085.44 
  1193.7,1084.59 1188.1,1083.68 1182.56,1082.72 1177.07,1081.7 1171.65,1080.62 1166.28,1079.49 1160.97,1078.3 1155.73,1077.06 1150.54,1075.76 1145.42,1074.41 
  1140.36,1073 1135.36,1071.54 1130.43,1070.02 1125.56,1068.44 1120.76,1066.81 1116.02,1065.13 1111.35,1063.39 1106.74,1061.59 1102.21,1059.74 1097.74,1057.83 
  1093.34,1055.87 1089.01,1053.85 1084.75,1051.77 1080.56,1049.64 1076.44,1047.45 1072.39,1045.2 1068.41,1042.9 1064.51,1040.54 1060.68,1038.13 1056.92,1035.65 
  1053.23,1033.12 1049.62,1030.54 1046.09,1027.9 1042.63,1025.2 1039.24,1022.44 1035.93,1019.62 1032.7,1016.75 1029.55,1013.83 1026.47,1010.84 1023.47,1007.8 
  1020.55,1004.7 1017.71,1001.54 1014.94,998.328 1012.26,995.056 1009.66,991.728 1007.14,988.342 1004.69,984.899 1002.33,981.399 1000.06,977.842 997.86,974.229 
  995.747,970.561 993.719,966.837 991.774,963.058 989.915,959.223 988.141,955.332 986.453,951.386 984.852,947.383 983.339,943.326 981.913,939.213 980.576,935.045 
  979.329,930.823 978.171,926.547 977.104,922.217 976.129,917.833 975.246,913.398 974.456,908.911 973.76,904.372 973.158,899.784 972.651,895.146 972.241,890.46 
  971.928,885.726 971.712,880.946 971.595,876.121 971.577,871.251 971.66,866.339 971.844,861.386 972.13,856.393 972.519,851.36 973.012,846.291 973.61,841.186 
  974.314,836.048 975.125,830.877 976.044,825.676 977.071,820.446 978.209,815.189 979.457,809.908 980.817,804.604 982.29,799.279 983.877,793.936 985.58,788.576 
  987.398,783.203 989.334,777.817 991.389,772.423 993.563,767.021 995.855,761.614 998.266,756.205 1000.8,750.797 1003.46,745.394 1006.24,740.001 1009.15,734.62 
  1012.18,729.256 1015.35,723.912 1018.64,718.592 1022.07,713.3 1025.63,708.041 1029.32,702.817 1033.14,697.634 1037.1,692.495 1041.2,687.405 1045.43,682.367 
  1049.8,677.386 1054.3,672.466 1058.95,667.612 1063.73,662.827 1068.64,658.117 1073.7,653.486 1078.89,648.938 1084.22,644.477 1089.68,640.109 1095.28,635.838 
  1101.02,631.669 1106.9,627.606 1112.91,623.654 1119.05,619.819 1125.33,616.104 1131.74,612.515 1138.28,609.056 1144.96,605.734 1151.76,602.552 1158.69,599.515 
  1165.75,596.63 1172.94,593.901 1180.25,591.333 1187.68,588.931 1195.23,586.702 1202.91,584.65 1210.71,582.79 1218.65,581.129 1226.71,579.667 1234.89,578.405 
  1243.17,577.345 1251.56,576.487 1260.03,575.831 1268.59,575.378 1277.23,575.129 1285.94,575.083 1294.71,575.239 1303.53,575.599 1312.4,576.162 1321.32,576.926 
  1330.26,577.891 1339.23,579.057 1348.22,580.422 1357.22,581.986 1366.23,583.746 1375.23,585.701 1384.22,587.849 1393.19,590.189 1402.14,592.719 1411.06,595.436 
  1419.95,598.338 1428.78,601.423 1437.57,604.688 1446.29,608.13 1454.95,611.745 1463.54,615.532 1472.05,619.487 1480.48,623.606 1488.81,627.885 1497.05,632.321 
  1505.18,636.911 1513.2,641.648 1521.1,646.531 1528.88,651.553 1536.53,656.711 1544.04,662 1551.4,667.414 1558.62,672.949 1565.68,678.6 1572.58,684.361 
  1579.32,690.226 1585.88,696.191 1592.25,702.248 1598.45,708.392 1604.45,714.617 1610.25,720.917 1615.85,727.284 1621.24,733.713 1626.42,740.195 1631.37,746.726 
  1636.1,753.296 1640.59,759.9 1644.85,766.527 1648.86,773.167 1652.63,779.812 1656.15,786.456 1659.43,793.094 1662.45,799.719 1665.22,806.326 1667.74,812.909 
  1670.01,819.463 1672.02,825.984 1673.78,832.465 1675.29,838.904 1676.54,845.295 1677.54,851.633 1678.29,857.916 1678.79,864.139 1679.04,870.299 1679.04,876.392 
  1678.8,882.415 1678.32,888.365 1677.6,894.24 1676.64,900.036 1675.45,905.751 1674.03,911.384 1672.38,916.932 1670.52,922.393 1668.43,927.767 1666.13,933.05 
  1663.63,938.244 1660.92,943.345 1658.02,948.355 1654.92,953.271 1651.64,958.095 1648.19,962.825 1644.56,967.462 1640.76,972.006 1636.81,976.458 1632.71,980.817 
  1628.46,985.086 1624.07,989.261 1619.54,993.341 1614.86,997.327 1610.05,1001.22 1605.11,1005.02 1600.04,1008.72 1594.86,1012.34 1589.56,1015.86 1584.15,1019.29 
  1578.64,1022.64 1573.03,1025.89 1567.33,1029.05 1561.54,1032.13 1555.66,1035.12 1549.7,1038.02 1543.66,1040.84 1537.55,1043.57 1531.38,1046.22 1525.14,1048.78 
  1518.84,1051.26 1512.49,1053.66 1506.08,1055.97 1499.63,1058.21 1493.13,1060.36 1486.6,1062.44 1480.02,1064.43 1473.42,1066.35 1466.78,1068.2 1460.12,1069.96 
  1453.44,1071.65 1446.74,1073.27 1440.02,1074.81 1433.28,1076.28 1426.54,1077.68 1419.79,1079.01 1413.04,1080.26 1406.28,1081.45 1399.53,1082.57 1392.78,1083.62 
  1386.03,1084.61 1379.29,1085.53 1372.57,1086.38 1365.85,1087.17 1359.15,1087.89 1352.47,1088.55 1345.81,1089.14 1339.16,1089.68 1332.54,1090.14 1325.95,1090.55 
  1319.38,1090.89 1312.84,1091.18 1306.33,1091.4 1299.85,1091.56 1293.41,1091.66 1287.01,1091.7 1280.64,1091.68 1274.31,1091.6 1268.02,1091.46 1261.77,1091.27 
  1255.57,1091.01 1249.42,1090.7 1243.31,1090.33 1237.24,1089.9 1231.23,1089.42 1225.27,1088.87 1219.36,1088.27 1213.5,1087.62 1207.7,1086.91 1201.95,1086.14 
  1196.26,1085.31 1190.63,1084.43 1185.05,1083.5 1179.54,1082.5 1174.08,1081.46 1168.68,1080.35 1163.35,1079.19 1158.08,1077.98 1152.86,1076.71 1147.72,1075.39 
  1142.63,1074.01 1137.62,1072.57 1132.66,1071.08 1127.77,1069.53 1122.95,1067.93 1118.19,1066.27 1113.5,1064.56 1108.87,1062.79 1104.32,1060.97 1099.82,1059.09 
  1095.4,1057.16 1091.04,1055.16 1086.75,1053.12 1082.52,1051.01 1078.36,1048.85 1074.27,1046.64 1070.26,1044.37 1066.31,1042.04 1062.44,1039.66 1058.64,1037.22 
  1054.91,1034.72 1051.25,1032.17 1047.67,1029.56 1044.17,1026.89 1040.74,1024.17 1037.38,1021.39 1034.1,1018.55 1030.9,1015.65 1027.78,1012.7 1024.73,1009.69 
  1021.76,1006.62 1018.87,1003.49 1016.06,1000.3 1013.32,997.056 1010.67,993.754 1008.1,990.394 1005.61,986.976 1003.2,983.5 1000.87,979.967 998.629,976.377 
  996.468,972.729 994.391,969.025 992.399,965.264 990.491,961.447 988.67,957.573 986.934,953.644 985.286,949.66 983.725,945.62 982.252,941.526 980.867,937.378 
  979.572,933.176 978.367,928.92 977.253,924.612 976.23,920.252 975.298,915.839 974.46,911.376 973.714,906.862 973.062,902.298 972.505,897.685 972.043,893.023 
  971.677,888.313 971.408,883.557 971.235,878.754 971.158,873.909 971.179,869.02 971.3,864.09 971.522,859.119 971.845,854.109 972.272,849.062 972.804,843.977 
  973.442,838.857 974.187,833.704 975.041,828.519 976.005,823.304 977.079,818.06 978.265,812.791 979.565,807.497 980.978,802.181 982.507,796.845 984.153,791.491 
  985.916,786.123 987.797,780.741 989.797,775.35 991.918,769.951 994.161,764.548 996.525,759.143 999.013,753.739 1001.62,748.339 1004.36,742.947 1007.22,737.565 
  1010.21,732.197 1013.33,726.847 1016.57,721.517 1019.94,716.212 1023.44,710.935 1027.07,705.69 1030.84,700.481 1034.73,695.311 1038.76,690.186 1042.91,685.108 
  1047.2,680.082 1051.63,675.113 1056.19,670.205 1060.88,665.362 1065.71,660.59 1070.67,655.892 1075.77,651.273 1081.01,646.739 1086.38,642.294 1091.89,637.944 
  1097.53,633.693 1103.32,629.547 1109.24,625.511 1115.3,621.591 1121.5,617.792 1127.84,614.119 1134.31,610.579 1140.93,607.175 1147.69,603.911 1154.6,600.791 
  1161.64,597.822 1168.82,595.009 1176.13,592.357 1183.56,589.87 1191.12,587.553 1198.8,585.41 1206.59,583.446 1214.49,581.662 1222.5,580.065 1230.6,578.655 
  1238.81,577.437 1247.1,576.413 1255.48,575.585 1263.94,574.957 1272.48,574.529 1281.09,574.303 1289.77,574.282 1298.5,574.466 1307.29,574.855 1316.13,575.452 
  1325.01,576.256 1333.93,577.268 1342.88,578.487 1351.85,579.913 1360.84,581.546 1369.85,583.386 1378.85,585.43 1387.86,587.678 1396.86,590.128 1405.85,592.778 
  1414.82,595.627 1423.75,598.673 1432.65,601.911 1441.51,605.341 1450.32,608.959 1459.07,612.761 1467.76,616.745 1476.37,620.906 1484.9,625.24 1493.34,629.744 
  1501.69,634.412 1509.93,639.24 1518.06,644.223 1526.07,649.356 1533.95,654.633 1541.69,660.048 1549.28,665.596 1556.72,671.27 1564.01,677.061 1571.12,682.962 
  1578.07,688.964 1584.83,695.06 1591.4,701.242 1597.77,707.503 1603.95,713.835 1609.91,720.231 1615.65,726.684 1621.17,733.188 1626.47,739.734 1631.53,746.318 
  1636.36,752.932 1640.94,759.569 1645.28,766.224 1649.37,772.891 1653.21,779.564 1656.8,786.236 1660.13,792.903 1663.2,799.558 1666.01,806.197 1668.56,812.814 
  1670.84,819.404 1672.87,825.963 1674.63,832.484 1676.13,838.965 1677.37,845.4 1678.36,851.784 1679.08,858.115 1679.54,864.386 1679.75,870.596 1679.71,876.739 
  1679.43,882.813 1678.89,888.813 1678.12,894.737 1677.11,900.58 1675.86,906.341 1674.39,912.016 1672.7,917.601 1670.79,923.096 1668.67,928.496 1666.35,933.801 
  1663.83,939.006 1661.12,944.112 1658.22,949.123 1655.13,954.041 1651.85,958.866 1648.39,963.597 1644.76,968.234 1640.96,972.778 1637,977.228 1632.88,981.585 
  1628.6,985.847 1624.18,990.017 1619.61,994.093 1614.91,998.075 1610.07,1001.96 1605.11,1005.76 1600.02,1009.47 1594.82,1013.08 1589.5,1016.6 1584.07,1020.03 
  1578.54,1023.37 1572.91,1026.62 1567.19,1029.77 1561.37,1032.84 1555.47,1035.82 1549.49,1038.72 1543.43,1041.52 1537.3,1044.24 1531.1,1046.87 1524.83,1049.42 
  1518.51,1051.88 1512.13,1054.27 1505.7,1056.56 1499.22,1058.78 1492.7,1060.92 1486.14,1062.98 1479.54,1064.96 1472.91,1066.86 1466.26,1068.69 1459.57,1070.44 
  1452.87,1072.12 1446.15,1073.73 1439.42,1075.27 1432.68,1076.73 1425.92,1078.13 1419.15,1079.45 1412.38,1080.7 1405.61,1081.89 1398.84,1083 1392.07,1084.05 
  1385.3,1085.03 1378.55,1085.94 1371.8,1086.78 1365.07,1087.56 1358.35,1088.28 1351.66,1088.93 1344.98,1089.51 1338.32,1090.03 1331.69,1090.49 1325.08,1090.89 
  1318.51,1091.22 1311.96,1091.5 1305.45,1091.71 1298.97,1091.86 1292.52,1091.95 1286.12,1091.99 1279.75,1091.96 1273.43,1091.87 1267.14,1091.73 1260.9,1091.52 
  1254.71,1091.26 1248.56,1090.94 1242.47,1090.56 1236.42,1090.13 1230.42,1089.64 1224.47,1089.09 1218.58,1088.49 1212.73,1087.82 1206.95,1087.11 1201.22,1086.33 
  1195.54,1085.5 1189.92,1084.62 1184.36,1083.68 1178.86,1082.68 1173.41,1081.63 1168.03,1080.52 1162.7,1079.36 1157.44,1078.14 1152.23,1076.86 1147.09,1075.53 
  1142.01,1074.15 1136.98,1072.7 1132.02,1071.21 1127.12,1069.65 1122.28,1068.04 1117.51,1066.38 1112.8,1064.66 1108.15,1062.89 1103.58,1061.06 1099.07,1059.17 
  1094.63,1057.23 1090.26,1055.23 1085.96,1053.18 1081.73,1051.07 1077.57,1048.91 1073.48,1046.69 1069.47,1044.41 1065.52,1042.07 1061.65,1039.68 1057.85,1037.23 
  1054.12,1034.72 1050.47,1032.16 1046.89,1029.53 1043.39,1026.85 1039.96,1024.12 1036.61,1021.32 1033.33,1018.47 1030.14,1015.56 1027.02,1012.59 1023.97,1009.56 
  1021.01,1006.48 1018.13,1003.34 1015.32,1000.14 1012.6,996.886 1009.95,993.572 1007.39,990.201 1004.91,986.773 1002.51,983.288 1000.19,979.746 997.955,976.147 
  995.804,972.491 993.737,968.779 991.755,965.011 989.858,961.186 988.047,957.306 986.322,953.37 984.683,949.378 983.131,945.331 981.667,941.229 980.292,937.073 
  979.004,932.862 977.806,928.598 976.698,924.279 975.679,919.91 974.751,915.491 973.914,911.022 973.17,906.505 972.52,901.939 971.964,897.325 971.504,892.662 
  971.14,887.953 970.874,883.197 970.707,878.395 970.64,873.548 970.673,868.657 970.808,863.723 971.045,858.747 971.387,853.731 971.832,848.675 972.384,843.582 
  973.042,838.452 973.807,833.288 974.681,828.091 975.665,822.863 976.759,817.605 977.965,812.321 979.283,807.011 980.714,801.678 982.26,796.325 983.92,790.954 
  985.698,785.566 987.592,780.166 989.604,774.755 991.736,769.336 993.987,763.912 996.359,758.486 998.853,753.061 1001.47,747.641 1004.21,742.227 1007.08,736.825 
  1010.07,731.436 1013.18,726.066 1016.43,720.716 1019.8,715.391 1023.3,710.095 1026.94,704.832 1030.7,699.605 1034.59,694.419 1038.62,689.277 1042.78,684.185 
  1047.08,679.146 1051.51,674.165 1056.08,669.247 1060.78,664.395 1065.62,659.616 1070.6,654.913 1075.73,650.292 1080.99,645.757 1086.39,641.314 1091.94,636.965 
  1097.63,632.712 1103.47,628.561 1109.46,624.518 1115.59,620.59 1121.86,616.783 1128.27,613.104 1134.82,609.558 1141.5,606.15 1148.32,602.887 1155.27,599.773 
  1162.35,596.814 1169.55,594.014 1176.88,591.377 1184.33,588.908 1191.9,586.611 1199.58,584.49 1207.37,582.548 1215.27,580.79 1223.27,579.217 1231.37,577.834 
  1239.57,576.642 1247.86,575.645 1256.23,574.844 1264.69,574.242 1273.22,573.841 1281.83,573.642 1290.5,573.647 1299.24,573.857 1308.03,574.274 1316.88,574.896 
  1325.77,575.727 1334.7,576.764 1343.67,578.01 1352.67,579.464 1361.68,581.124 1370.72,582.992 1379.76,585.066 1388.81,587.345 1397.85,589.828 1406.88,592.513 
  1415.89,595.399 1424.88,598.484 1433.83,601.766 1442.75,605.243 1451.61,608.912 1460.42,612.77 1469.16,616.815 1477.84,621.042 1486.43,625.45 1494.93,630.033 
  1503.33,634.784 1511.63,639.694 1519.81,644.757 1527.86,649.965 1535.77,655.31 1543.54,660.787 1551.16,666.387 1558.61,672.104 1565.9,677.93 1573.01,683.859 
  1579.93,689.884 1586.66,695.999 1593.19,702.195 1599.52,708.468 1605.63,714.81 1611.53,721.214 1617.21,727.675 1622.67,734.186 1627.89,740.741 1632.88,747.333 
  1637.63,753.956 1642.14,760.605 1646.4,767.272 1650.42,773.953 1654.18,780.641 1657.69,787.331 1660.95,794.016 1663.95,800.692 1666.69,807.351 1669.18,813.99 
  1671.4,820.602 1673.37,827.181 1675.08,833.724 1676.53,840.223 1677.72,846.675 1678.65,853.073 1679.33,859.413 1679.76,865.69 1679.94,871.899 1679.87,878.034 
  1679.55,884.092 1678.99,890.067 1678.19,895.954 1677.16,901.749 1675.89,907.451 1674.4,913.068 1672.69,918.6 1670.76,924.047 1668.62,929.406 1666.28,934.677 
  1663.73,939.86 1660.99,944.952 1658.06,949.954 1654.93,954.865 1651.63,959.683 1648.15,964.409 1644.5,969.042 1640.68,973.582 1636.7,978.027 1632.56,982.378 
  1628.26,986.635 1623.82,990.797 1619.24,994.865 1614.51,998.838 1609.66,1002.72 1604.67,1006.5 1599.56,1010.19 1594.33,1013.79 1588.99,1017.29 1583.53,1020.7 
  1577.97,1024.01 1572.31,1027.24 1566.56,1030.37 1560.71,1033.41 1554.77,1036.36 1548.76,1039.23 1542.66,1042 1536.5,1044.69 1530.26,1047.29 1523.96,1049.81 
  1517.61,1052.24 1511.2,1054.59 1504.74,1056.86 1498.23,1059.05 1491.69,1061.16 1485.1,1063.2 1478.49,1065.16 1471.85,1067.04 1465.19,1068.86 1458.51,1070.6 
  
  "/>
<circle clip-path="url(#clip983)" cx="1419.4" cy="597.618" r="14" fill="#e26f46" fill-rule="evenodd" fill-opacity="1" stroke="#000000" stroke-opacity="1" stroke-width="3.2"/>
<circle clip-path="url(#clip983)" cx="1629.41" cy="669.855" r="14" fill="#e26f46" fill-rule="evenodd" fill-opacity="1" stroke="#000000" stroke-opacity="1" stroke-width="3.2"/>
<circle clip-path="url(#clip983)" cx="1811.39" cy="839.589" r="14" fill="#e26f46" fill-rule="evenodd" fill-opacity="1" stroke="#000000" stroke-opacity="1" stroke-width="3.2"/>
<circle clip-path="url(#clip983)" cx="1845.02" cy="1040.77" r="14" fill="#e26f46" fill-rule="evenodd" fill-opacity="1" stroke="#000000" stroke-opacity="1" stroke-width="3.2"/>
<circle clip-path="url(#clip983)" cx="1671.38" cy="1181.04" r="14" fill="#e26f46" fill-rule="evenodd" fill-opacity="1" stroke="#000000" stroke-opacity="1" stroke-width="3.2"/>
<circle clip-path="url(#clip983)" cx="1386.76" cy="1242.27" r="14" fill="#e26f46" fill-rule="evenodd" fill-opacity="1" stroke="#000000" stroke-opacity="1" stroke-width="3.2"/>
<circle clip-path="url(#clip983)" cx="1112.48" cy="1254.22" r="14" fill="#e26f46" fill-rule="evenodd" fill-opacity="1" stroke="#000000" stroke-opacity="1" stroke-width="3.2"/>
<circle clip-path="url(#clip983)" cx="895.856" cy="1234.97" r="14" fill="#e26f46" fill-rule="evenodd" fill-opacity="1" stroke="#000000" stroke-opacity="1" stroke-width="3.2"/>
<circle clip-path="url(#clip983)" cx="740.054" cy="1186.78" r="14" fill="#e26f46" fill-rule="evenodd" fill-opacity="1" stroke="#000000" stroke-opacity="1" stroke-width="3.2"/>
<circle clip-path="url(#clip983)" cx="636.093" cy="1102.08" r="14" fill="#e26f46" fill-rule="evenodd" fill-opacity="1" stroke="#000000" stroke-opacity="1" stroke-width="3.2"/>
<circle clip-path="url(#clip983)" cx="575.336" cy="965.112" r="14" fill="#e26f46" fill-rule="evenodd" fill-opacity="1" stroke="#000000" stroke-opacity="1" stroke-width="3.2"/>
<circle clip-path="url(#clip983)" cx="554.442" cy="751.465" r="14" fill="#e26f46" fill-rule="evenodd" fill-opacity="1" stroke="#000000" stroke-opacity="1" stroke-width="3.2"/>
<circle clip-path="url(#clip983)" cx="580.296" cy="428.962" r="14" fill="#e26f46" fill-rule="evenodd" fill-opacity="1" stroke="#000000" stroke-opacity="1" stroke-width="3.2"/>
<circle clip-path="url(#clip983)" cx="1935.35" cy="1369.76" r="14" fill="#e26f46" fill-rule="evenodd" fill-opacity="1" stroke="#000000" stroke-opacity="1" stroke-width="3.2"/>
<circle clip-path="url(#clip983)" cx="1393.06" cy="1392.52" r="14" fill="#e26f46" fill-rule="evenodd" fill-opacity="1" stroke="#000000" stroke-opacity="1" stroke-width="3.2"/>
<circle clip-path="url(#clip983)" cx="1005.15" cy="1394.67" r="14" fill="#e26f46" fill-rule="evenodd" fill-opacity="1" stroke="#000000" stroke-opacity="1" stroke-width="3.2"/>
<circle clip-path="url(#clip983)" cx="744.377" cy="1389.42" r="14" fill="#e26f46" fill-rule="evenodd" fill-opacity="1" stroke="#000000" stroke-opacity="1" stroke-width="3.2"/>
<circle clip-path="url(#clip983)" cx="571.9" cy="1377.42" r="14" fill="#e26f46" fill-rule="evenodd" fill-opacity="1" stroke="#000000" stroke-opacity="1" stroke-width="3.2"/>
<circle clip-path="url(#clip983)" cx="458.777" cy="1355.97" r="14" fill="#e26f46" fill-rule="evenodd" fill-opacity="1" stroke="#000000" stroke-opacity="1" stroke-width="3.2"/>
<circle clip-path="url(#clip983)" cx="385.22" cy="1319.48" r="14" fill="#e26f46" fill-rule="evenodd" fill-opacity="1" stroke="#000000" stroke-opacity="1" stroke-width="3.2"/>
<circle clip-path="url(#clip983)" cx="338.113" cy="1258.18" r="14" fill="#e26f46" fill-rule="evenodd" fill-opacity="1" stroke="#000000" stroke-opacity="1" stroke-width="3.2"/>
<circle clip-path="url(#clip983)" cx="309.015" cy="1155.53" r="14" fill="#e26f46" fill-rule="evenodd" fill-opacity="1" stroke="#000000" stroke-opacity="1" stroke-width="3.2"/>
<circle clip-path="url(#clip983)" cx="292.899" cy="983.919" r="14" fill="#e26f46" fill-rule="evenodd" fill-opacity="1" stroke="#000000" stroke-opacity="1" stroke-width="3.2"/>
<circle clip-path="url(#clip983)" cx="287.704" cy="697.629" r="14" fill="#e26f46" fill-rule="evenodd" fill-opacity="1" stroke="#000000" stroke-opacity="1" stroke-width="3.2"/>
<circle clip-path="url(#clip983)" cx="295.316" cy="222.276" r="14" fill="#e26f46" fill-rule="evenodd" fill-opacity="1" stroke="#000000" stroke-opacity="1" stroke-width="3.2"/>
<path clip-path="url(#clip980)" d="
M1487.04 248.629 L2281.64 248.629 L2281.64 93.1086 L1487.04 93.1086  Z
  " fill="#ffffff" fill-rule="evenodd" fill-opacity="1"/>
<polyline clip-path="url(#clip980)" style="stroke:#000000; stroke-linecap:butt; stroke-linejoin:round; stroke-width:4; stroke-opacity:1; fill:none" points="
  1487.04,248.629 2281.64,248.629 2281.64,93.1086 1487.04,93.1086 1487.04,248.629 
  "/>
<polyline clip-path="url(#clip980)" style="stroke:#009af9; stroke-linecap:butt; stroke-linejoin:round; stroke-width:4; stroke-opacity:1; fill:none" points="
  1511.04,144.949 1655.04,144.949 
  "/>
<path clip-path="url(#clip980)" d="M1695.43 146.025 Q1696.93 146.534 1698.35 148.201 Q1699.78 149.868 1701.22 152.784 L1705.96 162.229 L1700.94 162.229 L1696.52 153.363 Q1694.8 149.891 1693.18 148.756 Q1691.59 147.622 1688.81 147.622 L1683.72 147.622 L1683.72 162.229 L1679.04 162.229 L1679.04 127.669 L1689.6 127.669 Q1695.52 127.669 1698.44 130.145 Q1701.35 132.622 1701.35 137.622 Q1701.35 140.886 1699.83 143.039 Q1698.32 145.192 1695.43 146.025 M1683.72 131.511 L1683.72 143.78 L1689.6 143.78 Q1692.97 143.78 1694.69 142.229 Q1696.42 140.655 1696.42 137.622 Q1696.42 134.59 1694.69 133.062 Q1692.97 131.511 1689.6 131.511 L1683.72 131.511 Z" fill="#000000" fill-rule="evenodd" fill-opacity="1" /><path clip-path="url(#clip980)" d="M1731.84 148.201 L1731.84 150.284 L1712.26 150.284 Q1712.54 154.682 1714.9 156.997 Q1717.28 159.289 1721.52 159.289 Q1723.97 159.289 1726.26 158.687 Q1728.58 158.085 1730.85 156.881 L1730.85 160.909 Q1728.55 161.881 1726.15 162.391 Q1723.74 162.9 1721.26 162.9 Q1715.06 162.9 1711.42 159.289 Q1707.81 155.678 1707.81 149.52 Q1707.81 143.155 1711.24 139.428 Q1714.69 135.678 1720.52 135.678 Q1725.75 135.678 1728.78 139.057 Q1731.84 142.414 1731.84 148.201 M1727.58 146.951 Q1727.53 143.456 1725.61 141.372 Q1723.72 139.289 1720.57 139.289 Q1717 139.289 1714.85 141.303 Q1712.72 143.317 1712.4 146.974 L1727.58 146.951 Z" fill="#000000" fill-rule="evenodd" fill-opacity="1" /><path clip-path="url(#clip980)" d="M1751.96 126.21 L1751.96 129.752 L1747.88 129.752 Q1745.59 129.752 1744.69 130.678 Q1743.81 131.604 1743.81 134.011 L1743.81 136.303 L1750.82 136.303 L1750.82 139.613 L1743.81 139.613 L1743.81 162.229 L1739.53 162.229 L1739.53 139.613 L1735.45 139.613 L1735.45 136.303 L1739.53 136.303 L1739.53 134.497 Q1739.53 130.169 1741.54 128.201 Q1743.55 126.21 1747.93 126.21 L1751.96 126.21 Z" fill="#000000" fill-rule="evenodd" fill-opacity="1" /><path clip-path="url(#clip980)" d="M1777.7 148.201 L1777.7 150.284 L1758.11 150.284 Q1758.39 154.682 1760.75 156.997 Q1763.14 159.289 1767.37 159.289 Q1769.83 159.289 1772.12 158.687 Q1774.43 158.085 1776.7 156.881 L1776.7 160.909 Q1774.41 161.881 1772 162.391 Q1769.59 162.9 1767.12 162.9 Q1760.91 162.9 1757.28 159.289 Q1753.67 155.678 1753.67 149.52 Q1753.67 143.155 1757.1 139.428 Q1760.54 135.678 1766.38 135.678 Q1771.61 135.678 1774.64 139.057 Q1777.7 142.414 1777.7 148.201 M1773.44 146.951 Q1773.39 143.456 1771.47 141.372 Q1769.57 139.289 1766.42 139.289 Q1762.86 139.289 1760.71 141.303 Q1758.58 143.317 1758.25 146.974 L1773.44 146.951 Z" fill="#000000" fill-rule="evenodd" fill-opacity="1" /><path clip-path="url(#clip980)" d="M1799.71 140.284 Q1798.99 139.868 1798.14 139.682 Q1797.3 139.474 1796.28 139.474 Q1792.67 139.474 1790.73 141.835 Q1788.81 144.173 1788.81 148.571 L1788.81 162.229 L1784.53 162.229 L1784.53 136.303 L1788.81 136.303 L1788.81 140.331 Q1790.15 137.969 1792.3 136.835 Q1794.46 135.678 1797.53 135.678 Q1797.97 135.678 1798.51 135.747 Q1799.04 135.794 1799.69 135.909 L1799.71 140.284 Z" fill="#000000" fill-rule="evenodd" fill-opacity="1" /><path clip-path="url(#clip980)" d="M1825.31 148.201 L1825.31 150.284 L1805.73 150.284 Q1806.01 154.682 1808.37 156.997 Q1810.75 159.289 1814.99 159.289 Q1817.44 159.289 1819.73 158.687 Q1822.05 158.085 1824.32 156.881 L1824.32 160.909 Q1822.03 161.881 1819.62 162.391 Q1817.21 162.9 1814.73 162.9 Q1808.53 162.9 1804.9 159.289 Q1801.28 155.678 1801.28 149.52 Q1801.28 143.155 1804.71 139.428 Q1808.16 135.678 1813.99 135.678 Q1819.22 135.678 1822.26 139.057 Q1825.31 142.414 1825.31 148.201 M1821.05 146.951 Q1821.01 143.456 1819.09 141.372 Q1817.19 139.289 1814.04 139.289 Q1810.47 139.289 1808.32 141.303 Q1806.19 143.317 1805.87 146.974 L1821.05 146.951 Z" fill="#000000" fill-rule="evenodd" fill-opacity="1" /><path clip-path="url(#clip980)" d="M1853.85 146.581 L1853.85 162.229 L1849.59 162.229 L1849.59 146.719 Q1849.59 143.039 1848.16 141.21 Q1846.72 139.382 1843.85 139.382 Q1840.4 139.382 1838.41 141.581 Q1836.42 143.78 1836.42 147.576 L1836.42 162.229 L1832.14 162.229 L1832.14 136.303 L1836.42 136.303 L1836.42 140.331 Q1837.95 137.993 1840.01 136.835 Q1842.09 135.678 1844.8 135.678 Q1849.27 135.678 1851.56 138.456 Q1853.85 141.21 1853.85 146.581 Z" fill="#000000" fill-rule="evenodd" fill-opacity="1" /><path clip-path="url(#clip980)" d="M1881.01 137.298 L1881.01 141.28 Q1879.2 140.284 1877.37 139.798 Q1875.57 139.289 1873.71 139.289 Q1869.57 139.289 1867.28 141.928 Q1864.99 144.544 1864.99 149.289 Q1864.99 154.034 1867.28 156.673 Q1869.57 159.289 1873.71 159.289 Q1875.57 159.289 1877.37 158.803 Q1879.2 158.293 1881.01 157.298 L1881.01 161.233 Q1879.22 162.067 1877.3 162.483 Q1875.4 162.9 1873.25 162.9 Q1867.4 162.9 1863.95 159.219 Q1860.5 155.539 1860.5 149.289 Q1860.5 142.946 1863.97 139.312 Q1867.46 135.678 1873.53 135.678 Q1875.5 135.678 1877.37 136.095 Q1879.25 136.488 1881.01 137.298 Z" fill="#000000" fill-rule="evenodd" fill-opacity="1" /><path clip-path="url(#clip980)" d="M1910.59 148.201 L1910.59 150.284 L1891.01 150.284 Q1891.28 154.682 1893.65 156.997 Q1896.03 159.289 1900.27 159.289 Q1902.72 159.289 1905.01 158.687 Q1907.33 158.085 1909.59 156.881 L1909.59 160.909 Q1907.3 161.881 1904.9 162.391 Q1902.49 162.9 1900.01 162.9 Q1893.81 162.9 1890.17 159.289 Q1886.56 155.678 1886.56 149.52 Q1886.56 143.155 1889.99 139.428 Q1893.44 135.678 1899.27 135.678 Q1904.5 135.678 1907.53 139.057 Q1910.59 142.414 1910.59 148.201 M1906.33 146.951 Q1906.28 143.456 1904.36 141.372 Q1902.46 139.289 1899.32 139.289 Q1895.75 139.289 1893.6 141.303 Q1891.47 143.317 1891.15 146.974 L1906.33 146.951 Z" fill="#000000" fill-rule="evenodd" fill-opacity="1" /><path clip-path="url(#clip980)" d="M1949.18 137.067 L1949.18 141.094 Q1947.37 140.169 1945.43 139.706 Q1943.48 139.243 1941.4 139.243 Q1938.23 139.243 1936.63 140.215 Q1935.06 141.187 1935.06 143.131 Q1935.06 144.613 1936.19 145.469 Q1937.33 146.303 1940.75 147.067 L1942.21 147.391 Q1946.75 148.363 1948.64 150.145 Q1950.57 151.905 1950.57 155.076 Q1950.57 158.687 1947.7 160.793 Q1944.85 162.9 1939.85 162.9 Q1937.77 162.9 1935.5 162.483 Q1933.25 162.09 1930.75 161.28 L1930.75 156.881 Q1933.11 158.108 1935.4 158.733 Q1937.7 159.335 1939.94 159.335 Q1942.95 159.335 1944.57 158.317 Q1946.19 157.275 1946.19 155.4 Q1946.19 153.664 1945.01 152.738 Q1943.85 151.812 1939.89 150.956 L1938.41 150.608 Q1934.46 149.775 1932.7 148.062 Q1930.94 146.326 1930.94 143.317 Q1930.94 139.659 1933.53 137.669 Q1936.12 135.678 1940.89 135.678 Q1943.25 135.678 1945.33 136.025 Q1947.42 136.372 1949.18 137.067 Z" fill="#000000" fill-rule="evenodd" fill-opacity="1" /><path clip-path="url(#clip980)" d="M1967.39 139.289 Q1963.97 139.289 1961.98 141.974 Q1959.99 144.636 1959.99 149.289 Q1959.99 153.942 1961.96 156.627 Q1963.95 159.289 1967.39 159.289 Q1970.8 159.289 1972.79 156.604 Q1974.78 153.918 1974.78 149.289 Q1974.78 144.682 1972.79 141.997 Q1970.8 139.289 1967.39 139.289 M1967.39 135.678 Q1972.95 135.678 1976.12 139.289 Q1979.29 142.9 1979.29 149.289 Q1979.29 155.655 1976.12 159.289 Q1972.95 162.9 1967.39 162.9 Q1961.82 162.9 1958.64 159.289 Q1955.5 155.655 1955.5 149.289 Q1955.5 142.9 1958.64 139.289 Q1961.82 135.678 1967.39 135.678 Z" fill="#000000" fill-rule="evenodd" fill-opacity="1" /><path clip-path="url(#clip980)" d="M1986.35 126.21 L1990.61 126.21 L1990.61 162.229 L1986.35 162.229 L1986.35 126.21 Z" fill="#000000" fill-rule="evenodd" fill-opacity="1" /><path clip-path="url(#clip980)" d="M1999.08 151.997 L1999.08 136.303 L2003.34 136.303 L2003.34 151.835 Q2003.34 155.516 2004.78 157.368 Q2006.21 159.196 2009.08 159.196 Q2012.53 159.196 2014.52 156.997 Q2016.54 154.798 2016.54 151.002 L2016.54 136.303 L2020.8 136.303 L2020.8 162.229 L2016.54 162.229 L2016.54 158.247 Q2014.99 160.608 2012.93 161.766 Q2010.89 162.9 2008.18 162.9 Q2003.71 162.9 2001.4 160.122 Q1999.08 157.344 1999.08 151.997 M2009.8 135.678 L2009.8 135.678 Z" fill="#000000" fill-rule="evenodd" fill-opacity="1" /><path clip-path="url(#clip980)" d="M2033.78 128.942 L2033.78 136.303 L2042.56 136.303 L2042.56 139.613 L2033.78 139.613 L2033.78 153.687 Q2033.78 156.858 2034.64 157.761 Q2035.52 158.664 2038.18 158.664 L2042.56 158.664 L2042.56 162.229 L2038.18 162.229 Q2033.25 162.229 2031.38 160.4 Q2029.5 158.548 2029.5 153.687 L2029.5 139.613 L2026.38 139.613 L2026.38 136.303 L2029.5 136.303 L2029.5 128.942 L2033.78 128.942 Z" fill="#000000" fill-rule="evenodd" fill-opacity="1" /><path clip-path="url(#clip980)" d="M2048.16 136.303 L2052.42 136.303 L2052.42 162.229 L2048.16 162.229 L2048.16 136.303 M2048.16 126.21 L2052.42 126.21 L2052.42 131.604 L2048.16 131.604 L2048.16 126.21 Z" fill="#000000" fill-rule="evenodd" fill-opacity="1" /><path clip-path="url(#clip980)" d="M2071.38 139.289 Q2067.95 139.289 2065.96 141.974 Q2063.97 144.636 2063.97 149.289 Q2063.97 153.942 2065.94 156.627 Q2067.93 159.289 2071.38 159.289 Q2074.78 159.289 2076.77 156.604 Q2078.76 153.918 2078.76 149.289 Q2078.76 144.682 2076.77 141.997 Q2074.78 139.289 2071.38 139.289 M2071.38 135.678 Q2076.93 135.678 2080.1 139.289 Q2083.27 142.9 2083.27 149.289 Q2083.27 155.655 2080.1 159.289 Q2076.93 162.9 2071.38 162.9 Q2065.8 162.9 2062.63 159.289 Q2059.48 155.655 2059.48 149.289 Q2059.48 142.9 2062.63 139.289 Q2065.8 135.678 2071.38 135.678 Z" fill="#000000" fill-rule="evenodd" fill-opacity="1" /><path clip-path="url(#clip980)" d="M2111.88 146.581 L2111.88 162.229 L2107.63 162.229 L2107.63 146.719 Q2107.63 143.039 2106.19 141.21 Q2104.76 139.382 2101.88 139.382 Q2098.44 139.382 2096.45 141.581 Q2094.45 143.78 2094.45 147.576 L2094.45 162.229 L2090.17 162.229 L2090.17 136.303 L2094.45 136.303 L2094.45 140.331 Q2095.98 137.993 2098.04 136.835 Q2100.13 135.678 2102.83 135.678 Q2107.3 135.678 2109.59 138.456 Q2111.88 141.21 2111.88 146.581 Z" fill="#000000" fill-rule="evenodd" fill-opacity="1" /><circle clip-path="url(#clip980)" cx="1583.04" cy="196.789" r="23" fill="#e26f46" fill-rule="evenodd" fill-opacity="1" stroke="#000000" stroke-opacity="1" stroke-width="5.12"/>
<path clip-path="url(#clip980)" d="M1679.04 179.509 L1700.89 179.509 L1700.89 183.444 L1683.72 183.444 L1683.72 193.675 L1700.17 193.675 L1700.17 197.61 L1683.72 197.61 L1683.72 210.133 L1701.31 210.133 L1701.31 214.069 L1679.04 214.069 L1679.04 179.509 Z" fill="#000000" fill-rule="evenodd" fill-opacity="1" /><path clip-path="url(#clip980)" d="M1730.36 188.143 L1720.98 200.759 L1730.85 214.069 L1725.82 214.069 L1718.28 203.883 L1710.73 214.069 L1705.71 214.069 L1715.78 200.504 L1706.56 188.143 L1711.59 188.143 L1718.46 197.379 L1725.34 188.143 L1730.36 188.143 Z" fill="#000000" fill-rule="evenodd" fill-opacity="1" /><path clip-path="url(#clip980)" d="M1740.98 210.18 L1740.98 223.93 L1736.7 223.93 L1736.7 188.143 L1740.98 188.143 L1740.98 192.078 Q1742.33 189.763 1744.36 188.652 Q1746.42 187.518 1749.27 187.518 Q1753.99 187.518 1756.93 191.268 Q1759.9 195.018 1759.9 201.129 Q1759.9 207.24 1756.93 210.99 Q1753.99 214.74 1749.27 214.74 Q1746.42 214.74 1744.36 213.629 Q1742.33 212.495 1740.98 210.18 M1755.47 201.129 Q1755.47 196.43 1753.53 193.768 Q1751.61 191.083 1748.23 191.083 Q1744.85 191.083 1742.91 193.768 Q1740.98 196.43 1740.98 201.129 Q1740.98 205.828 1742.91 208.513 Q1744.85 211.175 1748.23 211.175 Q1751.61 211.175 1753.53 208.513 Q1755.47 205.828 1755.47 201.129 Z" fill="#000000" fill-rule="evenodd" fill-opacity="1" /><path clip-path="url(#clip980)" d="M1766.96 178.05 L1771.22 178.05 L1771.22 214.069 L1766.96 214.069 L1766.96 178.05 Z" fill="#000000" fill-rule="evenodd" fill-opacity="1" /><path clip-path="url(#clip980)" d="M1780.13 188.143 L1784.39 188.143 L1784.39 214.069 L1780.13 214.069 L1780.13 188.143 M1780.13 178.05 L1784.39 178.05 L1784.39 183.444 L1780.13 183.444 L1780.13 178.05 Z" fill="#000000" fill-rule="evenodd" fill-opacity="1" /><path clip-path="url(#clip980)" d="M1811.96 189.138 L1811.96 193.12 Q1810.15 192.124 1808.32 191.638 Q1806.52 191.129 1804.66 191.129 Q1800.52 191.129 1798.23 193.768 Q1795.94 196.384 1795.94 201.129 Q1795.94 205.874 1798.23 208.513 Q1800.52 211.129 1804.66 211.129 Q1806.52 211.129 1808.32 210.643 Q1810.15 210.133 1811.96 209.138 L1811.96 213.073 Q1810.17 213.907 1808.25 214.323 Q1806.35 214.74 1804.2 214.74 Q1798.34 214.74 1794.9 211.059 Q1791.45 207.379 1791.45 201.129 Q1791.45 194.786 1794.92 191.152 Q1798.41 187.518 1804.48 187.518 Q1806.45 187.518 1808.32 187.935 Q1810.2 188.328 1811.96 189.138 Z" fill="#000000" fill-rule="evenodd" fill-opacity="1" /><path clip-path="url(#clip980)" d="M1819.36 188.143 L1823.62 188.143 L1823.62 214.069 L1819.36 214.069 L1819.36 188.143 M1819.36 178.05 L1823.62 178.05 L1823.62 183.444 L1819.36 183.444 L1819.36 178.05 Z" fill="#000000" fill-rule="evenodd" fill-opacity="1" /><path clip-path="url(#clip980)" d="M1836.75 180.782 L1836.75 188.143 L1845.52 188.143 L1845.52 191.453 L1836.75 191.453 L1836.75 205.527 Q1836.75 208.698 1837.6 209.601 Q1838.48 210.504 1841.15 210.504 L1845.52 210.504 L1845.52 214.069 L1841.15 214.069 Q1836.21 214.069 1834.34 212.24 Q1832.46 210.388 1832.46 205.527 L1832.46 191.453 L1829.34 191.453 L1829.34 188.143 L1832.46 188.143 L1832.46 180.782 L1836.75 180.782 Z" fill="#000000" fill-rule="evenodd" fill-opacity="1" /><path clip-path="url(#clip980)" d="M1866.38 179.509 L1888.23 179.509 L1888.23 183.444 L1871.05 183.444 L1871.05 193.675 L1887.51 193.675 L1887.51 197.61 L1871.05 197.61 L1871.05 210.133 L1888.65 210.133 L1888.65 214.069 L1866.38 214.069 L1866.38 179.509 Z" fill="#000000" fill-rule="evenodd" fill-opacity="1" /><path clip-path="url(#clip980)" d="M1895.71 203.837 L1895.71 188.143 L1899.96 188.143 L1899.96 203.675 Q1899.96 207.356 1901.4 209.208 Q1902.83 211.036 1905.71 211.036 Q1909.15 211.036 1911.15 208.837 Q1913.16 206.638 1913.16 202.842 L1913.16 188.143 L1917.42 188.143 L1917.42 214.069 L1913.16 214.069 L1913.16 210.087 Q1911.61 212.448 1909.55 213.606 Q1907.51 214.74 1904.8 214.74 Q1900.33 214.74 1898.02 211.962 Q1895.71 209.184 1895.71 203.837 M1906.42 187.518 L1906.42 187.518 Z" fill="#000000" fill-rule="evenodd" fill-opacity="1" /><path clip-path="url(#clip980)" d="M1926.19 178.05 L1930.45 178.05 L1930.45 214.069 L1926.19 214.069 L1926.19 178.05 Z" fill="#000000" fill-rule="evenodd" fill-opacity="1" /><path clip-path="url(#clip980)" d="M1961.54 200.041 L1961.54 202.124 L1941.96 202.124 Q1942.23 206.522 1944.59 208.837 Q1946.98 211.129 1951.21 211.129 Q1953.67 211.129 1955.96 210.527 Q1958.27 209.925 1960.54 208.721 L1960.54 212.749 Q1958.25 213.721 1955.84 214.231 Q1953.44 214.74 1950.96 214.74 Q1944.76 214.74 1941.12 211.129 Q1937.51 207.518 1937.51 201.36 Q1937.51 194.995 1940.94 191.268 Q1944.39 187.518 1950.22 187.518 Q1955.45 187.518 1958.48 190.897 Q1961.54 194.254 1961.54 200.041 M1957.28 198.791 Q1957.23 195.296 1955.31 193.212 Q1953.41 191.129 1950.27 191.129 Q1946.7 191.129 1944.55 193.143 Q1942.42 195.157 1942.09 198.814 L1957.28 198.791 Z" fill="#000000" fill-rule="evenodd" fill-opacity="1" /><path clip-path="url(#clip980)" d="M1983.55 192.124 Q1982.83 191.708 1981.98 191.522 Q1981.14 191.314 1980.13 191.314 Q1976.52 191.314 1974.57 193.675 Q1972.65 196.013 1972.65 200.411 L1972.65 214.069 L1968.37 214.069 L1968.37 188.143 L1972.65 188.143 L1972.65 192.171 Q1973.99 189.809 1976.14 188.675 Q1978.3 187.518 1981.38 187.518 Q1981.82 187.518 1982.35 187.587 Q1982.88 187.634 1983.53 187.749 L1983.55 192.124 Z" fill="#000000" fill-rule="evenodd" fill-opacity="1" /><path clip-path="url(#clip980)" d="M1989.11 208.189 L1993.99 208.189 L1993.99 212.17 L1990.2 219.578 L1987.21 219.578 L1989.11 212.17 L1989.11 208.189 Z" fill="#000000" fill-rule="evenodd" fill-opacity="1" /><path clip-path="url(#clip980)" d="M2035.22 192.078 L2035.22 178.05 L2039.48 178.05 L2039.48 214.069 L2035.22 214.069 L2035.22 210.18 Q2033.88 212.495 2031.82 213.629 Q2029.78 214.74 2026.91 214.74 Q2022.21 214.74 2019.25 210.99 Q2016.31 207.24 2016.31 201.129 Q2016.31 195.018 2019.25 191.268 Q2022.21 187.518 2026.91 187.518 Q2029.78 187.518 2031.82 188.652 Q2033.88 189.763 2035.22 192.078 M2020.7 201.129 Q2020.7 205.828 2022.63 208.513 Q2024.57 211.175 2027.95 211.175 Q2031.33 211.175 2033.27 208.513 Q2035.22 205.828 2035.22 201.129 Q2035.22 196.43 2033.27 193.768 Q2031.33 191.083 2027.95 191.083 Q2024.57 191.083 2022.63 193.768 Q2020.7 196.43 2020.7 201.129 Z" fill="#000000" fill-rule="evenodd" fill-opacity="1" /><path clip-path="url(#clip980)" d="M2052.46 180.782 L2052.46 188.143 L2061.24 188.143 L2061.24 191.453 L2052.46 191.453 L2052.46 205.527 Q2052.46 208.698 2053.32 209.601 Q2054.2 210.504 2056.86 210.504 L2061.24 210.504 L2061.24 214.069 L2056.86 214.069 Q2051.93 214.069 2050.06 212.24 Q2048.18 210.388 2048.18 205.527 L2048.18 191.453 L2045.06 191.453 L2045.06 188.143 L2048.18 188.143 L2048.18 180.782 L2052.46 180.782 Z" fill="#000000" fill-rule="evenodd" fill-opacity="1" /><path clip-path="url(#clip980)" d="M2082.46 192.541 L2112.14 192.541 L2112.14 196.43 L2082.46 196.43 L2082.46 192.541 M2082.46 201.985 L2112.14 201.985 L2112.14 205.921 L2082.46 205.921 L2082.46 201.985 Z" fill="#000000" fill-rule="evenodd" fill-opacity="1" /><path clip-path="url(#clip980)" d="M2147.3 182.587 Q2143.69 182.587 2141.86 186.152 Q2140.06 189.694 2140.06 196.823 Q2140.06 203.93 2141.86 207.495 Q2143.69 211.036 2147.3 211.036 Q2150.94 211.036 2152.74 207.495 Q2154.57 203.93 2154.57 196.823 Q2154.57 189.694 2152.74 186.152 Q2150.94 182.587 2147.3 182.587 M2147.3 178.884 Q2153.11 178.884 2156.17 183.49 Q2159.25 188.073 2159.25 196.823 Q2159.25 205.55 2156.17 210.157 Q2153.11 214.74 2147.3 214.74 Q2141.49 214.74 2138.41 210.157 Q2135.36 205.55 2135.36 196.823 Q2135.36 188.073 2138.41 183.49 Q2141.49 178.884 2147.3 178.884 Z" fill="#000000" fill-rule="evenodd" fill-opacity="1" /><path clip-path="url(#clip980)" d="M2167.46 208.189 L2172.35 208.189 L2172.35 214.069 L2167.46 214.069 L2167.46 208.189 Z" fill="#000000" fill-rule="evenodd" fill-opacity="1" /><path clip-path="url(#clip980)" d="M2196.7 195.434 Q2200.06 196.152 2201.93 198.421 Q2203.83 200.689 2203.83 204.022 Q2203.83 209.138 2200.31 211.939 Q2196.79 214.74 2190.31 214.74 Q2188.13 214.74 2185.82 214.3 Q2183.53 213.883 2181.07 213.027 L2181.07 208.513 Q2183.02 209.647 2185.33 210.226 Q2187.65 210.805 2190.17 210.805 Q2194.57 210.805 2196.86 209.069 Q2199.18 207.333 2199.18 204.022 Q2199.18 200.967 2197.02 199.254 Q2194.89 197.518 2191.07 197.518 L2187.05 197.518 L2187.05 193.675 L2191.26 193.675 Q2194.71 193.675 2196.54 192.309 Q2198.37 190.921 2198.37 188.328 Q2198.37 185.666 2196.47 184.254 Q2194.59 182.819 2191.07 182.819 Q2189.15 182.819 2186.95 183.235 Q2184.75 183.652 2182.12 184.532 L2182.12 180.365 Q2184.78 179.624 2187.09 179.254 Q2189.43 178.884 2191.49 178.884 Q2196.81 178.884 2199.92 181.314 Q2203.02 183.722 2203.02 187.842 Q2203.02 190.712 2201.38 192.703 Q2199.73 194.671 2196.7 195.434 Z" fill="#000000" fill-rule="evenodd" fill-opacity="1" /><path clip-path="url(#clip980)" d="M2212.74 179.509 L2231.1 179.509 L2231.1 183.444 L2217.02 183.444 L2217.02 191.916 Q2218.04 191.569 2219.06 191.407 Q2220.08 191.222 2221.1 191.222 Q2226.88 191.222 2230.26 194.393 Q2233.64 197.564 2233.64 202.981 Q2233.64 208.559 2230.17 211.661 Q2226.7 214.74 2220.38 214.74 Q2218.2 214.74 2215.94 214.37 Q2213.69 213.999 2211.28 213.258 L2211.28 208.559 Q2213.37 209.694 2215.59 210.249 Q2217.81 210.805 2220.29 210.805 Q2224.29 210.805 2226.63 208.698 Q2228.97 206.592 2228.97 202.981 Q2228.97 199.37 2226.63 197.263 Q2224.29 195.157 2220.29 195.157 Q2218.41 195.157 2216.54 195.573 Q2214.69 195.99 2212.74 196.87 L2212.74 179.509 Z" fill="#000000" fill-rule="evenodd" fill-opacity="1" /></svg>
