<?xml version="1.0" encoding="utf-8"?>
<svg xmlns="http://www.w3.org/2000/svg" xmlns:xlink="http://www.w3.org/1999/xlink" width="600" height="400" viewBox="0 0 2400 1600">
<defs>
  <clipPath id="clip730">
    <rect x="0" y="0" width="2400" height="1600"/>
  </clipPath>
</defs>
<path clip-path="url(#clip730)" d="M0 1600 L2400 1600 L2400 0 L0 0  Z" fill="#ffffff" fill-rule="evenodd" fill-opacity="1"/>
<defs>
  <clipPath id="clip731">
    <rect x="480" y="0" width="1681" height="1600"/>
  </clipPath>
</defs>
<defs>
  <clipPath id="clip732">
    <rect x="257" y="47" width="2097" height="1377"/>
  </clipPath>
</defs>
<path clip-path="url(#clip730)" d="M219.38 1423.18 L2352.76 1423.18 L2352.76 47.2441 L219.38 47.2441  Z" fill="#ffffff" fill-rule="evenodd" fill-opacity="1"/>
<defs>
  <clipPath id="clip733">
    <rect x="219" y="47" width="2134" height="1377"/>
  </clipPath>
</defs>
<polyline clip-path="url(#clip733)" style="stroke:#000000; stroke-linecap:round; stroke-linejoin:round; stroke-width:2; stroke-opacity:0.1; fill:none" points="219.38,1423.18 219.38,47.2441 "/>
<polyline clip-path="url(#clip733)" style="stroke:#000000; stroke-linecap:round; stroke-linejoin:round; stroke-width:2; stroke-opacity:0.1; fill:none" points="752.724,1423.18 752.724,47.2441 "/>
<polyline clip-path="url(#clip733)" style="stroke:#000000; stroke-linecap:round; stroke-linejoin:round; stroke-width:2; stroke-opacity:0.1; fill:none" points="1286.07,1423.18 1286.07,47.2441 "/>
<polyline clip-path="url(#clip733)" style="stroke:#000000; stroke-linecap:round; stroke-linejoin:round; stroke-width:2; stroke-opacity:0.1; fill:none" points="1819.41,1423.18 1819.41,47.2441 "/>
<polyline clip-path="url(#clip733)" style="stroke:#000000; stroke-linecap:round; stroke-linejoin:round; stroke-width:2; stroke-opacity:0.1; fill:none" points="2352.76,1423.18 2352.76,47.2441 "/>
<polyline clip-path="url(#clip730)" style="stroke:#000000; stroke-linecap:round; stroke-linejoin:round; stroke-width:4; stroke-opacity:1; fill:none" points="219.38,1423.18 2352.76,1423.18 "/>
<polyline clip-path="url(#clip730)" style="stroke:#000000; stroke-linecap:round; stroke-linejoin:round; stroke-width:4; stroke-opacity:1; fill:none" points="219.38,1423.18 219.38,1404.28 "/>
<polyline clip-path="url(#clip730)" style="stroke:#000000; stroke-linecap:round; stroke-linejoin:round; stroke-width:4; stroke-opacity:1; fill:none" points="752.724,1423.18 752.724,1404.28 "/>
<polyline clip-path="url(#clip730)" style="stroke:#000000; stroke-linecap:round; stroke-linejoin:round; stroke-width:4; stroke-opacity:1; fill:none" points="1286.07,1423.18 1286.07,1404.28 "/>
<polyline clip-path="url(#clip730)" style="stroke:#000000; stroke-linecap:round; stroke-linejoin:round; stroke-width:4; stroke-opacity:1; fill:none" points="1819.41,1423.18 1819.41,1404.28 "/>
<polyline clip-path="url(#clip730)" style="stroke:#000000; stroke-linecap:round; stroke-linejoin:round; stroke-width:4; stroke-opacity:1; fill:none" points="2352.76,1423.18 2352.76,1404.28 "/>
<path clip-path="url(#clip730)" d="M219.38 1454.1 Q215.769 1454.1 213.94 1457.66 Q212.135 1461.2 212.135 1468.33 Q212.135 1475.44 213.94 1479.01 Q215.769 1482.55 219.38 1482.55 Q223.014 1482.55 224.82 1479.01 Q226.649 1475.44 226.649 1468.33 Q226.649 1461.2 224.82 1457.66 Q223.014 1454.1 219.38 1454.1 M219.38 1450.39 Q225.19 1450.39 228.246 1455 Q231.325 1459.58 231.325 1468.33 Q231.325 1477.06 228.246 1481.67 Q225.19 1486.25 219.38 1486.25 Q213.57 1486.25 210.491 1481.67 Q207.436 1477.06 207.436 1468.33 Q207.436 1459.58 210.491 1455 Q213.57 1450.39 219.38 1450.39 Z" fill="#000000" fill-rule="evenodd" fill-opacity="1" /><path clip-path="url(#clip730)" d="M743.106 1481.64 L750.745 1481.64 L750.745 1455.28 L742.435 1456.95 L742.435 1452.69 L750.699 1451.02 L755.375 1451.02 L755.375 1481.64 L763.013 1481.64 L763.013 1485.58 L743.106 1485.58 L743.106 1481.64 Z" fill="#000000" fill-rule="evenodd" fill-opacity="1" /><path clip-path="url(#clip730)" d="M1280.72 1481.64 L1297.04 1481.64 L1297.04 1485.58 L1275.1 1485.58 L1275.1 1481.64 Q1277.76 1478.89 1282.34 1474.26 Q1286.95 1469.61 1288.13 1468.27 Q1290.37 1465.74 1291.25 1464.01 Q1292.16 1462.25 1292.16 1460.56 Q1292.16 1457.8 1290.21 1456.07 Q1288.29 1454.33 1285.19 1454.33 Q1282.99 1454.33 1280.54 1455.09 Q1278.11 1455.86 1275.33 1457.41 L1275.33 1452.69 Q1278.15 1451.55 1280.61 1450.97 Q1283.06 1450.39 1285.1 1450.39 Q1290.47 1450.39 1293.66 1453.08 Q1296.86 1455.77 1296.86 1460.26 Q1296.86 1462.39 1296.04 1464.31 Q1295.26 1466.2 1293.15 1468.8 Q1292.57 1469.47 1289.47 1472.69 Q1286.37 1475.88 1280.72 1481.64 Z" fill="#000000" fill-rule="evenodd" fill-opacity="1" /><path clip-path="url(#clip730)" d="M1823.66 1466.95 Q1827.02 1467.66 1828.89 1469.93 Q1830.79 1472.2 1830.79 1475.53 Q1830.79 1480.65 1827.27 1483.45 Q1823.75 1486.25 1817.27 1486.25 Q1815.09 1486.25 1812.78 1485.81 Q1810.49 1485.39 1808.03 1484.54 L1808.03 1480.02 Q1809.98 1481.16 1812.29 1481.74 Q1814.61 1482.32 1817.13 1482.32 Q1821.53 1482.32 1823.82 1480.58 Q1826.14 1478.84 1826.14 1475.53 Q1826.14 1472.48 1823.98 1470.77 Q1821.85 1469.03 1818.03 1469.03 L1814.01 1469.03 L1814.01 1465.19 L1818.22 1465.19 Q1821.67 1465.19 1823.5 1463.82 Q1825.33 1462.43 1825.33 1459.84 Q1825.33 1457.18 1823.43 1455.77 Q1821.55 1454.33 1818.03 1454.33 Q1816.11 1454.33 1813.91 1454.75 Q1811.72 1455.16 1809.08 1456.04 L1809.08 1451.88 Q1811.74 1451.14 1814.05 1450.77 Q1816.39 1450.39 1818.45 1450.39 Q1823.78 1450.39 1826.88 1452.83 Q1829.98 1455.23 1829.98 1459.35 Q1829.98 1462.22 1828.34 1464.21 Q1826.69 1466.18 1823.66 1466.95 Z" fill="#000000" fill-rule="evenodd" fill-opacity="1" /><path clip-path="url(#clip730)" d="M2355.77 1455.09 L2343.96 1473.54 L2355.77 1473.54 L2355.77 1455.09 M2354.54 1451.02 L2360.42 1451.02 L2360.42 1473.54 L2365.35 1473.54 L2365.35 1477.43 L2360.42 1477.43 L2360.42 1485.58 L2355.77 1485.58 L2355.77 1477.43 L2340.16 1477.43 L2340.16 1472.92 L2354.54 1451.02 Z" fill="#000000" fill-rule="evenodd" fill-opacity="1" /><path clip-path="url(#clip730)" d="M1298.69 1519.2 L1289.57 1555.89 Q1289.32 1557.05 1289.32 1557.34 Q1289.32 1557.72 1289.41 1557.88 Q1289.54 1558.08 1290.25 1558.24 Q1290.99 1558.4 1292.47 1558.4 Q1293.02 1558.4 1293.21 1558.4 Q1293.41 1558.4 1293.7 1558.46 Q1293.99 1558.53 1294.08 1558.69 Q1294.18 1558.85 1294.18 1559.11 Q1294.18 1560.43 1293.02 1560.43 Q1291.92 1560.43 1289.64 1560.33 Q1287.35 1560.23 1286.22 1560.23 Q1285.13 1560.23 1282.91 1560.33 Q1280.69 1560.43 1279.62 1560.43 Q1279.24 1560.43 1279.01 1560.23 Q1278.78 1560.07 1278.78 1559.88 L1278.75 1559.72 Q1278.75 1558.82 1279.11 1558.59 Q1279.46 1558.4 1280.27 1558.4 Q1283.04 1558.37 1283.84 1557.98 Q1284.65 1557.59 1285.03 1556.21 L1288 1544.42 Q1284.03 1548.38 1280.2 1548.38 Q1276.5 1548.38 1273.99 1545.48 Q1271.51 1542.55 1271.51 1537.82 Q1271.51 1534.31 1272.89 1530.77 Q1274.31 1527.22 1276.5 1524.55 Q1278.72 1521.88 1281.62 1520.2 Q1284.52 1518.49 1287.38 1518.49 Q1289.22 1518.49 1290.86 1519.56 Q1292.54 1520.62 1293.54 1523.1 Q1294.37 1521.68 1295.92 1520.14 Q1297.46 1518.56 1298.01 1518.56 Q1298.33 1518.56 1298.49 1518.78 Q1298.69 1518.98 1298.69 1519.2 M1292.6 1525.74 Q1292.6 1525.42 1292.34 1524.61 Q1292.12 1523.81 1291.6 1522.71 Q1291.12 1521.59 1289.99 1520.78 Q1288.87 1519.94 1287.38 1519.94 Q1285.26 1519.94 1282.97 1522.01 Q1280.72 1524.03 1279.24 1527.58 Q1278.3 1529.9 1277.24 1534.21 Q1276.18 1538.53 1276.18 1540.72 Q1276.18 1541.23 1276.21 1541.81 Q1276.27 1542.39 1276.53 1543.36 Q1276.79 1544.32 1277.17 1545.06 Q1277.59 1545.81 1278.43 1546.35 Q1279.27 1546.9 1280.4 1546.9 Q1282.84 1546.9 1285.29 1544.81 Q1287.74 1542.71 1288.77 1540.85 Q1288.9 1540.65 1290.73 1533.34 Q1292.6 1526.03 1292.6 1525.74 Z" fill="#000000" fill-rule="evenodd" fill-opacity="1" /><polyline clip-path="url(#clip733)" style="stroke:#000000; stroke-linecap:round; stroke-linejoin:round; stroke-width:2; stroke-opacity:0.1; fill:none" points="219.38,1423.18 2352.76,1423.18 "/>
<polyline clip-path="url(#clip733)" style="stroke:#000000; stroke-linecap:round; stroke-linejoin:round; stroke-width:2; stroke-opacity:0.1; fill:none" points="219.38,1147.99 2352.76,1147.99 "/>
<polyline clip-path="url(#clip733)" style="stroke:#000000; stroke-linecap:round; stroke-linejoin:round; stroke-width:2; stroke-opacity:0.1; fill:none" points="219.38,872.806 2352.76,872.806 "/>
<polyline clip-path="url(#clip733)" style="stroke:#000000; stroke-linecap:round; stroke-linejoin:round; stroke-width:2; stroke-opacity:0.1; fill:none" points="219.38,597.618 2352.76,597.618 "/>
<polyline clip-path="url(#clip733)" style="stroke:#000000; stroke-linecap:round; stroke-linejoin:round; stroke-width:2; stroke-opacity:0.1; fill:none" points="219.38,322.431 2352.76,322.431 "/>
<polyline clip-path="url(#clip733)" style="stroke:#000000; stroke-linecap:round; stroke-linejoin:round; stroke-width:2; stroke-opacity:0.1; fill:none" points="219.38,47.2441 2352.76,47.2441 "/>
<polyline clip-path="url(#clip730)" style="stroke:#000000; stroke-linecap:round; stroke-linejoin:round; stroke-width:4; stroke-opacity:1; fill:none" points="219.38,1423.18 219.38,47.2441 "/>
<polyline clip-path="url(#clip730)" style="stroke:#000000; stroke-linecap:round; stroke-linejoin:round; stroke-width:4; stroke-opacity:1; fill:none" points="219.38,1423.18 238.278,1423.18 "/>
<polyline clip-path="url(#clip730)" style="stroke:#000000; stroke-linecap:round; stroke-linejoin:round; stroke-width:4; stroke-opacity:1; fill:none" points="219.38,1147.99 238.278,1147.99 "/>
<polyline clip-path="url(#clip730)" style="stroke:#000000; stroke-linecap:round; stroke-linejoin:round; stroke-width:4; stroke-opacity:1; fill:none" points="219.38,872.806 238.278,872.806 "/>
<polyline clip-path="url(#clip730)" style="stroke:#000000; stroke-linecap:round; stroke-linejoin:round; stroke-width:4; stroke-opacity:1; fill:none" points="219.38,597.618 238.278,597.618 "/>
<polyline clip-path="url(#clip730)" style="stroke:#000000; stroke-linecap:round; stroke-linejoin:round; stroke-width:4; stroke-opacity:1; fill:none" points="219.38,322.431 238.278,322.431 "/>
<polyline clip-path="url(#clip730)" style="stroke:#000000; stroke-linecap:round; stroke-linejoin:round; stroke-width:4; stroke-opacity:1; fill:none" points="219.38,47.2441 238.278,47.2441 "/>
<path clip-path="url(#clip730)" d="M126.205 1408.98 Q122.593 1408.98 120.765 1412.54 Q118.959 1416.08 118.959 1423.21 Q118.959 1430.32 120.765 1433.89 Q122.593 1437.43 126.205 1437.43 Q129.839 1437.43 131.644 1433.89 Q133.473 1430.32 133.473 1423.21 Q133.473 1416.08 131.644 1412.54 Q129.839 1408.98 126.205 1408.98 M126.205 1405.27 Q132.015 1405.27 135.07 1409.88 Q138.149 1414.46 138.149 1423.21 Q138.149 1431.94 135.07 1436.55 Q132.015 1441.13 126.205 1441.13 Q120.394 1441.13 117.316 1436.55 Q114.26 1431.94 114.26 1423.21 Q114.26 1414.46 117.316 1409.88 Q120.394 1405.27 126.205 1405.27 Z" fill="#000000" fill-rule="evenodd" fill-opacity="1" /><path clip-path="url(#clip730)" d="M146.366 1434.58 L151.251 1434.58 L151.251 1440.46 L146.366 1440.46 L146.366 1434.58 Z" fill="#000000" fill-rule="evenodd" fill-opacity="1" /><path clip-path="url(#clip730)" d="M171.436 1408.98 Q167.825 1408.98 165.996 1412.54 Q164.19 1416.08 164.19 1423.21 Q164.19 1430.32 165.996 1433.89 Q167.825 1437.43 171.436 1437.43 Q175.07 1437.43 176.876 1433.89 Q178.704 1430.32 178.704 1423.21 Q178.704 1416.08 176.876 1412.54 Q175.07 1408.98 171.436 1408.98 M171.436 1405.27 Q177.246 1405.27 180.301 1409.88 Q183.38 1414.46 183.38 1423.21 Q183.38 1431.94 180.301 1436.55 Q177.246 1441.13 171.436 1441.13 Q165.626 1441.13 162.547 1436.55 Q159.491 1431.94 159.491 1423.21 Q159.491 1414.46 162.547 1409.88 Q165.626 1405.27 171.436 1405.27 Z" fill="#000000" fill-rule="evenodd" fill-opacity="1" /><path clip-path="url(#clip730)" d="M127.2 1133.79 Q123.589 1133.79 121.76 1137.36 Q119.955 1140.9 119.955 1148.03 Q119.955 1155.13 121.76 1158.7 Q123.589 1162.24 127.2 1162.24 Q130.834 1162.24 132.64 1158.7 Q134.468 1155.13 134.468 1148.03 Q134.468 1140.9 132.64 1137.36 Q130.834 1133.79 127.2 1133.79 M127.2 1130.09 Q133.01 1130.09 136.066 1134.69 Q139.144 1139.28 139.144 1148.03 Q139.144 1156.75 136.066 1161.36 Q133.01 1165.94 127.2 1165.94 Q121.39 1165.94 118.311 1161.36 Q115.256 1156.75 115.256 1148.03 Q115.256 1139.28 118.311 1134.69 Q121.39 1130.09 127.2 1130.09 Z" fill="#000000" fill-rule="evenodd" fill-opacity="1" /><path clip-path="url(#clip730)" d="M147.362 1159.39 L152.246 1159.39 L152.246 1165.27 L147.362 1165.27 L147.362 1159.39 Z" fill="#000000" fill-rule="evenodd" fill-opacity="1" /><path clip-path="url(#clip730)" d="M162.477 1130.71 L180.834 1130.71 L180.834 1134.65 L166.76 1134.65 L166.76 1143.12 Q167.778 1142.77 168.797 1142.61 Q169.815 1142.43 170.834 1142.43 Q176.621 1142.43 180.001 1145.6 Q183.38 1148.77 183.38 1154.18 Q183.38 1159.76 179.908 1162.87 Q176.436 1165.94 170.116 1165.94 Q167.94 1165.94 165.672 1165.57 Q163.427 1165.2 161.019 1164.46 L161.019 1159.76 Q163.102 1160.9 165.325 1161.45 Q167.547 1162.01 170.024 1162.01 Q174.028 1162.01 176.366 1159.9 Q178.704 1157.8 178.704 1154.18 Q178.704 1150.57 176.366 1148.47 Q174.028 1146.36 170.024 1146.36 Q168.149 1146.36 166.274 1146.78 Q164.422 1147.19 162.477 1148.07 L162.477 1130.71 Z" fill="#000000" fill-rule="evenodd" fill-opacity="1" /><path clip-path="url(#clip730)" d="M117.015 886.15 L124.654 886.15 L124.654 859.785 L116.343 861.451 L116.343 857.192 L124.607 855.526 L129.283 855.526 L129.283 886.15 L136.922 886.15 L136.922 890.086 L117.015 890.086 L117.015 886.15 Z" fill="#000000" fill-rule="evenodd" fill-opacity="1" /><path clip-path="url(#clip730)" d="M146.366 884.206 L151.251 884.206 L151.251 890.086 L146.366 890.086 L146.366 884.206 Z" fill="#000000" fill-rule="evenodd" fill-opacity="1" /><path clip-path="url(#clip730)" d="M171.436 858.604 Q167.825 858.604 165.996 862.169 Q164.19 865.711 164.19 872.84 Q164.19 879.947 165.996 883.512 Q167.825 887.053 171.436 887.053 Q175.07 887.053 176.876 883.512 Q178.704 879.947 178.704 872.84 Q178.704 865.711 176.876 862.169 Q175.07 858.604 171.436 858.604 M171.436 854.901 Q177.246 854.901 180.301 859.507 Q183.38 864.09 183.38 872.84 Q183.38 881.567 180.301 886.174 Q177.246 890.757 171.436 890.757 Q165.626 890.757 162.547 886.174 Q159.491 881.567 159.491 872.84 Q159.491 864.09 162.547 859.507 Q165.626 854.901 171.436 854.901 Z" fill="#000000" fill-rule="evenodd" fill-opacity="1" /><path clip-path="url(#clip730)" d="M118.01 610.963 L125.649 610.963 L125.649 584.598 L117.339 586.264 L117.339 582.005 L125.603 580.338 L130.279 580.338 L130.279 610.963 L137.917 610.963 L137.917 614.898 L118.01 614.898 L118.01 610.963 Z" fill="#000000" fill-rule="evenodd" fill-opacity="1" /><path clip-path="url(#clip730)" d="M147.362 609.019 L152.246 609.019 L152.246 614.898 L147.362 614.898 L147.362 609.019 Z" fill="#000000" fill-rule="evenodd" fill-opacity="1" /><path clip-path="url(#clip730)" d="M162.477 580.338 L180.834 580.338 L180.834 584.274 L166.76 584.274 L166.76 592.746 Q167.778 592.399 168.797 592.236 Q169.815 592.051 170.834 592.051 Q176.621 592.051 180.001 595.223 Q183.38 598.394 183.38 603.81 Q183.38 609.389 179.908 612.491 Q176.436 615.57 170.116 615.57 Q167.94 615.57 165.672 615.199 Q163.427 614.829 161.019 614.088 L161.019 609.389 Q163.102 610.523 165.325 611.079 Q167.547 611.635 170.024 611.635 Q174.028 611.635 176.366 609.528 Q178.704 607.422 178.704 603.81 Q178.704 600.199 176.366 598.093 Q174.028 595.986 170.024 595.986 Q168.149 595.986 166.274 596.403 Q164.422 596.82 162.477 597.699 L162.477 580.338 Z" fill="#000000" fill-rule="evenodd" fill-opacity="1" /><path clip-path="url(#clip730)" d="M120.232 335.776 L136.552 335.776 L136.552 339.711 L114.607 339.711 L114.607 335.776 Q117.269 333.021 121.853 328.392 Q126.459 323.739 127.64 322.397 Q129.885 319.873 130.765 318.137 Q131.667 316.378 131.667 314.688 Q131.667 311.934 129.723 310.198 Q127.802 308.461 124.7 308.461 Q122.501 308.461 120.047 309.225 Q117.617 309.989 114.839 311.54 L114.839 306.818 Q117.663 305.684 120.117 305.105 Q122.57 304.526 124.607 304.526 Q129.978 304.526 133.172 307.211 Q136.367 309.897 136.367 314.387 Q136.367 316.517 135.556 318.438 Q134.769 320.336 132.663 322.929 Q132.084 323.6 128.982 326.818 Q125.88 330.012 120.232 335.776 Z" fill="#000000" fill-rule="evenodd" fill-opacity="1" /><path clip-path="url(#clip730)" d="M146.366 333.832 L151.251 333.832 L151.251 339.711 L146.366 339.711 L146.366 333.832 Z" fill="#000000" fill-rule="evenodd" fill-opacity="1" /><path clip-path="url(#clip730)" d="M171.436 308.23 Q167.825 308.23 165.996 311.795 Q164.19 315.336 164.19 322.466 Q164.19 329.572 165.996 333.137 Q167.825 336.679 171.436 336.679 Q175.07 336.679 176.876 333.137 Q178.704 329.572 178.704 322.466 Q178.704 315.336 176.876 311.795 Q175.07 308.23 171.436 308.23 M171.436 304.526 Q177.246 304.526 180.301 309.133 Q183.38 313.716 183.38 322.466 Q183.38 331.193 180.301 335.799 Q177.246 340.383 171.436 340.383 Q165.626 340.383 162.547 335.799 Q159.491 331.193 159.491 322.466 Q159.491 313.716 162.547 309.133 Q165.626 304.526 171.436 304.526 Z" fill="#000000" fill-rule="evenodd" fill-opacity="1" /><path clip-path="url(#clip730)" d="M121.228 60.5889 L137.547 60.5889 L137.547 64.5241 L115.603 64.5241 L115.603 60.5889 Q118.265 57.8343 122.848 53.2047 Q127.455 48.552 128.635 47.2094 Q130.88 44.6862 131.76 42.9501 Q132.663 41.1909 132.663 39.5011 Q132.663 36.7465 130.718 35.0104 Q128.797 33.2743 125.695 33.2743 Q123.496 33.2743 121.043 34.0381 Q118.612 34.802 115.834 36.3529 L115.834 31.6308 Q118.658 30.4965 121.112 29.9178 Q123.566 29.3391 125.603 29.3391 Q130.973 29.3391 134.167 32.0243 Q137.362 34.7094 137.362 39.2002 Q137.362 41.3298 136.552 43.2511 Q135.765 45.1492 133.658 47.7418 Q133.08 48.4131 129.978 51.6306 Q126.876 54.8251 121.228 60.5889 Z" fill="#000000" fill-rule="evenodd" fill-opacity="1" /><path clip-path="url(#clip730)" d="M147.362 58.6445 L152.246 58.6445 L152.246 64.5241 L147.362 64.5241 L147.362 58.6445 Z" fill="#000000" fill-rule="evenodd" fill-opacity="1" /><path clip-path="url(#clip730)" d="M162.477 29.9641 L180.834 29.9641 L180.834 33.8993 L166.76 33.8993 L166.76 42.3714 Q167.778 42.0242 168.797 41.8622 Q169.815 41.677 170.834 41.677 Q176.621 41.677 180.001 44.8483 Q183.38 48.0196 183.38 53.4362 Q183.38 59.0149 179.908 62.1167 Q176.436 65.1954 170.116 65.1954 Q167.94 65.1954 165.672 64.825 Q163.427 64.4547 161.019 63.7139 L161.019 59.0149 Q163.102 60.1491 165.325 60.7047 Q167.547 61.2602 170.024 61.2602 Q174.028 61.2602 176.366 59.1538 Q178.704 57.0473 178.704 53.4362 Q178.704 49.8251 176.366 47.7186 Q174.028 45.6122 170.024 45.6122 Q168.149 45.6122 166.274 46.0288 Q164.422 46.4455 162.477 47.3251 L162.477 29.9641 Z" fill="#000000" fill-rule="evenodd" fill-opacity="1" /><path clip-path="url(#clip730)" d="M39.2425 717.179 Q43.9446 717.179 48.4856 719.563 Q53.0267 721.914 55.8286 725.617 Q58.5983 729.321 58.5983 733.089 Q58.5983 735.344 57.3744 736.857 Q56.1184 738.339 54.3471 739.144 Q56.5371 739.756 61.7866 741.076 Q67.0362 742.397 67.5515 742.397 Q67.8413 742.397 67.9702 742.332 Q68.099 742.268 68.26 741.978 Q68.4533 741.688 68.5177 740.98 Q68.6143 740.271 68.6143 739.079 Q68.6143 738.467 68.6143 738.242 Q68.6465 737.984 68.8075 737.759 Q68.9686 737.501 69.3228 737.501 Q70.6433 737.501 70.6433 738.693 Q70.6433 739.756 70.5466 741.946 Q70.45 744.136 70.45 745.231 Q70.45 746.165 70.5466 748.033 Q70.6433 749.901 70.6433 750.77 Q70.6433 751.64 69.8703 751.64 Q69.4194 751.64 69.1296 751.511 Q68.8719 751.414 68.7431 751.157 Q68.6465 750.899 68.6143 750.674 Q68.6143 750.48 68.6143 750.094 Q68.6143 748.612 68.3566 747.968 Q68.1312 747.324 67.6481 747.099 Q67.1972 746.841 65.909 746.551 L36.5373 739.144 Q34.5727 738.693 33.1878 738.693 Q31.4487 738.693 30.8046 739.24 Q30.1605 739.788 30.1605 740.754 Q30.1605 742.429 32.1573 743.524 Q34.154 744.619 38.0187 745.553 Q39.0815 745.843 39.307 746.036 Q39.5324 746.197 39.5324 746.68 Q39.5002 747.485 38.8561 747.485 Q38.695 747.485 37.6645 747.227 Q36.6017 746.97 35.0558 746.487 Q33.4777 745.971 32.4793 745.424 Q31.803 745.102 31.3521 744.812 Q30.9012 744.522 30.1927 743.942 Q29.4842 743.331 29.0977 742.461 Q28.7112 741.591 28.7112 740.529 Q28.7112 738.467 29.9351 736.761 Q31.1589 735.054 33.6387 734.603 Q31.4809 732.767 30.0961 730.513 Q28.7112 728.258 28.7112 725.972 Q28.7112 722.171 31.6742 719.691 Q34.6049 717.179 39.2425 717.179 M36.344 721.946 Q33.4133 721.946 31.803 723.073 Q30.1605 724.168 30.1605 726.165 Q30.1605 728.645 32.6725 731.511 Q35.0558 734.345 37.278 734.925 L50.1925 738.178 L51.2553 738.371 Q51.4486 738.371 52.0283 738.274 Q52.5758 738.145 53.4775 737.791 Q54.3793 737.405 55.1844 736.889 Q55.9574 736.342 56.5371 735.376 Q57.1168 734.377 57.1168 733.154 Q57.1168 731.189 55.3777 729.063 Q53.6386 726.906 50.3536 725.295 Q48.228 724.297 43.6547 723.138 Q39.0493 721.946 36.344 721.946 Z" fill="#000000" fill-rule="evenodd" fill-opacity="1" /><polyline clip-path="url(#clip733)" style="stroke:#009af9; stroke-linecap:round; stroke-linejoin:round; stroke-width:8; stroke-opacity:1; fill:none" points="1419.4,597.618 1428.39,600.816 1437.34,604.207 1446.24,607.79 1455.08,611.56 1463.85,615.512 1472.55,619.643 1481.16,623.948 1489.68,628.421 1498.1,633.058 1506.4,637.852 1514.59,642.799 1522.66,647.892 1530.58,653.124 1538.37,658.491 1546.01,663.985 1553.48,669.6 1560.79,675.329 1567.93,681.165 1574.89,687.103 1581.67,693.134 1588.25,699.252 1594.63,705.449 1600.8,711.72 1606.77,718.057 1612.52,724.452 1618.04,730.899 1623.35,737.391 1628.42,743.921 1633.25,750.482 1637.85,757.068 1642.21,763.672 1646.33,770.289 1650.19,776.913 1653.81,783.536 1657.18,790.154 1660.29,796.762 1663.16,803.352 1665.76,809.921 1668.12,816.462 1670.22,822.971 1672.06,829.443 1673.65,835.874 1674.99,842.259 1676.08,848.594 1676.92,854.875 1677.51,861.1 1677.85,867.263 1677.95,873.363 1677.81,879.395 1677.43,885.357 1676.81,891.246 1675.97,897.06 1674.89,902.796 1673.59,908.452 1672.06,914.026 1670.32,919.516 1668.36,924.921 1666.2,930.239 1663.83,935.47 1661.26,940.611 1658.49,945.663 1655.54,950.624 1652.4,955.493 1649.07,960.269 1645.57,964.953 1641.9,969.544 1638.07,974.041 1634.07,978.445 1629.91,982.756 1625.61,986.973 1621.16,991.096 1616.56,995.126 1611.84,999.063 1606.98,1002.91 1601.99,1006.66 1596.88,1010.32 1591.66,1013.88 1586.32,1017.36 1580.88,1020.74 1575.33,1024.04 1569.69,1027.24 1563.95,1030.36 1558.13,1033.39 1552.22,1036.33 1546.24,1039.19 1540.18,1041.96 1534.05,1044.64 1527.85,1047.24 1521.59,1049.76 1515.28,1052.19 1508.91,1054.54 1502.49,1056.82 1496.03,1059.01 1489.52,1061.12 1482.98,1063.16 1476.4,1065.11 1469.79,1066.99 1463.15,1068.8 1456.49,1070.53 1449.8,1072.18 1443.1,1073.77 1436.39,1075.27 1429.66,1076.71 1422.92,1078.08 1416.18,1079.37 1409.44,1080.6 1402.69,1081.75 1395.95,1082.84 1389.21,1083.86 1382.48,1084.81 1375.76,1085.69 1369.05,1086.51 1362.35,1087.27 1355.68,1087.96 1349.02,1088.58 1342.38,1089.14 1335.76,1089.64 1329.17,1090.08 1322.6,1090.45 1316.07,1090.76 1309.56,1091.01 1303.09,1091.2 1296.64,1091.33 1290.24,1091.4 1283.87,1091.41 1277.54,1091.36 1271.25,1091.25 1265,1091.08 1258.79,1090.86 1252.63,1090.57 1246.51,1090.23 1240.44,1089.83 1234.42,1089.37 1228.44,1088.86 1222.52,1088.29 1216.65,1087.66 1210.83,1086.98 1205.07,1086.24 1199.35,1085.44 1193.7,1084.59 1188.1,1083.68 1182.56,1082.72 1177.07,1081.7 1171.65,1080.62 1166.28,1079.49 1160.97,1078.3 1155.73,1077.06 1150.54,1075.76 1145.42,1074.41 1140.36,1073 1135.36,1071.54 1130.43,1070.02 1125.56,1068.44 1120.76,1066.81 1116.02,1065.13 1111.35,1063.39 1106.74,1061.59 1102.21,1059.74 1097.74,1057.83 1093.34,1055.87 1089.01,1053.85 1084.75,1051.77 1080.56,1049.64 1076.44,1047.45 1072.39,1045.2 1068.41,1042.9 1064.51,1040.54 1060.68,1038.13 1056.92,1035.65 1053.23,1033.12 1049.62,1030.54 1046.09,1027.9 1042.63,1025.2 1039.24,1022.44 1035.93,1019.62 1032.7,1016.75 1029.55,1013.83 1026.47,1010.84 1023.47,1007.8 1020.55,1004.7 1017.71,1001.54 1014.94,998.328 1012.26,995.056 1009.66,991.728 1007.14,988.342 1004.69,984.899 1002.33,981.399 1000.06,977.842 997.86,974.229 995.747,970.561 993.719,966.837 991.774,963.058 989.915,959.223 988.141,955.332 986.453,951.386 984.852,947.383 983.339,943.326 981.913,939.213 980.576,935.045 979.329,930.823 978.171,926.547 977.104,922.217 976.129,917.833 975.246,913.398 974.456,908.911 973.76,904.372 973.158,899.784 972.651,895.146 972.241,890.46 971.928,885.726 971.712,880.946 971.595,876.121 971.577,871.251 971.66,866.339 971.844,861.386 972.13,856.393 972.519,851.36 973.012,846.291 973.61,841.186 974.314,836.048 975.125,830.877 976.044,825.676 977.071,820.446 978.209,815.189 979.457,809.908 980.817,804.604 982.29,799.279 983.877,793.936 985.58,788.576 987.398,783.203 989.334,777.817 991.389,772.423 993.563,767.021 995.855,761.614 998.266,756.205 1000.8,750.797 1003.46,745.394 1006.24,740.001 1009.15,734.62 1012.18,729.256 1015.35,723.912 1018.64,718.592 1022.07,713.3 1025.63,708.041 1029.32,702.817 1033.14,697.634 1037.1,692.495 1041.2,687.405 1045.43,682.367 1049.8,677.386 1054.3,672.466 1058.95,667.612 1063.73,662.827 1068.64,658.117 1073.7,653.486 1078.89,648.938 1084.22,644.477 1089.68,640.109 1095.28,635.838 1101.02,631.669 1106.9,627.606 1112.91,623.654 1119.05,619.819 1125.33,616.104 1131.74,612.515 1138.28,609.056 1144.96,605.734 1151.76,602.552 1158.69,599.515 1165.75,596.63 1172.94,593.901 1180.25,591.333 1187.68,588.931 1195.23,586.702 1202.91,584.65 1210.71,582.79 1218.65,581.129 1226.71,579.667 1234.89,578.405 1243.17,577.345 1251.56,576.487 1260.03,575.831 1268.59,575.378 1277.23,575.129 1285.94,575.083 1294.71,575.239 1303.53,575.599 1312.4,576.162 1321.32,576.926 1330.26,577.891 1339.23,579.057 1348.22,580.422 1357.22,581.986 1366.23,583.746 1375.23,585.701 1384.22,587.849 1393.19,590.189 1402.14,592.719 1411.06,595.436 1419.95,598.338 1428.78,601.423 1437.57,604.688 1446.29,608.13 1454.95,611.745 1463.54,615.532 1472.05,619.487 1480.48,623.606 1488.81,627.885 1497.05,632.321 1505.18,636.911 1513.2,641.648 1521.1,646.531 1528.88,651.553 1536.53,656.711 1544.04,662 1551.4,667.414 1558.62,672.949 1565.68,678.6 1572.58,684.361 1579.32,690.226 1585.88,696.191 1592.25,702.248 1598.45,708.392 1604.45,714.617 1610.25,720.917 1615.85,727.284 1621.24,733.713 1626.42,740.195 1631.37,746.726 1636.1,753.296 1640.59,759.9 1644.85,766.527 1648.86,773.167 1652.63,779.812 1656.15,786.456 1659.43,793.094 1662.45,799.719 1665.22,806.326 1667.74,812.909 1670.01,819.463 1672.02,825.984 1673.78,832.465 1675.29,838.904 1676.54,845.295 1677.54,851.633 1678.29,857.916 1678.79,864.139 1679.04,870.299 1679.04,876.392 1678.8,882.415 1678.32,888.365 1677.6,894.24 1676.64,900.036 1675.45,905.751 1674.03,911.384 1672.38,916.932 1670.52,922.393 1668.43,927.767 1666.13,933.05 1663.63,938.244 1660.92,943.345 1658.02,948.355 1654.92,953.271 1651.64,958.095 1648.19,962.825 1644.56,967.462 1640.76,972.006 1636.81,976.458 1632.71,980.817 1628.46,985.086 1624.07,989.261 1619.54,993.341 1614.86,997.327 1610.05,1001.22 1605.11,1005.02 1600.04,1008.72 1594.86,1012.34 1589.56,1015.86 1584.15,1019.29 1578.64,1022.64 1573.03,1025.89 1567.33,1029.05 1561.54,1032.13 1555.66,1035.12 1549.7,1038.02 1543.66,1040.84 1537.55,1043.57 1531.38,1046.22 1525.14,1048.78 1518.84,1051.26 1512.49,1053.66 1506.08,1055.97 1499.63,1058.21 1493.13,1060.36 1486.6,1062.44 1480.02,1064.43 1473.42,1066.35 1466.78,1068.2 1460.12,1069.96 1453.44,1071.65 1446.74,1073.27 1440.02,1074.81 1433.28,1076.28 1426.54,1077.68 1419.79,1079.01 1413.04,1080.26 1406.28,1081.45 1399.53,1082.57 1392.78,1083.62 1386.03,1084.61 1379.29,1085.53 1372.57,1086.38 1365.85,1087.17 1359.15,1087.89 1352.47,1088.55 1345.81,1089.14 1339.16,1089.68 1332.54,1090.14 1325.95,1090.55 1319.38,1090.89 1312.84,1091.18 1306.33,1091.4 1299.85,1091.56 1293.41,1091.66 1287.01,1091.7 1280.64,1091.68 1274.31,1091.6 1268.02,1091.46 1261.77,1091.27 1255.57,1091.01 1249.42,1090.7 1243.31,1090.33 1237.24,1089.9 1231.23,1089.42 1225.27,1088.87 1219.36,1088.27 1213.5,1087.62 1207.7,1086.91 1201.95,1086.14 1196.26,1085.31 1190.63,1084.43 1185.05,1083.5 1179.54,1082.5 1174.08,1081.46 1168.68,1080.35 1163.35,1079.19 1158.08,1077.98 1152.86,1076.71 1147.72,1075.39 1142.63,1074.01 1137.62,1072.57 1132.66,1071.08 1127.77,1069.53 1122.95,1067.93 1118.19,1066.27 1113.5,1064.56 1108.87,1062.79 1104.32,1060.97 1099.82,1059.09 1095.4,1057.16 1091.04,1055.16 1086.75,1053.12 1082.52,1051.01 1078.36,1048.85 1074.27,1046.64 1070.26,1044.37 1066.31,1042.04 1062.44,1039.66 1058.64,1037.22 1054.91,1034.72 1051.25,1032.17 1047.67,1029.56 1044.17,1026.89 1040.74,1024.17 1037.38,1021.39 1034.1,1018.55 1030.9,1015.65 1027.78,1012.7 1024.73,1009.69 1021.76,1006.62 1018.87,1003.49 1016.06,1000.3 1013.32,997.056 1010.67,993.754 1008.1,990.394 1005.61,986.976 1003.2,983.5 1000.87,979.967 998.629,976.377 996.468,972.729 994.391,969.025 992.399,965.264 990.491,961.447 988.67,957.573 986.934,953.644 985.286,949.66 983.725,945.62 982.252,941.526 980.867,937.378 979.572,933.176 978.367,928.92 977.253,924.612 976.23,920.252 975.298,915.839 974.46,911.376 973.714,906.862 973.062,902.298 972.505,897.685 972.043,893.023 971.677,888.313 971.408,883.557 971.235,878.754 971.158,873.909 971.179,869.02 971.3,864.09 971.522,859.119 971.845,854.109 972.272,849.062 972.804,843.977 973.442,838.857 974.187,833.704 975.041,828.519 976.005,823.304 977.079,818.06 978.265,812.791 979.565,807.497 980.978,802.181 982.507,796.845 984.153,791.491 985.916,786.123 987.797,780.741 989.797,775.35 991.918,769.951 994.161,764.548 996.525,759.143 999.013,753.739 1001.62,748.339 1004.36,742.947 1007.22,737.565 1010.21,732.197 1013.33,726.847 1016.57,721.517 1019.94,716.212 1023.44,710.935 1027.07,705.69 1030.84,700.481 1034.73,695.311 1038.76,690.186 1042.91,685.108 1047.2,680.082 1051.63,675.113 1056.19,670.205 1060.88,665.362 1065.71,660.59 1070.67,655.892 1075.77,651.273 1081.01,646.739 1086.38,642.294 1091.89,637.944 1097.53,633.693 1103.32,629.547 1109.24,625.511 1115.3,621.591 1121.5,617.792 1127.84,614.119 1134.31,610.579 1140.93,607.175 1147.69,603.911 1154.6,600.791 1161.64,597.822 1168.82,595.009 1176.13,592.357 1183.56,589.87 1191.12,587.553 1198.8,585.41 1206.59,583.446 1214.49,581.662 1222.5,580.065 1230.6,578.655 1238.81,577.437 1247.1,576.413 1255.48,575.585 1263.94,574.957 1272.48,574.529 1281.09,574.303 1289.77,574.282 1298.5,574.466 1307.29,574.855 1316.13,575.452 1325.01,576.256 1333.93,577.268 1342.88,578.487 1351.85,579.913 1360.84,581.546 1369.85,583.386 1378.85,585.43 1387.86,587.678 1396.86,590.128 1405.85,592.778 1414.82,595.627 1423.75,598.673 1432.65,601.911 1441.51,605.341 1450.32,608.959 1459.07,612.761 1467.76,616.745 1476.37,620.906 1484.9,625.24 1493.34,629.744 1501.69,634.412 1509.93,639.24 1518.06,644.223 1526.07,649.356 1533.95,654.633 1541.69,660.048 1549.28,665.596 1556.72,671.27 1564.01,677.061 1571.12,682.962 1578.07,688.964 1584.83,695.06 1591.4,701.242 1597.77,707.503 1603.95,713.835 1609.91,720.231 1615.65,726.684 1621.17,733.188 1626.47,739.734 1631.53,746.318 1636.36,752.932 1640.94,759.569 1645.28,766.224 1649.37,772.891 1653.21,779.564 1656.8,786.236 1660.13,792.903 1663.2,799.558 1666.01,806.197 1668.56,812.814 1670.84,819.404 1672.87,825.963 1674.63,832.484 1676.13,838.965 1677.37,845.4 1678.36,851.784 1679.08,858.115 1679.54,864.386 1679.75,870.596 1679.71,876.739 1679.43,882.813 1678.89,888.813 1678.12,894.737 1677.11,900.58 1675.86,906.341 1674.39,912.016 1672.7,917.601 1670.79,923.096 1668.67,928.496 1666.35,933.801 1663.83,939.006 1661.12,944.112 1658.22,949.123 1655.13,954.041 1651.85,958.866 1648.39,963.597 1644.76,968.234 1640.96,972.778 1637,977.228 1632.88,981.585 1628.6,985.847 1624.18,990.017 1619.61,994.093 1614.91,998.075 1610.07,1001.96 1605.11,1005.76 1600.02,1009.47 1594.82,1013.08 1589.5,1016.6 1584.07,1020.03 1578.54,1023.37 1572.91,1026.62 1567.19,1029.77 1561.37,1032.84 1555.47,1035.82 1549.49,1038.72 1543.43,1041.52 1537.3,1044.24 1531.1,1046.87 1524.83,1049.42 1518.51,1051.88 1512.13,1054.27 1505.7,1056.56 1499.22,1058.78 1492.7,1060.92 1486.14,1062.98 1479.54,1064.96 1472.91,1066.86 1466.26,1068.69 1459.57,1070.44 1452.87,1072.12 1446.15,1073.73 1439.42,1075.27 1432.68,1076.73 1425.92,1078.13 1419.15,1079.45 1412.38,1080.7 1405.61,1081.89 1398.84,1083 1392.07,1084.05 1385.3,1085.03 1378.55,1085.94 1371.8,1086.78 1365.07,1087.56 1358.35,1088.28 1351.66,1088.93 1344.98,1089.51 1338.32,1090.03 1331.69,1090.49 1325.08,1090.89 1318.51,1091.22 1311.96,1091.5 1305.45,1091.71 1298.97,1091.86 1292.52,1091.95 1286.12,1091.99 1279.75,1091.96 1273.43,1091.87 1267.14,1091.73 1260.9,1091.52 1254.71,1091.26 1248.56,1090.94 1242.47,1090.56 1236.42,1090.13 1230.42,1089.64 1224.47,1089.09 1218.58,1088.49 1212.73,1087.82 1206.95,1087.11 1201.22,1086.33 1195.54,1085.5 1189.92,1084.62 1184.36,1083.68 1178.86,1082.68 1173.41,1081.63 1168.03,1080.52 1162.7,1079.36 1157.44,1078.14 1152.23,1076.86 1147.09,1075.53 1142.01,1074.15 1136.98,1072.7 1132.02,1071.21 1127.12,1069.65 1122.28,1068.04 1117.51,1066.38 1112.8,1064.66 1108.15,1062.89 1103.58,1061.06 1099.07,1059.17 1094.63,1057.23 1090.26,1055.23 1085.96,1053.18 1081.73,1051.07 1077.57,1048.91 1073.48,1046.69 1069.47,1044.41 1065.52,1042.07 1061.65,1039.68 1057.85,1037.23 1054.12,1034.72 1050.47,1032.16 1046.89,1029.53 1043.39,1026.85 1039.96,1024.12 1036.61,1021.32 1033.33,1018.47 1030.14,1015.56 1027.02,1012.59 1023.97,1009.56 1021.01,1006.48 1018.13,1003.34 1015.32,1000.14 1012.6,996.886 1009.95,993.572 1007.39,990.201 1004.91,986.773 1002.51,983.288 1000.19,979.746 997.955,976.147 995.804,972.491 993.737,968.779 991.755,965.011 989.858,961.186 988.047,957.306 986.322,953.37 984.683,949.378 983.131,945.331 981.667,941.229 980.292,937.073 979.004,932.862 977.806,928.598 976.698,924.279 975.679,919.91 974.751,915.491 973.914,911.022 973.17,906.505 972.52,901.939 971.964,897.325 971.504,892.662 971.14,887.953 970.874,883.197 970.707,878.395 970.64,873.548 970.673,868.657 970.808,863.723 971.045,858.747 971.387,853.731 971.832,848.675 972.384,843.582 973.042,838.452 973.807,833.288 974.681,828.091 975.665,822.863 976.759,817.605 977.965,812.321 979.283,807.011 980.714,801.678 982.26,796.325 983.92,790.954 985.698,785.566 987.592,780.166 989.604,774.755 991.736,769.336 993.987,763.912 996.359,758.486 998.853,753.061 1001.47,747.641 1004.21,742.227 1007.08,736.825 1010.07,731.436 1013.18,726.066 1016.43,720.716 1019.8,715.391 1023.3,710.095 1026.94,704.832 1030.7,699.605 1034.59,694.419 1038.62,689.277 1042.78,684.185 1047.08,679.146 1051.51,674.165 1056.08,669.247 1060.78,664.395 1065.62,659.616 1070.6,654.913 1075.73,650.292 1080.99,645.757 1086.39,641.314 1091.94,636.965 1097.63,632.712 1103.47,628.561 1109.46,624.518 1115.59,620.59 1121.86,616.783 1128.27,613.104 1134.82,609.558 1141.5,606.15 1148.32,602.887 1155.27,599.773 1162.35,596.814 1169.55,594.014 1176.88,591.377 1184.33,588.908 1191.9,586.611 1199.58,584.49 1207.37,582.548 1215.27,580.79 1223.27,579.217 1231.37,577.834 1239.57,576.642 1247.86,575.645 1256.23,574.844 1264.69,574.242 1273.22,573.841 1281.83,573.642 1290.5,573.647 1299.24,573.857 1308.03,574.274 1316.88,574.896 1325.77,575.727 1334.7,576.764 1343.67,578.01 1352.67,579.464 1361.68,581.124 1370.72,582.992 1379.76,585.066 1388.81,587.345 1397.85,589.828 1406.88,592.513 1415.89,595.399 1424.88,598.484 1433.83,601.766 1442.75,605.243 1451.61,608.912 1460.42,612.77 1469.16,616.815 1477.84,621.042 1486.43,625.45 1494.93,630.033 1503.33,634.784 1511.63,639.694 1519.81,644.757 1527.86,649.965 1535.77,655.31 1543.54,660.787 1551.16,666.387 1558.61,672.104 1565.9,677.93 1573.01,683.859 1579.93,689.884 1586.66,695.999 1593.19,702.195 1599.52,708.468 1605.63,714.81 1611.53,721.214 1617.21,727.675 1622.67,734.186 1627.89,740.741 1632.88,747.333 1637.63,753.956 1642.14,760.605 1646.4,767.272 1650.42,773.953 1654.18,780.641 1657.69,787.331 1660.95,794.016 1663.95,800.692 1666.69,807.351 1669.18,813.99 1671.4,820.602 1673.37,827.181 1675.08,833.724 1676.53,840.223 1677.72,846.675 1678.65,853.073 1679.33,859.413 1679.76,865.69 1679.94,871.899 1679.87,878.034 1679.55,884.092 1678.99,890.067 1678.19,895.954 1677.16,901.749 1675.89,907.451 1674.4,913.068 1672.69,918.6 1670.76,924.047 1668.62,929.406 1666.28,934.677 1663.73,939.86 1660.99,944.952 1658.06,949.954 1654.93,954.865 1651.63,959.683 1648.15,964.409 1644.5,969.042 1640.68,973.582 1636.7,978.027 1632.56,982.378 1628.26,986.635 1623.82,990.797 1619.24,994.865 1614.51,998.838 1609.66,1002.72 1604.67,1006.5 1599.56,1010.19 1594.33,1013.79 1588.99,1017.29 1583.53,1020.7 1577.97,1024.01 1572.31,1027.24 1566.56,1030.37 1560.71,1033.41 1554.77,1036.36 1548.76,1039.23 1542.66,1042 1536.5,1044.69 1530.26,1047.29 1523.96,1049.81 1517.61,1052.24 1511.2,1054.59 1504.74,1056.86 1498.23,1059.05 1491.69,1061.16 1485.1,1063.2 1478.49,1065.16 1471.85,1067.04 1465.19,1068.86 1458.51,1070.6 "/>
<circle clip-path="url(#clip733)" cx="1419.4" cy="597.618" r="14.4" fill="#e26f46" fill-rule="evenodd" fill-opacity="1" stroke="#000000" stroke-opacity="1" stroke-width="3.2"/>
<circle clip-path="url(#clip733)" cx="1629.41" cy="669.855" r="14.4" fill="#e26f46" fill-rule="evenodd" fill-opacity="1" stroke="#000000" stroke-opacity="1" stroke-width="3.2"/>
<circle clip-path="url(#clip733)" cx="1811.39" cy="839.589" r="14.4" fill="#e26f46" fill-rule="evenodd" fill-opacity="1" stroke="#000000" stroke-opacity="1" stroke-width="3.2"/>
<circle clip-path="url(#clip733)" cx="1845.02" cy="1040.77" r="14.4" fill="#e26f46" fill-rule="evenodd" fill-opacity="1" stroke="#000000" stroke-opacity="1" stroke-width="3.2"/>
<circle clip-path="url(#clip733)" cx="1671.38" cy="1181.04" r="14.4" fill="#e26f46" fill-rule="evenodd" fill-opacity="1" stroke="#000000" stroke-opacity="1" stroke-width="3.2"/>
<circle clip-path="url(#clip733)" cx="1386.76" cy="1242.27" r="14.4" fill="#e26f46" fill-rule="evenodd" fill-opacity="1" stroke="#000000" stroke-opacity="1" stroke-width="3.2"/>
<circle clip-path="url(#clip733)" cx="1112.48" cy="1254.22" r="14.4" fill="#e26f46" fill-rule="evenodd" fill-opacity="1" stroke="#000000" stroke-opacity="1" stroke-width="3.2"/>
<circle clip-path="url(#clip733)" cx="895.856" cy="1234.97" r="14.4" fill="#e26f46" fill-rule="evenodd" fill-opacity="1" stroke="#000000" stroke-opacity="1" stroke-width="3.2"/>
<circle clip-path="url(#clip733)" cx="740.054" cy="1186.78" r="14.4" fill="#e26f46" fill-rule="evenodd" fill-opacity="1" stroke="#000000" stroke-opacity="1" stroke-width="3.2"/>
<circle clip-path="url(#clip733)" cx="636.093" cy="1102.08" r="14.4" fill="#e26f46" fill-rule="evenodd" fill-opacity="1" stroke="#000000" stroke-opacity="1" stroke-width="3.2"/>
<circle clip-path="url(#clip733)" cx="575.336" cy="965.112" r="14.4" fill="#e26f46" fill-rule="evenodd" fill-opacity="1" stroke="#000000" stroke-opacity="1" stroke-width="3.2"/>
<circle clip-path="url(#clip733)" cx="554.442" cy="751.465" r="14.4" fill="#e26f46" fill-rule="evenodd" fill-opacity="1" stroke="#000000" stroke-opacity="1" stroke-width="3.2"/>
<circle clip-path="url(#clip733)" cx="580.296" cy="428.962" r="14.4" fill="#e26f46" fill-rule="evenodd" fill-opacity="1" stroke="#000000" stroke-opacity="1" stroke-width="3.2"/>
<circle clip-path="url(#clip733)" cx="1935.35" cy="1369.76" r="14.4" fill="#e26f46" fill-rule="evenodd" fill-opacity="1" stroke="#000000" stroke-opacity="1" stroke-width="3.2"/>
<circle clip-path="url(#clip733)" cx="1393.06" cy="1392.52" r="14.4" fill="#e26f46" fill-rule="evenodd" fill-opacity="1" stroke="#000000" stroke-opacity="1" stroke-width="3.2"/>
<circle clip-path="url(#clip733)" cx="1005.15" cy="1394.67" r="14.4" fill="#e26f46" fill-rule="evenodd" fill-opacity="1" stroke="#000000" stroke-opacity="1" stroke-width="3.2"/>
<circle clip-path="url(#clip733)" cx="744.377" cy="1389.42" r="14.4" fill="#e26f46" fill-rule="evenodd" fill-opacity="1" stroke="#000000" stroke-opacity="1" stroke-width="3.2"/>
<circle clip-path="url(#clip733)" cx="571.9" cy="1377.42" r="14.4" fill="#e26f46" fill-rule="evenodd" fill-opacity="1" stroke="#000000" stroke-opacity="1" stroke-width="3.2"/>
<circle clip-path="url(#clip733)" cx="458.777" cy="1355.97" r="14.4" fill="#e26f46" fill-rule="evenodd" fill-opacity="1" stroke="#000000" stroke-opacity="1" stroke-width="3.2"/>
<circle clip-path="url(#clip733)" cx="385.22" cy="1319.48" r="14.4" fill="#e26f46" fill-rule="evenodd" fill-opacity="1" stroke="#000000" stroke-opacity="1" stroke-width="3.2"/>
<circle clip-path="url(#clip733)" cx="338.113" cy="1258.18" r="14.4" fill="#e26f46" fill-rule="evenodd" fill-opacity="1" stroke="#000000" stroke-opacity="1" stroke-width="3.2"/>
<circle clip-path="url(#clip733)" cx="309.015" cy="1155.53" r="14.4" fill="#e26f46" fill-rule="evenodd" fill-opacity="1" stroke="#000000" stroke-opacity="1" stroke-width="3.2"/>
<circle clip-path="url(#clip733)" cx="292.899" cy="983.919" r="14.4" fill="#e26f46" fill-rule="evenodd" fill-opacity="1" stroke="#000000" stroke-opacity="1" stroke-width="3.2"/>
<circle clip-path="url(#clip733)" cx="287.704" cy="697.629" r="14.4" fill="#e26f46" fill-rule="evenodd" fill-opacity="1" stroke="#000000" stroke-opacity="1" stroke-width="3.2"/>
<circle clip-path="url(#clip733)" cx="295.316" cy="222.276" r="14.4" fill="#e26f46" fill-rule="evenodd" fill-opacity="1" stroke="#000000" stroke-opacity="1" stroke-width="3.2"/>
<path clip-path="url(#clip730)" d="M1513.7 248.629 L2281.64 248.629 L2281.64 93.1086 L1513.7 93.1086  Z" fill="#ffffff" fill-rule="evenodd" fill-opacity="1"/>
<polyline clip-path="url(#clip730)" style="stroke:#000000; stroke-linecap:round; stroke-linejoin:round; stroke-width:4; stroke-opacity:1; fill:none" points="1513.7,248.629 2281.64,248.629 2281.64,93.1086 1513.7,93.1086 1513.7,248.629 "/>
<polyline clip-path="url(#clip730)" style="stroke:#009af9; stroke-linecap:round; stroke-linejoin:round; stroke-width:8; stroke-opacity:1; fill:none" points="1537.41,144.949 1679.63,144.949 "/>
<path clip-path="url(#clip730)" d="M1719.72 146.025 Q1721.23 146.534 1722.64 148.201 Q1724.08 149.868 1725.51 152.784 L1730.26 162.229 L1725.23 162.229 L1720.81 153.363 Q1719.1 149.891 1717.48 148.756 Q1715.88 147.622 1713.1 147.622 L1708.01 147.622 L1708.01 162.229 L1703.34 162.229 L1703.34 127.669 L1713.89 127.669 Q1719.82 127.669 1722.73 130.145 Q1725.65 132.622 1725.65 137.622 Q1725.65 140.886 1724.12 143.039 Q1722.62 145.192 1719.72 146.025 M1708.01 131.511 L1708.01 143.78 L1713.89 143.78 Q1717.27 143.78 1718.98 142.229 Q1720.72 140.655 1720.72 137.622 Q1720.72 134.59 1718.98 133.062 Q1717.27 131.511 1713.89 131.511 L1708.01 131.511 Z" fill="#000000" fill-rule="evenodd" fill-opacity="1" /><path clip-path="url(#clip730)" d="M1756.14 148.201 L1756.14 150.284 L1736.55 150.284 Q1736.83 154.682 1739.19 156.997 Q1741.58 159.289 1745.81 159.289 Q1748.27 159.289 1750.56 158.687 Q1752.87 158.085 1755.14 156.881 L1755.14 160.909 Q1752.85 161.881 1750.44 162.391 Q1748.03 162.9 1745.56 162.9 Q1739.35 162.9 1735.72 159.289 Q1732.11 155.678 1732.11 149.52 Q1732.11 143.155 1735.53 139.428 Q1738.98 135.678 1744.82 135.678 Q1750.05 135.678 1753.08 139.057 Q1756.14 142.414 1756.14 148.201 M1751.88 146.951 Q1751.83 143.456 1749.91 141.372 Q1748.01 139.289 1744.86 139.289 Q1741.3 139.289 1739.15 141.303 Q1737.02 143.317 1736.69 146.974 L1751.88 146.951 Z" fill="#000000" fill-rule="evenodd" fill-opacity="1" /><path clip-path="url(#clip730)" d="M1776.25 126.21 L1776.25 129.752 L1772.18 129.752 Q1769.89 129.752 1768.98 130.678 Q1768.1 131.604 1768.1 134.011 L1768.1 136.303 L1775.12 136.303 L1775.12 139.613 L1768.1 139.613 L1768.1 162.229 L1763.82 162.229 L1763.82 139.613 L1759.75 139.613 L1759.75 136.303 L1763.82 136.303 L1763.82 134.497 Q1763.82 130.169 1765.84 128.201 Q1767.85 126.21 1772.22 126.21 L1776.25 126.21 Z" fill="#000000" fill-rule="evenodd" fill-opacity="1" /><path clip-path="url(#clip730)" d="M1801.99 148.201 L1801.99 150.284 L1782.41 150.284 Q1782.69 154.682 1785.05 156.997 Q1787.43 159.289 1791.67 159.289 Q1794.12 159.289 1796.41 158.687 Q1798.73 158.085 1801 156.881 L1801 160.909 Q1798.71 161.881 1796.3 162.391 Q1793.89 162.9 1791.41 162.9 Q1785.21 162.9 1781.58 159.289 Q1777.96 155.678 1777.96 149.52 Q1777.96 143.155 1781.39 139.428 Q1784.84 135.678 1790.67 135.678 Q1795.9 135.678 1798.94 139.057 Q1801.99 142.414 1801.99 148.201 M1797.73 146.951 Q1797.69 143.456 1795.77 141.372 Q1793.87 139.289 1790.72 139.289 Q1787.15 139.289 1785 141.303 Q1782.87 143.317 1782.55 146.974 L1797.73 146.951 Z" fill="#000000" fill-rule="evenodd" fill-opacity="1" /><path clip-path="url(#clip730)" d="M1824.01 140.284 Q1823.29 139.868 1822.43 139.682 Q1821.6 139.474 1820.58 139.474 Q1816.97 139.474 1815.02 141.835 Q1813.1 144.173 1813.1 148.571 L1813.1 162.229 L1808.82 162.229 L1808.82 136.303 L1813.1 136.303 L1813.1 140.331 Q1814.45 137.969 1816.6 136.835 Q1818.75 135.678 1821.83 135.678 Q1822.27 135.678 1822.8 135.747 Q1823.34 135.794 1823.98 135.909 L1824.01 140.284 Z" fill="#000000" fill-rule="evenodd" fill-opacity="1" /><path clip-path="url(#clip730)" d="M1849.61 148.201 L1849.61 150.284 L1830.02 150.284 Q1830.3 154.682 1832.66 156.997 Q1835.05 159.289 1839.28 159.289 Q1841.74 159.289 1844.03 158.687 Q1846.34 158.085 1848.61 156.881 L1848.61 160.909 Q1846.32 161.881 1843.91 162.391 Q1841.51 162.9 1839.03 162.9 Q1832.83 162.9 1829.19 159.289 Q1825.58 155.678 1825.58 149.52 Q1825.58 143.155 1829.01 139.428 Q1832.46 135.678 1838.29 135.678 Q1843.52 135.678 1846.55 139.057 Q1849.61 142.414 1849.61 148.201 M1845.35 146.951 Q1845.3 143.456 1843.38 141.372 Q1841.48 139.289 1838.33 139.289 Q1834.77 139.289 1832.62 141.303 Q1830.49 143.317 1830.16 146.974 L1845.35 146.951 Z" fill="#000000" fill-rule="evenodd" fill-opacity="1" /><path clip-path="url(#clip730)" d="M1878.15 146.581 L1878.15 162.229 L1873.89 162.229 L1873.89 146.719 Q1873.89 143.039 1872.46 141.21 Q1871.02 139.382 1868.15 139.382 Q1864.7 139.382 1862.71 141.581 Q1860.72 143.78 1860.72 147.576 L1860.72 162.229 L1856.44 162.229 L1856.44 136.303 L1860.72 136.303 L1860.72 140.331 Q1862.25 137.993 1864.31 136.835 Q1866.39 135.678 1869.1 135.678 Q1873.57 135.678 1875.86 138.456 Q1878.15 141.21 1878.15 146.581 Z" fill="#000000" fill-rule="evenodd" fill-opacity="1" /><path clip-path="url(#clip730)" d="M1905.3 137.298 L1905.3 141.28 Q1903.5 140.284 1901.67 139.798 Q1899.86 139.289 1898.01 139.289 Q1893.87 139.289 1891.58 141.928 Q1889.28 144.544 1889.28 149.289 Q1889.28 154.034 1891.58 156.673 Q1893.87 159.289 1898.01 159.289 Q1899.86 159.289 1901.67 158.803 Q1903.5 158.293 1905.3 157.298 L1905.3 161.233 Q1903.52 162.067 1901.6 162.483 Q1899.7 162.9 1897.55 162.9 Q1891.69 162.9 1888.24 159.219 Q1884.79 155.539 1884.79 149.289 Q1884.79 142.946 1888.27 139.312 Q1891.76 135.678 1897.83 135.678 Q1899.79 135.678 1901.67 136.095 Q1903.54 136.488 1905.3 137.298 Z" fill="#000000" fill-rule="evenodd" fill-opacity="1" /><path clip-path="url(#clip730)" d="M1934.89 148.201 L1934.89 150.284 L1915.3 150.284 Q1915.58 154.682 1917.94 156.997 Q1920.33 159.289 1924.56 159.289 Q1927.02 159.289 1929.31 158.687 Q1931.62 158.085 1933.89 156.881 L1933.89 160.909 Q1931.6 161.881 1929.19 162.391 Q1926.78 162.9 1924.31 162.9 Q1918.1 162.9 1914.47 159.289 Q1910.86 155.678 1910.86 149.52 Q1910.86 143.155 1914.28 139.428 Q1917.73 135.678 1923.57 135.678 Q1928.8 135.678 1931.83 139.057 Q1934.89 142.414 1934.89 148.201 M1930.63 146.951 Q1930.58 143.456 1928.66 141.372 Q1926.76 139.289 1923.61 139.289 Q1920.05 139.289 1917.89 141.303 Q1915.77 143.317 1915.44 146.974 L1930.63 146.951 Z" fill="#000000" fill-rule="evenodd" fill-opacity="1" /><path clip-path="url(#clip730)" d="M1973.47 137.067 L1973.47 141.094 Q1971.67 140.169 1969.72 139.706 Q1967.78 139.243 1965.7 139.243 Q1962.52 139.243 1960.93 140.215 Q1959.35 141.187 1959.35 143.131 Q1959.35 144.613 1960.49 145.469 Q1961.62 146.303 1965.05 147.067 L1966.51 147.391 Q1971.04 148.363 1972.94 150.145 Q1974.86 151.905 1974.86 155.076 Q1974.86 158.687 1971.99 160.793 Q1969.14 162.9 1964.14 162.9 Q1962.06 162.9 1959.79 162.483 Q1957.55 162.09 1955.05 161.28 L1955.05 156.881 Q1957.41 158.108 1959.7 158.733 Q1961.99 159.335 1964.24 159.335 Q1967.25 159.335 1968.87 158.317 Q1970.49 157.275 1970.49 155.4 Q1970.49 153.664 1969.31 152.738 Q1968.15 151.812 1964.19 150.956 L1962.71 150.608 Q1958.75 149.775 1956.99 148.062 Q1955.23 146.326 1955.23 143.317 Q1955.23 139.659 1957.83 137.669 Q1960.42 135.678 1965.19 135.678 Q1967.55 135.678 1969.63 136.025 Q1971.71 136.372 1973.47 137.067 Z" fill="#000000" fill-rule="evenodd" fill-opacity="1" /><path clip-path="url(#clip730)" d="M1991.69 139.289 Q1988.26 139.289 1986.27 141.974 Q1984.28 144.636 1984.28 149.289 Q1984.28 153.942 1986.25 156.627 Q1988.24 159.289 1991.69 159.289 Q1995.09 159.289 1997.08 156.604 Q1999.07 153.918 1999.07 149.289 Q1999.07 144.682 1997.08 141.997 Q1995.09 139.289 1991.69 139.289 M1991.69 135.678 Q1997.25 135.678 2000.42 139.289 Q2003.59 142.9 2003.59 149.289 Q2003.59 155.655 2000.42 159.289 Q1997.25 162.9 1991.69 162.9 Q1986.11 162.9 1982.94 159.289 Q1979.79 155.655 1979.79 149.289 Q1979.79 142.9 1982.94 139.289 Q1986.11 135.678 1991.69 135.678 Z" fill="#000000" fill-rule="evenodd" fill-opacity="1" /><path clip-path="url(#clip730)" d="M2010.65 126.21 L2014.91 126.21 L2014.91 162.229 L2010.65 162.229 L2010.65 126.21 Z" fill="#000000" fill-rule="evenodd" fill-opacity="1" /><path clip-path="url(#clip730)" d="M2023.38 151.997 L2023.38 136.303 L2027.64 136.303 L2027.64 151.835 Q2027.64 155.516 2029.07 157.368 Q2030.51 159.196 2033.38 159.196 Q2036.83 159.196 2038.82 156.997 Q2040.83 154.798 2040.83 151.002 L2040.83 136.303 L2045.09 136.303 L2045.09 162.229 L2040.83 162.229 L2040.83 158.247 Q2039.28 160.608 2037.22 161.766 Q2035.19 162.9 2032.48 162.9 Q2028.01 162.9 2025.7 160.122 Q2023.38 157.344 2023.38 151.997 M2034.1 135.678 L2034.1 135.678 Z" fill="#000000" fill-rule="evenodd" fill-opacity="1" /><path clip-path="url(#clip730)" d="M2058.08 128.942 L2058.08 136.303 L2066.85 136.303 L2066.85 139.613 L2058.08 139.613 L2058.08 153.687 Q2058.08 156.858 2058.94 157.761 Q2059.82 158.664 2062.48 158.664 L2066.85 158.664 L2066.85 162.229 L2062.48 162.229 Q2057.55 162.229 2055.67 160.4 Q2053.8 158.548 2053.8 153.687 L2053.8 139.613 L2050.67 139.613 L2050.67 136.303 L2053.8 136.303 L2053.8 128.942 L2058.08 128.942 Z" fill="#000000" fill-rule="evenodd" fill-opacity="1" /><path clip-path="url(#clip730)" d="M2072.45 136.303 L2076.71 136.303 L2076.71 162.229 L2072.45 162.229 L2072.45 136.303 M2072.45 126.21 L2076.71 126.21 L2076.71 131.604 L2072.45 131.604 L2072.45 126.21 Z" fill="#000000" fill-rule="evenodd" fill-opacity="1" /><path clip-path="url(#clip730)" d="M2095.67 139.289 Q2092.25 139.289 2090.25 141.974 Q2088.26 144.636 2088.26 149.289 Q2088.26 153.942 2090.23 156.627 Q2092.22 159.289 2095.67 159.289 Q2099.07 159.289 2101.07 156.604 Q2103.06 153.918 2103.06 149.289 Q2103.06 144.682 2101.07 141.997 Q2099.07 139.289 2095.67 139.289 M2095.67 135.678 Q2101.23 135.678 2104.4 139.289 Q2107.57 142.9 2107.57 149.289 Q2107.57 155.655 2104.4 159.289 Q2101.23 162.9 2095.67 162.9 Q2090.09 162.9 2086.92 159.289 Q2083.77 155.655 2083.77 149.289 Q2083.77 142.9 2086.92 139.289 Q2090.09 135.678 2095.67 135.678 Z" fill="#000000" fill-rule="evenodd" fill-opacity="1" /><path clip-path="url(#clip730)" d="M2136.18 146.581 L2136.18 162.229 L2131.92 162.229 L2131.92 146.719 Q2131.92 143.039 2130.49 141.21 Q2129.05 139.382 2126.18 139.382 Q2122.73 139.382 2120.74 141.581 Q2118.75 143.78 2118.75 147.576 L2118.75 162.229 L2114.47 162.229 L2114.47 136.303 L2118.75 136.303 L2118.75 140.331 Q2120.28 137.993 2122.34 136.835 Q2124.42 135.678 2127.13 135.678 Q2131.6 135.678 2133.89 138.456 Q2136.18 141.21 2136.18 146.581 Z" fill="#000000" fill-rule="evenodd" fill-opacity="1" /><circle clip-path="url(#clip730)" cx="1608.52" cy="196.789" r="23.04" fill="#e26f46" fill-rule="evenodd" fill-opacity="1" stroke="#000000" stroke-opacity="1" stroke-width="5.12"/>
<path clip-path="url(#clip730)" d="M1703.34 179.509 L1725.19 179.509 L1725.19 183.444 L1708.01 183.444 L1708.01 193.675 L1724.47 193.675 L1724.47 197.61 L1708.01 197.61 L1708.01 210.133 L1725.6 210.133 L1725.6 214.069 L1703.34 214.069 L1703.34 179.509 Z" fill="#000000" fill-rule="evenodd" fill-opacity="1" /><path clip-path="url(#clip730)" d="M1754.65 188.143 L1745.28 200.759 L1755.14 214.069 L1750.12 214.069 L1742.57 203.883 L1735.03 214.069 L1730 214.069 L1740.07 200.504 L1730.86 188.143 L1735.88 188.143 L1742.76 197.379 L1749.63 188.143 L1754.65 188.143 Z" fill="#000000" fill-rule="evenodd" fill-opacity="1" /><path clip-path="url(#clip730)" d="M1765.28 210.18 L1765.28 223.93 L1761 223.93 L1761 188.143 L1765.28 188.143 L1765.28 192.078 Q1766.62 189.763 1768.66 188.652 Q1770.72 187.518 1773.57 187.518 Q1778.29 187.518 1781.23 191.268 Q1784.19 195.018 1784.19 201.129 Q1784.19 207.24 1781.23 210.99 Q1778.29 214.74 1773.57 214.74 Q1770.72 214.74 1768.66 213.629 Q1766.62 212.495 1765.28 210.18 M1779.77 201.129 Q1779.77 196.43 1777.83 193.768 Q1775.9 191.083 1772.53 191.083 Q1769.15 191.083 1767.2 193.768 Q1765.28 196.43 1765.28 201.129 Q1765.28 205.828 1767.2 208.513 Q1769.15 211.175 1772.53 211.175 Q1775.9 211.175 1777.83 208.513 Q1779.77 205.828 1779.77 201.129 Z" fill="#000000" fill-rule="evenodd" fill-opacity="1" /><path clip-path="url(#clip730)" d="M1791.25 178.05 L1795.51 178.05 L1795.51 214.069 L1791.25 214.069 L1791.25 178.05 Z" fill="#000000" fill-rule="evenodd" fill-opacity="1" /><path clip-path="url(#clip730)" d="M1804.42 188.143 L1808.68 188.143 L1808.68 214.069 L1804.42 214.069 L1804.42 188.143 M1804.42 178.05 L1808.68 178.05 L1808.68 183.444 L1804.42 183.444 L1804.42 178.05 Z" fill="#000000" fill-rule="evenodd" fill-opacity="1" /><path clip-path="url(#clip730)" d="M1836.25 189.138 L1836.25 193.12 Q1834.45 192.124 1832.62 191.638 Q1830.81 191.129 1828.96 191.129 Q1824.82 191.129 1822.52 193.768 Q1820.23 196.384 1820.23 201.129 Q1820.23 205.874 1822.52 208.513 Q1824.82 211.129 1828.96 211.129 Q1830.81 211.129 1832.62 210.643 Q1834.45 210.133 1836.25 209.138 L1836.25 213.073 Q1834.47 213.907 1832.55 214.323 Q1830.65 214.74 1828.5 214.74 Q1822.64 214.74 1819.19 211.059 Q1815.74 207.379 1815.74 201.129 Q1815.74 194.786 1819.21 191.152 Q1822.71 187.518 1828.77 187.518 Q1830.74 187.518 1832.62 187.935 Q1834.49 188.328 1836.25 189.138 Z" fill="#000000" fill-rule="evenodd" fill-opacity="1" /><path clip-path="url(#clip730)" d="M1843.66 188.143 L1847.92 188.143 L1847.92 214.069 L1843.66 214.069 L1843.66 188.143 M1843.66 178.05 L1847.92 178.05 L1847.92 183.444 L1843.66 183.444 L1843.66 178.05 Z" fill="#000000" fill-rule="evenodd" fill-opacity="1" /><path clip-path="url(#clip730)" d="M1861.04 180.782 L1861.04 188.143 L1869.82 188.143 L1869.82 191.453 L1861.04 191.453 L1861.04 205.527 Q1861.04 208.698 1861.9 209.601 Q1862.78 210.504 1865.44 210.504 L1869.82 210.504 L1869.82 214.069 L1865.44 214.069 Q1860.51 214.069 1858.64 212.24 Q1856.76 210.388 1856.76 205.527 L1856.76 191.453 L1853.64 191.453 L1853.64 188.143 L1856.76 188.143 L1856.76 180.782 L1861.04 180.782 Z" fill="#000000" fill-rule="evenodd" fill-opacity="1" /><path clip-path="url(#clip730)" d="M1890.67 179.509 L1912.52 179.509 L1912.52 183.444 L1895.35 183.444 L1895.35 193.675 L1911.81 193.675 L1911.81 197.61 L1895.35 197.61 L1895.35 210.133 L1912.94 210.133 L1912.94 214.069 L1890.67 214.069 L1890.67 179.509 Z" fill="#000000" fill-rule="evenodd" fill-opacity="1" /><path clip-path="url(#clip730)" d="M1920 203.837 L1920 188.143 L1924.26 188.143 L1924.26 203.675 Q1924.26 207.356 1925.7 209.208 Q1927.13 211.036 1930 211.036 Q1933.45 211.036 1935.44 208.837 Q1937.45 206.638 1937.45 202.842 L1937.45 188.143 L1941.71 188.143 L1941.71 214.069 L1937.45 214.069 L1937.45 210.087 Q1935.9 212.448 1933.84 213.606 Q1931.81 214.74 1929.1 214.74 Q1924.63 214.74 1922.32 211.962 Q1920 209.184 1920 203.837 M1930.72 187.518 L1930.72 187.518 Z" fill="#000000" fill-rule="evenodd" fill-opacity="1" /><path clip-path="url(#clip730)" d="M1950.49 178.05 L1954.75 178.05 L1954.75 214.069 L1950.49 214.069 L1950.49 178.05 Z" fill="#000000" fill-rule="evenodd" fill-opacity="1" /><path clip-path="url(#clip730)" d="M1985.83 200.041 L1985.83 202.124 L1966.25 202.124 Q1966.53 206.522 1968.89 208.837 Q1971.27 211.129 1975.51 211.129 Q1977.96 211.129 1980.26 210.527 Q1982.57 209.925 1984.84 208.721 L1984.84 212.749 Q1982.55 213.721 1980.14 214.231 Q1977.73 214.74 1975.26 214.74 Q1969.05 214.74 1965.42 211.129 Q1961.81 207.518 1961.81 201.36 Q1961.81 194.995 1965.23 191.268 Q1968.68 187.518 1974.51 187.518 Q1979.75 187.518 1982.78 190.897 Q1985.83 194.254 1985.83 200.041 M1981.57 198.791 Q1981.53 195.296 1979.61 193.212 Q1977.71 191.129 1974.56 191.129 Q1971 191.129 1968.84 193.143 Q1966.71 195.157 1966.39 198.814 L1981.57 198.791 Z" fill="#000000" fill-rule="evenodd" fill-opacity="1" /><path clip-path="url(#clip730)" d="M2007.85 192.124 Q2007.13 191.708 2006.27 191.522 Q2005.44 191.314 2004.42 191.314 Q2000.81 191.314 1998.87 193.675 Q1996.95 196.013 1996.95 200.411 L1996.95 214.069 L1992.66 214.069 L1992.66 188.143 L1996.95 188.143 L1996.95 192.171 Q1998.29 189.809 2000.44 188.675 Q2002.59 187.518 2005.67 187.518 Q2006.11 187.518 2006.64 187.587 Q2007.18 187.634 2007.82 187.749 L2007.85 192.124 Z" fill="#000000" fill-rule="evenodd" fill-opacity="1" /><path clip-path="url(#clip730)" d="M2013.4 208.189 L2018.29 208.189 L2018.29 212.17 L2014.49 219.578 L2011.51 219.578 L2013.4 212.17 L2013.4 208.189 Z" fill="#000000" fill-rule="evenodd" fill-opacity="1" /><path clip-path="url(#clip730)" d="M2059.51 192.078 L2059.51 178.05 L2063.77 178.05 L2063.77 214.069 L2059.51 214.069 L2059.51 210.18 Q2058.17 212.495 2056.11 213.629 Q2054.07 214.74 2051.2 214.74 Q2046.51 214.74 2043.54 210.99 Q2040.6 207.24 2040.6 201.129 Q2040.6 195.018 2043.54 191.268 Q2046.51 187.518 2051.2 187.518 Q2054.07 187.518 2056.11 188.652 Q2058.17 189.763 2059.51 192.078 M2045 201.129 Q2045 205.828 2046.92 208.513 Q2048.87 211.175 2052.25 211.175 Q2055.63 211.175 2057.57 208.513 Q2059.51 205.828 2059.51 201.129 Q2059.51 196.43 2057.57 193.768 Q2055.63 191.083 2052.25 191.083 Q2048.87 191.083 2046.92 193.768 Q2045 196.43 2045 201.129 Z" fill="#000000" fill-rule="evenodd" fill-opacity="1" /><path clip-path="url(#clip730)" d="M2076.76 180.782 L2076.76 188.143 L2085.53 188.143 L2085.53 191.453 L2076.76 191.453 L2076.76 205.527 Q2076.76 208.698 2077.62 209.601 Q2078.5 210.504 2081.16 210.504 L2085.53 210.504 L2085.53 214.069 L2081.16 214.069 Q2076.23 214.069 2074.35 212.24 Q2072.48 210.388 2072.48 205.527 L2072.48 191.453 L2069.35 191.453 L2069.35 188.143 L2072.48 188.143 L2072.48 180.782 L2076.76 180.782 Z" fill="#000000" fill-rule="evenodd" fill-opacity="1" /><path clip-path="url(#clip730)" d="M2106.76 192.541 L2136.44 192.541 L2136.44 196.43 L2106.76 196.43 L2106.76 192.541 M2106.76 201.985 L2136.44 201.985 L2136.44 205.921 L2106.76 205.921 L2106.76 201.985 Z" fill="#000000" fill-rule="evenodd" fill-opacity="1" /><path clip-path="url(#clip730)" d="M2171.6 182.587 Q2167.99 182.587 2166.16 186.152 Q2164.35 189.694 2164.35 196.823 Q2164.35 203.93 2166.16 207.495 Q2167.99 211.036 2171.6 211.036 Q2175.23 211.036 2177.04 207.495 Q2178.87 203.93 2178.87 196.823 Q2178.87 189.694 2177.04 186.152 Q2175.23 182.587 2171.6 182.587 M2171.6 178.884 Q2177.41 178.884 2180.46 183.49 Q2183.54 188.073 2183.54 196.823 Q2183.54 205.55 2180.46 210.157 Q2177.41 214.74 2171.6 214.74 Q2165.79 214.74 2162.71 210.157 Q2159.65 205.55 2159.65 196.823 Q2159.65 188.073 2162.71 183.49 Q2165.79 178.884 2171.6 178.884 Z" fill="#000000" fill-rule="evenodd" fill-opacity="1" /><path clip-path="url(#clip730)" d="M2191.76 208.189 L2196.64 208.189 L2196.64 214.069 L2191.76 214.069 L2191.76 208.189 Z" fill="#000000" fill-rule="evenodd" fill-opacity="1" /><path clip-path="url(#clip730)" d="M2220.99 195.434 Q2224.35 196.152 2226.23 198.421 Q2228.12 200.689 2228.12 204.022 Q2228.12 209.138 2224.61 211.939 Q2221.09 214.74 2214.61 214.74 Q2212.43 214.74 2210.12 214.3 Q2207.82 213.883 2205.37 213.027 L2205.37 208.513 Q2207.31 209.647 2209.63 210.226 Q2211.94 210.805 2214.47 210.805 Q2218.87 210.805 2221.16 209.069 Q2223.47 207.333 2223.47 204.022 Q2223.47 200.967 2221.32 199.254 Q2219.19 197.518 2215.37 197.518 L2211.34 197.518 L2211.34 193.675 L2215.56 193.675 Q2219 193.675 2220.83 192.309 Q2222.66 190.921 2222.66 188.328 Q2222.66 185.666 2220.76 184.254 Q2218.89 182.819 2215.37 182.819 Q2213.45 182.819 2211.25 183.235 Q2209.05 183.652 2206.41 184.532 L2206.41 180.365 Q2209.07 179.624 2211.39 179.254 Q2213.73 178.884 2215.79 178.884 Q2221.11 178.884 2224.21 181.314 Q2227.31 183.722 2227.31 187.842 Q2227.31 190.712 2225.67 192.703 Q2224.03 194.671 2220.99 195.434 Z" fill="#000000" fill-rule="evenodd" fill-opacity="1" /><path clip-path="url(#clip730)" d="M2237.04 179.509 L2255.39 179.509 L2255.39 183.444 L2241.32 183.444 L2241.32 191.916 Q2242.34 191.569 2243.36 191.407 Q2244.37 191.222 2245.39 191.222 Q2251.18 191.222 2254.56 194.393 Q2257.94 197.564 2257.94 202.981 Q2257.94 208.559 2254.47 211.661 Q2250.99 214.74 2244.68 214.74 Q2242.5 214.74 2240.23 214.37 Q2237.99 213.999 2235.58 213.258 L2235.58 208.559 Q2237.66 209.694 2239.88 210.249 Q2242.11 210.805 2244.58 210.805 Q2248.59 210.805 2250.93 208.698 Q2253.26 206.592 2253.26 202.981 Q2253.26 199.37 2250.93 197.263 Q2248.59 195.157 2244.58 195.157 Q2242.71 195.157 2240.83 195.573 Q2238.98 195.99 2237.04 196.87 L2237.04 179.509 Z" fill="#000000" fill-rule="evenodd" fill-opacity="1" /></svg>
