<?xml version="1.0" encoding="utf-8"?>
<svg xmlns="http://www.w3.org/2000/svg" xmlns:xlink="http://www.w3.org/1999/xlink" width="600" height="400" viewBox="0 0 2400 1600">
<defs>
  <clipPath id="clip090">
    <rect x="0" y="0" width="2400" height="1600"/>
  </clipPath>
</defs>
<path clip-path="url(#clip090)" d="
M0 1600 L2400 1600 L2400 0 L0 0  Z
  " fill="#ffffff" fill-rule="evenodd" fill-opacity="1"/>
<defs>
  <clipPath id="clip091">
    <rect x="480" y="0" width="1681" height="1600"/>
  </clipPath>
</defs>
<defs>
  <clipPath id="clip092">
    <rect x="257" y="47" width="2097" height="1377"/>
  </clipPath>
</defs>
<path clip-path="url(#clip090)" d="
M219.38 1423.18 L2352.76 1423.18 L2352.76 47.2441 L219.38 47.2441  Z
  " fill="#ffffff" fill-rule="evenodd" fill-opacity="1"/>
<defs>
  <clipPath id="clip093">
    <rect x="219" y="47" width="2134" height="1377"/>
  </clipPath>
</defs>
<polyline clip-path="url(#clip093)" style="stroke:#000000; stroke-linecap:round; stroke-linejoin:round; stroke-width:2; stroke-opacity:0.1; fill:none" points="
  219.38,1423.18 219.38,47.2441 
  "/>
<polyline clip-path="url(#clip093)" style="stroke:#000000; stroke-linecap:round; stroke-linejoin:round; stroke-width:2; stroke-opacity:0.1; fill:none" points="
  752.724,1423.18 752.724,47.2441 
  "/>
<polyline clip-path="url(#clip093)" style="stroke:#000000; stroke-linecap:round; stroke-linejoin:round; stroke-width:2; stroke-opacity:0.1; fill:none" points="
  1286.07,1423.18 1286.07,47.2441 
  "/>
<polyline clip-path="url(#clip093)" style="stroke:#000000; stroke-linecap:round; stroke-linejoin:round; stroke-width:2; stroke-opacity:0.1; fill:none" points="
  1819.41,1423.18 1819.41,47.2441 
  "/>
<polyline clip-path="url(#clip093)" style="stroke:#000000; stroke-linecap:round; stroke-linejoin:round; stroke-width:2; stroke-opacity:0.1; fill:none" points="
  2352.76,1423.18 2352.76,47.2441 
  "/>
<polyline clip-path="url(#clip090)" style="stroke:#000000; stroke-linecap:round; stroke-linejoin:round; stroke-width:4; stroke-opacity:1; fill:none" points="
  219.38,1423.18 2352.76,1423.18 
  "/>
<polyline clip-path="url(#clip090)" style="stroke:#000000; stroke-linecap:round; stroke-linejoin:round; stroke-width:4; stroke-opacity:1; fill:none" points="
  219.38,1423.18 219.38,1404.28 
  "/>
<polyline clip-path="url(#clip090)" style="stroke:#000000; stroke-linecap:round; stroke-linejoin:round; stroke-width:4; stroke-opacity:1; fill:none" points="
  752.724,1423.18 752.724,1404.28 
  "/>
<polyline clip-path="url(#clip090)" style="stroke:#000000; stroke-linecap:round; stroke-linejoin:round; stroke-width:4; stroke-opacity:1; fill:none" points="
  1286.07,1423.18 1286.07,1404.28 
  "/>
<polyline clip-path="url(#clip090)" style="stroke:#000000; stroke-linecap:round; stroke-linejoin:round; stroke-width:4; stroke-opacity:1; fill:none" points="
  1819.41,1423.18 1819.41,1404.28 
  "/>
<polyline clip-path="url(#clip090)" style="stroke:#000000; stroke-linecap:round; stroke-linejoin:round; stroke-width:4; stroke-opacity:1; fill:none" points="
  2352.76,1423.18 2352.76,1404.28 
  "/>
<path clip-path="url(#clip090)" d="M219.38 1454.1 Q215.769 1454.1 213.94 1457.66 Q212.135 1461.2 212.135 1468.33 Q212.135 1475.44 213.94 1479.01 Q215.769 1482.55 219.38 1482.55 Q223.014 1482.55 224.82 1479.01 Q226.649 1475.44 226.649 1468.33 Q226.649 1461.2 224.82 1457.66 Q223.014 1454.1 219.38 1454.1 M219.38 1450.39 Q225.19 1450.39 228.246 1455 Q231.325 1459.58 231.325 1468.33 Q231.325 1477.06 228.246 1481.67 Q225.19 1486.25 219.38 1486.25 Q213.57 1486.25 210.491 1481.67 Q207.436 1477.06 207.436 1468.33 Q207.436 1459.58 210.491 1455 Q213.57 1450.39 219.38 1450.39 Z" fill="#000000" fill-rule="evenodd" fill-opacity="1" /><path clip-path="url(#clip090)" d="M743.106 1481.64 L750.745 1481.64 L750.745 1455.28 L742.435 1456.95 L742.435 1452.69 L750.699 1451.02 L755.375 1451.02 L755.375 1481.64 L763.013 1481.64 L763.013 1485.58 L743.106 1485.58 L743.106 1481.64 Z" fill="#000000" fill-rule="evenodd" fill-opacity="1" /><path clip-path="url(#clip090)" d="M1280.72 1481.64 L1297.04 1481.64 L1297.04 1485.58 L1275.1 1485.58 L1275.1 1481.64 Q1277.76 1478.89 1282.34 1474.26 Q1286.95 1469.61 1288.13 1468.27 Q1290.37 1465.74 1291.25 1464.01 Q1292.16 1462.25 1292.16 1460.56 Q1292.16 1457.8 1290.21 1456.07 Q1288.29 1454.33 1285.19 1454.33 Q1282.99 1454.33 1280.54 1455.09 Q1278.11 1455.86 1275.33 1457.41 L1275.33 1452.69 Q1278.15 1451.55 1280.61 1450.97 Q1283.06 1450.39 1285.1 1450.39 Q1290.47 1450.39 1293.66 1453.08 Q1296.86 1455.77 1296.86 1460.26 Q1296.86 1462.39 1296.04 1464.31 Q1295.26 1466.2 1293.15 1468.8 Q1292.57 1469.47 1289.47 1472.69 Q1286.37 1475.88 1280.72 1481.64 Z" fill="#000000" fill-rule="evenodd" fill-opacity="1" /><path clip-path="url(#clip090)" d="M1823.66 1466.95 Q1827.02 1467.66 1828.89 1469.93 Q1830.79 1472.2 1830.79 1475.53 Q1830.79 1480.65 1827.27 1483.45 Q1823.75 1486.25 1817.27 1486.25 Q1815.09 1486.25 1812.78 1485.81 Q1810.49 1485.39 1808.03 1484.54 L1808.03 1480.02 Q1809.98 1481.16 1812.29 1481.74 Q1814.61 1482.32 1817.13 1482.32 Q1821.53 1482.32 1823.82 1480.58 Q1826.14 1478.84 1826.14 1475.53 Q1826.14 1472.48 1823.98 1470.77 Q1821.85 1469.03 1818.03 1469.03 L1814.01 1469.03 L1814.01 1465.19 L1818.22 1465.19 Q1821.67 1465.19 1823.5 1463.82 Q1825.33 1462.43 1825.33 1459.84 Q1825.33 1457.18 1823.43 1455.77 Q1821.55 1454.33 1818.03 1454.33 Q1816.11 1454.33 1813.91 1454.75 Q1811.72 1455.16 1809.08 1456.04 L1809.08 1451.88 Q1811.74 1451.14 1814.05 1450.77 Q1816.39 1450.39 1818.45 1450.39 Q1823.78 1450.39 1826.88 1452.83 Q1829.98 1455.23 1829.98 1459.35 Q1829.98 1462.22 1828.34 1464.21 Q1826.69 1466.18 1823.66 1466.95 Z" fill="#000000" fill-rule="evenodd" fill-opacity="1" /><path clip-path="url(#clip090)" d="M2355.77 1455.09 L2343.96 1473.54 L2355.77 1473.54 L2355.77 1455.09 M2354.54 1451.02 L2360.42 1451.02 L2360.42 1473.54 L2365.35 1473.54 L2365.35 1477.43 L2360.42 1477.43 L2360.42 1485.58 L2355.77 1485.58 L2355.77 1477.43 L2340.16 1477.43 L2340.16 1472.92 L2354.54 1451.02 Z" fill="#000000" fill-rule="evenodd" fill-opacity="1" /><path clip-path="url(#clip090)" d="M1298.69 1519.2 L1289.57 1555.89 Q1289.32 1557.05 1289.32 1557.34 Q1289.32 1557.72 1289.41 1557.88 Q1289.54 1558.08 1290.25 1558.24 Q1290.99 1558.4 1292.47 1558.4 Q1293.02 1558.4 1293.21 1558.4 Q1293.41 1558.4 1293.7 1558.46 Q1293.99 1558.53 1294.08 1558.69 Q1294.18 1558.85 1294.18 1559.11 Q1294.18 1560.43 1293.02 1560.43 Q1291.92 1560.43 1289.64 1560.33 Q1287.35 1560.23 1286.22 1560.23 Q1285.13 1560.23 1282.91 1560.33 Q1280.69 1560.43 1279.62 1560.43 Q1279.24 1560.43 1279.01 1560.23 Q1278.78 1560.07 1278.78 1559.88 L1278.75 1559.72 Q1278.75 1558.82 1279.11 1558.59 Q1279.46 1558.4 1280.27 1558.4 Q1283.04 1558.37 1283.84 1557.98 Q1284.65 1557.59 1285.03 1556.21 L1288 1544.42 Q1284.03 1548.38 1280.2 1548.38 Q1276.5 1548.38 1273.99 1545.48 Q1271.51 1542.55 1271.51 1537.82 Q1271.51 1534.31 1272.89 1530.77 Q1274.31 1527.22 1276.5 1524.55 Q1278.72 1521.88 1281.62 1520.2 Q1284.52 1518.49 1287.38 1518.49 Q1289.22 1518.49 1290.86 1519.56 Q1292.54 1520.62 1293.54 1523.1 Q1294.37 1521.68 1295.92 1520.14 Q1297.46 1518.56 1298.01 1518.56 Q1298.33 1518.56 1298.49 1518.78 Q1298.69 1518.98 1298.69 1519.2 M1292.6 1525.74 Q1292.6 1525.42 1292.34 1524.61 Q1292.12 1523.81 1291.6 1522.71 Q1291.12 1521.59 1289.99 1520.78 Q1288.87 1519.94 1287.38 1519.94 Q1285.26 1519.94 1282.97 1522.01 Q1280.72 1524.03 1279.24 1527.58 Q1278.3 1529.9 1277.24 1534.21 Q1276.18 1538.53 1276.18 1540.72 Q1276.18 1541.23 1276.21 1541.81 Q1276.27 1542.39 1276.53 1543.36 Q1276.79 1544.32 1277.17 1545.06 Q1277.59 1545.81 1278.43 1546.35 Q1279.27 1546.9 1280.4 1546.9 Q1282.84 1546.9 1285.29 1544.81 Q1287.74 1542.71 1288.77 1540.85 Q1288.9 1540.65 1290.73 1533.34 Q1292.6 1526.03 1292.6 1525.74 Z" fill="#000000" fill-rule="evenodd" fill-opacity="1" /><polyline clip-path="url(#clip093)" style="stroke:#000000; stroke-linecap:round; stroke-linejoin:round; stroke-width:2; stroke-opacity:0.1; fill:none" points="
  219.38,1423.18 2352.76,1423.18 
  "/>
<polyline clip-path="url(#clip093)" style="stroke:#000000; stroke-linecap:round; stroke-linejoin:round; stroke-width:2; stroke-opacity:0.1; fill:none" points="
  219.38,1147.99 2352.76,1147.99 
  "/>
<polyline clip-path="url(#clip093)" style="stroke:#000000; stroke-linecap:round; stroke-linejoin:round; stroke-width:2; stroke-opacity:0.1; fill:none" points="
  219.38,872.806 2352.76,872.806 
  "/>
<polyline clip-path="url(#clip093)" style="stroke:#000000; stroke-linecap:round; stroke-linejoin:round; stroke-width:2; stroke-opacity:0.1; fill:none" points="
  219.38,597.618 2352.76,597.618 
  "/>
<polyline clip-path="url(#clip093)" style="stroke:#000000; stroke-linecap:round; stroke-linejoin:round; stroke-width:2; stroke-opacity:0.1; fill:none" points="
  219.38,322.431 2352.76,322.431 
  "/>
<polyline clip-path="url(#clip093)" style="stroke:#000000; stroke-linecap:round; stroke-linejoin:round; stroke-width:2; stroke-opacity:0.1; fill:none" points="
  219.38,47.2441 2352.76,47.2441 
  "/>
<polyline clip-path="url(#clip090)" style="stroke:#000000; stroke-linecap:round; stroke-linejoin:round; stroke-width:4; stroke-opacity:1; fill:none" points="
  219.38,1423.18 219.38,47.2441 
  "/>
<polyline clip-path="url(#clip090)" style="stroke:#000000; stroke-linecap:round; stroke-linejoin:round; stroke-width:4; stroke-opacity:1; fill:none" points="
  219.38,1423.18 238.278,1423.18 
  "/>
<polyline clip-path="url(#clip090)" style="stroke:#000000; stroke-linecap:round; stroke-linejoin:round; stroke-width:4; stroke-opacity:1; fill:none" points="
  219.38,1147.99 238.278,1147.99 
  "/>
<polyline clip-path="url(#clip090)" style="stroke:#000000; stroke-linecap:round; stroke-linejoin:round; stroke-width:4; stroke-opacity:1; fill:none" points="
  219.38,872.806 238.278,872.806 
  "/>
<polyline clip-path="url(#clip090)" style="stroke:#000000; stroke-linecap:round; stroke-linejoin:round; stroke-width:4; stroke-opacity:1; fill:none" points="
  219.38,597.618 238.278,597.618 
  "/>
<polyline clip-path="url(#clip090)" style="stroke:#000000; stroke-linecap:round; stroke-linejoin:round; stroke-width:4; stroke-opacity:1; fill:none" points="
  219.38,322.431 238.278,322.431 
  "/>
<polyline clip-path="url(#clip090)" style="stroke:#000000; stroke-linecap:round; stroke-linejoin:round; stroke-width:4; stroke-opacity:1; fill:none" points="
  219.38,47.2441 238.278,47.2441 
  "/>
<path clip-path="url(#clip090)" d="M126.205 1408.98 Q122.593 1408.98 120.765 1412.54 Q118.959 1416.08 118.959 1423.21 Q118.959 1430.32 120.765 1433.89 Q122.593 1437.43 126.205 1437.43 Q129.839 1437.43 131.644 1433.89 Q133.473 1430.32 133.473 1423.21 Q133.473 1416.08 131.644 1412.54 Q129.839 1408.98 126.205 1408.98 M126.205 1405.27 Q132.015 1405.27 135.07 1409.88 Q138.149 1414.46 138.149 1423.21 Q138.149 1431.94 135.07 1436.55 Q132.015 1441.13 126.205 1441.13 Q120.394 1441.13 117.316 1436.55 Q114.26 1431.94 114.26 1423.21 Q114.26 1414.46 117.316 1409.88 Q120.394 1405.27 126.205 1405.27 Z" fill="#000000" fill-rule="evenodd" fill-opacity="1" /><path clip-path="url(#clip090)" d="M146.366 1434.58 L151.251 1434.58 L151.251 1440.46 L146.366 1440.46 L146.366 1434.58 Z" fill="#000000" fill-rule="evenodd" fill-opacity="1" /><path clip-path="url(#clip090)" d="M171.436 1408.98 Q167.825 1408.98 165.996 1412.54 Q164.19 1416.08 164.19 1423.21 Q164.19 1430.32 165.996 1433.89 Q167.825 1437.43 171.436 1437.43 Q175.07 1437.43 176.876 1433.89 Q178.704 1430.32 178.704 1423.21 Q178.704 1416.08 176.876 1412.54 Q175.07 1408.98 171.436 1408.98 M171.436 1405.27 Q177.246 1405.27 180.301 1409.88 Q183.38 1414.46 183.38 1423.21 Q183.38 1431.94 180.301 1436.55 Q177.246 1441.13 171.436 1441.13 Q165.626 1441.13 162.547 1436.55 Q159.491 1431.94 159.491 1423.21 Q159.491 1414.46 162.547 1409.88 Q165.626 1405.27 171.436 1405.27 Z" fill="#000000" fill-rule="evenodd" fill-opacity="1" /><path clip-path="url(#clip090)" d="M127.2 1133.79 Q123.589 1133.79 121.76 1137.36 Q119.955 1140.9 119.955 1148.03 Q119.955 1155.13 121.76 1158.7 Q123.589 1162.24 127.2 1162.24 Q130.834 1162.24 132.64 1158.7 Q134.468 1155.13 134.468 1148.03 Q134.468 1140.9 132.64 1137.36 Q130.834 1133.79 127.2 1133.79 M127.2 1130.09 Q133.01 1130.09 136.066 1134.69 Q139.144 1139.28 139.144 1148.03 Q139.144 1156.75 136.066 1161.36 Q133.01 1165.94 127.2 1165.94 Q121.39 1165.94 118.311 1161.36 Q115.256 1156.75 115.256 1148.03 Q115.256 1139.28 118.311 1134.69 Q121.39 1130.09 127.2 1130.09 Z" fill="#000000" fill-rule="evenodd" fill-opacity="1" /><path clip-path="url(#clip090)" d="M147.362 1159.39 L152.246 1159.39 L152.246 1165.27 L147.362 1165.27 L147.362 1159.39 Z" fill="#000000" fill-rule="evenodd" fill-opacity="1" /><path clip-path="url(#clip090)" d="M162.477 1130.71 L180.834 1130.71 L180.834 1134.65 L166.76 1134.65 L166.76 1143.12 Q167.778 1142.77 168.797 1142.61 Q169.815 1142.43 170.834 1142.43 Q176.621 1142.43 180.001 1145.6 Q183.38 1148.77 183.38 1154.18 Q183.38 1159.76 179.908 1162.87 Q176.436 1165.94 170.116 1165.94 Q167.94 1165.94 165.672 1165.57 Q163.427 1165.2 161.019 1164.46 L161.019 1159.76 Q163.102 1160.9 165.325 1161.45 Q167.547 1162.01 170.024 1162.01 Q174.028 1162.01 176.366 1159.9 Q178.704 1157.8 178.704 1154.18 Q178.704 1150.57 176.366 1148.47 Q174.028 1146.36 170.024 1146.36 Q168.149 1146.36 166.274 1146.78 Q164.422 1147.19 162.477 1148.07 L162.477 1130.71 Z" fill="#000000" fill-rule="evenodd" fill-opacity="1" /><path clip-path="url(#clip090)" d="M117.015 886.15 L124.654 886.15 L124.654 859.785 L116.343 861.451 L116.343 857.192 L124.607 855.526 L129.283 855.526 L129.283 886.15 L136.922 886.15 L136.922 890.086 L117.015 890.086 L117.015 886.15 Z" fill="#000000" fill-rule="evenodd" fill-opacity="1" /><path clip-path="url(#clip090)" d="M146.366 884.206 L151.251 884.206 L151.251 890.086 L146.366 890.086 L146.366 884.206 Z" fill="#000000" fill-rule="evenodd" fill-opacity="1" /><path clip-path="url(#clip090)" d="M171.436 858.604 Q167.825 858.604 165.996 862.169 Q164.19 865.711 164.19 872.84 Q164.19 879.947 165.996 883.512 Q167.825 887.053 171.436 887.053 Q175.07 887.053 176.876 883.512 Q178.704 879.947 178.704 872.84 Q178.704 865.711 176.876 862.169 Q175.07 858.604 171.436 858.604 M171.436 854.901 Q177.246 854.901 180.301 859.507 Q183.38 864.09 183.38 872.84 Q183.38 881.567 180.301 886.174 Q177.246 890.757 171.436 890.757 Q165.626 890.757 162.547 886.174 Q159.491 881.567 159.491 872.84 Q159.491 864.09 162.547 859.507 Q165.626 854.901 171.436 854.901 Z" fill="#000000" fill-rule="evenodd" fill-opacity="1" /><path clip-path="url(#clip090)" d="M118.01 610.963 L125.649 610.963 L125.649 584.598 L117.339 586.264 L117.339 582.005 L125.603 580.338 L130.279 580.338 L130.279 610.963 L137.917 610.963 L137.917 614.898 L118.01 614.898 L118.01 610.963 Z" fill="#000000" fill-rule="evenodd" fill-opacity="1" /><path clip-path="url(#clip090)" d="M147.362 609.019 L152.246 609.019 L152.246 614.898 L147.362 614.898 L147.362 609.019 Z" fill="#000000" fill-rule="evenodd" fill-opacity="1" /><path clip-path="url(#clip090)" d="M162.477 580.338 L180.834 580.338 L180.834 584.274 L166.76 584.274 L166.76 592.746 Q167.778 592.399 168.797 592.236 Q169.815 592.051 170.834 592.051 Q176.621 592.051 180.001 595.223 Q183.38 598.394 183.38 603.81 Q183.38 609.389 179.908 612.491 Q176.436 615.57 170.116 615.57 Q167.94 615.57 165.672 615.199 Q163.427 614.829 161.019 614.088 L161.019 609.389 Q163.102 610.523 165.325 611.079 Q167.547 611.635 170.024 611.635 Q174.028 611.635 176.366 609.528 Q178.704 607.422 178.704 603.81 Q178.704 600.199 176.366 598.093 Q174.028 595.986 170.024 595.986 Q168.149 595.986 166.274 596.403 Q164.422 596.82 162.477 597.699 L162.477 580.338 Z" fill="#000000" fill-rule="evenodd" fill-opacity="1" /><path clip-path="url(#clip090)" d="M120.232 335.776 L136.552 335.776 L136.552 339.711 L114.607 339.711 L114.607 335.776 Q117.269 333.021 121.853 328.392 Q126.459 323.739 127.64 322.397 Q129.885 319.873 130.765 318.137 Q131.667 316.378 131.667 314.688 Q131.667 311.934 129.723 310.198 Q127.802 308.461 124.7 308.461 Q122.501 308.461 120.047 309.225 Q117.617 309.989 114.839 311.54 L114.839 306.818 Q117.663 305.684 120.117 305.105 Q122.57 304.526 124.607 304.526 Q129.978 304.526 133.172 307.211 Q136.367 309.897 136.367 314.387 Q136.367 316.517 135.556 318.438 Q134.769 320.336 132.663 322.929 Q132.084 323.6 128.982 326.818 Q125.88 330.012 120.232 335.776 Z" fill="#000000" fill-rule="evenodd" fill-opacity="1" /><path clip-path="url(#clip090)" d="M146.366 333.832 L151.251 333.832 L151.251 339.711 L146.366 339.711 L146.366 333.832 Z" fill="#000000" fill-rule="evenodd" fill-opacity="1" /><path clip-path="url(#clip090)" d="M171.436 308.23 Q167.825 308.23 165.996 311.795 Q164.19 315.336 164.19 322.466 Q164.19 329.572 165.996 333.137 Q167.825 336.679 171.436 336.679 Q175.07 336.679 176.876 333.137 Q178.704 329.572 178.704 322.466 Q178.704 315.336 176.876 311.795 Q175.07 308.23 171.436 308.23 M171.436 304.526 Q177.246 304.526 180.301 309.133 Q183.38 313.716 183.38 322.466 Q183.38 331.193 180.301 335.799 Q177.246 340.383 171.436 340.383 Q165.626 340.383 162.547 335.799 Q159.491 331.193 159.491 322.466 Q159.491 313.716 162.547 309.133 Q165.626 304.526 171.436 304.526 Z" fill="#000000" fill-rule="evenodd" fill-opacity="1" /><path clip-path="url(#clip090)" d="M121.228 60.5889 L137.547 60.5889 L137.547 64.5241 L115.603 64.5241 L115.603 60.5889 Q118.265 57.8343 122.848 53.2047 Q127.455 48.552 128.635 47.2094 Q130.88 44.6862 131.76 42.9501 Q132.663 41.1909 132.663 39.5011 Q132.663 36.7465 130.718 35.0104 Q128.797 33.2743 125.695 33.2743 Q123.496 33.2743 121.043 34.0381 Q118.612 34.802 115.834 36.3529 L115.834 31.6308 Q118.658 30.4965 121.112 29.9178 Q123.566 29.3391 125.603 29.3391 Q130.973 29.3391 134.167 32.0243 Q137.362 34.7094 137.362 39.2002 Q137.362 41.3298 136.552 43.2511 Q135.765 45.1492 133.658 47.7418 Q133.08 48.4131 129.978 51.6306 Q126.876 54.8251 121.228 60.5889 Z" fill="#000000" fill-rule="evenodd" fill-opacity="1" /><path clip-path="url(#clip090)" d="M147.362 58.6445 L152.246 58.6445 L152.246 64.5241 L147.362 64.5241 L147.362 58.6445 Z" fill="#000000" fill-rule="evenodd" fill-opacity="1" /><path clip-path="url(#clip090)" d="M162.477 29.9641 L180.834 29.9641 L180.834 33.8993 L166.76 33.8993 L166.76 42.3714 Q167.778 42.0242 168.797 41.8622 Q169.815 41.677 170.834 41.677 Q176.621 41.677 180.001 44.8483 Q183.38 48.0196 183.38 53.4362 Q183.38 59.0149 179.908 62.1167 Q176.436 65.1954 170.116 65.1954 Q167.94 65.1954 165.672 64.825 Q163.427 64.4547 161.019 63.7139 L161.019 59.0149 Q163.102 60.1491 165.325 60.7047 Q167.547 61.2602 170.024 61.2602 Q174.028 61.2602 176.366 59.1538 Q178.704 57.0473 178.704 53.4362 Q178.704 49.8251 176.366 47.7186 Q174.028 45.6122 170.024 45.6122 Q168.149 45.6122 166.274 46.0288 Q164.422 46.4455 162.477 47.3251 L162.477 29.9641 Z" fill="#000000" fill-rule="evenodd" fill-opacity="1" /><path clip-path="url(#clip090)" d="M39.2425 717.179 Q43.9446 717.179 48.4856 719.563 Q53.0267 721.914 55.8286 725.617 Q58.5983 729.321 58.5983 733.089 Q58.5983 735.344 57.3744 736.857 Q56.1184 738.339 54.3471 739.144 Q56.5371 739.756 61.7866 741.076 Q67.0362 742.397 67.5515 742.397 Q67.8413 742.397 67.9702 742.332 Q68.099 742.268 68.26 741.978 Q68.4533 741.688 68.5177 740.98 Q68.6143 740.271 68.6143 739.079 Q68.6143 738.467 68.6143 738.242 Q68.6465 737.984 68.8075 737.759 Q68.9686 737.501 69.3228 737.501 Q70.6433 737.501 70.6433 738.693 Q70.6433 739.756 70.5466 741.946 Q70.45 744.136 70.45 745.231 Q70.45 746.165 70.5466 748.033 Q70.6433 749.901 70.6433 750.77 Q70.6433 751.64 69.8703 751.64 Q69.4194 751.64 69.1296 751.511 Q68.8719 751.414 68.7431 751.157 Q68.6465 750.899 68.6143 750.674 Q68.6143 750.48 68.6143 750.094 Q68.6143 748.612 68.3566 747.968 Q68.1312 747.324 67.6481 747.099 Q67.1972 746.841 65.909 746.551 L36.5373 739.144 Q34.5727 738.693 33.1878 738.693 Q31.4487 738.693 30.8046 739.24 Q30.1605 739.788 30.1605 740.754 Q30.1605 742.429 32.1573 743.524 Q34.154 744.619 38.0187 745.553 Q39.0815 745.843 39.307 746.036 Q39.5324 746.197 39.5324 746.68 Q39.5002 747.485 38.8561 747.485 Q38.695 747.485 37.6645 747.227 Q36.6017 746.97 35.0558 746.487 Q33.4777 745.971 32.4793 745.424 Q31.803 745.102 31.3521 744.812 Q30.9012 744.522 30.1927 743.942 Q29.4842 743.331 29.0977 742.461 Q28.7112 741.591 28.7112 740.529 Q28.7112 738.467 29.9351 736.761 Q31.1589 735.054 33.6387 734.603 Q31.4809 732.767 30.0961 730.513 Q28.7112 728.258 28.7112 725.972 Q28.7112 722.171 31.6742 719.691 Q34.6049 717.179 39.2425 717.179 M36.344 721.946 Q33.4133 721.946 31.803 723.073 Q30.1605 724.168 30.1605 726.165 Q30.1605 728.645 32.6725 731.511 Q35.0558 734.345 37.278 734.925 L50.1925 738.178 L51.2553 738.371 Q51.4486 738.371 52.0283 738.274 Q52.5758 738.145 53.4775 737.791 Q54.3793 737.405 55.1844 736.889 Q55.9574 736.342 56.5371 735.376 Q57.1168 734.377 57.1168 733.154 Q57.1168 731.189 55.3777 729.063 Q53.6386 726.906 50.3536 725.295 Q48.228 724.297 43.6547 723.138 Q39.0493 721.946 36.344 721.946 Z" fill="#000000" fill-rule="evenodd" fill-opacity="1" /><polyline clip-path="url(#clip093)" style="stroke:#009af9; stroke-linecap:round; stroke-linejoin:round; stroke-width:8; stroke-opacity:1; fill:none" points="
  1419.4,597.618 1428.39,600.816 1437.34,604.207 1446.24,607.79 1455.08,611.56 1463.85,615.512 1472.55,619.643 1481.16,623.948 1489.68,628.421 1498.1,633.058 
  1506.4,637.852 1514.59,642.799 1522.66,647.892 1530.58,653.124 1538.37,658.491 1546.01,663.985 1553.48,669.6 1560.79,675.329 1567.93,681.165 1574.89,687.103 
  1581.67,693.134 1588.25,699.252 1594.63,705.449 1600.8,711.72 1606.77,718.057 1612.52,724.452 1618.04,730.899 1623.35,737.391 1628.42,743.921 1633.25,750.482 
  1637.85,757.068 1642.21,763.672 1646.33,770.289 1650.19,776.913 1653.81,783.536 1657.18,790.154 1660.29,796.762 1663.16,803.352 1665.76,809.921 1668.12,816.462 
  1670.22,822.971 1672.06,829.443 1673.65,835.874 1674.99,842.259 1676.08,848.594 1676.92,854.875 1677.51,861.1 1677.85,867.263 1677.95,873.363 1677.81,879.395 
  1677.43,885.357 1676.81,891.246 1675.97,897.06 1674.89,902.796 1673.59,908.452 1672.06,914.026 1670.32,919.516 1668.36,924.921 1666.2,930.239 1663.83,935.47 
  1661.26,940.611 1658.49,945.663 1655.54,950.624 1652.4,955.493 1649.07,960.269 1645.57,964.953 1641.9,969.544 1638.07,974.041 1634.07,978.445 1629.91,982.756 
  1625.61,986.973 1621.16,991.096 1616.56,995.126 1611.84,999.063 1606.98,1002.91 1601.99,1006.66 1596.88,1010.32 1591.66,1013.88 1586.32,1017.36 1580.88,1020.74 
  1575.33,1024.04 1569.69,1027.24 1563.95,1030.36 1558.13,1033.39 1552.22,1036.33 1546.24,1039.19 1540.18,1041.96 1534.05,1044.64 1527.85,1047.24 1521.59,1049.76 
  1515.28,1052.19 1508.91,1054.54 1502.49,1056.82 1496.03,1059.01 1489.52,1061.12 1482.98,1063.16 1476.4,1065.11 1469.79,1066.99 1463.15,1068.8 1456.49,1070.53 
  1449.8,1072.18 1443.1,1073.77 1436.39,1075.27 1429.66,1076.71 1422.92,1078.08 1416.18,1079.37 1409.44,1080.6 1402.69,1081.75 1395.95,1082.84 1389.21,1083.86 
  1382.48,1084.81 1375.76,1085.69 1369.05,1086.51 1362.35,1087.27 1355.68,1087.96 1349.02,1088.58 1342.38,1089.14 1335.76,1089.64 1329.17,1090.08 1322.6,1090.45 
  1316.07,1090.76 1309.56,1091.01 1303.09,1091.2 1296.64,1091.33 1290.24,1091.4 1283.87,1091.41 1277.54,1091.36 1271.25,1091.25 1265,1091.08 1258.79,1090.86 
  1252.63,1090.57 1246.51,1090.23 1240.44,1089.83 1234.42,1089.37 1228.44,1088.86 1222.52,1088.29 1216.65,1087.66 1210.83,1086.98 1205.07,1086.24 1199.35,1085.44 
  1193.7,1084.59 1188.1,1083.68 1182.56,1082.72 1177.07,1081.7 1171.65,1080.62 1166.28,1079.49 1160.97,1078.3 1155.73,1077.06 1150.54,1075.76 1145.42,1074.41 
  1140.36,1073 1135.36,1071.54 1130.43,1070.02 1125.56,1068.44 1120.76,1066.81 1116.02,1065.13 1111.35,1063.39 1106.74,1061.59 1102.21,1059.74 1097.74,1057.83 
  1093.34,1055.87 1089.01,1053.85 1084.75,1051.77 1080.56,1049.64 1076.44,1047.45 1072.39,1045.2 1068.41,1042.9 1064.51,1040.54 1060.68,1038.13 1056.92,1035.65 
  1053.23,1033.12 1049.62,1030.54 1046.09,1027.9 1042.63,1025.2 1039.24,1022.44 1035.93,1019.62 1032.7,1016.75 1029.55,1013.83 1026.47,1010.84 1023.47,1007.8 
  1020.55,1004.7 1017.71,1001.54 1014.94,998.328 1012.26,995.056 1009.66,991.728 1007.14,988.342 1004.69,984.899 1002.33,981.399 1000.06,977.842 997.86,974.229 
  995.747,970.561 993.719,966.837 991.774,963.058 989.915,959.223 988.141,955.332 986.453,951.386 984.852,947.383 983.339,943.326 981.913,939.213 980.576,935.045 
  979.329,930.823 978.171,926.547 977.104,922.217 976.129,917.833 975.246,913.398 974.456,908.911 973.76,904.372 973.158,899.784 972.651,895.146 972.241,890.46 
  971.928,885.726 971.712,880.946 971.595,876.121 971.577,871.251 971.66,866.339 971.844,861.386 972.13,856.393 972.519,851.36 973.012,846.291 973.61,841.186 
  974.314,836.048 975.125,830.877 976.044,825.676 977.071,820.446 978.209,815.189 979.457,809.908 980.817,804.604 982.29,799.279 983.877,793.936 985.58,788.576 
  987.398,783.203 989.334,777.817 991.389,772.423 993.563,767.021 995.855,761.614 998.266,756.205 1000.8,750.797 1003.46,745.394 1006.24,740.001 1009.15,734.62 
  1012.18,729.256 1015.35,723.912 1018.64,718.592 1022.07,713.3 1025.63,708.041 1029.32,702.817 1033.14,697.634 1037.1,692.495 1041.2,687.405 1045.43,682.367 
  1049.8,677.386 1054.3,672.466 1058.95,667.612 1063.73,662.827 1068.64,658.117 1073.7,653.486 1078.89,648.938 1084.22,644.477 1089.68,640.109 1095.28,635.838 
  1101.02,631.669 1106.9,627.606 1112.91,623.654 1119.05,619.819 1125.33,616.104 1131.74,612.515 1138.28,609.056 1144.96,605.734 1151.76,602.552 1158.69,599.515 
  1165.75,596.63 1172.94,593.901 1180.25,591.333 1187.68,588.931 1195.23,586.702 1202.91,584.65 1210.71,582.79 1218.65,581.129 1226.71,579.667 1234.89,578.405 
  1243.17,577.345 1251.56,576.487 1260.03,575.831 1268.59,575.378 1277.23,575.129 1285.94,575.083 1294.71,575.239 1303.53,575.599 1312.4,576.162 1321.32,576.926 
  1330.26,577.891 1339.23,579.057 1348.22,580.422 1357.22,581.986 1366.23,583.746 1375.23,585.701 1384.22,587.849 1393.19,590.189 1402.14,592.719 1411.06,595.436 
  1419.95,598.338 1428.78,601.423 1437.57,604.688 1446.29,608.13 1454.95,611.745 1463.54,615.532 1472.05,619.487 1480.48,623.606 1488.81,627.885 1497.05,632.321 
  1505.18,636.911 1513.2,641.648 1521.1,646.531 1528.88,651.553 1536.53,656.711 1544.04,662 1551.4,667.414 1558.62,672.949 1565.68,678.6 1572.58,684.361 
  1579.32,690.226 1585.88,696.191 1592.25,702.248 1598.45,708.392 1604.45,714.617 1610.25,720.917 1615.85,727.284 1621.24,733.713 1626.42,740.195 1631.37,746.726 
  1636.1,753.296 1640.59,759.9 1644.85,766.527 1648.86,773.167 1652.63,779.812 1656.15,786.456 1659.43,793.094 1662.45,799.719 1665.22,806.326 1667.74,812.909 
  1670.01,819.463 1672.02,825.984 1673.78,832.465 1675.29,838.904 1676.54,845.295 1677.54,851.633 1678.29,857.916 1678.79,864.139 1679.04,870.299 1679.04,876.392 
  1678.8,882.415 1678.32,888.365 1677.6,894.24 1676.64,900.036 1675.45,905.751 1674.03,911.384 1672.38,916.932 1670.52,922.393 1668.43,927.767 1666.13,933.05 
  1663.63,938.244 1660.92,943.345 1658.02,948.355 1654.92,953.271 1651.64,958.095 1648.19,962.825 1644.56,967.462 1640.76,972.006 1636.81,976.458 1632.71,980.817 
  1628.46,985.086 1624.07,989.261 1619.54,993.341 1614.86,997.327 1610.05,1001.22 1605.11,1005.02 1600.04,1008.72 1594.86,1012.34 1589.56,1015.86 1584.15,1019.29 
  1578.64,1022.64 1573.03,1025.89 1567.33,1029.05 1561.54,1032.13 1555.66,1035.12 1549.7,1038.02 1543.66,1040.84 1537.55,1043.57 1531.38,1046.22 1525.14,1048.78 
  1518.84,1051.26 1512.49,1053.66 1506.08,1055.97 1499.63,1058.21 1493.13,1060.36 1486.6,1062.44 1480.02,1064.43 1473.42,1066.35 1466.78,1068.2 1460.12,1069.96 
  1453.44,1071.65 1446.74,1073.27 1440.02,1074.81 1433.28,1076.28 1426.54,1077.68 1419.79,1079.01 1413.04,1080.26 1406.28,1081.45 1399.53,1082.57 1392.78,1083.62 
  1386.03,1084.61 1379.29,1085.53 1372.57,1086.38 1365.85,1087.17 1359.15,1087.89 1352.47,1088.55 1345.81,1089.14 1339.16,1089.68 1332.54,1090.14 1325.95,1090.55 
  1319.38,1090.89 1312.84,1091.18 1306.33,1091.4 1299.85,1091.56 1293.41,1091.66 1287.01,1091.7 1280.64,1091.68 1274.31,1091.6 1268.02,1091.46 1261.77,1091.27 
  1255.57,1091.01 1249.42,1090.7 1243.31,1090.33 1237.24,1089.9 1231.23,1089.42 1225.27,1088.87 1219.36,1088.27 1213.5,1087.62 1207.7,1086.91 1201.95,1086.14 
  1196.26,1085.31 1190.63,1084.43 1185.05,1083.5 1179.54,1082.5 1174.08,1081.46 1168.68,1080.35 1163.35,1079.19 1158.08,1077.98 1152.86,1076.71 1147.72,1075.39 
  1142.63,1074.01 1137.62,1072.57 1132.66,1071.08 1127.77,1069.53 1122.95,1067.93 1118.19,1066.27 1113.5,1064.56 1108.87,1062.79 1104.32,1060.97 1099.82,1059.09 
  1095.4,1057.16 1091.04,1055.16 1086.75,1053.12 1082.52,1051.01 1078.36,1048.85 1074.27,1046.64 1070.26,1044.37 1066.31,1042.04 1062.44,1039.66 1058.64,1037.22 
  1054.91,1034.72 1051.25,1032.17 1047.67,1029.56 1044.17,1026.89 1040.74,1024.17 1037.38,1021.39 1034.1,1018.55 1030.9,1015.65 1027.78,1012.7 1024.73,1009.69 
  1021.76,1006.62 1018.87,1003.49 1016.06,1000.3 1013.32,997.056 1010.67,993.754 1008.1,990.394 1005.61,986.976 1003.2,983.5 1000.87,979.967 998.629,976.377 
  996.468,972.729 994.391,969.025 992.399,965.264 990.491,961.447 988.67,957.573 986.934,953.644 985.286,949.66 983.725,945.62 982.252,941.526 980.867,937.378 
  979.572,933.176 978.367,928.92 977.253,924.612 976.23,920.252 975.298,915.839 974.46,911.376 973.714,906.862 973.062,902.298 972.505,897.685 972.043,893.023 
  971.677,888.313 971.408,883.557 971.235,878.754 971.158,873.909 971.179,869.02 971.3,864.09 971.522,859.119 971.845,854.109 972.272,849.062 972.804,843.977 
  973.442,838.857 974.187,833.704 975.041,828.519 976.005,823.304 977.079,818.06 978.265,812.791 979.565,807.497 980.978,802.181 982.507,796.845 984.153,791.491 
  985.916,786.123 987.797,780.741 989.797,775.35 991.918,769.951 994.161,764.548 996.525,759.143 999.013,753.739 1001.62,748.339 1004.36,742.947 1007.22,737.565 
  1010.21,732.197 1013.33,726.847 1016.57,721.517 1019.94,716.212 1023.44,710.935 1027.07,705.69 1030.84,700.481 1034.73,695.311 1038.76,690.186 1042.91,685.108 
  1047.2,680.082 1051.63,675.113 1056.19,670.205 1060.88,665.362 1065.71,660.59 1070.67,655.892 1075.77,651.273 1081.01,646.739 1086.38,642.294 1091.89,637.944 
  1097.53,633.693 1103.32,629.547 1109.24,625.511 1115.3,621.591 1121.5,617.792 1127.84,614.119 1134.31,610.579 1140.93,607.175 1147.69,603.911 1154.6,600.791 
  1161.64,597.822 1168.82,595.009 1176.13,592.357 1183.56,589.87 1191.12,587.553 1198.8,585.41 1206.59,583.446 1214.49,581.662 1222.5,580.065 1230.6,578.655 
  1238.81,577.437 1247.1,576.413 1255.48,575.585 1263.94,574.957 1272.48,574.529 1281.09,574.303 1289.77,574.282 1298.5,574.466 1307.29,574.855 1316.13,575.452 
  1325.01,576.256 1333.93,577.268 1342.88,578.487 1351.85,579.913 1360.84,581.546 1369.85,583.386 1378.85,585.43 1387.86,587.678 1396.86,590.128 1405.85,592.778 
  1414.82,595.627 1423.75,598.673 1432.65,601.911 1441.51,605.341 1450.32,608.959 1459.07,612.761 1467.76,616.745 1476.37,620.906 1484.9,625.24 1493.34,629.744 
  1501.69,634.412 1509.93,639.24 1518.06,644.223 1526.07,649.356 1533.95,654.633 1541.69,660.048 1549.28,665.596 1556.72,671.27 1564.01,677.061 1571.12,682.962 
  1578.07,688.964 1584.83,695.06 1591.4,701.242 1597.77,707.503 1603.95,713.835 1609.91,720.231 1615.65,726.684 1621.17,733.188 1626.47,739.734 1631.53,746.318 
  1636.36,752.932 1640.94,759.569 1645.28,766.224 1649.37,772.891 1653.21,779.564 1656.8,786.236 1660.13,792.903 1663.2,799.558 1666.01,806.197 1668.56,812.814 
  1670.84,819.404 1672.87,825.963 1674.63,832.484 1676.13,838.965 1677.37,845.4 1678.36,851.784 1679.08,858.115 1679.54,864.386 1679.75,870.596 1679.71,876.739 
  1679.43,882.813 1678.89,888.813 1678.12,894.737 1677.11,900.58 1675.86,906.341 1674.39,912.016 1672.7,917.601 1670.79,923.096 1668.67,928.496 1666.35,933.801 
  1663.83,939.006 1661.12,944.112 1658.22,949.123 1655.13,954.041 1651.85,958.866 1648.39,963.597 1644.76,968.234 1640.96,972.778 1637,977.228 1632.88,981.585 
  1628.6,985.847 1624.18,990.017 1619.61,994.093 1614.91,998.075 1610.07,1001.96 1605.11,1005.76 1600.02,1009.47 1594.82,1013.08 1589.5,1016.6 1584.07,1020.03 
  1578.54,1023.37 1572.91,1026.62 1567.19,1029.77 1561.37,1032.84 1555.47,1035.82 1549.49,1038.72 1543.43,1041.52 1537.3,1044.24 1531.1,1046.87 1524.83,1049.42 
  1518.51,1051.88 1512.13,1054.27 1505.7,1056.56 1499.22,1058.78 1492.7,1060.92 1486.14,1062.98 1479.54,1064.96 1472.91,1066.86 1466.26,1068.69 1459.57,1070.44 
  1452.87,1072.12 1446.15,1073.73 1439.42,1075.27 1432.68,1076.73 1425.92,1078.13 1419.15,1079.45 1412.38,1080.7 1405.61,1081.89 1398.84,1083 1392.07,1084.05 
  1385.3,1085.03 1378.55,1085.94 1371.8,1086.78 1365.07,1087.56 1358.35,1088.28 1351.66,1088.93 1344.98,1089.51 1338.32,1090.03 1331.69,1090.49 1325.08,1090.89 
  1318.51,1091.22 1311.96,1091.5 1305.45,1091.71 1298.97,1091.86 1292.52,1091.95 1286.12,1091.99 1279.75,1091.96 1273.43,1091.87 1267.14,1091.73 1260.9,1091.52 
  1254.71,1091.26 1248.56,1090.94 1242.47,1090.56 1236.42,1090.13 1230.42,1089.64 1224.47,1089.09 1218.58,1088.49 1212.73,1087.82 1206.95,1087.11 1201.22,1086.33 
  1195.54,1085.5 1189.92,1084.62 1184.36,1083.68 1178.86,1082.68 1173.41,1081.63 1168.03,1080.52 1162.7,1079.36 1157.44,1078.14 1152.23,1076.86 1147.09,1075.53 
  1142.01,1074.15 1136.98,1072.7 1132.02,1071.21 1127.12,1069.65 1122.28,1068.04 1117.51,1066.38 1112.8,1064.66 1108.15,1062.89 1103.58,1061.06 1099.07,1059.17 
  1094.63,1057.23 1090.26,1055.23 1085.96,1053.18 1081.73,1051.07 1077.57,1048.91 1073.48,1046.69 1069.47,1044.41 1065.52,1042.07 1061.65,1039.68 1057.85,1037.23 
  1054.12,1034.72 1050.47,1032.16 1046.89,1029.53 1043.39,1026.85 1039.96,1024.12 1036.61,1021.32 1033.33,1018.47 1030.14,1015.56 1027.02,1012.59 1023.97,1009.56 
  1021.01,1006.48 1018.13,1003.34 1015.32,1000.14 1012.6,996.886 1009.95,993.572 1007.39,990.201 1004.91,986.773 1002.51,983.288 1000.19,979.746 997.955,976.147 
  995.804,972.491 993.737,968.779 991.755,965.011 989.858,961.186 988.047,957.306 986.322,953.37 984.683,949.378 983.131,945.331 981.667,941.229 980.292,937.073 
  979.004,932.862 977.806,928.598 976.698,924.279 975.679,919.91 974.751,915.491 973.914,911.022 973.17,906.505 972.52,901.939 971.964,897.325 971.504,892.662 
  971.14,887.953 970.874,883.197 970.707,878.395 970.64,873.548 970.673,868.657 970.808,863.723 971.045,858.747 971.387,853.731 971.832,848.675 972.384,843.582 
  973.042,838.452 973.807,833.288 974.681,828.091 975.665,822.863 976.759,817.605 977.965,812.321 979.283,807.011 980.714,801.678 982.26,796.325 983.92,790.954 
  985.698,785.566 987.592,780.166 989.604,774.755 991.736,769.336 993.987,763.912 996.359,758.486 998.853,753.061 1001.47,747.641 1004.21,742.227 1007.08,736.825 
  1010.07,731.436 1013.18,726.066 1016.43,720.716 1019.8,715.391 1023.3,710.095 1026.94,704.832 1030.7,699.605 1034.59,694.419 1038.62,689.277 1042.78,684.185 
  1047.08,679.146 1051.51,674.165 1056.08,669.247 1060.78,664.395 1065.62,659.616 1070.6,654.913 1075.73,650.292 1080.99,645.757 1086.39,641.314 1091.94,636.965 
  1097.63,632.712 1103.47,628.561 1109.46,624.518 1115.59,620.59 1121.86,616.783 1128.27,613.104 1134.82,609.558 1141.5,606.15 1148.32,602.887 1155.27,599.773 
  1162.35,596.814 1169.55,594.014 1176.88,591.377 1184.33,588.908 1191.9,586.611 1199.58,584.49 1207.37,582.548 1215.27,580.79 1223.27,579.217 1231.37,577.834 
  1239.57,576.642 1247.86,575.645 1256.23,574.844 1264.69,574.242 1273.22,573.841 1281.83,573.642 1290.5,573.647 1299.24,573.857 1308.03,574.274 1316.88,574.896 
  1325.77,575.727 1334.7,576.764 1343.67,578.01 1352.67,579.464 1361.68,581.124 1370.72,582.992 1379.76,585.066 1388.81,587.345 1397.85,589.828 1406.88,592.513 
  1415.89,595.399 1424.88,598.484 1433.83,601.766 1442.75,605.243 1451.61,608.912 1460.42,612.77 1469.16,616.815 1477.84,621.042 1486.43,625.45 1494.93,630.033 
  1503.33,634.784 1511.63,639.694 1519.81,644.757 1527.86,649.965 1535.77,655.31 1543.54,660.787 1551.16,666.387 1558.61,672.104 1565.9,677.93 1573.01,683.859 
  1579.93,689.884 1586.66,695.999 1593.19,702.195 1599.52,708.468 1605.63,714.81 1611.53,721.214 1617.21,727.675 1622.67,734.186 1627.89,740.741 1632.88,747.333 
  1637.63,753.956 1642.14,760.605 1646.4,767.272 1650.42,773.953 1654.18,780.641 1657.69,787.331 1660.95,794.016 1663.95,800.692 1666.69,807.351 1669.18,813.99 
  1671.4,820.602 1673.37,827.181 1675.08,833.724 1676.53,840.223 1677.72,846.675 1678.65,853.073 1679.33,859.413 1679.76,865.69 1679.94,871.899 1679.87,878.034 
  1679.55,884.092 1678.99,890.067 1678.19,895.954 1677.16,901.749 1675.89,907.451 1674.4,913.068 1672.69,918.6 1670.76,924.047 1668.62,929.406 1666.28,934.677 
  1663.73,939.86 1660.99,944.952 1658.06,949.954 1654.93,954.865 1651.63,959.683 1648.15,964.409 1644.5,969.042 1640.68,973.582 1636.7,978.027 1632.56,982.378 
  1628.26,986.635 1623.82,990.797 1619.24,994.865 1614.51,998.838 1609.66,1002.72 1604.67,1006.5 1599.56,1010.19 1594.33,1013.79 1588.99,1017.29 1583.53,1020.7 
  1577.97,1024.01 1572.31,1027.24 1566.56,1030.37 1560.71,1033.41 1554.77,1036.36 1548.76,1039.23 1542.66,1042 1536.5,1044.69 1530.26,1047.29 1523.96,1049.81 
  1517.61,1052.24 1511.2,1054.59 1504.74,1056.86 1498.23,1059.05 1491.69,1061.16 1485.1,1063.2 1478.49,1065.16 1471.85,1067.04 1465.19,1068.86 1458.51,1070.6 
  
  "/>
<circle clip-path="url(#clip093)" cx="1419.4" cy="597.618" r="14.4" fill="#e26f46" fill-rule="evenodd" fill-opacity="1" stroke="#000000" stroke-opacity="1" stroke-width="3.2"/>
<circle clip-path="url(#clip093)" cx="1629.41" cy="669.855" r="14.4" fill="#e26f46" fill-rule="evenodd" fill-opacity="1" stroke="#000000" stroke-opacity="1" stroke-width="3.2"/>
<circle clip-path="url(#clip093)" cx="1811.39" cy="839.589" r="14.4" fill="#e26f46" fill-rule="evenodd" fill-opacity="1" stroke="#000000" stroke-opacity="1" stroke-width="3.2"/>
<circle clip-path="url(#clip093)" cx="1845.02" cy="1040.77" r="14.4" fill="#e26f46" fill-rule="evenodd" fill-opacity="1" stroke="#000000" stroke-opacity="1" stroke-width="3.2"/>
<circle clip-path="url(#clip093)" cx="1671.38" cy="1181.04" r="14.4" fill="#e26f46" fill-rule="evenodd" fill-opacity="1" stroke="#000000" stroke-opacity="1" stroke-width="3.2"/>
<circle clip-path="url(#clip093)" cx="1386.76" cy="1242.27" r="14.4" fill="#e26f46" fill-rule="evenodd" fill-opacity="1" stroke="#000000" stroke-opacity="1" stroke-width="3.2"/>
<circle clip-path="url(#clip093)" cx="1112.48" cy="1254.22" r="14.4" fill="#e26f46" fill-rule="evenodd" fill-opacity="1" stroke="#000000" stroke-opacity="1" stroke-width="3.2"/>
<circle clip-path="url(#clip093)" cx="895.856" cy="1234.97" r="14.4" fill="#e26f46" fill-rule="evenodd" fill-opacity="1" stroke="#000000" stroke-opacity="1" stroke-width="3.2"/>
<circle clip-path="url(#clip093)" cx="740.054" cy="1186.78" r="14.4" fill="#e26f46" fill-rule="evenodd" fill-opacity="1" stroke="#000000" stroke-opacity="1" stroke-width="3.2"/>
<circle clip-path="url(#clip093)" cx="636.093" cy="1102.08" r="14.4" fill="#e26f46" fill-rule="evenodd" fill-opacity="1" stroke="#000000" stroke-opacity="1" stroke-width="3.2"/>
<circle clip-path="url(#clip093)" cx="575.336" cy="965.112" r="14.4" fill="#e26f46" fill-rule="evenodd" fill-opacity="1" stroke="#000000" stroke-opacity="1" stroke-width="3.2"/>
<circle clip-path="url(#clip093)" cx="554.442" cy="751.465" r="14.4" fill="#e26f46" fill-rule="evenodd" fill-opacity="1" stroke="#000000" stroke-opacity="1" stroke-width="3.2"/>
<circle clip-path="url(#clip093)" cx="580.296" cy="428.962" r="14.4" fill="#e26f46" fill-rule="evenodd" fill-opacity="1" stroke="#000000" stroke-opacity="1" stroke-width="3.2"/>
<circle clip-path="url(#clip093)" cx="1935.35" cy="1369.76" r="14.4" fill="#e26f46" fill-rule="evenodd" fill-opacity="1" stroke="#000000" stroke-opacity="1" stroke-width="3.2"/>
<circle clip-path="url(#clip093)" cx="1393.06" cy="1392.52" r="14.4" fill="#e26f46" fill-rule="evenodd" fill-opacity="1" stroke="#000000" stroke-opacity="1" stroke-width="3.2"/>
<circle clip-path="url(#clip093)" cx="1005.15" cy="1394.67" r="14.4" fill="#e26f46" fill-rule="evenodd" fill-opacity="1" stroke="#000000" stroke-opacity="1" stroke-width="3.2"/>
<circle clip-path="url(#clip093)" cx="744.377" cy="1389.42" r="14.4" fill="#e26f46" fill-rule="evenodd" fill-opacity="1" stroke="#000000" stroke-opacity="1" stroke-width="3.2"/>
<circle clip-path="url(#clip093)" cx="571.9" cy="1377.42" r="14.4" fill="#e26f46" fill-rule="evenodd" fill-opacity="1" stroke="#000000" stroke-opacity="1" stroke-width="3.2"/>
<circle clip-path="url(#clip093)" cx="458.777" cy="1355.97" r="14.4" fill="#e26f46" fill-rule="evenodd" fill-opacity="1" stroke="#000000" stroke-opacity="1" stroke-width="3.2"/>
<circle clip-path="url(#clip093)" cx="385.22" cy="1319.48" r="14.4" fill="#e26f46" fill-rule="evenodd" fill-opacity="1" stroke="#000000" stroke-opacity="1" stroke-width="3.2"/>
<circle clip-path="url(#clip093)" cx="338.113" cy="1258.18" r="14.4" fill="#e26f46" fill-rule="evenodd" fill-opacity="1" stroke="#000000" stroke-opacity="1" stroke-width="3.2"/>
<circle clip-path="url(#clip093)" cx="309.015" cy="1155.53" r="14.4" fill="#e26f46" fill-rule="evenodd" fill-opacity="1" stroke="#000000" stroke-opacity="1" stroke-width="3.2"/>
<circle clip-path="url(#clip093)" cx="292.899" cy="983.919" r="14.4" fill="#e26f46" fill-rule="evenodd" fill-opacity="1" stroke="#000000" stroke-opacity="1" stroke-width="3.2"/>
<circle clip-path="url(#clip093)" cx="287.704" cy="697.629" r="14.4" fill="#e26f46" fill-rule="evenodd" fill-opacity="1" stroke="#000000" stroke-opacity="1" stroke-width="3.2"/>
<circle clip-path="url(#clip093)" cx="295.316" cy="222.276" r="14.4" fill="#e26f46" fill-rule="evenodd" fill-opacity="1" stroke="#000000" stroke-opacity="1" stroke-width="3.2"/>
<path clip-path="url(#clip090)" d="
M290.493 248.629 L1058.43 248.629 L1058.43 93.1086 L290.493 93.1086  Z
  " fill="#ffffff" fill-rule="evenodd" fill-opacity="1"/>
<polyline clip-path="url(#clip090)" style="stroke:#000000; stroke-linecap:round; stroke-linejoin:round; stroke-width:4; stroke-opacity:1; fill:none" points="
  290.493,248.629 1058.43,248.629 1058.43,93.1086 290.493,93.1086 290.493,248.629 
  "/>
<polyline clip-path="url(#clip090)" style="stroke:#009af9; stroke-linecap:round; stroke-linejoin:round; stroke-width:8; stroke-opacity:1; fill:none" points="
  314.197,144.949 456.422,144.949 
  "/>
<path clip-path="url(#clip090)" d="M496.515 146.025 Q498.02 146.534 499.432 148.201 Q500.867 149.868 502.302 152.784 L507.047 162.229 L502.024 162.229 L497.603 153.363 Q495.89 149.891 494.27 148.756 Q492.672 147.622 489.895 147.622 L484.802 147.622 L484.802 162.229 L480.126 162.229 L480.126 127.669 L490.682 127.669 Q496.607 127.669 499.524 130.145 Q502.441 132.622 502.441 137.622 Q502.441 140.886 500.913 143.039 Q499.408 145.192 496.515 146.025 M484.802 131.511 L484.802 143.78 L490.682 143.78 Q494.061 143.78 495.774 142.229 Q497.51 140.655 497.51 137.622 Q497.51 134.59 495.774 133.062 Q494.061 131.511 490.682 131.511 L484.802 131.511 Z" fill="#000000" fill-rule="evenodd" fill-opacity="1" /><path clip-path="url(#clip090)" d="M532.927 148.201 L532.927 150.284 L513.343 150.284 Q513.621 154.682 515.982 156.997 Q518.367 159.289 522.603 159.289 Q525.056 159.289 527.348 158.687 Q529.663 158.085 531.931 156.881 L531.931 160.909 Q529.64 161.881 527.232 162.391 Q524.825 162.9 522.348 162.9 Q516.144 162.9 512.51 159.289 Q508.899 155.678 508.899 149.52 Q508.899 143.155 512.325 139.428 Q515.774 135.678 521.607 135.678 Q526.839 135.678 529.871 139.057 Q532.927 142.414 532.927 148.201 M528.667 146.951 Q528.621 143.456 526.7 141.372 Q524.802 139.289 521.654 139.289 Q518.089 139.289 515.936 141.303 Q513.806 143.317 513.482 146.974 L528.667 146.951 Z" fill="#000000" fill-rule="evenodd" fill-opacity="1" /><path clip-path="url(#clip090)" d="M553.042 126.21 L553.042 129.752 L548.968 129.752 Q546.677 129.752 545.774 130.678 Q544.894 131.604 544.894 134.011 L544.894 136.303 L551.908 136.303 L551.908 139.613 L544.894 139.613 L544.894 162.229 L540.612 162.229 L540.612 139.613 L536.538 139.613 L536.538 136.303 L540.612 136.303 L540.612 134.497 Q540.612 130.169 542.626 128.201 Q544.64 126.21 549.015 126.21 L553.042 126.21 Z" fill="#000000" fill-rule="evenodd" fill-opacity="1" /><path clip-path="url(#clip090)" d="M578.783 148.201 L578.783 150.284 L559.2 150.284 Q559.478 154.682 561.839 156.997 Q564.223 159.289 568.459 159.289 Q570.913 159.289 573.204 158.687 Q575.519 158.085 577.788 156.881 L577.788 160.909 Q575.496 161.881 573.089 162.391 Q570.681 162.9 568.204 162.9 Q562.001 162.9 558.366 159.289 Q554.755 155.678 554.755 149.52 Q554.755 143.155 558.181 139.428 Q561.63 135.678 567.464 135.678 Q572.695 135.678 575.727 139.057 Q578.783 142.414 578.783 148.201 M574.524 146.951 Q574.477 143.456 572.556 141.372 Q570.658 139.289 567.51 139.289 Q563.945 139.289 561.792 141.303 Q559.663 143.317 559.339 146.974 L574.524 146.951 Z" fill="#000000" fill-rule="evenodd" fill-opacity="1" /><path clip-path="url(#clip090)" d="M600.797 140.284 Q600.079 139.868 599.223 139.682 Q598.389 139.474 597.371 139.474 Q593.76 139.474 591.815 141.835 Q589.894 144.173 589.894 148.571 L589.894 162.229 L585.612 162.229 L585.612 136.303 L589.894 136.303 L589.894 140.331 Q591.237 137.969 593.389 136.835 Q595.542 135.678 598.621 135.678 Q599.061 135.678 599.593 135.747 Q600.125 135.794 600.774 135.909 L600.797 140.284 Z" fill="#000000" fill-rule="evenodd" fill-opacity="1" /><path clip-path="url(#clip090)" d="M626.398 148.201 L626.398 150.284 L606.815 150.284 Q607.093 154.682 609.454 156.997 Q611.838 159.289 616.074 159.289 Q618.528 159.289 620.82 158.687 Q623.135 158.085 625.403 156.881 L625.403 160.909 Q623.111 161.881 620.704 162.391 Q618.297 162.9 615.82 162.9 Q609.616 162.9 605.982 159.289 Q602.371 155.678 602.371 149.52 Q602.371 143.155 605.797 139.428 Q609.246 135.678 615.079 135.678 Q620.311 135.678 623.343 139.057 Q626.398 142.414 626.398 148.201 M622.139 146.951 Q622.093 143.456 620.172 141.372 Q618.273 139.289 615.125 139.289 Q611.561 139.289 609.408 141.303 Q607.278 143.317 606.954 146.974 L622.139 146.951 Z" fill="#000000" fill-rule="evenodd" fill-opacity="1" /><path clip-path="url(#clip090)" d="M654.94 146.581 L654.94 162.229 L650.681 162.229 L650.681 146.719 Q650.681 143.039 649.246 141.21 Q647.81 139.382 644.94 139.382 Q641.491 139.382 639.5 141.581 Q637.509 143.78 637.509 147.576 L637.509 162.229 L633.227 162.229 L633.227 136.303 L637.509 136.303 L637.509 140.331 Q639.037 137.993 641.097 136.835 Q643.181 135.678 645.889 135.678 Q650.357 135.678 652.648 138.456 Q654.94 141.21 654.94 146.581 Z" fill="#000000" fill-rule="evenodd" fill-opacity="1" /><path clip-path="url(#clip090)" d="M682.093 137.298 L682.093 141.28 Q680.287 140.284 678.458 139.798 Q676.653 139.289 674.801 139.289 Q670.657 139.289 668.366 141.928 Q666.074 144.544 666.074 149.289 Q666.074 154.034 668.366 156.673 Q670.657 159.289 674.801 159.289 Q676.653 159.289 678.458 158.803 Q680.287 158.293 682.093 157.298 L682.093 161.233 Q680.31 162.067 678.389 162.483 Q676.491 162.9 674.338 162.9 Q668.482 162.9 665.032 159.219 Q661.583 155.539 661.583 149.289 Q661.583 142.946 665.056 139.312 Q668.551 135.678 674.616 135.678 Q676.583 135.678 678.458 136.095 Q680.333 136.488 682.093 137.298 Z" fill="#000000" fill-rule="evenodd" fill-opacity="1" /><path clip-path="url(#clip090)" d="M711.676 148.201 L711.676 150.284 L692.093 150.284 Q692.37 154.682 694.731 156.997 Q697.116 159.289 701.352 159.289 Q703.805 159.289 706.097 158.687 Q708.412 158.085 710.68 156.881 L710.68 160.909 Q708.389 161.881 705.981 162.391 Q703.574 162.9 701.097 162.9 Q694.893 162.9 691.259 159.289 Q687.648 155.678 687.648 149.52 Q687.648 143.155 691.074 139.428 Q694.523 135.678 700.356 135.678 Q705.588 135.678 708.62 139.057 Q711.676 142.414 711.676 148.201 M707.417 146.951 Q707.37 143.456 705.449 141.372 Q703.551 139.289 700.403 139.289 Q696.838 139.289 694.685 141.303 Q692.555 143.317 692.231 146.974 L707.417 146.951 Z" fill="#000000" fill-rule="evenodd" fill-opacity="1" /><path clip-path="url(#clip090)" d="M750.264 137.067 L750.264 141.094 Q748.458 140.169 746.514 139.706 Q744.569 139.243 742.486 139.243 Q739.315 139.243 737.717 140.215 Q736.143 141.187 736.143 143.131 Q736.143 144.613 737.277 145.469 Q738.412 146.303 741.838 147.067 L743.296 147.391 Q747.833 148.363 749.731 150.145 Q751.652 151.905 751.652 155.076 Q751.652 158.687 748.782 160.793 Q745.935 162.9 740.935 162.9 Q738.852 162.9 736.583 162.483 Q734.338 162.09 731.838 161.28 L731.838 156.881 Q734.199 158.108 736.49 158.733 Q738.782 159.335 741.027 159.335 Q744.037 159.335 745.657 158.317 Q747.277 157.275 747.277 155.4 Q747.277 153.664 746.097 152.738 Q744.939 151.812 740.981 150.956 L739.5 150.608 Q735.541 149.775 733.782 148.062 Q732.023 146.326 732.023 143.317 Q732.023 139.659 734.615 137.669 Q737.208 135.678 741.977 135.678 Q744.338 135.678 746.421 136.025 Q748.504 136.372 750.264 137.067 Z" fill="#000000" fill-rule="evenodd" fill-opacity="1" /><path clip-path="url(#clip090)" d="M768.481 139.289 Q765.055 139.289 763.064 141.974 Q761.074 144.636 761.074 149.289 Q761.074 153.942 763.041 156.627 Q765.032 159.289 768.481 159.289 Q771.884 159.289 773.875 156.604 Q775.865 153.918 775.865 149.289 Q775.865 144.682 773.875 141.997 Q771.884 139.289 768.481 139.289 M768.481 135.678 Q774.037 135.678 777.208 139.289 Q780.379 142.9 780.379 149.289 Q780.379 155.655 777.208 159.289 Q774.037 162.9 768.481 162.9 Q762.902 162.9 759.731 159.289 Q756.583 155.655 756.583 149.289 Q756.583 142.9 759.731 139.289 Q762.902 135.678 768.481 135.678 Z" fill="#000000" fill-rule="evenodd" fill-opacity="1" /><path clip-path="url(#clip090)" d="M787.439 126.21 L791.698 126.21 L791.698 162.229 L787.439 162.229 L787.439 126.21 Z" fill="#000000" fill-rule="evenodd" fill-opacity="1" /><path clip-path="url(#clip090)" d="M800.171 151.997 L800.171 136.303 L804.43 136.303 L804.43 151.835 Q804.43 155.516 805.865 157.368 Q807.3 159.196 810.171 159.196 Q813.62 159.196 815.61 156.997 Q817.624 154.798 817.624 151.002 L817.624 136.303 L821.884 136.303 L821.884 162.229 L817.624 162.229 L817.624 158.247 Q816.073 160.608 814.013 161.766 Q811.976 162.9 809.268 162.9 Q804.8 162.9 802.485 160.122 Q800.171 157.344 800.171 151.997 M810.888 135.678 L810.888 135.678 Z" fill="#000000" fill-rule="evenodd" fill-opacity="1" /><path clip-path="url(#clip090)" d="M834.87 128.942 L834.87 136.303 L843.643 136.303 L843.643 139.613 L834.87 139.613 L834.87 153.687 Q834.87 156.858 835.726 157.761 Q836.606 158.664 839.268 158.664 L843.643 158.664 L843.643 162.229 L839.268 162.229 Q834.337 162.229 832.462 160.4 Q830.587 158.548 830.587 153.687 L830.587 139.613 L827.462 139.613 L827.462 136.303 L830.587 136.303 L830.587 128.942 L834.87 128.942 Z" fill="#000000" fill-rule="evenodd" fill-opacity="1" /><path clip-path="url(#clip090)" d="M849.244 136.303 L853.504 136.303 L853.504 162.229 L849.244 162.229 L849.244 136.303 M849.244 126.21 L853.504 126.21 L853.504 131.604 L849.244 131.604 L849.244 126.21 Z" fill="#000000" fill-rule="evenodd" fill-opacity="1" /><path clip-path="url(#clip090)" d="M872.462 139.289 Q869.036 139.289 867.045 141.974 Q865.055 144.636 865.055 149.289 Q865.055 153.942 867.022 156.627 Q869.013 159.289 872.462 159.289 Q875.865 159.289 877.855 156.604 Q879.846 153.918 879.846 149.289 Q879.846 144.682 877.855 141.997 Q875.865 139.289 872.462 139.289 M872.462 135.678 Q878.017 135.678 881.189 139.289 Q884.36 142.9 884.36 149.289 Q884.36 155.655 881.189 159.289 Q878.017 162.9 872.462 162.9 Q866.883 162.9 863.712 159.289 Q860.564 155.655 860.564 149.289 Q860.564 142.9 863.712 139.289 Q866.883 135.678 872.462 135.678 Z" fill="#000000" fill-rule="evenodd" fill-opacity="1" /><path clip-path="url(#clip090)" d="M912.971 146.581 L912.971 162.229 L908.712 162.229 L908.712 146.719 Q908.712 143.039 907.277 141.21 Q905.841 139.382 902.971 139.382 Q899.522 139.382 897.531 141.581 Q895.541 143.78 895.541 147.576 L895.541 162.229 L891.258 162.229 L891.258 136.303 L895.541 136.303 L895.541 140.331 Q897.068 137.993 899.128 136.835 Q901.212 135.678 903.92 135.678 Q908.388 135.678 910.679 138.456 Q912.971 141.21 912.971 146.581 Z" fill="#000000" fill-rule="evenodd" fill-opacity="1" /><circle clip-path="url(#clip090)" cx="385.309" cy="196.789" r="23.04" fill="#e26f46" fill-rule="evenodd" fill-opacity="1" stroke="#000000" stroke-opacity="1" stroke-width="5.12"/>
<path clip-path="url(#clip090)" d="M480.126 179.509 L501.978 179.509 L501.978 183.444 L484.802 183.444 L484.802 193.675 L501.26 193.675 L501.26 197.61 L484.802 197.61 L484.802 210.133 L502.394 210.133 L502.394 214.069 L480.126 214.069 L480.126 179.509 Z" fill="#000000" fill-rule="evenodd" fill-opacity="1" /><path clip-path="url(#clip090)" d="M531.445 188.143 L522.07 200.759 L531.931 214.069 L526.908 214.069 L519.362 203.883 L511.816 214.069 L506.793 214.069 L516.862 200.504 L507.649 188.143 L512.672 188.143 L519.547 197.379 L526.422 188.143 L531.445 188.143 Z" fill="#000000" fill-rule="evenodd" fill-opacity="1" /><path clip-path="url(#clip090)" d="M542.07 210.18 L542.07 223.93 L537.788 223.93 L537.788 188.143 L542.07 188.143 L542.07 192.078 Q543.413 189.763 545.45 188.652 Q547.51 187.518 550.357 187.518 Q555.079 187.518 558.019 191.268 Q560.982 195.018 560.982 201.129 Q560.982 207.24 558.019 210.99 Q555.079 214.74 550.357 214.74 Q547.51 214.74 545.45 213.629 Q543.413 212.495 542.07 210.18 M556.561 201.129 Q556.561 196.43 554.616 193.768 Q552.695 191.083 549.316 191.083 Q545.936 191.083 543.991 193.768 Q542.07 196.43 542.07 201.129 Q542.07 205.828 543.991 208.513 Q545.936 211.175 549.316 211.175 Q552.695 211.175 554.616 208.513 Q556.561 205.828 556.561 201.129 Z" fill="#000000" fill-rule="evenodd" fill-opacity="1" /><path clip-path="url(#clip090)" d="M568.042 178.05 L572.302 178.05 L572.302 214.069 L568.042 214.069 L568.042 178.05 Z" fill="#000000" fill-rule="evenodd" fill-opacity="1" /><path clip-path="url(#clip090)" d="M581.214 188.143 L585.473 188.143 L585.473 214.069 L581.214 214.069 L581.214 188.143 M581.214 178.05 L585.473 178.05 L585.473 183.444 L581.214 183.444 L581.214 178.05 Z" fill="#000000" fill-rule="evenodd" fill-opacity="1" /><path clip-path="url(#clip090)" d="M613.042 189.138 L613.042 193.12 Q611.236 192.124 609.408 191.638 Q607.602 191.129 605.75 191.129 Q601.607 191.129 599.315 193.768 Q597.024 196.384 597.024 201.129 Q597.024 205.874 599.315 208.513 Q601.607 211.129 605.75 211.129 Q607.602 211.129 609.408 210.643 Q611.236 210.133 613.042 209.138 L613.042 213.073 Q611.26 213.907 609.338 214.323 Q607.44 214.74 605.287 214.74 Q599.431 214.74 595.982 211.059 Q592.533 207.379 592.533 201.129 Q592.533 194.786 596.005 191.152 Q599.5 187.518 605.565 187.518 Q607.533 187.518 609.408 187.935 Q611.283 188.328 613.042 189.138 Z" fill="#000000" fill-rule="evenodd" fill-opacity="1" /><path clip-path="url(#clip090)" d="M620.449 188.143 L624.709 188.143 L624.709 214.069 L620.449 214.069 L620.449 188.143 M620.449 178.05 L624.709 178.05 L624.709 183.444 L620.449 183.444 L620.449 178.05 Z" fill="#000000" fill-rule="evenodd" fill-opacity="1" /><path clip-path="url(#clip090)" d="M637.834 180.782 L637.834 188.143 L646.607 188.143 L646.607 191.453 L637.834 191.453 L637.834 205.527 Q637.834 208.698 638.69 209.601 Q639.57 210.504 642.232 210.504 L646.607 210.504 L646.607 214.069 L642.232 214.069 Q637.301 214.069 635.426 212.24 Q633.551 210.388 633.551 205.527 L633.551 191.453 L630.426 191.453 L630.426 188.143 L633.551 188.143 L633.551 180.782 L637.834 180.782 Z" fill="#000000" fill-rule="evenodd" fill-opacity="1" /><path clip-path="url(#clip090)" d="M667.463 179.509 L689.315 179.509 L689.315 183.444 L672.139 183.444 L672.139 193.675 L688.597 193.675 L688.597 197.61 L672.139 197.61 L672.139 210.133 L689.731 210.133 L689.731 214.069 L667.463 214.069 L667.463 179.509 Z" fill="#000000" fill-rule="evenodd" fill-opacity="1" /><path clip-path="url(#clip090)" d="M696.792 203.837 L696.792 188.143 L701.051 188.143 L701.051 203.675 Q701.051 207.356 702.486 209.208 Q703.921 211.036 706.792 211.036 Q710.241 211.036 712.231 208.837 Q714.245 206.638 714.245 202.842 L714.245 188.143 L718.504 188.143 L718.504 214.069 L714.245 214.069 L714.245 210.087 Q712.694 212.448 710.634 213.606 Q708.597 214.74 705.889 214.74 Q701.421 214.74 699.106 211.962 Q696.792 209.184 696.792 203.837 M707.509 187.518 L707.509 187.518 Z" fill="#000000" fill-rule="evenodd" fill-opacity="1" /><path clip-path="url(#clip090)" d="M727.278 178.05 L731.537 178.05 L731.537 214.069 L727.278 214.069 L727.278 178.05 Z" fill="#000000" fill-rule="evenodd" fill-opacity="1" /><path clip-path="url(#clip090)" d="M762.625 200.041 L762.625 202.124 L743.041 202.124 Q743.319 206.522 745.68 208.837 Q748.064 211.129 752.301 211.129 Q754.754 211.129 757.046 210.527 Q759.361 209.925 761.629 208.721 L761.629 212.749 Q759.338 213.721 756.93 214.231 Q754.523 214.74 752.046 214.74 Q745.842 214.74 742.208 211.129 Q738.597 207.518 738.597 201.36 Q738.597 194.995 742.023 191.268 Q745.472 187.518 751.305 187.518 Q756.537 187.518 759.569 190.897 Q762.625 194.254 762.625 200.041 M758.365 198.791 Q758.319 195.296 756.398 193.212 Q754.5 191.129 751.351 191.129 Q747.787 191.129 745.634 193.143 Q743.504 195.157 743.18 198.814 L758.365 198.791 Z" fill="#000000" fill-rule="evenodd" fill-opacity="1" /><path clip-path="url(#clip090)" d="M784.638 192.124 Q783.921 191.708 783.064 191.522 Q782.231 191.314 781.212 191.314 Q777.601 191.314 775.657 193.675 Q773.736 196.013 773.736 200.411 L773.736 214.069 L769.453 214.069 L769.453 188.143 L773.736 188.143 L773.736 192.171 Q775.078 189.809 777.231 188.675 Q779.384 187.518 782.462 187.518 Q782.902 187.518 783.435 187.587 Q783.967 187.634 784.615 187.749 L784.638 192.124 Z" fill="#000000" fill-rule="evenodd" fill-opacity="1" /><path clip-path="url(#clip090)" d="M790.194 208.189 L795.078 208.189 L795.078 212.17 L791.282 219.578 L788.296 219.578 L790.194 212.17 L790.194 208.189 Z" fill="#000000" fill-rule="evenodd" fill-opacity="1" /><path clip-path="url(#clip090)" d="M836.305 192.078 L836.305 178.05 L840.564 178.05 L840.564 214.069 L836.305 214.069 L836.305 210.18 Q834.962 212.495 832.902 213.629 Q830.865 214.74 827.995 214.74 Q823.296 214.74 820.333 210.99 Q817.393 207.24 817.393 201.129 Q817.393 195.018 820.333 191.268 Q823.296 187.518 827.995 187.518 Q830.865 187.518 832.902 188.652 Q834.962 189.763 836.305 192.078 M821.791 201.129 Q821.791 205.828 823.712 208.513 Q825.657 211.175 829.036 211.175 Q832.416 211.175 834.36 208.513 Q836.305 205.828 836.305 201.129 Q836.305 196.43 834.36 193.768 Q832.416 191.083 829.036 191.083 Q825.657 191.083 823.712 193.768 Q821.791 196.43 821.791 201.129 Z" fill="#000000" fill-rule="evenodd" fill-opacity="1" /><path clip-path="url(#clip090)" d="M853.55 180.782 L853.55 188.143 L862.323 188.143 L862.323 191.453 L853.55 191.453 L853.55 205.527 Q853.55 208.698 854.406 209.601 Q855.286 210.504 857.948 210.504 L862.323 210.504 L862.323 214.069 L857.948 214.069 Q853.018 214.069 851.143 212.24 Q849.268 210.388 849.268 205.527 L849.268 191.453 L846.143 191.453 L846.143 188.143 L849.268 188.143 L849.268 180.782 L853.55 180.782 Z" fill="#000000" fill-rule="evenodd" fill-opacity="1" /><path clip-path="url(#clip090)" d="M883.55 192.541 L913.226 192.541 L913.226 196.43 L883.55 196.43 L883.55 192.541 M883.55 201.985 L913.226 201.985 L913.226 205.921 L883.55 205.921 L883.55 201.985 Z" fill="#000000" fill-rule="evenodd" fill-opacity="1" /><path clip-path="url(#clip090)" d="M948.387 182.587 Q944.776 182.587 942.948 186.152 Q941.142 189.694 941.142 196.823 Q941.142 203.93 942.948 207.495 Q944.776 211.036 948.387 211.036 Q952.022 211.036 953.827 207.495 Q955.656 203.93 955.656 196.823 Q955.656 189.694 953.827 186.152 Q952.022 182.587 948.387 182.587 M948.387 178.884 Q954.198 178.884 957.253 183.49 Q960.332 188.073 960.332 196.823 Q960.332 205.55 957.253 210.157 Q954.198 214.74 948.387 214.74 Q942.577 214.74 939.499 210.157 Q936.443 205.55 936.443 196.823 Q936.443 188.073 939.499 183.49 Q942.577 178.884 948.387 178.884 Z" fill="#000000" fill-rule="evenodd" fill-opacity="1" /><path clip-path="url(#clip090)" d="M968.549 208.189 L973.434 208.189 L973.434 214.069 L968.549 214.069 L968.549 208.189 Z" fill="#000000" fill-rule="evenodd" fill-opacity="1" /><path clip-path="url(#clip090)" d="M997.785 195.434 Q1001.14 196.152 1003.02 198.421 Q1004.91 200.689 1004.91 204.022 Q1004.91 209.138 1001.4 211.939 Q997.878 214.74 991.396 214.74 Q989.221 214.74 986.906 214.3 Q984.614 213.883 982.16 213.027 L982.16 208.513 Q984.105 209.647 986.42 210.226 Q988.734 210.805 991.258 210.805 Q995.656 210.805 997.947 209.069 Q1000.26 207.333 1000.26 204.022 Q1000.26 200.967 998.109 199.254 Q995.98 197.518 992.16 197.518 L988.133 197.518 L988.133 193.675 L992.346 193.675 Q995.795 193.675 997.623 192.309 Q999.452 190.921 999.452 188.328 Q999.452 185.666 997.554 184.254 Q995.679 182.819 992.16 182.819 Q990.239 182.819 988.04 183.235 Q985.841 183.652 983.202 184.532 L983.202 180.365 Q985.864 179.624 988.179 179.254 Q990.517 178.884 992.577 178.884 Q997.901 178.884 1001 181.314 Q1004.1 183.722 1004.1 187.842 Q1004.1 190.712 1002.46 192.703 Q1000.82 194.671 997.785 195.434 Z" fill="#000000" fill-rule="evenodd" fill-opacity="1" /><path clip-path="url(#clip090)" d="M1013.83 179.509 L1032.18 179.509 L1032.18 183.444 L1018.11 183.444 L1018.11 191.916 Q1019.13 191.569 1020.15 191.407 Q1021.16 191.222 1022.18 191.222 Q1027.97 191.222 1031.35 194.393 Q1034.73 197.564 1034.73 202.981 Q1034.73 208.559 1031.26 211.661 Q1027.79 214.74 1021.47 214.74 Q1019.29 214.74 1017.02 214.37 Q1014.78 213.999 1012.37 213.258 L1012.37 208.559 Q1014.45 209.694 1016.67 210.249 Q1018.9 210.805 1021.37 210.805 Q1025.38 210.805 1027.72 208.698 Q1030.05 206.592 1030.05 202.981 Q1030.05 199.37 1027.72 197.263 Q1025.38 195.157 1021.37 195.157 Q1019.5 195.157 1017.62 195.573 Q1015.77 195.99 1013.83 196.87 L1013.83 179.509 Z" fill="#000000" fill-rule="evenodd" fill-opacity="1" /></svg>
