<?xml version="1.0" encoding="utf-8"?>
<svg xmlns="http://www.w3.org/2000/svg" xmlns:xlink="http://www.w3.org/1999/xlink" width="600" height="400" viewBox="0 0 2400 1600">
<defs>
  <clipPath id="clip940">
    <rect x="0" y="0" width="2400" height="1600"/>
  </clipPath>
</defs>
<path clip-path="url(#clip940)" d="
M0 1600 L2400 1600 L2400 0 L0 0  Z
  " fill="#ffffff" fill-rule="evenodd" fill-opacity="1"/>
<defs>
  <clipPath id="clip941">
    <rect x="480" y="0" width="1681" height="1600"/>
  </clipPath>
</defs>
<defs>
  <clipPath id="clip942">
    <rect x="175" y="47" width="2178" height="1377"/>
  </clipPath>
</defs>
<path clip-path="url(#clip940)" d="
M175.445 1423.18 L2352.76 1423.18 L2352.76 47.2441 L175.445 47.2441  Z
  " fill="#ffffff" fill-rule="evenodd" fill-opacity="1"/>
<polyline clip-path="url(#clip942)" style="stroke:#000000; stroke-linecap:round; stroke-linejoin:round; stroke-width:2; stroke-opacity:0.1; fill:none" points="
  408.607,1423.18 408.607,47.2441 
  "/>
<polyline clip-path="url(#clip942)" style="stroke:#000000; stroke-linecap:round; stroke-linejoin:round; stroke-width:2; stroke-opacity:0.1; fill:none" points="
  724.728,1423.18 724.728,47.2441 
  "/>
<polyline clip-path="url(#clip942)" style="stroke:#000000; stroke-linecap:round; stroke-linejoin:round; stroke-width:2; stroke-opacity:0.1; fill:none" points="
  1040.85,1423.18 1040.85,47.2441 
  "/>
<polyline clip-path="url(#clip942)" style="stroke:#000000; stroke-linecap:round; stroke-linejoin:round; stroke-width:2; stroke-opacity:0.1; fill:none" points="
  1356.97,1423.18 1356.97,47.2441 
  "/>
<polyline clip-path="url(#clip942)" style="stroke:#000000; stroke-linecap:round; stroke-linejoin:round; stroke-width:2; stroke-opacity:0.1; fill:none" points="
  1673.09,1423.18 1673.09,47.2441 
  "/>
<polyline clip-path="url(#clip942)" style="stroke:#000000; stroke-linecap:round; stroke-linejoin:round; stroke-width:2; stroke-opacity:0.1; fill:none" points="
  1989.22,1423.18 1989.22,47.2441 
  "/>
<polyline clip-path="url(#clip942)" style="stroke:#000000; stroke-linecap:round; stroke-linejoin:round; stroke-width:2; stroke-opacity:0.1; fill:none" points="
  2305.34,1423.18 2305.34,47.2441 
  "/>
<polyline clip-path="url(#clip940)" style="stroke:#000000; stroke-linecap:round; stroke-linejoin:round; stroke-width:4; stroke-opacity:1; fill:none" points="
  175.445,1423.18 2352.76,1423.18 
  "/>
<polyline clip-path="url(#clip940)" style="stroke:#000000; stroke-linecap:round; stroke-linejoin:round; stroke-width:4; stroke-opacity:1; fill:none" points="
  408.607,1423.18 408.607,1404.28 
  "/>
<polyline clip-path="url(#clip940)" style="stroke:#000000; stroke-linecap:round; stroke-linejoin:round; stroke-width:4; stroke-opacity:1; fill:none" points="
  724.728,1423.18 724.728,1404.28 
  "/>
<polyline clip-path="url(#clip940)" style="stroke:#000000; stroke-linecap:round; stroke-linejoin:round; stroke-width:4; stroke-opacity:1; fill:none" points="
  1040.85,1423.18 1040.85,1404.28 
  "/>
<polyline clip-path="url(#clip940)" style="stroke:#000000; stroke-linecap:round; stroke-linejoin:round; stroke-width:4; stroke-opacity:1; fill:none" points="
  1356.97,1423.18 1356.97,1404.28 
  "/>
<polyline clip-path="url(#clip940)" style="stroke:#000000; stroke-linecap:round; stroke-linejoin:round; stroke-width:4; stroke-opacity:1; fill:none" points="
  1673.09,1423.18 1673.09,1404.28 
  "/>
<polyline clip-path="url(#clip940)" style="stroke:#000000; stroke-linecap:round; stroke-linejoin:round; stroke-width:4; stroke-opacity:1; fill:none" points="
  1989.22,1423.18 1989.22,1404.28 
  "/>
<polyline clip-path="url(#clip940)" style="stroke:#000000; stroke-linecap:round; stroke-linejoin:round; stroke-width:4; stroke-opacity:1; fill:none" points="
  2305.34,1423.18 2305.34,1404.28 
  "/>
<path clip-path="url(#clip940)" d="M398.988 1481.64 L406.627 1481.64 L406.627 1455.28 L398.317 1456.95 L398.317 1452.69 L406.581 1451.02 L411.257 1451.02 L411.257 1481.64 L418.896 1481.64 L418.896 1485.58 L398.988 1485.58 L398.988 1481.64 Z" fill="#000000" fill-rule="evenodd" fill-opacity="1" /><path clip-path="url(#clip940)" d="M719.381 1481.64 L735.701 1481.64 L735.701 1485.58 L713.756 1485.58 L713.756 1481.64 Q716.418 1478.89 721.002 1474.26 Q725.608 1469.61 726.789 1468.27 Q729.034 1465.74 729.914 1464.01 Q730.816 1462.25 730.816 1460.56 Q730.816 1457.8 728.872 1456.07 Q726.951 1454.33 723.849 1454.33 Q721.65 1454.33 719.196 1455.09 Q716.765 1455.86 713.988 1457.41 L713.988 1452.69 Q716.812 1451.55 719.265 1450.97 Q721.719 1450.39 723.756 1450.39 Q729.126 1450.39 732.321 1453.08 Q735.515 1455.77 735.515 1460.26 Q735.515 1462.39 734.705 1464.31 Q733.918 1466.2 731.812 1468.8 Q731.233 1469.47 728.131 1472.69 Q725.029 1475.88 719.381 1481.64 Z" fill="#000000" fill-rule="evenodd" fill-opacity="1" /><path clip-path="url(#clip940)" d="M1045.1 1466.95 Q1048.45 1467.66 1050.33 1469.93 Q1052.23 1472.2 1052.23 1475.53 Q1052.23 1480.65 1048.71 1483.45 Q1045.19 1486.25 1038.71 1486.25 Q1036.53 1486.25 1034.22 1485.81 Q1031.93 1485.39 1029.47 1484.54 L1029.47 1480.02 Q1031.42 1481.16 1033.73 1481.74 Q1036.05 1482.32 1038.57 1482.32 Q1042.97 1482.32 1045.26 1480.58 Q1047.57 1478.84 1047.57 1475.53 Q1047.57 1472.48 1045.42 1470.77 Q1043.29 1469.03 1039.47 1469.03 L1035.45 1469.03 L1035.45 1465.19 L1039.66 1465.19 Q1043.11 1465.19 1044.94 1463.82 Q1046.76 1462.43 1046.76 1459.84 Q1046.76 1457.18 1044.87 1455.77 Q1042.99 1454.33 1039.47 1454.33 Q1037.55 1454.33 1035.35 1454.75 Q1033.15 1455.16 1030.51 1456.04 L1030.51 1451.88 Q1033.18 1451.14 1035.49 1450.77 Q1037.83 1450.39 1039.89 1450.39 Q1045.21 1450.39 1048.32 1452.83 Q1051.42 1455.23 1051.42 1459.35 Q1051.42 1462.22 1049.77 1464.21 Q1048.13 1466.18 1045.1 1466.95 Z" fill="#000000" fill-rule="evenodd" fill-opacity="1" /><path clip-path="url(#clip940)" d="M1359.98 1455.09 L1348.18 1473.54 L1359.98 1473.54 L1359.98 1455.09 M1358.75 1451.02 L1364.63 1451.02 L1364.63 1473.54 L1369.56 1473.54 L1369.56 1477.43 L1364.63 1477.43 L1364.63 1485.58 L1359.98 1485.58 L1359.98 1477.43 L1344.38 1477.43 L1344.38 1472.92 L1358.75 1451.02 Z" fill="#000000" fill-rule="evenodd" fill-opacity="1" /><path clip-path="url(#clip940)" d="M1663.37 1451.02 L1681.73 1451.02 L1681.73 1454.96 L1667.65 1454.96 L1667.65 1463.43 Q1668.67 1463.08 1669.69 1462.92 Q1670.71 1462.73 1671.73 1462.73 Q1677.52 1462.73 1680.89 1465.9 Q1684.27 1469.08 1684.27 1474.49 Q1684.27 1480.07 1680.8 1483.17 Q1677.33 1486.25 1671.01 1486.25 Q1668.83 1486.25 1666.57 1485.88 Q1664.32 1485.51 1661.91 1484.77 L1661.91 1480.07 Q1664 1481.2 1666.22 1481.76 Q1668.44 1482.32 1670.92 1482.32 Q1674.92 1482.32 1677.26 1480.21 Q1679.6 1478.1 1679.6 1474.49 Q1679.6 1470.88 1677.26 1468.77 Q1674.92 1466.67 1670.92 1466.67 Q1669.04 1466.67 1667.17 1467.08 Q1665.32 1467.5 1663.37 1468.38 L1663.37 1451.02 Z" fill="#000000" fill-rule="evenodd" fill-opacity="1" /><path clip-path="url(#clip940)" d="M1989.62 1466.44 Q1986.47 1466.44 1984.62 1468.59 Q1982.79 1470.74 1982.79 1474.49 Q1982.79 1478.22 1984.62 1480.39 Q1986.47 1482.55 1989.62 1482.55 Q1992.77 1482.55 1994.6 1480.39 Q1996.45 1478.22 1996.45 1474.49 Q1996.45 1470.74 1994.6 1468.59 Q1992.77 1466.44 1989.62 1466.44 M1998.9 1451.78 L1998.9 1456.04 Q1997.14 1455.21 1995.34 1454.77 Q1993.56 1454.33 1991.8 1454.33 Q1987.17 1454.33 1984.71 1457.45 Q1982.28 1460.58 1981.94 1466.9 Q1983.3 1464.89 1985.36 1463.82 Q1987.42 1462.73 1989.9 1462.73 Q1995.11 1462.73 1998.12 1465.9 Q2001.15 1469.05 2001.15 1474.49 Q2001.15 1479.82 1998 1483.03 Q1994.85 1486.25 1989.62 1486.25 Q1983.63 1486.25 1980.45 1481.67 Q1977.28 1477.06 1977.28 1468.33 Q1977.28 1460.14 1981.17 1455.28 Q1985.06 1450.39 1991.61 1450.39 Q1993.37 1450.39 1995.15 1450.74 Q1996.96 1451.09 1998.9 1451.78 Z" fill="#000000" fill-rule="evenodd" fill-opacity="1" /><path clip-path="url(#clip940)" d="M2294.23 1451.02 L2316.45 1451.02 L2316.45 1453.01 L2303.9 1485.58 L2299.02 1485.58 L2310.82 1454.96 L2294.23 1454.96 L2294.23 1451.02 Z" fill="#000000" fill-rule="evenodd" fill-opacity="1" /><path clip-path="url(#clip940)" d="M1276.72 1519.2 L1267.61 1555.89 Q1267.35 1557.05 1267.35 1557.34 Q1267.35 1557.72 1267.45 1557.88 Q1267.57 1558.08 1268.28 1558.24 Q1269.02 1558.4 1270.5 1558.4 Q1271.05 1558.4 1271.25 1558.4 Q1271.44 1558.4 1271.73 1558.46 Q1272.02 1558.53 1272.12 1558.69 Q1272.21 1558.85 1272.21 1559.11 Q1272.21 1560.43 1271.05 1560.43 Q1269.96 1560.43 1267.67 1560.33 Q1265.38 1560.23 1264.26 1560.23 Q1263.16 1560.23 1260.94 1560.33 Q1258.72 1560.43 1257.65 1560.43 Q1257.27 1560.43 1257.04 1560.23 Q1256.82 1560.07 1256.82 1559.88 L1256.79 1559.72 Q1256.79 1558.82 1257.14 1558.59 Q1257.49 1558.4 1258.3 1558.4 Q1261.07 1558.37 1261.87 1557.98 Q1262.68 1557.59 1263.07 1556.21 L1266.03 1544.42 Q1262.07 1548.38 1258.23 1548.38 Q1254.53 1548.38 1252.02 1545.48 Q1249.54 1542.55 1249.54 1537.82 Q1249.54 1534.31 1250.92 1530.77 Q1252.34 1527.22 1254.53 1524.55 Q1256.75 1521.88 1259.65 1520.2 Q1262.55 1518.49 1265.42 1518.49 Q1267.25 1518.49 1268.89 1519.56 Q1270.57 1520.62 1271.57 1523.1 Q1272.41 1521.68 1273.95 1520.14 Q1275.5 1518.56 1276.04 1518.56 Q1276.37 1518.56 1276.53 1518.78 Q1276.72 1518.98 1276.72 1519.2 M1270.63 1525.74 Q1270.63 1525.42 1270.38 1524.61 Q1270.15 1523.81 1269.64 1522.71 Q1269.15 1521.59 1268.03 1520.78 Q1266.9 1519.94 1265.42 1519.94 Q1263.29 1519.94 1261 1522.01 Q1258.75 1524.03 1257.27 1527.58 Q1256.33 1529.9 1255.27 1534.21 Q1254.21 1538.53 1254.21 1540.72 Q1254.21 1541.23 1254.24 1541.81 Q1254.31 1542.39 1254.56 1543.36 Q1254.82 1544.32 1255.21 1545.06 Q1255.63 1545.81 1256.46 1546.35 Q1257.3 1546.9 1258.43 1546.9 Q1260.88 1546.9 1263.32 1544.81 Q1265.77 1542.71 1266.8 1540.85 Q1266.93 1540.65 1268.77 1533.34 Q1270.63 1526.03 1270.63 1525.74 Z" fill="#000000" fill-rule="evenodd" fill-opacity="1" /><polyline clip-path="url(#clip942)" style="stroke:#000000; stroke-linecap:round; stroke-linejoin:round; stroke-width:2; stroke-opacity:0.1; fill:none" points="
  175.445,1396.87 2352.76,1396.87 
  "/>
<polyline clip-path="url(#clip942)" style="stroke:#000000; stroke-linecap:round; stroke-linejoin:round; stroke-width:2; stroke-opacity:0.1; fill:none" points="
  175.445,1117.26 2352.76,1117.26 
  "/>
<polyline clip-path="url(#clip942)" style="stroke:#000000; stroke-linecap:round; stroke-linejoin:round; stroke-width:2; stroke-opacity:0.1; fill:none" points="
  175.445,837.655 2352.76,837.655 
  "/>
<polyline clip-path="url(#clip942)" style="stroke:#000000; stroke-linecap:round; stroke-linejoin:round; stroke-width:2; stroke-opacity:0.1; fill:none" points="
  175.445,558.05 2352.76,558.05 
  "/>
<polyline clip-path="url(#clip942)" style="stroke:#000000; stroke-linecap:round; stroke-linejoin:round; stroke-width:2; stroke-opacity:0.1; fill:none" points="
  175.445,278.445 2352.76,278.445 
  "/>
<polyline clip-path="url(#clip940)" style="stroke:#000000; stroke-linecap:round; stroke-linejoin:round; stroke-width:4; stroke-opacity:1; fill:none" points="
  175.445,1423.18 175.445,47.2441 
  "/>
<polyline clip-path="url(#clip940)" style="stroke:#000000; stroke-linecap:round; stroke-linejoin:round; stroke-width:4; stroke-opacity:1; fill:none" points="
  175.445,1396.87 194.343,1396.87 
  "/>
<polyline clip-path="url(#clip940)" style="stroke:#000000; stroke-linecap:round; stroke-linejoin:round; stroke-width:4; stroke-opacity:1; fill:none" points="
  175.445,1117.26 194.343,1117.26 
  "/>
<polyline clip-path="url(#clip940)" style="stroke:#000000; stroke-linecap:round; stroke-linejoin:round; stroke-width:4; stroke-opacity:1; fill:none" points="
  175.445,837.655 194.343,837.655 
  "/>
<polyline clip-path="url(#clip940)" style="stroke:#000000; stroke-linecap:round; stroke-linejoin:round; stroke-width:4; stroke-opacity:1; fill:none" points="
  175.445,558.05 194.343,558.05 
  "/>
<polyline clip-path="url(#clip940)" style="stroke:#000000; stroke-linecap:round; stroke-linejoin:round; stroke-width:4; stroke-opacity:1; fill:none" points="
  175.445,278.445 194.343,278.445 
  "/>
<path clip-path="url(#clip940)" d="M127.501 1382.66 Q123.89 1382.66 122.061 1386.23 Q120.255 1389.77 120.255 1396.9 Q120.255 1404.01 122.061 1407.57 Q123.89 1411.11 127.501 1411.11 Q131.135 1411.11 132.941 1407.57 Q134.769 1404.01 134.769 1396.9 Q134.769 1389.77 132.941 1386.23 Q131.135 1382.66 127.501 1382.66 M127.501 1378.96 Q133.311 1378.96 136.367 1383.57 Q139.445 1388.15 139.445 1396.9 Q139.445 1405.63 136.367 1410.23 Q133.311 1414.82 127.501 1414.82 Q121.691 1414.82 118.612 1410.23 Q115.556 1405.63 115.556 1396.9 Q115.556 1388.15 118.612 1383.57 Q121.691 1378.96 127.501 1378.96 Z" fill="#000000" fill-rule="evenodd" fill-opacity="1" /><path clip-path="url(#clip940)" d="M119.538 1130.61 L127.177 1130.61 L127.177 1104.24 L118.867 1105.91 L118.867 1101.65 L127.13 1099.98 L131.806 1099.98 L131.806 1130.61 L139.445 1130.61 L139.445 1134.54 L119.538 1134.54 L119.538 1130.61 Z" fill="#000000" fill-rule="evenodd" fill-opacity="1" /><path clip-path="url(#clip940)" d="M123.126 851 L139.445 851 L139.445 854.935 L117.501 854.935 L117.501 851 Q120.163 848.246 124.746 843.616 Q129.353 838.963 130.533 837.621 Q132.779 835.097 133.658 833.361 Q134.561 831.602 134.561 829.912 Q134.561 827.158 132.617 825.422 Q130.695 823.685 127.593 823.685 Q125.394 823.685 122.941 824.449 Q120.51 825.213 117.732 826.764 L117.732 822.042 Q120.556 820.908 123.01 820.329 Q125.464 819.75 127.501 819.75 Q132.871 819.75 136.066 822.435 Q139.26 825.121 139.26 829.611 Q139.26 831.741 138.45 833.662 Q137.663 835.56 135.556 838.153 Q134.978 838.824 131.876 842.042 Q128.774 845.236 123.126 851 Z" fill="#000000" fill-rule="evenodd" fill-opacity="1" /><path clip-path="url(#clip940)" d="M132.316 556.696 Q135.672 557.414 137.547 559.682 Q139.445 561.951 139.445 565.284 Q139.445 570.4 135.927 573.201 Q132.408 576.002 125.927 576.002 Q123.751 576.002 121.436 575.562 Q119.144 575.145 116.691 574.289 L116.691 569.775 Q118.635 570.909 120.95 571.488 Q123.265 572.066 125.788 572.066 Q130.186 572.066 132.478 570.33 Q134.792 568.594 134.792 565.284 Q134.792 562.228 132.64 560.515 Q130.51 558.779 126.691 558.779 L122.663 558.779 L122.663 554.937 L126.876 554.937 Q130.325 554.937 132.154 553.571 Q133.982 552.182 133.982 549.59 Q133.982 546.928 132.084 545.516 Q130.209 544.08 126.691 544.08 Q124.769 544.08 122.57 544.497 Q120.371 544.914 117.732 545.793 L117.732 541.627 Q120.394 540.886 122.709 540.516 Q125.047 540.145 127.107 540.145 Q132.431 540.145 135.533 542.576 Q138.635 544.983 138.635 549.104 Q138.635 551.974 136.992 553.965 Q135.348 555.932 132.316 556.696 Z" fill="#000000" fill-rule="evenodd" fill-opacity="1" /><path clip-path="url(#clip940)" d="M129.862 265.239 L118.056 283.688 L129.862 283.688 L129.862 265.239 M128.635 261.165 L134.515 261.165 L134.515 283.688 L139.445 283.688 L139.445 287.577 L134.515 287.577 L134.515 295.725 L129.862 295.725 L129.862 287.577 L114.26 287.577 L114.26 283.063 L128.635 261.165 Z" fill="#000000" fill-rule="evenodd" fill-opacity="1" /><path clip-path="url(#clip940)" d="M39.2425 717.179 Q43.9446 717.179 48.4856 719.563 Q53.0267 721.914 55.8286 725.617 Q58.5983 729.321 58.5983 733.089 Q58.5983 735.344 57.3744 736.857 Q56.1184 738.339 54.3471 739.144 Q56.5371 739.756 61.7866 741.076 Q67.0362 742.397 67.5515 742.397 Q67.8413 742.397 67.9702 742.332 Q68.099 742.268 68.26 741.978 Q68.4533 741.688 68.5177 740.98 Q68.6143 740.271 68.6143 739.079 Q68.6143 738.467 68.6143 738.242 Q68.6465 737.984 68.8075 737.759 Q68.9686 737.501 69.3228 737.501 Q70.6433 737.501 70.6433 738.693 Q70.6433 739.756 70.5466 741.946 Q70.45 744.136 70.45 745.231 Q70.45 746.165 70.5466 748.033 Q70.6433 749.901 70.6433 750.77 Q70.6433 751.64 69.8703 751.64 Q69.4194 751.64 69.1296 751.511 Q68.8719 751.414 68.7431 751.157 Q68.6465 750.899 68.6143 750.674 Q68.6143 750.48 68.6143 750.094 Q68.6143 748.612 68.3566 747.968 Q68.1312 747.324 67.6481 747.099 Q67.1972 746.841 65.909 746.551 L36.5373 739.144 Q34.5727 738.693 33.1878 738.693 Q31.4487 738.693 30.8046 739.24 Q30.1605 739.788 30.1605 740.754 Q30.1605 742.429 32.1573 743.524 Q34.154 744.619 38.0187 745.553 Q39.0815 745.843 39.307 746.036 Q39.5324 746.197 39.5324 746.68 Q39.5002 747.485 38.8561 747.485 Q38.695 747.485 37.6645 747.227 Q36.6017 746.97 35.0558 746.487 Q33.4777 745.971 32.4793 745.424 Q31.803 745.102 31.3521 744.812 Q30.9012 744.522 30.1927 743.942 Q29.4842 743.331 29.0977 742.461 Q28.7112 741.591 28.7112 740.529 Q28.7112 738.467 29.9351 736.761 Q31.1589 735.054 33.6387 734.603 Q31.4809 732.767 30.0961 730.513 Q28.7112 728.258 28.7112 725.972 Q28.7112 722.171 31.6742 719.691 Q34.6049 717.179 39.2425 717.179 M36.344 721.946 Q33.4133 721.946 31.803 723.073 Q30.1605 724.168 30.1605 726.165 Q30.1605 728.645 32.6725 731.511 Q35.0558 734.345 37.278 734.925 L50.1925 738.178 L51.2553 738.371 Q51.4486 738.371 52.0283 738.274 Q52.5758 738.145 53.4775 737.791 Q54.3793 737.405 55.1844 736.889 Q55.9574 736.342 56.5371 735.376 Q57.1168 734.377 57.1168 733.154 Q57.1168 731.189 55.3777 729.063 Q53.6386 726.906 50.3536 725.295 Q48.228 724.297 43.6547 723.138 Q39.0493 721.946 36.344 721.946 Z" fill="#000000" fill-rule="evenodd" fill-opacity="1" /><polyline clip-path="url(#clip942)" style="stroke:#009af9; stroke-linecap:round; stroke-linejoin:round; stroke-width:8; stroke-opacity:1; fill:none" points="
  2147.28,1117.26 2147.22,1121.66 2147.05,1125.98 2146.77,1130.24 2146.38,1134.43 2145.88,1138.56 2145.28,1142.61 2144.57,1146.6 2143.76,1150.53 2142.85,1154.39 
  2141.84,1158.19 2140.74,1161.93 2139.54,1165.61 2138.25,1169.22 2136.86,1172.78 2135.39,1176.27 2133.83,1179.71 2132.18,1183.09 2130.44,1186.41 2128.63,1189.68 
  2126.73,1192.9 2124.75,1196.05 2122.7,1199.16 2120.56,1202.21 2118.36,1205.21 2116.07,1208.16 2113.72,1211.07 2111.3,1213.92 2108.81,1216.72 2106.25,1219.47 
  2103.62,1222.18 2100.93,1224.84 2098.18,1227.45 2095.36,1230.02 2092.49,1232.55 2089.56,1235.03 2086.57,1237.47 2083.52,1239.87 2080.42,1242.23 2077.26,1244.54 
  2074.05,1246.82 2070.79,1249.05 2067.48,1251.25 2064.13,1253.41 2060.72,1255.53 2057.27,1257.62 2053.77,1259.67 2050.24,1261.68 2046.65,1263.66 2043.03,1265.6 
  2039.36,1267.52 2035.66,1269.39 2031.92,1271.24 2028.14,1273.05 2024.32,1274.83 2020.47,1276.59 2016.58,1278.31 2012.66,1280 2008.71,1281.66 2004.73,1283.3 
  2000.71,1284.9 1996.67,1286.48 1992.59,1288.03 1988.49,1289.55 1984.36,1291.05 1980.21,1292.52 1976.03,1293.97 1971.83,1295.39 1967.6,1296.79 1963.34,1298.16 
  1959.07,1299.51 1954.77,1300.84 1950.46,1302.15 1946.12,1303.43 1941.76,1304.69 1937.39,1305.93 1933,1307.15 1928.59,1308.34 1924.16,1309.52 1919.71,1310.68 
  1915.25,1311.82 1910.78,1312.94 1906.29,1314.04 1901.79,1315.12 1897.27,1316.18 1892.74,1317.22 1888.2,1318.25 1883.65,1319.26 1879.09,1320.26 1874.52,1321.23 
  1869.93,1322.19 1865.34,1323.14 1860.74,1324.07 1856.13,1324.98 1851.51,1325.88 1846.88,1326.76 1842.25,1327.63 1837.61,1328.49 1832.96,1329.33 1828.31,1330.16 
  1823.65,1330.97 1818.99,1331.77 1814.32,1332.56 1809.65,1333.33 1804.98,1334.09 1800.3,1334.84 1795.62,1335.58 1790.93,1336.3 1786.24,1337.02 1781.55,1337.72 
  1776.86,1338.41 1772.17,1339.09 1767.48,1339.76 1762.78,1340.42 1758.09,1341.06 1753.39,1341.7 1748.69,1342.33 1744,1342.95 1739.3,1343.55 1734.61,1344.15 
  1729.92,1344.74 1725.23,1345.32 1720.54,1345.89 1715.85,1346.45 1711.17,1347 1706.48,1347.55 1701.8,1348.08 1697.12,1348.61 1692.45,1349.13 1687.78,1349.64 
  1683.11,1350.14 1678.45,1350.64 1673.79,1351.12 1669.13,1351.6 1664.48,1352.08 1659.83,1352.54 1655.19,1353 1650.55,1353.45 1645.92,1353.9 1641.29,1354.33 
  1636.67,1354.76 1632.05,1355.19 1627.44,1355.61 1622.83,1356.02 1618.23,1356.42 1613.64,1356.82 1609.05,1357.22 1604.47,1357.6 1599.9,1357.99 1595.33,1358.36 
  1590.77,1358.73 1586.22,1359.1 1581.67,1359.46 1577.13,1359.81 1572.6,1360.16 1568.07,1360.51 1563.56,1360.85 1559.05,1361.18 1554.54,1361.51 1550.05,1361.83 
  1545.56,1362.15 1541.09,1362.47 1536.62,1362.78 1532.15,1363.09 1527.7,1363.39 1523.25,1363.68 1518.82,1363.98 1514.39,1364.27 1509.97,1364.55 1505.56,1364.83 
  1501.16,1365.11 1496.76,1365.38 1492.38,1365.65 1488,1365.92 1483.64,1366.18 1479.28,1366.43 1474.93,1366.69 1470.59,1366.94 1466.26,1367.19 1461.94,1367.43 
  1457.63,1367.67 1453.33,1367.91 1449.04,1368.14 1444.76,1368.37 1440.49,1368.6 1436.22,1368.82 1431.97,1369.04 1427.73,1369.26 1423.49,1369.47 1419.27,1369.69 
  1415.06,1369.89 1410.85,1370.1 1406.66,1370.3 1402.47,1370.5 1398.3,1370.7 1394.14,1370.9 1389.98,1371.09 1385.84,1371.28 1381.71,1371.47 1377.58,1371.65 
  1373.47,1371.83 1369.37,1372.01 1365.28,1372.19 1361.19,1372.36 1357.12,1372.54 1353.06,1372.71 1349.01,1372.88 1344.97,1373.04 1340.94,1373.2 1336.92,1373.37 
  1332.91,1373.53 1328.91,1373.68 1324.92,1373.84 1320.95,1373.99 1316.98,1374.14 1313.02,1374.29 1309.08,1374.44 1305.14,1374.58 1301.21,1374.73 1297.3,1374.87 
  1293.4,1375.01 1289.5,1375.14 1285.62,1375.28 1281.75,1375.41 1277.88,1375.55 1274.03,1375.68 1270.19,1375.8 1266.36,1375.93 1262.54,1376.06 1258.73,1376.18 
  1254.94,1376.3 1251.15,1376.42 1247.37,1376.54 1243.6,1376.66 1239.85,1376.78 1236.1,1376.89 1232.37,1377 1228.64,1377.12 1224.93,1377.23 1221.23,1377.34 
  1217.54,1377.44 1213.85,1377.55 1210.18,1377.65 1206.52,1377.76 1202.87,1377.86 1199.23,1377.96 1195.6,1378.06 1191.98,1378.16 1188.38,1378.25 1184.78,1378.35 
  1181.19,1378.44 1177.61,1378.54 1174.05,1378.63 1170.49,1378.72 1166.95,1378.81 1163.41,1378.9 1159.89,1378.98 1156.38,1379.07 1152.87,1379.15 1149.38,1379.24 
  1145.9,1379.32 1142.43,1379.4 1138.96,1379.48 1135.51,1379.56 1132.07,1379.64 1128.64,1379.72 1125.22,1379.8 1121.81,1379.87 1118.41,1379.95 1115.02,1380.02 
  1111.64,1380.09 1108.27,1380.17 1104.91,1380.24 1101.57,1380.31 1098.23,1380.38 1094.9,1380.44 1091.58,1380.51 1088.27,1380.58 1084.97,1380.64 1081.69,1380.71 
  1078.41,1380.77 1075.14,1380.83 1071.88,1380.9 1068.64,1380.96 1065.4,1381.02 1062.17,1381.08 1058.96,1381.14 1055.75,1381.2 1052.55,1381.25 1049.36,1381.31 
  1046.19,1381.37 1043.02,1381.42 1039.86,1381.47 1036.71,1381.53 1033.57,1381.58 1030.45,1381.63 1027.33,1381.69 1024.22,1381.74 1021.12,1381.79 1018.03,1381.84 
  1014.95,1381.88 1011.88,1381.93 1008.82,1381.98 1005.77,1382.03 1002.73,1382.07 999.696,1382.12 996.674,1382.16 993.662,1382.21 990.659,1382.25 987.666,1382.29 
  984.682,1382.34 981.708,1382.38 978.743,1382.42 975.788,1382.46 972.842,1382.5 969.905,1382.54 966.978,1382.58 964.06,1382.62 961.152,1382.65 958.252,1382.69 
  955.362,1382.73 952.482,1382.76 949.61,1382.8 946.748,1382.83 943.895,1382.87 941.051,1382.9 938.216,1382.94 935.39,1382.97 932.574,1383 929.766,1383.03 
  926.968,1383.06 924.178,1383.1 921.398,1383.13 918.626,1383.16 915.864,1383.19 913.11,1383.21 910.366,1383.24 907.63,1383.27 904.903,1383.3 902.185,1383.32 
  899.476,1383.35 896.775,1383.38 894.084,1383.4 891.401,1383.43 888.727,1383.45 886.061,1383.48 883.404,1383.5 880.756,1383.52 878.117,1383.55 875.486,1383.57 
  872.864,1383.59 870.25,1383.61 867.645,1383.64 865.048,1383.66 862.46,1383.68 859.88,1383.7 857.309,1383.72 854.746,1383.74 852.192,1383.75 849.646,1383.77 
  847.108,1383.79 844.579,1383.81 842.058,1383.83 839.545,1383.84 837.041,1383.86 834.545,1383.87 832.057,1383.89 829.577,1383.91 827.105,1383.92 824.642,1383.94 
  822.187,1383.95 819.739,1383.96 817.3,1383.98 814.869,1383.99 812.446,1384 810.031,1384.02 807.624,1384.03 805.225,1384.04 802.834,1384.05 800.451,1384.06 
  798.076,1384.07 795.708,1384.08 793.349,1384.09 790.997,1384.1 788.653,1384.11 786.317,1384.12 783.988,1384.13 781.668,1384.14 779.355,1384.14 777.05,1384.15 
  774.752,1384.16 772.462,1384.17 770.18,1384.17 767.905,1384.18 765.638,1384.19 763.379,1384.19 761.127,1384.2 758.882,1384.2 756.645,1384.21 754.416,1384.21 
  752.194,1384.21 749.979,1384.22 747.772,1384.22 745.572,1384.22 743.38,1384.23 741.194,1384.23 739.017,1384.23 736.846,1384.23 734.683,1384.24 732.527,1384.24 
  730.378,1384.24 728.236,1384.24 726.102,1384.24 723.975,1384.24 721.855,1384.24 719.742,1384.24 717.636,1384.24 715.537,1384.24 713.445,1384.23 711.361,1384.23 
  709.283,1384.23 707.212,1384.23 705.149,1384.23 703.092,1384.22 701.042,1384.22 698.999,1384.22 696.963,1384.21 694.934,1384.21 692.912,1384.2 690.896,1384.2 
  688.888,1384.19 686.886,1384.19 684.89,1384.18 682.902,1384.18 680.92,1384.17 678.945,1384.17 676.977,1384.16 675.015,1384.15 673.06,1384.14 671.112,1384.14 
  669.17,1384.13 667.235,1384.12 665.306,1384.11 663.384,1384.1 661.468,1384.1 659.559,1384.09 657.656,1384.08 655.76,1384.07 653.87,1384.06 651.987,1384.05 
  650.11,1384.04 648.239,1384.03 646.375,1384.01 644.517,1384 642.665,1383.99 640.82,1383.98 638.981,1383.97 637.148,1383.96 635.321,1383.94 633.501,1383.93 
  631.687,1383.92 629.879,1383.9 628.077,1383.89 626.281,1383.87 624.492,1383.86 622.708,1383.85 620.931,1383.83 619.159,1383.82 617.394,1383.8 615.635,1383.78 
  613.881,1383.77 612.134,1383.75 610.393,1383.74 608.657,1383.72 606.928,1383.7 605.204,1383.68 603.487,1383.67 601.775,1383.65 600.069,1383.63 598.369,1383.61 
  596.674,1383.59 594.986,1383.57 593.303,1383.55 591.626,1383.53 589.955,1383.51 588.289,1383.49 586.629,1383.47 584.975,1383.45 583.327,1383.43 581.684,1383.41 
  580.047,1383.39 578.415,1383.37 576.789,1383.35 575.168,1383.32 573.554,1383.3 571.944,1383.28 570.34,1383.25 568.742,1383.23 567.149,1383.21 565.562,1383.18 
  563.98,1383.16 562.404,1383.13 560.833,1383.11 559.267,1383.08 557.707,1383.06 556.152,1383.03 554.602,1383.01 553.058,1382.98 551.519,1382.95 549.986,1382.93 
  548.457,1382.9 546.934,1382.87 545.416,1382.84 543.904,1382.81 542.396,1382.79 540.894,1382.76 539.397,1382.73 537.905,1382.7 536.419,1382.67 534.937,1382.64 
  533.461,1382.61 531.989,1382.58 530.523,1382.55 529.062,1382.52 527.606,1382.49 526.154,1382.45 524.708,1382.42 523.267,1382.39 521.831,1382.36 520.4,1382.32 
  518.974,1382.29 517.552,1382.26 516.136,1382.22 514.724,1382.19 513.318,1382.15 511.916,1382.12 510.519,1382.08 509.127,1382.05 507.74,1382.01 506.357,1381.98 
  504.98,1381.94 503.607,1381.9 502.239,1381.87 500.875,1381.83 499.517,1381.79 498.163,1381.75 496.814,1381.72 495.469,1381.68 494.129,1381.64 492.794,1381.6 
  491.464,1381.56 490.138,1381.52 488.816,1381.48 487.499,1381.44 486.187,1381.4 484.88,1381.36 483.577,1381.31 482.278,1381.27 480.984,1381.23 479.695,1381.19 
  478.41,1381.14 477.129,1381.1 475.853,1381.06 474.581,1381.01 473.314,1380.97 472.051,1380.92 470.793,1380.88 469.539,1380.83 468.289,1380.79 467.044,1380.74 
  465.803,1380.7 464.566,1380.65 463.334,1380.6 462.106,1380.55 460.882,1380.51 459.663,1380.46 458.448,1380.41 457.237,1380.36 456.03,1380.31 454.828,1380.26 
  453.629,1380.21 452.435,1380.16 451.245,1380.11 450.06,1380.06 448.878,1380.01 447.701,1379.95 446.527,1379.9 445.358,1379.85 444.193,1379.8 443.032,1379.74 
  441.875,1379.69 440.722,1379.63 439.573,1379.58 438.428,1379.52 437.287,1379.47 436.151,1379.41 435.018,1379.36 433.889,1379.3 432.764,1379.24 431.643,1379.19 
  430.526,1379.13 429.413,1379.07 428.304,1379.01 427.199,1378.95 426.097,1378.89 425,1378.83 423.906,1378.77 422.816,1378.71 421.73,1378.65 420.648,1378.59 
  419.57,1378.53 418.495,1378.46 417.425,1378.4 416.358,1378.34 415.294,1378.27 414.235,1378.21 413.179,1378.14 412.127,1378.08 411.079,1378.01 410.034,1377.95 
  408.994,1377.88 407.956,1377.81 406.923,1377.75 405.893,1377.68 404.867,1377.61 403.844,1377.54 402.825,1377.47 401.81,1377.4 400.798,1377.33 399.79,1377.26 
  398.785,1377.19 397.784,1377.12 396.786,1377.05 395.792,1376.97 394.802,1376.9 393.815,1376.83 392.831,1376.75 391.852,1376.68 390.875,1376.6 389.902,1376.53 
  388.932,1376.45 387.966,1376.37 387.004,1376.3 386.044,1376.22 385.088,1376.14 384.136,1376.06 383.187,1375.98 382.241,1375.9 381.299,1375.82 380.36,1375.74 
  379.424,1375.66 378.492,1375.58 377.563,1375.5 376.638,1375.41 375.715,1375.33 374.796,1375.25 373.88,1375.16 372.968,1375.08 372.059,1374.99 371.153,1374.9 
  370.25,1374.82 369.35,1374.73 368.454,1374.64 367.561,1374.55 366.671,1374.46 365.784,1374.38 364.901,1374.29 364.02,1374.19 363.143,1374.1 362.269,1374.01 
  361.398,1373.92 360.53,1373.83 359.666,1373.73 358.804,1373.64 357.946,1373.54 357.09,1373.45 356.238,1373.35 355.389,1373.25 354.542,1373.16 353.699,1373.06 
  352.859,1372.96 352.022,1372.86 351.188,1372.76 350.357,1372.66 349.529,1372.56 348.704,1372.46 347.881,1372.35 347.062,1372.25 346.246,1372.15 345.433,1372.04 
  344.623,1371.94 343.815,1371.83 343.011,1371.72 342.209,1371.62 341.41,1371.51 340.615,1371.4 339.822,1371.29 339.032,1371.18 338.245,1371.07 337.46,1370.96 
  336.679,1370.85 335.9,1370.73 335.125,1370.62 334.352,1370.51 333.582,1370.39 332.814,1370.27 332.05,1370.16 331.288,1370.04 330.529,1369.92 329.773,1369.8 
  329.019,1369.68 328.269,1369.56 327.521,1369.44 326.775,1369.32 326.033,1369.2 325.293,1369.08 324.556,1368.95 323.822,1368.83 323.09,1368.7 322.361,1368.58 
  321.634,1368.45 320.911,1368.32 320.19,1368.19 319.471,1368.06 318.756,1367.93 318.042,1367.8 317.332,1367.67 316.624,1367.53 315.919,1367.4 315.216,1367.27 
  314.516,1367.13 313.818,1366.99 313.123,1366.86 312.431,1366.72 311.741,1366.58 311.054,1366.44 310.369,1366.3 309.687,1366.16 309.007,1366.02 308.33,1365.87 
  307.655,1365.73 306.983,1365.58 306.313,1365.44 305.646,1365.29 304.981,1365.14 304.319,1364.99 303.659,1364.84 303.002,1364.69 302.347,1364.54 301.695,1364.39 
  301.045,1364.24 300.397,1364.08 299.752,1363.93 299.109,1363.77 298.469,1363.61 297.831,1363.45 297.195,1363.29 296.562,1363.13 295.931,1362.97 295.303,1362.81 
  294.676,1362.65 294.053,1362.48 293.431,1362.32 292.812,1362.15 292.195,1361.98 291.581,1361.81 290.969,1361.64 290.359,1361.47 289.751,1361.3 289.146,1361.13 
  288.543,1360.95 287.942,1360.78 287.344,1360.6 286.748,1360.43 286.154,1360.25 285.562,1360.07 284.973,1359.89 284.386,1359.71 283.801,1359.52 283.218,1359.34 
  282.638,1359.15 282.059,1358.97 281.483,1358.78 280.909,1358.59 280.338,1358.4 279.768,1358.21 279.201,1358.02 278.636,1357.82 278.073,1357.63 277.512,1357.43 
  276.953,1357.24 276.397,1357.04 275.842,1356.84 275.29,1356.64 274.74,1356.44 274.192,1356.23 273.646,1356.03 273.102,1355.82 272.56,1355.62 272.021,1355.41 
  271.483,1355.2 270.948,1354.99 270.415,1354.77 269.883,1354.56 269.354,1354.34 268.827,1354.13 268.302,1353.91 267.779,1353.69 267.258,1353.47 266.739,1353.25 
  266.222,1353.03 265.707,1352.8 265.194,1352.58 264.683,1352.35 264.174,1352.12 263.667,1351.89 263.162,1351.66 262.659,1351.42 262.158,1351.19 261.659,1350.95 
  261.162,1350.72 260.667,1350.48 260.174,1350.24 259.683,1349.99 259.194,1349.75 258.707,1349.5 258.221,1349.26 257.738,1349.01 257.257,1348.76 256.777,1348.51 
  256.299,1348.26 255.824,1348 255.35,1347.75 254.878,1347.49 254.408,1347.23 253.94,1346.97 253.474,1346.71 253.009,1346.44 252.547,1346.18 252.086,1345.91 
  251.628,1345.64 251.171,1345.37 250.716,1345.09 250.263,1344.82 249.811,1344.54 249.362,1344.27 248.914,1343.99 248.468,1343.71 248.024,1343.42 247.582,1343.14 
  247.142,1342.85 246.703,1342.56 246.266,1342.27 245.831,1341.98 245.398,1341.69 244.967,1341.39 244.537,1341.1 244.109,1340.8 243.683,1340.49 243.259,1340.19 
  242.837,1339.89 242.416,1339.58 241.997,1339.27 241.58,1338.96 241.164,1338.65 240.75,1338.33 240.338,1338.02 239.928,1337.7 239.52,1337.38 239.113,1337.05 
  238.708,1336.73 238.304,1336.4 237.903,1336.07 237.503,1335.74 237.104,1335.41 236.708,1335.08 236.313,1334.74 235.92,1334.4 235.528,1334.06 235.139,1333.72 
  234.75,1333.37 234.364,1333.02 233.979,1332.67 233.596,1332.32 233.215,1331.97 232.835,1331.61 232.457,1331.25 232.08,1330.89 231.706,1330.53 231.332,1330.16 
  230.961,1329.79 230.591,1329.42 230.223,1329.05 229.856,1328.68 229.491,1328.3 229.128,1327.92 228.766,1327.54 228.406,1327.15 228.047,1326.77 227.69,1326.38 
  227.335,1325.99 226.981,1325.59 226.629,1325.2 226.278,1324.8 225.93,1324.39 225.582,1323.99 225.236,1323.58 224.892,1323.18 224.549,1322.76 224.208,1322.35 
  223.869,1321.93 223.531,1321.51 223.195,1321.09 222.86,1320.67 222.527,1320.24 222.195,1319.81 221.865,1319.38 221.536,1318.94 221.209,1318.5 220.883,1318.06 
  220.559,1317.62 220.237,1317.17 219.916,1316.72 219.597,1316.27 219.279,1315.81 218.962,1315.36 218.648,1314.9 218.334,1314.43 218.022,1313.97 217.712,1313.5 
  217.403,1313.02 217.096,1312.55 216.79,1312.07 216.486,1311.59 216.183,1311.1 215.882,1310.62 215.582,1310.13 215.284,1309.63 214.987,1309.14 214.692,1308.64 
  214.398,1308.13 214.105,1307.63 213.815,1307.12 213.525,1306.61 213.237,1306.09 212.951,1305.57 212.666,1305.05 212.382,1304.52 212.1,1303.99 211.819,1303.46 
  211.54,1302.93 211.263,1302.39 210.986,1301.85 210.712,1301.3 210.438,1300.75 210.166,1300.2 209.896,1299.64 209.627,1299.08 209.359,1298.52 209.093,1297.95 
  208.828,1297.38 208.565,1296.81 208.303,1296.23 208.043,1295.65 207.784,1295.07 207.527,1294.48 207.27,1293.89 207.016,1293.29 206.763,1292.69 206.511,1292.09 
  206.26,1291.48 206.011,1290.87 205.764,1290.26 205.518,1289.64 205.273,1289.02 205.03,1288.39 204.788,1287.76 204.547,1287.13 204.308,1286.49 204.07,1285.85 
  203.834,1285.2 203.599,1284.55 203.366,1283.9 203.134,1283.24 202.903,1282.58 202.674,1281.91 202.446,1281.24 202.22,1280.57 201.995,1279.89 201.771,1279.2 
  201.549,1278.52 201.328,1277.82 201.109,1277.13 200.891,1276.43 200.674,1275.72 200.459,1275.01 200.245,1274.3 200.032,1273.58 199.821,1272.86 199.612,1272.13 
  199.403,1271.4 199.196,1270.66 198.991,1269.92 198.787,1269.17 198.584,1268.42 198.383,1267.67 198.183,1266.91 197.984,1266.14 197.787,1265.37 197.591,1264.6 
  197.397,1263.82 197.204,1263.04 197.012,1262.25 196.822,1261.45 196.633,1260.65 196.446,1259.85 196.26,1259.04 196.075,1258.23 195.892,1257.41 195.71,1256.58 
  195.53,1255.75 195.351,1254.92 195.173,1254.08 194.997,1253.23 194.822,1252.38 194.648,1251.53 194.476,1250.67 194.306,1249.8 194.136,1248.93 193.968,1248.05 
  193.802,1247.17 193.637,1246.28 193.473,1245.39 193.311,1244.49 193.15,1243.58 192.991,1242.67 192.833,1241.76 192.676,1240.83 192.521,1239.91 192.367,1238.97 
  192.214,1238.03 192.063,1237.09 191.914,1236.14 191.766,1235.18 191.619,1234.22 191.473,1233.25 191.33,1232.27 191.187,1231.29 191.046,1230.3 190.906,1229.31 
  190.768,1228.31 190.631,1227.31 190.496,1226.29 190.362,1225.27 190.23,1224.25 190.099,1223.22 189.969,1222.18 189.841,1221.14 189.714,1220.09 189.589,1219.03 
  189.465,1217.97 189.343,1216.9 189.222,1215.82 189.103,1214.74 188.985,1213.65 188.869,1212.55 188.754,1211.44 188.64,1210.33 188.528,1209.22 188.418,1208.09 
  188.309,1206.96 188.201,1205.82 188.095,1204.68 187.991,1203.52 187.888,1202.36 187.786,1201.2 187.686,1200.02 187.588,1198.84 187.491,1197.65 187.395,1196.46 
  187.301,1195.25 187.209,1194.04 187.118,1192.82 187.029,1191.6 186.941,1190.37 186.855,1189.12 186.77,1187.88 186.687,1186.62 186.606,1185.35 186.526,1184.08 
  186.447,1182.8 186.371,1181.52 186.295,1180.22 186.222,1178.92 186.15,1177.6 186.079,1176.28 186.011,1174.96 185.943,1173.62 185.878,1172.28 185.814,1170.92 
  185.752,1169.56 185.691,1168.19 185.632,1166.82 185.575,1165.43 185.519,1164.04 185.465,1162.63 185.413,1161.22 185.362,1159.8 185.313,1158.37 185.266,1156.94 
  185.221,1155.49 185.177,1154.03 185.135,1152.57 185.094,1151.1 185.056,1149.61 185.019,1148.12 184.984,1146.62 184.95,1145.11 184.919,1143.6 184.889,1142.07 
  184.861,1140.53 184.835,1138.98 184.811,1137.43 184.788,1135.86 184.767,1134.29 184.749,1132.7 184.732,1131.11 184.716,1129.51 184.703,1127.89 184.692,1126.27 
  184.682,1124.64 184.675,1122.99 184.669,1121.34 184.665,1119.68 184.663,1118 184.663,1116.32 184.665,1114.63 184.669,1112.93 184.675,1111.21 184.683,1109.49 
  184.694,1107.75 184.706,1106.01 184.72,1104.25 184.736,1102.49 184.754,1100.71 184.774,1098.92 184.797,1097.13 184.821,1095.32 184.848,1093.5 184.876,1091.67 
  184.907,1089.83 184.94,1087.98 184.975,1086.11 185.013,1084.24 185.052,1082.35 185.094,1080.46 185.138,1078.55 185.185,1076.63 185.233,1074.7 185.284,1072.76 
  185.337,1070.8 185.393,1068.84 185.451,1066.86 185.511,1064.87 185.573,1062.87 185.638,1060.86 185.706,1058.84 185.776,1056.8 185.848,1054.75 185.923,1052.69 
  186,1050.62 186.08,1048.54 186.162,1046.44 186.247,1044.33 186.334,1042.21 186.424,1040.08 186.517,1037.93 186.612,1035.77 186.71,1033.6 186.811,1031.42 
  186.914,1029.22 187.02,1027.01 187.129,1024.79 187.241,1022.55 187.355,1020.3 187.472,1018.04 187.593,1015.77 187.716,1013.48 187.842,1011.18 187.97,1008.87 
  188.102,1006.54 188.237,1004.2 188.375,1001.85 188.516,999.481 188.66,997.1 188.807,994.705 188.957,992.297 189.111,989.876 189.267,987.44 189.427,984.991 
  189.591,982.527 189.757,980.05 189.927,977.559 190.1,975.053 190.276,972.534 190.456,970 190.64,967.452 190.827,964.89 191.017,962.313 191.212,959.722 
  191.409,957.116 191.611,954.496 191.816,951.861 192.025,949.212 192.237,946.548 192.454,943.869 192.674,941.175 192.898,938.466 193.126,935.743 193.358,933.004 
  193.594,930.251 193.835,927.482 194.079,924.698 194.328,921.899 194.58,919.085 194.837,916.255 195.099,913.41 195.364,910.549 195.634,907.674 195.909,904.782 
  196.188,901.875 196.472,898.953 196.76,896.014 197.053,893.06 197.35,890.091 197.653,887.105 197.96,884.104 198.273,881.087 198.59,878.053 198.912,875.004 
  199.239,871.939 199.572,868.858 199.909,865.76 200.252,862.647 200.601,859.517 200.954,856.371 201.314,853.209 201.678,850.031 202.049,846.836 202.425,843.625 
  202.807,840.397 203.194,837.153 203.588,833.893 203.987,830.616 204.393,827.323 204.805,824.013 205.223,820.686 205.647,817.343 206.078,813.983 206.515,810.607 
  206.959,807.214 207.409,803.804 207.866,800.377 208.33,796.934 208.801,793.474 209.279,789.998 209.764,786.504 210.257,782.994 210.756,779.467 211.263,775.923 
  211.778,772.363 212.3,768.785 212.829,765.191 213.367,761.58 213.913,757.953 214.466,754.308 215.028,750.647 215.598,746.969 216.176,743.274 216.763,739.563 
  217.359,735.834 217.963,732.089 218.577,728.328 219.199,724.549 219.83,720.755 220.471,716.943 221.121,713.115 221.781,709.27 222.45,705.409 223.129,701.532 
  223.818,697.638 224.518,693.727 225.227,689.801 225.947,685.858 226.678,681.899 227.419,677.923 228.171,673.932 228.935,669.924 229.709,665.901 230.495,661.862 
  231.292,657.807 232.102,653.736 232.923,649.65 233.756,645.548 234.602,641.43 235.46,637.297 236.331,633.149 237.214,628.986 238.111,624.808 239.021,620.615 
  239.944,616.407 240.882,612.184 241.833,607.947 242.798,603.696 243.777,599.43 244.772,595.15 245.781,590.856 246.805,586.548 247.844,582.227 248.899,577.892 
  249.969,573.544 251.056,569.182 252.159,564.808 253.278,560.421 254.415,556.021 255.568,551.609 256.739,547.185 257.927,542.749 259.133,538.301 260.358,533.842 
  261.601,529.371 262.862,524.89 264.143,520.397 265.444,515.895 266.764,511.382 268.104,506.859 269.464,502.326 270.846,497.785 272.248,493.234 273.672,488.674 
  275.117,484.106 276.585,479.53 278.075,474.946 279.588,470.355 281.125,465.756 282.685,461.151 284.269,456.54 285.877,451.922 287.51,447.3 289.169,442.672 
  290.853,438.039 292.563,433.402 294.3,428.761 296.064,424.117 297.855,419.47 299.674,414.821 301.522,410.169 303.398,405.516 305.304,400.863 307.239,396.208 
  309.205,391.554 311.201,386.9 313.229,382.248 315.289,377.597 317.381,372.949 319.506,368.304 321.665,363.662 323.857,359.025 326.084,354.392 328.347,349.765 
  330.645,345.144 332.98,340.53 335.351,335.924 337.76,331.325 340.208,326.736 342.694,322.157 345.22,317.588 347.786,313.03 350.393,308.485 353.041,303.952 
  355.731,299.434 358.465,294.93 361.242,290.441 364.063,285.969 366.929,281.514 369.842,277.077 372.8,272.659 375.806,268.261 378.86,263.885 381.963,259.53 
  385.116,255.198 388.319,250.891 391.573,246.609 394.879,242.352 398.238,238.124 401.651,233.923 405.118,229.752 408.641,225.612 412.22,221.503 415.857,217.428 
  419.551,213.386 423.305,209.38 427.118,205.411 430.992,201.48 434.928,197.588 438.926,193.736 442.988,189.926 447.115,186.159 451.307,182.437 455.566,178.761 
  459.892,175.132 464.286,171.552 468.75,168.022 473.284,164.543 477.89,161.118 482.568,157.747 487.32,154.432 492.146,151.175 497.047,147.977 502.025,144.84 
  507.08,141.765 512.214,138.753 517.427,135.808 522.721,132.929 528.096,130.119 533.554,127.379 539.096,124.712 544.722,122.118 550.434,119.599 556.232,117.158 
  562.118,114.795 568.093,112.513 574.157,110.313 580.312,108.197 586.558,106.167 592.897,104.224 599.329,102.37 605.856,100.608 612.478,98.9376 619.196,97.3619 
  626.011,95.8824 632.925,94.5008 639.937,93.2188 647.048,92.0383 654.26,90.9609 661.573,89.9883 668.988,89.1224 676.505,88.3647 684.126,87.7169 691.851,87.1808 
  699.68,86.758 707.614,86.4501 715.654,86.2588 723.8,86.1857 732.053,86.2322 740.412,86.4001 748.879,86.6907 757.454,87.1056 766.137,87.6463 774.928,88.3141 
  783.827,89.1104 792.834,90.0366 801.951,91.094 811.175,92.2839 820.508,93.6074 829.95,95.0656 839.499,96.6599 849.156,98.3911 858.921,100.26 868.793,102.268 
  878.771,104.416 888.855,106.705 899.045,109.135 909.339,111.707 919.737,114.422 930.239,117.28 940.842,120.281 951.546,123.427 962.35,126.717 973.252,130.152 
  984.252,133.732 995.347,137.457 1006.54,141.326 1017.82,145.341 1029.19,149.499 1040.66,153.803 1052.21,158.25 1063.84,162.841 1075.56,167.574 1087.36,172.45 
  1099.24,177.468 1111.2,182.626 1123.23,187.924 1135.33,193.36 1147.5,198.934 1159.73,204.644 1172.03,210.49 1184.39,216.469 1196.81,222.579 1209.28,228.82 
  1221.81,235.19 1234.38,241.686 1246.99,248.308 1259.65,255.052 1272.34,261.917 1285.07,268.9 1297.83,275.999 1310.62,283.212 1323.42,290.537 1336.25,297.97 
  1349.09,305.51 1361.95,313.153 1374.81,320.896 1387.67,328.737 1400.54,336.673 1413.39,344.701 1426.24,352.818 1439.08,361.02 1451.9,369.305 1464.69,377.668 
  1477.46,386.108 1490.2,394.62 1502.91,403.202 1515.57,411.849 1528.19,420.558 1540.77,429.326 1553.29,438.15 1565.76,447.025 1578.17,455.949 1590.51,464.917 
  1602.78,473.926 1614.99,482.973 1627.11,492.054 1639.15,501.165 1651.11,510.303 1662.99,519.464 1674.77,528.645 1686.45,537.843 1698.03,547.052 1709.51,556.272 
  1720.88,565.497 1732.14,574.724 1743.29,583.951 1754.32,593.173 1765.23,602.387 1776.02,611.591 1786.68,620.782 1797.21,629.955 1807.6,639.108 1817.87,648.237 
  1827.99,657.341 1837.97,666.416 1847.81,675.46 1857.51,684.469 1867.06,693.44 1876.46,702.372 1885.7,711.262 1894.8,720.108 1903.74,728.906 1912.52,737.655 
  1921.14,746.352 1929.6,754.996 1937.91,763.584 1946.05,772.114 1954.02,780.585 1961.83,788.995 1969.48,797.341 1976.96,805.622 1984.28,813.838 1991.42,821.985 
  1998.4,830.063 2005.21,838.07 2011.85,846.006 2018.33,853.869 2024.63,861.657 2030.77,869.371 2036.74,877.008 2042.54,884.568 2048.17,892.051 2053.63,899.455 
  2058.93,906.779 2064.06,914.024 2069.02,921.189 2073.82,928.272 2078.46,935.275 2082.93,942.196 2087.24,949.035 2091.38,955.792 2095.37,962.466 2099.19,969.059 
  2102.86,975.568 2106.37,981.996 2109.72,988.341 2112.92,994.603 2115.97,1000.78 2118.86,1006.88 2121.6,1012.9 2124.2,1018.83 2126.64,1024.69 2128.94,1030.46 
  2131.09,1036.15 2133.11,1041.76 2134.98,1047.3 2136.71,1052.75 2138.3,1058.12 2139.76,1063.42 2141.08,1068.64 2142.27,1073.78 2143.32,1078.84 2144.25,1083.83 
  2145.05,1088.74 2145.73,1093.58 2146.28,1098.35 2146.71,1103.04 2147.01,1107.66 2147.2,1112.2 2147.28,1116.68 2147.23,1121.08 2147.08,1125.42 2146.81,1129.69 
  2146.44,1133.89 2145.95,1138.02 2145.36,1142.08 2144.67,1146.08 2143.87,1150.02 2142.98,1153.89 2141.98,1157.7 2140.89,1161.44 2139.7,1165.13 2138.42,1168.75 
  2137.05,1172.31 2135.59,1175.82 2134.04,1179.26 2132.4,1182.65 2130.68,1185.98 2128.87,1189.26 2126.98,1192.48 2125.02,1195.64 2122.97,1198.76 2120.85,1201.82 
  2118.65,1204.82 2116.38,1207.78 2114.03,1210.69 2111.62,1213.54 2109.14,1216.35 2106.59,1219.11 2103.97,1221.83 2101.29,1224.49 2098.54,1227.11 2095.74,1229.69 
  2092.87,1232.22 2089.94,1234.71 2086.96,1237.15 2083.92,1239.56 2080.83,1241.92 2077.68,1244.24 2074.48,1246.52 2071.22,1248.76 2067.92,1250.96 2064.57,1253.13 
  2061.17,1255.26 2057.73,1257.35 2054.24,1259.4 2050.7,1261.42 2047.12,1263.4 2043.51,1265.35 2039.85,1267.27 2036.15,1269.15 2032.41,1271 2028.63,1272.82 
  2024.82,1274.6 2020.97,1276.36 2017.09,1278.08 2013.18,1279.78 2009.23,1281.45 2005.25,1283.08 2001.24,1284.69 1997.2,1286.27 1993.13,1287.83 1989.03,1289.36 
  1984.91,1290.86 1980.76,1292.33 1976.58,1293.78 1972.38,1295.21 1968.15,1296.61 1963.9,1297.99 1959.63,1299.34 1955.34,1300.67 1951.03,1301.98 1946.69,1303.26 
  1942.34,1304.53 1937.96,1305.77 1933.57,1306.99 1929.16,1308.19 1924.74,1309.37 1920.3,1310.53 1915.84,1311.67 1911.37,1312.79 1906.88,1313.89 1902.38,1314.98 
  1897.87,1316.04 1893.34,1317.09 1888.8,1318.12 1884.25,1319.13 1879.69,1320.13 1875.12,1321.11 1870.53,1322.07 1865.94,1323.02 1861.34,1323.95 1856.73,1324.86 
  1852.11,1325.76 1847.49,1326.65 1842.86,1327.52 1838.22,1328.38 1833.57,1329.22 1828.92,1330.05 1824.26,1330.86 1819.6,1331.67 1814.94,1332.45 1810.26,1333.23 
  1805.59,1333.99 1800.91,1334.74 1796.23,1335.48 1791.54,1336.21 1786.86,1336.93 1782.17,1337.63 1777.48,1338.32 1772.78,1339 1768.09,1339.67 1763.4,1340.33 
  1758.7,1340.98 1754.01,1341.62 1749.31,1342.25 1744.61,1342.87 1739.92,1343.47 1735.23,1344.07 1730.53,1344.66 1725.84,1345.24 1721.15,1345.82 1716.46,1346.38 
  1711.78,1346.93 1707.1,1347.48 1702.42,1348.01 1697.74,1348.54 1693.06,1349.06 1688.39,1349.57 1683.72,1350.08 1679.06,1350.57 1674.4,1351.06 1669.74,1351.54 
  1665.09,1352.01 1660.44,1352.48 1655.8,1352.94 1651.16,1353.39 1646.52,1353.84 1641.9,1354.28 1637.27,1354.71 1632.66,1355.13 1628.04,1355.55 1623.44,1355.96 
  1618.84,1356.37 1614.24,1356.77 1609.66,1357.17 1605.07,1357.55 1600.5,1357.94 1595.93,1358.31 1591.37,1358.69 1586.81,1359.05 1582.27,1359.41 1577.73,1359.77 
  1573.19,1360.12 1568.67,1360.46 1564.15,1360.8 1559.64,1361.14 1555.13,1361.47 1550.64,1361.79 1546.15,1362.11 1541.67,1362.43 1537.2,1362.74 1532.74,1363.05 
  1528.28,1363.35 1523.84,1363.65 1519.4,1363.94 1514.97,1364.23 1510.55,1364.51 1506.14,1364.8 1501.73,1365.07 1497.34,1365.35 1492.95,1365.61 1488.58,1365.88 
  1484.21,1366.14 1479.85,1366.4 1475.5,1366.65 1471.16,1366.91 1466.83,1367.15 1462.51,1367.4 1458.2,1367.64 1453.89,1367.87 1449.6,1368.11 1445.32,1368.34 
  1441.05,1368.57 1436.78,1368.79 1432.53,1369.01 1428.28,1369.23 1424.05,1369.45 1419.82,1369.66 1415.61,1369.87 1411.4,1370.07 1407.21,1370.28 1403.02,1370.48 
  1398.85,1370.68 1394.68,1370.87 1390.53,1371.06 1386.38,1371.25 1382.25,1371.44 1378.12,1371.63 1374.01,1371.81 1369.91,1371.99 1365.81,1372.17 1361.73,1372.34 
  1357.66,1372.51 1353.59,1372.69 1349.54,1372.85 1345.5,1373.02 1341.47,1373.18 1337.45,1373.34 1333.44,1373.5 1329.44,1373.66 1325.45,1373.82 1321.47,1373.97 
  1317.5,1374.12 1313.54,1374.27 1309.59,1374.42 1305.66,1374.56 1301.73,1374.71 1297.81,1374.85 1293.91,1374.99 1290.01,1375.13 1286.13,1375.26 1282.25,1375.4 
  1278.39,1375.53 1274.54,1375.66 1270.7,1375.79 1266.86,1375.92 1263.04,1376.04 1259.23,1376.17 1255.43,1376.29 1251.64,1376.41 1247.87,1376.53 1244.1,1376.65 
  1240.34,1376.76 1236.59,1376.88 1232.86,1376.99 1229.13,1377.1 1225.42,1377.21 1221.71,1377.32 1218.02,1377.43 1214.34,1377.53 1210.66,1377.64 1207,1377.74 
  1203.35,1377.84 1199.71,1377.95 1196.08,1378.05 1192.46,1378.14 1188.85,1378.24 1185.25,1378.34 1181.66,1378.43 1178.08,1378.52 1174.52,1378.62 1170.96,1378.71 
  1167.41,1378.8 1163.88,1378.88 1160.35,1378.97 1156.84,1379.06 1153.33,1379.14 1149.84,1379.23 1146.35,1379.31 1142.88,1379.39 1139.42,1379.47 1135.96,1379.55 
  1132.52,1379.63 1129.09,1379.71 1125.67,1379.79 1122.26,1379.86 1118.86,1379.94 1115.46,1380.01 1112.08,1380.08 1108.71,1380.16 1105.35,1380.23 1102,1380.3 
  1098.66,1380.37 1095.33,1380.43 1092.02,1380.5 1088.71,1380.57 1085.41,1380.63 1082.12,1380.7 1078.84,1380.76 1075.57,1380.83 1072.31,1380.89 1069.06,1380.95 
  1065.82,1381.01 1062.6,1381.07 1059.38,1381.13 1056.17,1381.19 1052.97,1381.25 1049.78,1381.3 1046.6,1381.36 1043.43,1381.41 1040.27,1381.47 1037.12,1381.52 
  1033.98,1381.57 1030.85,1381.63 1027.73,1381.68 1024.62,1381.73 1021.52,1381.78 1018.43,1381.83 1015.35,1381.88 1012.28,1381.93 1009.22,1381.97 1006.17,1382.02 
  1003.13,1382.07 1000.09,1382.11 997.07,1382.16 994.056,1382.2 991.052,1382.25 988.058,1382.29 985.073,1382.33 982.097,1382.37 979.131,1382.41 976.175,1382.45 
  973.228,1382.49 970.29,1382.53 967.361,1382.57 964.442,1382.61 961.532,1382.65 958.632,1382.69 955.741,1382.72 952.859,1382.76 949.986,1382.79 947.123,1382.83 
  944.268,1382.86 941.423,1382.9 938.587,1382.93 935.76,1382.96 932.942,1383 930.134,1383.03 927.334,1383.06 924.544,1383.09 921.762,1383.12 918.989,1383.15 
  916.226,1383.18 913.471,1383.21 910.725,1383.24 907.988,1383.27 905.26,1383.29 902.541,1383.32 899.831,1383.35 897.129,1383.37 894.436,1383.4 891.752,1383.42 
  889.077,1383.45 886.41,1383.47 883.752,1383.5 881.103,1383.52 878.462,1383.54 875.83,1383.57 873.207,1383.59 870.592,1383.61 867.986,1383.63 865.388,1383.65 
  862.799,1383.67 860.218,1383.69 857.646,1383.71 855.082,1383.73 852.526,1383.75 849.979,1383.77 847.441,1383.79 844.91,1383.81 842.388,1383.82 839.874,1383.84 
  837.369,1383.86 834.872,1383.87 832.383,1383.89 829.902,1383.9 827.429,1383.92 824.965,1383.93 822.508,1383.95 820.06,1383.96 817.62,1383.98 815.188,1383.99 
  812.763,1384 810.347,1384.01 807.939,1384.03 805.539,1384.04 803.147,1384.05 800.763,1384.06 798.387,1384.07 796.018,1384.08 793.657,1384.09 791.305,1384.1 
  788.96,1384.11 786.623,1384.12 784.293,1384.13 781.972,1384.14 779.658,1384.14 777.351,1384.15 775.053,1384.16 772.762,1384.17 770.479,1384.17 768.203,1384.18 
  765.935,1384.18 763.674,1384.19 761.421,1384.2 759.176,1384.2 756.938,1384.21 754.708,1384.21 752.485,1384.21 750.269,1384.22 748.061,1384.22 745.86,1384.22 
  743.667,1384.23 741.48,1384.23 739.302,1384.23 737.13,1384.23 734.966,1384.23 732.809,1384.24 730.659,1384.24 728.517,1384.24 726.382,1384.24 724.253,1384.24 
  722.132,1384.24 720.018,1384.24 717.912,1384.24 715.812,1384.24 713.719,1384.23 711.634,1384.23 709.555,1384.23 707.484,1384.23 705.419,1384.23 703.361,1384.22 
  701.311,1384.22 699.267,1384.22 697.23,1384.21 695.2,1384.21 693.176,1384.2 691.16,1384.2 689.15,1384.19 687.148,1384.19 685.152,1384.18 683.162,1384.18 
  681.18,1384.17 679.204,1384.17 677.235,1384.16 675.272,1384.15 673.316,1384.15 671.367,1384.14 669.424,1384.13 667.488,1384.12 665.559,1384.11 663.635,1384.11 
  661.719,1384.1 659.809,1384.09 657.905,1384.08 656.008,1384.07 654.118,1384.06 652.233,1384.05 650.356,1384.04 648.484,1384.03 646.619,1384.02 644.76,1384 
  642.908,1383.99 641.062,1383.98 639.222,1383.97 637.388,1383.96 635.561,1383.94 633.739,1383.93 631.924,1383.92 630.116,1383.9 628.313,1383.89 626.516,1383.88 
  624.726,1383.86 622.942,1383.85 621.163,1383.83 619.391,1383.82 617.625,1383.8 615.865,1383.79 614.111,1383.77 612.363,1383.75 610.621,1383.74 608.885,1383.72 
  607.154,1383.7 605.43,1383.69 603.711,1383.67 601.999,1383.65 600.292,1383.63 598.591,1383.61 596.896,1383.59 595.207,1383.58 593.523,1383.56 591.845,1383.54 
  590.173,1383.52 588.507,1383.5 586.847,1383.48 585.192,1383.46 583.542,1383.43 581.899,1383.41 580.261,1383.39 578.629,1383.37 577.002,1383.35 575.381,1383.33 
  573.765,1383.3 572.155,1383.28 570.55,1383.26 568.951,1383.23 567.358,1383.21 565.77,1383.19 564.187,1383.16 562.61,1383.14 561.038,1383.11 559.472,1383.09 
  557.911,1383.06 556.355,1383.03 554.805,1383.01 553.26,1382.98 551.721,1382.96 550.186,1382.93 548.657,1382.9 547.134,1382.87 545.615,1382.85 544.102,1382.82 
  542.594,1382.79 541.091,1382.76 539.593,1382.73 538.101,1382.7 536.613,1382.67 535.131,1382.64 533.654,1382.61 532.182,1382.58 530.715,1382.55 529.253,1382.52 
  527.796,1382.49 526.344,1382.46 524.898,1382.43 523.456,1382.39 522.019,1382.36 520.587,1382.33 519.16,1382.29 517.738,1382.26 516.321,1382.23 514.909,1382.19 
  513.502,1382.16 512.099,1382.12 510.702,1382.09 509.309,1382.05 507.921,1382.02 506.538,1381.98 505.16,1381.95 503.787,1381.91 502.418,1381.87 501.054,1381.83 
  499.695,1381.8 498.34,1381.76 496.99,1381.72 495.645,1381.68 494.305,1381.64 492.969,1381.6 491.638,1381.56 490.311,1381.52 488.989,1381.48 487.672,1381.44 
  486.359,1381.4 485.051,1381.36 483.747,1381.32 482.448,1381.28 481.153,1381.24 479.863,1381.19 478.578,1381.15 477.297,1381.11 476.02,1381.06 474.748,1381.02 
  473.48,1380.98 472.217,1380.93 470.958,1380.89 469.703,1380.84 468.453,1380.79 467.207,1380.75 465.965,1380.7 464.728,1380.66 463.495,1380.61 462.267,1380.56 
  461.042,1380.51 459.823,1380.46 458.607,1380.42 457.395,1380.37 456.188,1380.32 454.985,1380.27 453.786,1380.22 452.592,1380.17 451.401,1380.12 450.215,1380.07 
  449.033,1380.01 447.855,1379.96 446.681,1379.91 445.511,1379.86 444.345,1379.8 443.184,1379.75 442.026,1379.7 440.873,1379.64 439.723,1379.59 438.578,1379.53 
  437.437,1379.48 436.299,1379.42 435.166,1379.36 434.037,1379.31 432.911,1379.25 431.79,1379.19 430.672,1379.14 429.559,1379.08 428.449,1379.02 427.343,1378.96 
  426.241,1378.9 425.143,1378.84 424.049,1378.78 422.959,1378.72 421.872,1378.66 420.79,1378.6 419.711,1378.53 418.636,1378.47 417.565,1378.41 416.497,1378.35 
  415.434,1378.28 414.374,1378.22 413.317,1378.15 412.265,1378.09 411.216,1378.02 410.171,1377.96 409.13,1377.89 408.092,1377.82 407.058,1377.75 406.028,1377.69 
  405.001,1377.62 403.978,1377.55 402.958,1377.48 401.943,1377.41 400.93,1377.34 399.922,1377.27 398.917,1377.2 397.915,1377.13 396.917,1377.05 395.923,1376.98 
  394.932,1376.91 393.944,1376.84 392.96,1376.76 391.98,1376.69 391.003,1376.61 390.029,1376.54 389.059,1376.46 388.093,1376.38 387.13,1376.31 386.17,1376.23 
  385.214,1376.15 384.261,1376.07 383.311,1375.99 382.365,1375.91 381.422,1375.83 380.483,1375.75 379.547,1375.67 378.614,1375.59 377.685,1375.51 376.759,1375.42 
  375.836,1375.34 374.916,1375.26 374,1375.17 373.087,1375.09 372.178,1375 371.271,1374.92 370.368,1374.83 369.468,1374.74 368.571,1374.65 367.678,1374.57 
  366.788,1374.48 365.9,1374.39 365.016,1374.3 364.136,1374.21 363.258,1374.11 362.384,1374.02 361.512,1373.93 360.644,1373.84 359.779,1373.74 358.917,1373.65 
  358.058,1373.55 357.202,1373.46 356.349,1373.36 355.5,1373.27 354.653,1373.17 353.81,1373.07 352.969,1372.97 352.132,1372.87 351.297,1372.77 350.466,1372.67 
  349.637,1372.57 348.812,1372.47 347.989,1372.37 347.17,1372.26 346.353,1372.16 345.539,1372.06 344.729,1371.95 343.921,1371.84 343.116,1371.74 342.314,1371.63 
  341.515,1371.52 340.719,1371.41 339.926,1371.3 339.135,1371.19 338.348,1371.08 337.563,1370.97 336.781,1370.86 336.002,1370.75 335.226,1370.63 334.453,1370.52 
  333.682,1370.41 332.915,1370.29 332.15,1370.17 331.388,1370.06 330.628,1369.94 329.872,1369.82 329.118,1369.7 328.367,1369.58 327.619,1369.46 326.873,1369.34 
  326.13,1369.22 325.39,1369.09 324.652,1368.97 323.918,1368.84 323.186,1368.72 322.456,1368.59 321.73,1368.46 321.006,1368.34 320.284,1368.21 319.565,1368.08 
  318.849,1367.95 318.136,1367.82 317.425,1367.69 316.717,1367.55 316.011,1367.42 315.308,1367.28 314.608,1367.15 313.91,1367.01 313.214,1366.88 312.522,1366.74 
  311.831,1366.6 311.144,1366.46 310.459,1366.32 309.776,1366.18 309.096,1366.03 308.419,1365.89 307.744,1365.75 307.071,1365.6 306.401,1365.46 305.734,1365.31 
  305.068,1365.16 304.406,1365.01 303.746,1364.86 303.088,1364.71 302.433,1364.56 301.78,1364.41 301.13,1364.26 300.482,1364.1 299.836,1363.95 299.193,1363.79 
  298.553,1363.63 297.914,1363.47 297.278,1363.31 296.645,1363.15 296.014,1362.99 295.385,1362.83 294.758,1362.67 294.134,1362.5 293.513,1362.34 292.893,1362.17 
  292.276,1362 291.661,1361.84 291.049,1361.67 290.439,1361.5 289.831,1361.32 289.225,1361.15 288.622,1360.98 288.021,1360.8 287.422,1360.63 286.826,1360.45 
  286.232,1360.27 285.64,1360.09 285.05,1359.91 284.463,1359.73 283.877,1359.55 283.294,1359.36 282.714,1359.18 282.135,1358.99 281.559,1358.8 280.985,1358.62 
  280.413,1358.43 279.843,1358.24 279.275,1358.04 278.71,1357.85 278.146,1357.66 277.585,1357.46 277.026,1357.26 276.47,1357.06 275.915,1356.87 275.362,1356.66 
  274.812,1356.46 274.264,1356.26 273.717,1356.06 273.173,1355.85 272.631,1355.64 272.091,1355.43 271.554,1355.22 271.018,1355.01 270.484,1354.8 269.953,1354.59 
  269.423,1354.37 268.896,1354.16 268.37,1353.94 267.847,1353.72 267.326,1353.5 266.807,1353.28 266.289,1353.06 265.774,1352.83 265.261,1352.61 264.75,1352.38 
  264.241,1352.15 263.733,1351.92 263.228,1351.69 262.725,1351.45 262.224,1351.22 261.725,1350.98 261.227,1350.75 260.732,1350.51 260.239,1350.27 259.747,1350.03 
  259.258,1349.78 258.77,1349.54 258.285,1349.29 257.801,1349.04 257.32,1348.79 256.84,1348.54 256.362,1348.29 255.886,1348.03 255.412,1347.78 254.94,1347.52 
  254.47,1347.26 254.001,1347 253.535,1346.74 253.07,1346.48 252.607,1346.21 252.147,1345.94 251.688,1345.67 251.231,1345.4 250.775,1345.13 250.322,1344.86 
  249.87,1344.58 249.421,1344.3 248.973,1344.02 248.527,1343.74 248.082,1343.46 247.64,1343.18 247.199,1342.89 246.76,1342.6 246.323,1342.31 245.888,1342.02 
  245.455,1341.73 245.023,1341.43 244.593,1341.13 244.165,1340.84 243.739,1340.53 243.315,1340.23 242.892,1339.93 242.471,1339.62 242.052,1339.31 241.634,1339 
  241.218,1338.69 240.804,1338.37 240.392,1338.06 239.982,1337.74 239.573,1337.42 239.166,1337.1 238.761,1336.77 238.357,1336.45 237.955,1336.12 237.555,1335.79 
  237.157,1335.45 236.76,1335.12 236.365,1334.78 235.971,1334.44 235.58,1334.1 235.19,1333.76 234.801,1333.42 234.415,1333.07 234.03,1332.72 233.646,1332.37 
  233.265,1332.01 232.885,1331.66 232.506,1331.3 232.13,1330.94 231.755,1330.57 231.381,1330.21 231.01,1329.84 230.639,1329.47 230.271,1329.1 229.904,1328.73 
  229.539,1328.35 229.175,1327.97 228.813,1327.59 228.453,1327.2 228.094,1326.82 227.737,1326.43 227.381,1326.04 227.027,1325.64 226.675,1325.25 226.324,1324.85 
  225.975,1324.45 225.628,1324.04 225.282,1323.64 224.937,1323.23 224.594,1322.82 224.253,1322.4 223.913,1321.99 223.575,1321.57 223.239,1321.15 222.904,1320.72 
  222.57,1320.29 222.238,1319.87 221.908,1319.43 221.579,1319 221.252,1318.56 220.926,1318.12 220.602,1317.68 220.279,1317.23 219.958,1316.78 219.638,1316.33 
  219.32,1315.87 219.004,1315.42 218.689,1314.96 218.375,1314.49 218.063,1314.03 217.753,1313.56 217.444,1313.09 217.136,1312.61 216.83,1312.13 216.526,1311.65 
  216.223,1311.17 215.921,1310.68 215.621,1310.19 215.323,1309.7 215.026,1309.2 214.73,1308.7 214.436,1308.2 214.144,1307.69 213.853,1307.19 213.563,1306.67 
  213.275,1306.16 212.988,1305.64 212.703,1305.12 212.419,1304.59 212.137,1304.06 211.856,1303.53 211.577,1303 211.299,1302.46 211.022,1301.92 210.747,1301.37 
  210.474,1300.82 210.202,1300.27 209.931,1299.72 209.662,1299.16 209.394,1298.6 209.128,1298.03 208.863,1297.46 208.6,1296.89 208.338,1296.31 208.077,1295.73 
  207.818,1295.15 207.56,1294.56 207.304,1293.97 207.049,1293.37 206.796,1292.77 206.544,1292.17 206.293,1291.56 206.044,1290.95 205.796,1290.34 205.55,1289.72 
  205.305,1289.1 205.061,1288.47 204.819,1287.85 204.579,1287.21 204.339,1286.57 204.102,1285.93 203.865,1285.29 203.63,1284.64 203.396,1283.98 203.164,1283.33 
  202.933,1282.66 202.704,1282 202.476,1281.33 202.249,1280.65 202.024,1279.98 201.8,1279.29 201.578,1278.61 201.357,1277.91 201.137,1277.22 200.919,1276.52 
  200.702,1275.81 200.487,1275.1 200.273,1274.39 200.06,1273.67 199.849,1272.95 199.639,1272.22 199.431,1271.49 199.224,1270.76 199.018,1270.02 198.814,1269.27 
  198.611,1268.52 198.409,1267.77 198.209,1267.01 198.01,1266.24 197.813,1265.47 197.617,1264.7 197.422,1263.92 197.229,1263.14 197.038,1262.35 196.847,1261.56 
  196.658,1260.76 196.471,1259.96 196.284,1259.15 196.1,1258.33 195.916,1257.52 195.734,1256.69 195.553,1255.86 195.374,1255.03 195.196,1254.19 195.02,1253.35 
  194.845,1252.5 194.671,1251.64 194.499,1250.78 194.328,1249.91 194.159,1249.04 193.99,1248.17 193.824,1247.29 193.658,1246.4 193.495,1245.5 193.332,1244.61 
  193.171,1243.7 193.011,1242.79 192.853,1241.88 192.696,1240.96 192.541,1240.03 192.387,1239.1 192.234,1238.16 192.083,1237.21 191.933,1236.26 191.785,1235.31 
  191.638,1234.34 191.492,1233.37 191.348,1232.4 191.206,1231.42 191.064,1230.43 190.925,1229.44 190.786,1228.44 190.649,1227.44 190.514,1226.43 190.38,1225.41 
  190.247,1224.38 190.116,1223.35 189.986,1222.32 189.858,1221.27 189.731,1220.22 189.606,1219.17 189.482,1218.11 189.359,1217.04 189.238,1215.96 189.119,1214.88 
  189,1213.79 188.884,1212.69 188.769,1211.59 188.655,1210.48 188.543,1209.36 188.432,1208.24 188.323,1207.11 188.215,1205.97 188.109,1204.83 188.004,1203.68 
  187.901,1202.52 187.799,1201.35 187.699,1200.18 187.6,1199 187.503,1197.81 187.408,1196.61 187.314,1195.41 187.221,1194.2 187.13,1192.98 187.04,1191.76 
  186.952,1190.53 186.866,1189.29 186.781,1188.04 186.698,1186.78 186.616,1185.52 186.536,1184.25 186.457,1182.97 186.38,1181.68 186.305,1180.39 186.231,1179.09 
  186.159,1177.78 186.088,1176.46 186.019,1175.13 185.952,1173.8 185.886,1172.45 185.822,1171.1 185.76,1169.74 185.699,1168.37 185.64,1167 185.582,1165.61 
  185.526,1164.22 185.472,1162.82 185.42,1161.41 185.369,1159.99 185.32,1158.56 185.272,1157.12 185.226,1155.68 185.182,1154.23 185.14,1152.76 185.1,1151.29 
  185.061,1149.81 185.024,1148.32 184.988,1146.82 184.955,1145.31 184.923,1143.79 184.893,1142.27 184.865,1140.73 184.838,1139.19 184.814,1137.63 184.791,1136.07 
  184.77,1134.49 184.751,1132.91 184.734,1131.32 184.718,1129.72 184.705,1128.1 184.693,1126.48 184.683,1124.85 184.675,1123.21 184.669,1121.56 184.665,1119.9 
  184.663,1118.22 184.663,1116.54 184.665,1114.85 184.669,1113.15 184.675,1111.44 184.682,1109.71 184.692,1107.98 184.704,1106.24 184.718,1104.48 184.734,1102.72 
  184.752,1100.95 184.772,1099.16 184.794,1097.36 184.818,1095.56 184.844,1093.74 184.873,1091.91 184.903,1090.07 184.936,1088.22 184.971,1086.36 185.008,1084.48 
  185.047,1082.6 185.089,1080.71 185.132,1078.8 185.178,1076.88 185.227,1074.95 185.277,1073.01 185.33,1071.06 185.385,1069.1 185.443,1067.12 185.503,1065.13 
  185.565,1063.13 185.63,1061.12 185.697,1059.1 185.766,1057.07 185.838,1055.02 185.913,1052.96 185.99,1050.89 186.069,1048.81 186.151,1046.71 186.235,1044.61 
  186.323,1042.49 186.412,1040.36 186.505,1038.21 186.599,1036.05 186.697,1033.88 186.797,1031.7 186.9,1029.51 187.006,1027.3 187.115,1025.08 187.226,1022.85 
  187.34,1020.6 187.457,1018.34 187.577,1016.07 187.699,1013.78 187.825,1011.48 187.953,1009.17 188.085,1006.85 188.219,1004.51 188.357,1002.16 188.497,999.792 
  188.641,997.413 188.788,995.02 188.937,992.614 189.091,990.194 189.247,987.76 189.406,985.313 189.569,982.851 189.735,980.376 189.904,977.886 190.077,975.383 
  190.253,972.865 190.433,970.333 190.616,967.787 190.802,965.226 190.992,962.652 191.186,960.062 191.383,957.459 191.584,954.84 191.789,952.208 191.997,949.56 
  192.209,946.898 192.425,944.221 192.645,941.529 192.868,938.822 193.096,936.101 193.328,933.364 193.563,930.612 193.803,927.846 194.047,925.064 194.295,922.267 
  194.547,919.454 194.803,916.627 195.064,913.784 195.329,910.925 195.599,908.051 195.873,905.162 196.151,902.257 196.434,899.337 196.722,896.4 197.014,893.449 
  197.311,890.481 197.613,887.497 197.92,884.498 198.231,881.483 198.548,878.452 198.869,875.405 199.196,872.342 199.528,869.263 199.865,866.167 200.207,863.056 
  200.555,859.929 200.908,856.785 201.266,853.625 201.63,850.448 202,847.256 202.375,844.047 202.756,840.821 203.143,837.58 203.536,834.321 203.935,831.047 
  204.34,827.755 204.751,824.448 205.168,821.123 205.591,817.782 206.021,814.425 206.457,811.05 206.9,807.659 207.35,804.252 207.806,800.828 208.269,797.387 
  208.739,793.929 209.216,790.454 209.7,786.963 210.192,783.455 210.69,779.93 211.196,776.389 211.71,772.83 212.231,769.255 212.759,765.663 213.296,762.055 
  213.841,758.429 214.393,754.787 214.954,751.128 215.523,747.452 216.1,743.759 216.686,740.05 217.28,736.324 217.884,732.581 218.496,728.822 219.117,725.046 
  219.747,721.253 220.386,717.444 221.035,713.618 221.694,709.775 222.362,705.916 223.04,702.041 223.727,698.149 224.425,694.241 225.134,690.316 225.852,686.376 
  226.581,682.419 227.321,678.445 228.072,674.456 228.834,670.451 229.607,666.43 230.391,662.392 231.187,658.339 231.995,654.271 232.814,650.186 233.646,646.086 
  234.49,641.971 235.347,637.84 236.216,633.694 237.098,629.533 237.993,625.357 238.901,621.166 239.822,616.96 240.758,612.739 241.707,608.504 242.67,604.254 
  243.648,599.99 244.64,595.712 245.647,591.42 246.669,587.114 247.707,582.794 248.76,578.461 249.828,574.114 250.913,569.755 252.013,565.382 253.131,560.997 
  254.265,556.599 255.416,552.188 256.584,547.766 257.77,543.331 258.974,538.885 260.196,534.427 261.437,529.958 262.696,525.478 263.974,520.987 265.272,516.486 
  266.59,511.974 267.927,507.452 269.285,502.921 270.663,498.381 272.063,493.831 273.484,489.272 274.927,484.705 276.391,480.13 277.879,475.547 279.389,470.957 
  280.922,466.359 282.479,461.755 284.059,457.145 285.665,452.528 287.295,447.906 288.95,443.279 290.631,438.647 292.337,434.01 294.071,429.37 295.831,424.726 
  297.619,420.08 299.434,415.431 301.278,410.779 303.15,406.127 305.052,401.473 306.984,396.818 308.945,392.164 310.938,387.511 312.962,382.858 315.017,378.207 
  317.105,373.559 319.226,368.913 321.38,364.271 323.568,359.633 325.79,354.999 328.048,350.371 330.342,345.75 332.671,341.135 335.038,336.527 337.442,331.928 
  339.885,327.337 342.366,322.757 344.886,318.186 347.447,313.627 350.048,309.08 352.691,304.546 355.376,300.025 358.104,295.519 360.875,291.028 363.691,286.554 
  366.551,282.097 369.457,277.657 372.41,273.237 375.409,268.837 378.457,264.457 381.554,260.1 384.7,255.765 387.896,251.454 391.143,247.169 394.443,242.909 
  397.795,238.676 401.2,234.472 404.661,230.297 408.176,226.153 411.748,222.04 415.377,217.96 419.064,213.914 422.809,209.903 426.615,205.929 430.481,201.993 
  434.408,198.096 438.398,194.239 442.452,190.423 446.57,186.651 450.754,182.923 455.004,179.24 459.321,175.605 463.706,172.018 468.161,168.482 472.686,164.996 
  477.282,161.564 481.951,158.186 486.692,154.864 491.509,151.599 496.4,148.393 501.368,145.248 506.413,142.164 511.536,139.144 516.739,136.19 522.022,133.302 
  527.387,130.483 532.834,127.734 538.364,125.057 543.979,122.454 549.68,119.925 555.467,117.474 561.341,115.101 567.304,112.808 573.357,110.597 579.5,108.47 
  585.734,106.428 592.061,104.474 598.481,102.608 604.995,100.834 611.604,99.1512 618.31,97.563 625.112,96.0708 632.013,94.6763 639.012,93.3812 646.11,92.1872 
  653.309,91.0962 660.608,90.1098 668.01,89.2298 675.514,88.4578 683.121,87.7955 690.832,87.2447 698.647,86.8069 706.568,86.4839 714.594,86.2772 722.726,86.1885 
  730.965,86.2193 739.31,86.3711 747.763,86.6456 756.324,87.0441 764.992,87.5682 773.769,88.2192 782.654,88.9986 791.647,89.9078 800.749,90.9479 809.96,92.1203 
  819.278,93.4262 828.706,94.8667 838.241,96.4431 847.884,98.1563 857.635,100.007 867.492,101.997 877.457,104.127 887.527,106.397 897.703,108.808 907.984,111.361 
  918.368,114.057 928.856,116.897 939.446,119.879 950.137,123.006 960.927,126.278 971.817,129.694 982.804,133.254 993.887,136.96 1005.06,140.811 1016.34,144.806 
  1027.7,148.946 1039.15,153.23 1050.69,157.659 1062.31,162.231 1074.02,166.946 1085.81,171.803 1097.68,176.802 1109.62,181.941 1121.64,187.221 1133.74,192.639 
  1145.9,198.196 1158.13,203.888 1170.42,209.716 1182.77,215.677 1195.18,221.771 1207.64,227.995 1220.16,234.348 1232.73,240.828 1245.34,247.433 1257.99,254.161 
  1270.68,261.01 1283.4,267.978 1296.16,275.062 1308.94,282.26 1321.74,289.57 1334.57,296.99 1347.41,304.515 1360.26,312.145 1373.12,319.875 1385.99,327.704 
  1398.85,335.628 1411.71,343.644 1424.56,351.749 1437.4,359.94 1450.22,368.214 1463.02,376.567 1475.79,384.997 1488.53,393.5 1501.24,402.073 1513.91,410.711 
  1526.54,419.413 1539.12,428.174 1551.65,436.99 1564.13,445.859 1576.54,454.776 1588.89,463.739 1601.18,472.743 1613.39,481.785 1625.53,490.862 1637.58,499.969 
  1649.55,509.104 1661.43,518.262 1673.23,527.441 1684.92,536.636 1696.52,545.844 1708.01,555.062 1719.4,564.287 1730.67,573.514 1741.84,582.741 1752.88,591.964 
  1763.81,601.18 1774.61,610.385 1785.29,619.578 1795.83,628.753 1806.25,637.909 1816.53,647.042 1826.67,656.149 1836.67,665.228 1846.53,674.276 1856.25,683.289 
  1865.81,692.266 1875.23,701.204 1884.5,710.099 1893.61,718.951 1902.57,727.755 1911.37,736.511 1920.02,745.215 1928.5,753.866 1936.83,762.461 1944.99,770.999 
  1952.99,779.478 1960.82,787.896 1968.49,796.25 1975.99,804.54 1983.33,812.764 1990.49,820.921 1997.5,829.008 2004.33,837.025 2010.99,844.97 2017.49,852.842 
  2023.82,860.64 2029.97,868.364 2035.96,876.011 2041.79,883.581 2047.44,891.074 2052.93,898.488 2058.24,905.823 2063.4,913.079 2068.38,920.254 2073.2,927.348 
  2077.86,934.361 2082.35,941.293 2086.68,948.143 2090.85,954.91 2094.85,961.596 2098.7,968.199 2102.39,974.72 2105.92,981.158 2109.29,987.513 2112.51,993.787 
  2115.58,999.978 2118.49,1006.09 2121.25,1012.11 2123.86,1018.06 2126.33,1023.92 2128.65,1029.71 2130.82,1035.41 2132.85,1041.03 2134.74,1046.57 2136.49,1052.04 
  2138.1,1057.42 2139.57,1062.73 2140.91,1067.96 2142.12,1073.11 2143.19,1078.18 2144.14,1083.18 2144.95,1088.1 2145.64,1092.95 2146.21,1097.73 2146.66,1102.43 
  2146.98,1107.05 2147.18,1111.61 2147.27,1116.1 2147.25,1120.51 2147.11,1124.86 2146.85,1129.13 2146.49,1133.34 2146.02,1137.48 2145.45,1141.55 2144.77,1145.56 
  2143.98,1149.51 2143.1,1153.39 2142.12,1157.2 2141.04,1160.96 2139.86,1164.65 2138.59,1168.28 2137.23,1171.85 2135.78,1175.36 2134.24,1178.81 2132.62,1182.21 
  2130.91,1185.55 2129.11,1188.83 2127.23,1192.06 2125.28,1195.23 2123.24,1198.35 2121.13,1201.42 2118.94,1204.43 2116.68,1207.4 2114.35,1210.31 2111.94,1213.17 
  2109.47,1215.99 2106.92,1218.75 2104.32,1221.47 2101.64,1224.15 2098.91,1226.77 2096.11,1229.35 2093.25,1231.89 2090.33,1234.39 2087.35,1236.84 2084.32,1239.24 
  2081.23,1241.61 2078.09,1243.94 2074.9,1246.22 2071.65,1248.47 2068.36,1250.68 2065.01,1252.85 2061.62,1254.98 2058.18,1257.07 2054.7,1259.13 2051.17,1261.16 
  2047.6,1263.14 2043.98,1265.1 2040.33,1267.02 2036.63,1268.9 2032.9,1270.76 2029.13,1272.58 2025.32,1274.37 2021.48,1276.13 2017.6,1277.86 2013.69,1279.56 
  2009.75,1281.23 2005.77,1282.87 2001.77,1284.48 1997.73,1286.07 1993.66,1287.63 1989.57,1289.16 1985.45,1290.66 1981.3,1292.14 1977.13,1293.59 1972.93,1295.02 
  1968.71,1296.43 1964.46,1297.81 1960.19,1299.16 1955.9,1300.5 1951.59,1301.81 1947.26,1303.1 1942.91,1304.36 1938.54,1305.61 1934.15,1306.83 1929.74,1308.03 
  1925.32,1309.22 1920.88,1310.38 1916.43,1311.52 1911.95,1312.64 1907.47,1313.75 1902.97,1314.83 1898.46,1315.9 1893.93,1316.95 1889.4,1317.98 1884.85,1319 
  1880.29,1320 1875.72,1320.98 1871.14,1321.94 1866.54,1322.89 1861.95,1323.83 1857.34,1324.74 1852.72,1325.65 1848.1,1326.53 1843.46,1327.41 1838.83,1328.27 
  1834.18,1329.11 1829.53,1329.94 1824.88,1330.76 1820.21,1331.56 1815.55,1332.35 1810.88,1333.13 1806.2,1333.89 1801.52,1334.65 1796.84,1335.39 1792.16,1336.12 
  1787.47,1336.83 1782.78,1337.54 1778.09,1338.23 1773.4,1338.91 1768.71,1339.58 1764.01,1340.25 1759.32,1340.9 1754.62,1341.54 1749.93,1342.17 1745.23,1342.79 
  1740.54,1343.4 1735.84,1344 1731.15,1344.59 1726.46,1345.17 1721.77,1345.74 1717.08,1346.3 1712.39,1346.86 1707.71,1347.4 1703.03,1347.94 1698.35,1348.47 
  1693.67,1348.99 1689,1349.51 1684.33,1350.01 1679.67,1350.51 1675.01,1351 1670.35,1351.48 1665.7,1351.95 1661.05,1352.42 1656.41,1352.88 1651.77,1353.33 
  1647.13,1353.78 1642.5,1354.22 1637.88,1354.65 1633.26,1355.08 1628.65,1355.5 1624.04,1355.91 1619.44,1356.32 1614.85,1356.72 1610.26,1357.11 1605.67,1357.5 
  1601.1,1357.89 1596.53,1358.26 1591.97,1358.64 1587.41,1359 1582.86,1359.36 1578.32,1359.72 1573.79,1360.07 1569.26,1360.42 1564.74,1360.76 1560.23,1361.09 
  1555.72,1361.42 1551.23,1361.75 1546.74,1362.07 1542.26,1362.39 1537.79,1362.7 1533.32,1363.01 1528.87,1363.31 1524.42,1363.61 1519.98,1363.9 1515.55,1364.19 
  1511.13,1364.48 1506.71,1364.76 1502.31,1365.04 1497.91,1365.31 1493.53,1365.58 1489.15,1365.85 1484.78,1366.11 1480.42,1366.37 1476.07,1366.62 1471.73,1366.87 
  1467.4,1367.12 1463.08,1367.37 1458.76,1367.61 1454.46,1367.84 1450.16,1368.08 1445.88,1368.31 1441.6,1368.54 1437.34,1368.76 1433.08,1368.98 1428.84,1369.2 
  1424.6,1369.42 1420.38,1369.63 1416.16,1369.84 1411.95,1370.05 1407.76,1370.25 1403.57,1370.45 1399.39,1370.65 1395.23,1370.85 1391.07,1371.04 1386.93,1371.23 
  1382.79,1371.42 1378.66,1371.6 1374.55,1371.79 1370.44,1371.97 1366.35,1372.14 1362.26,1372.32 1358.19,1372.49 1354.13,1372.66 1350.07,1372.83 1346.03,1373 
  1342,1373.16 1337.97,1373.32 1333.96,1373.48 1329.96,1373.64 1325.97,1373.8 1321.99,1373.95 1318.02,1374.1 1314.06,1374.25 1310.11,1374.4 1306.17,1374.54 
  1302.24,1374.69 1298.33,1374.83 1294.42,1374.97 1290.52,1375.11 1286.64,1375.24 1282.76,1375.38 1278.9,1375.51 1275.04,1375.64 1271.2,1375.77 1267.37,1375.9 
  1263.54,1376.02 1259.73,1376.15 1255.93,1376.27 1252.14,1376.39 1248.36,1376.51 1244.59,1376.63 1240.83,1376.75 1237.08,1376.86 1233.35,1376.98 1229.62,1377.09 
  1225.9,1377.2 1222.2,1377.31 1218.5,1377.41 1214.82,1377.52 1211.14,1377.63 1207.48,1377.73 1203.83,1377.83 1200.18,1377.93 1196.55,1378.03 1192.93,1378.13 
  1189.32,1378.23 1185.72,1378.32 1182.13,1378.42 1178.55,1378.51 1174.98,1378.6 1171.42,1378.69 1167.88,1378.78 1164.34,1378.87 1160.81,1378.96 1157.3,1379.05 
  1153.79,1379.13 1150.29,1379.22 1146.81,1379.3 1143.33,1379.38 1139.87,1379.46 1136.42,1379.54 1132.97,1379.62 1129.54,1379.7 1126.12,1379.78 1122.7,1379.85 
  1119.3,1379.93 1115.91,1380 1112.53,1380.07 1109.15,1380.15 1105.79,1380.22 1102.44,1380.29 1099.1,1380.36 1095.77,1380.43 1092.45,1380.49 1089.14,1380.56 
  1085.84,1380.63 1082.55,1380.69 1079.27,1380.75 1076,1380.82 1072.74,1380.88 1069.49,1380.94 1066.25,1381 1063.02,1381.06 1059.8,1381.12 1056.59,1381.18 
  1053.39,1381.24 1050.2,1381.29 1047.02,1381.35 1043.85,1381.41 1040.69,1381.46 1037.54,1381.51 1034.4,1381.57 1031.26,1381.62 1028.14,1381.67 1025.03,1381.72 
  1021.93,1381.77 1018.84,1381.82 1015.76,1381.87 1012.68,1381.92 1009.62,1381.97 1006.57,1382.01 1003.52,1382.06 1000.49,1382.11 997.466,1382.15 994.451,1382.2 
  991.446,1382.24 988.45,1382.28 985.464,1382.33 982.487,1382.37 979.52,1382.41 976.562,1382.45 973.613,1382.49 970.674,1382.53 967.745,1382.57 964.824,1382.61 
  961.913,1382.64 959.012,1382.68 956.119,1382.72 953.236,1382.75 950.362,1382.79 947.498,1382.83 944.642,1382.86 941.796,1382.89 938.958,1382.93 936.13,1382.96 
  933.311,1382.99 930.502,1383.03 927.701,1383.06 924.909,1383.09 922.126,1383.12 919.352,1383.15 916.587,1383.18 913.832,1383.21 911.085,1383.23 908.347,1383.26 
  905.617,1383.29 902.897,1383.32 900.185,1383.34 897.483,1383.37 894.789,1383.4 892.104,1383.42 889.427,1383.45 886.759,1383.47 884.1,1383.49 881.45,1383.52 
  878.808,1383.54 876.175,1383.56 873.551,1383.59 870.935,1383.61 868.327,1383.63 865.728,1383.65 863.138,1383.67 860.556,1383.69 857.983,1383.71 855.418,1383.73 
  852.861,1383.75 850.313,1383.77 847.773,1383.79 845.242,1383.8 842.718,1383.82 840.204,1383.84 837.697,1383.85 835.199,1383.87 832.708,1383.89 830.227,1383.9 
  827.753,1383.92 825.287,1383.93 822.83,1383.95 820.38,1383.96 817.939,1383.97 815.506,1383.99 813.081,1384 810.664,1384.01 808.255,1384.02 805.853,1384.04 
  803.46,1384.05 801.075,1384.06 798.698,1384.07 796.328,1384.08 793.967,1384.09 791.613,1384.1 789.267,1384.11 786.929,1384.12 784.598,1384.13 782.276,1384.13 
  779.961,1384.14 777.653,1384.15 775.354,1384.16 773.062,1384.16 770.778,1384.17 768.501,1384.18 766.232,1384.18 763.97,1384.19 761.716,1384.19 759.47,1384.2 
  757.231,1384.2 755,1384.21 752.776,1384.21 750.559,1384.22 748.35,1384.22 746.148,1384.22 743.954,1384.23 741.767,1384.23 739.587,1384.23 737.414,1384.23 
  735.249,1384.23 733.091,1384.24 730.941,1384.24 728.797,1384.24 726.661,1384.24 724.532,1384.24 722.41,1384.24 720.295,1384.24 718.188,1384.24 716.087,1384.24 
  713.993,1384.23 711.907,1384.23 709.827,1384.23 707.755,1384.23 705.689,1384.23 703.631,1384.22 701.579,1384.22 699.534,1384.22 697.496,1384.21 695.465,1384.21 
  693.441,1384.2 691.424,1384.2 689.414,1384.2 687.41,1384.19 685.413,1384.18 683.423,1384.18 681.439,1384.17 679.463,1384.17 677.492,1384.16 675.529,1384.15 
  673.572,1384.15 671.622,1384.14 669.679,1384.13 667.742,1384.12 665.811,1384.12 663.887,1384.11 661.97,1384.1 660.059,1384.09 658.155,1384.08 656.257,1384.07 
  654.365,1384.06 652.48,1384.05 650.601,1384.04 648.729,1384.03 646.863,1384.02 645.004,1384.01 643.15,1383.99 641.303,1383.98 639.463,1383.97 637.628,1383.96 
  635.8,1383.95 633.978,1383.93 632.162,1383.92 630.352,1383.91 628.549,1383.89 626.752,1383.88 624.96,1383.86 623.175,1383.85 621.396,1383.83 619.623,1383.82 
  617.856,1383.8 616.096,1383.79 614.341,1383.77 612.592,1383.76 610.849,1383.74 609.112,1383.72 607.381,1383.71 605.656,1383.69 603.936,1383.67 602.223,1383.65 
  600.516,1383.63 598.814,1383.62 597.118,1383.6 595.428,1383.58 593.744,1383.56 592.065,1383.54 590.392,1383.52 588.725,1383.5 587.064,1383.48 585.408,1383.46 
  583.758,1383.44 582.114,1383.42 580.475,1383.39 578.842,1383.37 577.215,1383.35 575.593,1383.33 573.977,1383.31 572.366,1383.28 570.76,1383.26 569.161,1383.24 
  567.566,1383.21 565.978,1383.19 564.394,1383.16 562.816,1383.14 561.244,1383.11 559.677,1383.09 558.115,1383.06 556.559,1383.04 555.008,1383.01 553.462,1382.99 
  551.922,1382.96 550.387,1382.93 548.857,1382.91 547.333,1382.88 545.814,1382.85 544.3,1382.82 542.791,1382.79 541.288,1382.76 539.789,1382.74 538.296,1382.71 
  536.808,1382.68 535.325,1382.65 533.847,1382.62 532.375,1382.59 530.907,1382.56 529.444,1382.52 527.987,1382.49 526.534,1382.46 525.087,1382.43 523.645,1382.4 
  522.207,1382.37 520.775,1382.33 519.347,1382.3 517.924,1382.27 516.507,1382.23 515.094,1382.2 513.686,1382.16 512.283,1382.13 510.885,1382.09 509.492,1382.06 
  508.103,1382.02 506.719,1381.99 505.341,1381.95 503.966,1381.91 502.597,1381.88 501.232,1381.84 499.873,1381.8 498.517,1381.76 497.167,1381.73 495.821,1381.69 
  494.48,1381.65 493.144,1381.61 491.812,1381.57 490.485,1381.53 489.162,1381.49 487.844,1381.45 486.531,1381.41 485.222,1381.37 483.918,1381.33 482.618,1381.28 
  481.323,1381.24 480.032,1381.2 478.746,1381.16 477.464,1381.11 476.187,1381.07 474.914,1381.03 473.646,1380.98 472.382,1380.94 471.122,1380.89 469.867,1380.85 
  468.616,1380.8 467.37,1380.75 466.128,1380.71 464.89,1380.66 463.657,1380.61 462.428,1380.57 461.203,1380.52 459.982,1380.47 458.766,1380.42 457.554,1380.37 
  456.346,1380.32 455.143,1380.27 453.943,1380.22 452.748,1380.17 451.557,1380.12 450.37,1380.07 449.187,1380.02 448.009,1379.97 446.834,1379.92 445.664,1379.86 
  444.498,1379.81 443.336,1379.76 442.178,1379.7 441.024,1379.65 439.874,1379.59 438.728,1379.54 437.586,1379.48 436.448,1379.43 435.314,1379.37 434.184,1379.32 
  433.059,1379.26 431.937,1379.2 430.819,1379.14 429.704,1379.08 428.594,1379.03 427.488,1378.97 426.386,1378.91 425.287,1378.85 424.192,1378.79 423.102,1378.73 
  422.015,1378.67 420.932,1378.6 419.852,1378.54 418.777,1378.48 417.705,1378.42 416.637,1378.35 415.573,1378.29 414.512,1378.23 413.456,1378.16 412.403,1378.1 
  411.353,1378.03 410.308,1377.96 409.266,1377.9 408.228,1377.83 407.193,1377.76 406.163,1377.7 405.135,1377.63 404.112,1377.56 403.092,1377.49 402.076,1377.42 
  401.063,1377.35 400.054,1377.28 399.048,1377.21 398.046,1377.14 397.048,1377.06 396.053,1376.99 395.061,1376.92 394.073,1376.85 393.089,1376.77 392.108,1376.7 
  391.131,1376.62 390.157,1376.55 389.186,1376.47 388.219,1376.39 387.256,1376.32 386.296,1376.24 385.339,1376.16 384.385,1376.08 383.436,1376 382.489,1375.92 
  381.546,1375.84 380.606,1375.76 379.669,1375.68 378.736,1375.6 377.806,1375.52 376.88,1375.44 375.957,1375.35 375.037,1375.27 374.12,1375.18 373.207,1375.1 
  372.297,1375.01 371.39,1374.93 370.486,1374.84 369.586,1374.75 368.689,1374.67 367.795,1374.58 366.904,1374.49 366.017,1374.4 365.132,1374.31 364.251,1374.22 
  363.373,1374.13 362.498,1374.04 361.626,1373.94 360.758,1373.85 359.892,1373.76 359.03,1373.66 358.17,1373.57 357.314,1373.47 356.461,1373.38 355.611,1373.28 
  354.764,1373.18 353.92,1373.08 353.079,1372.98 352.241,1372.89 351.406,1372.79 350.574,1372.69 349.746,1372.58 348.92,1372.48 348.097,1372.38 347.277,1372.28 
  346.46,1372.17 345.646,1372.07 344.835,1371.96 344.027,1371.86 343.221,1371.75 342.419,1371.64 341.62,1371.54 340.823,1371.43 340.029,1371.32 339.239,1371.21 
  338.451,1371.1 337.666,1370.99 336.884,1370.88 336.104,1370.76 335.328,1370.65 334.554,1370.54 333.783,1370.42 333.015,1370.31 332.25,1370.19 331.487,1370.07 
  330.728,1369.95 329.971,1369.84 329.217,1369.72 328.465,1369.6 327.717,1369.48 326.971,1369.35 326.227,1369.23 325.487,1369.11 324.749,1368.98 324.014,1368.86 
  323.281,1368.73 322.552,1368.61 321.825,1368.48 321.1,1368.35 320.379,1368.23 319.659,1368.1 318.943,1367.97 318.229,1367.83 317.518,1367.7 316.809,1367.57 
  316.103,1367.44 315.4,1367.3 314.699,1367.17 314.001,1367.03 313.305,1366.89 312.612,1366.76 311.922,1366.62 311.234,1366.48 310.548,1366.34 309.866,1366.2 
  309.185,1366.05 308.507,1365.91 307.832,1365.77 307.159,1365.62 306.489,1365.48 305.821,1365.33 305.156,1365.18 304.493,1365.03 303.832,1364.88 303.174,1364.73 
  302.519,1364.58 301.866,1364.43 301.215,1364.28 300.567,1364.12 299.921,1363.97 299.277,1363.81 298.636,1363.65 297.998,1363.49 297.362,1363.34 296.728,1363.18 
  296.096,1363.01 295.467,1362.85 294.84,1362.69 294.216,1362.52 293.594,1362.36 292.974,1362.19 292.357,1362.03 291.742,1361.86 291.129,1361.69 290.519,1361.52 
  289.91,1361.35 289.305,1361.17 288.701,1361 288.1,1360.83 287.501,1360.65 286.904,1360.47 286.309,1360.29 285.717,1360.12 285.127,1359.93 284.54,1359.75 
  283.954,1359.57 283.371,1359.39 282.79,1359.2 282.211,1359.02 281.634,1358.83 281.06,1358.64 280.487,1358.45 279.917,1358.26 279.349,1358.07 278.784,1357.88 
  278.22,1357.68 277.659,1357.49 277.1,1357.29 276.542,1357.09 275.987,1356.89 275.435,1356.69 274.884,1356.49 274.335,1356.29 273.789,1356.08 273.245,1355.88 
  272.702,1355.67 272.162,1355.46 271.624,1355.25 271.088,1355.04 270.554,1354.83 270.022,1354.62 269.493,1354.4 268.965,1354.19 268.439,1353.97 267.916,1353.75 
  267.394,1353.53 266.875,1353.31 266.357,1353.08 265.842,1352.86 265.328,1352.63 264.817,1352.41 264.307,1352.18 263.8,1351.95 263.294,1351.72 262.791,1351.49 
  262.289,1351.25 261.79,1351.02 261.292,1350.78 260.797,1350.54 260.303,1350.3 259.812,1350.06 259.322,1349.81 258.834,1349.57 258.348,1349.32 257.865,1349.08 
  257.383,1348.83 256.903,1348.57 256.424,1348.32 255.948,1348.07 255.474,1347.81 255.002,1347.56 254.531,1347.3 254.063,1347.04 253.596,1346.77 253.131,1346.51 
  252.668,1346.24 252.207,1345.98 251.748,1345.71 251.29,1345.44 250.835,1345.17 250.381,1344.89 249.929,1344.62 249.479,1344.34 249.031,1344.06 248.585,1343.78 
  248.14,1343.5 247.698,1343.21 247.257,1342.93 246.818,1342.64 246.381,1342.35 245.945,1342.06 245.512,1341.77 245.08,1341.47 244.65,1341.17 244.221,1340.87 
  243.795,1340.57 243.37,1340.27 242.947,1339.97 242.526,1339.66 242.106,1339.35 241.689,1339.04 241.273,1338.73 240.859,1338.42 240.446,1338.1 240.035,1337.78 
  239.626,1337.46 239.219,1337.14 238.814,1336.82 238.41,1336.49 238.008,1336.16 237.607,1335.83 237.209,1335.5 236.812,1335.16 236.416,1334.83 236.023,1334.49 
  235.631,1334.15 235.241,1333.81 234.852,1333.46 234.465,1333.11 234.08,1332.76 233.696,1332.41 233.315,1332.06 232.934,1331.7 232.556,1331.35 232.179,1330.98 
  231.804,1330.62 231.43,1330.26 231.058,1329.89 230.688,1329.52 230.319,1329.15 229.952,1328.77 229.587,1328.4 229.223,1328.02 228.861,1327.64 228.5,1327.25 
  228.141,1326.87 227.784,1326.48 227.428,1326.09 227.074,1325.7 226.721,1325.3 226.37,1324.9 226.021,1324.5 225.673,1324.1 225.327,1323.69 224.982,1323.28 
  224.639,1322.87 224.298,1322.46 223.958,1322.04 223.619,1321.62 223.283,1321.2 222.947,1320.78 222.614,1320.35 222.282,1319.92 221.951,1319.49 221.622,1319.05 
  221.295,1318.62 220.969,1318.18 220.644,1317.73 220.321,1317.29 220,1316.84 219.68,1316.39 219.362,1315.93 219.045,1315.48 218.73,1315.02 218.416,1314.55 
  218.104,1314.09 217.793,1313.62 217.484,1313.15 217.177,1312.67 216.87,1312.2 216.566,1311.72 216.262,1311.23 215.961,1310.75 215.661,1310.26 215.362,1309.76 
  215.065,1309.27 214.769,1308.77 214.475,1308.27 214.182,1307.76 213.891,1307.25 213.601,1306.74 213.313,1306.23 213.026,1305.71 212.74,1305.19 212.456,1304.66 
  212.174,1304.13 211.893,1303.6 211.613,1303.07 211.335,1302.53 211.059,1301.99 210.783,1301.44 210.51,1300.9 210.237,1300.34 209.967,1299.79 209.697,1299.23 
  209.429,1298.67 209.163,1298.1 208.898,1297.53 208.634,1296.96 208.372,1296.39 208.111,1295.81 207.852,1295.22 207.594,1294.64 207.337,1294.04 207.082,1293.45 
  206.829,1292.85 206.577,1292.25 206.326,1291.64 206.076,1291.03 205.829,1290.42 205.582,1289.8 205.337,1289.18 205.093,1288.56 204.851,1287.93 204.61,1287.3 
  204.371,1286.66 204.133,1286.02 203.896,1285.37 203.661,1284.72 203.427,1284.07 203.195,1283.41 202.964,1282.75 202.734,1282.09 202.506,1281.42 202.279,1280.74 
  202.054,1280.06 201.83,1279.38 201.607,1278.7 201.386,1278.01 201.166,1277.31 200.948,1276.61 200.731,1275.91 200.515,1275.2 200.301,1274.49 200.088,1273.77 
  199.877,1273.05 199.666,1272.32 199.458,1271.59 199.251,1270.85 199.045,1270.11 198.84,1269.37 198.637,1268.62 198.435,1267.87 198.235,1267.11 198.036,1266.34 
  197.839,1265.58 197.643,1264.8 197.448,1264.02 197.255,1263.24 197.063,1262.45 196.872,1261.66 196.683,1260.86 196.495,1260.06 196.309,1259.25 196.124,1258.44 
  195.94,1257.62 195.758,1256.8 195.577,1255.97 195.398,1255.14 195.22,1254.3 195.043,1253.46 194.868,1252.61 194.694,1251.75 194.521,1250.89 194.35,1250.03 
  
  "/>
<path clip-path="url(#clip940)" d="
M248.022 196.789 L898.598 196.789 L898.598 93.1086 L248.022 93.1086  Z
  " fill="#ffffff" fill-rule="evenodd" fill-opacity="1"/>
<polyline clip-path="url(#clip940)" style="stroke:#000000; stroke-linecap:round; stroke-linejoin:round; stroke-width:4; stroke-opacity:1; fill:none" points="
  248.022,196.789 898.598,196.789 898.598,93.1086 248.022,93.1086 248.022,196.789 
  "/>
<polyline clip-path="url(#clip940)" style="stroke:#009af9; stroke-linecap:round; stroke-linejoin:round; stroke-width:8; stroke-opacity:1; fill:none" points="
  272.215,144.949 417.369,144.949 
  "/>
<path clip-path="url(#clip940)" d="M457.95 146.025 Q459.454 146.534 460.866 148.201 Q462.302 149.868 463.737 152.784 L468.482 162.229 L463.459 162.229 L459.038 153.363 Q457.325 149.891 455.704 148.756 Q454.107 147.622 451.329 147.622 L446.237 147.622 L446.237 162.229 L441.561 162.229 L441.561 127.669 L452.116 127.669 Q458.042 127.669 460.959 130.145 Q463.876 132.622 463.876 137.622 Q463.876 140.886 462.348 143.039 Q460.843 145.192 457.95 146.025 M446.237 131.511 L446.237 143.78 L452.116 143.78 Q455.496 143.78 457.209 142.229 Q458.945 140.655 458.945 137.622 Q458.945 134.59 457.209 133.062 Q455.496 131.511 452.116 131.511 L446.237 131.511 Z" fill="#000000" fill-rule="evenodd" fill-opacity="1" /><path clip-path="url(#clip940)" d="M494.362 148.201 L494.362 150.284 L474.778 150.284 Q475.056 154.682 477.417 156.997 Q479.801 159.289 484.038 159.289 Q486.491 159.289 488.783 158.687 Q491.098 158.085 493.366 156.881 L493.366 160.909 Q491.075 161.881 488.667 162.391 Q486.26 162.9 483.783 162.9 Q477.579 162.9 473.945 159.289 Q470.334 155.678 470.334 149.52 Q470.334 143.155 473.76 139.428 Q477.209 135.678 483.042 135.678 Q488.274 135.678 491.306 139.057 Q494.362 142.414 494.362 148.201 M490.102 146.951 Q490.056 143.456 488.135 141.372 Q486.237 139.289 483.089 139.289 Q479.524 139.289 477.371 141.303 Q475.241 143.317 474.917 146.974 L490.102 146.951 Z" fill="#000000" fill-rule="evenodd" fill-opacity="1" /><path clip-path="url(#clip940)" d="M514.477 126.21 L514.477 129.752 L510.403 129.752 Q508.112 129.752 507.209 130.678 Q506.329 131.604 506.329 134.011 L506.329 136.303 L513.343 136.303 L513.343 139.613 L506.329 139.613 L506.329 162.229 L502.047 162.229 L502.047 139.613 L497.973 139.613 L497.973 136.303 L502.047 136.303 L502.047 134.497 Q502.047 130.169 504.061 128.201 Q506.075 126.21 510.449 126.21 L514.477 126.21 Z" fill="#000000" fill-rule="evenodd" fill-opacity="1" /><path clip-path="url(#clip940)" d="M540.218 148.201 L540.218 150.284 L520.635 150.284 Q520.912 154.682 523.273 156.997 Q525.658 159.289 529.894 159.289 Q532.348 159.289 534.639 158.687 Q536.954 158.085 539.222 156.881 L539.222 160.909 Q536.931 161.881 534.523 162.391 Q532.116 162.9 529.639 162.9 Q523.436 162.9 519.801 159.289 Q516.19 155.678 516.19 149.52 Q516.19 143.155 519.616 139.428 Q523.065 135.678 528.898 135.678 Q534.13 135.678 537.162 139.057 Q540.218 142.414 540.218 148.201 M535.959 146.951 Q535.912 143.456 533.991 141.372 Q532.093 139.289 528.945 139.289 Q525.38 139.289 523.227 141.303 Q521.098 143.317 520.773 146.974 L535.959 146.951 Z" fill="#000000" fill-rule="evenodd" fill-opacity="1" /><path clip-path="url(#clip940)" d="M562.232 140.284 Q561.514 139.868 560.658 139.682 Q559.824 139.474 558.806 139.474 Q555.195 139.474 553.25 141.835 Q551.329 144.173 551.329 148.571 L551.329 162.229 L547.047 162.229 L547.047 136.303 L551.329 136.303 L551.329 140.331 Q552.671 137.969 554.824 136.835 Q556.977 135.678 560.056 135.678 Q560.496 135.678 561.028 135.747 Q561.56 135.794 562.208 135.909 L562.232 140.284 Z" fill="#000000" fill-rule="evenodd" fill-opacity="1" /><path clip-path="url(#clip940)" d="M587.833 148.201 L587.833 150.284 L568.25 150.284 Q568.528 154.682 570.889 156.997 Q573.273 159.289 577.509 159.289 Q579.963 159.289 582.255 158.687 Q584.569 158.085 586.838 156.881 L586.838 160.909 Q584.546 161.881 582.139 162.391 Q579.732 162.9 577.255 162.9 Q571.051 162.9 567.417 159.289 Q563.806 155.678 563.806 149.52 Q563.806 143.155 567.232 139.428 Q570.681 135.678 576.514 135.678 Q581.745 135.678 584.778 139.057 Q587.833 142.414 587.833 148.201 M583.574 146.951 Q583.528 143.456 581.607 141.372 Q579.708 139.289 576.56 139.289 Q572.995 139.289 570.843 141.303 Q568.713 143.317 568.389 146.974 L583.574 146.951 Z" fill="#000000" fill-rule="evenodd" fill-opacity="1" /><path clip-path="url(#clip940)" d="M616.375 146.581 L616.375 162.229 L612.116 162.229 L612.116 146.719 Q612.116 143.039 610.68 141.21 Q609.245 139.382 606.375 139.382 Q602.926 139.382 600.935 141.581 Q598.944 143.78 598.944 147.576 L598.944 162.229 L594.662 162.229 L594.662 136.303 L598.944 136.303 L598.944 140.331 Q600.472 137.993 602.532 136.835 Q604.616 135.678 607.324 135.678 Q611.792 135.678 614.083 138.456 Q616.375 141.21 616.375 146.581 Z" fill="#000000" fill-rule="evenodd" fill-opacity="1" /><path clip-path="url(#clip940)" d="M643.527 137.298 L643.527 141.28 Q641.722 140.284 639.893 139.798 Q638.088 139.289 636.236 139.289 Q632.092 139.289 629.801 141.928 Q627.509 144.544 627.509 149.289 Q627.509 154.034 629.801 156.673 Q632.092 159.289 636.236 159.289 Q638.088 159.289 639.893 158.803 Q641.722 158.293 643.527 157.298 L643.527 161.233 Q641.745 162.067 639.824 162.483 Q637.926 162.9 635.773 162.9 Q629.916 162.9 626.467 159.219 Q623.018 155.539 623.018 149.289 Q623.018 142.946 626.491 139.312 Q629.986 135.678 636.051 135.678 Q638.018 135.678 639.893 136.095 Q641.768 136.488 643.527 137.298 Z" fill="#000000" fill-rule="evenodd" fill-opacity="1" /><path clip-path="url(#clip940)" d="M673.111 148.201 L673.111 150.284 L653.527 150.284 Q653.805 154.682 656.166 156.997 Q658.551 159.289 662.787 159.289 Q665.24 159.289 667.532 158.687 Q669.847 158.085 672.115 156.881 L672.115 160.909 Q669.824 161.881 667.416 162.391 Q665.009 162.9 662.532 162.9 Q656.328 162.9 652.694 159.289 Q649.083 155.678 649.083 149.52 Q649.083 143.155 652.509 139.428 Q655.958 135.678 661.791 135.678 Q667.023 135.678 670.055 139.057 Q673.111 142.414 673.111 148.201 M668.851 146.951 Q668.805 143.456 666.884 141.372 Q664.986 139.289 661.838 139.289 Q658.273 139.289 656.12 141.303 Q653.99 143.317 653.666 146.974 L668.851 146.951 Z" fill="#000000" fill-rule="evenodd" fill-opacity="1" /><path clip-path="url(#clip940)" d="M711.698 137.067 L711.698 141.094 Q709.893 140.169 707.948 139.706 Q706.004 139.243 703.921 139.243 Q700.749 139.243 699.152 140.215 Q697.578 141.187 697.578 143.131 Q697.578 144.613 698.712 145.469 Q699.847 146.303 703.273 147.067 L704.731 147.391 Q709.268 148.363 711.166 150.145 Q713.087 151.905 713.087 155.076 Q713.087 158.687 710.217 160.793 Q707.37 162.9 702.37 162.9 Q700.286 162.9 698.018 162.483 Q695.773 162.09 693.273 161.28 L693.273 156.881 Q695.634 158.108 697.925 158.733 Q700.217 159.335 702.462 159.335 Q705.472 159.335 707.092 158.317 Q708.712 157.275 708.712 155.4 Q708.712 153.664 707.532 152.738 Q706.374 151.812 702.416 150.956 L700.935 150.608 Q696.976 149.775 695.217 148.062 Q693.458 146.326 693.458 143.317 Q693.458 139.659 696.05 137.669 Q698.643 135.678 703.411 135.678 Q705.773 135.678 707.856 136.025 Q709.939 136.372 711.698 137.067 Z" fill="#000000" fill-rule="evenodd" fill-opacity="1" /><path clip-path="url(#clip940)" d="M729.916 139.289 Q726.49 139.289 724.499 141.974 Q722.509 144.636 722.509 149.289 Q722.509 153.942 724.476 156.627 Q726.467 159.289 729.916 159.289 Q733.319 159.289 735.309 156.604 Q737.3 153.918 737.3 149.289 Q737.3 144.682 735.309 141.997 Q733.319 139.289 729.916 139.289 M729.916 135.678 Q735.471 135.678 738.643 139.289 Q741.814 142.9 741.814 149.289 Q741.814 155.655 738.643 159.289 Q735.471 162.9 729.916 162.9 Q724.337 162.9 721.166 159.289 Q718.018 155.655 718.018 149.289 Q718.018 142.9 721.166 139.289 Q724.337 135.678 729.916 135.678 Z" fill="#000000" fill-rule="evenodd" fill-opacity="1" /><path clip-path="url(#clip940)" d="M748.874 126.21 L753.133 126.21 L753.133 162.229 L748.874 162.229 L748.874 126.21 Z" fill="#000000" fill-rule="evenodd" fill-opacity="1" /><path clip-path="url(#clip940)" d="M761.606 151.997 L761.606 136.303 L765.865 136.303 L765.865 151.835 Q765.865 155.516 767.3 157.368 Q768.735 159.196 771.605 159.196 Q775.055 159.196 777.045 156.997 Q779.059 154.798 779.059 151.002 L779.059 136.303 L783.318 136.303 L783.318 162.229 L779.059 162.229 L779.059 158.247 Q777.508 160.608 775.448 161.766 Q773.411 162.9 770.703 162.9 Q766.235 162.9 763.92 160.122 Q761.606 157.344 761.606 151.997 M772.323 135.678 L772.323 135.678 Z" fill="#000000" fill-rule="evenodd" fill-opacity="1" /><path clip-path="url(#clip940)" d="M796.304 128.942 L796.304 136.303 L805.078 136.303 L805.078 139.613 L796.304 139.613 L796.304 153.687 Q796.304 156.858 797.161 157.761 Q798.041 158.664 800.703 158.664 L805.078 158.664 L805.078 162.229 L800.703 162.229 Q795.772 162.229 793.897 160.4 Q792.022 158.548 792.022 153.687 L792.022 139.613 L788.897 139.613 L788.897 136.303 L792.022 136.303 L792.022 128.942 L796.304 128.942 Z" fill="#000000" fill-rule="evenodd" fill-opacity="1" /><path clip-path="url(#clip940)" d="M810.679 136.303 L814.939 136.303 L814.939 162.229 L810.679 162.229 L810.679 136.303 M810.679 126.21 L814.939 126.21 L814.939 131.604 L810.679 131.604 L810.679 126.21 Z" fill="#000000" fill-rule="evenodd" fill-opacity="1" /><path clip-path="url(#clip940)" d="M833.897 139.289 Q830.471 139.289 828.48 141.974 Q826.489 144.636 826.489 149.289 Q826.489 153.942 828.457 156.627 Q830.448 159.289 833.897 159.289 Q837.3 159.289 839.29 156.604 Q841.281 153.918 841.281 149.289 Q841.281 144.682 839.29 141.997 Q837.3 139.289 833.897 139.289 M833.897 135.678 Q839.452 135.678 842.624 139.289 Q845.795 142.9 845.795 149.289 Q845.795 155.655 842.624 159.289 Q839.452 162.9 833.897 162.9 Q828.318 162.9 825.147 159.289 Q821.999 155.655 821.999 149.289 Q821.999 142.9 825.147 139.289 Q828.318 135.678 833.897 135.678 Z" fill="#000000" fill-rule="evenodd" fill-opacity="1" /><path clip-path="url(#clip940)" d="M874.406 146.581 L874.406 162.229 L870.147 162.229 L870.147 146.719 Q870.147 143.039 868.711 141.21 Q867.276 139.382 864.406 139.382 Q860.957 139.382 858.966 141.581 Q856.975 143.78 856.975 147.576 L856.975 162.229 L852.693 162.229 L852.693 136.303 L856.975 136.303 L856.975 140.331 Q858.503 137.993 860.563 136.835 Q862.647 135.678 865.355 135.678 Q869.823 135.678 872.114 138.456 Q874.406 141.21 874.406 146.581 Z" fill="#000000" fill-rule="evenodd" fill-opacity="1" /></svg>
